0
SECTION
2
HEADER
9
$INSUNITS
70
4
9
$ACADVER
1
AC1014
9
$HANDSEED
5
FFFF
0
ENDSEC
0
SECTION
2
TABLES
0
TABLE
2
VPORT
5
8
100
AcDbSymbolTable
0
ENDTAB
0
TABLE
2
LTYPE
5
5
100
AcDbSymbolTable
0
LTYPE
5
14
100
AcDbSymbolTableRecord
100
AcDbLinetypeTableRecord
2
BYBLOCK
70
0
0
LTYPE
5
15
100
AcDbSymbolTableRecord
100
AcDbLinetypeTableRecord
2
BYLAYER
70
0
0
ENDTAB
0
TABLE
2
LAYER
5
2
100
AcDbSymbolTable
70
2
0
LAYER
5
50
100
AcDbSymbolTableRecord
100
AcDbLayerTableRecord
2
0
70
0
6
CONTINUOUS
0
ENDTAB
0
TABLE
2
STYLE
5
3
100
AcDbSymbolTable
70
1
0
STYLE
5
11
100
AcDbSymbolTableRecord
100
AcDbTextStyleTableRecord
2
STANDARD
70
0
0
ENDTAB
0
TABLE
2
VIEW
5
6
100
AcDbSymbolTable
70
0
0
ENDTAB
0
TABLE
2
UCS
5
7
100
AcDbSymbolTable
70
0
0
ENDTAB
0
TABLE
2
APPID
5
9
100
AcDbSymbolTable
70
2
0
APPID
5
12
100
AcDbSymbolTableRecord
100
AcDbRegAppTableRecord
2
ACAD
70
0
0
ENDTAB
0
TABLE
2
DIMSTYLE
5
A
100
AcDbSymbolTable
70
1
0
ENDTAB
0
TABLE
2
BLOCK_RECORD
5
1
100
AcDbSymbolTable
70
1
0
BLOCK_RECORD
5
1F
100
AcDbSymbolTableRecord
100
AcDbBlockTableRecord
2
*MODEL_SPACE
0
BLOCK_RECORD
5
1B
100
AcDbSymbolTableRecord
100
AcDbBlockTableRecord
2
*PAPER_SPACE
0
ENDTAB
0
ENDSEC
0
SECTION
2
BLOCKS
0
BLOCK
5
20
100
AcDbEntity
100
AcDbBlockBegin
2
*MODEL_SPACE
0
ENDBLK
5
21
100
AcDbEntity
100
AcDbBlockEnd
0
BLOCK
5
1C
100
AcDbEntity
100
AcDbBlockBegin
2
*PAPER_SPACE
0
ENDBLK
5
1D
100
AcDbEntity
100
AcDbBlockEnd
0
ENDSEC
0
SECTION
2
ENTITIES
0
SPLINE
5
100
100
AcDbEntity
8
0
100
AcDbSpline
70
0
71
3
72
11
73
7
74
0
42
0.000000001
43
0.0000000001
44
0.0000000001
40
0.062750621338370463
40
0.062750621338370463
40
0.062750621338370463
40
0.062750621338370463
40
0.11345408388481593
40
0.11345408388481593
40
0.11345408388481593
40
1
40
1
40
1
40
1
10
-64.627877884421693
20
53.859589141946159
30
0
10
-64.818638172329784
20
53.840129508943321
30
0
10
-65.007280877260214
20
53.812990804413907
30
0
10
-65.19340652522763
20
53.778468388880057
30
0
10
-68.447798332072367
20
53.174846762883064
30
0
10
-70.910634799755059
20
50.312381561340509
30
0
10
-70.910634799755059
20
46.896006047867402
30
0
0
SPLINE
5
101
100
AcDbEntity
8
0
100
AcDbSpline
70
0
71
3
72
11
73
7
74
0
42
0.000000001
43
0.0000000001
44
0.0000000001
40
0
40
0
40
0
40
0
40
0.11663596570184498
40
0.11663596570184498
40
0.11663596570184498
40
0.38874810426016015
40
0.38874810426016015
40
0.38874810426016015
40
0.38874810426016015
10
-65.909728934177124
20
57.895526658823748
30
0
10
-65.909728934177124
20
57.445958872205559
30
0
10
-65.867187433814152
20
57.005004024945023
30
0
10
-65.785690580391574
20
56.577509433849784
30
0
10
-65.595558120501124
20
55.580162974676092
30
0
10
-65.193196976052576
20
54.658105937320755
30
0
10
-64.627874944487274
20
53.859591223335798
30
0
0
SPLINE
5
102
100
AcDbEntity
8
0
100
AcDbSpline
70
0
71
3
72
11
73
7
74
0
42
0.000000001
43
0.0000000001
44
0.0000000001
40
0
40
0
40
0
40
0
40
0.11662371436577856
40
0.11662371436577856
40
0.11662371436577856
40
1
40
1
40
1
40
1
10
-58.909744056863516
20
64.895488826768258
30
0
10
-59.359264875619992
20
64.895488826768258
30
0
10
-59.800174456090417
20
64.852956194217938
30
0
10
-60.227626987342447
20
64.771475991819585
30
0
10
-63.465402695274904
20
64.154297239292191
30
0
10
-65.909728934177124
20
61.300439539491911
30
0
10
-65.909728934177124
20
57.895526658823748
30
0
0
LINE
5
103
100
AcDbEntity
8
0
100
AcDbLine
10
-58.909744056863516
20
64.895488826768258
30
0
11
-44.910253716619451
21
64.895488826768258
31
0
0
SPLINE
5
104
100
AcDbEntity
8
0
100
AcDbSpline
70
0
71
3
72
11
73
7
74
0
42
0.000000001
43
0.0000000001
44
0.0000000001
40
0
40
0
40
0
40
0
40
0.11660780795387082
40
0.11660780795387082
40
0.11660780795387082
40
1
40
1
40
1
40
1
10
-37.910293062632881
20
57.895526658823748
30
0
10
-37.910293062632881
20
58.344983471833615
30
0
10
-37.952814153322265
20
58.785831718337953
30
0
10
-38.034272708341739
20
59.213227468522092
30
0
10
-38.651382769342369
20
62.451072988915797
30
0
10
-41.505278718693077
20
64.895488826768258
30
0
10
-44.910253716619451
20
64.895488826768258
30
0
0
SPLINE
5
105
100
AcDbEntity
8
0
100
AcDbSpline
70
0
71
3
72
8
73
4
74
0
42
0.000000001
43
0.0000000001
44
0.0000000001
40
0.61073692060383689
40
0.61073692060383689
40
0.61073692060383689
40
0.61073692060383689
40
1
40
1
40
1
40
1
10
-39.192921535068663
20
53.859578929714758
30
0
10
-38.384921597434541
20
55.001738381902058
30
0
10
-37.910293062632888
20
56.395130382110985
30
0
10
-37.910293062632881
20
57.895526658823748
30
0
0
SPLINE
5
106
100
AcDbEntity
8
0
100
AcDbSpline
70
0
71
3
72
11
73
7
74
0
42
0.000000001
43
0.0000000001
44
0.0000000001
40
0
40
0
40
0
40
0
40
0.11345212751346301
40
0.11345212751346301
40
0.11345212751346301
40
0.93725475578677309
40
0.93725475578677309
40
0.93725475578677309
40
0.93725475578677309
10
-32.90938719705494
20
46.896006047867402
30
0
10
-32.90938719705494
20
47.333202954006133
30
0
10
-32.949664002650607
20
47.762273071045776
30
0
10
-33.026908758872565
20
48.17874117983272
30
0
10
-33.587801133397939
20
51.202814241573968
30
0
10
-36.099124857968185
20
53.543413596225598
30
0
10
-39.192921765159319
20
53.859576678063597
30
0
0
SPLINE
5
107
100
AcDbEntity
8
0
100
AcDbSpline
70
0
71
3
72
11
73
7
74
0
42
0.000000001
43
0.0000000001
44
0.0000000001
40
0
40
0
40
0
40
0
40
0.11503758176817547
40
0.11503758176817547
40
0.11503758176817547
40
1
40
1
40
1
40
1
10
-39.909375102284429
20
39.896042365964938
30
0
10
-39.466100274138746
20
39.896042365964938
30
0
10
-39.03117771366751
20
39.937429587439318
30
0
10
-38.609266343293676
20
40.016760876540339
30
0
10
-35.363581751644695
20
40.627041520180462
30
0
10
-32.90938719705494
20
43.48473427554427
30
0
10
-32.90938719705494
20
46.896006047867402
30
0
0
SPLINE
5
108
100
AcDbEntity
8
0
100
AcDbSpline
70
0
71
3
72
8
73
4
74
0
42
0.000000001
43
0.0000000001
44
0.0000000001
40
0.33653300222547683
40
0.33653300222547683
40
0.33653300222547683
40
0.33653300222547683
40
1
40
1
40
1
40
1
10
-45.934570499737468
20
43.333069908964873
30
0
10
-44.713106961016116
20
41.274859839068654
30
0
10
-42.466663629628073
20
39.896042365964931
30
0
10
-39.909375102284429
20
39.896042365964938
30
0
0
SPLINE
5
109
100
AcDbEntity
8
0
100
AcDbSpline
70
0
71
3
72
11
73
7
74
0
42
0.000000001
43
0.0000000001
44
0.0000000001
40
0
40
0
40
0
40
0
40
0.12920563653029404
40
0.12920563653029404
40
0.12920563653029404
40
0.74618659594601222
40
0.74618659594601222
40
0.74618659594601222
40
0.74618659594601222
10
-51.909326689416375
20
39.396042365964938
30
0
10
-51.446675694994077
20
39.396042365964938
30
0
10
-50.993806854397796
20
39.44436599114033
30
0
10
-50.55686105502383
20
39.536562191163064
30
0
10
-48.470363548026839
20
39.976816203852145
30
0
10
-46.756436685492076
20
41.419800213940725
30
0
10
-45.934570511835005
20
43.333069901785478
30
0
0
SPLINE
5
110
100
AcDbEntity
8
0
100
AcDbSpline
70
0
71
3
72
8
73
4
74
0
42
0.000000001
43
0.0000000001
44
0.0000000001
40
0.25337115424920237
40
0.25337115424920237
40
0.25337115424920237
40
0.25337115424920237
40
1
40
1
40
1
40
1
10
-57.886634288705842
20
43.332683050615572
30
0
10
-56.891133176688143
20
41.014433548656442
30
0
10
-54.583699994775785
20
39.396042365964938
30
0
10
-51.909326689416375
20
39.396042365964938
30
0
0
SPLINE
5
111
100
AcDbEntity
8
0
100
AcDbSpline
70
0
71
3
72
11
73
7
74
0
42
0.000000001
43
0.0000000001
44
0.0000000001
40
0
40
0
40
0
40
0
40
0.11660840330600275
40
0.11660840330600275
40
0.11660840330600275
40
0.66292756441815948
40
0.66292756441815948
40
0.66292756441815948
40
0.66292756441815948
10
-63.910649922441458
20
39.896042365964938
30
0
10
-63.461190448140776
20
39.896042365964938
30
0
10
-63.020339677654533
20
39.938563935463677
30
0
10
-62.592941612531916
20
40.020023386675973
30
0
10
-60.590549454001028
20
40.401667057194082
30
0
10
-58.891614023852142
20
41.63879163177053
30
0
10
-57.886635033595738
20
43.332682730738519
30
0
0
SPLINE
5
112
100
AcDbEntity
8
0
100
AcDbSpline
70
0
71
3
72
11
73
7
74
0
42
0.000000001
43
0.0000000001
44
0.0000000001
40
0
40
0
40
0
40
0
40
0.11503951041723637
40
0.11503951041723637
40
0.11503951041723637
40
1
40
1
40
1
40
1
10
-70.910634799755059
20
46.896006047867402
30
0
10
-70.910634799755059
20
46.452562389136752
30
0
10
-70.869226620043065
20
46.017500531024893
30
0
10
-70.789857652114847
20
45.595478056850745
30
0
10
-70.179298719269156
20
42.349000268432341
30
0
10
-67.320672133496274
20
39.896042365964938
30
0
10
-63.910649922441458
20
39.896042365964938
30
0
0
CIRCLE
5
113
100
AcDbEntity
8
0
100
AcDbCircle
10
-86.425825543146118
20
61.381522157476205
30
0
40
9.0005003935343453
210
0
220
-0
230
1
0
CIRCLE
5
114
100
AcDbEntity
8
0
100
AcDbCircle
10
-106.39856307984495
20
59.385268276020177
30
0
40
9.0005003935343453
210
0
220
-0
230
1
0
CIRCLE
5
115
100
AcDbEntity
8
0
100
AcDbCircle
10
-126.39665258298429
20
49.401543589840756
30
0
40
9.0005003935343453
210
0
220
-0
230
1
0
CIRCLE
5
116
100
AcDbEntity
8
0
100
AcDbCircle
10
-106.38829194565102
20
39.397973857329859
30
0
40
9.0005003935343453
210
0
220
-0
230
1
0
LWPOLYLINE
5
117
100
AcDbEntity
8
0
100
AcDbPolyline
90
4
70
1
43
0.0
10
-63.009608871399969
20
27.745597906024887
10
-63.009608871399969
20
7.9455894741702471
10
-35.708925950167057
20
7.9455894741702444
10
-35.708925950167057
20
27.745597906024887
0
CIRCLE
5
118
100
AcDbEntity
8
0
100
AcDbCircle
10
-126.42097591899451
20
29.370737108765578
30
0
40
9.0005003935343453
210
0
220
-0
230
1
0
CIRCLE
5
119
100
AcDbEntity
8
0
100
AcDbCircle
10
-106.4038374752765
20
19.352171563073547
30
0
40
9.0005003935343453
210
0
220
-0
230
1
0
CIRCLE
5
120
100
AcDbEntity
8
0
100
AcDbCircle
10
-86.370407000316831
20
41.390538119683065
30
0
40
9.0005003935343453
210
0
220
-0
230
1
0
CIRCLE
5
121
100
AcDbEntity
8
0
100
AcDbCircle
10
-86.410504102908234
20
21.399999521672726
30
0
40
9.0005003935343453
210
0
220
-0
230
1
0
SPLINE
5
122
100
AcDbEntity
8
0
100
AcDbSpline
70
0
71
3
72
11
73
7
74
0
42
0.000000001
43
0.0000000001
44
0.0000000001
40
0
40
0
40
0
40
0
40
0.11598695075436527
40
0.11598695075436527
40
0.11598695075436527
40
1
40
1
40
1
40
1
10
-36.410070753287854
20
62.396176916428487
30
0
10
-36.410070753287854
20
61.820925129568451
30
0
10
-36.355951093022739
20
61.257009667371285
30
0
10
-36.252311197798086
20
60.710269519219686
30
0
10
-35.462403202069538
20
56.543202255454091
30
0
10
-31.793878629082101
20
53.395305863436661
30
0
10
-27.410569832231218
20
53.395305863436661
30
0
0
SPLINE
5
123
100
AcDbEntity
8
0
100
AcDbSpline
70
0
71
3
72
8
73
4
74
0
42
0.000000001
43
0.0000000001
44
0.0000000001
40
0.60072541311803573
40
0.60072541311803573
40
0.60072541311803573
40
0.60072541311803573
40
1
40
1
40
1
40
1
10
-34.679838450747823
20
67.698677958659303
30
0
10
-35.767926572843855
20
66.209910568607867
30
0
10
-36.410070753287854
20
64.375958021731094
30
0
10
-36.410070753287854
20
62.396176916428487
30
0
0
LINE
5
124
100
AcDbEntity
8
0
100
AcDbLine
10
-34.679838450747823
20
67.698677958659303
30
0
11
-35.077920400545011
21
68.412406561187581
31
0
0
SPLINE
5
125
100
AcDbEntity
8
0
100
AcDbSpline
70
0
71
3
72
47
73
43
74
0
42
0.000000001
43
0.0000000001
44
0.0000000001
40
-5.7103805163491943
40
-5.7103805163491943
40
-5.7103805163491943
40
-5.7103805163491943
40
-5.4491186402970513
40
-5.4491186402970513
40
-5.4491186402970513
40
-5.3109263805602192
40
-5.3109263805602192
40
-5.3109263805602192
40
-5.1298800017705517
40
-5.1298800017705517
40
-5.1298800017705517
40
-5.0051912982983016
40
-5.0051912982983016
40
-5.0051912982983016
40
-4.8035093749313598
40
-4.8035093749313598
40
-4.8035093749313598
40
-4.5630289299121278
40
-4.5630289299121278
40
-4.5630289299121278
40
-4.3225484848928959
40
-4.3225484848928959
40
-4.3225484848928959
40
-3.633886488054737
40
-3.633886488054737
40
-3.633886488054737
40
-2.9452244912165781
40
-2.9452244912165781
40
-2.9452244912165781
40
-2.3024660909840988
40
-2.3024660909840988
40
-2.3024660909840988
40
-1.6597076907516195
40
-1.6597076907516195
40
-1.6597076907516195
40
-1.4459062763006623
40
-1.4459062763006623
40
-1.4459062763006623
40
-1.2321048618497052
40
-1.2321048618497052
40
-1.2321048618497052
40
-1.1320447132094842
40
-1.1320447132094842
40
-1.1320447132094842
40
-1.1320447132094842
10
-75.801780013391038
20
78.422173064968803
30
0
10
-75.881460134063218
20
77.590889672059703
30
0
10
-76.01514006119109
20
76.711104575037538
30
0
10
-76.05453943753416
20
75.769747287958268
30
0
10
-76.075326676214218
20
75.273084131685664
30
0
10
-76.070194193502459
20
74.755954236302756
30
0
10
-76.004559266480356
20
74.225747635134013
30
0
10
-75.917788731579833
20
73.52480512664755
30
0
10
-75.720686376772491
20
72.803884458544147
30
0
10
-75.339682592013048
20
72.137131715097809
30
0
10
-75.077388577705705
20
71.678119861083317
30
0
10
-74.741748722621736
20
71.270286999670176
30
0
10
-74.354301251163463
20
70.924153820134876
30
0
10
-73.731615184926497
20
70.367866003498193
30
0
10
-73.01513388180777
20
69.996477494251266
30
0
10
-72.30684686667125
20
69.728690798781017
30
0
10
-71.467378326319121
20
69.411307447726941
30
0
10
-70.614231425718316
20
69.225201335481657
30
0
10
-69.786658190668774
20
69.089954144657284
30
0
10
-68.957101092606507
20
68.954382738539223
30
0
10
-68.132196723899568
20
68.870058848207506
30
0
10
-67.315788191566298
20
68.807400548619199
30
0
10
-64.982466889922378
20
68.628321154707962
30
0
10
-62.658468887403139
20
68.606169132901044
30
0
10
-60.371070444701893
20
68.564708373993781
30
0
10
-58.079682866928252
20
68.523175309114649
30
0
10
-55.795665342543252
20
68.476399607993685
30
0
10
-53.512938111624209
20
68.391159538616904
30
0
10
-51.382184224061966
20
68.311594355908895
30
0
10
-49.251351043227054
20
68.19907204587301
30
0
10
-47.116138611336886
20
68.078554495056153
30
0
10
-44.984414023382556
20
67.958233808215198
30
0
10
-42.825884769948843
20
67.816812161440595
30
0
10
-40.647167237998765
20
67.793201021006865
30
0
10
-39.921005826400361
20
67.785331483622912
30
0
10
-39.186785539577883
20
67.792009529847647
30
0
10
-38.445012510508839
20
67.833170995091507
30
0
10
-37.704948543555346
20
67.874237623372963
30
0
10
-36.942484210986109
20
67.948006956599073
30
0
10
-36.174022918433472
20
68.109647907516973
30
0
10
-35.813974070066337
20
68.185381895410671
30
0
10
-35.445043614398593
20
68.281587168109596
30
0
10
-35.077920400552202
20
68.412406561207732
30
0
0
LINE
5
126
100
AcDbEntity
8
0
100
AcDbLine
10
-75.801780013391038
20
78.422173064968803
30
0
11
-87.606665902202053
21
79.010534833559973
31
0
0
SPLINE
5
127
100
AcDbEntity
8
0
100
AcDbSpline
70
0
71
3
72
62
73
58
74
0
42
0.000000001
43
0.0000000001
44
0.0000000001
40
-5.4812116854377955
40
-5.4812116854377955
40
-5.4812116854377955
40
-5.4812116854377955
40
-5.3156348756363743
40
-5.3156348756363743
40
-5.3156348756363743
40
-5.0842734931256439
40
-5.0842734931256439
40
-5.0842734931256439
40
-4.9089446588362051
40
-4.9089446588362051
40
-4.9089446588362051
40
-4.7696823829359269
40
-4.7696823829359269
40
-4.7696823829359269
40
-4.4560666367464652
40
-4.4560666367464652
40
-4.4560666367464652
40
-4.1260734420782414
40
-4.1260734420782414
40
-4.1260734420782414
40
-3.7960802474100177
40
-3.7960802474100177
40
-3.7960802474100177
40
-3.1360938580735707
40
-3.1360938580735707
40
-3.1360938580735707
40
-2.3520703935551781
40
-2.3520703935551781
40
-2.3520703935551781
40
-1.9480822708735832
40
-1.9480822708735832
40
-1.9480822708735832
40
-1.5680469290367853
40
-1.5680469290367853
40
-1.5680469290367853
40
-1.3359060096385882
40
-1.3359060096385882
40
-1.3359060096385882
40
-1.103765090240391
40
-1.103765090240391
40
-1.103765090240391
40
-0.92707840710467648
40
-0.92707840710467648
40
-0.92707840710467648
40
-0.82581424557856087
40
-0.82581424557856087
40
-0.82581424557856087
40
-0.68646315382949019
40
-0.68646315382949019
40
-0.68646315382949019
40
-0.54598361720560384
40
-0.54598361720560384
40
-0.54598361720560384
40
-0.33160360713926751
40
-0.33160360713926751
40
-0.33160360713926751
40
-0.28499457272917
40
-0.28499457272917
40
-0.28499457272917
40
-0.28499457272917
10
-131.14660306316142
20
81.107024724660505
30
0
10
-131.19368044825217
20
80.574904045155506
30
0
10
-131.25773077621017
20
80.019717333660267
30
0
10
-131.29742214744692
20
79.438610726585836
30
0
10
-131.35221263084517
20
78.636443632946239
30
0
10
-131.37849913104219
20
77.755145955948791
30
0
10
-131.16856550377415
20
76.843620356726049
30
0
10
-131.00480295143751
20
76.132568198996722
30
0
10
-130.68254876306352
20
75.428939244477718
30
0
10
-130.15133924770259
20
74.846613936455725
30
0
10
-129.73410655603954
20
74.389232905687791
30
0
10
-129.23570037195151
20
74.053104283343728
30
0
10
-128.72194595601448
20
73.807606704674498
30
0
10
-127.59610662359728
20
73.26962431171556
30
0
10
-126.42154652149193
20
73.114776155498944
30
0
10
-125.35078982437005
20
73.009132730087686
30
0
10
-124.21175199351583
20
72.896752524156781
30
0
10
-123.08238558313798
20
72.861615592665089
30
0
10
-121.97552388527713
20
72.833356037390104
30
0
10
-120.86600415445301
20
72.805028619228892
30
0
10
-119.76427498830908
20
72.78822114685228
30
0
10
-118.67121966867417
20
72.764376068615377
30
0
10
-116.4855093762848
20
72.71669464573678
30
0
10
-114.30819890468038
20
72.639156776628482
30
0
10
-112.12766883096296
20
72.510170908265536
30
0
10
-109.53684171584641
20
72.35691455594575
30
0
10
-106.95343323290784
20
72.13361522779816
30
0
10
-104.35344379159886
20
71.892000944827629
30
0
10
-103.01331262528464
20
71.767463965680335
30
0
10
-101.6635130064566
20
71.638413098701577
30
0
10
-100.31382912181648
20
71.525227948601511
30
0
10
-99.045150094828003
20
71.418835905447821
30
0
10
-97.777341690913431
20
71.324544103740294
30
0
10
-96.491898719035603
20
71.279523397584072
30
0
10
-95.706812002976264
20
71.252026916507816
30
0
10
-94.906748513341768
20
71.242380797834258
30
0
10
-94.095276254386391
20
71.277030883039416
30
0
10
-93.286630662353488
20
71.3115602688015
30
0
10
-92.446613671516303
20
71.386410238231235
30
0
10
-91.60293503614912
20
71.584493510705371
30
0
10
-90.958389926476059
20
71.735823174903487
30
0
10
-90.282167455383956
20
71.966198822724095
30
0
10
-89.654573121916741
20
72.37472898770946
30
0
10
-89.290959585963932
20
72.611421847909497
30
0
10
-88.954022654831221
20
72.904948977957829
30
0
10
-88.669511704302948
20
73.258514948333499
30
0
10
-88.275397636239958
20
73.748286335531944
30
0
10
-88.021334446534979
20
74.307139511951846
30
0
10
-87.872131254101106
20
74.871372153342534
30
0
10
-87.724167991109283
20
75.43091582894894
30
0
10
-87.677340139116197
20
75.975153851272921
30
0
10
-87.65959868171106
20
76.482113016873726
30
0
10
-87.632473619736345
20
77.25720710703493
30
0
10
-87.671967765918595
20
77.966149365161598
30
0
10
-87.638879726853531
20
78.607585562590941
30
0
10
-87.631706448415969
20
78.746644889589348
30
0
10
-87.621379746424708
20
78.881161253434357
30
0
10
-87.606665902202039
20
79.010534833559973
30
0
0
SPLINE
5
128
100
AcDbEntity
8
0
100
AcDbSpline
70
0
71
3
72
35
73
31
74
0
42
0.000000001
43
0.0000000001
44
0.0000000001
40
0
40
0
40
0
40
0
40
0.1270899381058252
40
0.1270899381058252
40
0.1270899381058252
40
0.37227264293544926
40
0.37227264293544926
40
0.37227264293544926
40
0.620008002652912
40
0.620008002652912
40
0.620008002652912
40
0.74615455838149125
40
0.74615455838149125
40
0.74615455838149125
40
1.1016492179471613
40
1.1016492179471613
40
1.1016492179471613
40
1.2891272302014143
40
1.2891272302014143
40
1.2891272302014143
40
1.8285211621029154
40
1.8285211621029154
40
1.8285211621029154
40
2.1034228572255618
40
2.1034228572255618
40
2.1034228572255618
40
2.5615790157633072
40
2.5615790157633072
40
2.5615790157633072
40
2.9100301542997116
40
2.9100301542997116
40
2.9100301542997116
40
2.9100301542997116
10
-152.11010842981275
20
66.896854425276146
30
0
10
-152.11010842981275
20
67.306243292752995
30
0
10
-152.10132820934189
20
67.713231135725053
30
0
10
-152.07889661919356
20
68.114695556651213
30
0
10
-152.03555067733814
20
68.890469959241116
30
0
10
-151.94281499978777
20
69.634029295264043
30
0
10
-151.75458156186079
20
70.337836195314921
30
0
10
-151.57197376515853
20
71.020608760792769
30
0
10
-151.25591691591612
20
71.688504172468868
30
0
10
-150.84756233607533
20
72.265893128131154
30
0
10
-150.63722695633663
20
72.563294776702136
30
0
10
-150.39976179511868
20
72.845828396645402
30
0
10
-150.13909228103489
20
73.114326110339022
30
0
10
-149.38473682205131
20
73.891335714861739
30
0
10
-148.47071032653338
20
74.586262298722858
30
0
10
-147.51834431619181
20
75.222499269134858
30
0
10
-147.01701698755048
20
75.557415653482821
30
0
10
-146.50022707260146
20
75.87867988589079
30
0
10
-145.97301451774962
20
76.191552719988465
30
0
10
-144.45905385194794
20
77.090008494348453
30
0
10
-142.88310108973343
20
77.894746947671649
30
0
10
-141.26494572829739
20
78.593707165713766
30
0
10
-140.44062597689381
20
78.949771068419722
30
0
10
-139.60589965551429
20
79.277544896353646
30
0
10
-138.76285664870065
20
79.57321511273706
30
0
10
-137.36160297849176
20
80.064659763282933
30
0
10
-135.93124259041403
20
80.459822516732231
30
0
10
-134.47632249318315
20
80.72994091593381
30
0
10
-133.3702564375393
20
80.935291569162388
30
0
10
-132.25542295815418
20
81.066462580357893
30
0
10
-131.14660306316142
20
81.107024724660462
30
0
0
LINE
5
129
100
AcDbEntity
8
0
100
AcDbLine
10
-152.11010842981275
20
66.896854425276146
30
0
11
-149.95278546069483
21
66.492189968799607
31
0
0
ARC
5
130
100
AcDbEntity
8
0
100
AcDbCircle
10
-143.01005309060147
20
65.595993635596884
30
0
40
7.0003357512613729
210
-0
220
0
230
1
100
AcDbArc
50
-5.5286331365221564
51
172.64469919297022
0
LINE
5
131
100
AcDbEntity
8
0
100
AcDbLine
10
-136.0422816700634
20
64.921559011989146
30
0
11
-138.44281337884894
21
40.120999181449271
31
0
0
ARC
5
132
100
AcDbEntity
8
0
100
AcDbCircle
10
-145.41058479938701
20
40.795433805057002
30
0
40
7.0003357512613764
210
0
220
0
230
1
100
AcDbArc
50
196.85751038021132
51
354.4713668634779
0
LINE
5
133
100
AcDbEntity
8
0
100
AcDbLine
10
-152.11010842981275
20
38.765388545523294
30
0
11
-152.11010842981278
21
35.396284325640899
31
0
0
LINE
5
134
100
AcDbEntity
8
0
100
AcDbLine
10
-152.11010842981278
20
35.396284325640899
30
0
11
-152.1101086661098
21
8.3968512168023413
31
0
0
ARC
5
135
100
AcDbEntity
8
0
100
AcDbCircle
10
-149.40966230561122
20
8.3963859247805637
30
0
40
2.700446400583933
210
0
220
0
230
1
100
AcDbArc
50
179.9901278287914
51
270
0
LINE
5
136
100
AcDbEntity
8
0
100
AcDbLine
10
-149.40966230561122
20
5.695939524196648
30
0
11
-42.414034267154918
21
5.6959395663856149
31
0
0
LINE
5
137
100
AcDbEntity
8
0
100
AcDbLine
10
-42.414034267154918
20
5.6959395663856149
30
0
11
-37.331208622195099
21
5.7234805734365057
31
0
0
SPLINE
5
138
100
AcDbEntity
8
0
100
AcDbSpline
70
0
71
3
72
26
73
22
74
0
42
0.000000001
43
0.0000000001
44
0.0000000001
40
0.22869388540039404
40
0.22869388540039404
40
0.22869388540039404
40
0.22869388540039404
40
0.23306418896165831
40
0.23306418896165831
40
0.23306418896165831
40
0.40473398371388569
40
0.40473398371388569
40
0.40473398371388569
40
0.76781628758782916
40
0.76781628758782916
40
0.76781628758782916
40
1.1308985914617726
40
1.1308985914617726
40
1.1308985914617726
40
1.5839963778001698
40
1.5839963778001698
40
1.5839963778001698
40
2.4926254914700898
40
2.4926254914700898
40
2.4926254914700898
40
3.1679927556003395
40
3.1679927556003395
40
3.1679927556003395
40
3.1679927556003395
10
-9.9775385863917094
20
12.162028270779579
30
0
10
-9.9861626044528595
20
12.152587962143556
30
0
10
-9.9948168101197936
20
12.143165734261556
30
0
10
-10.003495986839955
20
12.133766874690767
30
0
10
-10.34344383302286
20
11.765630337011654
30
0
10
-10.732736628548967
20
11.42366120968514
30
0
10
-11.15309892827829
20
11.106052584340363
30
0
10
-12.045462674484648
20
10.431818898487435
30
0
10
-13.043457454470902
20
9.8831393287198939
30
0
10
-14.105030243242114
20
9.4037806803365456
30
0
10
-15.164029814334675
20
8.9255839816202212
30
0
10
-16.276231444688921
20
8.5261090312299785
30
0
10
-17.406938849827085
20
8.1859043280197561
30
0
10
-18.821247582717579
20
7.7603702946047708
30
0
10
-20.255864927453683
20
7.4217449051441964
30
0
10
-21.714296474095924
20
7.1358910874905064
30
0
10
-24.639238964876874
20
6.5625998834348875
30
0
10
-27.623616091003097
20
6.2075151120002126
30
0
10
-30.629150489631659
20
5.9858558875776655
30
0
10
-32.861586590536859
20
5.8212129359197693
30
0
10
-35.101998380643423
20
5.7355594246088373
30
0
10
-37.331208622195099
20
5.7234805734365057
30
0
0
SPLINE
5
139
100
AcDbEntity
8
0
100
AcDbSpline
70
0
71
3
72
20
73
16
74
0
42
0.000000001
43
0.0000000001
44
0.0000000001
40
-1.1859812028204071
40
-1.1859812028204071
40
-1.1859812028204071
40
-1.1859812028204071
40
-1.0217198954894349
40
-1.0217198954894349
40
-1.0217198954894349
40
-0.82669135454101916
40
-0.82669135454101916
40
-0.82669135454101916
40
-0.67990521489790268
40
-0.67990521489790268
40
-0.67990521489790268
40
-0.51562796162690272
40
-0.51562796162690272
40
-0.51562796162690272
40
-0.38018116075591019
40
-0.38018116075591019
40
-0.38018116075591019
40
-0.38018116075591019
10
-16.966103780611693
20
16.979564603858243
30
0
10
-16.804033853493404
20
16.405630067902791
30
0
10
-16.596697226632628
20
15.835066036428081
30
0
10
-16.323987114419875
20
15.279444579009398
30
0
10
-15.996382557624717
20
14.611980802816447
30
0
10
-15.560978520139003
20
13.957013269715171
30
0
10
-14.964057084381075
20
13.411376721927521
30
0
10
-14.511143232888834
20
12.997375254448553
30
0
10
-13.982769908417495
20
12.668354591731678
30
0
10
-13.405276646122017
20
12.447635964693802
30
0
10
-12.762077539015353
20
12.201804483875705
30
0
10
-12.101632599567989
20
12.103219019875864
30
0
10
-11.468728503910029
20
12.08532610327925
30
0
10
-10.950300164871994
20
12.070669546155715
30
0
10
-10.452851665898574
20
12.108246394714934
30
0
10
-9.9775385863917094
20
12.162028270779579
30
0
0
LINE
5
140
100
AcDbEntity
8
0
100
AcDbLine
10
-16.966103780611693
20
16.979564603858243
30
0
11
-17.415438740555853
21
16.982709730981639
31
0
0
LINE
5
141
100
AcDbEntity
8
0
100
AcDbLine
10
-17.415438740555853
20
16.982709730981639
30
0
11
-17.416955345786391
21
16.766036862774992
31
0
0
ARC
5
142
100
AcDbEntity
8
0
100
AcDbCircle
10
-21.631065677555004
20
16.79553365870899
30
0
40
4.2142135623730965
210
0
220
0
230
1
100
AcDbArc
50
179.59896381781263
51
359.59896296403821
0
LINE
5
143
100
AcDbEntity
8
0
100
AcDbLine
10
-25.845176009763154
20
16.825030391847854
30
0
11
-25.623992810641845
21
48.424814691346036
31
0
0
ARC
5
144
100
AcDbEntity
8
0
100
AcDbCircle
10
-21.409882478433708
20
48.395317958207173
30
0
40
4.214213562373085
210
0
220
0
230
1
100
AcDbArc
50
118.14384974263552
51
179.59896381781172
0
LINE
5
145
100
AcDbEntity
8
0
100
AcDbLine
10
-23.397671618494776
20
52.111268749585406
30
0
11
-24.254066240818961
21
53.964845284850682
31
0
0
SPLINE
5
146
100
AcDbEntity
8
0
100
AcDbSpline
70
0
71
3
72
11
73
7
74
0
42
0.000000001
43
0.0000000001
44
0.0000000001
40
0
40
0
40
0
40
0
40
0.11652701965627144
40
0.11652701965627144
40
0.11652701965627144
40
0.22344174699473393
40
0.22344174699473393
40
0.22344174699473393
40
0.22344174699473393
10
-27.410569832231218
20
53.395305863436661
30
0
10
-26.832636745435519
20
53.395305863436661
30
0
10
-26.266144993028846
20
53.449930981852489
30
0
10
-25.717014497371263
20
53.554519096185899
30
0
10
-25.21318167482378
20
53.650479756295326
30
0
10
-24.724277091516839
20
53.788530819962908
30
0
10
-24.254066240818961
20
53.964845284850675
30
0
0
SPLINE
5
147
100
AcDbEntity
8
0
100
AcDbSpline
70
0
71
3
72
26
73
22
74
0
42
0.000000001
43
0.0000000001
44
0.0000000001
40
0.22869388540039404
40
0.22869388540039404
40
0.22869388540039404
40
0.22869388540039404
40
0.23306418896165831
40
0.23306418896165831
40
0.23306418896165831
40
0.40473398371388569
40
0.40473398371388569
40
0.40473398371388569
40
0.76781628758782916
40
0.76781628758782916
40
0.76781628758782916
40
1.1308985914617726
40
1.1308985914617726
40
1.1308985914617726
40
1.5839963778001698
40
1.5839963778001698
40
1.5839963778001698
40
2.4926254914700898
40
2.4926254914700898
40
2.4926254914700898
40
3.1679927556003395
40
3.1679927556003395
40
3.1679927556003395
40
3.1679927556003395
10
-9.9775385863917094
20
12.162028270779579
30
0
10
-9.9861626044528595
20
12.152587962143556
30
0
10
-9.9948168101197936
20
12.143165734261556
30
0
10
-10.003495986839955
20
12.133766874690767
30
0
10
-10.34344383302286
20
11.765630337011654
30
0
10
-10.732736628548967
20
11.42366120968514
30
0
10
-11.15309892827829
20
11.106052584340363
30
0
10
-12.045462674484648
20
10.431818898487435
30
0
10
-13.043457454470902
20
9.8831393287198939
30
0
10
-14.105030243242114
20
9.4037806803365456
30
0
10
-15.164029814334675
20
8.9255839816202212
30
0
10
-16.276231444688921
20
8.5261090312299785
30
0
10
-17.406938849827085
20
8.1859043280197561
30
0
10
-18.821247582717579
20
7.7603702946047708
30
0
10
-20.255864927453683
20
7.4217449051441964
30
0
10
-21.714296474095924
20
7.1358910874905064
30
0
10
-24.639238964876874
20
6.5625998834348875
30
0
10
-27.623616091003097
20
6.2075151120002126
30
0
10
-30.629150489631659
20
5.9858558875776655
30
0
10
-32.861586590536859
20
5.8212129359197693
30
0
10
-35.101998380643423
20
5.7355594246088373
30
0
10
-37.331208622195099
20
5.7234805734365057
30
0
0
SPLINE
5
148
100
AcDbEntity
8
0
100
AcDbSpline
70
0
71
3
72
20
73
16
74
0
42
0.000000001
43
0.0000000001
44
0.0000000001
40
-1.1859812028204071
40
-1.1859812028204071
40
-1.1859812028204071
40
-1.1859812028204071
40
-1.0217198954894349
40
-1.0217198954894349
40
-1.0217198954894349
40
-0.82669135454101916
40
-0.82669135454101916
40
-0.82669135454101916
40
-0.67990521489790268
40
-0.67990521489790268
40
-0.67990521489790268
40
-0.51562796162690272
40
-0.51562796162690272
40
-0.51562796162690272
40
-0.38018116075591019
40
-0.38018116075591019
40
-0.38018116075591019
40
-0.38018116075591019
10
-16.966103780611693
20
16.979564603858243
30
0
10
-16.804033853493404
20
16.405630067902791
30
0
10
-16.596697226632628
20
15.835066036428081
30
0
10
-16.323987114419875
20
15.279444579009398
30
0
10
-15.996382557624717
20
14.611980802816447
30
0
10
-15.560978520139003
20
13.957013269715171
30
0
10
-14.964057084381075
20
13.411376721927521
30
0
10
-14.511143232888834
20
12.997375254448553
30
0
10
-13.982769908417495
20
12.668354591731678
30
0
10
-13.405276646122017
20
12.447635964693802
30
0
10
-12.762077539015353
20
12.201804483875705
30
0
10
-12.101632599567989
20
12.103219019875864
30
0
10
-11.468728503910029
20
12.08532610327925
30
0
10
-10.950300164871994
20
12.070669546155715
30
0
10
-10.452851665898574
20
12.108246394714934
30
0
10
-9.9775385863917094
20
12.162028270779579
30
0
0
LINE
5
149
100
AcDbEntity
8
0
100
AcDbLine
10
-17.415438740555857
20
16.982709730981639
30
0
11
-16.966103780611693
21
16.979564603858243
31
0
0
LINE
5
150
100
AcDbEntity
8
0
100
AcDbLine
10
-17.416955345864164
20
16.766036851665188
30
0
11
-17.415438740555857
21
16.982709730981639
31
0
0
ARC
5
151
100
AcDbEntity
8
0
100
AcDbCircle
10
-21.631065677555004
20
16.79553365870899
30
0
40
4.2142135623730965
210
0
220
0
230
1
100
AcDbArc
50
179.59896381781263
51
359.59896281298711
0
LINE
5
152
100
AcDbEntity
8
0
100
AcDbLine
10
-25.623992810641859
20
48.424814691346029
30
0
11
-25.845176009763136
21
16.825030391847854
31
0
0
LINE
5
153
100
AcDbEntity
8
0
100
AcDbLine
10
-25.623992810641859
20
48.424814691346029
30
0
11
-25.845176009763154
21
16.825030391847854
31
0
0
ARC
5
154
100
AcDbEntity
8
0
100
AcDbCircle
10
-21.409882478433708
20
48.395317958207173
30
0
40
4.2142135623730956
210
0
220
0
230
1
100
AcDbArc
50
118.14384974263552
51
179.59896381781263
0
LINE
5
155
100
AcDbEntity
8
0
100
AcDbLine
10
-24.254066240818961
20
53.964845284850682
30
0
11
-23.39767161849478
21
52.111268749585413
31
0
0
SPLINE
5
156
100
AcDbEntity
8
0
100
AcDbSpline
70
0
71
3
72
11
73
7
74
0
42
0.000000001
43
0.0000000001
44
0.0000000001
40
0
40
0
40
0
40
0
40
0.11652701965627144
40
0.11652701965627144
40
0.11652701965627144
40
0.22344174699473393
40
0.22344174699473393
40
0.22344174699473393
40
0.22344174699473393
10
-27.410569832231218
20
53.395305863436661
30
0
10
-26.832636745435519
20
53.395305863436661
30
0
10
-26.266144993028846
20
53.449930981852489
30
0
10
-25.717014497371263
20
53.554519096185899
30
0
10
-25.21318167482378
20
53.650479756295326
30
0
10
-24.724277091516839
20
53.788530819962908
30
0
10
-24.254066240818961
20
53.964845284850675
30
0
0
SPLINE
5
157
100
AcDbEntity
8
0
100
AcDbSpline
70
0
71
3
72
11
73
7
74
0
42
0.000000001
43
0.0000000001
44
0.0000000001
40
0
40
0
40
0
40
0
40
0.11598695075436527
40
0.11598695075436527
40
0.11598695075436527
40
1
40
1
40
1
40
1
10
-36.410070753287854
20
62.396176916428487
30
0
10
-36.410070753287854
20
61.820925129568451
30
0
10
-36.355951093022739
20
61.257009667371285
30
0
10
-36.252311197798086
20
60.710269519219686
30
0
10
-35.462403202069538
20
56.543202255454091
30
0
10
-31.793878629082101
20
53.395305863436661
30
0
10
-27.410569832231218
20
53.395305863436661
30
0
0
SPLINE
5
158
100
AcDbEntity
8
0
100
AcDbSpline
70
0
71
3
72
8
73
4
74
0
42
0.000000001
43
0.0000000001
44
0.0000000001
40
0.60072541311803573
40
0.60072541311803573
40
0.60072541311803573
40
0.60072541311803573
40
1
40
1
40
1
40
1
10
-34.679838450747823
20
67.698677958659303
30
0
10
-35.767926572843855
20
66.209910568607867
30
0
10
-36.410070753287854
20
64.375958021731094
30
0
10
-36.410070753287854
20
62.396176916428487
30
0
0
LINE
5
159
100
AcDbEntity
8
0
100
AcDbLine
10
-35.077920400545011
20
68.412406561187581
30
0
11
-34.679838450747823
21
67.698677958659303
31
0
0
SPLINE
5
160
100
AcDbEntity
8
0
100
AcDbSpline
70
0
71
3
72
47
73
43
74
0
42
0.000000001
43
0.0000000001
44
0.0000000001
40
-5.7103805163491943
40
-5.7103805163491943
40
-5.7103805163491943
40
-5.7103805163491943
40
-5.4491186402970513
40
-5.4491186402970513
40
-5.4491186402970513
40
-5.3109263805602192
40
-5.3109263805602192
40
-5.3109263805602192
40
-5.1298800017705517
40
-5.1298800017705517
40
-5.1298800017705517
40
-5.0051912982983016
40
-5.0051912982983016
40
-5.0051912982983016
40
-4.8035093749313598
40
-4.8035093749313598
40
-4.8035093749313598
40
-4.5630289299121278
40
-4.5630289299121278
40
-4.5630289299121278
40
-4.3225484848928959
40
-4.3225484848928959
40
-4.3225484848928959
40
-3.633886488054737
40
-3.633886488054737
40
-3.633886488054737
40
-2.9452244912165781
40
-2.9452244912165781
40
-2.9452244912165781
40
-2.3024660909840988
40
-2.3024660909840988
40
-2.3024660909840988
40
-1.6597076907516195
40
-1.6597076907516195
40
-1.6597076907516195
40
-1.4459062763006623
40
-1.4459062763006623
40
-1.4459062763006623
40
-1.2321048618497052
40
-1.2321048618497052
40
-1.2321048618497052
40
-1.1320447132094842
40
-1.1320447132094842
40
-1.1320447132094842
40
-1.1320447132094842
10
-75.801780013391038
20
78.422173064968803
30
0
10
-75.881460134063218
20
77.590889672059703
30
0
10
-76.01514006119109
20
76.711104575037538
30
0
10
-76.05453943753416
20
75.769747287958268
30
0
10
-76.075326676214218
20
75.273084131685664
30
0
10
-76.070194193502459
20
74.755954236302756
30
0
10
-76.004559266480356
20
74.225747635134013
30
0
10
-75.917788731579833
20
73.52480512664755
30
0
10
-75.720686376772491
20
72.803884458544147
30
0
10
-75.339682592013048
20
72.137131715097809
30
0
10
-75.077388577705705
20
71.678119861083317
30
0
10
-74.741748722621736
20
71.270286999670176
30
0
10
-74.354301251163463
20
70.924153820134876
30
0
10
-73.731615184926497
20
70.367866003498193
30
0
10
-73.01513388180777
20
69.996477494251266
30
0
10
-72.30684686667125
20
69.728690798781017
30
0
10
-71.467378326319121
20
69.411307447726941
30
0
10
-70.614231425718316
20
69.225201335481657
30
0
10
-69.786658190668774
20
69.089954144657284
30
0
10
-68.957101092606507
20
68.954382738539223
30
0
10
-68.132196723899568
20
68.870058848207506
30
0
10
-67.315788191566298
20
68.807400548619199
30
0
10
-64.982466889922378
20
68.628321154707962
30
0
10
-62.658468887403139
20
68.606169132901044
30
0
10
-60.371070444701893
20
68.564708373993781
30
0
10
-58.079682866928252
20
68.523175309114649
30
0
10
-55.795665342543252
20
68.476399607993685
30
0
10
-53.512938111624209
20
68.391159538616904
30
0
10
-51.382184224061966
20
68.311594355908895
30
0
10
-49.251351043227054
20
68.19907204587301
30
0
10
-47.116138611336886
20
68.078554495056153
30
0
10
-44.984414023382556
20
67.958233808215198
30
0
10
-42.825884769948843
20
67.816812161440595
30
0
10
-40.647167237998765
20
67.793201021006865
30
0
10
-39.921005826400361
20
67.785331483622912
30
0
10
-39.186785539577883
20
67.792009529847647
30
0
10
-38.445012510508839
20
67.833170995091507
30
0
10
-37.704948543555346
20
67.874237623372963
30
0
10
-36.942484210986109
20
67.948006956599073
30
0
10
-36.174022918433472
20
68.109647907516973
30
0
10
-35.813974070066337
20
68.185381895410671
30
0
10
-35.445043614398593
20
68.281587168109596
30
0
10
-35.077920400552202
20
68.412406561207732
30
0
0
LINE
5
161
100
AcDbEntity
8
0
100
AcDbLine
10
-87.606665902202053
20
79.010534833559973
30
0
11
-75.801780013391038
21
78.422173064968803
31
0
0
SPLINE
5
162
100
AcDbEntity
8
0
100
AcDbSpline
70
0
71
3
72
62
73
58
74
0
42
0.000000001
43
0.0000000001
44
0.0000000001
40
-5.4812116854377955
40
-5.4812116854377955
40
-5.4812116854377955
40
-5.4812116854377955
40
-5.3156348756363743
40
-5.3156348756363743
40
-5.3156348756363743
40
-5.0842734931256439
40
-5.0842734931256439
40
-5.0842734931256439
40
-4.9089446588362051
40
-4.9089446588362051
40
-4.9089446588362051
40
-4.7696823829359269
40
-4.7696823829359269
40
-4.7696823829359269
40
-4.4560666367464652
40
-4.4560666367464652
40
-4.4560666367464652
40
-4.1260734420782414
40
-4.1260734420782414
40
-4.1260734420782414
40
-3.7960802474100177
40
-3.7960802474100177
40
-3.7960802474100177
40
-3.1360938580735707
40
-3.1360938580735707
40
-3.1360938580735707
40
-2.3520703935551781
40
-2.3520703935551781
40
-2.3520703935551781
40
-1.9480822708735832
40
-1.9480822708735832
40
-1.9480822708735832
40
-1.5680469290367853
40
-1.5680469290367853
40
-1.5680469290367853
40
-1.3359060096385882
40
-1.3359060096385882
40
-1.3359060096385882
40
-1.103765090240391
40
-1.103765090240391
40
-1.103765090240391
40
-0.92707840710467648
40
-0.92707840710467648
40
-0.92707840710467648
40
-0.82581424557856087
40
-0.82581424557856087
40
-0.82581424557856087
40
-0.68646315382949019
40
-0.68646315382949019
40
-0.68646315382949019
40
-0.54598361720560384
40
-0.54598361720560384
40
-0.54598361720560384
40
-0.33160360713926751
40
-0.33160360713926751
40
-0.33160360713926751
40
-0.28499457272917
40
-0.28499457272917
40
-0.28499457272917
40
-0.28499457272917
10
-131.14660306316142
20
81.107024724660505
30
0
10
-131.19368044825217
20
80.574904045155506
30
0
10
-131.25773077621017
20
80.019717333660267
30
0
10
-131.29742214744692
20
79.438610726585836
30
0
10
-131.35221263084517
20
78.636443632946239
30
0
10
-131.37849913104219
20
77.755145955948791
30
0
10
-131.16856550377415
20
76.843620356726049
30
0
10
-131.00480295143751
20
76.132568198996722
30
0
10
-130.68254876306352
20
75.428939244477718
30
0
10
-130.15133924770259
20
74.846613936455725
30
0
10
-129.73410655603954
20
74.389232905687791
30
0
10
-129.23570037195151
20
74.053104283343728
30
0
10
-128.72194595601448
20
73.807606704674498
30
0
10
-127.59610662359728
20
73.26962431171556
30
0
10
-126.42154652149193
20
73.114776155498944
30
0
10
-125.35078982437005
20
73.009132730087686
30
0
10
-124.21175199351583
20
72.896752524156781
30
0
10
-123.08238558313798
20
72.861615592665089
30
0
10
-121.97552388527713
20
72.833356037390104
30
0
10
-120.86600415445301
20
72.805028619228892
30
0
10
-119.76427498830908
20
72.78822114685228
30
0
10
-118.67121966867417
20
72.764376068615377
30
0
10
-116.4855093762848
20
72.71669464573678
30
0
10
-114.30819890468038
20
72.639156776628482
30
0
10
-112.12766883096296
20
72.510170908265536
30
0
10
-109.53684171584641
20
72.35691455594575
30
0
10
-106.95343323290784
20
72.13361522779816
30
0
10
-104.35344379159886
20
71.892000944827629
30
0
10
-103.01331262528464
20
71.767463965680335
30
0
10
-101.6635130064566
20
71.638413098701577
30
0
10
-100.31382912181648
20
71.525227948601511
30
0
10
-99.045150094828003
20
71.418835905447821
30
0
10
-97.777341690913431
20
71.324544103740294
30
0
10
-96.491898719035603
20
71.279523397584072
30
0
10
-95.706812002976264
20
71.252026916507816
30
0
10
-94.906748513341768
20
71.242380797834258
30
0
10
-94.095276254386391
20
71.277030883039416
30
0
10
-93.286630662353488
20
71.3115602688015
30
0
10
-92.446613671516303
20
71.386410238231235
30
0
10
-91.60293503614912
20
71.584493510705371
30
0
10
-90.958389926476059
20
71.735823174903487
30
0
10
-90.282167455383956
20
71.966198822724095
30
0
10
-89.654573121916741
20
72.37472898770946
30
0
10
-89.290959585963932
20
72.611421847909497
30
0
10
-88.954022654831221
20
72.904948977957829
30
0
10
-88.669511704302948
20
73.258514948333499
30
0
10
-88.275397636239958
20
73.748286335531944
30
0
10
-88.021334446534979
20
74.307139511951846
30
0
10
-87.872131254101106
20
74.871372153342534
30
0
10
-87.724167991109283
20
75.43091582894894
30
0
10
-87.677340139116197
20
75.975153851272921
30
0
10
-87.65959868171106
20
76.482113016873726
30
0
10
-87.632473619736345
20
77.25720710703493
30
0
10
-87.671967765918595
20
77.966149365161598
30
0
10
-87.638879726853531
20
78.607585562590941
30
0
10
-87.631706448415969
20
78.746644889589348
30
0
10
-87.621379746424708
20
78.881161253434357
30
0
10
-87.606665902202039
20
79.010534833559973
30
0
0
SPLINE
5
163
100
AcDbEntity
8
0
100
AcDbSpline
70
0
71
3
72
35
73
31
74
0
42
0.000000001
43
0.0000000001
44
0.0000000001
40
0
40
0
40
0
40
0
40
0.1270899381058252
40
0.1270899381058252
40
0.1270899381058252
40
0.37227264293544926
40
0.37227264293544926
40
0.37227264293544926
40
0.620008002652912
40
0.620008002652912
40
0.620008002652912
40
0.74615455838149125
40
0.74615455838149125
40
0.74615455838149125
40
1.1016492179471613
40
1.1016492179471613
40
1.1016492179471613
40
1.2891272302014143
40
1.2891272302014143
40
1.2891272302014143
40
1.8285211621029154
40
1.8285211621029154
40
1.8285211621029154
40
2.1034228572255618
40
2.1034228572255618
40
2.1034228572255618
40
2.5615790157633072
40
2.5615790157633072
40
2.5615790157633072
40
2.9100301542997116
40
2.9100301542997116
40
2.9100301542997116
40
2.9100301542997116
10
-152.11010842981275
20
66.896854425276146
30
0
10
-152.11010842981275
20
67.306243292752995
30
0
10
-152.10132820934189
20
67.713231135725053
30
0
10
-152.07889661919356
20
68.114695556651213
30
0
10
-152.03555067733814
20
68.890469959241116
30
0
10
-151.94281499978777
20
69.634029295264043
30
0
10
-151.75458156186079
20
70.337836195314921
30
0
10
-151.57197376515853
20
71.020608760792769
30
0
10
-151.25591691591612
20
71.688504172468868
30
0
10
-150.84756233607533
20
72.265893128131154
30
0
10
-150.63722695633663
20
72.563294776702136
30
0
10
-150.39976179511868
20
72.845828396645402
30
0
10
-150.13909228103489
20
73.114326110339022
30
0
10
-149.38473682205131
20
73.891335714861739
30
0
10
-148.47071032653338
20
74.586262298722858
30
0
10
-147.51834431619181
20
75.222499269134858
30
0
10
-147.01701698755048
20
75.557415653482821
30
0
10
-146.50022707260146
20
75.87867988589079
30
0
10
-145.97301451774962
20
76.191552719988465
30
0
10
-144.45905385194794
20
77.090008494348453
30
0
10
-142.88310108973343
20
77.894746947671649
30
0
10
-141.26494572829739
20
78.593707165713766
30
0
10
-140.44062597689381
20
78.949771068419722
30
0
10
-139.60589965551429
20
79.277544896353646
30
0
10
-138.76285664870065
20
79.57321511273706
30
0
10
-137.36160297849176
20
80.064659763282933
30
0
10
-135.93124259041403
20
80.459822516732231
30
0
10
-134.47632249318315
20
80.72994091593381
30
0
10
-133.3702564375393
20
80.935291569162388
30
0
10
-132.25542295815418
20
81.066462580357893
30
0
10
-131.14660306316142
20
81.107024724660462
30
0
0
LINE
5
164
100
AcDbEntity
8
0
100
AcDbLine
10
-149.95278546069483
20
66.492189968799607
30
0
11
-152.11010842981275
21
66.896854425276146
31
0
0
ARC
5
165
100
AcDbEntity
8
0
100
AcDbCircle
10
-143.01005309060147
20
65.595993635596884
30
0
40
7.0003357512613729
210
-0
220
0
230
1
100
AcDbArc
50
-5.5286331365221564
51
172.64469919297022
0
LINE
5
166
100
AcDbEntity
8
0
100
AcDbLine
10
-138.44281337884894
20
40.120999181449271
30
0
11
-136.0422816700634
21
64.921559011989146
31
0
0
ARC
5
167
100
AcDbEntity
8
0
100
AcDbCircle
10
-145.41058479938701
20
40.795433805057002
30
0
40
7.0003357512613764
210
0
220
0
230
1
100
AcDbArc
50
196.85751038021132
51
354.4713668634779
0
LINE
5
168
100
AcDbEntity
8
0
100
AcDbLine
10
-152.11010842981275
20
35.396284325640899
30
0
11
-152.11010842981275
21
38.765388545523294
31
0
0
LINE
5
169
100
AcDbEntity
8
0
100
AcDbLine
10
-152.1101086661098
20
8.3968512168023413
30
0
11
-152.11010842981275
21
35.396284325640899
31
0
0
ARC
5
170
100
AcDbEntity
8
0
100
AcDbCircle
10
-149.40966230561122
20
8.3963859247805637
30
0
40
2.7004464005839153
210
0
220
0
230
1
100
AcDbArc
50
179.9901278287914
51
270
0
LINE
5
171
100
AcDbEntity
8
0
100
AcDbLine
10
-42.414034267154918
20
5.6959395663856167
30
0
11
-149.40966230561122
21
5.695939524196648
31
0
0
SPLINE
5
172
100
AcDbEntity
8
0
100
AcDbSpline
70
0
71
3
72
8
73
4
74
0
42
0.000000001
43
0.0000000001
44
0.0000000001
40
0.33653300222547683
40
0.33653300222547683
40
0.33653300222547683
40
0.33653300222547683
40
1
40
1
40
1
40
1
10
-45.934570499737468
20
43.333069908964873
30
0
10
-44.713106961016116
20
41.274859839068654
30
0
10
-42.466663629628073
20
39.896042365964931
30
0
10
-39.909375102284429
20
39.896042365964938
30
0
0
SPLINE
5
173
100
AcDbEntity
8
0
100
AcDbSpline
70
0
71
3
72
11
73
7
74
0
42
0.000000001
43
0.0000000001
44
0.0000000001
40
0
40
0
40
0
40
0
40
0.11503758176817547
40
0.11503758176817547
40
0.11503758176817547
40
1
40
1
40
1
40
1
10
-39.909375102284429
20
39.896042365964938
30
0
10
-39.466100274138746
20
39.896042365964938
30
0
10
-39.03117771366751
20
39.937429587439318
30
0
10
-38.609266343293676
20
40.016760876540339
30
0
10
-35.363581751644695
20
40.627041520180462
30
0
10
-32.90938719705494
20
43.48473427554427
30
0
10
-32.90938719705494
20
46.896006047867402
30
0
0
SPLINE
5
174
100
AcDbEntity
8
0
100
AcDbSpline
70
0
71
3
72
11
73
7
74
0
42
0.000000001
43
0.0000000001
44
0.0000000001
40
0
40
0
40
0
40
0
40
0.11345212751346301
40
0.11345212751346301
40
0.11345212751346301
40
0.93725475578677309
40
0.93725475578677309
40
0.93725475578677309
40
0.93725475578677309
10
-32.90938719705494
20
46.896006047867402
30
0
10
-32.90938719705494
20
47.333202954006133
30
0
10
-32.949664002650607
20
47.762273071045776
30
0
10
-33.026908758872565
20
48.17874117983272
30
0
10
-33.587801133397939
20
51.202814241573968
30
0
10
-36.099124857968185
20
53.543413596225598
30
0
10
-39.192921765159319
20
53.859576678063597
30
0
0
SPLINE
5
175
100
AcDbEntity
8
0
100
AcDbSpline
70
0
71
3
72
8
73
4
74
0
42
0.000000001
43
0.0000000001
44
0.0000000001
40
0.61073692060383689
40
0.61073692060383689
40
0.61073692060383689
40
0.61073692060383689
40
1
40
1
40
1
40
1
10
-39.192921535068663
20
53.859578929714758
30
0
10
-38.384921597434541
20
55.001738381902058
30
0
10
-37.910293062632888
20
56.395130382110985
30
0
10
-37.910293062632881
20
57.895526658823748
30
0
0
SPLINE
5
176
100
AcDbEntity
8
0
100
AcDbSpline
70
0
71
3
72
11
73
7
74
0
42
0.000000001
43
0.0000000001
44
0.0000000001
40
0
40
0
40
0
40
0
40
0.11660780795387082
40
0.11660780795387082
40
0.11660780795387082
40
1
40
1
40
1
40
1
10
-37.910293062632881
20
57.895526658823748
30
0
10
-37.910293062632881
20
58.344983471833615
30
0
10
-37.952814153322265
20
58.785831718337953
30
0
10
-38.034272708341739
20
59.213227468522092
30
0
10
-38.651382769342369
20
62.451072988915797
30
0
10
-41.505278718693077
20
64.895488826768258
30
0
10
-44.910253716619451
20
64.895488826768258
30
0
0
LINE
5
177
100
AcDbEntity
8
0
100
AcDbLine
10
-44.910253716619444
20
64.895488826768258
30
0
11
-58.909744056863516
21
64.895488826768258
31
0
0
SPLINE
5
178
100
AcDbEntity
8
0
100
AcDbSpline
70
0
71
3
72
11
73
7
74
0
42
0.000000001
43
0.0000000001
44
0.0000000001
40
0
40
0
40
0
40
0
40
0.11662371436577856
40
0.11662371436577856
40
0.11662371436577856
40
1
40
1
40
1
40
1
10
-58.909744056863516
20
64.895488826768258
30
0
10
-59.359264875619992
20
64.895488826768258
30
0
10
-59.800174456090417
20
64.852956194217938
30
0
10
-60.227626987342447
20
64.771475991819585
30
0
10
-63.465402695274904
20
64.154297239292191
30
0
10
-65.909728934177124
20
61.300439539491911
30
0
10
-65.909728934177124
20
57.895526658823748
30
0
0
SPLINE
5
179
100
AcDbEntity
8
0
100
AcDbSpline
70
0
71
3
72
11
73
7
74
0
42
0.000000001
43
0.0000000001
44
0.0000000001
40
0
40
0
40
0
40
0
40
0.11663596570184498
40
0.11663596570184498
40
0.11663596570184498
40
0.38874810426016015
40
0.38874810426016015
40
0.38874810426016015
40
0.38874810426016015
10
-65.909728934177124
20
57.895526658823748
30
0
10
-65.909728934177124
20
57.445958872205559
30
0
10
-65.867187433814152
20
57.005004024945023
30
0
10
-65.785690580391574
20
56.577509433849784
30
0
10
-65.595558120501124
20
55.580162974676092
30
0
10
-65.193196976052576
20
54.658105937320755
30
0
10
-64.627874944487274
20
53.859591223335798
30
0
0
SPLINE
5
180
100
AcDbEntity
8
0
100
AcDbSpline
70
0
71
3
72
11
73
7
74
0
42
0.000000001
43
0.0000000001
44
0.0000000001
40
0.062750621338370463
40
0.062750621338370463
40
0.062750621338370463
40
0.062750621338370463
40
0.11345408388481593
40
0.11345408388481593
40
0.11345408388481593
40
1
40
1
40
1
40
1
10
-64.627877884421693
20
53.859589141946159
30
0
10
-64.818638172329784
20
53.840129508943321
30
0
10
-65.007280877260214
20
53.812990804413907
30
0
10
-65.19340652522763
20
53.778468388880057
30
0
10
-68.447798332072367
20
53.174846762883064
30
0
10
-70.910634799755059
20
50.312381561340509
30
0
10
-70.910634799755059
20
46.896006047867402
30
0
0
SPLINE
5
181
100
AcDbEntity
8
0
100
AcDbSpline
70
0
71
3
72
11
73
7
74
0
42
0.000000001
43
0.0000000001
44
0.0000000001
40
0
40
0
40
0
40
0
40
0.11503951041723637
40
0.11503951041723637
40
0.11503951041723637
40
1
40
1
40
1
40
1
10
-70.910634799755059
20
46.896006047867402
30
0
10
-70.910634799755059
20
46.452562389136752
30
0
10
-70.869226620043065
20
46.017500531024893
30
0
10
-70.789857652114847
20
45.595478056850745
30
0
10
-70.179298719269156
20
42.349000268432341
30
0
10
-67.320672133496274
20
39.896042365964938
30
0
10
-63.910649922441458
20
39.896042365964938
30
0
0
SPLINE
5
182
100
AcDbEntity
8
0
100
AcDbSpline
70
0
71
3
72
11
73
7
74
0
42
0.000000001
43
0.0000000001
44
0.0000000001
40
0
40
0
40
0
40
0
40
0.11660840330600275
40
0.11660840330600275
40
0.11660840330600275
40
0.66292756441815948
40
0.66292756441815948
40
0.66292756441815948
40
0.66292756441815948
10
-63.910649922441458
20
39.896042365964938
30
0
10
-63.461190448140776
20
39.896042365964938
30
0
10
-63.020339677654533
20
39.938563935463677
30
0
10
-62.592941612531916
20
40.020023386675973
30
0
10
-60.590549454001028
20
40.401667057194082
30
0
10
-58.891614023852142
20
41.63879163177053
30
0
10
-57.886635033595738
20
43.332682730738519
30
0
0
SPLINE
5
183
100
AcDbEntity
8
0
100
AcDbSpline
70
0
71
3
72
8
73
4
74
0
42
0.000000001
43
0.0000000001
44
0.0000000001
40
0.25337115424920237
40
0.25337115424920237
40
0.25337115424920237
40
0.25337115424920237
40
1
40
1
40
1
40
1
10
-57.886634288705842
20
43.332683050615572
30
0
10
-56.891133176688143
20
41.014433548656442
30
0
10
-54.583699994775785
20
39.396042365964938
30
0
10
-51.909326689416375
20
39.396042365964938
30
0
0
SPLINE
5
184
100
AcDbEntity
8
0
100
AcDbSpline
70
0
71
3
72
11
73
7
74
0
42
0.000000001
43
0.0000000001
44
0.0000000001
40
0
40
0
40
0
40
0
40
0.12920563653029404
40
0.12920563653029404
40
0.12920563653029404
40
0.74618659594601222
40
0.74618659594601222
40
0.74618659594601222
40
0.74618659594601222
10
-51.909326689416375
20
39.396042365964938
30
0
10
-51.446675694994077
20
39.396042365964938
30
0
10
-50.993806854397796
20
39.44436599114033
30
0
10
-50.55686105502383
20
39.536562191163064
30
0
10
-48.470363548026839
20
39.976816203852145
30
0
10
-46.756436685492076
20
41.419800213940725
30
0
10
-45.934570511835005
20
43.333069901785478
30
0
0
CIRCLE
5
185
100
AcDbEntity
8
0
100
AcDbCircle
10
-86.425825543146118
20
61.381522157476205
30
0
40
9.0005003935343453
210
0
220
-0
230
1
0
CIRCLE
5
186
100
AcDbEntity
8
0
100
AcDbCircle
10
-106.39856307984495
20
59.385268276020177
30
0
40
9.0005003935343453
210
0
220
-0
230
1
0
CIRCLE
5
187
100
AcDbEntity
8
0
100
AcDbCircle
10
-126.39665258298429
20
49.401543589840756
30
0
40
9.0005003935343453
210
0
220
-0
230
1
0
CIRCLE
5
188
100
AcDbEntity
8
0
100
AcDbCircle
10
-106.38829194565102
20
39.397973857329859
30
0
40
9.0005003935343453
210
0
220
-0
230
1
0
CIRCLE
5
189
100
AcDbEntity
8
0
100
AcDbCircle
10
-86.370407000316831
20
41.390538119683065
30
0
40
9.0005003935343453
210
0
220
-0
230
1
0
CIRCLE
5
190
100
AcDbEntity
8
0
100
AcDbCircle
10
-86.410504102908234
20
21.399999521672726
30
0
40
9.0005003935343453
210
0
220
-0
230
1
0
CIRCLE
5
191
100
AcDbEntity
8
0
100
AcDbCircle
10
-106.4038374752765
20
19.352171563073547
30
0
40
9.0005003935343453
210
0
220
-0
230
1
0
CIRCLE
5
192
100
AcDbEntity
8
0
100
AcDbCircle
10
-126.42097591899451
20
29.370737108765578
30
0
40
9.0005003935343453
210
0
220
-0
230
1
0
LINE
5
193
100
AcDbEntity
8
0
100
AcDbLine
10
-37.331208622195099
20
5.7234805734365057
30
0
11
-42.414034267154918
21
5.6959395663856167
31
0
0
LINE
5
194
100
AcDbEntity
8
0
100
AcDbLine
10
-38.509275883632426
20
14.545192633348256
30
0
11
-37.509275883632426
21
14.545192633348256
31
0
0
LINE
5
195
100
AcDbEntity
8
0
100
AcDbLine
10
-38.509275883632426
20
25.346265151559962
30
0
11
-38.509275883632426
21
26.346265151559965
31
0
0
LINE
5
196
100
AcDbEntity
8
0
100
AcDbLine
10
-60.308471629622375
20
25.346265151559962
30
0
11
-61.000000908970833
21
25.346265151559962
31
0
0
LINE
5
197
100
AcDbEntity
8
0
100
AcDbLine
10
-61.000000908970833
20
25.346265151559962
30
0
11
-62.000000908970833
21
25.346265151559962
31
0
0
LINE
5
198
100
AcDbEntity
8
0
100
AcDbLine
10
-60.308471629622382
20
14.545192633348256
30
0
11
-60.308471629622382
21
13.545192633348256
31
0
0
LWPOLYLINE
5
199
100
AcDbEntity
8
0
100
AcDbPolyline
90
4
70
1
43
0.0
10
-62.000000908970833
20
13.545192633348256
10
-37.509275883632426
20
13.545192633348256
10
-37.509275883632426
20
26.358224848873526
10
-62.000000908970833
20
26.358224848873526
0
SPLINE
5
200
100
AcDbEntity
8
0
100
AcDbSpline
70
0
71
3
72
20
73
16
74
0
42
0.000000001
43
0.0000000001
44
0.0000000001
40
-1.0792720031433316
40
-1.0792720031433316
40
-1.0792720031433316
40
-1.0792720031433316
40
-1.0217198954894349
40
-1.0217198954894349
40
-1.0217198954894349
40
-0.82669135454101916
40
-0.82669135454101916
40
-0.82669135454101916
40
-0.67990521489790268
40
-0.67990521489790268
40
-0.67990521489790268
40
-0.51562796162690272
40
-0.51562796162690272
40
-0.51562796162690272
40
-0.50493520131618497
40
-0.50493520131618497
40
-0.50493520131618497
40
-0.50493520131618497
10
-17.050665791551516
20
15.680299873369929
30
0
10
-16.966111993134337
20
15.4721409411893
30
0
10
-16.873812479039007
20
15.264868878044876
30
0
10
-16.772836740765783
20
15.05914021471051
30
0
10
-16.425029225639356
20
14.350514792324429
30
0
10
-15.956025476330653
20
13.64070711772646
30
0
10
-15.301401206157683
20
13.042325311548469
30
0
10
-14.802924225738163
20
12.586675300584513
30
0
10
-14.221059212046958
20
12.224153944275319
30
0
10
-13.583783552881908
20
11.980586412462975
30
0
10
-12.875605285226019
20
11.709919817473173
30
0
10
-12.157800603932085
20
11.604607178715714
30
0
10
-11.48285842539666
20
11.585525797838386
30
0
10
-11.439313376816497
20
11.58429472992812
30
0
10
-11.395950642900203
20
11.583411269704403
30
0
10
-11.352779264377517
20
11.58285527020036
30
0
0
SPLINE
5
201
100
AcDbEntity
8
0
100
AcDbSpline
70
0
71
3
72
23
73
19
74
0
42
0.000000001
43
0.0000000001
44
0.0000000001
40
0.39011257019103085
40
0.39011257019103085
40
0.39011257019103085
40
0.39011257019103085
40
0.40473398371388569
40
0.40473398371388569
40
0.40473398371388569
40
0.76781628758782916
40
0.76781628758782916
40
0.76781628758782916
40
1.1308985914617726
40
1.1308985914617726
40
1.1308985914617726
40
1.5839963778001698
40
1.5839963778001698
40
1.5839963778001698
40
2.4926254914700898
40
2.4926254914700898
40
2.4926254914700898
40
3.1679927556003395
40
3.1679927556003395
40
3.1679927556003395
40
3.1679927556003395
10
-11.352779264377515
20
11.582855270200355
30
0
10
-11.38643747709696
20
11.556754335592192
30
0
10
-11.420354354029413
20
11.530796995750885
30
0
10
-11.454516411968406
20
11.504985536759587
30
0
10
-12.307917177249914
20
10.860190691684828
30
0
10
-13.272531359219483
20
10.328312180104414
30
0
10
-14.310801740598995
20
9.8594758535340539
30
0
10
-15.345318647836347
20
9.3923344275023659
30
0
10
-16.437075263524022
20
8.9998563093323796
30
0
10
-17.550998310928719
20
8.664701645960351
30
0
10
-18.9460561210349
20
8.2449597869333608
30
0
10
-20.364441837377697
20
7.909977313739903
30
0
10
-21.810467045470826
20
7.6265551489433756
30
0
10
-24.71065473904914
20
7.058115906093553
30
0
10
-27.675240889624774
20
6.7050656995259317
30
0
10
-30.665925789483175
20
6.4845016308873138
30
0
10
-32.88657614228476
20
6.3207278823185851
30
0
10
-35.115699606436699
20
6.2354925251125684
30
0
10
-37.333917804495712
20
6.2234732337138965
30
0
0
LINE
5
202
100
AcDbEntity
8
0
100
AcDbLine
10
-37.333917804495712
20
6.2234732337138965
30
0
11
-42.415388868356622
21
6.1959395663850838
31
0
0
LINE
5
203
100
AcDbEntity
8
0
100
AcDbLine
10
-42.415388868356622
20
6.1959395663850838
30
0
11
-149.40966230580838
21
6.1959395241966488
31
0
0
ARC
5
204
100
AcDbEntity
8
0
100
AcDbCircle
10
-149.40966230561122
20
8.3963859247805637
30
0
40
2.2004464005839104
210
0
220
0
230
1
100
AcDbArc
50
180.00631332106423
51
269.99999999486624
0
LINE
5
205
100
AcDbEntity
8
0
100
AcDbLine
10
-151.61010869283683
20
8.3961434614641703
30
0
11
-151.61010842981275
21
35.396284321264936
31
0
0
LINE
5
206
100
AcDbEntity
8
0
100
AcDbLine
10
-151.61010842981275
20
35.396284321264936
30
0
11
-151.61010842981275
21
36.573947912928197
31
0
0
ARC
5
207
100
AcDbEntity
8
0
100
AcDbCircle
10
-145.41058479938701
20
40.795433805057002
30
0
40
7.5003357512613782
210
0
220
0
230
1
100
AcDbArc
50
214.2524026173366
51
354.4713668634779
0
LINE
5
208
100
AcDbEntity
8
0
100
AcDbLine
10
-137.9451392909109
20
40.072827590287652
30
0
11
-135.54460758212537
21
64.873387420827527
31
0
0
ARC
5
209
100
AcDbEntity
8
0
100
AcDbCircle
10
-143.01005309060147
20
65.595993635596884
30
0
40
7.5003357512613693
210
0
220
0
230
1
100
AcDbArc
50
-5.5286331365221564
51
168.60557533764862
0
LINE
5
210
100
AcDbEntity
8
0
100
AcDbLine
10
-150.36256025149797
20
67.077774601399625
30
0
11
-151.60684390976155
21
67.311173762063873
31
0
0
SPLINE
5
211
100
AcDbEntity
8
0
100
AcDbSpline
70
0
71
3
72
35
73
31
74
0
42
0.000000001
43
0.0000000001
44
0.0000000001
40
0.043817778603863898
40
0.043817778603863898
40
0.043817778603863898
40
0.043817778603863898
40
0.1270899381058252
40
0.1270899381058252
40
0.1270899381058252
40
0.37227264293544926
40
0.37227264293544926
40
0.37227264293544926
40
0.620008002652912
40
0.620008002652912
40
0.620008002652912
40
0.74615455838149125
40
0.74615455838149125
40
0.74615455838149125
40
1.1016492179471613
40
1.1016492179471613
40
1.1016492179471613
40
1.2891272302014143
40
1.2891272302014143
40
1.2891272302014143
40
1.8285211621029154
40
1.8285211621029154
40
1.8285211621029154
40
2.1034228572255618
40
2.1034228572255618
40
2.1034228572255618
40
2.5615790157633072
40
2.5615790157633072
40
2.5615790157633072
40
2.8488212137609565
40
2.8488212137609565
40
2.8488212137609565
40
2.8488212137609565
10
-151.60684390976155
20
67.311173762063859
30
0
10
-151.6025892662197
20
67.572451049386174
30
0
10
-151.59395059692116
20
67.831312602761415
30
0
10
-151.57967528404905
20
68.086801855990416
30
0
10
-151.53755257344548
20
68.840683747932431
30
0
10
-151.44767202106888
20
69.550160962590667
30
0
10
-151.27155846913206
20
70.20865147527897
30
0
10
-151.10512829449993
20
70.83093573344668
30
0
10
-150.81296218933088
20
71.448901859455546
30
0
10
-150.43934035515159
20
71.977180789824175
30
0
10
-150.24524519539511
20
72.251619738530437
30
0
10
-150.0246210412395
20
72.5144321310826
30
0
10
-149.78034787493729
20
72.766041096171463
30
0
10
-149.06281384031035
20
73.505123487420136
30
0
10
-148.17599555303184
20
74.18183750532755
30
0
10
-147.24059350194406
20
74.806741544991667
30
0
10
-146.74843376191555
20
75.13553343650635
30
0
10
-146.23919256870386
20
75.452173797983207
30
0
10
-145.71784139812377
20
75.761568209778588
30
0
10
-144.22215517948158
20
76.649179063960332
30
0
10
-142.66506917278596
20
77.444274361138866
30
0
10
-141.06667720059971
20
78.1346978075035
30
0
10
-140.25261432783336
20
78.486331264098055
30
0
10
-139.42878741010486
20
78.809802140236073
30
0
10
-138.59737974144542
20
79.101391636037079
30
0
10
-137.21741236322075
20
79.585370804387978
30
0
10
-135.81175134357744
20
79.973462819451569
30
0
10
-134.38505286829445
20
80.238341632398246
30
0
10
-133.49117785249067
20
80.404297198490696
30
0
10
-132.59300510627594
20
80.520527549895249
30
0
10
-131.69910522160328
20
80.578395136797965
30
0
0
SPLINE
5
212
100
AcDbEntity
8
0
100
AcDbSpline
70
0
71
3
72
59
73
55
74
0
42
0.000000001
43
0.0000000001
44
0.0000000001
40
-5.4222351548234773
40
-5.4222351548234773
40
-5.4222351548234773
40
-5.4222351548234773
40
-5.3156348756363743
40
-5.3156348756363743
40
-5.3156348756363743
40
-5.0842734931256439
40
-5.0842734931256439
40
-5.0842734931256439
40
-4.9089446588362051
40
-4.9089446588362051
40
-4.9089446588362051
40
-4.7696823829359269
40
-4.7696823829359269
40
-4.7696823829359269
40
-4.4560666367464652
40
-4.4560666367464652
40
-4.4560666367464652
40
-4.1260734420782414
40
-4.1260734420782414
40
-4.1260734420782414
40
-3.7960802474100177
40
-3.7960802474100177
40
-3.7960802474100177
40
-3.1360938580735707
40
-3.1360938580735707
40
-3.1360938580735707
40
-2.3520703935551781
40
-2.3520703935551781
40
-2.3520703935551781
40
-1.9480822708735832
40
-1.9480822708735832
40
-1.9480822708735832
40
-1.5680469290367853
40
-1.5680469290367853
40
-1.5680469290367853
40
-1.3359060096385882
40
-1.3359060096385882
40
-1.3359060096385882
40
-1.103765090240391
40
-1.103765090240391
40
-1.103765090240391
40
-0.92707840710467648
40
-0.92707840710467648
40
-0.92707840710467648
40
-0.82581424557856087
40
-0.82581424557856087
40
-0.82581424557856087
40
-0.68646315382949019
40
-0.68646315382949019
40
-0.68646315382949019
40
-0.54598361720560384
40
-0.54598361720560384
40
-0.54598361720560384
40
-0.34276983969328828
40
-0.34276983969328828
40
-0.34276983969328828
40
-0.34276983969328828
10
-131.69910522160328
20
80.578395136797965
30
0
10
-131.73382623714045
20
80.224960503182871
30
0
10
-131.77005160389385
20
79.856388577482477
30
0
10
-131.79625988491242
20
79.472682880616787
30
0
10
-131.85200609802553
20
78.656523303609333
30
0
10
-131.88361181917332
20
77.720511466943492
30
0
10
-131.65581006140019
20
76.731402973652806
30
0
10
-131.47604134098211
20
75.950852507617256
30
0
10
-131.1192395117175
20
75.16574269340839
30
0
10
-130.52073319593416
20
74.509644930447919
30
0
10
-130.05208795935152
20
73.995904167426033
30
0
10
-129.49796650994381
20
73.624275513699999
30
0
10
-128.93752286075431
20
73.356467482102573
30
0
10
-127.72329532723738
20
72.776248781912429
30
0
10
-126.48259388408702
20
72.618371561110777
30
0
10
-125.39988266152534
20
72.511548673530356
30
0
10
-124.23884130536223
20
72.396997546986952
30
0
10
-123.09704329192762
20
72.361826887645918
30
0
10
-121.98828534834598
20
72.333518918860136
30
0
10
-120.87536775616397
20
72.30510474907399
30
0
10
-119.7729776399097
20
72.288292035638037
30
0
10
-118.68212460913286
20
72.264495000486576
30
0
10
-116.5009922729426
20
72.216913446042597
30
0
10
-114.32992932409769
20
72.139568187183784
30
0
10
-112.15719394305709
20
72.011043401754605
30
0
10
-109.57538756202842
20
71.858320656943192
30
0
10
-106.99757539301766
20
71.635563005991685
30
0
10
-104.39970892693455
20
71.394146008875026
30
0
10
-103.06046550366236
20
71.269691526754499
30
0
10
-101.70917161747077
20
71.140486986996819
30
0
10
-100.35561270034177
20
71.026976874778669
30
0
10
-99.083806677259943
20
70.920322600204571
30
0
10
-97.80775578374849
20
70.825302744258266
30
0
10
-96.50939973631138
20
70.77982977705814
30
0
10
-95.71652570897902
20
70.752060557120458
30
0
10
-94.903364414656068
20
70.74206967907314
30
0
10
-94.07394555640046
20
70.777486088928384
30
0
10
-93.249275372384943
20
70.812699729107607
30
0
10
-92.376938932562211
20
70.889172668157187
30
0
10
-91.488650101598466
20
71.09772975513728
30
0
10
-90.809935750119649
20
71.257081852227628
30
0
10
-90.074991235080859
20
71.504458406179324
30
0
10
-89.381800266263767
20
71.955688453609326
30
0
10
-88.978146493943825
20
72.218445354698261
30
0
10
-88.600620705289828
20
72.546577427692597
30
0
10
-88.279970057037659
20
72.945054735474088
30
0
10
-87.835189145899903
20
73.497790558678787
30
0
10
-87.552952301606481
20
74.122580256959353
30
0
10
-87.388746335268038
20
74.743547976268133
30
0
10
-87.226963336970073
20
75.355352904652761
30
0
10
-87.178284129669009
20
75.939433199054761
30
0
10
-87.159904577815666
20
76.464625806341985
30
0
10
-87.133276660342247
20
77.225514075876191
30
0
10
-87.167108562887407
20
77.905308683631759
30
0
10
-87.143877421225525
20
78.486848575998437
30
0
0
LINE
5
213
100
AcDbEntity
8
0
100
AcDbLine
10
-87.14387742122554
20
78.486848575998437
30
0
11
-76.35447178070747
21
77.949098881126758
31
0
0
SPLINE
5
214
100
AcDbEntity
8
0
100
AcDbSpline
70
0
71
3
72
47
73
43
74
0
42
0.000000001
43
0.0000000001
44
0.0000000001
40
-5.6556500717517215
40
-5.6556500717517215
40
-5.6556500717517215
40
-5.6556500717517215
40
-5.4491186402970513
40
-5.4491186402970513
40
-5.4491186402970513
40
-5.3109263805602192
40
-5.3109263805602192
40
-5.3109263805602192
40
-5.1298800017705517
40
-5.1298800017705517
40
-5.1298800017705517
40
-5.0051912982983016
40
-5.0051912982983016
40
-5.0051912982983016
40
-4.8035093749313598
40
-4.8035093749313598
40
-4.8035093749313598
40
-4.5630289299121278
40
-4.5630289299121278
40
-4.5630289299121278
40
-4.3225484848928959
40
-4.3225484848928959
40
-4.3225484848928959
40
-3.633886488054737
40
-3.633886488054737
40
-3.633886488054737
40
-2.9452244912165781
40
-2.9452244912165781
40
-2.9452244912165781
40
-2.3024660909840988
40
-2.3024660909840988
40
-2.3024660909840988
40
-1.6597076907516195
40
-1.6597076907516195
40
-1.6597076907516195
40
-1.4459062763006623
40
-1.4459062763006623
40
-1.4459062763006623
40
-1.2321048618497052
40
-1.2321048618497052
40
-1.2321048618497052
40
-1.1664066804074962
40
-1.1664066804074962
40
-1.1664066804074962
40
-1.1664066804074962
10
-76.35447178070747
20
77.949098881126787
30
0
10
-76.429610820196075
20
77.280689400370477
30
0
10
-76.52182449731788
20
76.561854251404824
30
0
10
-76.554102076986197
20
75.790655881017315
30
0
10
-76.575639490667328
20
75.276069022153649
30
0
10
-76.570885913147791
20
74.730711884259179
30
0
10
-76.500771675732381
20
74.164320890923506
30
0
10
-76.407794819605229
20
73.413242995187787
30
0
10
-76.194981366191612
20
72.626118062388429
30
0
10
-75.773803541244661
20
71.88906115771897
30
0
10
-75.483645015190021
20
71.38128669189993
30
0
10
-75.113392499712972
20
70.93183421242027
30
0
10
-74.687415116517911
20
70.551279642014933
30
0
10
-74.005074603935185
20
69.941698450900006
30
0
10
-73.230665748995435
20
69.543422739163731
30
0
10
-72.483669417203132
20
69.261000959653202
30
0
10
-71.599859667716217
20
68.926853238204629
30
0
10
-70.712947642200476
20
68.734701118955357
30
0
10
-69.867301495764565
20
68.596500339987358
30
0
10
-69.018244034355348
20
68.45774206260397
30
0
10
-68.178962972844246
20
68.372177668503326
30
0
10
-67.354050022677853
20
68.308866665838906
30
0
10
-64.998608364501308
20
68.128089563155982
30
0
10
-62.664621238134437
20
68.106198519982144
30
0
10
-60.380131819627117
20
68.064790489252232
30
0
10
-58.089525948024594
20
68.023271593365479
30
0
10
-55.808710983039937
20
67.976538277265504
30
0
10
-53.531595772950141
20
67.891507768206907
30
0
10
-51.405986443354152
20
67.812134690132339
30
0
10
-49.278323826958129
20
67.699798651109774
30
0
10
-47.144315207287839
20
67.579349046928201
30
0
10
-45.015638979562944
20
67.45920041833466
30
0
10
-42.849357773264707
20
67.317037182234159
30
0
10
-40.65258550670783
20
67.293230379504593
30
0
10
-39.919707341780693
20
67.285288051497815
30
0
10
-39.17432001079051
20
67.291932038816498
30
0
10
-38.417309805520297
20
67.333939024824858
30
0
10
-37.663141226779985
20
67.375788327138778
30
0
10
-36.87477102891426
20
67.451308596000729
30
0
10
-36.071103264733878
20
67.620355004561745
30
0
10
-35.824102704247871
20
67.672310003286
30
0
10
-35.570757409140448
20
67.733961280051972
30
0
10
-35.314377296499885
20
67.809885166952199
30
0
0
LINE
5
215
100
AcDbEntity
8
0
100
AcDbLine
10
-35.314377296499892
20
67.809885166952185
30
0
11
-35.269674844743243
21
67.729737301825082
31
0
0
SPLINE
5
216
100
AcDbEntity
8
0
100
AcDbSpline
70
0
71
3
72
8
73
4
74
0
42
0.000000001
43
0.0000000001
44
0.0000000001
40
0.62280727893513521
40
0.62280727893513521
40
0.62280727893513521
40
0.62280727893513521
40
1
40
1
40
1
40
1
10
-35.26967484474325
20
67.729737301825082
30
0
10
-36.304789594150222
20
66.207879211712509
30
0
10
-36.910070753287854
20
64.36860392823354
30
0
10
-36.910070753287854
20
62.396176916428487
30
0
0
SPLINE
5
217
100
AcDbEntity
8
0
100
AcDbSpline
70
0
71
3
72
11
73
7
74
0
42
0.000000001
43
0.0000000001
44
0.0000000001
40
0
40
0
40
0
40
0
40
0.11598695075436527
40
0.11598695075436527
40
0.11598695075436527
40
1
40
1
40
1
40
1
10
-36.910070753287854
20
62.396176916428487
30
0
10
-36.910070753287854
20
61.78956514570207
30
0
10
-36.852987664275773
20
61.19440475510369
30
0
10
-36.743563044577733
20
60.617147969428096
30
0
10
-35.909478559458975
20
56.21703280165157
30
0
10
-32.033263725129402
20
52.895305863436661
30
0
10
-27.410569832231218
20
52.895305863436661
30
0
0
SPLINE
5
218
100
AcDbEntity
8
0
100
AcDbSpline
70
0
71
3
72
11
73
7
74
0
42
0.000000001
43
0.0000000001
44
0.0000000001
40
0
40
0
40
0
40
0
40
0.11652701965627144
40
0.11652701965627144
40
0.11652701965627144
40
0.19225049635153466
40
0.19225049635153466
40
0.19225049635153466
40
0.19225049635153466
10
-27.410569832231218
20
52.895305863436661
30
0
10
-26.80113072298882
20
52.895305863436661
30
0
10
-26.203248789256939
20
52.952922183317455
30
0
10
-25.62346549573471
20
53.063348469730286
30
0
10
-25.246661366995674
20
53.135115078231358
30
0
10
-24.877698353027469
20
53.229191566846616
30
0
10
-24.518068239140113
20
53.344129264460641
30
0
0
LINE
5
219
100
AcDbEntity
8
0
100
AcDbLine
10
-24.518068239140106
20
53.344129264460641
30
0
11
-24.0393805604206
21
52.308059880247228
31
0
0
ARC
5
220
100
AcDbEntity
8
0
100
AcDbCircle
10
-21.409882478433708
20
48.395317958207173
30
0
40
4.7142135623730983
210
0
220
0
230
1
100
AcDbArc
50
123.90246773880236
51
179.59896381781263
0
LINE
5
221
100
AcDbEntity
8
0
100
AcDbLine
10
-26.123980562785476
20
48.4283143636695
30
0
11
-26.345163761906775
21
16.828530064171328
31
0
0
ARC
5
222
100
AcDbEntity
8
0
100
AcDbCircle
10
-21.631065677555004
20
16.79553365870899
30
0
40
4.7142135623730983
210
0
220
0
230
1
100
AcDbArc
50
179.59896381781263
51
346.31590954806819
0
LINE
5
223
100
AcDbEntity
8
0
100
AcDbLine
10
-17.418938412695393
20
16.482721978836732
30
0
11
-17.339119867685802
21
16.482163287674819
31
0
0
CIRCLE
5
224
100
AcDbEntity
8
0
100
AcDbCircle
10
-86.410504102908234
20
21.399999521672726
30
0
40
9.2005003935343446
210
0
220
-0
230
1
0
CIRCLE
5
225
100
AcDbEntity
8
0
100
AcDbCircle
10
-106.4038374752765
20
19.352171563073547
30
0
40
9.2005003935343446
210
0
220
-0
230
1
0
CIRCLE
5
226
100
AcDbEntity
8
0
100
AcDbCircle
10
-126.42097591899451
20
29.370737108765578
30
0
40
9.2005003935343446
210
0
220
-0
230
1
0
CIRCLE
5
227
100
AcDbEntity
8
0
100
AcDbCircle
10
-106.38829194565102
20
39.397973857329859
30
0
40
9.2005003935343446
210
0
220
-0
230
1
0
CIRCLE
5
228
100
AcDbEntity
8
0
100
AcDbCircle
10
-126.39665258298429
20
49.401543589840756
30
0
40
9.2005003935343446
210
0
220
-0
230
1
0
CIRCLE
5
229
100
AcDbEntity
8
0
100
AcDbCircle
10
-86.370407000316831
20
41.390538119683065
30
0
40
9.2005003935343446
210
0
220
-0
230
1
0
CIRCLE
5
230
100
AcDbEntity
8
0
100
AcDbCircle
10
-86.425825543146118
20
61.381522157476205
30
0
40
9.2005003935343446
210
0
220
-0
230
1
0
CIRCLE
5
231
100
AcDbEntity
8
0
100
AcDbCircle
10
-106.39856307984495
20
59.385268276020177
30
0
40
9.2005003935343446
210
0
220
-0
230
1
0
SPLINE
5
232
100
AcDbEntity
8
0
100
AcDbSpline
70
0
71
3
72
8
73
4
74
0
42
0.000000001
43
0.0000000001
44
0.0000000001
40
0.30526663562977668
40
0.30526663562977668
40
0.30526663562977668
40
0.30526663562977668
40
1
40
1
40
1
40
1
10
-57.925499548748938
20
42.719382276440577
30
0
10
-56.782978075976125
20
40.561024765085136
30
0
10
-54.510431176098173
20
39.096042365964941
30
0
10
-51.909326689416375
20
39.096042365964941
30
0
0
SPLINE
5
233
100
AcDbEntity
8
0
100
AcDbSpline
70
0
71
3
72
11
73
7
74
0
42
0.000000001
43
0.0000000001
44
0.0000000001
40
0
40
0
40
0
40
0
40
0.12920563653029404
40
0.12920563653029404
40
0.12920563653029404
40
0.69424274456264778
40
0.69424274456264778
40
0.69424274456264778
40
0.69424274456264778
10
-51.909326689416375
20
39.096042365964941
30
0
10
-51.425785812228028
20
39.096042365964941
30
0
10
-50.952122071403153
20
39.146556020377943
30
0
10
-50.49492436506786
20
39.24302540226379
30
0
10
-48.495168780509353
20
39.66497674299
30
0
10
-46.823532669910854
20
40.966079636503814
30
0
10
-45.895636833314491
20
42.719852457228562
30
0
0
SPLINE
5
234
100
AcDbEntity
8
0
100
AcDbSpline
70
0
71
3
72
8
73
4
74
0
42
0.000000001
43
0.0000000001
44
0.0000000001
40
0.38514860264822243
40
0.38514860264822243
40
0.38514860264822243
40
0.38514860264822243
40
1
40
1
40
1
40
1
10
-45.895636833314498
20
42.719852457228541
30
0
10
-44.573640168767234
20
40.830481441339963
30
0
10
-42.379210856536289
20
39.596042365964934
30
0
10
-39.909375102284429
20
39.596042365964941
30
0
0
SPLINE
5
235
100
AcDbEntity
8
0
100
AcDbSpline
70
0
71
3
72
11
73
7
74
0
42
0.000000001
43
0.0000000001
44
0.0000000001
40
0
40
0
40
0
40
0
40
0.11503758176817547
40
0.11503758176817547
40
0.11503758176817547
40
1
40
1
40
1
40
1
10
-39.909375102284429
20
39.596042365964941
30
0
10
-39.447426882894085
20
39.596042365964941
30
0
10
-38.993914857605866
20
39.639178924614001
30
0
10
-38.553829311788462
20
39.721927473517738
30
0
10
-35.167986259565524
20
40.358561878010271
30
0
10
-32.609387197054943
20
43.34084690928389
30
0
10
-32.609387197054943
20
46.896006047867402
30
0
0
SPLINE
5
236
100
AcDbEntity
8
0
100
AcDbSpline
70
0
71
3
72
11
73
7
74
0
42
0.000000001
43
0.0000000001
44
0.0000000001
40
0
40
0
40
0
40
0
40
0.11345212751346301
40
0.11345212751346301
40
0.11345212751346301
40
0.89583319444176635
40
0.89583319444176635
40
0.89583319444176635
40
0.89583319444176635
10
-32.609387197054943
20
46.896006047867402
30
0
10
-32.609387197054943
20
47.351627972587067
30
0
10
-32.651366991465558
20
47.799040928303029
30
0
10
-32.731939517273545
20
48.23345083629755
30
0
10
-33.287631654871944
20
51.229486618304222
30
0
10
-35.677717384321383
20
53.581030734823017
30
0
10
-38.680467385927322
20
54.092443213741106
30
0
0
SPLINE
5
237
100
AcDbEntity
8
0
100
AcDbSpline
70
0
71
3
72
8
73
4
74
0
42
0.000000001
43
0.0000000001
44
0.0000000001
40
0.6539522359286678
40
0.6539522359286678
40
0.6539522359286678
40
0.6539522359286678
40
1
40
1
40
1
40
1
10
-38.680467385927315
20
54.092443213741113
30
0
10
-38.001605151318657
20
55.201414158952716
30
0
10
-37.610293062632884
20
56.505458500269455
30
0
10
-37.610293062632884
20
57.895526658823748
30
0
0
SPLINE
5
238
100
AcDbEntity
8
0
100
AcDbSpline
70
0
71
3
72
11
73
7
74
0
42
0.000000001
43
0.0000000001
44
0.0000000001
40
0
40
0
40
0
40
0
40
0.11660780795387082
40
0.11660780795387082
40
0.11660780795387082
40
1
40
1
40
1
40
1
10
-37.610293062632884
20
57.895526658823748
30
0
10
-37.610293062632884
20
58.363904573687492
30
0
10
-37.654610374863211
20
58.823590015957272
30
0
10
-37.739577456979355
20
59.269394263200645
30
0
10
-38.383335957215692
20
62.647058488648213
30
0
10
-41.361699641646048
20
65.195488826768269
30
0
10
-44.910253716619451
20
65.195488826768269
30
0
0
LINE
5
239
100
AcDbEntity
8
0
100
AcDbLine
10
-58.909744056863516
20
65.195488826768269
30
0
11
-44.910253716619451
21
65.195488826768269
31
0
0
SPLINE
5
240
100
AcDbEntity
8
0
100
AcDbSpline
70
0
71
3
72
11
73
7
74
0
42
0.000000001
43
0.0000000001
44
0.0000000001
40
0
40
0
40
0
40
0
40
0.11662371436577856
40
0.11662371436577856
40
0.11662371436577856
40
1
40
1
40
1
40
1
10
-58.909744056863516
20
65.195488826768269
30
0
10
-59.378188418546429
20
65.195488826768269
30
0
10
-59.837937640010708
20
65.151159507549295
30
0
10
-60.283800983580505
20
65.066169870525357
30
0
10
-63.661391593360513
20
64.422339862787283
30
0
10
-66.209728934177122
20
61.444015972990712
30
0
10
-66.209728934177122
20
57.895526658823748
30
0
0
SPLINE
5
241
100
AcDbEntity
8
0
100
AcDbSpline
70
0
71
3
72
11
73
7
74
0
42
0.000000001
43
0.0000000001
44
0.0000000001
40
0
40
0
40
0
40
0
40
0.11663596570184498
40
0.11663596570184498
40
0.11663596570184498
40
0.3455285435017113
40
0.3455285435017113
40
0.3455285435017113
40
0.3455285435017113
10
-66.209728934177122
20
57.895526658823748
30
0
10
-66.209728934177122
20
57.427033361246259
30
0
10
-66.165390372416923
20
56.967236924654586
30
0
10
-66.080383364335319
20
56.521329694695126
30
0
10
-65.913543301663367
20
55.646164318672184
30
0
10
-65.589982201942917
20
54.826418346891757
30
0
10
-65.140550456072077
20
54.092553558472424
30
0
0
SPLINE
5
242
100
AcDbEntity
8
0
100
AcDbSpline
70
0
71
3
72
11
73
7
74
0
42
0.000000001
43
0.0000000001
44
0.0000000001
40
0.10411267643826849
40
0.10411267643826849
40
0.10411267643826849
40
0.10411267643826849
40
0.11345408388481593
40
0.11345408388481593
40
0.11345408388481593
40
1
40
1
40
1
40
1
10
-65.140550456072091
20
54.092553558472417
30
0
10
-65.176492346326683
20
54.0864444029514
30
0
10
-65.212348769333516
20
54.080071737523419
30
0
10
-65.248117119051528
20
54.073437456620113
30
0
10
-68.643036051989355
20
53.443750987364055
30
0
10
-71.210634799755056
20
50.456559884710998
30
0
10
-71.210634799755056
20
46.896006047867402
30
0
0
SPLINE
5
243
100
AcDbEntity
8
0
100
AcDbSpline
70
0
71
3
72
11
73
7
74
0
42
0.000000001
43
0.0000000001
44
0.0000000001
40
0
40
0
40
0
40
0
40
0.11503951041723637
40
0.11503951041723637
40
0.11503951041723637
40
1
40
1
40
1
40
1
10
-71.210634799755056
20
46.896006047867402
30
0
10
-71.210634799755056
20
46.433886654848202
30
0
10
-71.167476808656346
20
45.980231308063125
30
0
10
-71.084688924940679
20
45.540029697416948
30
0
10
-70.447765913403856
20
42.153368232569512
30
0
10
-67.464539695092512
20
39.596042365964941
30
0
10
-63.910649922441458
20
39.596042365964941
30
0
0
SPLINE
5
244
100
AcDbEntity
8
0
100
AcDbSpline
70
0
71
3
72
11
73
7
74
0
42
0.000000001
43
0.0000000001
44
0.0000000001
40
0
40
0
40
0
40
0
40
0.11660840330600275
40
0.11660840330600275
40
0.11660840330600275
40
0.61427802197506143
40
0.61427802197506143
40
0.61427802197506143
40
0.61427802197506143
10
-63.910649922441458
20
39.596042365964941
30
0
10
-63.442269245260405
20
39.596042365964941
30
0
10
-62.98258117595735
20
39.640360176303872
30
0
10
-62.536774515135093
20
39.725328193009673
30
0
10
-60.633926160634658
20
40.087999424694729
30
0
10
-58.994586742160926
20
41.19063559437145
30
0
10
-57.925499548748938
20
42.719382276440584
30
0
0
ENDSEC
0
SECTION
2
OBJECTS
0
DICTIONARY
5
C
100
AcDbDictionary
3
ACAD_GROUP
350
D
3
ACAD_MLINESTYLE
350
17
0
DICTIONARY
5
D
100
AcDbDictionary
0
DICTIONARY
5
1A
330
C
100
AcDbDictionary
0
DICTIONARY
5
17
100
AcDbDictionary
0
ENDSEC
0
EOF
