<svg xmlns="http://www.w3.org/2000/svg" xmlns:xlink="http://www.w3.org/1999/xlink" width="155.753mm" height="86.004mm" viewBox="3991.7 2907.7 613.2 338.6"><title></title><style type="text/css">
*[layerid="1"] {stroke:#000000;fill:#000000;}
*[layerid="2"] {stroke:#000000;fill:#000000;}
*[layerid="3"] {stroke:#000000;fill:#000000;}
*[layerid="4"] {stroke:#000000;fill:#000000;}
*[layerid="5"] {stroke:#000000;fill:#000000;}
*[layerid="6"] {stroke:#000000;fill:#000000;}
*[layerid="7"] {stroke:#000000;fill:#000000;}
*[layerid="8"] {stroke:#000000;fill:#000000;}
*[layerid="9"] {stroke:#000000;fill:#000000;}
*[layerid="10"] {stroke:#000000;fill:#000000;}
*[layerid="11"] {stroke:#000000;fill:#000000;}
*[layerid="12"] {stroke:#000000;fill:#000000;}
*[layerid="13"] {stroke:#000000;fill:#000000;}
*[layerid="14"] {stroke:#000000;fill:#000000;}
*[layerid="15"] {stroke:#000000;fill:#000000;}
*[layerid="19"] {stroke:#000000;fill:#000000;}
*[layerid="21"] {stroke:#000000;fill:#000000;}
*[layerid="22"] {stroke:#000000;fill:#000000;}
*[layerid="23"] {stroke:#000000;fill:#000000;}
*[layerid="24"] {stroke:#000000;fill:#000000;}
*[layerid="25"] {stroke:#000000;fill:#000000;}
*[layerid="26"] {stroke:#000000;fill:#000000;}
*[layerid="27"] {stroke:#000000;fill:#000000;}
*[layerid="28"] {stroke:#000000;fill:#000000;}
*[layerid="29"] {stroke:#000000;fill:#000000;}
*[layerid="30"] {stroke:#000000;fill:#000000;}
*[layerid="31"] {stroke:#000000;fill:#000000;}
*[layerid="32"] {stroke:#000000;fill:#000000;}
*[layerid="33"] {stroke:#000000;fill:#000000;}
*[layerid="34"] {stroke:#000000;fill:#000000;}
*[layerid="35"] {stroke:#000000;fill:#000000;}
*[layerid="36"] {stroke:#000000;fill:#000000;}
*[layerid="37"] {stroke:#000000;fill:#000000;}
*[layerid="38"] {stroke:#000000;fill:#000000;}
*[layerid="39"] {stroke:#000000;fill:#000000;}
*[layerid="40"] {stroke:#000000;fill:#000000;}
*[layerid="41"] {stroke:#000000;fill:#000000;}
*[layerid="42"] {stroke:#000000;fill:#000000;}
*[layerid="43"] {stroke:#000000;fill:#000000;}
*[layerid="44"] {stroke:#000000;fill:#000000;}
*[layerid="45"] {stroke:#000000;fill:#000000;}
*[layerid="46"] {stroke:#000000;fill:#000000;}
*[layerid="47"] {stroke:#000000;fill:#000000;}
*[layerid="48"] {stroke:#000000;fill:#000000;}
*[layerid="49"] {stroke:#000000;fill:#000000;}
*[layerid="50"] {stroke:#000000;fill:#000000;}
*[layerid="51"] {stroke:#000000;fill:#000000;}
*[layerid="52"] {stroke:#000000;fill:#000000;}
*[layerid="99"] {stroke:#000000;fill:#000000;}
*[layerid="100"] {stroke:#000000;fill:#000000;}
*[layerid="101"] {stroke:#000000;fill:#000000;}
*[layerid="Hole"] {stroke:#000000;fill:#000000;}
*[layerid="DRCError"] {stroke:#000000;fill:#000000;}
*[fill="none"] {fill: none;}
*[stroke="none"] {stroke: none;}
path, polyline, polygon, line {stroke-linecap:round;}
g[c_partid="part_pad"][layerid="1"] ellipse:not([c_etype="pad_outer"]) {fill:#000000;}
g[c_partid="part_pad"][layerid="1"] polygon:not([c_etype="pad_outer"]) {fill:#000000;}
g[c_partid="part_pad"][layerid="1"] polyline:not([c_etype="pad_outer"]) {stroke:#000000;}
g[c_partid="part_pad"][layerid="2"] ellipse:not([c_etype="pad_outer"]) {fill:#000000;}
g[c_partid="part_pad"][layerid="2"] polygon:not([c_etype="pad_outer"]) {fill:#000000;}
g[c_partid="part_pad"][layerid="2"] polyline:not([c_etype="pad_outer"]) {stroke:#000000;}
g[c_partid="part_pad"][layerid="11"] ellipse:not([c_etype="pad_outer"]) {fill:#000000;}
g[c_partid="part_pad"][layerid="11"] polygon:not([c_etype="pad_outer"]) {fill:#000000;}
g[c_partid="part_pad"][layerid="11"] polyline:not([c_etype="pad_outer"]) {stroke:#000000;}
g[c_partid="part_pad"][layerid="11"] circle {fill:#FFFFFF;}
g[c_partid="part_pad"][layerid="11"] > polyline:nth-of-type(2) {stroke:#FFFFFF;}
g[c_partid="part_pad"][layerid="11"][c_shape="ELLIPSE"]  polyline:nth-last-of-type(1) {stroke:#FFFFFF;}
g[c_partid="part_pad"][layerid="11"][c_shape="RECT"]  polyline:nth-last-of-type(1) {stroke:#FFFFFF;}
g[c_partid="part_pad"][layerid="11"][c_shape="POLYGON"]  polyline:nth-last-of-type(1) {stroke:#FFFFFF;}
g[c_partid="part_via"] > * + circle, #gCurParts g[c_partid="part_via"] > * + circle {fill:#FFFFFF;}
g[c_partid="part_pad"] > polygon[c_etype="pad_outer"], #gCurParts g[c_partid="part_pad"] > polygon[c_etype="pad_outer"] {stroke-linejoin: miter;stroke-miterlimit: 100;}
g[c_partid="part_hole"] > circle {fill: #FFFFFF;}path, polyline, polygon {stroke-linejoin:round;}
rect, circle, ellipse, polyline, line, polygon, path {shape-rendering:crispEdges;}
</style>
<rect x="3991.7" y="2907.7" width="613.2" height="338.6" fill="#FFFFFF" stroke="none"/><polyline points="4103.1881 3224.1444 4103.2054 3194.9594" stroke-width="0.2"  stroke-linecap="round" fill="none" layerid="3" net="" id="gge123857" locked="0" /><polyline points="4280.4881 3225.5444 4280.3707 3194.9594" stroke-width="0.2"  stroke-linecap="round" fill="none" layerid="3" net="" id="gge123858" locked="0" /><polyline points="4260.6857 3230.3924 4260.6857 3194.9595" stroke-width="0.2"  stroke-linecap="round" fill="none" layerid="3" net="" id="gge123859" locked="0" /><polyline points="4241.0007 3230.3924 4241.0007 3194.9595" stroke-width="0.2"  stroke-linecap="round" fill="none" layerid="3" net="" id="gge123860" locked="0" /><polyline points="4221.3157 3230.3924 4221.3157 3194.9595" stroke-width="0.2"  stroke-linecap="round" fill="none" layerid="3" net="" id="gge123861" locked="0" /><polyline points="4201.4005 3230.3923 4201.4005 3194.9594" stroke-width="0.2"  stroke-linecap="round" fill="none" layerid="3" net="" id="gge123862" locked="0" /><polyline points="4181.9456 3230.3924 4181.9456 3194.9595" stroke-width="0.2"  stroke-linecap="round" fill="none" layerid="3" net="" id="gge123863" locked="0" /><polyline points="4162.7339 3230.3923 4162.7339 3194.9594" stroke-width="0.2"  stroke-linecap="round" fill="none" layerid="3" net="" id="gge123864" locked="0" /><polyline points="4142.4839 3230.3923 4142.4839 3194.9594" stroke-width="0.2"  stroke-linecap="round" fill="none" layerid="3" net="" id="gge123865" locked="0" /><polyline points="4122.5707 3230.3923 4122.5707 3194.9594" stroke-width="0.2"  stroke-linecap="round" fill="none" layerid="3" net="" id="gge123866" locked="0" /><polyline points="4119.9377 3230.3923 4267.5755 3230.3923" stroke-width="0.2"  stroke-linecap="round" fill="none" layerid="3" net="" id="gge123867" locked="0" /><polyline points="4119.9378 3179.2113 4265.6068 3179.2113" stroke-width="0.2"  stroke-linecap="round" fill="none" layerid="3" net="" id="gge123868" locked="0" /><g c_partid="part_pcbtext" c_etype="" c_origin="4511.62,3126.259" c_rotation="90" c_mirror="0" id="gge121189" locked="0" layerid="3" c_shapetype="group" display="none"><path c_fontsize="4.5" c_fontfamily="" c_text="CAPACITIVE_PAD" d="M 4508.1022 3123.1884 L 4507.6922 3123.3984 L 4507.2822 3123.8084 L 4507.0822 3124.2184 L 4507.0822 3125.0284 L 4507.2822 3125.4384 L 4507.6922 3125.8484 L 4508.1022 3126.0584 L 4508.7122 3126.2584 L 4509.7422 3126.2584 L 4510.3522 3126.0584 L 4510.7622 3125.8484 L 4511.1722 3125.4384 L 4511.3722 3125.0284 L 4511.3722 3124.2184 L 4511.1722 3123.8084 L 4510.7622 3123.3984 L 4510.3522 3123.1884 M 4507.0822 3120.2084 L 4511.3722 3121.8384 M 4507.0822 3120.2084 L 4511.3722 3118.5684 M 4509.9422 3121.2284 L 4509.9422 3119.1784 M 4507.0822 3117.2184 L 4511.3722 3117.2184 M 4507.0822 3117.2184 L 4507.0822 3115.3784 L 4507.2822 3114.7684 L 4507.4922 3114.5584 L 4507.9022 3114.3584 L 4508.5122 3114.3584 L 4508.9222 3114.5584 L 4509.1222 3114.7684 L 4509.3322 3115.3784 L 4509.3322 3117.2184 M 4507.0822 3111.3684 L 4511.3722 3113.0084 M 4507.0822 3111.3684 L 4511.3722 3109.7284 M 4509.9422 3112.3884 L 4509.9422 3110.3484 M 4508.1022 3105.3184 L 4507.6922 3105.5184 L 4507.2822 3105.9284 L 4507.0822 3106.3384 L 4507.0822 3107.1584 L 4507.2822 3107.5684 L 4507.6922 3107.9684 L 4508.1022 3108.1784 L 4508.7122 3108.3784 L 4509.7422 3108.3784 L 4510.3522 3108.1784 L 4510.7622 3107.9684 L 4511.1722 3107.5684 L 4511.3722 3107.1584 L 4511.3722 3106.3384 L 4511.1722 3105.9284 L 4510.7622 3105.5184 L 4510.3522 3105.3184 M 4507.0822 3103.9684 L 4511.3722 3103.9684 M 4507.0822 3101.1784 L 4511.3722 3101.1784 M 4507.0822 3102.6184 L 4507.0822 3099.7484 M 4507.0822 3098.3984 L 4511.3722 3098.3984 M 4507.0822 3097.0484 L 4511.3722 3095.4184 M 4507.0822 3093.7784 L 4511.3722 3095.4184 M 4507.0822 3092.4284 L 4511.3722 3092.4284 M 4507.0822 3092.4284 L 4507.0822 3089.7684 M 4509.1222 3092.4284 L 4509.1222 3090.7884 M 4511.3722 3092.4284 L 4511.3722 3089.7684 M 4512.8022 3088.4184 L 4512.8022 3084.7384 M 4507.0822 3083.3884 L 4511.3722 3083.3884 M 4507.0822 3083.3884 L 4507.0822 3081.5484 L 4507.2822 3080.9284 L 4507.4922 3080.7284 L 4507.9022 3080.5184 L 4508.5122 3080.5184 L 4508.9222 3080.7284 L 4509.1222 3080.9284 L 4509.3322 3081.5484 L 4509.3322 3083.3884 M 4507.0822 3077.5384 L 4511.3722 3079.1684 M 4507.0822 3077.5384 L 4511.3722 3075.8984 M 4509.9422 3078.5584 L 4509.9422 3076.5184 M 4507.0822 3074.5484 L 4511.3722 3074.5484 M 4507.0822 3074.5484 L 4507.0822 3073.1184 L 4507.2822 3072.5084 L 4507.6922 3072.0984 L 4508.1022 3071.8884 L 4508.7122 3071.6884 L 4509.7422 3071.6884 L 4510.3522 3071.8884 L 4510.7622 3072.0984 L 4511.1722 3072.5084 L 4511.3722 3073.1184 L 4511.3722 3074.5484" fill="none"  stroke-width="0.2" c_note="note_name" /></g><g c_partid="part_pcbtext" c_etype="" c_origin="4518.25,3134.685" c_rotation="90" c_mirror="0" id="gge121191" locked="0" layerid="3" c_shapetype="group" ><path c_fontsize="4.5" c_fontfamily="" c_text="KSHARP" d="M 4513.7121 3134.6835 L 4518.0021 3134.6835 M 4513.7121 3131.8235 L 4516.5721 3134.6835 M 4515.5521 3133.6635 L 4518.0021 3131.8235 M 4514.3221 3127.6035 L 4513.9121 3128.0135 L 4513.7121 3128.6335 L 4513.7121 3129.4435 L 4513.9121 3130.0635 L 4514.3221 3130.4735 L 4514.7321 3130.4735 L 4515.1421 3130.2635 L 4515.3421 3130.0635 L 4515.5521 3129.6535 L 4515.9621 3128.4235 L 4516.1621 3128.0135 L 4516.3721 3127.8135 L 4516.7821 3127.6035 L 4517.3921 3127.6035 L 4517.8021 3128.0135 L 4518.0021 3128.6335 L 4518.0021 3129.4435 L 4517.8021 3130.0635 L 4517.3921 3130.4735 M 4513.7121 3126.2535 L 4518.0021 3126.2535 M 4513.7121 3123.3935 L 4518.0021 3123.3935 M 4515.7521 3126.2535 L 4515.7521 3123.3935 M 4513.7121 3120.4035 L 4518.0021 3122.0435 M 4513.7121 3120.4035 L 4518.0021 3118.7735 M 4516.5721 3121.4335 L 4516.5721 3119.3835 M 4513.7121 3117.4235 L 4518.0021 3117.4235 M 4513.7121 3117.4235 L 4513.7121 3115.5835 L 4513.9121 3114.9635 L 4514.1221 3114.7635 L 4514.5321 3114.5535 L 4514.9321 3114.5535 L 4515.3421 3114.7635 L 4515.5521 3114.9635 L 4515.7521 3115.5835 L 4515.7521 3117.4235 M 4515.7521 3115.9935 L 4518.0021 3114.5535 M 4513.7121 3113.2035 L 4518.0021 3113.2035 M 4513.7121 3113.2035 L 4513.7121 3111.3635 L 4513.9121 3110.7535 L 4514.1221 3110.5435 L 4514.5321 3110.3435 L 4515.1421 3110.3435 L 4515.5521 3110.5435 L 4515.7521 3110.7535 L 4515.9621 3111.3635 L 4515.9621 3113.2035" fill="none"  stroke-width="0.2" c_note="note_pre" /></g><g c_partid="part_pcbtext" c_etype="" c_origin="4391.788,3115.187" c_rotation="0" c_mirror="0" id="gge121244" locked="0" layerid="3" c_shapetype="group" display="none"><path c_fontsize="4.5" c_fontfamily="" c_text="CAPACITIVE_PAD" d="M 4394.86 3111.67L4394.65 3111.26 L4394.24 3110.85 L4393.83 3110.65 L4393.02 3110.65 L4392.61 3110.85 L4392.2 3111.26 L4391.99 3111.67 L4391.79 3112.28 L4391.79 3113.31 L4391.99 3113.92 L4392.2 3114.33 L4392.61 3114.74 L4393.02 3114.94 L4393.83 3114.94 L4394.24 3114.74 L4394.65 3114.33 L4394.86 3113.92 M 4397.84 3110.65L4396.21 3114.94 M 4397.84 3110.65L4399.48 3114.94 M 4396.82 3113.51L4398.87 3113.51 M 4400.83 3110.65L4400.83 3114.94 M 4400.83 3110.65L4402.67 3110.65 L4403.28 3110.85 L4403.49 3111.06 L4403.69 3111.46 L4403.69 3112.08 L4403.49 3112.49 L4403.28 3112.69 L4402.67 3112.9 L4400.83 3112.9 M 4406.68 3110.65L4405.04 3114.94 M 4406.68 3110.65L4408.32 3114.94 M 4405.66 3113.51L4407.7 3113.51 M 4412.73 3111.67L4412.53 3111.26 L4412.12 3110.85 L4411.71 3110.65 L4410.89 3110.65 L4410.48 3110.85 L4410.07 3111.26 L4409.87 3111.67 L4409.67 3112.28 L4409.67 3113.31 L4409.87 3113.92 L4410.07 3114.33 L4410.48 3114.74 L4410.89 3114.94 L4411.71 3114.94 L4412.12 3114.74 L4412.53 3114.33 L4412.73 3113.92 M 4414.08 3110.65L4414.08 3114.94 M 4416.87 3110.65L4416.87 3114.94 M 4415.43 3110.65L4418.3 3110.65 M 4419.65 3110.65L4419.65 3114.94 M 4421 3110.65L4422.63 3114.94 M 4424.27 3110.65L4422.63 3114.94 M 4425.62 3110.65L4425.62 3114.94 M 4425.62 3110.65L4428.28 3110.65 M 4425.62 3112.69L4427.26 3112.69 M 4425.62 3114.94L4428.28 3114.94 M 4429.63 3116.37L4433.31 3116.37 M 4434.66 3110.65L4434.66 3114.94 M 4434.66 3110.65L4436.5 3110.65 L4437.12 3110.85 L4437.32 3111.06 L4437.52 3111.46 L4437.52 3112.08 L4437.32 3112.49 L4437.12 3112.69 L4436.5 3112.9 L4434.66 3112.9 M 4440.51 3110.65L4438.87 3114.94 M 4440.51 3110.65L4442.15 3114.94 M 4439.49 3113.51L4441.53 3113.51 M 4443.5 3110.65L4443.5 3114.94 M 4443.5 3110.65L4444.93 3110.65 L4445.54 3110.85 L4445.95 3111.26 L4446.16 3111.67 L4446.36 3112.28 L4446.36 3113.31 L4446.16 3113.92 L4445.95 3114.33 L4445.54 3114.74 L4444.93 3114.94 L4443.5 3114.94 " fill="none"  stroke-width="0.2" c_note="note_name" /></g><g c_partid="part_pcbtext" c_etype="" c_origin="4385.882,3170.747" c_rotation="0" c_mirror="0" id="gge121246" locked="0" layerid="3" c_shapetype="group" ><path c_fontsize="4.5" c_fontfamily="" c_text="KUT1" d="M 4385.88 3166.21L4385.88 3170.5 M 4388.75 3166.21L4385.88 3169.07 M 4386.9 3168.05L4388.75 3170.5 M 4390.1 3166.21L4390.1 3169.27 L4390.3 3169.89 L4390.71 3170.3 L4391.32 3170.5 L4391.73 3170.5 L4392.35 3170.3 L4392.75 3169.89 L4392.96 3169.27 L4392.96 3166.21 M 4395.74 3166.21L4395.74 3170.5 M 4394.31 3166.21L4397.17 3166.21 M 4398.52 3167.02L4398.93 3166.82 L4399.55 3166.21 L4399.55 3170.5 " fill="none"  stroke-width="0.2" c_note="note_pre" /></g><g c_partid="part_pcbtext" c_etype="" c_origin="4312.654,3124.045" c_rotation="0" c_mirror="0" id="gge121222" locked="0" layerid="3" c_shapetype="group" display="none"><path c_fontsize="4.5" c_fontfamily="" c_text="CAPACITIVE_PAD" d="M 4315.72 3120.53L4315.52 3120.12 L4315.11 3119.71 L4314.7 3119.5 L4313.88 3119.5 L4313.47 3119.71 L4313.06 3120.12 L4312.86 3120.53 L4312.65 3121.14 L4312.65 3122.16 L4312.86 3122.78 L4313.06 3123.19 L4313.47 3123.6 L4313.88 3123.8 L4314.7 3123.8 L4315.11 3123.6 L4315.52 3123.19 L4315.72 3122.78 M 4318.71 3119.5L4317.07 3123.8 M 4318.71 3119.5L4320.34 3123.8 M 4317.69 3122.37L4319.73 3122.37 M 4321.69 3119.5L4321.69 3123.8 M 4321.69 3119.5L4323.54 3119.5 L4324.15 3119.71 L4324.35 3119.91 L4324.56 3120.32 L4324.56 3120.94 L4324.35 3121.35 L4324.15 3121.55 L4323.54 3121.75 L4321.69 3121.75 M 4327.54 3119.5L4325.91 3123.8 M 4327.54 3119.5L4329.18 3123.8 M 4326.52 3122.37L4328.57 3122.37 M 4333.6 3120.53L4333.39 3120.12 L4332.99 3119.71 L4332.58 3119.5 L4331.76 3119.5 L4331.35 3119.71 L4330.94 3120.12 L4330.74 3120.53 L4330.53 3121.14 L4330.53 3122.16 L4330.74 3122.78 L4330.94 3123.19 L4331.35 3123.6 L4331.76 3123.8 L4332.58 3123.8 L4332.99 3123.6 L4333.39 3123.19 L4333.6 3122.78 M 4334.95 3119.5L4334.95 3123.8 M 4337.73 3119.5L4337.73 3123.8 M 4336.3 3119.5L4339.16 3119.5 M 4340.51 3119.5L4340.51 3123.8 M 4341.86 3119.5L4343.5 3123.8 M 4345.14 3119.5L4343.5 3123.8 M 4346.49 3119.5L4346.49 3123.8 M 4346.49 3119.5L4349.14 3119.5 M 4346.49 3121.55L4348.12 3121.55 M 4346.49 3123.8L4349.14 3123.8 M 4350.49 3125.23L4354.18 3125.23 M 4355.53 3119.5L4355.53 3123.8 M 4355.53 3119.5L4357.37 3119.5 L4357.98 3119.71 L4358.19 3119.91 L4358.39 3120.32 L4358.39 3120.94 L4358.19 3121.35 L4357.98 3121.55 L4357.37 3121.75 L4355.53 3121.75 M 4361.38 3119.5L4359.74 3123.8 M 4361.38 3119.5L4363.01 3123.8 M 4360.35 3122.37L4362.4 3122.37 M 4364.36 3119.5L4364.36 3123.8 M 4364.36 3119.5L4365.79 3119.5 L4366.41 3119.71 L4366.82 3120.12 L4367.02 3120.53 L4367.23 3121.14 L4367.23 3122.16 L4367.02 3122.78 L4366.82 3123.19 L4366.41 3123.6 L4365.79 3123.8 L4364.36 3123.8 " fill="none"  stroke-width="0.2" c_note="note_name" /></g><g c_partid="part_pcbtext" c_etype="" c_origin="4307.733,3179.211" c_rotation="0" c_mirror="0" id="gge121224" locked="0" layerid="3" c_shapetype="group" ><path c_fontsize="4.5" c_fontfamily="" c_text="KSI1" d="M 4307.73 3174.67L4307.73 3178.97 M 4310.6 3174.67L4307.73 3177.53 M 4308.76 3176.51L4310.6 3178.97 M 4314.81 3175.28L4314.4 3174.87 L4313.79 3174.67 L4312.97 3174.67 L4312.36 3174.87 L4311.95 3175.28 L4311.95 3175.69 L4312.15 3176.1 L4312.36 3176.31 L4312.76 3176.51 L4313.99 3176.92 L4314.4 3177.12 L4314.61 3177.33 L4314.81 3177.74 L4314.81 3178.35 L4314.4 3178.76 L4313.79 3178.97 L4312.97 3178.97 L4312.36 3178.76 L4311.95 3178.35 M 4316.16 3174.67L4316.16 3178.97 M 4317.51 3175.49L4317.92 3175.28 L4318.53 3174.67 L4318.53 3178.97 " fill="none"  stroke-width="0.2" c_note="note_pre" /></g><g c_partid="part_pcbtext" c_etype="" c_origin="4312.654,2966.172" c_rotation="0" c_mirror="0" id="gge121072" locked="0" layerid="3" c_shapetype="group" display="none"><path c_fontsize="4.5" c_fontfamily="" c_text="CAPACITIVE_PAD" d="M 4315.72 2962.65L4315.52 2962.24 L4315.11 2961.84 L4314.7 2961.63 L4313.88 2961.63 L4313.47 2961.84 L4313.06 2962.24 L4312.86 2962.65 L4312.65 2963.27 L4312.65 2964.29 L4312.86 2964.9 L4313.06 2965.31 L4313.47 2965.72 L4313.88 2965.93 L4314.7 2965.93 L4315.11 2965.72 L4315.52 2965.31 L4315.72 2964.9 M 4318.71 2961.63L4317.07 2965.93 M 4318.71 2961.63L4320.34 2965.93 M 4317.69 2964.49L4319.73 2964.49 M 4321.69 2961.63L4321.69 2965.93 M 4321.69 2961.63L4323.54 2961.63 L4324.15 2961.84 L4324.35 2962.04 L4324.56 2962.45 L4324.56 2963.06 L4324.35 2963.47 L4324.15 2963.68 L4323.54 2963.88 L4321.69 2963.88 M 4327.54 2961.63L4325.91 2965.93 M 4327.54 2961.63L4329.18 2965.93 M 4326.52 2964.49L4328.57 2964.49 M 4333.6 2962.65L4333.39 2962.24 L4332.99 2961.84 L4332.58 2961.63 L4331.76 2961.63 L4331.35 2961.84 L4330.94 2962.24 L4330.74 2962.65 L4330.53 2963.27 L4330.53 2964.29 L4330.74 2964.9 L4330.94 2965.31 L4331.35 2965.72 L4331.76 2965.93 L4332.58 2965.93 L4332.99 2965.72 L4333.39 2965.31 L4333.6 2964.9 M 4334.95 2961.63L4334.95 2965.93 M 4337.73 2961.63L4337.73 2965.93 M 4336.3 2961.63L4339.16 2961.63 M 4340.51 2961.63L4340.51 2965.93 M 4341.86 2961.63L4343.5 2965.93 M 4345.14 2961.63L4343.5 2965.93 M 4346.49 2961.63L4346.49 2965.93 M 4346.49 2961.63L4349.14 2961.63 M 4346.49 2963.68L4348.12 2963.68 M 4346.49 2965.93L4349.14 2965.93 M 4350.49 2967.36L4354.18 2967.36 M 4355.53 2961.63L4355.53 2965.93 M 4355.53 2961.63L4357.37 2961.63 L4357.98 2961.84 L4358.19 2962.04 L4358.39 2962.45 L4358.39 2963.06 L4358.19 2963.47 L4357.98 2963.68 L4357.37 2963.88 L4355.53 2963.88 M 4361.38 2961.63L4359.74 2965.93 M 4361.38 2961.63L4363.01 2965.93 M 4360.35 2964.49L4362.4 2964.49 M 4364.36 2961.63L4364.36 2965.93 M 4364.36 2961.63L4365.79 2961.63 L4366.41 2961.84 L4366.82 2962.24 L4367.02 2962.65 L4367.23 2963.27 L4367.23 2964.29 L4367.02 2964.9 L4366.82 2965.31 L4366.41 2965.72 L4365.79 2965.93 L4364.36 2965.93 " fill="none"  stroke-width="0.2" c_note="note_name" /></g><g c_partid="part_pcbtext" c_etype="" c_origin="4305.961,3020.747" c_rotation="0" c_mirror="0" id="gge121074" locked="0" layerid="3" c_shapetype="group" ><path c_fontsize="4.5" c_fontfamily="" c_text="KDO1" d="M 4305.96 3016.21L4305.96 3020.5 M 4308.82 3016.21L4305.96 3019.07 M 4306.98 3018.05L4308.82 3020.5 M 4310.17 3016.21L4310.17 3020.5 M 4310.17 3016.21L4311.61 3016.21 L4312.22 3016.41 L4312.63 3016.82 L4312.83 3017.23 L4313.04 3017.84 L4313.04 3018.87 L4312.83 3019.48 L4312.63 3019.89 L4312.22 3020.3 L4311.61 3020.5 L4310.17 3020.5 M 4315.62 3016.21L4315.21 3016.41 L4314.8 3016.82 L4314.59 3017.23 L4314.39 3017.84 L4314.39 3018.87 L4314.59 3019.48 L4314.8 3019.89 L4315.21 3020.3 L4315.62 3020.5 L4316.43 3020.5 L4316.84 3020.3 L4317.25 3019.89 L4317.46 3019.48 L4317.66 3018.87 L4317.66 3017.84 L4317.46 3017.23 L4317.25 3016.82 L4316.84 3016.41 L4316.43 3016.21 L4315.62 3016.21 M 4319.01 3017.02L4319.42 3016.82 L4320.03 3016.21 L4320.03 3020.5 " fill="none"  stroke-width="0.2" c_note="note_pre" /></g><g c_partid="part_pcbtext" c_etype="" c_origin="4312.457,3045.306" c_rotation="0" c_mirror="0" id="gge121100" locked="0" layerid="3" c_shapetype="group" display="none"><path c_fontsize="4.5" c_fontfamily="" c_text="CAPACITIVE_PAD" d="M 4315.53 3041.79L4315.32 3041.38 L4314.91 3040.97 L4314.5 3040.77 L4313.68 3040.77 L4313.28 3040.97 L4312.87 3041.38 L4312.66 3041.79 L4312.46 3042.4 L4312.46 3043.42 L4312.66 3044.04 L4312.87 3044.45 L4313.28 3044.86 L4313.68 3045.06 L4314.5 3045.06 L4314.91 3044.86 L4315.32 3044.45 L4315.53 3044.04 M 4318.51 3040.77L4316.88 3045.06 M 4318.51 3040.77L4320.15 3045.06 M 4317.49 3043.63L4319.53 3043.63 M 4321.5 3040.77L4321.5 3045.06 M 4321.5 3040.77L4323.34 3040.77 L4323.95 3040.97 L4324.16 3041.17 L4324.36 3041.58 L4324.36 3042.2 L4324.16 3042.61 L4323.95 3042.81 L4323.34 3043.02 L4321.5 3043.02 M 4327.35 3040.77L4325.71 3045.06 M 4327.35 3040.77L4328.98 3045.06 M 4326.33 3043.63L4328.37 3043.63 M 4333.4 3041.79L4333.2 3041.38 L4332.79 3040.97 L4332.38 3040.77 L4331.56 3040.77 L4331.15 3040.97 L4330.74 3041.38 L4330.54 3041.79 L4330.33 3042.4 L4330.33 3043.42 L4330.54 3044.04 L4330.74 3044.45 L4331.15 3044.86 L4331.56 3045.06 L4332.38 3045.06 L4332.79 3044.86 L4333.2 3044.45 L4333.4 3044.04 M 4334.75 3040.77L4334.75 3045.06 M 4337.53 3040.77L4337.53 3045.06 M 4336.1 3040.77L4338.97 3040.77 M 4340.32 3040.77L4340.32 3045.06 M 4341.67 3040.77L4343.3 3045.06 M 4344.94 3040.77L4343.3 3045.06 M 4346.29 3040.77L4346.29 3045.06 M 4346.29 3040.77L4348.95 3040.77 M 4346.29 3042.81L4347.93 3042.81 M 4346.29 3045.06L4348.95 3045.06 M 4350.3 3046.49L4353.98 3046.49 M 4355.33 3040.77L4355.33 3045.06 M 4355.33 3040.77L4357.17 3040.77 L4357.78 3040.97 L4357.99 3041.17 L4358.19 3041.58 L4358.19 3042.2 L4357.99 3042.61 L4357.78 3042.81 L4357.17 3043.02 L4355.33 3043.02 M 4361.18 3040.77L4359.54 3045.06 M 4361.18 3040.77L4362.82 3045.06 M 4360.16 3043.63L4362.2 3043.63 M 4364.17 3040.77L4364.17 3045.06 M 4364.17 3040.77L4365.6 3040.77 L4366.21 3040.97 L4366.62 3041.38 L4366.83 3041.79 L4367.03 3042.4 L4367.03 3043.42 L4366.83 3044.04 L4366.62 3044.45 L4366.21 3044.86 L4365.6 3045.06 L4364.17 3045.06 " fill="none"  stroke-width="0.2" c_note="note_name" /></g><g c_partid="part_pcbtext" c_etype="" c_origin="4306.749,3101.062" c_rotation="0" c_mirror="0" id="gge121102" locked="0" layerid="3" c_shapetype="group" ><path c_fontsize="4.5" c_fontfamily="" c_text="KFA1" d="M 4306.75 3096.52L4306.75 3100.82 M 4309.61 3096.52L4306.75 3099.38 M 4307.77 3098.36L4309.61 3100.82 M 4310.96 3096.52L4310.96 3100.82 M 4310.96 3096.52L4313.62 3096.52 M 4310.96 3098.57L4312.6 3098.57 M 4316.61 3096.52L4314.97 3100.82 M 4316.61 3096.52L4318.24 3100.82 M 4315.59 3099.38L4317.63 3099.38 M 4319.59 3097.34L4320 3097.13 L4320.62 3096.52 L4320.62 3100.82 " fill="none"  stroke-width="0.2" c_note="note_pre" /></g><g c_partid="part_pcbtext" c_etype="" c_origin="4470.725,3076.802" c_rotation="0" c_mirror="0" id="gge121128" locked="0" layerid="3" c_shapetype="group" display="none"><path c_fontsize="4.5" c_fontfamily="" c_text="CAPACITIVE_PAD" d="M 4473.79 3073.28L4473.59 3072.87 L4473.18 3072.47 L4472.77 3072.26 L4471.95 3072.26 L4471.54 3072.47 L4471.13 3072.87 L4470.93 3073.28 L4470.73 3073.9 L4470.73 3074.92 L4470.93 3075.53 L4471.13 3075.94 L4471.54 3076.35 L4471.95 3076.56 L4472.77 3076.56 L4473.18 3076.35 L4473.59 3075.94 L4473.79 3075.53 M 4476.78 3072.26L4475.14 3076.56 M 4476.78 3072.26L4478.42 3076.56 M 4475.76 3075.12L4477.8 3075.12 M 4479.77 3072.26L4479.77 3076.56 M 4479.77 3072.26L4481.61 3072.26 L4482.22 3072.47 L4482.43 3072.67 L4482.63 3073.08 L4482.63 3073.69 L4482.43 3074.1 L4482.22 3074.31 L4481.61 3074.51 L4479.77 3074.51 M 4485.62 3072.26L4483.98 3076.56 M 4485.62 3072.26L4487.25 3076.56 M 4484.59 3075.12L4486.64 3075.12 M 4491.67 3073.28L4491.47 3072.87 L4491.06 3072.47 L4490.65 3072.26 L4489.83 3072.26 L4489.42 3072.47 L4489.01 3072.87 L4488.81 3073.28 L4488.6 3073.9 L4488.6 3074.92 L4488.81 3075.53 L4489.01 3075.94 L4489.42 3076.35 L4489.83 3076.56 L4490.65 3076.56 L4491.06 3076.35 L4491.47 3075.94 L4491.67 3075.53 M 4493.02 3072.26L4493.02 3076.56 M 4495.8 3072.26L4495.8 3076.56 M 4494.37 3072.26L4497.23 3072.26 M 4498.58 3072.26L4498.58 3076.56 M 4499.93 3072.26L4501.57 3076.56 M 4503.21 3072.26L4501.57 3076.56 M 4504.56 3072.26L4504.56 3076.56 M 4504.56 3072.26L4507.22 3072.26 M 4504.56 3074.31L4506.19 3074.31 M 4504.56 3076.56L4507.22 3076.56 M 4508.57 3077.99L4512.25 3077.99 M 4513.6 3072.26L4513.6 3076.56 M 4513.6 3072.26L4515.44 3072.26 L4516.05 3072.47 L4516.26 3072.67 L4516.46 3073.08 L4516.46 3073.69 L4516.26 3074.1 L4516.05 3074.31 L4515.44 3074.51 L4513.6 3074.51 M 4519.45 3072.26L4517.81 3076.56 M 4519.45 3072.26L4521.08 3076.56 M 4518.43 3075.12L4520.47 3075.12 M 4522.43 3072.26L4522.43 3076.56 M 4522.43 3072.26L4523.87 3072.26 L4524.48 3072.47 L4524.89 3072.87 L4525.09 3073.28 L4525.3 3073.9 L4525.3 3074.92 L4525.09 3075.53 L4524.89 3075.94 L4524.48 3076.35 L4523.87 3076.56 L4522.43 3076.56 " fill="none"  stroke-width="0.2" c_note="note_name" /></g><g c_partid="part_pcbtext" c_etype="" c_origin="4463.442,3131.967" c_rotation="0" c_mirror="0" id="gge121130" locked="0" layerid="3" c_shapetype="group" ><path c_fontsize="4.5" c_fontfamily="" c_text="KLA1" d="M 4463.44 3127.43L4463.44 3131.72 M 4466.31 3127.43L4463.44 3130.29 M 4464.46 3129.27L4466.31 3131.72 M 4467.66 3127.43L4467.66 3131.72 M 4467.66 3131.72L4470.11 3131.72 M 4473.1 3127.43L4471.46 3131.72 M 4473.1 3127.43L4474.73 3131.72 M 4472.07 3130.29L4474.12 3130.29 M 4476.08 3128.24L4476.49 3128.04 L4477.11 3127.43 L4477.11 3131.72 " fill="none"  stroke-width="0.2" c_note="note_pre" /></g><g c_partid="part_pcbtext" c_etype="" c_origin="4391.198,2958.298" c_rotation="0" c_mirror="0" id="gge121178" locked="0" layerid="3" c_shapetype="group" display="none"><path c_fontsize="4.5" c_fontfamily="" c_text="CAPACITIVE_PAD" d="M 4394.27 2954.78L4394.06 2954.37 L4393.65 2953.96 L4393.24 2953.76 L4392.43 2953.76 L4392.02 2953.96 L4391.61 2954.37 L4391.4 2954.78 L4391.2 2955.39 L4391.2 2956.42 L4391.4 2957.03 L4391.61 2957.44 L4392.02 2957.85 L4392.43 2958.05 L4393.24 2958.05 L4393.65 2957.85 L4394.06 2957.44 L4394.27 2957.03 M 4397.25 2953.76L4395.62 2958.05 M 4397.25 2953.76L4398.89 2958.05 M 4396.23 2956.62L4398.28 2956.62 M 4400.24 2953.76L4400.24 2958.05 M 4400.24 2953.76L4402.08 2953.76 L4402.69 2953.96 L4402.9 2954.17 L4403.1 2954.58 L4403.1 2955.19 L4402.9 2955.6 L4402.69 2955.8 L4402.08 2956.01 L4400.24 2956.01 M 4406.09 2953.76L4404.45 2958.05 M 4406.09 2953.76L4407.73 2958.05 M 4405.07 2956.62L4407.11 2956.62 M 4412.14 2954.78L4411.94 2954.37 L4411.53 2953.96 L4411.12 2953.76 L4410.3 2953.76 L4409.89 2953.96 L4409.48 2954.37 L4409.28 2954.78 L4409.08 2955.39 L4409.08 2956.42 L4409.28 2957.03 L4409.48 2957.44 L4409.89 2957.85 L4410.3 2958.05 L4411.12 2958.05 L4411.53 2957.85 L4411.94 2957.44 L4412.14 2957.03 M 4413.49 2953.76L4413.49 2958.05 M 4416.28 2953.76L4416.28 2958.05 M 4414.84 2953.76L4417.71 2953.76 M 4419.06 2953.76L4419.06 2958.05 M 4420.41 2953.76L4422.04 2958.05 M 4423.68 2953.76L4422.04 2958.05 M 4425.03 2953.76L4425.03 2958.05 M 4425.03 2953.76L4427.69 2953.76 M 4425.03 2955.8L4426.67 2955.8 M 4425.03 2958.05L4427.69 2958.05 M 4429.04 2959.48L4432.72 2959.48 M 4434.07 2953.76L4434.07 2958.05 M 4434.07 2953.76L4435.91 2953.76 L4436.53 2953.96 L4436.73 2954.17 L4436.93 2954.58 L4436.93 2955.19 L4436.73 2955.6 L4436.53 2955.8 L4435.91 2956.01 L4434.07 2956.01 M 4439.92 2953.76L4438.28 2958.05 M 4439.92 2953.76L4441.56 2958.05 M 4438.9 2956.62L4440.94 2956.62 M 4442.91 2953.76L4442.91 2958.05 M 4442.91 2953.76L4444.34 2953.76 L4444.95 2953.96 L4445.36 2954.37 L4445.57 2954.78 L4445.77 2955.39 L4445.77 2956.42 L4445.57 2957.03 L4445.36 2957.44 L4444.95 2957.85 L4444.34 2958.05 L4442.91 2958.05 " fill="none"  stroke-width="0.2" c_note="note_name" /></g><g c_partid="part_pcbtext" c_etype="" c_origin="4384.702,3013.857" c_rotation="0" c_mirror="0" id="gge121180" locked="0" layerid="3" c_shapetype="group" ><path c_fontsize="4.5" c_fontfamily="" c_text="KRE1" d="M 4384.7 3009.32L4384.7 3013.61 M 4387.57 3009.32L4384.7 3012.18 M 4385.72 3011.16L4387.57 3013.61 M 4388.92 3009.32L4388.92 3013.61 M 4388.92 3009.32L4390.76 3009.32 L4391.37 3009.52 L4391.57 3009.73 L4391.78 3010.13 L4391.78 3010.54 L4391.57 3010.95 L4391.37 3011.16 L4390.76 3011.36 L4388.92 3011.36 M 4390.35 3011.36L4391.78 3013.61 M 4393.13 3009.32L4393.13 3013.61 M 4393.13 3009.32L4395.79 3009.32 M 4393.13 3011.36L4394.77 3011.36 M 4393.13 3013.61L4395.79 3013.61 M 4397.14 3010.13L4397.55 3009.93 L4398.16 3009.32 L4398.16 3013.61 " fill="none"  stroke-width="0.2" c_note="note_pre" /></g><g c_partid="part_pcbtext" c_etype="" c_origin="4391.197,3036.251" c_rotation="0" c_mirror="0" id="gge121233" locked="0" layerid="3" c_shapetype="group" display="none"><path c_fontsize="4.5" c_fontfamily="" c_text="CAPACITIVE_PAD" d="M 4394.27 3032.73L4394.06 3032.32 L4393.65 3031.91 L4393.24 3031.71 L4392.42 3031.71 L4392.02 3031.91 L4391.61 3032.32 L4391.4 3032.73 L4391.2 3033.35 L4391.2 3034.37 L4391.4 3034.98 L4391.61 3035.39 L4392.02 3035.8 L4392.42 3036.01 L4393.24 3036.01 L4393.65 3035.8 L4394.06 3035.39 L4394.27 3034.98 M 4397.25 3031.71L4395.62 3036.01 M 4397.25 3031.71L4398.89 3036.01 M 4396.23 3034.57L4398.27 3034.57 M 4400.24 3031.71L4400.24 3036.01 M 4400.24 3031.71L4402.08 3031.71 L4402.69 3031.91 L4402.9 3032.12 L4403.1 3032.53 L4403.1 3033.14 L4402.9 3033.55 L4402.69 3033.76 L4402.08 3033.96 L4400.24 3033.96 M 4406.09 3031.71L4404.45 3036.01 M 4406.09 3031.71L4407.72 3036.01 M 4405.07 3034.57L4407.11 3034.57 M 4412.14 3032.73L4411.94 3032.32 L4411.53 3031.91 L4411.12 3031.71 L4410.3 3031.71 L4409.89 3031.91 L4409.48 3032.32 L4409.28 3032.73 L4409.07 3033.35 L4409.07 3034.37 L4409.28 3034.98 L4409.48 3035.39 L4409.89 3035.8 L4410.3 3036.01 L4411.12 3036.01 L4411.53 3035.8 L4411.94 3035.39 L4412.14 3034.98 M 4413.49 3031.71L4413.49 3036.01 M 4416.27 3031.71L4416.27 3036.01 M 4414.84 3031.71L4417.71 3031.71 M 4419.06 3031.71L4419.06 3036.01 M 4420.41 3031.71L4422.04 3036.01 M 4423.68 3031.71L4422.04 3036.01 M 4425.03 3031.71L4425.03 3036.01 M 4425.03 3031.71L4427.69 3031.71 M 4425.03 3033.76L4426.67 3033.76 M 4425.03 3036.01L4427.69 3036.01 M 4429.04 3037.44L4432.72 3037.44 M 4434.07 3031.71L4434.07 3036.01 M 4434.07 3031.71L4435.91 3031.71 L4436.52 3031.91 L4436.73 3032.12 L4436.93 3032.53 L4436.93 3033.14 L4436.73 3033.55 L4436.52 3033.76 L4435.91 3033.96 L4434.07 3033.96 M 4439.92 3031.71L4438.28 3036.01 M 4439.92 3031.71L4441.56 3036.01 M 4438.9 3034.57L4440.94 3034.57 M 4442.91 3031.71L4442.91 3036.01 M 4442.91 3031.71L4444.34 3031.71 L4444.95 3031.91 L4445.36 3032.32 L4445.57 3032.73 L4445.77 3033.35 L4445.77 3034.37 L4445.57 3034.98 L4445.36 3035.39 L4444.95 3035.8 L4444.34 3036.01 L4442.91 3036.01 " fill="none"  stroke-width="0.2" c_note="note_name" /></g><g c_partid="part_pcbtext" c_etype="" c_origin="4384.111,3091.416" c_rotation="0" c_mirror="0" id="gge121235" locked="0" layerid="3" c_shapetype="group" ><path c_fontsize="4.5" c_fontfamily="" c_text="KSOL1" d="M 4384.11 3086.88L4384.11 3091.17 M 4386.97 3086.88L4384.11 3089.74 M 4385.13 3088.72L4386.97 3091.17 M 4391.19 3087.49L4390.78 3087.08 L4390.17 3086.88 L4389.35 3086.88 L4388.73 3087.08 L4388.32 3087.49 L4388.32 3087.9 L4388.53 3088.31 L4388.73 3088.51 L4389.14 3088.72 L4390.37 3089.13 L4390.78 3089.33 L4390.98 3089.53 L4391.19 3089.94 L4391.19 3090.56 L4390.78 3090.97 L4390.17 3091.17 L4389.35 3091.17 L4388.73 3090.97 L4388.32 3090.56 M 4393.77 3086.88L4393.36 3087.08 L4392.95 3087.49 L4392.74 3087.9 L4392.54 3088.51 L4392.54 3089.53 L4392.74 3090.15 L4392.95 3090.56 L4393.36 3090.97 L4393.77 3091.17 L4394.58 3091.17 L4394.99 3090.97 L4395.4 3090.56 L4395.61 3090.15 L4395.81 3089.53 L4395.81 3088.51 L4395.61 3087.9 L4395.4 3087.49 L4394.99 3087.08 L4394.58 3086.88 L4393.77 3086.88 M 4397.16 3086.88L4397.16 3091.17 M 4397.16 3091.17L4399.62 3091.17 M 4400.97 3087.69L4401.37 3087.49 L4401.99 3086.88 L4401.99 3091.17 " fill="none"  stroke-width="0.2" c_note="note_pre" /></g><g c_partid="part_pcbtext" c_etype="" c_origin="4176.038,3109.875" c_rotation="0" c_mirror="0" id="gge121167" locked="0" layerid="3" c_shapetype="group" display="none"><path c_fontsize="4.5" c_fontfamily="" c_text="CAPACITIVE_PAD" d="M 4179.11 3106.3527 L 4178.9 3105.9427 L 4178.49 3105.5427 L 4178.08 3105.3327 L 4177.27 3105.3327 L 4176.86 3105.5427 L 4176.45 3105.9427 L 4176.24 3106.3527 L 4176.04 3106.9727 L 4176.04 3107.9927 L 4176.24 3108.6027 L 4176.45 3109.0127 L 4176.86 3109.4227 L 4177.27 3109.6327 L 4178.08 3109.6327 L 4178.49 3109.4227 L 4178.9 3109.0127 L 4179.11 3108.6027 M 4182.09 3105.3327 L 4180.46 3109.6327 M 4182.09 3105.3327 L 4183.73 3109.6327 M 4181.07 3108.1927 L 4183.12 3108.1927 M 4185.08 3105.3327 L 4185.08 3109.6327 M 4185.08 3105.3327 L 4186.92 3105.3327 L 4187.53 3105.5427 L 4187.74 3105.7427 L 4187.94 3106.1527 L 4187.94 3106.7627 L 4187.74 3107.1727 L 4187.53 3107.3827 L 4186.92 3107.5827 L 4185.08 3107.5827 M 4190.93 3105.3327 L 4189.29 3109.6327 M 4190.93 3105.3327 L 4192.57 3109.6327 M 4189.91 3108.1927 L 4191.95 3108.1927 M 4196.98 3106.3527 L 4196.78 3105.9427 L 4196.37 3105.5427 L 4195.96 3105.3327 L 4195.14 3105.3327 L 4194.73 3105.5427 L 4194.32 3105.9427 L 4194.12 3106.3527 L 4193.92 3106.9727 L 4193.92 3107.9927 L 4194.12 3108.6027 L 4194.32 3109.0127 L 4194.73 3109.4227 L 4195.14 3109.6327 L 4195.96 3109.6327 L 4196.37 3109.4227 L 4196.78 3109.0127 L 4196.98 3108.6027 M 4198.33 3105.3327 L 4198.33 3109.6327 M 4201.12 3105.3327 L 4201.12 3109.6327 M 4199.68 3105.3327 L 4202.55 3105.3327 M 4203.9 3105.3327 L 4203.9 3109.6327 M 4205.25 3105.3327 L 4206.88 3109.6327 M 4208.52 3105.3327 L 4206.88 3109.6327 M 4209.87 3105.3327 L 4209.87 3109.6327 M 4209.87 3105.3327 L 4212.53 3105.3327 M 4209.87 3107.3827 L 4211.51 3107.3827 M 4209.87 3109.6327 L 4212.53 3109.6327 M 4213.88 3111.0627 L 4217.56 3111.0627 M 4218.91 3105.3327 L 4218.91 3109.6327 M 4218.91 3105.3327 L 4220.75 3105.3327 L 4221.37 3105.5427 L 4221.57 3105.7427 L 4221.77 3106.1527 L 4221.77 3106.7627 L 4221.57 3107.1727 L 4221.37 3107.3827 L 4220.75 3107.5827 L 4218.91 3107.5827 M 4224.76 3105.3327 L 4223.12 3109.6327 M 4224.76 3105.3327 L 4226.4 3109.6327 M 4223.74 3108.1927 L 4225.78 3108.1927 M 4227.75 3105.3327 L 4227.75 3109.6327 M 4227.75 3105.3327 L 4229.18 3105.3327 L 4229.79 3105.5427 L 4230.2 3105.9427 L 4230.41 3106.3527 L 4230.61 3106.9727 L 4230.61 3107.9927 L 4230.41 3108.6027 L 4230.2 3109.0127 L 4229.79 3109.4227 L 4229.18 3109.6327 L 4227.75 3109.6327" fill="none"  stroke-width="0.2" c_note="note_name" /></g><g c_partid="part_pcbtext" c_etype="" c_origin="4164.67,3125.988" c_rotation="0" c_mirror="0" id="gge121169" locked="0" layerid="3" c_shapetype="group" ><path c_fontsize="4.5" c_fontfamily="" c_text="KMINOR" d="M 4164.672 3121.4457 L 4164.672 3125.7457 M 4167.532 3121.4457 L 4164.672 3124.3057 M 4165.692 3123.2857 L 4167.532 3125.7457 M 4168.882 3121.4457 L 4168.882 3125.7457 M 4168.882 3121.4457 L 4170.522 3125.7457 M 4172.152 3121.4457 L 4170.522 3125.7457 M 4172.152 3121.4457 L 4172.152 3125.7457 M 4173.502 3121.4457 L 4173.502 3125.7457 M 4174.852 3121.4457 L 4174.852 3125.7457 M 4174.852 3121.4457 L 4177.722 3125.7457 M 4177.722 3121.4457 L 4177.722 3125.7457 M 4180.302 3121.4457 L 4179.892 3121.6557 L 4179.482 3122.0557 L 4179.272 3122.4657 L 4179.072 3123.0857 L 4179.072 3124.1057 L 4179.272 3124.7157 L 4179.482 3125.1257 L 4179.892 3125.5357 L 4180.302 3125.7457 L 4181.112 3125.7457 L 4181.522 3125.5357 L 4181.932 3125.1257 L 4182.142 3124.7157 L 4182.342 3124.1057 L 4182.342 3123.0857 L 4182.142 3122.4657 L 4181.932 3122.0557 L 4181.522 3121.6557 L 4181.112 3121.4457 L 4180.302 3121.4457 M 4183.692 3121.4457 L 4183.692 3125.7457 M 4183.692 3121.4457 L 4185.532 3121.4457 L 4186.152 3121.6557 L 4186.352 3121.8557 L 4186.552 3122.2657 L 4186.552 3122.6757 L 4186.352 3123.0857 L 4186.152 3123.2857 L 4185.532 3123.4957 L 4183.692 3123.4957 M 4185.122 3123.4957 L 4186.552 3125.7457" fill="none"  stroke-width="0.2" c_note="note_pre" /></g><g c_partid="part_pcbtext" c_etype="" c_origin="4079.977,3127.786" c_rotation="0" c_mirror="0" id="gge121211" locked="0" layerid="3" c_shapetype="group" display="none"><path c_fontsize="4.5" c_fontfamily="" c_text="CAPACITIVE_PAD" d="M 4083.05 3124.27L4082.84 3123.86 L4082.43 3123.45 L4082.02 3123.25 L4081.2 3123.25 L4080.8 3123.45 L4080.39 3123.86 L4080.18 3124.27 L4079.98 3124.88 L4079.98 3125.9 L4080.18 3126.52 L4080.39 3126.93 L4080.8 3127.34 L4081.2 3127.54 L4082.02 3127.54 L4082.43 3127.34 L4082.84 3126.93 L4083.05 3126.52 M 4086.03 3123.25L4084.4 3127.54 M 4086.03 3123.25L4087.67 3127.54 M 4085.01 3126.11L4087.05 3126.11 M 4089.02 3123.25L4089.02 3127.54 M 4089.02 3123.25L4090.86 3123.25 L4091.47 3123.45 L4091.68 3123.65 L4091.88 3124.06 L4091.88 3124.68 L4091.68 3125.09 L4091.47 3125.29 L4090.86 3125.5 L4089.02 3125.5 M 4094.87 3123.25L4093.23 3127.54 M 4094.87 3123.25L4096.5 3127.54 M 4093.85 3126.11L4095.89 3126.11 M 4100.92 3124.27L4100.72 3123.86 L4100.31 3123.45 L4099.9 3123.25 L4099.08 3123.25 L4098.67 3123.45 L4098.26 3123.86 L4098.06 3124.27 L4097.85 3124.88 L4097.85 3125.9 L4098.06 3126.52 L4098.26 3126.93 L4098.67 3127.34 L4099.08 3127.54 L4099.9 3127.54 L4100.31 3127.34 L4100.72 3126.93 L4100.92 3126.52 M 4102.27 3123.25L4102.27 3127.54 M 4105.05 3123.25L4105.05 3127.54 M 4103.62 3123.25L4106.49 3123.25 M 4107.84 3123.25L4107.84 3127.54 M 4109.19 3123.25L4110.82 3127.54 M 4112.46 3123.25L4110.82 3127.54 M 4113.81 3123.25L4113.81 3127.54 M 4113.81 3123.25L4116.47 3123.25 M 4113.81 3125.29L4115.45 3125.29 M 4113.81 3127.54L4116.47 3127.54 M 4117.82 3128.97L4121.5 3128.97 M 4122.85 3123.25L4122.85 3127.54 M 4122.85 3123.25L4124.69 3123.25 L4125.3 3123.45 L4125.51 3123.65 L4125.71 3124.06 L4125.71 3124.68 L4125.51 3125.09 L4125.3 3125.29 L4124.69 3125.5 L4122.85 3125.5 M 4128.7 3123.25L4127.06 3127.54 M 4128.7 3123.25L4130.34 3127.54 M 4127.68 3126.11L4129.72 3126.11 M 4131.69 3123.25L4131.69 3127.54 M 4131.69 3123.25L4133.12 3123.25 L4133.73 3123.45 L4134.14 3123.86 L4134.35 3124.27 L4134.55 3124.88 L4134.55 3125.9 L4134.35 3126.52 L4134.14 3126.93 L4133.73 3127.34 L4133.12 3127.54 L4131.69 3127.54 " fill="none"  stroke-width="0.2" c_note="note_name" /></g><g c_partid="part_pcbtext" c_etype="" c_origin="4069.741,3156.967" c_rotation="0" c_mirror="0" id="gge121213" locked="0" layerid="3" c_shapetype="group" ><path c_fontsize="4.5" c_fontfamily="" c_text="KSHIFT" d="M 4069.74 3152.43L4069.74 3156.72 M 4072.6 3152.43L4069.74 3155.29 M 4070.76 3154.27L4072.6 3156.72 M 4076.82 3153.04L4076.41 3152.63 L4075.8 3152.43 L4074.98 3152.43 L4074.36 3152.63 L4073.95 3153.04 L4073.95 3153.45 L4074.16 3153.86 L4074.36 3154.06 L4074.77 3154.27 L4076 3154.68 L4076.41 3154.88 L4076.61 3155.09 L4076.82 3155.49 L4076.82 3156.11 L4076.41 3156.52 L4075.8 3156.72 L4074.98 3156.72 L4074.36 3156.52 L4073.95 3156.11 M 4078.17 3152.43L4078.17 3156.72 M 4081.03 3152.43L4081.03 3156.72 M 4078.17 3154.47L4081.03 3154.47 M 4082.38 3152.43L4082.38 3156.72 M 4083.73 3152.43L4083.73 3156.72 M 4083.73 3152.43L4086.39 3152.43 M 4083.73 3154.47L4085.37 3154.47 M 4089.17 3152.43L4089.17 3156.72 M 4087.74 3152.43L4090.6 3152.43 " fill="none"  stroke-width="0.2" c_note="note_pre" /></g><g c_partid="part_pcbtext" c_etype="" c_origin="3994.34,3040.542" c_rotation="90" c_mirror="0" id="gge121272" locked="0" layerid="3" c_shapetype="group" display="none"><path c_fontsize="4.5" c_fontfamily="" c_text="Slide Key 4 pads" d="M 3990.408 3037.682 L 3990.008 3038.092 L 3989.798 3038.702 L 3989.798 3039.522 L 3990.008 3040.132 L 3990.408 3040.542 L 3990.818 3040.542 L 3991.228 3040.342 L 3991.438 3040.132 L 3991.638 3039.722 L 3992.048 3038.492 L 3992.258 3038.092 L 3992.458 3037.882 L 3992.868 3037.682 L 3993.478 3037.682 L 3993.888 3038.092 L 3994.098 3038.702 L 3994.098 3039.522 L 3993.888 3040.132 L 3993.478 3040.542 M 3989.798 3036.332 L 3994.098 3036.332 M 3989.798 3034.982 L 3990.008 3034.772 L 3989.798 3034.572 L 3989.598 3034.772 L 3989.798 3034.982 M 3991.228 3034.772 L 3994.098 3034.772 M 3989.798 3030.762 L 3994.098 3030.762 M 3991.848 3030.762 L 3991.438 3031.172 L 3991.228 3031.582 L 3991.228 3032.192 L 3991.438 3032.602 L 3991.848 3033.012 L 3992.458 3033.222 L 3992.868 3033.222 L 3993.478 3033.012 L 3993.888 3032.602 L 3994.098 3032.192 L 3994.098 3031.582 L 3993.888 3031.172 L 3993.478 3030.762 M 3992.458 3029.412 L 3992.458 3026.962 L 3992.048 3026.962 L 3991.638 3027.162 L 3991.438 3027.372 L 3991.228 3027.782 L 3991.228 3028.392 L 3991.438 3028.802 L 3991.848 3029.212 L 3992.458 3029.412 L 3992.868 3029.412 L 3993.478 3029.212 L 3993.888 3028.802 L 3994.098 3028.392 L 3994.098 3027.782 L 3993.888 3027.372 L 3993.478 3026.962 M 3989.798 3022.462 L 3994.098 3022.462 M 3989.798 3019.592 L 3992.658 3022.462 M 3991.638 3021.442 L 3994.098 3019.592 M 3992.458 3018.242 L 3992.458 3015.792 L 3992.048 3015.792 L 3991.638 3015.992 L 3991.438 3016.202 L 3991.228 3016.612 L 3991.228 3017.222 L 3991.438 3017.632 L 3991.848 3018.042 L 3992.458 3018.242 L 3992.868 3018.242 L 3993.478 3018.042 L 3993.888 3017.632 L 3994.098 3017.222 L 3994.098 3016.612 L 3993.888 3016.202 L 3993.478 3015.792 M 3991.228 3014.242 L 3994.098 3013.012 M 3991.228 3011.782 L 3994.098 3013.012 L 3994.908 3013.422 L 3995.318 3013.832 L 3995.528 3014.242 L 3995.528 3014.442 M 3989.798 3005.242 L 3992.658 3007.282 L 3992.658 3004.212 M 3989.798 3005.242 L 3994.098 3005.242 M 3991.228 2999.712 L 3995.528 2999.712 M 3991.848 2999.712 L 3991.438 2999.302 L 3991.228 2998.892 L 3991.228 2998.282 L 3991.438 2997.872 L 3991.848 2997.462 L 3992.458 2997.262 L 3992.868 2997.262 L 3993.478 2997.462 L 3993.888 2997.872 L 3994.098 2998.282 L 3994.098 2998.892 L 3993.888 2999.302 L 3993.478 2999.712 M 3991.228 2993.452 L 3994.098 2993.452 M 3991.848 2993.452 L 3991.438 2993.862 L 3991.228 2994.272 L 3991.228 2994.892 L 3991.438 2995.292 L 3991.848 2995.702 L 3992.458 2995.912 L 3992.868 2995.912 L 3993.478 2995.702 L 3993.888 2995.292 L 3994.098 2994.892 L 3994.098 2994.272 L 3993.888 2993.862 L 3993.478 2993.452 M 3989.798 2989.652 L 3994.098 2989.652 M 3991.848 2989.652 L 3991.438 2990.062 L 3991.228 2990.472 L 3991.228 2991.082 L 3991.438 2991.492 L 3991.848 2991.902 L 3992.458 2992.102 L 3992.868 2992.102 L 3993.478 2991.902 L 3993.888 2991.492 L 3994.098 2991.082 L 3994.098 2990.472 L 3993.888 2990.062 L 3993.478 2989.652 M 3991.848 2986.052 L 3991.438 2986.252 L 3991.228 2986.872 L 3991.228 2987.482 L 3991.438 2988.092 L 3991.848 2988.302 L 3992.258 2988.092 L 3992.458 2987.692 L 3992.658 2986.662 L 3992.868 2986.252 L 3993.278 2986.052 L 3993.478 2986.052 L 3993.888 2986.252 L 3994.098 2986.872 L 3994.098 2987.482 L 3993.888 2988.092 L 3993.478 2988.302" fill="none"  stroke-width="0.2" c_note="note_name" /></g><g c_partid="part_pcbtext" c_etype="" c_origin="4016.97,3045.967" c_rotation="90" c_mirror="0" id="gge121274" locked="0" layerid="3" c_shapetype="group" ><path c_fontsize="4.5" c_fontfamily="" c_text="KVOLS1" d="M 4012.4279 3045.9671 L 4016.7279 3045.9671 M 4012.4279 3043.1071 L 4015.2879 3045.9671 M 4014.2679 3044.9471 L 4016.7279 3043.1071 M 4012.4279 3041.7571 L 4016.7279 3040.1171 M 4012.4279 3038.4771 L 4016.7279 3040.1171 M 4012.4279 3035.9071 L 4012.6379 3036.3171 L 4013.0379 3036.7171 L 4013.4479 3036.9271 L 4014.0679 3037.1271 L 4015.0879 3037.1271 L 4015.6979 3036.9271 L 4016.1079 3036.7171 L 4016.5179 3036.3171 L 4016.7279 3035.9071 L 4016.7279 3035.0871 L 4016.5179 3034.6771 L 4016.1079 3034.2671 L 4015.6979 3034.0671 L 4015.0879 3033.8571 L 4014.0679 3033.8571 L 4013.4479 3034.0671 L 4013.0379 3034.2671 L 4012.6379 3034.6771 L 4012.4279 3035.0871 L 4012.4279 3035.9071 M 4012.4279 3032.5071 L 4016.7279 3032.5071 M 4016.7279 3032.5071 L 4016.7279 3030.0571 M 4013.0379 3025.8371 L 4012.6379 3026.2471 L 4012.4279 3026.8671 L 4012.4279 3027.6771 L 4012.6379 3028.2971 L 4013.0379 3028.7071 L 4013.4479 3028.7071 L 4013.8579 3028.4971 L 4014.0679 3028.2971 L 4014.2679 3027.8871 L 4014.6779 3026.6571 L 4014.8879 3026.2471 L 4015.0879 3026.0471 L 4015.4979 3025.8371 L 4016.1079 3025.8371 L 4016.5179 3026.2471 L 4016.7279 3026.8671 L 4016.7279 3027.6771 L 4016.5179 3028.2971 L 4016.1079 3028.7071 M 4013.2479 3024.4871 L 4013.0379 3024.0771 L 4012.4279 3023.4671 L 4016.7279 3023.4671" fill="none"  stroke-width="0.2" c_note="note_pre" /></g><g c_partid="part_pcbtext" c_etype="" c_origin="4077.615,3048.07" c_rotation="0" c_mirror="0" id="gge121083" locked="0" layerid="3" c_shapetype="group" display="none"><path c_fontsize="4.5" c_fontfamily="" c_text="CAPACITIVE_PAD" d="M 4080.6848 3044.5496 L 4080.4748 3044.1396 L 4080.0648 3043.7296 L 4079.6648 3043.5296 L 4078.8448 3043.5296 L 4078.4348 3043.7296 L 4078.0248 3044.1396 L 4077.8148 3044.5496 L 4077.6148 3045.1696 L 4077.6148 3046.1896 L 4077.8148 3046.7996 L 4078.0248 3047.2096 L 4078.4348 3047.6196 L 4078.8448 3047.8196 L 4079.6648 3047.8196 L 4080.0648 3047.6196 L 4080.4748 3047.2096 L 4080.6848 3046.7996 M 4083.6648 3043.5296 L 4082.0348 3047.8196 M 4083.6648 3043.5296 L 4085.3048 3047.8196 M 4082.6448 3046.3896 L 4084.6948 3046.3896 M 4086.6548 3043.5296 L 4086.6548 3047.8196 M 4086.6548 3043.5296 L 4088.4948 3043.5296 L 4089.1148 3043.7296 L 4089.3148 3043.9396 L 4089.5148 3044.3496 L 4089.5148 3044.9596 L 4089.3148 3045.3696 L 4089.1148 3045.5696 L 4088.4948 3045.7796 L 4086.6548 3045.7796 M 4092.5048 3043.5296 L 4090.8648 3047.8196 M 4092.5048 3043.5296 L 4094.1448 3047.8196 M 4091.4848 3046.3896 L 4093.5248 3046.3896 M 4098.5648 3044.5496 L 4098.3548 3044.1396 L 4097.9448 3043.7296 L 4097.5348 3043.5296 L 4096.7148 3043.5296 L 4096.3148 3043.7296 L 4095.9048 3044.1396 L 4095.6948 3044.5496 L 4095.4948 3045.1696 L 4095.4948 3046.1896 L 4095.6948 3046.7996 L 4095.9048 3047.2096 L 4096.3148 3047.6196 L 4096.7148 3047.8196 L 4097.5348 3047.8196 L 4097.9448 3047.6196 L 4098.3548 3047.2096 L 4098.5648 3046.7996 M 4099.9148 3043.5296 L 4099.9148 3047.8196 M 4102.6948 3043.5296 L 4102.6948 3047.8196 M 4101.2648 3043.5296 L 4104.1248 3043.5296 M 4105.4748 3043.5296 L 4105.4748 3047.8196 M 4106.8248 3043.5296 L 4108.4648 3047.8196 M 4110.0948 3043.5296 L 4108.4648 3047.8196 M 4111.4448 3043.5296 L 4111.4448 3047.8196 M 4111.4448 3043.5296 L 4114.1048 3043.5296 M 4111.4448 3045.5696 L 4113.0848 3045.5696 M 4111.4448 3047.8196 L 4114.1048 3047.8196 M 4115.4548 3049.2596 L 4119.1348 3049.2596 M 4120.4848 3043.5296 L 4120.4848 3047.8196 M 4120.4848 3043.5296 L 4122.3248 3043.5296 L 4122.9448 3043.7296 L 4123.1448 3043.9396 L 4123.3548 3044.3496 L 4123.3548 3044.9596 L 4123.1448 3045.3696 L 4122.9448 3045.5696 L 4122.3248 3045.7796 L 4120.4848 3045.7796 M 4126.3348 3043.5296 L 4124.7048 3047.8196 M 4126.3348 3043.5296 L 4127.9748 3047.8196 M 4125.3148 3046.3896 L 4127.3648 3046.3896 M 4129.3248 3043.5296 L 4129.3248 3047.8196 M 4129.3248 3043.5296 L 4130.7548 3043.5296 L 4131.3648 3043.7296 L 4131.7748 3044.1396 L 4131.9848 3044.5496 L 4132.1848 3045.1696 L 4132.1848 3046.1896 L 4131.9848 3046.7996 L 4131.7748 3047.2096 L 4131.3648 3047.6196 L 4130.7548 3047.8196 L 4129.3248 3047.8196" fill="none"  stroke-width="0.2" c_note="note_name" /></g><g c_partid="part_pcbtext" c_etype="" c_origin="4085.2921,3065.6495" c_rotation="0" c_mirror="0" id="gge121085" locked="0" layerid="3" c_shapetype="group" ><path c_fontsize="4.5" c_fontfamily="" c_text="KDRUM1" d="M 4085.2919 3061.1091 L 4085.2919 3065.3991 M 4088.1519 3061.1091 L 4085.2919 3063.9691 M 4086.3119 3062.9491 L 4088.1519 3065.3991 M 4089.5019 3061.1091 L 4089.5019 3065.3991 M 4089.5019 3061.1091 L 4090.9419 3061.1091 L 4091.5519 3061.3091 L 4091.9619 3061.7191 L 4092.1619 3062.1291 L 4092.3719 3062.7491 L 4092.3719 3063.7691 L 4092.1619 3064.3791 L 4091.9619 3064.7891 L 4091.5519 3065.1991 L 4090.9419 3065.3991 L 4089.5019 3065.3991 M 4093.7219 3061.1091 L 4093.7219 3065.3991 M 4093.7219 3061.1091 L 4095.5619 3061.1091 L 4096.1719 3061.3091 L 4096.3819 3061.5191 L 4096.5819 3061.9291 L 4096.5819 3062.3391 L 4096.3819 3062.7491 L 4096.1719 3062.9491 L 4095.5619 3063.1491 L 4093.7219 3063.1491 M 4095.1519 3063.1491 L 4096.5819 3065.3991 M 4097.9319 3061.1091 L 4097.9319 3064.1791 L 4098.1419 3064.7891 L 4098.5419 3065.1991 L 4099.1619 3065.3991 L 4099.5719 3065.3991 L 4100.1819 3065.1991 L 4100.5919 3064.7891 L 4100.7919 3064.1791 L 4100.7919 3061.1091 M 4102.1419 3061.1091 L 4102.1419 3065.3991 M 4102.1419 3061.1091 L 4103.7819 3065.3991 M 4105.4219 3061.1091 L 4103.7819 3065.3991 M 4105.4219 3061.1091 L 4105.4219 3065.3991 M 4106.7719 3061.9291 L 4107.1819 3061.7191 L 4107.7919 3061.1091 L 4107.7919 3065.3991" fill="none"  stroke-width="0.2" c_note="note_pre" /></g><g c_partid="part_pcbtext" c_etype="" c_origin="4077.614,2969.329" c_rotation="0" c_mirror="0" id="gge121111" locked="0" layerid="3" c_shapetype="group" display="none"><path c_fontsize="4.5" c_fontfamily="" c_text="CAPACITIVE_PAD" d="M 4080.6848 2965.8094 L 4080.4748 2965.3994 L 4080.0648 2964.9894 L 4079.6648 2964.7894 L 4078.8448 2964.7894 L 4078.4348 2964.9894 L 4078.0248 2965.3994 L 4077.8148 2965.8094 L 4077.6148 2966.4294 L 4077.6148 2967.4494 L 4077.8148 2968.0594 L 4078.0248 2968.4694 L 4078.4348 2968.8794 L 4078.8448 2969.0794 L 4079.6648 2969.0794 L 4080.0648 2968.8794 L 4080.4748 2968.4694 L 4080.6848 2968.0594 M 4083.6648 2964.7894 L 4082.0348 2969.0794 M 4083.6648 2964.7894 L 4085.3048 2969.0794 M 4082.6448 2967.6494 L 4084.6948 2967.6494 M 4086.6548 2964.7894 L 4086.6548 2969.0794 M 4086.6548 2964.7894 L 4088.4948 2964.7894 L 4089.1148 2964.9894 L 4089.3148 2965.1994 L 4089.5148 2965.6094 L 4089.5148 2966.2194 L 4089.3148 2966.6294 L 4089.1148 2966.8294 L 4088.4948 2967.0394 L 4086.6548 2967.0394 M 4092.5048 2964.7894 L 4090.8648 2969.0794 M 4092.5048 2964.7894 L 4094.1448 2969.0794 M 4091.4848 2967.6494 L 4093.5248 2967.6494 M 4098.5648 2965.8094 L 4098.3548 2965.3994 L 4097.9448 2964.9894 L 4097.5348 2964.7894 L 4096.7148 2964.7894 L 4096.3148 2964.9894 L 4095.9048 2965.3994 L 4095.6948 2965.8094 L 4095.4948 2966.4294 L 4095.4948 2967.4494 L 4095.6948 2968.0594 L 4095.9048 2968.4694 L 4096.3148 2968.8794 L 4096.7148 2969.0794 L 4097.5348 2969.0794 L 4097.9448 2968.8794 L 4098.3548 2968.4694 L 4098.5648 2968.0594 M 4099.9148 2964.7894 L 4099.9148 2969.0794 M 4102.6948 2964.7894 L 4102.6948 2969.0794 M 4101.2648 2964.7894 L 4104.1248 2964.7894 M 4105.4748 2964.7894 L 4105.4748 2969.0794 M 4106.8248 2964.7894 L 4108.4648 2969.0794 M 4110.0948 2964.7894 L 4108.4648 2969.0794 M 4111.4448 2964.7894 L 4111.4448 2969.0794 M 4111.4448 2964.7894 L 4114.1048 2964.7894 M 4111.4448 2966.8294 L 4113.0848 2966.8294 M 4111.4448 2969.0794 L 4114.1048 2969.0794 M 4115.4548 2970.5194 L 4119.1348 2970.5194 M 4120.4848 2964.7894 L 4120.4848 2969.0794 M 4120.4848 2964.7894 L 4122.3248 2964.7894 L 4122.9448 2964.9894 L 4123.1448 2965.1994 L 4123.3548 2965.6094 L 4123.3548 2966.2194 L 4123.1448 2966.6294 L 4122.9448 2966.8294 L 4122.3248 2967.0394 L 4120.4848 2967.0394 M 4126.3348 2964.7894 L 4124.7048 2969.0794 M 4126.3348 2964.7894 L 4127.9748 2969.0794 M 4125.3148 2967.6494 L 4127.3648 2967.6494 M 4129.3248 2964.7894 L 4129.3248 2969.0794 M 4129.3248 2964.7894 L 4130.7548 2964.7894 L 4131.3648 2964.9894 L 4131.7748 2965.3994 L 4131.9848 2965.8094 L 4132.1848 2966.4294 L 4132.1848 2967.4494 L 4131.9848 2968.0594 L 4131.7748 2968.4694 L 4131.3648 2968.8794 L 4130.7548 2969.0794 L 4129.3248 2969.0794" fill="none"  stroke-width="0.2" c_note="note_name" /></g><g c_partid="part_pcbtext" c_etype="" c_origin="4086.67,2986.5158" c_rotation="0" c_mirror="0" id="gge121113" locked="0" layerid="3" c_shapetype="group" ><path c_fontsize="4.5" c_fontfamily="" c_text="KINSTR" d="M 4086.6708 2981.9762 L 4086.6708 2986.2662 M 4089.5308 2981.9762 L 4086.6708 2984.8362 M 4087.6908 2983.8162 L 4089.5308 2986.2662 M 4090.8808 2981.9762 L 4090.8808 2986.2662 M 4092.2308 2981.9762 L 4092.2308 2986.2662 M 4092.2308 2981.9762 L 4095.1008 2986.2662 M 4095.1008 2981.9762 L 4095.1008 2986.2662 M 4099.3108 2982.5862 L 4098.9008 2982.1762 L 4098.2908 2981.9762 L 4097.4708 2981.9762 L 4096.8608 2982.1762 L 4096.4508 2982.5862 L 4096.4508 2982.9962 L 4096.6508 2983.4062 L 4096.8608 2983.6162 L 4097.2708 2983.8162 L 4098.4908 2984.2262 L 4098.9008 2984.4262 L 4099.1108 2984.6362 L 4099.3108 2985.0462 L 4099.3108 2985.6562 L 4098.9008 2986.0662 L 4098.2908 2986.2662 L 4097.4708 2986.2662 L 4096.8608 2986.0662 L 4096.4508 2985.6562 M 4102.0908 2981.9762 L 4102.0908 2986.2662 M 4100.6608 2981.9762 L 4103.5208 2981.9762 M 4104.8708 2981.9762 L 4104.8708 2986.2662 M 4104.8708 2981.9762 L 4106.7208 2981.9762 L 4107.3308 2982.1762 L 4107.5308 2982.3862 L 4107.7408 2982.7962 L 4107.7408 2983.2062 L 4107.5308 2983.6162 L 4107.3308 2983.8162 L 4106.7208 2984.0162 L 4104.8708 2984.0162 M 4106.3108 2984.0162 L 4107.7408 2986.2662" fill="none"  stroke-width="0.2" c_note="note_pre" /></g><g c_partid="part_pcbtext" c_etype="" c_origin="4077.614,3008.7" c_rotation="0" c_mirror="0" id="gge121139" locked="0" layerid="3" c_shapetype="group" display="none"><path c_fontsize="4.5" c_fontfamily="" c_text="CAPACITIVE_PAD" d="M 4080.6848 3005.1795 L 4080.4748 3004.7695 L 4080.0648 3004.3595 L 4079.6648 3004.1595 L 4078.8448 3004.1595 L 4078.4348 3004.3595 L 4078.0248 3004.7695 L 4077.8148 3005.1795 L 4077.6148 3005.7995 L 4077.6148 3006.8195 L 4077.8148 3007.4295 L 4078.0248 3007.8395 L 4078.4348 3008.2495 L 4078.8448 3008.4495 L 4079.6648 3008.4495 L 4080.0648 3008.2495 L 4080.4748 3007.8395 L 4080.6848 3007.4295 M 4083.6648 3004.1595 L 4082.0348 3008.4495 M 4083.6648 3004.1595 L 4085.3048 3008.4495 M 4082.6448 3007.0195 L 4084.6948 3007.0195 M 4086.6548 3004.1595 L 4086.6548 3008.4495 M 4086.6548 3004.1595 L 4088.4948 3004.1595 L 4089.1148 3004.3595 L 4089.3148 3004.5695 L 4089.5148 3004.9795 L 4089.5148 3005.5895 L 4089.3148 3005.9995 L 4089.1148 3006.1995 L 4088.4948 3006.4095 L 4086.6548 3006.4095 M 4092.5048 3004.1595 L 4090.8648 3008.4495 M 4092.5048 3004.1595 L 4094.1448 3008.4495 M 4091.4848 3007.0195 L 4093.5248 3007.0195 M 4098.5648 3005.1795 L 4098.3548 3004.7695 L 4097.9448 3004.3595 L 4097.5348 3004.1595 L 4096.7148 3004.1595 L 4096.3148 3004.3595 L 4095.9048 3004.7695 L 4095.6948 3005.1795 L 4095.4948 3005.7995 L 4095.4948 3006.8195 L 4095.6948 3007.4295 L 4095.9048 3007.8395 L 4096.3148 3008.2495 L 4096.7148 3008.4495 L 4097.5348 3008.4495 L 4097.9448 3008.2495 L 4098.3548 3007.8395 L 4098.5648 3007.4295 M 4099.9148 3004.1595 L 4099.9148 3008.4495 M 4102.6948 3004.1595 L 4102.6948 3008.4495 M 4101.2648 3004.1595 L 4104.1248 3004.1595 M 4105.4748 3004.1595 L 4105.4748 3008.4495 M 4106.8248 3004.1595 L 4108.4648 3008.4495 M 4110.0948 3004.1595 L 4108.4648 3008.4495 M 4111.4448 3004.1595 L 4111.4448 3008.4495 M 4111.4448 3004.1595 L 4114.1048 3004.1595 M 4111.4448 3006.1995 L 4113.0848 3006.1995 M 4111.4448 3008.4495 L 4114.1048 3008.4495 M 4115.4548 3009.8895 L 4119.1348 3009.8895 M 4120.4848 3004.1595 L 4120.4848 3008.4495 M 4120.4848 3004.1595 L 4122.3248 3004.1595 L 4122.9448 3004.3595 L 4123.1448 3004.5695 L 4123.3548 3004.9795 L 4123.3548 3005.5895 L 4123.1448 3005.9995 L 4122.9448 3006.1995 L 4122.3248 3006.4095 L 4120.4848 3006.4095 M 4126.3348 3004.1595 L 4124.7048 3008.4495 M 4126.3348 3004.1595 L 4127.9748 3008.4495 M 4125.3148 3007.0195 L 4127.3648 3007.0195 M 4129.3248 3004.1595 L 4129.3248 3008.4495 M 4129.3248 3004.1595 L 4130.7548 3004.1595 L 4131.3648 3004.3595 L 4131.7748 3004.7695 L 4131.9848 3005.1795 L 4132.1848 3005.7995 L 4132.1848 3006.8195 L 4131.9848 3007.4295 L 4131.7748 3007.8395 L 4131.3648 3008.2495 L 4130.7548 3008.4495 L 4129.3248 3008.4495" fill="none"  stroke-width="0.2" c_note="note_name" /></g><g c_partid="part_pcbtext" c_etype="" c_origin="4049.2685,3026.2795" c_rotation="0" c_mirror="0" id="gge121141" locked="0" layerid="3" c_shapetype="group" ><path c_fontsize="4.5" c_fontfamily="" c_text="KLOOP" d="M 4049.2693 3021.739 L 4049.2693 3026.029 M 4052.1293 3021.739 L 4049.2693 3024.599 M 4050.2893 3023.579 L 4052.1293 3026.029 M 4053.4793 3021.739 L 4053.4793 3026.029 M 4053.4793 3026.029 L 4055.9393 3026.029 M 4058.5193 3021.739 L 4058.1093 3021.939 L 4057.6993 3022.349 L 4057.4893 3022.759 L 4057.2893 3023.379 L 4057.2893 3024.399 L 4057.4893 3025.009 L 4057.6993 3025.419 L 4058.1093 3025.829 L 4058.5193 3026.029 L 4059.3293 3026.029 L 4059.7393 3025.829 L 4060.1493 3025.419 L 4060.3593 3025.009 L 4060.5593 3024.399 L 4060.5593 3023.379 L 4060.3593 3022.759 L 4060.1493 3022.349 L 4059.7393 3021.939 L 4059.3293 3021.739 L 4058.5193 3021.739 M 4063.1393 3021.739 L 4062.7293 3021.939 L 4062.3193 3022.349 L 4062.1193 3022.759 L 4061.9093 3023.379 L 4061.9093 3024.399 L 4062.1193 3025.009 L 4062.3193 3025.419 L 4062.7293 3025.829 L 4063.1393 3026.029 L 4063.9593 3026.029 L 4064.3693 3025.829 L 4064.7693 3025.419 L 4064.9793 3025.009 L 4065.1793 3024.399 L 4065.1793 3023.379 L 4064.9793 3022.759 L 4064.7693 3022.349 L 4064.3693 3021.939 L 4063.9593 3021.739 L 4063.1393 3021.739 M 4066.5293 3021.739 L 4066.5293 3026.029 M 4066.5293 3021.739 L 4068.3693 3021.739 L 4068.9893 3021.939 L 4069.1893 3022.149 L 4069.3993 3022.559 L 4069.3993 3023.169 L 4069.1893 3023.579 L 4068.9893 3023.779 L 4068.3693 3023.989 L 4066.5293 3023.989" fill="none"  stroke-width="0.2" c_note="note_pre" /></g><g c_partid="part_pcbtext" c_etype="" c_origin="4077.614,2929.959" c_rotation="0" c_mirror="0" id="gge121255" locked="0" layerid="3" c_shapetype="group" display="none"><path c_fontsize="4.5" c_fontfamily="" c_text="CAPACITIVE_PAD" d="M 4080.6848 2926.4393 L 4080.4748 2926.0293 L 4080.0648 2925.6193 L 4079.6648 2925.4193 L 4078.8448 2925.4193 L 4078.4348 2925.6193 L 4078.0248 2926.0293 L 4077.8148 2926.4393 L 4077.6148 2927.0593 L 4077.6148 2928.0793 L 4077.8148 2928.6893 L 4078.0248 2929.0993 L 4078.4348 2929.5093 L 4078.8448 2929.7093 L 4079.6648 2929.7093 L 4080.0648 2929.5093 L 4080.4748 2929.0993 L 4080.6848 2928.6893 M 4083.6648 2925.4193 L 4082.0348 2929.7093 M 4083.6648 2925.4193 L 4085.3048 2929.7093 M 4082.6448 2928.2793 L 4084.6948 2928.2793 M 4086.6548 2925.4193 L 4086.6548 2929.7093 M 4086.6548 2925.4193 L 4088.4948 2925.4193 L 4089.1148 2925.6193 L 4089.3148 2925.8293 L 4089.5148 2926.2393 L 4089.5148 2926.8493 L 4089.3148 2927.2593 L 4089.1148 2927.4593 L 4088.4948 2927.6693 L 4086.6548 2927.6693 M 4092.5048 2925.4193 L 4090.8648 2929.7093 M 4092.5048 2925.4193 L 4094.1448 2929.7093 M 4091.4848 2928.2793 L 4093.5248 2928.2793 M 4098.5648 2926.4393 L 4098.3548 2926.0293 L 4097.9448 2925.6193 L 4097.5348 2925.4193 L 4096.7148 2925.4193 L 4096.3148 2925.6193 L 4095.9048 2926.0293 L 4095.6948 2926.4393 L 4095.4948 2927.0593 L 4095.4948 2928.0793 L 4095.6948 2928.6893 L 4095.9048 2929.0993 L 4096.3148 2929.5093 L 4096.7148 2929.7093 L 4097.5348 2929.7093 L 4097.9448 2929.5093 L 4098.3548 2929.0993 L 4098.5648 2928.6893 M 4099.9148 2925.4193 L 4099.9148 2929.7093 M 4102.6948 2925.4193 L 4102.6948 2929.7093 M 4101.2648 2925.4193 L 4104.1248 2925.4193 M 4105.4748 2925.4193 L 4105.4748 2929.7093 M 4106.8248 2925.4193 L 4108.4648 2929.7093 M 4110.0948 2925.4193 L 4108.4648 2929.7093 M 4111.4448 2925.4193 L 4111.4448 2929.7093 M 4111.4448 2925.4193 L 4114.1048 2925.4193 M 4111.4448 2927.4593 L 4113.0848 2927.4593 M 4111.4448 2929.7093 L 4114.1048 2929.7093 M 4115.4548 2931.1493 L 4119.1348 2931.1493 M 4120.4848 2925.4193 L 4120.4848 2929.7093 M 4120.4848 2925.4193 L 4122.3248 2925.4193 L 4122.9448 2925.6193 L 4123.1448 2925.8293 L 4123.3548 2926.2393 L 4123.3548 2926.8493 L 4123.1448 2927.2593 L 4122.9448 2927.4593 L 4122.3248 2927.6693 L 4120.4848 2927.6693 M 4126.3348 2925.4193 L 4124.7048 2929.7093 M 4126.3348 2925.4193 L 4127.9748 2929.7093 M 4125.3148 2928.2793 L 4127.3648 2928.2793 M 4129.3248 2925.4193 L 4129.3248 2929.7093 M 4129.3248 2925.4193 L 4130.7548 2925.4193 L 4131.3648 2925.6193 L 4131.7748 2926.0293 L 4131.9848 2926.4393 L 4132.1848 2927.0593 L 4132.1848 2928.0793 L 4131.9848 2928.6893 L 4131.7748 2929.0993 L 4131.3648 2929.5093 L 4130.7548 2929.7093 L 4129.3248 2929.7093" fill="none"  stroke-width="0.2" c_note="note_name" /></g><g c_partid="part_pcbtext" c_etype="" c_origin="4085.0952,2945.9647" c_rotation="0" c_mirror="0" id="gge121257" locked="0" layerid="3" c_shapetype="group" ><path c_fontsize="4.5" c_fontfamily="" c_text="KVOL1" d="M 4085.096 2941.425 L 4085.096 2945.715 M 4087.956 2941.425 L 4085.096 2944.285 M 4086.116 2943.265 L 4087.956 2945.715 M 4089.306 2941.425 L 4090.946 2945.715 M 4092.586 2941.425 L 4090.946 2945.715 M 4095.156 2941.425 L 4094.746 2941.625 L 4094.346 2942.035 L 4094.136 2942.445 L 4093.936 2943.065 L 4093.936 2944.085 L 4094.136 2944.695 L 4094.346 2945.105 L 4094.746 2945.515 L 4095.156 2945.715 L 4095.976 2945.715 L 4096.386 2945.515 L 4096.796 2945.105 L 4096.996 2944.695 L 4097.206 2944.085 L 4097.206 2943.065 L 4096.996 2942.445 L 4096.796 2942.035 L 4096.386 2941.625 L 4095.976 2941.425 L 4095.156 2941.425 M 4098.556 2941.425 L 4098.556 2945.715 M 4098.556 2945.715 L 4101.006 2945.715 M 4102.356 2942.245 L 4102.766 2942.035 L 4103.386 2941.425 L 4103.386 2945.715" fill="none"  stroke-width="0.2" c_note="note_pre" /></g><g c_partid="part_pcbtext" c_etype="" c_origin="4129.584,3066.369" c_rotation="0" c_mirror="0" id="gge121039" locked="0" layerid="3" c_shapetype="group" display="none"><path c_fontsize="4.5" c_fontfamily="" c_text="CAPACITIVE_PAD" d="M 4132.6536 3062.8487 L 4132.4436 3062.4387 L 4132.0336 3062.0287 L 4131.6336 3061.8287 L 4130.8136 3061.8287 L 4130.4036 3062.0287 L 4129.9936 3062.4387 L 4129.7836 3062.8487 L 4129.5836 3063.4687 L 4129.5836 3064.4887 L 4129.7836 3065.0987 L 4129.9936 3065.5087 L 4130.4036 3065.9187 L 4130.8136 3066.1187 L 4131.6336 3066.1187 L 4132.0336 3065.9187 L 4132.4436 3065.5087 L 4132.6536 3065.0987 M 4135.6336 3061.8287 L 4134.0036 3066.1187 M 4135.6336 3061.8287 L 4137.2736 3066.1187 M 4134.6136 3064.6887 L 4136.6636 3064.6887 M 4138.6236 3061.8287 L 4138.6236 3066.1187 M 4138.6236 3061.8287 L 4140.4636 3061.8287 L 4141.0836 3062.0287 L 4141.2836 3062.2387 L 4141.4836 3062.6487 L 4141.4836 3063.2587 L 4141.2836 3063.6687 L 4141.0836 3063.8687 L 4140.4636 3064.0787 L 4138.6236 3064.0787 M 4144.4736 3061.8287 L 4142.8336 3066.1187 M 4144.4736 3061.8287 L 4146.1136 3066.1187 M 4143.4536 3064.6887 L 4145.4936 3064.6887 M 4150.5336 3062.8487 L 4150.3236 3062.4387 L 4149.9136 3062.0287 L 4149.5036 3061.8287 L 4148.6836 3061.8287 L 4148.2836 3062.0287 L 4147.8736 3062.4387 L 4147.6636 3062.8487 L 4147.4636 3063.4687 L 4147.4636 3064.4887 L 4147.6636 3065.0987 L 4147.8736 3065.5087 L 4148.2836 3065.9187 L 4148.6836 3066.1187 L 4149.5036 3066.1187 L 4149.9136 3065.9187 L 4150.3236 3065.5087 L 4150.5336 3065.0987 M 4151.8836 3061.8287 L 4151.8836 3066.1187 M 4154.6636 3061.8287 L 4154.6636 3066.1187 M 4153.2336 3061.8287 L 4156.0936 3061.8287 M 4157.4436 3061.8287 L 4157.4436 3066.1187 M 4158.7936 3061.8287 L 4160.4336 3066.1187 M 4162.0636 3061.8287 L 4160.4336 3066.1187 M 4163.4136 3061.8287 L 4163.4136 3066.1187 M 4163.4136 3061.8287 L 4166.0736 3061.8287 M 4163.4136 3063.8687 L 4165.0536 3063.8687 M 4163.4136 3066.1187 L 4166.0736 3066.1187 M 4167.4236 3067.5587 L 4171.1036 3067.5587 M 4172.4536 3061.8287 L 4172.4536 3066.1187 M 4172.4536 3061.8287 L 4174.2936 3061.8287 L 4174.9136 3062.0287 L 4175.1136 3062.2387 L 4175.3236 3062.6487 L 4175.3236 3063.2587 L 4175.1136 3063.6687 L 4174.9136 3063.8687 L 4174.2936 3064.0787 L 4172.4536 3064.0787 M 4178.3036 3061.8287 L 4176.6736 3066.1187 M 4178.3036 3061.8287 L 4179.9436 3066.1187 M 4177.2836 3064.6887 L 4179.3336 3064.6887 M 4181.2936 3061.8287 L 4181.2936 3066.1187 M 4181.2936 3061.8287 L 4182.7236 3061.8287 L 4183.3336 3062.0287 L 4183.7436 3062.4387 L 4183.9536 3062.8487 L 4184.1536 3063.4687 L 4184.1536 3064.4887 L 4183.9536 3065.0987 L 4183.7436 3065.5087 L 4183.3336 3065.9187 L 4182.7236 3066.1187 L 4181.2936 3066.1187" fill="none"  stroke-width="0.2" c_note="note_name" /></g><g c_partid="part_pcbtext" c_etype="" c_origin="4120.725,3096.14" c_rotation="0" c_mirror="0" id="gge121041" locked="0" layerid="3" c_shapetype="group" ><path c_fontsize="4.5" c_fontfamily="" c_text="K3RD" d="M 4120.7249 3091.6005 L 4120.7249 3095.8905 M 4123.5849 3091.6005 L 4120.7249 3094.4605 M 4121.7449 3093.4405 L 4123.5849 3095.8905 M 4125.3449 3091.6005 L 4127.5949 3091.6005 L 4126.3749 3093.2405 L 4126.9849 3093.2405 L 4127.3949 3093.4405 L 4127.5949 3093.6405 L 4127.8049 3094.2605 L 4127.8049 3094.6705 L 4127.5949 3095.2805 L 4127.1849 3095.6905 L 4126.5749 3095.8905 L 4125.9649 3095.8905 L 4125.3449 3095.6905 L 4125.1449 3095.4905 L 4124.9349 3095.0805 M 4129.1549 3091.6005 L 4129.1549 3095.8905 M 4129.1549 3091.6005 L 4130.9949 3091.6005 L 4131.6049 3091.8005 L 4131.8149 3092.0105 L 4132.0149 3092.4205 L 4132.0149 3092.8305 L 4131.8149 3093.2405 L 4131.6049 3093.4405 L 4130.9949 3093.6405 L 4129.1549 3093.6405 M 4130.5849 3093.6405 L 4132.0149 3095.8905 M 4133.3649 3091.6005 L 4133.3649 3095.8905 M 4133.3649 3091.6005 L 4134.7949 3091.6005 L 4135.4149 3091.8005 L 4135.8249 3092.2105 L 4136.0249 3092.6205 L 4136.2249 3093.2405 L 4136.2249 3094.2605 L 4136.0249 3094.8705 L 4135.8249 3095.2805 L 4135.4149 3095.6905 L 4134.7949 3095.8905 L 4133.3649 3095.8905" fill="none"  stroke-width="0.2" c_note="note_pre" /></g><g c_partid="part_pcbtext" c_etype="" c_origin="4176.827,3066.565" c_rotation="0" c_mirror="0" id="gge121050" locked="0" layerid="3" c_shapetype="group" display="none"><path c_fontsize="4.5" c_fontfamily="" c_text="CAPACITIVE_PAD" d="M 4179.8976 3063.0455 L 4179.6876 3062.6355 L 4179.2776 3062.2255 L 4178.8776 3062.0255 L 4178.0576 3062.0255 L 4177.6476 3062.2255 L 4177.2376 3062.6355 L 4177.0276 3063.0455 L 4176.8276 3063.6655 L 4176.8276 3064.6855 L 4177.0276 3065.2955 L 4177.2376 3065.7055 L 4177.6476 3066.1155 L 4178.0576 3066.3155 L 4178.8776 3066.3155 L 4179.2776 3066.1155 L 4179.6876 3065.7055 L 4179.8976 3065.2955 M 4182.8776 3062.0255 L 4181.2476 3066.3155 M 4182.8776 3062.0255 L 4184.5176 3066.3155 M 4181.8576 3064.8855 L 4183.9076 3064.8855 M 4185.8676 3062.0255 L 4185.8676 3066.3155 M 4185.8676 3062.0255 L 4187.7076 3062.0255 L 4188.3276 3062.2255 L 4188.5276 3062.4355 L 4188.7276 3062.8455 L 4188.7276 3063.4555 L 4188.5276 3063.8655 L 4188.3276 3064.0655 L 4187.7076 3064.2755 L 4185.8676 3064.2755 M 4191.7176 3062.0255 L 4190.0776 3066.3155 M 4191.7176 3062.0255 L 4193.3576 3066.3155 M 4190.6976 3064.8855 L 4192.7376 3064.8855 M 4197.7776 3063.0455 L 4197.5676 3062.6355 L 4197.1576 3062.2255 L 4196.7476 3062.0255 L 4195.9276 3062.0255 L 4195.5276 3062.2255 L 4195.1176 3062.6355 L 4194.9076 3063.0455 L 4194.7076 3063.6655 L 4194.7076 3064.6855 L 4194.9076 3065.2955 L 4195.1176 3065.7055 L 4195.5276 3066.1155 L 4195.9276 3066.3155 L 4196.7476 3066.3155 L 4197.1576 3066.1155 L 4197.5676 3065.7055 L 4197.7776 3065.2955 M 4199.1276 3062.0255 L 4199.1276 3066.3155 M 4201.9076 3062.0255 L 4201.9076 3066.3155 M 4200.4776 3062.0255 L 4203.3376 3062.0255 M 4204.6876 3062.0255 L 4204.6876 3066.3155 M 4206.0376 3062.0255 L 4207.6776 3066.3155 M 4209.3076 3062.0255 L 4207.6776 3066.3155 M 4210.6576 3062.0255 L 4210.6576 3066.3155 M 4210.6576 3062.0255 L 4213.3176 3062.0255 M 4210.6576 3064.0655 L 4212.2976 3064.0655 M 4210.6576 3066.3155 L 4213.3176 3066.3155 M 4214.6676 3067.7555 L 4218.3476 3067.7555 M 4219.6976 3062.0255 L 4219.6976 3066.3155 M 4219.6976 3062.0255 L 4221.5376 3062.0255 L 4222.1576 3062.2255 L 4222.3576 3062.4355 L 4222.5676 3062.8455 L 4222.5676 3063.4555 L 4222.3576 3063.8655 L 4222.1576 3064.0655 L 4221.5376 3064.2755 L 4219.6976 3064.2755 M 4225.5476 3062.0255 L 4223.9176 3066.3155 M 4225.5476 3062.0255 L 4227.1876 3066.3155 M 4224.5276 3064.8855 L 4226.5776 3064.8855 M 4228.5376 3062.0255 L 4228.5376 3066.3155 M 4228.5376 3062.0255 L 4229.9676 3062.0255 L 4230.5776 3062.2255 L 4230.9876 3062.6355 L 4231.1976 3063.0455 L 4231.3976 3063.6655 L 4231.3976 3064.6855 L 4231.1976 3065.2955 L 4230.9876 3065.7055 L 4230.5776 3066.1155 L 4229.9676 3066.3155 L 4228.5376 3066.3155" fill="none"  stroke-width="0.2" c_note="note_name" /></g><g c_partid="part_pcbtext" c_etype="" c_origin="4167.969,3096.14" c_rotation="0" c_mirror="0" id="gge121052" locked="0" layerid="3" c_shapetype="group" ><path c_fontsize="4.5" c_fontfamily="" c_text="K5TH" d="M 4167.9697 3091.601 L 4167.9697 3095.891 M 4170.8297 3091.601 L 4167.9697 3094.461 M 4168.9897 3093.441 L 4170.8297 3095.891 M 4174.6397 3091.601 L 4172.5897 3091.601 L 4172.3897 3093.441 L 4172.5897 3093.241 L 4173.2097 3093.031 L 4173.8197 3093.031 L 4174.4297 3093.241 L 4174.8397 3093.641 L 4175.0497 3094.261 L 4175.0497 3094.671 L 4174.8397 3095.281 L 4174.4297 3095.691 L 4173.8197 3095.891 L 4173.2097 3095.891 L 4172.5897 3095.691 L 4172.3897 3095.491 L 4172.1797 3095.081 M 4177.8297 3091.601 L 4177.8297 3095.891 M 4176.3997 3091.601 L 4179.2597 3091.601 M 4180.6097 3091.601 L 4180.6097 3095.891 M 4183.4697 3091.601 L 4183.4697 3095.891 M 4180.6097 3093.641 L 4183.4697 3093.641" fill="none"  stroke-width="0.2" c_note="note_pre" /></g><g c_partid="part_pcbtext" c_etype="" c_origin="4224.268,3066.565" c_rotation="0" c_mirror="0" id="gge121061" locked="0" layerid="3" c_shapetype="group" display="none"><path c_fontsize="4.5" c_fontfamily="" c_text="CAPACITIVE_PAD" d="M 4227.3385 3063.0455 L 4227.1285 3062.6355 L 4226.7185 3062.2255 L 4226.3185 3062.0255 L 4225.4985 3062.0255 L 4225.0885 3062.2255 L 4224.6785 3062.6355 L 4224.4685 3063.0455 L 4224.2685 3063.6655 L 4224.2685 3064.6855 L 4224.4685 3065.2955 L 4224.6785 3065.7055 L 4225.0885 3066.1155 L 4225.4985 3066.3155 L 4226.3185 3066.3155 L 4226.7185 3066.1155 L 4227.1285 3065.7055 L 4227.3385 3065.2955 M 4230.3185 3062.0255 L 4228.6885 3066.3155 M 4230.3185 3062.0255 L 4231.9585 3066.3155 M 4229.2985 3064.8855 L 4231.3485 3064.8855 M 4233.3085 3062.0255 L 4233.3085 3066.3155 M 4233.3085 3062.0255 L 4235.1485 3062.0255 L 4235.7685 3062.2255 L 4235.9685 3062.4355 L 4236.1685 3062.8455 L 4236.1685 3063.4555 L 4235.9685 3063.8655 L 4235.7685 3064.0655 L 4235.1485 3064.2755 L 4233.3085 3064.2755 M 4239.1585 3062.0255 L 4237.5185 3066.3155 M 4239.1585 3062.0255 L 4240.7985 3066.3155 M 4238.1385 3064.8855 L 4240.1785 3064.8855 M 4245.2185 3063.0455 L 4245.0085 3062.6355 L 4244.5985 3062.2255 L 4244.1885 3062.0255 L 4243.3685 3062.0255 L 4242.9685 3062.2255 L 4242.5585 3062.6355 L 4242.3485 3063.0455 L 4242.1485 3063.6655 L 4242.1485 3064.6855 L 4242.3485 3065.2955 L 4242.5585 3065.7055 L 4242.9685 3066.1155 L 4243.3685 3066.3155 L 4244.1885 3066.3155 L 4244.5985 3066.1155 L 4245.0085 3065.7055 L 4245.2185 3065.2955 M 4246.5685 3062.0255 L 4246.5685 3066.3155 M 4249.3485 3062.0255 L 4249.3485 3066.3155 M 4247.9185 3062.0255 L 4250.7785 3062.0255 M 4252.1285 3062.0255 L 4252.1285 3066.3155 M 4253.4785 3062.0255 L 4255.1185 3066.3155 M 4256.7485 3062.0255 L 4255.1185 3066.3155 M 4258.0985 3062.0255 L 4258.0985 3066.3155 M 4258.0985 3062.0255 L 4260.7585 3062.0255 M 4258.0985 3064.0655 L 4259.7385 3064.0655 M 4258.0985 3066.3155 L 4260.7585 3066.3155 M 4262.1085 3067.7555 L 4265.7885 3067.7555 M 4267.1385 3062.0255 L 4267.1385 3066.3155 M 4267.1385 3062.0255 L 4268.9785 3062.0255 L 4269.5985 3062.2255 L 4269.7985 3062.4355 L 4270.0085 3062.8455 L 4270.0085 3063.4555 L 4269.7985 3063.8655 L 4269.5985 3064.0655 L 4268.9785 3064.2755 L 4267.1385 3064.2755 M 4272.9885 3062.0255 L 4271.3585 3066.3155 M 4272.9885 3062.0255 L 4274.6285 3066.3155 M 4271.9685 3064.8855 L 4274.0185 3064.8855 M 4275.9785 3062.0255 L 4275.9785 3066.3155 M 4275.9785 3062.0255 L 4277.4085 3062.0255 L 4278.0185 3062.2255 L 4278.4285 3062.6355 L 4278.6385 3063.0455 L 4278.8385 3063.6655 L 4278.8385 3064.6855 L 4278.6385 3065.2955 L 4278.4285 3065.7055 L 4278.0185 3066.1155 L 4277.4085 3066.3155 L 4275.9785 3066.3155" fill="none"  stroke-width="0.2" c_note="note_name" /></g><g c_partid="part_pcbtext" c_etype="" c_origin="4215.41,3096.534" c_rotation="0" c_mirror="0" id="gge121063" locked="0" layerid="3" c_shapetype="group" ><path c_fontsize="4.5" c_fontfamily="" c_text="K7TH" d="M 4215.4104 3091.9947 L 4215.4104 3096.2847 M 4218.2704 3091.9947 L 4215.4104 3094.8547 M 4216.4304 3093.8347 L 4218.2704 3096.2847 M 4222.4904 3091.9947 L 4220.4404 3096.2847 M 4219.6204 3091.9947 L 4222.4904 3091.9947 M 4225.2704 3091.9947 L 4225.2704 3096.2847 M 4223.8404 3091.9947 L 4226.7004 3091.9947 M 4228.0504 3091.9947 L 4228.0504 3096.2847 M 4230.9104 3091.9947 L 4230.9104 3096.2847 M 4228.0504 3094.0347 L 4230.9104 3094.0347" fill="none"  stroke-width="0.2" c_note="note_pre" /></g><g c_partid="part_pcbtext" c_etype="" c_origin="4469.347,2997.668" c_rotation="0" c_mirror="0" id="gge121156" locked="0" layerid="3" c_shapetype="group" display="none"><path c_fontsize="4.5" c_fontfamily="" c_text="CAPACITIVE_PAD" d="M 4472.4171 2994.148 L 4472.2071 2993.738 L 4471.7971 2993.328 L 4471.3971 2993.128 L 4470.5771 2993.128 L 4470.1671 2993.328 L 4469.7571 2993.738 L 4469.5471 2994.148 L 4469.3471 2994.768 L 4469.3471 2995.788 L 4469.5471 2996.398 L 4469.7571 2996.808 L 4470.1671 2997.218 L 4470.5771 2997.418 L 4471.3971 2997.418 L 4471.7971 2997.218 L 4472.2071 2996.808 L 4472.4171 2996.398 M 4475.3971 2993.128 L 4473.7671 2997.418 M 4475.3971 2993.128 L 4477.0371 2997.418 M 4474.3771 2995.988 L 4476.4271 2995.988 M 4478.3871 2993.128 L 4478.3871 2997.418 M 4478.3871 2993.128 L 4480.2271 2993.128 L 4480.8471 2993.328 L 4481.0471 2993.538 L 4481.2471 2993.948 L 4481.2471 2994.558 L 4481.0471 2994.968 L 4480.8471 2995.168 L 4480.2271 2995.378 L 4478.3871 2995.378 M 4484.2371 2993.128 L 4482.5971 2997.418 M 4484.2371 2993.128 L 4485.8771 2997.418 M 4483.2171 2995.988 L 4485.2571 2995.988 M 4490.2971 2994.148 L 4490.0871 2993.738 L 4489.6771 2993.328 L 4489.2671 2993.128 L 4488.4471 2993.128 L 4488.0471 2993.328 L 4487.6371 2993.738 L 4487.4271 2994.148 L 4487.2271 2994.768 L 4487.2271 2995.788 L 4487.4271 2996.398 L 4487.6371 2996.808 L 4488.0471 2997.218 L 4488.4471 2997.418 L 4489.2671 2997.418 L 4489.6771 2997.218 L 4490.0871 2996.808 L 4490.2971 2996.398 M 4491.6471 2993.128 L 4491.6471 2997.418 M 4494.4271 2993.128 L 4494.4271 2997.418 M 4492.9971 2993.128 L 4495.8571 2993.128 M 4497.2071 2993.128 L 4497.2071 2997.418 M 4498.5571 2993.128 L 4500.1971 2997.418 M 4501.8271 2993.128 L 4500.1971 2997.418 M 4503.1771 2993.128 L 4503.1771 2997.418 M 4503.1771 2993.128 L 4505.8371 2993.128 M 4503.1771 2995.168 L 4504.8171 2995.168 M 4503.1771 2997.418 L 4505.8371 2997.418 M 4507.1871 2998.858 L 4510.8671 2998.858 M 4512.2171 2993.128 L 4512.2171 2997.418 M 4512.2171 2993.128 L 4514.0571 2993.128 L 4514.6771 2993.328 L 4514.8771 2993.538 L 4515.0871 2993.948 L 4515.0871 2994.558 L 4514.8771 2994.968 L 4514.6771 2995.168 L 4514.0571 2995.378 L 4512.2171 2995.378 M 4518.0671 2993.128 L 4516.4371 2997.418 M 4518.0671 2993.128 L 4519.7071 2997.418 M 4517.0471 2995.988 L 4519.0971 2995.988 M 4521.0571 2993.128 L 4521.0571 2997.418 M 4521.0571 2993.128 L 4522.4871 2993.128 L 4523.0971 2993.328 L 4523.5071 2993.738 L 4523.7171 2994.148 L 4523.9171 2994.768 L 4523.9171 2995.788 L 4523.7171 2996.398 L 4523.5071 2996.808 L 4523.0971 2997.218 L 4522.4871 2997.418 L 4521.0571 2997.418" fill="none"  stroke-width="0.2" c_note="note_name" /></g><g c_partid="part_pcbtext" c_etype="" c_origin="4463.442,3053.227" c_rotation="0" c_mirror="0" id="gge121158" locked="0" layerid="3" c_shapetype="group" ><path c_fontsize="4.5" c_fontfamily="" c_text="KMI" d="M 4463.4417 3048.6871 L 4463.4417 3052.9771 M 4466.3017 3048.6871 L 4463.4417 3051.5471 M 4464.4617 3050.5271 L 4466.3017 3052.9771 M 4467.6517 3048.6871 L 4467.6517 3052.9771 M 4467.6517 3048.6871 L 4469.2917 3052.9771 M 4470.9317 3048.6871 L 4469.2917 3052.9771 M 4470.9317 3048.6871 L 4470.9317 3052.9771 M 4472.2817 3048.6871 L 4472.2817 3052.9771" fill="none"  stroke-width="0.2" c_note="note_pre" /></g><g c_partid="part_pcbtext" c_etype="" c_origin="4191.788,3170.644" c_rotation="0" c_mirror="0" id="gge123853" locked="0" layerid="3" c_shapetype="group" display="none"><path c_fontsize="4.5" c_fontfamily="" c_text="Strumming_comb" d="M 4194.6481 3166.7144 L 4194.2381 3166.3044 L 4193.6281 3166.1044 L 4192.8081 3166.1044 L 4192.1981 3166.3044 L 4191.7881 3166.7144 L 4191.7881 3167.1244 L 4191.9881 3167.5344 L 4192.1981 3167.7444 L 4192.6081 3167.9444 L 4193.8381 3168.3544 L 4194.2381 3168.5544 L 4194.4481 3168.7644 L 4194.6481 3169.1744 L 4194.6481 3169.7844 L 4194.2381 3170.1944 L 4193.6281 3170.3944 L 4192.8081 3170.3944 L 4192.1981 3170.1944 L 4191.7881 3169.7844 M 4196.6181 3166.1044 L 4196.6181 3169.5844 L 4196.8181 3170.1944 L 4197.2281 3170.3944 L 4197.6381 3170.3944 M 4195.9981 3167.5344 L 4197.4381 3167.5344 M 4198.9881 3167.5344 L 4198.9881 3170.3944 M 4198.9881 3168.7644 L 4199.1881 3168.1444 L 4199.5981 3167.7444 L 4200.0081 3167.5344 L 4200.6281 3167.5344 M 4201.9781 3167.5344 L 4201.9781 3169.5844 L 4202.1781 3170.1944 L 4202.5881 3170.3944 L 4203.1981 3170.3944 L 4203.6081 3170.1944 L 4204.2281 3169.5844 M 4204.2281 3167.5344 L 4204.2281 3170.3944 M 4205.5781 3167.5344 L 4205.5781 3170.3944 M 4205.5781 3168.3544 L 4206.1881 3167.7444 L 4206.5981 3167.5344 L 4207.2081 3167.5344 L 4207.6181 3167.7444 L 4207.8281 3168.3544 L 4207.8281 3170.3944 M 4207.8281 3168.3544 L 4208.4381 3167.7444 L 4208.8481 3167.5344 L 4209.4581 3167.5344 L 4209.8681 3167.7444 L 4210.0781 3168.3544 L 4210.0781 3170.3944 M 4211.4281 3167.5344 L 4211.4281 3170.3944 M 4211.4281 3168.3544 L 4212.0381 3167.7444 L 4212.4481 3167.5344 L 4213.0581 3167.5344 L 4213.4681 3167.7444 L 4213.6781 3168.3544 L 4213.6781 3170.3944 M 4213.6781 3168.3544 L 4214.2881 3167.7444 L 4214.6981 3167.5344 L 4215.3081 3167.5344 L 4215.7181 3167.7444 L 4215.9281 3168.3544 L 4215.9281 3170.3944 M 4217.2781 3166.1044 L 4217.4781 3166.3044 L 4217.6881 3166.1044 L 4217.4781 3165.8944 L 4217.2781 3166.1044 M 4217.4781 3167.5344 L 4217.4781 3170.3944 M 4219.0381 3167.5344 L 4219.0381 3170.3944 M 4219.0381 3168.3544 L 4219.6481 3167.7444 L 4220.0581 3167.5344 L 4220.6681 3167.5344 L 4221.0781 3167.7444 L 4221.2881 3168.3544 L 4221.2881 3170.3944 M 4225.0881 3167.5344 L 4225.0881 3170.8044 L 4224.8881 3171.4244 L 4224.6781 3171.6244 L 4224.2681 3171.8344 L 4223.6581 3171.8344 L 4223.2481 3171.6244 M 4225.0881 3168.1444 L 4224.6781 3167.7444 L 4224.2681 3167.5344 L 4223.6581 3167.5344 L 4223.2481 3167.7444 L 4222.8381 3168.1444 L 4222.6381 3168.7644 L 4222.6381 3169.1744 L 4222.8381 3169.7844 L 4223.2481 3170.1944 L 4223.6581 3170.3944 L 4224.2681 3170.3944 L 4224.6781 3170.1944 L 4225.0881 3169.7844 M 4226.4381 3171.8344 L 4230.1181 3171.8344 M 4233.9281 3168.1444 L 4233.5181 3167.7444 L 4233.1081 3167.5344 L 4232.4881 3167.5344 L 4232.0881 3167.7444 L 4231.6781 3168.1444 L 4231.4681 3168.7644 L 4231.4681 3169.1744 L 4231.6781 3169.7844 L 4232.0881 3170.1944 L 4232.4881 3170.3944 L 4233.1081 3170.3944 L 4233.5181 3170.1944 L 4233.9281 3169.7844 M 4236.2981 3167.5344 L 4235.8881 3167.7444 L 4235.4781 3168.1444 L 4235.2781 3168.7644 L 4235.2781 3169.1744 L 4235.4781 3169.7844 L 4235.8881 3170.1944 L 4236.2981 3170.3944 L 4236.9081 3170.3944 L 4237.3181 3170.1944 L 4237.7281 3169.7844 L 4237.9381 3169.1744 L 4237.9381 3168.7644 L 4237.7281 3168.1444 L 4237.3181 3167.7444 L 4236.9081 3167.5344 L 4236.2981 3167.5344 M 4239.2881 3167.5344 L 4239.2881 3170.3944 M 4239.2881 3168.3544 L 4239.8981 3167.7444 L 4240.3081 3167.5344 L 4240.9181 3167.5344 L 4241.3281 3167.7444 L 4241.5381 3168.3544 L 4241.5381 3170.3944 M 4241.5381 3168.3544 L 4242.1481 3167.7444 L 4242.5581 3167.5344 L 4243.1681 3167.5344 L 4243.5781 3167.7444 L 4243.7881 3168.3544 L 4243.7881 3170.3944 M 4245.1381 3166.1044 L 4245.1381 3170.3944 M 4245.1381 3168.1444 L 4245.5381 3167.7444 L 4245.9481 3167.5344 L 4246.5681 3167.5344 L 4246.9781 3167.7444 L 4247.3881 3168.1444 L 4247.5881 3168.7644 L 4247.5881 3169.1744 L 4247.3881 3169.7844 L 4246.9781 3170.1944 L 4246.5681 3170.3944 L 4245.9481 3170.3944 L 4245.5381 3170.1944 L 4245.1381 3169.7844" fill="none"  stroke-width="0.2" c_note="note_name" /></g><g c_partid="part_pcbtext" c_etype="" c_origin="4191.788,3177.644" c_rotation="0" c_mirror="0" id="gge123855" locked="0" layerid="3" c_shapetype="group" ><path c_fontsize="4.5" c_fontfamily="" c_text="U5" d="M 4191.7881 3173.1044 L 4191.7881 3176.1744 L 4191.9881 3176.7844 L 4192.3981 3177.1944 L 4193.0181 3177.3944 L 4193.4281 3177.3944 L 4194.0381 3177.1944 L 4194.4481 3176.7844 L 4194.6481 3176.1744 L 4194.6481 3173.1044 M 4198.4581 3173.1044 L 4196.4081 3173.1044 L 4196.2081 3174.9444 L 4196.4081 3174.7444 L 4197.0281 3174.5344 L 4197.6381 3174.5344 L 4198.2481 3174.7444 L 4198.6581 3175.1444 L 4198.8681 3175.7644 L 4198.8681 3176.1744 L 4198.6581 3176.7844 L 4198.2481 3177.1944 L 4197.6381 3177.3944 L 4197.0281 3177.3944 L 4196.4081 3177.1944 L 4196.2081 3176.9944 L 4195.9981 3176.5844" fill="none"  stroke-width="0.2" c_note="note_pre" /></g><path d="M 4265.6068 3230.3924 A 25.5906 25.5906 0 0 0 4265.6068 3179.2113" locked="0"  fill="none" stroke-width="0.2" c_helper_type="arc2" net="" layerid="3" id="gge123869" /><path d="M 4119.9378 3179.2113 A 25.5906 25.5906 0 0 0 4119.9378 3230.3924" locked="0"  fill="none" stroke-width="0.2" c_helper_type="arc2" net="" layerid="3" id="gge123870" /><circle cx="4077.615" cy="3063.07" r="6.299" stroke-width="0.2" fill="none" layerid="3" id="gge35" locked="0"  /><circle cx="4077.614" cy="2984.329" r="6.299" stroke-width="0.2" fill="none" layerid="3" id="gge129248" locked="0"  /><circle cx="4077.614" cy="3023.7" r="6.299" stroke-width="0.2" fill="none" layerid="3" id="gge129259" locked="0"  /><circle cx="4077.614" cy="2944.959" r="6.299" stroke-width="0.2" fill="none" layerid="3" id="gge129270" locked="0"  /><polyline points="4487.0637 3236.2979 4576.5234 3146.8382 4576.5234 2937.5589" stroke-width="0.2"  stroke-linecap="round" fill="none" layerid="10" net="GND" id="gge147510" locked="0" /><polyline points="4566.7871 2927.4395 4576.5234 2937.1758 4576.5234 2943.1875" stroke-width="0.2"  stroke-linecap="round" fill="none" layerid="10" net="S$18209" id="gge146810" locked="0" /><polyline points="4194.6338 2927.4395 4566.7871 2927.4395" stroke-width="0.2"  stroke-linecap="round" fill="none" layerid="10" net="S$18209" id="gge146606" locked="0" /><polyline points="4119.49 2927.55 4020.22 2927.55 4001.72 2946.05 4001.72 2968.78" stroke-width="0.2"  stroke-linecap="round" fill="none" layerid="10" net="S$133904" id="gge133903" locked="0" /><polyline points="4576.5236 3049.4866 4576.5236 2943.1874" stroke-width="0.2"  stroke-linecap="round" fill="none" layerid="10" net="S$18211" id="gge18210" locked="0" /><polyline points="4143.4527 2931.3764 4194.6338 2931.3764 4194.6338 2927.4395" stroke-width="0.2"  stroke-linecap="round" fill="none" layerid="10" net="S$18198" id="gge18197" locked="0" /><polyline points="4143.6151 2931.3764 4139.5157 2931.3764" stroke-width="0.2"  stroke-linecap="round" fill="none" layerid="10" net="S$18200" id="gge18199" locked="0" /><polyline points="4119.4935 2927.5481 4139.5157 2927.4394 4139.5157 2931.3764" stroke-width="0.2"  stroke-linecap="round" fill="none" layerid="10" net="S$18205" id="gge18204" locked="0" /><polyline points="4001.7204 3134.2252 4001.7204 3137.6514 4100.3669 3236.2979" stroke-width="0.2"  stroke-linecap="round" fill="none" layerid="10" net="S$148969" id="gge148968" locked="0" /><polyline points="4100.3669 3236.2979 4487.3532 3236.2979" stroke-width="0.2"  stroke-linecap="round" fill="none" layerid="10" net="S$148971" id="gge148970" locked="0" /><polyline points="4001.7204 3134.2252 4001.7204 2968.78" stroke-width="0.2"  stroke-linecap="round" fill="none" layerid="10" net="S$148973" id="gge148972" locked="0" /><path d="M 4109.1109 2962.6751 A 11.811 11.811 0 1 1 4085.4889 2962.6751" locked="0"  fill="none" stroke-width="0.2" c_helper_type="arc2" net="" layerid="10" id="gge139671" /><path d="M 4085.4889 2962.6751 A 11.811 11.811 0 1 1 4109.1109 2962.6751" locked="0"  fill="none" stroke-width="0.2" c_helper_type="arc2" net="" layerid="10" id="gge139672" /><path d="M 4107.0329 3153.6989 A 11.811 11.811 0 1 1 4130.6549 3153.6989" locked="0"  fill="none" stroke-width="0.2" c_helper_type="arc2" net="" layerid="10" id="gge139706" /><path d="M 4130.6549 3153.6989 A 11.811 11.811 0 1 1 4107.0329 3153.6989" locked="0"  fill="none" stroke-width="0.2" c_helper_type="arc2" net="" layerid="10" id="gge139707" /><path d="M 4417.0322 3006.6988 A 11.811 11.811 0 1 1 4440.6542 3006.6988" locked="0"  fill="none" stroke-width="0.2" c_helper_type="arc2" net="" layerid="10" id="gge148458" /><path d="M 4440.6542 3006.6988 A 11.811 11.811 0 1 1 4417.0322 3006.6988" locked="0"  fill="none" stroke-width="0.2" c_helper_type="arc2" net="" layerid="10" id="gge148459" /><path d="M 4488.0322 3178.6988 A 11.811 11.811 0 1 1 4511.6542 3178.6988" locked="0"  fill="none" stroke-width="0.2" c_helper_type="arc2" net="" layerid="10" id="gge148464" /><path d="M 4511.6542 3178.6988 A 11.811 11.811 0 1 1 4488.0322 3178.6988" locked="0"  fill="none" stroke-width="0.2" c_helper_type="arc2" net="" layerid="10" id="gge148465" /><path d="M 4340.0322 3137.6987 A 11.811 11.811 0 1 1 4363.6542 3137.6987" locked="0"  fill="none" stroke-width="0.2" c_helper_type="arc2" net="" layerid="10" id="gge148470" /><path d="M 4363.6542 3137.6987 A 11.811 11.811 0 1 1 4340.0322 3137.6987" locked="0"  fill="none" stroke-width="0.2" c_helper_type="arc2" net="" layerid="10" id="gge148471" /><circle cx="4265.213" cy="2975.274" r="4.331" stroke-width="0.2" fill="none" layerid="10" id="gge148722" locked="0"  /><circle cx="4068.67" cy="3010.988" r="4.331" stroke-width="0.2" fill="none" layerid="10" id="gge148752" locked="0"  /><circle cx="4290.843" cy="3045.7" r="4.331" stroke-width="0.2" fill="none" layerid="10" id="gge148942" locked="0"  /><circle cx="4242.9689" cy="3055.2164" r="4.331" stroke-width="0.2" fill="none" layerid="10" id="gge148951" locked="0"  /><circle cx="4147.843" cy="3055.7" r="4.331" stroke-width="0.2" fill="none" layerid="10" id="gge148960" locked="0"  /></svg>