G04 Layer: TopPasteMaskLayer*
G04 EasyEDA v6.3.30, 2020-03-21T18:53:40+08:00*
G04 c5f63f6c624d440bb2292f988f7b391a,d4aa0ff59f9544bb86dfcbd96f28fb4a,05*
G04 Gerber Generator version 0.2*
G04 Scale: 100 percent, Rotated: No, Reflected: No *
G04 Dimensions in millimeters *
G04 leading zeros omitted , absolute positions ,3 integer and 3 decimal *
%FSLAX33Y33*%
%MOMM*%
G90*
G71D02*

%ADD17C,0.999998*%
%ADD18R,1.168400X1.600200*%
%ADD19R,0.635000X0.254000*%
%ADD63C,0.000000*%

%LPD*%
G54D63*
G01X15885Y45599D02*
G01X16469Y45599D01*
G01X14399Y43935D02*
G01X14399Y43351D01*
G01X15663Y33999D02*
G01X16248Y33999D01*
G01X14177Y32336D02*
G01X14177Y31752D01*
G01X15885Y65599D02*
G01X16469Y65599D01*
G01X14399Y63935D02*
G01X14399Y63351D01*
G01X15885Y55599D02*
G01X16469Y55599D01*
G01X14399Y53935D02*
G01X14399Y53351D01*
G36*
G01X26778Y12514D02*
G01X37764Y11947D01*
G01X37759Y11847D01*
G01X28400Y10920D01*
G01X37617Y9051D01*
G01X37607Y8851D01*
G01X28248Y7924D01*
G01X37465Y6055D01*
G01X37455Y5855D01*
G01X28096Y4927D01*
G01X26398Y5013D01*
G01X26778Y12514D01*
G37*
G36*
G01X40430Y4293D02*
G01X29444Y4859D01*
G01X29449Y4959D01*
G01X38808Y5887D01*
G01X29591Y7755D01*
G01X29601Y7955D01*
G01X38960Y8883D01*
G01X29743Y10752D01*
G01X29753Y10951D01*
G01X39112Y11879D01*
G01X40810Y11793D01*
G01X40430Y4293D01*
G37*
G36*
G01X40261Y11831D02*
G01X51246Y11264D01*
G01X51241Y11164D01*
G01X41882Y10237D01*
G01X51100Y8368D01*
G01X51090Y8168D01*
G01X41731Y7241D01*
G01X50948Y5372D01*
G01X50938Y5172D01*
G01X41579Y4244D01*
G01X39881Y4330D01*
G01X40261Y11831D01*
G37*
G36*
G01X52695Y11201D02*
G01X63680Y10634D01*
G01X63675Y10535D01*
G01X54316Y9607D01*
G01X63534Y7738D01*
G01X63524Y7538D01*
G01X54165Y6611D01*
G01X63382Y4742D01*
G01X63372Y4542D01*
G01X54013Y3614D01*
G01X52315Y3701D01*
G01X52695Y11201D01*
G37*
G36*
G01X53813Y3615D02*
G01X42827Y4181D01*
G01X42832Y4281D01*
G01X52191Y5209D01*
G01X42974Y7077D01*
G01X42984Y7277D01*
G01X52343Y8205D01*
G01X43126Y10074D01*
G01X43136Y10273D01*
G01X52495Y11201D01*
G01X54193Y11115D01*
G01X53813Y3615D01*
G37*
G36*
G01X66347Y2980D02*
G01X55361Y3546D01*
G01X55366Y3646D01*
G01X64725Y4574D01*
G01X55508Y6442D01*
G01X55518Y6642D01*
G01X64877Y7570D01*
G01X55660Y9439D01*
G01X55670Y9638D01*
G01X65029Y10566D01*
G01X66726Y10480D01*
G01X66347Y2980D01*
G37*
G36*
G01X82280Y9514D02*
G01X93265Y8948D01*
G01X93260Y8848D01*
G01X83901Y7920D01*
G01X93118Y6051D01*
G01X93108Y5852D01*
G01X83749Y4924D01*
G01X92967Y3055D01*
G01X92957Y2855D01*
G01X83598Y1928D01*
G01X81900Y2014D01*
G01X82280Y9514D01*
G37*
G36*
G01X95931Y1293D02*
G01X84946Y1859D01*
G01X84951Y1959D01*
G01X94310Y2887D01*
G01X85093Y4756D01*
G01X85103Y4955D01*
G01X94462Y5883D01*
G01X85244Y7752D01*
G01X85255Y7952D01*
G01X94614Y8879D01*
G01X96311Y8793D01*
G01X95931Y1293D01*
G37*
G36*
G01X95763Y8831D02*
G01X106748Y8265D01*
G01X106743Y8165D01*
G01X97384Y7237D01*
G01X106601Y5368D01*
G01X106591Y5169D01*
G01X97232Y4241D01*
G01X106449Y2372D01*
G01X106439Y2172D01*
G01X97080Y1245D01*
G01X95383Y1331D01*
G01X95763Y8831D01*
G37*
G36*
G01X108197Y8201D02*
G01X119182Y7635D01*
G01X119177Y7535D01*
G01X109818Y6607D01*
G01X119035Y4738D01*
G01X119025Y4539D01*
G01X109666Y3611D01*
G01X118883Y1742D01*
G01X118873Y1542D01*
G01X109514Y615D01*
G01X107817Y701D01*
G01X108197Y8201D01*
G37*
G36*
G01X109314Y615D02*
G01X98329Y1181D01*
G01X98334Y1281D01*
G01X107693Y2209D01*
G01X98476Y4078D01*
G01X98486Y4277D01*
G01X107845Y5205D01*
G01X98627Y7074D01*
G01X98637Y7274D01*
G01X107996Y8201D01*
G01X109694Y8115D01*
G01X109314Y615D01*
G37*
G36*
G01X121848Y-19D02*
G01X110863Y546D01*
G01X110868Y646D01*
G01X120227Y1574D01*
G01X111009Y3443D01*
G01X111019Y3642D01*
G01X120378Y4570D01*
G01X111161Y6439D01*
G01X111171Y6639D01*
G01X120530Y7566D01*
G01X122228Y7480D01*
G01X121848Y-19D01*
G37*
G36*
G01X7610Y66900D02*
G01X7610Y52900D01*
G01X7500Y52900D01*
G01X6100Y65400D01*
G01X4700Y52900D01*
G01X4500Y52900D01*
G01X3100Y65400D01*
G01X1700Y52900D01*
G01X1500Y52900D01*
G01X100Y65400D01*
G01X100Y66900D01*
G01X7610Y66900D01*
G37*
G36*
G01X90Y49650D02*
G01X90Y63650D01*
G01X200Y63650D01*
G01X1600Y51150D01*
G01X3000Y63650D01*
G01X3200Y63650D01*
G01X4600Y51150D01*
G01X6000Y63650D01*
G01X6200Y63650D01*
G01X7600Y51150D01*
G01X7600Y49650D01*
G01X90Y49650D01*
G37*
G36*
G01X7610Y51200D02*
G01X7610Y37200D01*
G01X7500Y37200D01*
G01X6100Y49700D01*
G01X4700Y37200D01*
G01X4500Y37200D01*
G01X3100Y49700D01*
G01X1700Y37200D01*
G01X1500Y37200D01*
G01X100Y49700D01*
G01X100Y51200D01*
G01X7610Y51200D01*
G37*
G36*
G01X7610Y34150D02*
G01X7610Y20150D01*
G01X7500Y20150D01*
G01X6100Y32649D01*
G01X4700Y20150D01*
G01X4500Y20150D01*
G01X3100Y32649D01*
G01X1700Y20150D01*
G01X1500Y20150D01*
G01X100Y32649D01*
G01X100Y34150D01*
G01X7610Y34150D01*
G37*
G36*
G01X90Y33900D02*
G01X90Y47900D01*
G01X200Y47900D01*
G01X1600Y35400D01*
G01X3000Y47900D01*
G01X3200Y47900D01*
G01X4600Y35400D01*
G01X6000Y47900D01*
G01X6200Y47900D01*
G01X7600Y35400D01*
G01X7600Y33900D01*
G01X90Y33900D01*
G37*
G36*
G01X90Y16900D02*
G01X90Y30899D01*
G01X200Y30899D01*
G01X1600Y18400D01*
G01X3000Y30899D01*
G01X3200Y30899D01*
G01X4600Y18400D01*
G01X6000Y30899D01*
G01X6200Y30899D01*
G01X7600Y18400D01*
G01X7600Y16900D01*
G01X90Y16900D01*
G37*
G54D17*
G01X44500Y24499D03*
G01X137000Y28999D03*
G54D18*
G01X121062Y76900D03*
G01X119538Y76900D03*
G54D19*
G01X120300Y76900D03*
G36*
G01X77470Y24030D02*
G01X75970Y22530D01*
G01X75970Y19530D01*
G01X77470Y18030D01*
G01X80470Y18030D01*
G01X81970Y19530D01*
G01X81970Y22530D01*
G01X80470Y24030D01*
G01X77470Y24030D01*
G37*
G36*
G01X97469Y26029D02*
G01X95969Y24529D01*
G01X95969Y21529D01*
G01X97469Y20029D01*
G01X100469Y20029D01*
G01X101969Y21529D01*
G01X101969Y24529D01*
G01X100469Y26029D01*
G01X97469Y26029D01*
G37*
G36*
G01X117745Y36000D02*
G01X116245Y34500D01*
G01X116245Y31500D01*
G01X117745Y30000D01*
G01X120745Y30000D01*
G01X122245Y31500D01*
G01X122245Y34500D01*
G01X120745Y36000D01*
G01X117745Y36000D01*
G37*
G36*
G01X97420Y45920D02*
G01X95920Y44420D01*
G01X95920Y41420D01*
G01X97420Y39920D01*
G01X100420Y39920D01*
G01X101920Y41420D01*
G01X101920Y44420D01*
G01X100420Y45920D01*
G01X97420Y45920D01*
G37*
G36*
G01X77499Y44254D02*
G01X75999Y42754D01*
G01X75999Y39754D01*
G01X77499Y38254D01*
G01X80499Y38254D01*
G01X81999Y39754D01*
G01X81999Y42754D01*
G01X80499Y44254D01*
G01X77499Y44254D01*
G37*
G36*
G01X77745Y63999D02*
G01X76245Y62500D01*
G01X76245Y59500D01*
G01X77745Y58000D01*
G01X80745Y58000D01*
G01X82245Y59500D01*
G01X82245Y62500D01*
G01X80745Y63999D01*
G01X77745Y63999D01*
G37*
G36*
G01X97500Y65999D02*
G01X96000Y64499D01*
G01X96000Y61500D01*
G01X97500Y60000D01*
G01X100500Y60000D01*
G01X101999Y61500D01*
G01X101999Y64499D01*
G01X100500Y65999D01*
G01X97500Y65999D01*
G37*
G36*
G01X117745Y55999D02*
G01X116245Y54499D01*
G01X116245Y51499D01*
G01X117745Y49999D01*
G01X120745Y49999D01*
G01X122245Y51499D01*
G01X122245Y54499D01*
G01X120745Y55999D01*
G01X117745Y55999D01*
G37*
G36*
G01X55000Y38499D02*
G01X53500Y36999D01*
G01X53500Y33999D01*
G01X55000Y32499D01*
G01X58000Y32499D01*
G01X59500Y33999D01*
G01X59500Y36999D01*
G01X58000Y38499D01*
G01X55000Y38499D01*
G37*
G36*
G01X43000Y38499D02*
G01X41500Y36999D01*
G01X41500Y33999D01*
G01X43000Y32499D01*
G01X46000Y32499D01*
G01X47500Y33999D01*
G01X47500Y36999D01*
G01X46000Y38499D01*
G01X43000Y38499D01*
G37*
G36*
G01X31000Y38499D02*
G01X29500Y36999D01*
G01X29500Y33999D01*
G01X31000Y32499D01*
G01X34000Y32499D01*
G01X35500Y33999D01*
G01X35500Y36999D01*
G01X34000Y38499D01*
G01X31000Y38499D01*
G37*
G36*
G01X18500Y23000D02*
G01X17000Y21500D01*
G01X17000Y18500D01*
G01X18500Y17000D01*
G01X21500Y17000D01*
G01X23000Y18500D01*
G01X23000Y21500D01*
G01X21500Y23000D01*
G01X18500Y23000D01*
G37*
M00*
M02*
