G04 Layer: BottomSilkLayer*
G04 EasyEDA v6.3.30, 2020-03-21T18:53:40+08:00*
G04 c5f63f6c624d440bb2292f988f7b391a,d4aa0ff59f9544bb86dfcbd96f28fb4a,05*
G04 Gerber Generator version 0.2*
G04 Scale: 100 percent, Rotated: No, Reflected: No *
G04 Dimensions in millimeters *
G04 leading zeros omitted , absolute positions ,3 integer and 3 decimal *
%FSLAX33Y33*%
%MOMM*%
G90*
G71D02*

%ADD10C,0.200000*%
%ADD11C,0.254000*%
%ADD13C,0.100000*%
%ADD14C,0.399999*%
%ADD29C,0.599999*%
%ADD58C,0.203200*%
%ADD59C,0.152400*%
%ADD60C,0.150012*%
%ADD61C,0.127000*%
%ADD62C,0.299999*%

%LPD*%
G54D10*
G01X119400Y75900D02*
G01X119800Y75900D01*
G01X119400Y75900D02*
G01X119400Y76499D01*
G01X119800Y76499D01*
G01X119800Y75900D01*
G01X120200Y76499D02*
G01X120200Y75900D01*
G01X119000Y75900D02*
G01X119000Y76499D01*
G01X119400Y64499D02*
G01X120200Y64499D01*
G01X120200Y63899D01*
G01X119400Y63899D01*
G01X119400Y64499D01*
G01X119800Y64499D01*
G01X119800Y63999D01*
G01X119000Y64499D02*
G01X119000Y63899D01*
G01X123600Y68399D02*
G01X124000Y68399D01*
G01X124000Y67999D01*
G01X123600Y67999D01*
G01X123600Y68399D01*
G01X123600Y68799D02*
G01X124000Y68799D01*
G01X124000Y69199D01*
G01X123600Y69199D01*
G01X123600Y68799D01*
G01X123600Y69599D02*
G01X124000Y69599D01*
G54D59*
G01X109114Y62368D02*
G01X108479Y62368D01*
G01X108479Y63231D01*
G01X109013Y63231D01*
G01X109114Y63231D01*
G01X109495Y63231D02*
G01X110105Y63231D01*
G01X110105Y62368D01*
G01X109571Y62368D01*
G01X109495Y62368D01*
G01X108031Y75814D02*
G01X108031Y75179D01*
G01X107168Y75179D01*
G01X107168Y75712D01*
G01X107168Y75814D01*
G01X107168Y76195D02*
G01X107168Y76805D01*
G01X108031Y76805D01*
G01X108031Y76271D01*
G01X108031Y76195D01*
G01X108414Y63468D02*
G01X107779Y63468D01*
G01X107779Y64331D01*
G01X108312Y64331D01*
G01X108414Y64331D01*
G01X108795Y64331D02*
G01X109405Y64331D01*
G01X109405Y63468D01*
G01X108871Y63468D01*
G01X108795Y63468D01*
G54D60*
G01X53299Y75150D02*
G01X54500Y75150D01*
G01X53299Y75920D02*
G01X53299Y75150D01*
G01X53299Y77050D02*
G01X54500Y77050D01*
G01X53299Y76280D02*
G01X53299Y77050D01*
G01X54500Y76280D02*
G01X54500Y77050D01*
G01X54500Y75920D02*
G01X54500Y75150D01*
G01X102649Y76499D02*
G01X102649Y77700D01*
G01X101879Y76499D02*
G01X102649Y76499D01*
G01X100749Y76499D02*
G01X100749Y77700D01*
G01X101519Y76499D02*
G01X100749Y76499D01*
G01X101519Y77700D02*
G01X100749Y77700D01*
G01X101879Y77700D02*
G01X102649Y77700D01*
G01X29750Y76900D02*
G01X29750Y75699D01*
G01X30520Y76900D02*
G01X29750Y76900D01*
G01X31650Y76900D02*
G01X31650Y75699D01*
G01X30880Y76900D02*
G01X31650Y76900D01*
G01X30880Y75699D02*
G01X31650Y75699D01*
G01X30520Y75699D02*
G01X29750Y75699D01*
G54D11*
G01X128001Y66580D02*
G01X129051Y66580D01*
G01X128001Y64420D02*
G01X129051Y64420D01*
G01X127001Y66580D02*
G01X125951Y66580D01*
G01X127001Y64420D02*
G01X125951Y64420D01*
G01X129281Y66400D02*
G01X129281Y64600D01*
G01X125721Y66400D02*
G01X125721Y64600D01*
G01X125951Y66580D02*
G01X125901Y66580D01*
G01X125721Y66400D01*
G01X129051Y66580D02*
G01X129100Y66580D01*
G01X129281Y66400D01*
G01X125951Y64420D02*
G01X125901Y64420D01*
G01X125721Y64600D01*
G01X129051Y64420D02*
G01X129101Y64420D01*
G01X129281Y64600D01*
G01X49675Y45800D02*
G01X49675Y44900D01*
G01X56325Y44900D01*
G01X56325Y45800D01*
G01X56325Y47200D02*
G01X56325Y48100D01*
G01X49675Y48100D01*
G01X49675Y47200D01*
G01X56325Y45800D02*
G01X56325Y47200D01*
G01X49675Y47200D02*
G01X49675Y45800D01*
G54D13*
G01X53617Y46509D02*
G01X53917Y46509D01*
G01X53517Y45509D02*
G01X53517Y47609D01*
G01X52817Y45609D02*
G01X52817Y47509D01*
G01X53217Y47509D01*
G01X53217Y45609D01*
G01X52817Y45609D01*
G01X52517Y45509D02*
G01X52517Y47609D01*
G01X52060Y46500D02*
G01X52415Y46500D01*
G54D58*
G01X64780Y70940D02*
G01X64780Y65860D01*
G01X54620Y65860D01*
G01X54620Y70940D01*
G01X64780Y70940D01*
G54D11*
G01X56050Y78564D02*
G01X56050Y78465D01*
G01X56640Y77873D01*
G01X64001Y78585D02*
G01X64001Y78465D01*
G01X63411Y77873D01*
G01X63411Y77873D02*
G01X56640Y77873D01*
G01X64021Y78585D02*
G01X56020Y78585D01*
G01X56020Y72824D02*
G01X56020Y78564D01*
G01X64021Y72824D02*
G01X56020Y72824D01*
G01X64021Y72834D02*
G01X64021Y78574D01*
G01X91000Y73009D02*
G01X89399Y73009D01*
G01X89399Y73009D02*
G01X89399Y74000D01*
G01X91000Y73009D02*
G01X92600Y73009D01*
G01X92600Y73009D02*
G01X92600Y74000D01*
G01X92600Y74000D02*
G01X92600Y74990D01*
G01X92600Y74990D02*
G01X91000Y74990D01*
G01X89399Y74000D02*
G01X89399Y74990D01*
G01X89399Y74990D02*
G01X91000Y74990D01*
G54D59*
G01X88185Y73431D02*
G01X88820Y73431D01*
G01X88820Y72568D01*
G01X88287Y72568D01*
G01X88185Y72568D01*
G01X87804Y72568D02*
G01X87194Y72568D01*
G01X87194Y73431D01*
G01X87728Y73431D01*
G01X87804Y73431D01*
G01X91685Y76931D02*
G01X92320Y76931D01*
G01X92320Y76068D01*
G01X91787Y76068D01*
G01X91685Y76068D01*
G01X91304Y76068D02*
G01X90694Y76068D01*
G01X90694Y76931D01*
G01X91228Y76931D01*
G01X91304Y76931D01*
G01X88185Y74431D02*
G01X88820Y74431D01*
G01X88820Y73568D01*
G01X88287Y73568D01*
G01X88185Y73568D01*
G01X87804Y73568D02*
G01X87194Y73568D01*
G01X87194Y74431D01*
G01X87728Y74431D01*
G01X87804Y74431D01*
G01X127314Y70268D02*
G01X126679Y70268D01*
G01X126679Y71131D01*
G01X127212Y71131D01*
G01X127314Y71131D01*
G01X127695Y71131D02*
G01X128305Y71131D01*
G01X128305Y70268D01*
G01X127771Y70268D01*
G01X127695Y70268D01*
G01X127314Y69168D02*
G01X126679Y69168D01*
G01X126679Y70031D01*
G01X127212Y70031D01*
G01X127314Y70031D01*
G01X127695Y70031D02*
G01X128305Y70031D01*
G01X128305Y69168D01*
G01X127771Y69168D01*
G01X127695Y69168D01*
G01X127314Y66968D02*
G01X126679Y66968D01*
G01X126679Y67831D01*
G01X127212Y67831D01*
G01X127314Y67831D01*
G01X127695Y67831D02*
G01X128305Y67831D01*
G01X128305Y66968D01*
G01X127771Y66968D01*
G01X127695Y66968D01*
G01X127314Y68068D02*
G01X126679Y68068D01*
G01X126679Y68931D01*
G01X127212Y68931D01*
G01X127314Y68931D01*
G01X127695Y68931D02*
G01X128305Y68931D01*
G01X128305Y68068D01*
G01X127771Y68068D01*
G01X127695Y68068D01*
G01X106685Y68731D02*
G01X107320Y68731D01*
G01X107320Y67868D01*
G01X106787Y67868D01*
G01X106685Y67868D01*
G01X106304Y67868D02*
G01X105694Y67868D01*
G01X105694Y68731D01*
G01X106228Y68731D01*
G01X106304Y68731D01*
G01X106885Y67631D02*
G01X107520Y67631D01*
G01X107520Y66768D01*
G01X106987Y66768D01*
G01X106885Y66768D01*
G01X106504Y66768D02*
G01X105894Y66768D01*
G01X105894Y67631D01*
G01X106428Y67631D01*
G01X106504Y67631D01*
G01X107714Y64568D02*
G01X107079Y64568D01*
G01X107079Y65431D01*
G01X107612Y65431D01*
G01X107714Y65431D01*
G01X108095Y65431D02*
G01X108705Y65431D01*
G01X108705Y64568D01*
G01X108171Y64568D01*
G01X108095Y64568D01*
G01X107114Y65668D02*
G01X106479Y65668D01*
G01X106479Y66531D01*
G01X107012Y66531D01*
G01X107114Y66531D01*
G01X107495Y66531D02*
G01X108105Y66531D01*
G01X108105Y65668D01*
G01X107571Y65668D01*
G01X107495Y65668D01*
G01X106931Y75814D02*
G01X106931Y75179D01*
G01X106068Y75179D01*
G01X106068Y75712D01*
G01X106068Y75814D01*
G01X106068Y76195D02*
G01X106068Y76805D01*
G01X106931Y76805D01*
G01X106931Y76271D01*
G01X106931Y76195D01*
G01X144068Y72685D02*
G01X144068Y73320D01*
G01X144931Y73320D01*
G01X144931Y72787D01*
G01X144931Y72685D01*
G01X144931Y72304D02*
G01X144931Y71694D01*
G01X144068Y71694D01*
G01X144068Y72228D01*
G01X144068Y72304D01*
G01X134825Y71936D02*
G01X135274Y72385D01*
G01X135885Y71774D01*
G01X135508Y71397D01*
G01X135436Y71325D01*
G01X135167Y71056D02*
G01X134736Y70625D01*
G01X134125Y71235D01*
G01X134502Y71613D01*
G01X134556Y71667D01*
G01X139685Y59431D02*
G01X140320Y59431D01*
G01X140320Y58568D01*
G01X139787Y58568D01*
G01X139685Y58568D01*
G01X139304Y58568D02*
G01X138694Y58568D01*
G01X138694Y59431D01*
G01X139228Y59431D01*
G01X139304Y59431D01*
G01X134014Y46968D02*
G01X133379Y46968D01*
G01X133379Y47831D01*
G01X133912Y47831D01*
G01X134014Y47831D01*
G01X134395Y47831D02*
G01X135005Y47831D01*
G01X135005Y46968D01*
G01X134471Y46968D01*
G01X134395Y46968D01*
G01X134014Y49368D02*
G01X133379Y49368D01*
G01X133379Y50231D01*
G01X133912Y50231D01*
G01X134014Y50231D01*
G01X134395Y50231D02*
G01X135005Y50231D01*
G01X135005Y49368D01*
G01X134471Y49368D01*
G01X134395Y49368D01*
G01X134014Y51968D02*
G01X133379Y51968D01*
G01X133379Y52831D01*
G01X133912Y52831D01*
G01X134014Y52831D01*
G01X134395Y52831D02*
G01X135005Y52831D01*
G01X135005Y51968D01*
G01X134471Y51968D01*
G01X134395Y51968D01*
G01X121931Y11814D02*
G01X121931Y11179D01*
G01X121068Y11179D01*
G01X121068Y11712D01*
G01X121068Y11814D01*
G01X121068Y12195D02*
G01X121068Y12805D01*
G01X121931Y12805D01*
G01X121931Y12271D01*
G01X121931Y12195D01*
G01X134014Y54568D02*
G01X133379Y54568D01*
G01X133379Y55431D01*
G01X133912Y55431D01*
G01X134014Y55431D01*
G01X134395Y55431D02*
G01X135005Y55431D01*
G01X135005Y54568D01*
G01X134471Y54568D01*
G01X134395Y54568D01*
G01X109141Y18984D02*
G01X109141Y19619D01*
G01X110004Y19619D01*
G01X110004Y19085D01*
G01X110004Y18984D01*
G01X110004Y18603D02*
G01X110004Y17993D01*
G01X109141Y17993D01*
G01X109141Y18527D01*
G01X109141Y18603D01*
G01X111741Y18984D02*
G01X111741Y19619D01*
G01X112604Y19619D01*
G01X112604Y19085D01*
G01X112604Y18984D01*
G01X112604Y18603D02*
G01X112604Y17993D01*
G01X111741Y17993D01*
G01X111741Y18527D01*
G01X111741Y18603D01*
G01X114341Y18984D02*
G01X114341Y19619D01*
G01X115204Y19619D01*
G01X115204Y19085D01*
G01X115204Y18984D01*
G01X115204Y18603D02*
G01X115204Y17993D01*
G01X114341Y17993D01*
G01X114341Y18527D01*
G01X114341Y18603D01*
G01X87814Y74568D02*
G01X87179Y74568D01*
G01X87179Y75431D01*
G01X87712Y75431D01*
G01X87814Y75431D01*
G01X88195Y75431D02*
G01X88805Y75431D01*
G01X88805Y74568D01*
G01X88271Y74568D01*
G01X88195Y74568D01*
G01X87814Y75568D02*
G01X87179Y75568D01*
G01X87179Y76431D01*
G01X87712Y76431D01*
G01X87814Y76431D01*
G01X88195Y76431D02*
G01X88805Y76431D01*
G01X88805Y75568D01*
G01X88271Y75568D01*
G01X88195Y75568D01*
G01X134014Y55768D02*
G01X133379Y55768D01*
G01X133379Y56631D01*
G01X133912Y56631D01*
G01X134014Y56631D01*
G01X134395Y56631D02*
G01X135005Y56631D01*
G01X135005Y55768D01*
G01X134471Y55768D01*
G01X134395Y55768D01*
G01X110441Y18984D02*
G01X110441Y19619D01*
G01X111304Y19619D01*
G01X111304Y19085D01*
G01X111304Y18984D01*
G01X111304Y18603D02*
G01X111304Y17993D01*
G01X110441Y17993D01*
G01X110441Y18527D01*
G01X110441Y18603D01*
G01X113041Y18984D02*
G01X113041Y19619D01*
G01X113904Y19619D01*
G01X113904Y19085D01*
G01X113904Y18984D01*
G01X113904Y18603D02*
G01X113904Y17993D01*
G01X113041Y17993D01*
G01X113041Y18527D01*
G01X113041Y18603D01*
G01X115541Y18984D02*
G01X115541Y19619D01*
G01X116404Y19619D01*
G01X116404Y19085D01*
G01X116404Y18984D01*
G01X116404Y18603D02*
G01X116404Y17993D01*
G01X115541Y17993D01*
G01X115541Y18527D01*
G01X115541Y18603D01*
G01X134014Y48168D02*
G01X133379Y48168D01*
G01X133379Y49031D01*
G01X133912Y49031D01*
G01X134014Y49031D01*
G01X134395Y49031D02*
G01X135005Y49031D01*
G01X135005Y48168D01*
G01X134471Y48168D01*
G01X134395Y48168D01*
G01X134014Y50668D02*
G01X133379Y50668D01*
G01X133379Y51531D01*
G01X133912Y51531D01*
G01X134014Y51531D01*
G01X134395Y51531D02*
G01X135005Y51531D01*
G01X135005Y50668D01*
G01X134471Y50668D01*
G01X134395Y50668D01*
G01X134014Y53268D02*
G01X133379Y53268D01*
G01X133379Y54131D01*
G01X133912Y54131D01*
G01X134014Y54131D01*
G01X134395Y54131D02*
G01X135005Y54131D01*
G01X135005Y53268D01*
G01X134471Y53268D01*
G01X134395Y53268D01*
G01X116841Y18984D02*
G01X116841Y19619D01*
G01X117704Y19619D01*
G01X117704Y19085D01*
G01X117704Y18984D01*
G01X117704Y18603D02*
G01X117704Y17993D01*
G01X116841Y17993D01*
G01X116841Y18527D01*
G01X116841Y18603D01*
G01X118141Y18984D02*
G01X118141Y19619D01*
G01X119004Y19619D01*
G01X119004Y19085D01*
G01X119004Y18984D01*
G01X119004Y18603D02*
G01X119004Y17993D01*
G01X118141Y17993D01*
G01X118141Y18527D01*
G01X118141Y18603D01*
G01X87814Y71568D02*
G01X87179Y71568D01*
G01X87179Y72431D01*
G01X87712Y72431D01*
G01X87814Y72431D01*
G01X88195Y72431D02*
G01X88805Y72431D01*
G01X88805Y71568D01*
G01X88271Y71568D01*
G01X88195Y71568D01*
G54D10*
G01X31199Y64600D02*
G01X31199Y63500D01*
G01X32800Y63500D01*
G01X32800Y64600D01*
G01X31199Y65400D02*
G01X31199Y66500D01*
G01X32199Y66500D01*
G01X32800Y66500D01*
G01X32800Y65400D01*
G54D59*
G01X52085Y65931D02*
G01X52720Y65931D01*
G01X52720Y65068D01*
G01X52187Y65068D01*
G01X52085Y65068D01*
G01X51704Y65068D02*
G01X51094Y65068D01*
G01X51094Y65931D01*
G01X51628Y65931D01*
G01X51704Y65931D01*
G01X50185Y65931D02*
G01X50820Y65931D01*
G01X50820Y65068D01*
G01X50287Y65068D01*
G01X50185Y65068D01*
G01X49804Y65068D02*
G01X49194Y65068D01*
G01X49194Y65931D01*
G01X49728Y65931D01*
G01X49804Y65931D01*
G01X48185Y65931D02*
G01X48820Y65931D01*
G01X48820Y65068D01*
G01X48287Y65068D01*
G01X48185Y65068D01*
G01X47804Y65068D02*
G01X47194Y65068D01*
G01X47194Y65931D01*
G01X47728Y65931D01*
G01X47804Y65931D01*
G01X46185Y65931D02*
G01X46820Y65931D01*
G01X46820Y65068D01*
G01X46287Y65068D01*
G01X46185Y65068D01*
G01X45804Y65068D02*
G01X45194Y65068D01*
G01X45194Y65931D01*
G01X45728Y65931D01*
G01X45804Y65931D01*
G54D10*
G01X34800Y65399D02*
G01X34800Y66499D01*
G01X33199Y66499D01*
G01X33199Y65399D01*
G01X34800Y64599D02*
G01X34800Y63499D01*
G01X33800Y63499D01*
G01X33199Y63499D01*
G01X33199Y64599D01*
G54D59*
G01X99314Y74168D02*
G01X98679Y74168D01*
G01X98679Y75031D01*
G01X99212Y75031D01*
G01X99314Y75031D01*
G01X99695Y75031D02*
G01X100305Y75031D01*
G01X100305Y74168D01*
G01X99771Y74168D01*
G01X99695Y74168D01*
G01X93314Y76068D02*
G01X92679Y76068D01*
G01X92679Y76931D01*
G01X93212Y76931D01*
G01X93314Y76931D01*
G01X93695Y76931D02*
G01X94305Y76931D01*
G01X94305Y76068D01*
G01X93771Y76068D01*
G01X93695Y76068D01*
G01X99685Y73931D02*
G01X100320Y73931D01*
G01X100320Y73068D01*
G01X99787Y73068D01*
G01X99685Y73068D01*
G01X99304Y73068D02*
G01X98694Y73068D01*
G01X98694Y73931D01*
G01X99228Y73931D01*
G01X99304Y73931D01*
G01X22431Y70314D02*
G01X22431Y69679D01*
G01X21568Y69679D01*
G01X21568Y70213D01*
G01X21568Y70314D01*
G01X21568Y70695D02*
G01X21568Y71305D01*
G01X22431Y71305D01*
G01X22431Y70771D01*
G01X22431Y70695D01*
G01X29431Y74814D02*
G01X29431Y74179D01*
G01X28568Y74179D01*
G01X28568Y74712D01*
G01X28568Y74814D01*
G01X28568Y75195D02*
G01X28568Y75805D01*
G01X29431Y75805D01*
G01X29431Y75271D01*
G01X29431Y75195D01*
G01X21068Y31185D02*
G01X21068Y31820D01*
G01X21931Y31820D01*
G01X21931Y31287D01*
G01X21931Y31185D01*
G01X21931Y30804D02*
G01X21931Y30194D01*
G01X21068Y30194D01*
G01X21068Y30728D01*
G01X21068Y30804D01*
G01X48731Y47314D02*
G01X48731Y46679D01*
G01X47868Y46679D01*
G01X47868Y47213D01*
G01X47868Y47314D01*
G01X47868Y47695D02*
G01X47868Y48305D01*
G01X48731Y48305D01*
G01X48731Y47771D01*
G01X48731Y47695D01*
G01X41014Y50568D02*
G01X40379Y50568D01*
G01X40379Y51431D01*
G01X40912Y51431D01*
G01X41014Y51431D01*
G01X41395Y51431D02*
G01X42005Y51431D01*
G01X42005Y50568D01*
G01X41471Y50568D01*
G01X41395Y50568D01*
G01X54685Y51731D02*
G01X55320Y51731D01*
G01X55320Y50868D01*
G01X54787Y50868D01*
G01X54685Y50868D01*
G01X54304Y50868D02*
G01X53694Y50868D01*
G01X53694Y51731D01*
G01X54228Y51731D01*
G01X54304Y51731D01*
G01X38414Y52668D02*
G01X37779Y52668D01*
G01X37779Y53531D01*
G01X38312Y53531D01*
G01X38414Y53531D01*
G01X38795Y53531D02*
G01X39405Y53531D01*
G01X39405Y52668D01*
G01X38871Y52668D01*
G01X38795Y52668D01*
G01X40068Y60685D02*
G01X40068Y61320D01*
G01X40931Y61320D01*
G01X40931Y60787D01*
G01X40931Y60685D01*
G01X40931Y60304D02*
G01X40931Y59694D01*
G01X40068Y59694D01*
G01X40068Y60228D01*
G01X40068Y60304D01*
G54D60*
G01X57449Y64399D02*
G01X57449Y65600D01*
G01X56679Y64399D02*
G01X57449Y64399D01*
G01X55549Y64399D02*
G01X55549Y65600D01*
G01X56319Y64399D02*
G01X55549Y64399D01*
G01X56319Y65600D02*
G01X55549Y65600D01*
G01X56679Y65600D02*
G01X57449Y65600D01*
G01X57449Y62899D02*
G01X57449Y64100D01*
G01X56679Y62899D02*
G01X57449Y62899D01*
G01X55549Y62899D02*
G01X55549Y64100D01*
G01X56319Y62899D02*
G01X55549Y62899D01*
G01X56319Y64100D02*
G01X55549Y64100D01*
G01X56679Y64100D02*
G01X57449Y64100D01*
G54D11*
G01X97000Y75950D02*
G01X95200Y75950D01*
G01X97000Y73999D02*
G01X97000Y74800D01*
G01X97000Y72849D02*
G01X95200Y72849D01*
G01X71800Y47500D02*
G01X71800Y49500D01*
G01X70200Y47500D02*
G01X70200Y49500D01*
G01X71800Y48900D02*
G01X70199Y48900D01*
G01X38299Y43999D02*
G01X38299Y45999D01*
G01X36700Y43999D02*
G01X36700Y45999D01*
G01X38300Y45400D02*
G01X36699Y45400D01*
G01X42299Y43999D02*
G01X42299Y45999D01*
G01X40699Y43999D02*
G01X40699Y45999D01*
G01X42300Y45400D02*
G01X40699Y45400D01*
G01X40299Y43999D02*
G01X40299Y45999D01*
G01X38699Y43999D02*
G01X38699Y45999D01*
G01X40300Y45400D02*
G01X38699Y45400D01*
G01X67000Y59300D02*
G01X65000Y59300D01*
G01X67000Y57700D02*
G01X65000Y57700D01*
G01X65599Y59300D02*
G01X65599Y57699D01*
G01X66999Y63300D02*
G01X64999Y63300D01*
G01X66999Y61700D02*
G01X64999Y61700D01*
G01X65599Y63300D02*
G01X65599Y61699D01*
G01X23000Y44700D02*
G01X25000Y44700D01*
G01X23000Y46300D02*
G01X25000Y46300D01*
G01X24400Y44699D02*
G01X24400Y46300D01*
G01X36300Y43999D02*
G01X36300Y45999D01*
G01X34700Y43999D02*
G01X34700Y45999D01*
G01X36300Y45400D02*
G01X34699Y45400D01*
G01X69799Y47500D02*
G01X69799Y49500D01*
G01X68199Y47500D02*
G01X68199Y49500D01*
G01X69800Y48900D02*
G01X68199Y48900D01*
G01X67799Y47500D02*
G01X67799Y49500D01*
G01X66199Y47500D02*
G01X66199Y49500D01*
G01X67800Y48900D02*
G01X66199Y48900D01*
G01X66999Y57300D02*
G01X64999Y57300D01*
G01X66999Y55700D02*
G01X64999Y55700D01*
G01X65599Y57300D02*
G01X65599Y55699D01*
G01X67000Y61300D02*
G01X65000Y61300D01*
G01X67000Y59700D02*
G01X65000Y59700D01*
G01X65599Y61300D02*
G01X65599Y59699D01*
G01X65799Y47500D02*
G01X65799Y49500D01*
G01X64199Y47500D02*
G01X64199Y49500D01*
G01X65800Y48900D02*
G01X64199Y48900D01*
G01X63799Y47500D02*
G01X63799Y49500D01*
G01X62200Y47500D02*
G01X62200Y49500D01*
G01X63800Y48900D02*
G01X62199Y48900D01*
G01X23000Y50700D02*
G01X25000Y50700D01*
G01X23000Y52299D02*
G01X25000Y52299D01*
G01X24400Y50699D02*
G01X24400Y52300D01*
G01X23000Y48700D02*
G01X25000Y48700D01*
G01X23000Y50300D02*
G01X25000Y50300D01*
G01X24400Y48699D02*
G01X24400Y50300D01*
G01X23000Y46700D02*
G01X25000Y46700D01*
G01X23000Y48300D02*
G01X25000Y48300D01*
G01X24400Y46699D02*
G01X24400Y48300D01*
G01X63300Y18000D02*
G01X63300Y20000D01*
G01X61700Y18000D02*
G01X61700Y20000D01*
G01X63300Y19400D02*
G01X61699Y19400D01*
G01X61300Y18000D02*
G01X61300Y20000D01*
G01X59700Y18000D02*
G01X59700Y20000D01*
G01X61300Y19400D02*
G01X59699Y19400D01*
G01X59300Y18000D02*
G01X59300Y20000D01*
G01X57700Y18000D02*
G01X57700Y20000D01*
G01X59300Y19400D02*
G01X57699Y19400D01*
G01X69300Y18000D02*
G01X69300Y20000D01*
G01X67700Y18000D02*
G01X67700Y20000D01*
G01X69300Y19400D02*
G01X67699Y19400D01*
G01X67300Y18000D02*
G01X67300Y20000D01*
G01X65700Y18000D02*
G01X65700Y20000D01*
G01X67300Y19400D02*
G01X65699Y19400D01*
G01X65300Y18000D02*
G01X65300Y20000D01*
G01X63700Y18000D02*
G01X63700Y20000D01*
G01X65300Y19400D02*
G01X63699Y19400D01*
G54D60*
G01X104700Y75620D02*
G01X104700Y75000D01*
G01X104700Y75980D02*
G01X104700Y76599D01*
G01X103500Y75980D02*
G01X103500Y76599D01*
G01X103700Y76750D02*
G01X104500Y76750D01*
G01X103500Y75620D02*
G01X103500Y75000D01*
G01X103700Y74850D02*
G01X104500Y74850D01*
G01X103650Y76750D02*
G01X103700Y76750D01*
G01X104550Y76750D02*
G01X104500Y76750D01*
G01X103650Y74850D02*
G01X103700Y74850D01*
G01X104550Y74850D02*
G01X104500Y74850D01*
G01X106320Y68899D02*
G01X105700Y68899D01*
G01X106680Y68899D02*
G01X107300Y68899D01*
G01X106680Y70099D02*
G01X107300Y70099D01*
G01X107450Y69899D02*
G01X107450Y69099D01*
G01X106320Y70099D02*
G01X105700Y70099D01*
G01X105550Y69899D02*
G01X105550Y69099D01*
G01X107450Y69949D02*
G01X107450Y69899D01*
G01X107450Y69050D02*
G01X107450Y69099D01*
G01X105550Y69949D02*
G01X105550Y69899D01*
G01X105550Y69049D02*
G01X105550Y69099D01*
G01X51079Y44700D02*
G01X51699Y44700D01*
G01X50719Y44700D02*
G01X50100Y44700D01*
G01X50719Y43500D02*
G01X50100Y43500D01*
G01X49949Y43700D02*
G01X49949Y44500D01*
G01X51079Y43500D02*
G01X51699Y43500D01*
G01X51849Y43700D02*
G01X51849Y44500D01*
G01X49949Y43650D02*
G01X49949Y43700D01*
G01X49949Y44549D02*
G01X49949Y44500D01*
G01X51849Y43650D02*
G01X51849Y43700D01*
G01X51849Y44550D02*
G01X51849Y44500D01*
G01X57800Y46120D02*
G01X57800Y45500D01*
G01X57800Y46480D02*
G01X57800Y47100D01*
G01X56600Y46480D02*
G01X56600Y47100D01*
G01X56800Y47250D02*
G01X57599Y47250D01*
G01X56600Y46120D02*
G01X56600Y45500D01*
G01X56800Y45350D02*
G01X57599Y45350D01*
G01X56750Y47250D02*
G01X56800Y47250D01*
G01X57649Y47250D02*
G01X57599Y47250D01*
G01X56749Y45350D02*
G01X56800Y45350D01*
G01X57650Y45350D02*
G01X57599Y45350D01*
G54D11*
G01X69344Y74163D02*
G01X66855Y74163D01*
G54D61*
G01X68099Y72672D02*
G01X68099Y73942D01*
G01X68099Y72926D02*
G01X67718Y72926D01*
G01X67718Y72926D02*
G01X68099Y73688D01*
G01X68099Y73688D02*
G01X67718Y73688D01*
G01X68099Y72926D02*
G01X68480Y72926D01*
G01X68480Y72926D02*
G01X68099Y73688D01*
G01X68099Y73688D02*
G01X68480Y73688D01*
G54D11*
G01X66732Y71293D02*
G01X66982Y71293D01*
G01X69247Y71344D02*
G01X69496Y71344D01*
G01X66702Y75306D02*
G01X66702Y71308D01*
G01X66702Y75306D02*
G01X66952Y75306D01*
G01X69247Y75331D02*
G01X69496Y75331D01*
G01X69496Y71334D02*
G01X69496Y75331D01*
G54D60*
G01X70399Y51679D02*
G01X70399Y52299D01*
G01X70399Y51319D02*
G01X70399Y50700D01*
G01X71599Y51319D02*
G01X71599Y50700D01*
G01X71399Y50549D02*
G01X70600Y50549D01*
G01X71599Y51679D02*
G01X71599Y52299D01*
G01X71399Y52449D02*
G01X70600Y52449D01*
G01X71449Y50549D02*
G01X71399Y50549D01*
G01X70550Y50549D02*
G01X70600Y50549D01*
G01X71450Y52449D02*
G01X71399Y52449D01*
G01X70549Y52449D02*
G01X70600Y52449D01*
G01X36899Y48179D02*
G01X36899Y48799D01*
G01X36899Y47819D02*
G01X36899Y47199D01*
G01X38099Y47819D02*
G01X38099Y47199D01*
G01X37899Y47049D02*
G01X37100Y47049D01*
G01X38099Y48179D02*
G01X38099Y48799D01*
G01X37899Y48949D02*
G01X37100Y48949D01*
G01X37949Y47049D02*
G01X37899Y47049D01*
G01X37050Y47049D02*
G01X37100Y47049D01*
G01X37950Y48949D02*
G01X37899Y48949D01*
G01X37049Y48949D02*
G01X37100Y48949D01*
G01X40899Y48179D02*
G01X40899Y48799D01*
G01X40899Y47819D02*
G01X40899Y47199D01*
G01X42099Y47819D02*
G01X42099Y47199D01*
G01X41899Y47049D02*
G01X41099Y47049D01*
G01X42099Y48179D02*
G01X42099Y48799D01*
G01X41899Y48949D02*
G01X41099Y48949D01*
G01X41949Y47049D02*
G01X41899Y47049D01*
G01X41050Y47049D02*
G01X41099Y47049D01*
G01X41950Y48949D02*
G01X41899Y48949D01*
G01X41049Y48949D02*
G01X41099Y48949D01*
G01X38899Y48079D02*
G01X38899Y48699D01*
G01X38899Y47719D02*
G01X38899Y47099D01*
G01X40099Y47719D02*
G01X40099Y47099D01*
G01X39899Y46949D02*
G01X39099Y46949D01*
G01X40099Y48079D02*
G01X40099Y48699D01*
G01X39899Y48849D02*
G01X39099Y48849D01*
G01X39949Y46949D02*
G01X39899Y46949D01*
G01X39050Y46949D02*
G01X39099Y46949D01*
G01X39950Y48849D02*
G01X39899Y48849D01*
G01X39049Y48849D02*
G01X39099Y48849D01*
G01X34899Y48179D02*
G01X34899Y48799D01*
G01X34899Y47819D02*
G01X34899Y47199D01*
G01X36099Y47819D02*
G01X36099Y47199D01*
G01X35899Y47049D02*
G01X35100Y47049D01*
G01X36099Y48179D02*
G01X36099Y48799D01*
G01X35899Y48949D02*
G01X35100Y48949D01*
G01X35949Y47049D02*
G01X35899Y47049D01*
G01X35050Y47049D02*
G01X35100Y47049D01*
G01X35950Y48949D02*
G01X35899Y48949D01*
G01X35049Y48949D02*
G01X35100Y48949D01*
G01X27179Y46100D02*
G01X27799Y46100D01*
G01X26819Y46100D02*
G01X26199Y46100D01*
G01X26819Y44900D02*
G01X26199Y44900D01*
G01X26049Y45100D02*
G01X26049Y45900D01*
G01X27179Y44900D02*
G01X27799Y44900D01*
G01X27949Y45100D02*
G01X27949Y45900D01*
G01X26049Y45050D02*
G01X26049Y45100D01*
G01X26049Y45949D02*
G01X26049Y45900D01*
G01X27949Y45049D02*
G01X27949Y45100D01*
G01X27949Y45950D02*
G01X27949Y45900D01*
G01X62819Y57899D02*
G01X62199Y57899D01*
G01X63179Y57899D02*
G01X63799Y57899D01*
G01X63179Y59099D02*
G01X63799Y59099D01*
G01X63949Y58899D02*
G01X63949Y58099D01*
G01X62819Y59099D02*
G01X62199Y59099D01*
G01X62049Y58899D02*
G01X62049Y58099D01*
G01X63949Y58949D02*
G01X63949Y58899D01*
G01X63949Y58049D02*
G01X63949Y58099D01*
G01X62049Y58949D02*
G01X62049Y58899D01*
G01X62049Y58049D02*
G01X62049Y58099D01*
G01X62819Y61899D02*
G01X62199Y61899D01*
G01X63179Y61899D02*
G01X63799Y61899D01*
G01X63179Y63099D02*
G01X63799Y63099D01*
G01X63949Y62899D02*
G01X63949Y62099D01*
G01X62819Y63099D02*
G01X62199Y63099D01*
G01X62049Y62899D02*
G01X62049Y62099D01*
G01X63949Y62949D02*
G01X63949Y62899D01*
G01X63949Y62049D02*
G01X63949Y62099D01*
G01X62049Y62949D02*
G01X62049Y62899D01*
G01X62049Y62049D02*
G01X62049Y62099D01*
G01X62819Y59899D02*
G01X62199Y59899D01*
G01X63179Y59899D02*
G01X63799Y59899D01*
G01X63179Y61099D02*
G01X63799Y61099D01*
G01X63949Y60899D02*
G01X63949Y60099D01*
G01X62819Y61099D02*
G01X62199Y61099D01*
G01X62049Y60899D02*
G01X62049Y60099D01*
G01X63949Y60949D02*
G01X63949Y60899D01*
G01X63949Y60049D02*
G01X63949Y60099D01*
G01X62049Y60949D02*
G01X62049Y60899D01*
G01X62049Y60049D02*
G01X62049Y60099D01*
G01X62820Y55899D02*
G01X62200Y55899D01*
G01X63180Y55899D02*
G01X63799Y55899D01*
G01X63180Y57099D02*
G01X63799Y57099D01*
G01X63950Y56899D02*
G01X63950Y56100D01*
G01X62820Y57099D02*
G01X62200Y57099D01*
G01X62050Y56899D02*
G01X62050Y56100D01*
G01X63950Y56949D02*
G01X63950Y56899D01*
G01X63950Y56050D02*
G01X63950Y56100D01*
G01X62050Y56950D02*
G01X62050Y56899D01*
G01X62050Y56049D02*
G01X62050Y56100D01*
G01X68399Y51679D02*
G01X68399Y52299D01*
G01X68399Y51319D02*
G01X68399Y50700D01*
G01X69599Y51319D02*
G01X69599Y50700D01*
G01X69399Y50549D02*
G01X68599Y50549D01*
G01X69599Y51679D02*
G01X69599Y52299D01*
G01X69399Y52449D02*
G01X68599Y52449D01*
G01X69449Y50549D02*
G01X69399Y50549D01*
G01X68550Y50549D02*
G01X68599Y50549D01*
G01X69450Y52449D02*
G01X69399Y52449D01*
G01X68549Y52449D02*
G01X68599Y52449D01*
G01X66399Y51679D02*
G01X66399Y52299D01*
G01X66399Y51319D02*
G01X66399Y50700D01*
G01X67599Y51319D02*
G01X67599Y50700D01*
G01X67399Y50549D02*
G01X66599Y50549D01*
G01X67599Y51679D02*
G01X67599Y52299D01*
G01X67399Y52449D02*
G01X66599Y52449D01*
G01X67449Y50549D02*
G01X67399Y50549D01*
G01X66550Y50549D02*
G01X66599Y50549D01*
G01X67450Y52449D02*
G01X67399Y52449D01*
G01X66549Y52449D02*
G01X66599Y52449D01*
G01X62399Y51679D02*
G01X62399Y52299D01*
G01X62399Y51319D02*
G01X62399Y50700D01*
G01X63599Y51319D02*
G01X63599Y50700D01*
G01X63399Y50549D02*
G01X62600Y50549D01*
G01X63599Y51679D02*
G01X63599Y52299D01*
G01X63399Y52449D02*
G01X62600Y52449D01*
G01X63449Y50549D02*
G01X63399Y50549D01*
G01X62550Y50549D02*
G01X62600Y50549D01*
G01X63450Y52449D02*
G01X63399Y52449D01*
G01X62549Y52449D02*
G01X62600Y52449D01*
G01X64399Y51679D02*
G01X64399Y52299D01*
G01X64399Y51319D02*
G01X64399Y50700D01*
G01X65599Y51319D02*
G01X65599Y50700D01*
G01X65399Y50549D02*
G01X64599Y50549D01*
G01X65599Y51679D02*
G01X65599Y52299D01*
G01X65399Y52449D02*
G01X64599Y52449D01*
G01X65449Y50549D02*
G01X65399Y50549D01*
G01X64550Y50549D02*
G01X64599Y50549D01*
G01X65450Y52449D02*
G01X65399Y52449D01*
G01X64549Y52449D02*
G01X64599Y52449D01*
G01X27179Y52100D02*
G01X27799Y52100D01*
G01X26819Y52100D02*
G01X26199Y52100D01*
G01X26819Y50900D02*
G01X26199Y50900D01*
G01X26049Y51100D02*
G01X26049Y51899D01*
G01X27179Y50900D02*
G01X27799Y50900D01*
G01X27949Y51100D02*
G01X27949Y51899D01*
G01X26049Y51050D02*
G01X26049Y51100D01*
G01X26049Y51949D02*
G01X26049Y51899D01*
G01X27949Y51049D02*
G01X27949Y51100D01*
G01X27949Y51950D02*
G01X27949Y51899D01*
G01X27179Y50100D02*
G01X27799Y50100D01*
G01X26819Y50100D02*
G01X26199Y50100D01*
G01X26819Y48900D02*
G01X26199Y48900D01*
G01X26049Y49100D02*
G01X26049Y49900D01*
G01X27179Y48900D02*
G01X27799Y48900D01*
G01X27949Y49100D02*
G01X27949Y49900D01*
G01X26049Y49050D02*
G01X26049Y49100D01*
G01X26049Y49949D02*
G01X26049Y49900D01*
G01X27949Y49049D02*
G01X27949Y49100D01*
G01X27949Y49950D02*
G01X27949Y49900D01*
G01X27179Y48100D02*
G01X27799Y48100D01*
G01X26819Y48100D02*
G01X26199Y48100D01*
G01X26819Y46900D02*
G01X26199Y46900D01*
G01X26049Y47100D02*
G01X26049Y47900D01*
G01X27179Y46900D02*
G01X27799Y46900D01*
G01X27949Y47100D02*
G01X27949Y47900D01*
G01X26049Y47050D02*
G01X26049Y47100D01*
G01X26049Y47949D02*
G01X26049Y47900D01*
G01X27949Y47049D02*
G01X27949Y47100D01*
G01X27949Y47950D02*
G01X27949Y47900D01*
G01X61899Y22179D02*
G01X61899Y22800D01*
G01X61899Y21819D02*
G01X61899Y21200D01*
G01X63099Y21819D02*
G01X63099Y21200D01*
G01X62899Y21049D02*
G01X62100Y21049D01*
G01X63099Y22179D02*
G01X63099Y22800D01*
G01X62899Y22949D02*
G01X62100Y22949D01*
G01X62949Y21049D02*
G01X62899Y21049D01*
G01X62050Y21049D02*
G01X62100Y21049D01*
G01X62950Y22949D02*
G01X62899Y22949D01*
G01X62049Y22949D02*
G01X62100Y22949D01*
G01X59899Y22179D02*
G01X59899Y22800D01*
G01X59899Y21819D02*
G01X59899Y21200D01*
G01X61099Y21819D02*
G01X61099Y21200D01*
G01X60899Y21049D02*
G01X60100Y21049D01*
G01X61099Y22179D02*
G01X61099Y22800D01*
G01X60899Y22949D02*
G01X60100Y22949D01*
G01X60949Y21049D02*
G01X60899Y21049D01*
G01X60050Y21049D02*
G01X60100Y21049D01*
G01X60950Y22949D02*
G01X60899Y22949D01*
G01X60049Y22949D02*
G01X60100Y22949D01*
G01X57899Y22179D02*
G01X57899Y22800D01*
G01X57899Y21819D02*
G01X57899Y21200D01*
G01X59099Y21819D02*
G01X59099Y21200D01*
G01X58899Y21049D02*
G01X58100Y21049D01*
G01X59099Y22179D02*
G01X59099Y22800D01*
G01X58899Y22949D02*
G01X58100Y22949D01*
G01X58949Y21049D02*
G01X58899Y21049D01*
G01X58050Y21049D02*
G01X58100Y21049D01*
G01X58950Y22949D02*
G01X58899Y22949D01*
G01X58049Y22949D02*
G01X58100Y22949D01*
G01X67899Y22179D02*
G01X67899Y22800D01*
G01X67899Y21819D02*
G01X67899Y21200D01*
G01X69099Y21819D02*
G01X69099Y21200D01*
G01X68899Y21049D02*
G01X68100Y21049D01*
G01X69099Y22179D02*
G01X69099Y22800D01*
G01X68899Y22949D02*
G01X68100Y22949D01*
G01X68949Y21049D02*
G01X68899Y21049D01*
G01X68050Y21049D02*
G01X68100Y21049D01*
G01X68950Y22949D02*
G01X68899Y22949D01*
G01X68049Y22949D02*
G01X68100Y22949D01*
G01X65899Y22179D02*
G01X65899Y22800D01*
G01X65899Y21819D02*
G01X65899Y21200D01*
G01X67099Y21819D02*
G01X67099Y21200D01*
G01X66899Y21049D02*
G01X66100Y21049D01*
G01X67099Y22179D02*
G01X67099Y22800D01*
G01X66899Y22949D02*
G01X66100Y22949D01*
G01X66949Y21049D02*
G01X66899Y21049D01*
G01X66050Y21049D02*
G01X66100Y21049D01*
G01X66950Y22949D02*
G01X66899Y22949D01*
G01X66049Y22949D02*
G01X66100Y22949D01*
G01X63899Y22179D02*
G01X63899Y22800D01*
G01X63899Y21819D02*
G01X63899Y21200D01*
G01X65099Y21819D02*
G01X65099Y21200D01*
G01X64899Y21049D02*
G01X64100Y21049D01*
G01X65099Y22179D02*
G01X65099Y22800D01*
G01X64899Y22949D02*
G01X64100Y22949D01*
G01X64949Y21049D02*
G01X64899Y21049D01*
G01X64050Y21049D02*
G01X64100Y21049D01*
G01X64950Y22949D02*
G01X64899Y22949D01*
G01X64049Y22949D02*
G01X64100Y22949D01*
G01X64999Y69050D02*
G01X66200Y69050D01*
G01X64999Y69820D02*
G01X64999Y69050D01*
G01X64999Y70950D02*
G01X66200Y70950D01*
G01X64999Y70180D02*
G01X64999Y70950D01*
G01X66200Y70180D02*
G01X66200Y70950D01*
G01X66200Y69820D02*
G01X66200Y69050D01*
G54D11*
G01X10497Y68872D02*
G01X10497Y70121D01*
G01X11498Y70121D01*
G01X11498Y68872D01*
G01X12497Y68873D02*
G01X12497Y64872D01*
G01X14496Y64872D01*
G01X14496Y68873D01*
G01X14499Y62874D02*
G01X14499Y63874D01*
G01X16499Y63874D01*
G01X16499Y62874D01*
G01X17498Y68872D02*
G01X17498Y70122D01*
G01X18498Y70122D01*
G01X18498Y68872D01*
G01X14499Y68874D02*
G01X14499Y64874D01*
G01X16499Y64874D01*
G01X16499Y68874D01*
G01X18501Y62875D02*
G01X10500Y62875D01*
G01X10500Y62875D02*
G01X10500Y68874D01*
G01X18501Y68874D02*
G01X18501Y62875D01*
G01X10500Y68874D02*
G01X18501Y68874D01*
G01X140599Y48024D02*
G01X137345Y48024D01*
G01X137345Y57975D01*
G01X141028Y57975D01*
G01X141028Y48024D01*
G01X140599Y48024D01*
G01X110397Y12399D02*
G01X110397Y15653D01*
G01X120348Y15653D01*
G01X120348Y11970D01*
G01X110397Y11970D01*
G01X110397Y12399D01*
G54D60*
G01X54049Y43399D02*
G01X54049Y44600D01*
G01X53279Y43399D02*
G01X54049Y43399D01*
G01X52149Y43399D02*
G01X52149Y44600D01*
G01X52919Y43399D02*
G01X52149Y43399D01*
G01X52919Y44600D02*
G01X52149Y44600D01*
G01X53279Y44600D02*
G01X54049Y44600D01*
G01X99320Y75299D02*
G01X98700Y75299D01*
G01X99680Y75299D02*
G01X100300Y75299D01*
G01X99680Y76499D02*
G01X100300Y76499D01*
G01X100450Y76299D02*
G01X100450Y75500D01*
G01X99320Y76499D02*
G01X98700Y76499D01*
G01X98550Y76299D02*
G01X98550Y75500D01*
G01X100450Y76349D02*
G01X100450Y76299D01*
G01X100450Y75450D02*
G01X100450Y75500D01*
G01X98550Y76350D02*
G01X98550Y76299D01*
G01X98550Y75449D02*
G01X98550Y75500D01*
G01X133200Y47420D02*
G01X133200Y46799D01*
G01X133200Y47780D02*
G01X133200Y48399D01*
G01X132000Y47780D02*
G01X132000Y48399D01*
G01X132200Y48550D02*
G01X133000Y48550D01*
G01X132000Y47420D02*
G01X132000Y46799D01*
G01X132200Y46650D02*
G01X133000Y46650D01*
G01X132150Y48550D02*
G01X132200Y48550D01*
G01X133050Y48550D02*
G01X133000Y48550D01*
G01X132150Y46650D02*
G01X132200Y46650D01*
G01X133050Y46650D02*
G01X133000Y46650D01*
G01X130399Y48179D02*
G01X130399Y48799D01*
G01X130399Y47819D02*
G01X130399Y47199D01*
G01X131599Y47819D02*
G01X131599Y47199D01*
G01X131399Y47049D02*
G01X130600Y47049D01*
G01X131599Y48179D02*
G01X131599Y48799D01*
G01X131399Y48949D02*
G01X130600Y48949D01*
G01X131449Y47049D02*
G01X131399Y47049D01*
G01X130550Y47049D02*
G01X130600Y47049D01*
G01X131450Y48949D02*
G01X131399Y48949D01*
G01X130549Y48949D02*
G01X130600Y48949D01*
G01X133200Y49820D02*
G01X133200Y49199D01*
G01X133200Y50180D02*
G01X133200Y50799D01*
G01X132000Y50180D02*
G01X132000Y50799D01*
G01X132200Y50950D02*
G01X133000Y50950D01*
G01X132000Y49820D02*
G01X132000Y49199D01*
G01X132200Y49050D02*
G01X133000Y49050D01*
G01X132150Y50950D02*
G01X132200Y50950D01*
G01X133050Y50950D02*
G01X133000Y50950D01*
G01X132150Y49050D02*
G01X132200Y49050D01*
G01X133050Y49050D02*
G01X133000Y49050D01*
G01X130399Y50979D02*
G01X130399Y51599D01*
G01X130399Y50619D02*
G01X130399Y49999D01*
G01X131599Y50619D02*
G01X131599Y49999D01*
G01X131399Y49849D02*
G01X130600Y49849D01*
G01X131599Y50979D02*
G01X131599Y51599D01*
G01X131399Y51749D02*
G01X130600Y51749D01*
G01X131449Y49849D02*
G01X131399Y49849D01*
G01X130550Y49849D02*
G01X130600Y49849D01*
G01X131450Y51749D02*
G01X131399Y51749D01*
G01X130549Y51749D02*
G01X130600Y51749D01*
G01X133200Y52620D02*
G01X133200Y51999D01*
G01X133200Y52980D02*
G01X133200Y53599D01*
G01X132000Y52980D02*
G01X132000Y53599D01*
G01X132200Y53750D02*
G01X133000Y53750D01*
G01X132000Y52620D02*
G01X132000Y51999D01*
G01X132200Y51850D02*
G01X133000Y51850D01*
G01X132150Y53750D02*
G01X132200Y53750D01*
G01X133050Y53750D02*
G01X133000Y53750D01*
G01X132150Y51850D02*
G01X132200Y51850D01*
G01X133050Y51850D02*
G01X133000Y51850D01*
G01X130399Y53779D02*
G01X130399Y54399D01*
G01X130399Y53419D02*
G01X130399Y52799D01*
G01X131599Y53419D02*
G01X131599Y52799D01*
G01X131399Y52649D02*
G01X130600Y52649D01*
G01X131599Y53779D02*
G01X131599Y54399D01*
G01X131399Y54549D02*
G01X130600Y54549D01*
G01X131449Y52649D02*
G01X131399Y52649D01*
G01X130550Y52649D02*
G01X130600Y52649D01*
G01X131450Y54549D02*
G01X131399Y54549D01*
G01X130549Y54549D02*
G01X130600Y54549D01*
G01X133200Y55020D02*
G01X133200Y54399D01*
G01X133200Y55380D02*
G01X133200Y55999D01*
G01X132000Y55380D02*
G01X132000Y55999D01*
G01X132200Y56150D02*
G01X133000Y56150D01*
G01X132000Y55020D02*
G01X132000Y54399D01*
G01X132200Y54250D02*
G01X133000Y54250D01*
G01X132150Y56150D02*
G01X132200Y56150D01*
G01X133050Y56150D02*
G01X133000Y56150D01*
G01X132150Y54250D02*
G01X132200Y54250D01*
G01X133050Y54250D02*
G01X133000Y54250D01*
G01X130399Y56179D02*
G01X130399Y56799D01*
G01X130399Y55819D02*
G01X130399Y55199D01*
G01X131599Y55819D02*
G01X131599Y55199D01*
G01X131399Y55049D02*
G01X130600Y55049D01*
G01X131599Y56179D02*
G01X131599Y56799D01*
G01X131399Y56949D02*
G01X130600Y56949D01*
G01X131449Y55049D02*
G01X131399Y55049D01*
G01X130550Y55049D02*
G01X130600Y55049D01*
G01X131450Y56949D02*
G01X131399Y56949D01*
G01X130549Y56949D02*
G01X130600Y56949D01*
G01X109592Y19798D02*
G01X108972Y19798D01*
G01X109953Y19798D02*
G01X110572Y19798D01*
G01X109953Y20998D02*
G01X110572Y20998D01*
G01X110723Y20798D02*
G01X110723Y19998D01*
G01X109592Y20998D02*
G01X108972Y20998D01*
G01X108822Y20798D02*
G01X108822Y19998D01*
G01X110723Y20848D02*
G01X110723Y20798D01*
G01X110723Y19948D02*
G01X110723Y19998D01*
G01X108822Y20848D02*
G01X108822Y20798D01*
G01X108822Y19948D02*
G01X108822Y19998D01*
G01X110752Y22598D02*
G01X111372Y22598D01*
G01X110392Y22598D02*
G01X109772Y22598D01*
G01X110392Y21398D02*
G01X109772Y21398D01*
G01X109622Y21598D02*
G01X109622Y22398D01*
G01X110752Y21398D02*
G01X111372Y21398D01*
G01X111522Y21598D02*
G01X111522Y22398D01*
G01X109622Y21548D02*
G01X109622Y21598D01*
G01X109622Y22448D02*
G01X109622Y22398D01*
G01X111522Y21548D02*
G01X111522Y21598D01*
G01X111522Y22448D02*
G01X111522Y22398D01*
G01X112392Y19798D02*
G01X111772Y19798D01*
G01X112753Y19798D02*
G01X113372Y19798D01*
G01X112753Y20998D02*
G01X113372Y20998D01*
G01X113523Y20798D02*
G01X113523Y19998D01*
G01X112392Y20998D02*
G01X111772Y20998D01*
G01X111622Y20798D02*
G01X111622Y19998D01*
G01X113523Y20848D02*
G01X113523Y20798D01*
G01X113523Y19948D02*
G01X113523Y19998D01*
G01X111622Y20848D02*
G01X111622Y20798D01*
G01X111622Y19948D02*
G01X111622Y19998D01*
G01X113152Y22598D02*
G01X113772Y22598D01*
G01X112792Y22598D02*
G01X112172Y22598D01*
G01X112792Y21398D02*
G01X112172Y21398D01*
G01X112022Y21598D02*
G01X112022Y22398D01*
G01X113152Y21398D02*
G01X113772Y21398D01*
G01X113922Y21598D02*
G01X113922Y22398D01*
G01X112022Y21548D02*
G01X112022Y21598D01*
G01X112022Y22448D02*
G01X112022Y22398D01*
G01X113922Y21548D02*
G01X113922Y21598D01*
G01X113922Y22448D02*
G01X113922Y22398D01*
G01X114792Y19798D02*
G01X114172Y19798D01*
G01X115153Y19798D02*
G01X115772Y19798D01*
G01X115153Y20998D02*
G01X115772Y20998D01*
G01X115923Y20798D02*
G01X115923Y19998D01*
G01X114792Y20998D02*
G01X114172Y20998D01*
G01X114022Y20798D02*
G01X114022Y19998D01*
G01X115923Y20848D02*
G01X115923Y20798D01*
G01X115923Y19948D02*
G01X115923Y19998D01*
G01X114022Y20848D02*
G01X114022Y20798D01*
G01X114022Y19948D02*
G01X114022Y19998D01*
G01X115952Y22598D02*
G01X116572Y22598D01*
G01X115592Y22598D02*
G01X114972Y22598D01*
G01X115592Y21398D02*
G01X114972Y21398D01*
G01X114822Y21598D02*
G01X114822Y22398D01*
G01X115952Y21398D02*
G01X116572Y21398D01*
G01X116722Y21598D02*
G01X116722Y22398D01*
G01X114822Y21548D02*
G01X114822Y21598D01*
G01X114822Y22448D02*
G01X114822Y22398D01*
G01X116722Y21548D02*
G01X116722Y21598D01*
G01X116722Y22448D02*
G01X116722Y22398D01*
G01X117192Y19798D02*
G01X116572Y19798D01*
G01X117553Y19798D02*
G01X118172Y19798D01*
G01X117553Y20998D02*
G01X118172Y20998D01*
G01X118323Y20798D02*
G01X118323Y19998D01*
G01X117192Y20998D02*
G01X116572Y20998D01*
G01X116422Y20798D02*
G01X116422Y19998D01*
G01X118323Y20848D02*
G01X118323Y20798D01*
G01X118323Y19948D02*
G01X118323Y19998D01*
G01X116422Y20848D02*
G01X116422Y20798D01*
G01X116422Y19948D02*
G01X116422Y19998D01*
G01X118479Y22600D02*
G01X119100Y22600D01*
G01X118119Y22600D02*
G01X117500Y22600D01*
G01X118119Y21400D02*
G01X117500Y21400D01*
G01X117349Y21600D02*
G01X117349Y22400D01*
G01X118479Y21400D02*
G01X119100Y21400D01*
G01X119249Y21600D02*
G01X119249Y22400D01*
G01X117349Y21550D02*
G01X117349Y21600D01*
G01X117349Y22449D02*
G01X117349Y22400D01*
G01X119249Y21549D02*
G01X119249Y21600D01*
G01X119249Y22450D02*
G01X119249Y22400D01*
G01X71600Y46449D02*
G01X70399Y46449D01*
G01X71600Y45679D02*
G01X71600Y46449D01*
G01X71600Y44549D02*
G01X70399Y44549D01*
G01X71600Y45319D02*
G01X71600Y44549D01*
G01X70399Y45319D02*
G01X70399Y44549D01*
G01X70399Y45679D02*
G01X70399Y46449D01*
G01X38100Y42949D02*
G01X36899Y42949D01*
G01X38100Y42179D02*
G01X38100Y42949D01*
G01X38100Y41049D02*
G01X36899Y41049D01*
G01X38100Y41819D02*
G01X38100Y41049D01*
G01X36899Y41819D02*
G01X36899Y41049D01*
G01X36899Y42179D02*
G01X36899Y42949D01*
G01X42100Y42949D02*
G01X40899Y42949D01*
G01X42100Y42179D02*
G01X42100Y42949D01*
G01X42100Y41049D02*
G01X40899Y41049D01*
G01X42100Y41819D02*
G01X42100Y41049D01*
G01X40899Y41819D02*
G01X40899Y41049D01*
G01X40899Y42179D02*
G01X40899Y42949D01*
G01X40100Y42949D02*
G01X38899Y42949D01*
G01X40100Y42179D02*
G01X40100Y42949D01*
G01X40100Y41049D02*
G01X38899Y41049D01*
G01X40100Y41819D02*
G01X40100Y41049D01*
G01X38899Y41819D02*
G01X38899Y41049D01*
G01X38899Y42179D02*
G01X38899Y42949D01*
G01X36100Y42949D02*
G01X34899Y42949D01*
G01X36100Y42179D02*
G01X36100Y42949D01*
G01X36100Y41049D02*
G01X34899Y41049D01*
G01X36100Y41819D02*
G01X36100Y41049D01*
G01X34899Y41819D02*
G01X34899Y41049D01*
G01X34899Y42179D02*
G01X34899Y42949D01*
G01X21949Y44899D02*
G01X21949Y46100D01*
G01X21179Y44899D02*
G01X21949Y44899D01*
G01X20049Y44899D02*
G01X20049Y46100D01*
G01X20819Y44899D02*
G01X20049Y44899D01*
G01X20819Y46100D02*
G01X20049Y46100D01*
G01X21179Y46100D02*
G01X21949Y46100D01*
G01X68050Y59100D02*
G01X68050Y57899D01*
G01X68820Y59100D02*
G01X68050Y59100D01*
G01X69950Y59100D02*
G01X69950Y57899D01*
G01X69180Y59100D02*
G01X69950Y59100D01*
G01X69180Y57899D02*
G01X69950Y57899D01*
G01X68820Y57899D02*
G01X68050Y57899D01*
G01X68050Y57100D02*
G01X68050Y55899D01*
G01X68820Y57100D02*
G01X68050Y57100D01*
G01X69950Y57100D02*
G01X69950Y55899D01*
G01X69180Y57100D02*
G01X69950Y57100D01*
G01X69180Y55899D02*
G01X69950Y55899D01*
G01X68820Y55899D02*
G01X68050Y55899D01*
G01X68050Y61100D02*
G01X68050Y59899D01*
G01X68820Y61100D02*
G01X68050Y61100D01*
G01X69950Y61100D02*
G01X69950Y59899D01*
G01X69180Y61100D02*
G01X69950Y61100D01*
G01X69180Y59899D02*
G01X69950Y59899D01*
G01X68820Y59899D02*
G01X68050Y59899D01*
G01X68050Y63100D02*
G01X68050Y61899D01*
G01X68820Y63100D02*
G01X68050Y63100D01*
G01X69950Y63100D02*
G01X69950Y61899D01*
G01X69180Y63100D02*
G01X69950Y63100D01*
G01X69180Y61899D02*
G01X69950Y61899D01*
G01X68820Y61899D02*
G01X68050Y61899D01*
G01X63600Y46449D02*
G01X62399Y46449D01*
G01X63600Y45679D02*
G01X63600Y46449D01*
G01X63600Y44549D02*
G01X62399Y44549D01*
G01X63600Y45319D02*
G01X63600Y44549D01*
G01X62399Y45319D02*
G01X62399Y44549D01*
G01X62399Y45679D02*
G01X62399Y46449D01*
G01X67600Y46449D02*
G01X66399Y46449D01*
G01X67600Y45679D02*
G01X67600Y46449D01*
G01X67600Y44549D02*
G01X66399Y44549D01*
G01X67600Y45319D02*
G01X67600Y44549D01*
G01X66399Y45319D02*
G01X66399Y44549D01*
G01X66399Y45679D02*
G01X66399Y46449D01*
G01X69600Y46449D02*
G01X68399Y46449D01*
G01X69600Y45679D02*
G01X69600Y46449D01*
G01X69600Y44549D02*
G01X68399Y44549D01*
G01X69600Y45319D02*
G01X69600Y44549D01*
G01X68399Y45319D02*
G01X68399Y44549D01*
G01X68399Y45679D02*
G01X68399Y46449D01*
G01X65600Y46449D02*
G01X64399Y46449D01*
G01X65600Y45679D02*
G01X65600Y46449D01*
G01X65600Y44549D02*
G01X64399Y44549D01*
G01X65600Y45319D02*
G01X65600Y44549D01*
G01X64399Y45319D02*
G01X64399Y44549D01*
G01X64399Y45679D02*
G01X64399Y46449D01*
G01X20050Y52100D02*
G01X20050Y50899D01*
G01X20820Y52100D02*
G01X20050Y52100D01*
G01X21950Y52100D02*
G01X21950Y50899D01*
G01X21180Y52100D02*
G01X21950Y52100D01*
G01X21180Y50899D02*
G01X21950Y50899D01*
G01X20820Y50899D02*
G01X20050Y50899D01*
G01X20050Y50100D02*
G01X20050Y48899D01*
G01X20820Y50100D02*
G01X20050Y50100D01*
G01X21950Y50100D02*
G01X21950Y48899D01*
G01X21180Y50100D02*
G01X21950Y50100D01*
G01X21180Y48899D02*
G01X21950Y48899D01*
G01X20820Y48899D02*
G01X20050Y48899D01*
G01X20050Y48100D02*
G01X20050Y46899D01*
G01X20820Y48100D02*
G01X20050Y48100D01*
G01X21950Y48100D02*
G01X21950Y46899D01*
G01X21180Y48100D02*
G01X21950Y48100D01*
G01X21180Y46899D02*
G01X21950Y46899D01*
G01X20820Y46899D02*
G01X20050Y46899D01*
G01X61899Y15050D02*
G01X63100Y15050D01*
G01X61899Y15820D02*
G01X61899Y15050D01*
G01X61899Y16950D02*
G01X63100Y16950D01*
G01X61899Y16180D02*
G01X61899Y16950D01*
G01X63100Y16180D02*
G01X63100Y16950D01*
G01X63100Y15820D02*
G01X63100Y15050D01*
G01X59899Y15050D02*
G01X61100Y15050D01*
G01X59899Y15820D02*
G01X59899Y15050D01*
G01X59899Y16950D02*
G01X61100Y16950D01*
G01X59899Y16180D02*
G01X59899Y16950D01*
G01X61100Y16180D02*
G01X61100Y16950D01*
G01X61100Y15820D02*
G01X61100Y15050D01*
G01X57899Y15050D02*
G01X59100Y15050D01*
G01X57899Y15820D02*
G01X57899Y15050D01*
G01X57899Y16950D02*
G01X59100Y16950D01*
G01X57899Y16180D02*
G01X57899Y16950D01*
G01X59100Y16180D02*
G01X59100Y16950D01*
G01X59100Y15820D02*
G01X59100Y15050D01*
G01X67899Y15050D02*
G01X69100Y15050D01*
G01X67899Y15820D02*
G01X67899Y15050D01*
G01X67899Y16950D02*
G01X69100Y16950D01*
G01X67899Y16180D02*
G01X67899Y16950D01*
G01X69100Y16180D02*
G01X69100Y16950D01*
G01X69100Y15820D02*
G01X69100Y15050D01*
G01X65899Y15050D02*
G01X67100Y15050D01*
G01X65899Y15820D02*
G01X65899Y15050D01*
G01X65899Y16950D02*
G01X67100Y16950D01*
G01X65899Y16180D02*
G01X65899Y16950D01*
G01X67100Y16180D02*
G01X67100Y16950D01*
G01X67100Y15820D02*
G01X67100Y15050D01*
G01X63899Y15050D02*
G01X65100Y15050D01*
G01X63899Y15820D02*
G01X63899Y15050D01*
G01X63899Y16950D02*
G01X65100Y16950D01*
G01X63899Y16180D02*
G01X63899Y16950D01*
G01X65100Y16180D02*
G01X65100Y16950D01*
G01X65100Y15820D02*
G01X65100Y15050D01*
G54D11*
G01X52276Y69999D02*
G01X53000Y69999D01*
G01X30999Y69999D02*
G01X31629Y69999D01*
G01X53000Y69999D02*
G01X53000Y73997D01*
G01X30999Y70002D02*
G01X30999Y74000D01*
G01X53000Y74000D02*
G01X48000Y76999D01*
G01X36000Y76999D02*
G01X30999Y74000D01*
G01X47999Y77000D02*
G01X36000Y76999D01*
G01X137149Y77144D02*
G01X137149Y65460D01*
G01X142991Y65460D01*
G01X142991Y77144D01*
G01X137149Y77144D01*
G01X137911Y79684D02*
G01X137911Y77144D01*
G01X142229Y77144D01*
G01X142229Y79684D01*
G01X137911Y79684D01*
G01X22859Y72500D02*
G01X22860Y73150D01*
G01X22860Y71080D02*
G01X22860Y72500D01*
G01X22860Y68500D02*
G01X22860Y69900D01*
G01X22859Y67860D02*
G01X28129Y67860D01*
G01X28129Y73150D01*
G01X22860Y73150D01*
G01X22860Y68500D02*
G01X22860Y67860D01*
G54D10*
G01X52250Y60249D02*
G01X52250Y51749D01*
G01X43750Y51749D01*
G01X43750Y60249D01*
G01X52250Y60249D01*
G54D60*
G01X23600Y29820D02*
G01X23600Y29199D01*
G01X23600Y30180D02*
G01X23600Y30799D01*
G01X22400Y30180D02*
G01X22400Y30799D01*
G01X22600Y30950D02*
G01X23400Y30950D01*
G01X22400Y29820D02*
G01X22400Y29199D01*
G01X22600Y29050D02*
G01X23400Y29050D01*
G01X22550Y30950D02*
G01X22600Y30950D01*
G01X23449Y30950D02*
G01X23400Y30950D01*
G01X22549Y29050D02*
G01X22600Y29050D01*
G01X23450Y29050D02*
G01X23400Y29050D01*
G01X35050Y66100D02*
G01X35050Y64899D01*
G01X35820Y66100D02*
G01X35050Y66100D01*
G01X36950Y66100D02*
G01X36950Y64899D01*
G01X36180Y66100D02*
G01X36950Y66100D01*
G01X36180Y64899D02*
G01X36950Y64899D01*
G01X35820Y64899D02*
G01X35050Y64899D01*
G01X37150Y66100D02*
G01X37150Y64900D01*
G01X37920Y66100D02*
G01X37150Y66100D01*
G01X39050Y66100D02*
G01X39050Y64900D01*
G01X38280Y66100D02*
G01X39050Y66100D01*
G01X38280Y64900D02*
G01X39050Y64900D01*
G01X37920Y64900D02*
G01X37150Y64900D01*
G01X22100Y28820D02*
G01X22100Y28199D01*
G01X22100Y29180D02*
G01X22100Y29799D01*
G01X20900Y29180D02*
G01X20900Y29799D01*
G01X21100Y29950D02*
G01X21900Y29950D01*
G01X20900Y28820D02*
G01X20900Y28199D01*
G01X21100Y28050D02*
G01X21900Y28050D01*
G01X21050Y29950D02*
G01X21100Y29950D01*
G01X21949Y29950D02*
G01X21900Y29950D01*
G01X21049Y28050D02*
G01X21100Y28050D01*
G01X21950Y28050D02*
G01X21900Y28050D01*
G54D11*
G01X120997Y72587D02*
G01X120997Y72790D01*
G01X120590Y73197D01*
G01X120387Y73197D01*
G01X120997Y67812D02*
G01X120997Y67202D01*
G01X120489Y67202D01*
G01X115510Y67202D02*
G01X115002Y67202D01*
G01X115002Y67710D01*
G01X115510Y73197D02*
G01X115002Y73197D01*
G01X115002Y72689D01*
G54D58*
G01X107699Y74600D02*
G01X107699Y70400D01*
G01X104299Y70400D01*
G01X104299Y74600D01*
G01X107699Y74600D01*
G54D11*
G01X121318Y33944D02*
G01X121318Y32039D01*
G01X121070Y33938D02*
G01X116879Y33938D01*
G01X116879Y32033D01*
G01X121070Y32033D01*
G01X121070Y33938D01*
G01X121920Y33888D02*
G01X121730Y33888D01*
G01X121730Y32110D01*
G01X121920Y32110D01*
G01X121920Y33888D01*
G01X122301Y33126D02*
G01X121793Y33126D01*
G01X121793Y32872D01*
G01X122301Y32872D01*
G01X122301Y33126D01*
G01X81318Y21944D02*
G01X81318Y20039D01*
G01X81069Y21938D02*
G01X76878Y21938D01*
G01X76878Y20033D01*
G01X81069Y20033D01*
G01X81069Y21938D01*
G01X81920Y21888D02*
G01X81730Y21888D01*
G01X81730Y20110D01*
G01X81920Y20110D01*
G01X81920Y21888D01*
G01X82301Y21126D02*
G01X81793Y21126D01*
G01X81793Y20872D01*
G01X82301Y20872D01*
G01X82301Y21126D01*
G01X101318Y23944D02*
G01X101318Y22039D01*
G01X101070Y23938D02*
G01X96879Y23938D01*
G01X96879Y22033D01*
G01X101070Y22033D01*
G01X101070Y23938D01*
G01X101920Y23888D02*
G01X101730Y23888D01*
G01X101730Y22110D01*
G01X101920Y22110D01*
G01X101920Y23888D01*
G01X102301Y23126D02*
G01X101793Y23126D01*
G01X101793Y22872D01*
G01X102301Y22872D01*
G01X102301Y23126D01*
G01X81318Y41944D02*
G01X81318Y40039D01*
G01X81069Y41937D02*
G01X76878Y41937D01*
G01X76878Y40032D01*
G01X81069Y40032D01*
G01X81069Y41937D01*
G01X81920Y41888D02*
G01X81730Y41888D01*
G01X81730Y40110D01*
G01X81920Y40110D01*
G01X81920Y41888D01*
G01X82301Y41126D02*
G01X81793Y41126D01*
G01X81793Y40872D01*
G01X82301Y40872D01*
G01X82301Y41126D01*
G01X81318Y61944D02*
G01X81318Y60039D01*
G01X81069Y61938D02*
G01X76878Y61938D01*
G01X76878Y60033D01*
G01X81069Y60033D01*
G01X81069Y61938D01*
G01X81920Y61888D02*
G01X81730Y61888D01*
G01X81730Y60110D01*
G01X81920Y60110D01*
G01X81920Y61888D01*
G01X82301Y61126D02*
G01X81793Y61126D01*
G01X81793Y60872D01*
G01X82301Y60872D01*
G01X82301Y61126D01*
G01X121318Y53944D02*
G01X121318Y52039D01*
G01X121070Y53937D02*
G01X116879Y53937D01*
G01X116879Y52032D01*
G01X121070Y52032D01*
G01X121070Y53937D01*
G01X121920Y53888D02*
G01X121730Y53888D01*
G01X121730Y52110D01*
G01X121920Y52110D01*
G01X121920Y53888D01*
G01X122301Y53126D02*
G01X121793Y53126D01*
G01X121793Y52872D01*
G01X122301Y52872D01*
G01X122301Y53126D01*
G01X101318Y63944D02*
G01X101318Y62039D01*
G01X101070Y63937D02*
G01X96879Y63937D01*
G01X96879Y62032D01*
G01X101070Y62032D01*
G01X101070Y63937D01*
G01X101920Y63888D02*
G01X101730Y63888D01*
G01X101730Y62110D01*
G01X101920Y62110D01*
G01X101920Y63888D01*
G01X102301Y63126D02*
G01X101793Y63126D01*
G01X101793Y62872D01*
G01X102301Y62872D01*
G01X102301Y63126D01*
G01X101318Y43944D02*
G01X101318Y42039D01*
G01X101070Y43937D02*
G01X96879Y43937D01*
G01X96879Y42032D01*
G01X101070Y42032D01*
G01X101070Y43937D01*
G01X101920Y43888D02*
G01X101730Y43888D01*
G01X101730Y42110D01*
G01X101920Y42110D01*
G01X101920Y43888D01*
G01X102301Y43126D02*
G01X101793Y43126D01*
G01X101793Y42872D01*
G01X102301Y42872D01*
G01X102301Y43126D01*
G01X83055Y76318D02*
G01X84960Y76318D01*
G01X83062Y76070D02*
G01X83062Y71879D01*
G01X84967Y71879D01*
G01X84967Y76070D01*
G01X83062Y76070D01*
G01X83111Y76920D02*
G01X83111Y76730D01*
G01X84889Y76730D01*
G01X84889Y76920D01*
G01X83111Y76920D01*
G01X83873Y77301D02*
G01X83873Y76793D01*
G01X84127Y76793D01*
G01X84127Y77301D01*
G01X83873Y77301D01*
G01X22318Y20944D02*
G01X22318Y19039D01*
G01X22070Y20938D02*
G01X17879Y20938D01*
G01X17879Y19033D01*
G01X22070Y19033D01*
G01X22070Y20938D01*
G01X22920Y20888D02*
G01X22730Y20888D01*
G01X22730Y19110D01*
G01X22920Y19110D01*
G01X22920Y20888D01*
G01X23301Y20126D02*
G01X22793Y20126D01*
G01X22793Y19872D01*
G01X23301Y19872D01*
G01X23301Y20126D01*
G54D58*
G01X58590Y63908D02*
G01X58590Y63090D01*
G01X59000Y63499D02*
G01X58181Y63499D01*
G01X56481Y63499D02*
G01X55663Y63499D01*
G01X15590Y61908D02*
G01X15590Y61090D01*
G01X16000Y61499D02*
G01X15181Y61499D01*
G01X13481Y61499D02*
G01X12663Y61499D01*
G54D59*
G01X51946Y77499D02*
G01X53036Y77499D01*
G01X51946Y77499D02*
G01X51946Y77032D01*
G01X51997Y76877D01*
G01X52050Y76824D01*
G01X52155Y76773D01*
G01X52259Y76773D01*
G01X52363Y76824D01*
G01X52414Y76877D01*
G01X52464Y77032D01*
G01X52464Y77499D01*
G01X52464Y77136D02*
G01X53036Y76773D01*
G01X51946Y76326D02*
G01X51946Y75755D01*
G01X52363Y76064D01*
G01X52363Y75909D01*
G01X52414Y75805D01*
G01X52464Y75755D01*
G01X52622Y75701D01*
G01X52726Y75701D01*
G01X52881Y75755D01*
G01X52985Y75859D01*
G01X53036Y76014D01*
G01X53036Y76169D01*
G01X52985Y76326D01*
G01X52934Y76377D01*
G01X52830Y76430D01*
G01X52205Y75307D02*
G01X52155Y75307D01*
G01X52050Y75254D01*
G01X51997Y75203D01*
G01X51946Y75099D01*
G01X51946Y74891D01*
G01X51997Y74787D01*
G01X52050Y74736D01*
G01X52155Y74683D01*
G01X52259Y74683D01*
G01X52363Y74736D01*
G01X52518Y74840D01*
G01X53036Y75358D01*
G01X53036Y74632D01*
G01X131500Y64653D02*
G01X131500Y63562D01*
G01X131500Y63562D02*
G01X130876Y63562D01*
G01X130533Y64445D02*
G01X130429Y64497D01*
G01X130273Y64653D01*
G01X130273Y63562D01*
G01X58499Y48653D02*
G01X57772Y47562D01*
G01X57772Y48653D02*
G01X58499Y47562D01*
G01X57377Y48393D02*
G01X57377Y48445D01*
G01X57325Y48549D01*
G01X57273Y48601D01*
G01X57169Y48653D01*
G01X56962Y48653D01*
G01X56858Y48601D01*
G01X56806Y48549D01*
G01X56754Y48445D01*
G01X56754Y48341D01*
G01X56806Y48237D01*
G01X56910Y48081D01*
G01X57429Y47562D01*
G01X56702Y47562D01*
G01X59699Y71584D02*
G01X59699Y70493D01*
G01X59699Y71584D02*
G01X59231Y71584D01*
G01X59075Y71533D01*
G01X59023Y71481D01*
G01X58971Y71377D01*
G01X58971Y71221D01*
G01X59023Y71117D01*
G01X59075Y71065D01*
G01X59231Y71013D01*
G01X59699Y71013D01*
G01X58524Y71584D02*
G01X57953Y71584D01*
G01X58265Y71169D01*
G01X58109Y71169D01*
G01X58005Y71117D01*
G01X57953Y71065D01*
G01X57901Y70909D01*
G01X57901Y70805D01*
G01X57953Y70649D01*
G01X58057Y70545D01*
G01X58213Y70493D01*
G01X58368Y70493D01*
G01X58524Y70545D01*
G01X58576Y70597D01*
G01X58628Y70701D01*
G01X60254Y79225D02*
G01X60254Y78135D01*
G01X60254Y79225D02*
G01X59786Y79225D01*
G01X59631Y79174D01*
G01X59578Y79121D01*
G01X59527Y79016D01*
G01X59527Y78861D01*
G01X59578Y78757D01*
G01X59631Y78707D01*
G01X59786Y78653D01*
G01X60254Y78653D01*
G01X59131Y78966D02*
G01X59131Y79016D01*
G01X59080Y79121D01*
G01X59027Y79174D01*
G01X58923Y79225D01*
G01X58717Y79225D01*
G01X58613Y79174D01*
G01X58559Y79121D01*
G01X58509Y79016D01*
G01X58509Y78912D01*
G01X58559Y78808D01*
G01X58663Y78653D01*
G01X59184Y78135D01*
G01X58455Y78135D01*
G01X93953Y72699D02*
G01X92863Y72699D01*
G01X93694Y73822D02*
G01X93798Y73769D01*
G01X93902Y73665D01*
G01X93953Y73563D01*
G01X93953Y73355D01*
G01X93902Y73251D01*
G01X93798Y73146D01*
G01X93694Y73093D01*
G01X93536Y73042D01*
G01X93277Y73042D01*
G01X93122Y73093D01*
G01X93018Y73146D01*
G01X92914Y73251D01*
G01X92863Y73355D01*
G01X92863Y73563D01*
G01X92914Y73665D01*
G01X93018Y73769D01*
G01X93122Y73822D01*
G01X93694Y74216D02*
G01X93744Y74216D01*
G01X93849Y74269D01*
G01X93902Y74320D01*
G01X93953Y74424D01*
G01X93953Y74632D01*
G01X93902Y74736D01*
G01X93849Y74787D01*
G01X93744Y74841D01*
G01X93640Y74841D01*
G01X93536Y74787D01*
G01X93381Y74683D01*
G01X92863Y74165D01*
G01X92863Y74891D01*
G01X48620Y64494D02*
G01X48673Y64598D01*
G01X48777Y64702D01*
G01X48879Y64753D01*
G01X49087Y64753D01*
G01X49191Y64702D01*
G01X49295Y64598D01*
G01X49349Y64494D01*
G01X49400Y64336D01*
G01X49400Y64077D01*
G01X49349Y63922D01*
G01X49295Y63818D01*
G01X49191Y63714D01*
G01X49087Y63663D01*
G01X48879Y63663D01*
G01X48777Y63714D01*
G01X48673Y63818D01*
G01X48620Y63922D01*
G01X48173Y64753D02*
G01X47601Y64753D01*
G01X47914Y64336D01*
G01X47759Y64336D01*
G01X47655Y64285D01*
G01X47601Y64235D01*
G01X47550Y64077D01*
G01X47550Y63973D01*
G01X47601Y63818D01*
G01X47705Y63714D01*
G01X47863Y63663D01*
G01X48018Y63663D01*
G01X48173Y63714D01*
G01X48226Y63765D01*
G01X48277Y63869D01*
G01X46948Y64753D02*
G01X47103Y64702D01*
G01X47154Y64598D01*
G01X47154Y64494D01*
G01X47103Y64390D01*
G01X46999Y64336D01*
G01X46791Y64285D01*
G01X46636Y64235D01*
G01X46532Y64131D01*
G01X46479Y64026D01*
G01X46479Y63869D01*
G01X46532Y63765D01*
G01X46583Y63714D01*
G01X46740Y63663D01*
G01X46948Y63663D01*
G01X47103Y63714D01*
G01X47154Y63765D01*
G01X47208Y63869D01*
G01X47208Y64026D01*
G01X47154Y64131D01*
G01X47050Y64235D01*
G01X46895Y64285D01*
G01X46687Y64336D01*
G01X46583Y64390D01*
G01X46532Y64494D01*
G01X46532Y64598D01*
G01X46583Y64702D01*
G01X46740Y64753D01*
G01X46948Y64753D01*
G01X46920Y66994D02*
G01X46973Y67098D01*
G01X47077Y67202D01*
G01X47179Y67253D01*
G01X47387Y67253D01*
G01X47491Y67202D01*
G01X47595Y67098D01*
G01X47649Y66994D01*
G01X47700Y66836D01*
G01X47700Y66577D01*
G01X47649Y66422D01*
G01X47595Y66318D01*
G01X47491Y66214D01*
G01X47387Y66163D01*
G01X47179Y66163D01*
G01X47077Y66214D01*
G01X46973Y66318D01*
G01X46920Y66422D01*
G01X46473Y67253D02*
G01X45901Y67253D01*
G01X46214Y66836D01*
G01X46059Y66836D01*
G01X45955Y66785D01*
G01X45901Y66735D01*
G01X45850Y66577D01*
G01X45850Y66473D01*
G01X45901Y66318D01*
G01X46005Y66214D01*
G01X46163Y66163D01*
G01X46318Y66163D01*
G01X46473Y66214D01*
G01X46526Y66265D01*
G01X46577Y66369D01*
G01X44832Y66890D02*
G01X44883Y66735D01*
G01X44987Y66631D01*
G01X45144Y66577D01*
G01X45195Y66577D01*
G01X45350Y66631D01*
G01X45454Y66735D01*
G01X45507Y66890D01*
G01X45507Y66940D01*
G01X45454Y67098D01*
G01X45350Y67202D01*
G01X45195Y67253D01*
G01X45144Y67253D01*
G01X44987Y67202D01*
G01X44883Y67098D01*
G01X44832Y66890D01*
G01X44832Y66631D01*
G01X44883Y66369D01*
G01X44987Y66214D01*
G01X45144Y66163D01*
G01X45248Y66163D01*
G01X45403Y66214D01*
G01X45454Y66318D01*
G01X94272Y75097D02*
G01X94218Y74993D01*
G01X94114Y74889D01*
G01X94013Y74838D01*
G01X93804Y74838D01*
G01X93700Y74889D01*
G01X93596Y74993D01*
G01X93543Y75097D01*
G01X93492Y75255D01*
G01X93492Y75514D01*
G01X93543Y75669D01*
G01X93596Y75773D01*
G01X93700Y75877D01*
G01X93804Y75928D01*
G01X94013Y75928D01*
G01X94114Y75877D01*
G01X94218Y75773D01*
G01X94272Y75669D01*
G01X94615Y75047D02*
G01X94719Y74993D01*
G01X94874Y74838D01*
G01X94874Y75928D01*
G01X72660Y48415D02*
G01X71571Y48415D01*
G01X72660Y48415D02*
G01X72660Y48779D01*
G01X72610Y48936D01*
G01X72505Y49038D01*
G01X72401Y49091D01*
G01X72244Y49142D01*
G01X71985Y49142D01*
G01X71830Y49091D01*
G01X71726Y49038D01*
G01X71622Y48936D01*
G01X71571Y48779D01*
G01X71571Y48415D01*
G01X72452Y49485D02*
G01X72505Y49589D01*
G01X72660Y49746D01*
G01X71571Y49746D01*
G01X66253Y72299D02*
G01X65163Y72299D01*
G01X66253Y72299D02*
G01X66253Y72663D01*
G01X66202Y72820D01*
G01X66098Y72922D01*
G01X65994Y72975D01*
G01X65836Y73026D01*
G01X65577Y73026D01*
G01X65422Y72975D01*
G01X65318Y72922D01*
G01X65214Y72820D01*
G01X65163Y72663D01*
G01X65163Y72299D01*
G01X66253Y73890D02*
G01X65526Y73369D01*
G01X65526Y74149D01*
G01X66253Y73890D02*
G01X65163Y73890D01*
G01X138426Y46501D02*
G01X138322Y46397D01*
G01X138167Y46346D01*
G01X137959Y46346D01*
G01X137804Y46397D01*
G01X137700Y46501D01*
G01X137700Y46605D01*
G01X137750Y46710D01*
G01X137804Y46763D01*
G01X137908Y46814D01*
G01X138220Y46918D01*
G01X138322Y46969D01*
G01X138375Y47022D01*
G01X138426Y47126D01*
G01X138426Y47281D01*
G01X138322Y47385D01*
G01X138167Y47436D01*
G01X137959Y47436D01*
G01X137804Y47385D01*
G01X137700Y47281D01*
G01X138769Y46346D02*
G01X138769Y47436D01*
G01X138769Y46346D02*
G01X139236Y46346D01*
G01X139394Y46397D01*
G01X139444Y46450D01*
G01X139498Y46555D01*
G01X139498Y46659D01*
G01X139444Y46763D01*
G01X139394Y46814D01*
G01X139236Y46864D01*
G01X138769Y46864D01*
G01X139135Y46864D02*
G01X139498Y47436D01*
G01X139945Y46346D02*
G01X140516Y46346D01*
G01X140204Y46763D01*
G01X140359Y46763D01*
G01X140463Y46814D01*
G01X140516Y46864D01*
G01X140567Y47022D01*
G01X140567Y47126D01*
G01X140516Y47281D01*
G01X140412Y47385D01*
G01X140255Y47436D01*
G01X140100Y47436D01*
G01X139945Y47385D01*
G01X139892Y47334D01*
G01X139841Y47230D01*
G01X108874Y14572D02*
G01X108770Y14676D01*
G01X108719Y14831D01*
G01X108719Y15039D01*
G01X108770Y15194D01*
G01X108874Y15298D01*
G01X108978Y15298D01*
G01X109082Y15248D01*
G01X109136Y15194D01*
G01X109187Y15090D01*
G01X109291Y14778D01*
G01X109342Y14676D01*
G01X109395Y14623D01*
G01X109499Y14572D01*
G01X109654Y14572D01*
G01X109758Y14676D01*
G01X109809Y14831D01*
G01X109809Y15039D01*
G01X109758Y15194D01*
G01X109654Y15298D01*
G01X108719Y14229D02*
G01X109809Y14229D01*
G01X108719Y14229D02*
G01X108719Y13762D01*
G01X108770Y13604D01*
G01X108823Y13553D01*
G01X108928Y13500D01*
G01X109032Y13500D01*
G01X109136Y13553D01*
G01X109187Y13604D01*
G01X109237Y13762D01*
G01X109237Y14229D01*
G01X109237Y13863D02*
G01X109809Y13500D01*
G01X108719Y12639D02*
G01X109446Y13157D01*
G01X109446Y12377D01*
G01X108719Y12639D02*
G01X109809Y12639D01*
G01X135996Y70377D02*
G01X137086Y70794D01*
G01X135996Y70377D02*
G01X137086Y69963D01*
G01X136723Y70639D02*
G01X136723Y70118D01*
G01X135996Y69620D02*
G01X136776Y69620D01*
G01X136931Y69567D01*
G01X137035Y69463D01*
G01X137086Y69308D01*
G01X137086Y69203D01*
G01X137035Y69049D01*
G01X136931Y68944D01*
G01X136776Y68891D01*
G01X135996Y68891D01*
G01X135996Y68548D02*
G01X137086Y68548D01*
G01X135996Y68548D02*
G01X135996Y68185D01*
G01X136047Y68030D01*
G01X136151Y67926D01*
G01X136255Y67873D01*
G01X136413Y67822D01*
G01X136672Y67822D01*
G01X136827Y67873D01*
G01X136931Y67926D01*
G01X137035Y68030D01*
G01X137086Y68185D01*
G01X137086Y68548D01*
G01X135996Y67479D02*
G01X137086Y67479D01*
G01X135996Y66823D02*
G01X136047Y66928D01*
G01X136151Y67032D01*
G01X136255Y67085D01*
G01X136413Y67136D01*
G01X136672Y67136D01*
G01X136827Y67085D01*
G01X136931Y67032D01*
G01X137035Y66928D01*
G01X137086Y66823D01*
G01X137086Y66615D01*
G01X137035Y66514D01*
G01X136931Y66409D01*
G01X136827Y66356D01*
G01X136672Y66305D01*
G01X136413Y66305D01*
G01X136255Y66356D01*
G01X136151Y66409D01*
G01X136047Y66514D01*
G01X135996Y66615D01*
G01X135996Y66823D01*
G01X136255Y65909D02*
G01X136205Y65909D01*
G01X136100Y65858D01*
G01X136047Y65805D01*
G01X135996Y65701D01*
G01X135996Y65495D01*
G01X136047Y65391D01*
G01X136100Y65338D01*
G01X136205Y65287D01*
G01X136309Y65287D01*
G01X136413Y65338D01*
G01X136568Y65442D01*
G01X137086Y65962D01*
G01X137086Y65233D01*
G01X29453Y69500D02*
G01X28673Y69500D01*
G01X28518Y69550D01*
G01X28414Y69655D01*
G01X28363Y69812D01*
G01X28363Y69916D01*
G01X28414Y70071D01*
G01X28518Y70175D01*
G01X28673Y70226D01*
G01X29453Y70226D01*
G01X29194Y70622D02*
G01X29245Y70622D01*
G01X29349Y70673D01*
G01X29402Y70726D01*
G01X29453Y70831D01*
G01X29453Y71036D01*
G01X29402Y71140D01*
G01X29349Y71194D01*
G01X29245Y71245D01*
G01X29140Y71245D01*
G01X29036Y71194D01*
G01X28881Y71090D01*
G01X28363Y70569D01*
G01X28363Y71298D01*
G01X55499Y62053D02*
G01X55499Y61273D01*
G01X55449Y61118D01*
G01X55344Y61014D01*
G01X55187Y60963D01*
G01X55083Y60963D01*
G01X54928Y61014D01*
G01X54824Y61118D01*
G01X54773Y61273D01*
G01X54773Y62053D01*
G01X54377Y61794D02*
G01X54377Y61844D01*
G01X54326Y61948D01*
G01X54273Y62002D01*
G01X54168Y62053D01*
G01X53963Y62053D01*
G01X53859Y62002D01*
G01X53805Y61948D01*
G01X53754Y61844D01*
G01X53754Y61740D01*
G01X53805Y61636D01*
G01X53909Y61481D01*
G01X54430Y60963D01*
G01X53701Y60963D01*
G01X53048Y62053D02*
G01X53203Y62002D01*
G01X53307Y61844D01*
G01X53358Y61585D01*
G01X53358Y61430D01*
G01X53307Y61169D01*
G01X53203Y61014D01*
G01X53048Y60963D01*
G01X52944Y60963D01*
G01X52787Y61014D01*
G01X52683Y61169D01*
G01X52632Y61430D01*
G01X52632Y61585D01*
G01X52683Y61844D01*
G01X52787Y62002D01*
G01X52944Y62053D01*
G01X53048Y62053D01*
G01X113290Y70199D02*
G01X114070Y70199D01*
G01X114225Y70149D01*
G01X114329Y70045D01*
G01X114380Y69887D01*
G01X114380Y69783D01*
G01X114329Y69628D01*
G01X114225Y69524D01*
G01X114070Y69473D01*
G01X113290Y69473D01*
G01X113290Y68869D02*
G01X113341Y69026D01*
G01X113445Y69077D01*
G01X113549Y69077D01*
G01X113654Y69026D01*
G01X113707Y68922D01*
G01X113758Y68714D01*
G01X113808Y68559D01*
G01X113913Y68455D01*
G01X114017Y68401D01*
G01X114174Y68401D01*
G01X114278Y68455D01*
G01X114329Y68505D01*
G01X114380Y68663D01*
G01X114380Y68869D01*
G01X114329Y69026D01*
G01X114278Y69077D01*
G01X114174Y69130D01*
G01X114017Y69130D01*
G01X113913Y69077D01*
G01X113808Y68973D01*
G01X113758Y68818D01*
G01X113707Y68609D01*
G01X113654Y68505D01*
G01X113549Y68455D01*
G01X113445Y68455D01*
G01X113341Y68505D01*
G01X113290Y68663D01*
G01X113290Y68869D01*
G01X121500Y35653D02*
G01X121500Y34563D01*
G01X121500Y34563D02*
G01X120877Y34563D01*
G01X120534Y35653D02*
G01X120534Y34563D01*
G01X120534Y35653D02*
G01X119859Y35653D01*
G01X120534Y35135D02*
G01X120118Y35135D01*
G01X120534Y34563D02*
G01X119859Y34563D01*
G01X119516Y35653D02*
G01X119516Y34563D01*
G01X119516Y35653D02*
G01X119150Y35653D01*
G01X118995Y35602D01*
G01X118891Y35498D01*
G01X118840Y35394D01*
G01X118787Y35236D01*
G01X118787Y34977D01*
G01X118840Y34822D01*
G01X118891Y34718D01*
G01X118995Y34614D01*
G01X119150Y34563D01*
G01X119516Y34563D01*
G01X118393Y35394D02*
G01X118393Y35444D01*
G01X118340Y35549D01*
G01X118289Y35602D01*
G01X118185Y35653D01*
G01X117977Y35653D01*
G01X117872Y35602D01*
G01X117822Y35549D01*
G01X117768Y35444D01*
G01X117768Y35340D01*
G01X117822Y35236D01*
G01X117926Y35081D01*
G01X118444Y34563D01*
G01X117717Y34563D01*
G01X117375Y35444D02*
G01X117270Y35498D01*
G01X117115Y35653D01*
G01X117115Y34563D01*
G01X81499Y23653D02*
G01X81499Y22563D01*
G01X81499Y22563D02*
G01X80877Y22563D01*
G01X80534Y23653D02*
G01X80534Y22563D01*
G01X80534Y23653D02*
G01X79859Y23653D01*
G01X80534Y23135D02*
G01X80118Y23135D01*
G01X80534Y22563D02*
G01X79859Y22563D01*
G01X79516Y23653D02*
G01X79516Y22563D01*
G01X79516Y23653D02*
G01X79150Y23653D01*
G01X78995Y23602D01*
G01X78891Y23498D01*
G01X78840Y23394D01*
G01X78787Y23236D01*
G01X78787Y22977D01*
G01X78840Y22822D01*
G01X78891Y22718D01*
G01X78995Y22614D01*
G01X79150Y22563D01*
G01X79516Y22563D01*
G01X78444Y23444D02*
G01X78340Y23498D01*
G01X78185Y23653D01*
G01X78185Y22563D01*
G01X77166Y23289D02*
G01X77220Y23135D01*
G01X77321Y23030D01*
G01X77479Y22977D01*
G01X77529Y22977D01*
G01X77687Y23030D01*
G01X77791Y23135D01*
G01X77842Y23289D01*
G01X77842Y23340D01*
G01X77791Y23498D01*
G01X77687Y23602D01*
G01X77529Y23653D01*
G01X77479Y23653D01*
G01X77321Y23602D01*
G01X77220Y23498D01*
G01X77166Y23289D01*
G01X77166Y23030D01*
G01X77220Y22769D01*
G01X77321Y22614D01*
G01X77479Y22563D01*
G01X77583Y22563D01*
G01X77738Y22614D01*
G01X77791Y22718D01*
G01X101499Y25653D02*
G01X101499Y24563D01*
G01X101499Y24563D02*
G01X100877Y24563D01*
G01X100534Y25653D02*
G01X100534Y24563D01*
G01X100534Y25653D02*
G01X99859Y25653D01*
G01X100534Y25135D02*
G01X100118Y25135D01*
G01X100534Y24563D02*
G01X99859Y24563D01*
G01X99516Y25653D02*
G01X99516Y24563D01*
G01X99516Y25653D02*
G01X99150Y25653D01*
G01X98995Y25602D01*
G01X98891Y25498D01*
G01X98840Y25394D01*
G01X98787Y25236D01*
G01X98787Y24977D01*
G01X98840Y24822D01*
G01X98891Y24718D01*
G01X98995Y24614D01*
G01X99150Y24563D01*
G01X99516Y24563D01*
G01X98393Y25394D02*
G01X98393Y25444D01*
G01X98340Y25549D01*
G01X98289Y25602D01*
G01X98185Y25653D01*
G01X97976Y25653D01*
G01X97872Y25602D01*
G01X97822Y25549D01*
G01X97768Y25444D01*
G01X97768Y25340D01*
G01X97822Y25236D01*
G01X97926Y25081D01*
G01X98444Y24563D01*
G01X97717Y24563D01*
G01X97062Y25653D02*
G01X97220Y25602D01*
G01X97321Y25444D01*
G01X97374Y25185D01*
G01X97374Y25030D01*
G01X97321Y24769D01*
G01X97220Y24614D01*
G01X97062Y24563D01*
G01X96958Y24563D01*
G01X96803Y24614D01*
G01X96699Y24769D01*
G01X96648Y25030D01*
G01X96648Y25185D01*
G01X96699Y25444D01*
G01X96803Y25602D01*
G01X96958Y25653D01*
G01X97062Y25653D01*
G01X81499Y43653D02*
G01X81499Y42563D01*
G01X81499Y42563D02*
G01X80877Y42563D01*
G01X80534Y43653D02*
G01X80534Y42563D01*
G01X80534Y43653D02*
G01X79859Y43653D01*
G01X80534Y43135D02*
G01X80118Y43135D01*
G01X80534Y42563D02*
G01X79859Y42563D01*
G01X79516Y43653D02*
G01X79516Y42563D01*
G01X79516Y43653D02*
G01X79150Y43653D01*
G01X78995Y43602D01*
G01X78891Y43498D01*
G01X78840Y43394D01*
G01X78787Y43236D01*
G01X78787Y42977D01*
G01X78840Y42822D01*
G01X78891Y42718D01*
G01X78995Y42614D01*
G01X79150Y42563D01*
G01X79516Y42563D01*
G01X78444Y43444D02*
G01X78340Y43498D01*
G01X78185Y43653D01*
G01X78185Y42563D01*
G01X77220Y43653D02*
G01X77738Y43653D01*
G01X77791Y43185D01*
G01X77738Y43236D01*
G01X77583Y43289D01*
G01X77425Y43289D01*
G01X77270Y43236D01*
G01X77166Y43135D01*
G01X77115Y42977D01*
G01X77115Y42873D01*
G01X77166Y42718D01*
G01X77270Y42614D01*
G01X77425Y42563D01*
G01X77583Y42563D01*
G01X77738Y42614D01*
G01X77791Y42665D01*
G01X77842Y42769D01*
G01X81499Y63653D02*
G01X81499Y62563D01*
G01X81499Y62563D02*
G01X80877Y62563D01*
G01X80534Y63653D02*
G01X80534Y62563D01*
G01X80534Y63653D02*
G01X79859Y63653D01*
G01X80534Y63135D02*
G01X80118Y63135D01*
G01X80534Y62563D02*
G01X79859Y62563D01*
G01X79516Y63653D02*
G01X79516Y62563D01*
G01X79516Y63653D02*
G01X79150Y63653D01*
G01X78995Y63602D01*
G01X78891Y63498D01*
G01X78840Y63394D01*
G01X78787Y63236D01*
G01X78787Y62977D01*
G01X78840Y62822D01*
G01X78891Y62718D01*
G01X78995Y62614D01*
G01X79150Y62563D01*
G01X79516Y62563D01*
G01X78444Y63445D02*
G01X78340Y63498D01*
G01X78185Y63653D01*
G01X78185Y62563D01*
G01X77220Y63498D02*
G01X77270Y63602D01*
G01X77425Y63653D01*
G01X77529Y63653D01*
G01X77687Y63602D01*
G01X77791Y63445D01*
G01X77842Y63186D01*
G01X77842Y62926D01*
G01X77791Y62718D01*
G01X77687Y62614D01*
G01X77529Y62563D01*
G01X77479Y62563D01*
G01X77321Y62614D01*
G01X77220Y62718D01*
G01X77166Y62873D01*
G01X77166Y62926D01*
G01X77220Y63081D01*
G01X77321Y63186D01*
G01X77479Y63236D01*
G01X77529Y63236D01*
G01X77687Y63186D01*
G01X77791Y63081D01*
G01X77842Y62926D01*
G01X121500Y55653D02*
G01X121500Y54563D01*
G01X121500Y54563D02*
G01X120877Y54563D01*
G01X120534Y55653D02*
G01X120534Y54563D01*
G01X120534Y55653D02*
G01X119859Y55653D01*
G01X120534Y55135D02*
G01X120118Y55135D01*
G01X120534Y54563D02*
G01X119859Y54563D01*
G01X119516Y55653D02*
G01X119516Y54563D01*
G01X119516Y55653D02*
G01X119150Y55653D01*
G01X118995Y55602D01*
G01X118891Y55498D01*
G01X118840Y55394D01*
G01X118787Y55236D01*
G01X118787Y54977D01*
G01X118840Y54822D01*
G01X118891Y54718D01*
G01X118995Y54614D01*
G01X119150Y54563D01*
G01X119516Y54563D01*
G01X118444Y55444D02*
G01X118340Y55498D01*
G01X118185Y55653D01*
G01X118185Y54563D01*
G01X117115Y55653D02*
G01X117634Y54563D01*
G01X117842Y55653D02*
G01X117115Y55653D01*
G01X101499Y65653D02*
G01X101499Y64563D01*
G01X101499Y64563D02*
G01X100877Y64563D01*
G01X100534Y65653D02*
G01X100534Y64563D01*
G01X100534Y65653D02*
G01X99859Y65653D01*
G01X100534Y65135D02*
G01X100118Y65135D01*
G01X100534Y64563D02*
G01X99859Y64563D01*
G01X99516Y65653D02*
G01X99516Y64563D01*
G01X99516Y65653D02*
G01X99150Y65653D01*
G01X98995Y65602D01*
G01X98891Y65498D01*
G01X98840Y65394D01*
G01X98787Y65236D01*
G01X98787Y64977D01*
G01X98840Y64822D01*
G01X98891Y64718D01*
G01X98995Y64614D01*
G01X99150Y64563D01*
G01X99516Y64563D01*
G01X98444Y65444D02*
G01X98340Y65498D01*
G01X98185Y65653D01*
G01X98185Y64563D01*
G01X97583Y65653D02*
G01X97738Y65602D01*
G01X97791Y65498D01*
G01X97791Y65394D01*
G01X97738Y65290D01*
G01X97634Y65236D01*
G01X97425Y65185D01*
G01X97270Y65135D01*
G01X97166Y65030D01*
G01X97115Y64926D01*
G01X97115Y64769D01*
G01X97166Y64665D01*
G01X97220Y64614D01*
G01X97374Y64563D01*
G01X97583Y64563D01*
G01X97738Y64614D01*
G01X97791Y64665D01*
G01X97842Y64769D01*
G01X97842Y64926D01*
G01X97791Y65030D01*
G01X97687Y65135D01*
G01X97529Y65185D01*
G01X97321Y65236D01*
G01X97220Y65290D01*
G01X97166Y65394D01*
G01X97166Y65498D01*
G01X97220Y65602D01*
G01X97374Y65653D01*
G01X97583Y65653D01*
G01X101999Y45653D02*
G01X101999Y44563D01*
G01X101999Y44563D02*
G01X101377Y44563D01*
G01X101034Y45653D02*
G01X101034Y44563D01*
G01X101034Y45653D02*
G01X100359Y45653D01*
G01X101034Y45135D02*
G01X100618Y45135D01*
G01X101034Y44563D02*
G01X100359Y44563D01*
G01X100016Y45653D02*
G01X100016Y44563D01*
G01X100016Y45653D02*
G01X99650Y45653D01*
G01X99495Y45602D01*
G01X99391Y45498D01*
G01X99340Y45394D01*
G01X99287Y45236D01*
G01X99287Y44977D01*
G01X99340Y44822D01*
G01X99391Y44718D01*
G01X99495Y44614D01*
G01X99650Y44563D01*
G01X100016Y44563D01*
G01X98893Y45394D02*
G01X98893Y45444D01*
G01X98840Y45549D01*
G01X98789Y45602D01*
G01X98685Y45653D01*
G01X98476Y45653D01*
G01X98372Y45602D01*
G01X98322Y45549D01*
G01X98268Y45444D01*
G01X98268Y45340D01*
G01X98322Y45236D01*
G01X98426Y45081D01*
G01X98944Y44563D01*
G01X98217Y44563D01*
G01X97821Y45394D02*
G01X97821Y45444D01*
G01X97770Y45549D01*
G01X97720Y45602D01*
G01X97615Y45653D01*
G01X97407Y45653D01*
G01X97303Y45602D01*
G01X97250Y45549D01*
G01X97199Y45444D01*
G01X97199Y45340D01*
G01X97250Y45236D01*
G01X97354Y45081D01*
G01X97874Y44563D01*
G01X97148Y44563D01*
G01X81446Y76900D02*
G01X82536Y76900D01*
G01X82536Y76900D02*
G01X82536Y76277D01*
G01X81446Y75934D02*
G01X82536Y75934D01*
G01X81446Y75934D02*
G01X81446Y75259D01*
G01X81964Y75934D02*
G01X81964Y75518D01*
G01X82536Y75934D02*
G01X82536Y75259D01*
G01X81446Y74916D02*
G01X82536Y74916D01*
G01X81446Y74916D02*
G01X81446Y74550D01*
G01X81497Y74395D01*
G01X81601Y74291D01*
G01X81705Y74240D01*
G01X81863Y74187D01*
G01X82122Y74187D01*
G01X82277Y74240D01*
G01X82381Y74291D01*
G01X82485Y74395D01*
G01X82536Y74550D01*
G01X82536Y74916D01*
G01X81654Y73844D02*
G01X81601Y73740D01*
G01X81446Y73585D01*
G01X82536Y73585D01*
G01X81705Y73191D02*
G01X81654Y73191D01*
G01X81550Y73138D01*
G01X81497Y73087D01*
G01X81446Y72983D01*
G01X81446Y72775D01*
G01X81497Y72670D01*
G01X81550Y72620D01*
G01X81654Y72566D01*
G01X81759Y72566D01*
G01X81863Y72620D01*
G01X82018Y72721D01*
G01X82536Y73242D01*
G01X82536Y72516D01*
G01X21900Y22353D02*
G01X21900Y21263D01*
G01X21900Y21263D02*
G01X21277Y21263D01*
G01X20934Y22353D02*
G01X20934Y21263D01*
G01X20934Y22353D02*
G01X20259Y22353D01*
G01X20934Y21834D02*
G01X20518Y21834D01*
G01X20934Y21263D02*
G01X20259Y21263D01*
G01X19916Y22353D02*
G01X19916Y21263D01*
G01X19916Y22353D02*
G01X19550Y22353D01*
G01X19395Y22302D01*
G01X19291Y22198D01*
G01X19240Y22094D01*
G01X19187Y21936D01*
G01X19187Y21677D01*
G01X19240Y21522D01*
G01X19291Y21418D01*
G01X19395Y21314D01*
G01X19550Y21263D01*
G01X19916Y21263D01*
G01X18740Y22353D02*
G01X18168Y22353D01*
G01X18481Y21936D01*
G01X18326Y21936D01*
G01X18222Y21885D01*
G01X18168Y21834D01*
G01X18117Y21677D01*
G01X18117Y21573D01*
G01X18168Y21418D01*
G01X18272Y21314D01*
G01X18430Y21263D01*
G01X18585Y21263D01*
G01X18740Y21314D01*
G01X18793Y21365D01*
G01X18844Y21469D01*
G54D60*
G75*
G01X103500Y76600D02*
G02X103650Y76750I150J0D01*
G01*
G75*
G01X104700Y76600D02*
G03X104550Y76750I-150J0D01*
G01*
G75*
G01X103500Y75000D02*
G03X103650Y74850I150J0D01*
G01*
G75*
G01X104700Y75000D02*
G02X104550Y74850I-150J0D01*
G01*
G75*
G01X107300Y70100D02*
G02X107450Y69950I0J-150D01*
G01*
G75*
G01X107300Y68900D02*
G03X107450Y69050I0J150D01*
G01*
G75*
G01X105700Y70100D02*
G03X105550Y69950I0J-150D01*
G01*
G75*
G01X105700Y68900D02*
G02X105550Y69050I0J150D01*
G01*
G75*
G01X50100Y43500D02*
G02X49950Y43650I0J150D01*
G01*
G75*
G01X50100Y44700D02*
G03X49950Y44550I0J-150D01*
G01*
G75*
G01X51700Y43500D02*
G03X51850Y43650I0J150D01*
G01*
G75*
G01X51700Y44700D02*
G02X51850Y44550I0J-150D01*
G01*
G75*
G01X56600Y47100D02*
G02X56750Y47250I150J0D01*
G01*
G75*
G01X57800Y47100D02*
G03X57650Y47250I-150J0D01*
G01*
G75*
G01X56600Y45500D02*
G03X56750Y45350I150J0D01*
G01*
G75*
G01X57800Y45500D02*
G02X57650Y45350I-150J0D01*
G01*
G75*
G01X71600Y50700D02*
G02X71450Y50550I-150J0D01*
G01*
G75*
G01X70400Y50700D02*
G03X70550Y50550I150J0D01*
G01*
G75*
G01X71600Y52300D02*
G03X71450Y52450I-150J0D01*
G01*
G75*
G01X70400Y52300D02*
G02X70550Y52450I150J0D01*
G01*
G75*
G01X38100Y47200D02*
G02X37950Y47050I-150J0D01*
G01*
G75*
G01X36900Y47200D02*
G03X37050Y47050I150J0D01*
G01*
G75*
G01X38100Y48800D02*
G03X37950Y48950I-150J0D01*
G01*
G75*
G01X36900Y48800D02*
G02X37050Y48950I150J0D01*
G01*
G75*
G01X42100Y47200D02*
G02X41950Y47050I-150J0D01*
G01*
G75*
G01X40900Y47200D02*
G03X41050Y47050I150J0D01*
G01*
G75*
G01X42100Y48800D02*
G03X41950Y48950I-150J0D01*
G01*
G75*
G01X40900Y48800D02*
G02X41050Y48950I150J0D01*
G01*
G75*
G01X40100Y47100D02*
G02X39950Y46950I-150J0D01*
G01*
G75*
G01X38900Y47100D02*
G03X39050Y46950I150J0D01*
G01*
G75*
G01X40100Y48700D02*
G03X39950Y48850I-150J0D01*
G01*
G75*
G01X38900Y48700D02*
G02X39050Y48850I150J0D01*
G01*
G75*
G01X36100Y47200D02*
G02X35950Y47050I-150J0D01*
G01*
G75*
G01X34900Y47200D02*
G03X35050Y47050I150J0D01*
G01*
G75*
G01X36100Y48800D02*
G03X35950Y48950I-150J0D01*
G01*
G75*
G01X34900Y48800D02*
G02X35050Y48950I150J0D01*
G01*
G75*
G01X26200Y44900D02*
G02X26050Y45050I0J150D01*
G01*
G75*
G01X26200Y46100D02*
G03X26050Y45950I0J-150D01*
G01*
G75*
G01X27800Y44900D02*
G03X27950Y45050I0J150D01*
G01*
G75*
G01X27800Y46100D02*
G02X27950Y45950I0J-150D01*
G01*
G75*
G01X63800Y59100D02*
G02X63950Y58950I0J-150D01*
G01*
G75*
G01X63800Y57900D02*
G03X63950Y58050I0J150D01*
G01*
G75*
G01X62200Y59100D02*
G03X62050Y58950I0J-150D01*
G01*
G75*
G01X62200Y57900D02*
G02X62050Y58050I0J150D01*
G01*
G75*
G01X63800Y63100D02*
G02X63950Y62950I0J-150D01*
G01*
G75*
G01X63800Y61900D02*
G03X63950Y62050I0J150D01*
G01*
G75*
G01X62200Y63100D02*
G03X62050Y62950I0J-150D01*
G01*
G75*
G01X62200Y61900D02*
G02X62050Y62050I0J150D01*
G01*
G75*
G01X63800Y61100D02*
G02X63950Y60950I0J-150D01*
G01*
G75*
G01X63800Y59900D02*
G03X63950Y60050I0J150D01*
G01*
G75*
G01X62200Y61100D02*
G03X62050Y60950I0J-150D01*
G01*
G75*
G01X62200Y59900D02*
G02X62050Y60050I0J150D01*
G01*
G75*
G01X63800Y57100D02*
G02X63950Y56950I0J-150D01*
G01*
G75*
G01X63800Y55900D02*
G03X63950Y56050I0J150D01*
G01*
G75*
G01X62200Y57100D02*
G03X62050Y56950I0J-150D01*
G01*
G75*
G01X62200Y55900D02*
G02X62050Y56050I0J150D01*
G01*
G75*
G01X69600Y50700D02*
G02X69450Y50550I-150J0D01*
G01*
G75*
G01X68400Y50700D02*
G03X68550Y50550I150J0D01*
G01*
G75*
G01X69600Y52300D02*
G03X69450Y52450I-150J0D01*
G01*
G75*
G01X68400Y52300D02*
G02X68550Y52450I150J0D01*
G01*
G75*
G01X67600Y50700D02*
G02X67450Y50550I-150J0D01*
G01*
G75*
G01X66400Y50700D02*
G03X66550Y50550I150J0D01*
G01*
G75*
G01X67600Y52300D02*
G03X67450Y52450I-150J0D01*
G01*
G75*
G01X66400Y52300D02*
G02X66550Y52450I150J0D01*
G01*
G75*
G01X63600Y50700D02*
G02X63450Y50550I-150J0D01*
G01*
G75*
G01X62400Y50700D02*
G03X62550Y50550I150J0D01*
G01*
G75*
G01X63600Y52300D02*
G03X63450Y52450I-150J0D01*
G01*
G75*
G01X62400Y52300D02*
G02X62550Y52450I150J0D01*
G01*
G75*
G01X65600Y50700D02*
G02X65450Y50550I-150J0D01*
G01*
G75*
G01X64400Y50700D02*
G03X64550Y50550I150J0D01*
G01*
G75*
G01X65600Y52300D02*
G03X65450Y52450I-150J0D01*
G01*
G75*
G01X64400Y52300D02*
G02X64550Y52450I150J0D01*
G01*
G75*
G01X26200Y50900D02*
G02X26050Y51050I0J150D01*
G01*
G75*
G01X26200Y52100D02*
G03X26050Y51950I0J-150D01*
G01*
G75*
G01X27800Y50900D02*
G03X27950Y51050I0J150D01*
G01*
G75*
G01X27800Y52100D02*
G02X27950Y51950I0J-150D01*
G01*
G75*
G01X26200Y48900D02*
G02X26050Y49050I0J150D01*
G01*
G75*
G01X26200Y50100D02*
G03X26050Y49950I0J-150D01*
G01*
G75*
G01X27800Y48900D02*
G03X27950Y49050I0J150D01*
G01*
G75*
G01X27800Y50100D02*
G02X27950Y49950I0J-150D01*
G01*
G75*
G01X26200Y46900D02*
G02X26050Y47050I0J150D01*
G01*
G75*
G01X26200Y48100D02*
G03X26050Y47950I0J-150D01*
G01*
G75*
G01X27800Y46900D02*
G03X27950Y47050I0J150D01*
G01*
G75*
G01X27800Y48100D02*
G02X27950Y47950I0J-150D01*
G01*
G75*
G01X63100Y21200D02*
G02X62950Y21050I-150J0D01*
G01*
G75*
G01X61900Y21200D02*
G03X62050Y21050I150J0D01*
G01*
G75*
G01X63100Y22800D02*
G03X62950Y22950I-150J0D01*
G01*
G75*
G01X61900Y22800D02*
G02X62050Y22950I150J0D01*
G01*
G75*
G01X61100Y21200D02*
G02X60950Y21050I-150J0D01*
G01*
G75*
G01X59900Y21200D02*
G03X60050Y21050I150J0D01*
G01*
G75*
G01X61100Y22800D02*
G03X60950Y22950I-150J0D01*
G01*
G75*
G01X59900Y22800D02*
G02X60050Y22950I150J0D01*
G01*
G75*
G01X59100Y21200D02*
G02X58950Y21050I-150J0D01*
G01*
G75*
G01X57900Y21200D02*
G03X58050Y21050I150J0D01*
G01*
G75*
G01X59100Y22800D02*
G03X58950Y22950I-150J0D01*
G01*
G75*
G01X57900Y22800D02*
G02X58050Y22950I150J0D01*
G01*
G75*
G01X69100Y21200D02*
G02X68950Y21050I-150J0D01*
G01*
G75*
G01X67900Y21200D02*
G03X68050Y21050I150J0D01*
G01*
G75*
G01X69100Y22800D02*
G03X68950Y22950I-150J0D01*
G01*
G75*
G01X67900Y22800D02*
G02X68050Y22950I150J0D01*
G01*
G75*
G01X67100Y21200D02*
G02X66950Y21050I-150J0D01*
G01*
G75*
G01X65900Y21200D02*
G03X66050Y21050I150J0D01*
G01*
G75*
G01X67100Y22800D02*
G03X66950Y22950I-150J0D01*
G01*
G75*
G01X65900Y22800D02*
G02X66050Y22950I150J0D01*
G01*
G75*
G01X65100Y21200D02*
G02X64950Y21050I-150J0D01*
G01*
G75*
G01X63900Y21200D02*
G03X64050Y21050I150J0D01*
G01*
G75*
G01X65100Y22800D02*
G03X64950Y22950I-150J0D01*
G01*
G75*
G01X63900Y22800D02*
G02X64050Y22950I150J0D01*
G01*
G54D14*
G75*
G01X136914Y47691D02*
G02X136914Y47694I-200J2D01*
G01*
G75*
G01X110064Y16085D02*
G02X110067Y16085I2J200D01*
G01*
G54D60*
G75*
G01X100300Y76500D02*
G02X100450Y76350I0J-150D01*
G01*
G75*
G01X100300Y75300D02*
G03X100450Y75450I0J150D01*
G01*
G75*
G01X98700Y76500D02*
G03X98550Y76350I0J-150D01*
G01*
G75*
G01X98700Y75300D02*
G02X98550Y75450I0J150D01*
G01*
G75*
G01X132000Y48400D02*
G02X132150Y48550I150J0D01*
G01*
G75*
G01X133200Y48400D02*
G03X133050Y48550I-150J0D01*
G01*
G75*
G01X132000Y46800D02*
G03X132150Y46650I150J0D01*
G01*
G75*
G01X133200Y46800D02*
G02X133050Y46650I-150J0D01*
G01*
G75*
G01X131600Y47200D02*
G02X131450Y47050I-150J0D01*
G01*
G75*
G01X130400Y47200D02*
G03X130550Y47050I150J0D01*
G01*
G75*
G01X131600Y48800D02*
G03X131450Y48950I-150J0D01*
G01*
G75*
G01X130400Y48800D02*
G02X130550Y48950I150J0D01*
G01*
G75*
G01X132000Y50800D02*
G02X132150Y50950I150J0D01*
G01*
G75*
G01X133200Y50800D02*
G03X133050Y50950I-150J0D01*
G01*
G75*
G01X132000Y49200D02*
G03X132150Y49050I150J0D01*
G01*
G75*
G01X133200Y49200D02*
G02X133050Y49050I-150J0D01*
G01*
G75*
G01X131600Y50000D02*
G02X131450Y49850I-150J0D01*
G01*
G75*
G01X130400Y50000D02*
G03X130550Y49850I150J0D01*
G01*
G75*
G01X131600Y51600D02*
G03X131450Y51750I-150J0D01*
G01*
G75*
G01X130400Y51600D02*
G02X130550Y51750I150J0D01*
G01*
G75*
G01X132000Y53600D02*
G02X132150Y53750I150J0D01*
G01*
G75*
G01X133200Y53600D02*
G03X133050Y53750I-150J0D01*
G01*
G75*
G01X132000Y52000D02*
G03X132150Y51850I150J0D01*
G01*
G75*
G01X133200Y52000D02*
G02X133050Y51850I-150J0D01*
G01*
G75*
G01X131600Y52800D02*
G02X131450Y52650I-150J0D01*
G01*
G75*
G01X130400Y52800D02*
G03X130550Y52650I150J0D01*
G01*
G75*
G01X131600Y54400D02*
G03X131450Y54550I-150J0D01*
G01*
G75*
G01X130400Y54400D02*
G02X130550Y54550I150J0D01*
G01*
G75*
G01X132000Y56000D02*
G02X132150Y56150I150J0D01*
G01*
G75*
G01X133200Y56000D02*
G03X133050Y56150I-150J0D01*
G01*
G75*
G01X132000Y54400D02*
G03X132150Y54250I150J0D01*
G01*
G75*
G01X133200Y54400D02*
G02X133050Y54250I-150J0D01*
G01*
G75*
G01X131600Y55200D02*
G02X131450Y55050I-150J0D01*
G01*
G75*
G01X130400Y55200D02*
G03X130550Y55050I150J0D01*
G01*
G75*
G01X131600Y56800D02*
G03X131450Y56950I-150J0D01*
G01*
G75*
G01X130400Y56800D02*
G02X130550Y56950I150J0D01*
G01*
G75*
G01X110573Y20999D02*
G02X110723Y20849I0J-150D01*
G01*
G75*
G01X110573Y19799D02*
G03X110723Y19949I0J150D01*
G01*
G75*
G01X108973Y20999D02*
G03X108823Y20849I0J-150D01*
G01*
G75*
G01X108973Y19799D02*
G02X108823Y19949I0J150D01*
G01*
G75*
G01X109773Y21399D02*
G02X109623Y21549I0J150D01*
G01*
G75*
G01X109773Y22599D02*
G03X109623Y22449I0J-150D01*
G01*
G75*
G01X111373Y21399D02*
G03X111523Y21549I0J150D01*
G01*
G75*
G01X111373Y22599D02*
G02X111523Y22449I0J-150D01*
G01*
G75*
G01X113373Y20999D02*
G02X113523Y20849I0J-150D01*
G01*
G75*
G01X113373Y19799D02*
G03X113523Y19949I0J150D01*
G01*
G75*
G01X111773Y20999D02*
G03X111623Y20849I0J-150D01*
G01*
G75*
G01X111773Y19799D02*
G02X111623Y19949I0J150D01*
G01*
G75*
G01X112173Y21399D02*
G02X112023Y21549I0J150D01*
G01*
G75*
G01X112173Y22599D02*
G03X112023Y22449I0J-150D01*
G01*
G75*
G01X113773Y21399D02*
G03X113923Y21549I0J150D01*
G01*
G75*
G01X113773Y22599D02*
G02X113923Y22449I0J-150D01*
G01*
G75*
G01X115773Y20999D02*
G02X115923Y20849I0J-150D01*
G01*
G75*
G01X115773Y19799D02*
G03X115923Y19949I0J150D01*
G01*
G75*
G01X114173Y20999D02*
G03X114023Y20849I0J-150D01*
G01*
G75*
G01X114173Y19799D02*
G02X114023Y19949I0J150D01*
G01*
G75*
G01X114973Y21399D02*
G02X114823Y21549I0J150D01*
G01*
G75*
G01X114973Y22599D02*
G03X114823Y22449I0J-150D01*
G01*
G75*
G01X116573Y21399D02*
G03X116723Y21549I0J150D01*
G01*
G75*
G01X116573Y22599D02*
G02X116723Y22449I0J-150D01*
G01*
G75*
G01X118173Y20999D02*
G02X118323Y20849I0J-150D01*
G01*
G75*
G01X118173Y19799D02*
G03X118323Y19949I0J150D01*
G01*
G75*
G01X116573Y20999D02*
G03X116423Y20849I0J-150D01*
G01*
G75*
G01X116573Y19799D02*
G02X116423Y19949I0J150D01*
G01*
G75*
G01X117500Y21400D02*
G02X117350Y21550I0J150D01*
G01*
G75*
G01X117500Y22600D02*
G03X117350Y22450I0J-150D01*
G01*
G75*
G01X119100Y21400D02*
G03X119250Y21550I0J150D01*
G01*
G75*
G01X119100Y22600D02*
G02X119250Y22450I0J-150D01*
G01*
G54D11*
G75*
G01X22870Y69900D02*
G03X22870Y71080I45J590D01*
G01*
G54D29*
G75*
G01X51299Y52975D02*
G02X51294Y52975I-2J-300D01*
G01*
G54D62*
G75*
G01X52399Y50249D02*
G02X52397Y50249I-1J-150D01*
G01*
G54D60*
G75*
G01X22400Y30800D02*
G02X22550Y30950I150J0D01*
G01*
G75*
G01X23600Y30800D02*
G03X23450Y30950I-150J0D01*
G01*
G75*
G01X22400Y29200D02*
G03X22550Y29050I150J0D01*
G01*
G75*
G01X23600Y29200D02*
G02X23450Y29050I-150J0D01*
G01*
G75*
G01X20900Y29800D02*
G02X21050Y29950I150J0D01*
G01*
G75*
G01X22100Y29800D02*
G03X21950Y29950I-150J0D01*
G01*
G75*
G01X20900Y28200D02*
G03X21050Y28050I150J0D01*
G01*
G75*
G01X22100Y28200D02*
G02X21950Y28050I-150J0D01*
G01*
G54D62*
G75*
G01X108050Y74400D02*
G02X108050Y74397I150J-1D01*
G01*
G54D11*
G75*
G01X134700Y68000D02*
G03X134700Y68000I-2700J0D01*
G01*
G75*
G01X134700Y74000D02*
G03X134700Y74000I-2700J0D01*
G01*
G75*
G01X90263Y74508D02*
G03X90263Y74508I-254J0D01*
G01*
G75*
G01X94703Y72749D02*
G03X94703Y72749I-127J0D01*
G01*
G54D14*
G75*
G01X50192Y74737D02*
G03X50192Y74737I-201J0D01*
G01*
G75*
G01X34190Y74737D02*
G03X34190Y74737I-201J0D01*
G01*
G54D11*
G75*
G01X22960Y74150D02*
G03X22960Y74150I-190J0D01*
G01*
G75*
G01X121607Y73045D02*
G03X121607Y73045I-254J0D01*
G01*
G75*
G01X117657Y34156D02*
G03X117657Y34156I-63J0D01*
G01*
G75*
G01X77657Y22156D02*
G03X77657Y22156I-63J0D01*
G01*
G75*
G01X97657Y24156D02*
G03X97657Y24156I-63J0D01*
G01*
G75*
G01X77657Y42156D02*
G03X77657Y42156I-63J0D01*
G01*
G75*
G01X77657Y62156D02*
G03X77657Y62156I-63J0D01*
G01*
G75*
G01X117657Y54156D02*
G03X117657Y54156I-63J0D01*
G01*
G75*
G01X97657Y64156D02*
G03X97657Y64156I-63J0D01*
G01*
G75*
G01X97657Y44156D02*
G03X97657Y44156I-63J0D01*
G01*
G75*
G01X82908Y72593D02*
G03X82908Y72593I-63J0D01*
G01*
G75*
G01X18656Y21156D02*
G03X18656Y21156I-63J0D01*
G01*
G75*
G01X88500Y55000D02*
G03X88500Y55000I-4000J0D01*
G01*
G75*
G01X128500Y58500D02*
G03X128500Y58500I-4000J0D01*
G01*
G75*
G01X133000Y16500D02*
G03X133000Y16500I-4000J0D01*
G01*
G75*
G01X33500Y22000D02*
G03X33500Y22000I-4000J0D01*
G01*
G75*
G01X27000Y59000D02*
G03X27000Y59000I-4000J0D01*
G01*

%LPD*%
G36*
G01X134400Y69399D02*
G01X133000Y70499D01*
G01X133000Y65499D01*
G01X133800Y65899D01*
G01X134700Y67299D01*
G01X134400Y69399D01*
G37*

%LPD*%
G36*
G01X134500Y73000D02*
G01X129500Y73000D01*
G01X129900Y72200D01*
G01X131300Y71300D01*
G01X133400Y71600D01*
G01X134500Y73000D01*
G37*
M00*
M02*
