G04 Layer: BottomSolderMaskLayer*
G04 EasyEDA v6.3.30, 2020-03-21T18:53:40+08:00*
G04 c5f63f6c624d440bb2292f988f7b391a,d4aa0ff59f9544bb86dfcbd96f28fb4a,05*
G04 Gerber Generator version 0.2*
G04 Scale: 100 percent, Rotated: No, Reflected: No *
G04 Dimensions in millimeters *
G04 leading zeros omitted , absolute positions ,3 integer and 3 decimal *
%FSLAX33Y33*%
%MOMM*%
G90*
G71D02*

%ADD64C,1.203198*%
%ADD66C,1.503197*%
%ADD67C,1.727200*%
%ADD71C,1.778000*%
%ADD72C,1.295400*%
%ADD73C,0.803199*%
%ADD74C,0.853211*%
%ADD75C,0.483210*%
%ADD78R,1.003198X0.703199*%
%ADD81R,2.103196X2.603195*%
%ADD87R,1.203198X1.203198*%
%ADD91R,0.603199X3.203194*%

%LPD*%
G54D64*
G01X78098Y75600D02*
G01X77899Y75600D01*
G01X76099Y75600D02*
G01X75900Y75600D01*
G01X74100Y75600D02*
G01X73901Y75600D01*
G01X71900Y75200D02*
G01X71900Y76000D01*
G01X80099Y75200D02*
G01X80099Y76000D01*
G01X63640Y76014D02*
G01X63640Y77014D01*
G01X56401Y76014D02*
G01X56401Y77014D01*
G54D73*
G01X141571Y57444D02*
G01X142771Y57444D01*
G01X141571Y56174D02*
G01X142771Y56174D01*
G01X141571Y54904D02*
G01X142771Y54904D01*
G01X141571Y53634D02*
G01X142771Y53634D01*
G01X141571Y52364D02*
G01X142771Y52364D01*
G01X141571Y51094D02*
G01X142771Y51094D01*
G01X141571Y49824D02*
G01X142771Y49824D01*
G01X141571Y48554D02*
G01X142771Y48554D01*
G01X135628Y57444D02*
G01X136828Y57444D01*
G01X135628Y56174D02*
G01X136828Y56174D01*
G01X135628Y54904D02*
G01X136828Y54904D01*
G01X135628Y53634D02*
G01X136828Y53634D01*
G01X135628Y52364D02*
G01X136828Y52364D01*
G01X135628Y51094D02*
G01X136828Y51094D01*
G01X135628Y49824D02*
G01X136828Y49824D01*
G01X135628Y48554D02*
G01X136828Y48554D01*
G01X119817Y11427D02*
G01X119817Y10227D01*
G01X118547Y11427D02*
G01X118547Y10227D01*
G01X117277Y11427D02*
G01X117277Y10227D01*
G01X116007Y11427D02*
G01X116007Y10227D01*
G01X114737Y11427D02*
G01X114737Y10227D01*
G01X113467Y11427D02*
G01X113467Y10227D01*
G01X112197Y11427D02*
G01X112197Y10227D01*
G01X110927Y11427D02*
G01X110927Y10227D01*
G01X119817Y17370D02*
G01X119817Y16170D01*
G01X118547Y17370D02*
G01X118547Y16170D01*
G01X117277Y17370D02*
G01X117277Y16170D01*
G01X116007Y17370D02*
G01X116007Y16170D01*
G01X114737Y17370D02*
G01X114737Y16170D01*
G01X113467Y17370D02*
G01X113467Y16170D01*
G01X112197Y17370D02*
G01X112197Y16170D01*
G01X110927Y17370D02*
G01X110927Y16170D01*
G54D66*
G01X137149Y74000D02*
G01X137149Y74700D01*
G01X142850Y74000D02*
G01X142850Y74700D01*
G01X137149Y70800D02*
G01X137149Y71500D01*
G01X137149Y67300D02*
G01X137149Y68000D01*
G01X142850Y67300D02*
G01X142850Y68000D01*
G54D74*
G01X27404Y67324D02*
G01X27404Y66274D01*
G01X26134Y67324D02*
G01X26134Y66274D01*
G01X24864Y67324D02*
G01X24864Y66274D01*
G01X23594Y67324D02*
G01X23594Y66274D01*
G01X27404Y74724D02*
G01X27404Y73675D01*
G01X26134Y74724D02*
G01X26134Y73675D01*
G01X24864Y74724D02*
G01X24864Y73675D01*
G01X23594Y74724D02*
G01X23594Y73675D01*
G54D75*
G01X54309Y52250D02*
G01X52789Y52250D01*
G01X54309Y52750D02*
G01X52789Y52750D01*
G01X54309Y53250D02*
G01X52789Y53250D01*
G01X54309Y53750D02*
G01X52789Y53750D01*
G01X54309Y54250D02*
G01X52789Y54250D01*
G01X54309Y54750D02*
G01X52789Y54750D01*
G01X54309Y55250D02*
G01X52789Y55250D01*
G01X54309Y55750D02*
G01X52789Y55750D01*
G01X54309Y56250D02*
G01X52789Y56250D01*
G01X54309Y56750D02*
G01X52789Y56750D01*
G01X54309Y57250D02*
G01X52789Y57250D01*
G01X54309Y57750D02*
G01X52789Y57750D01*
G01X54309Y58250D02*
G01X52789Y58250D01*
G01X54309Y58750D02*
G01X52789Y58750D01*
G01X54309Y59250D02*
G01X52789Y59250D01*
G01X54309Y59750D02*
G01X52789Y59750D01*
G01X51750Y60790D02*
G01X51750Y62310D01*
G01X51249Y60790D02*
G01X51249Y62310D01*
G01X50750Y60790D02*
G01X50750Y62310D01*
G01X50249Y60790D02*
G01X50249Y62310D01*
G01X49750Y60790D02*
G01X49750Y62310D01*
G01X49249Y60790D02*
G01X49249Y62310D01*
G01X48750Y60790D02*
G01X48750Y62310D01*
G01X48249Y60790D02*
G01X48249Y62310D01*
G01X47750Y60790D02*
G01X47750Y62310D01*
G01X47249Y60790D02*
G01X47249Y62310D01*
G01X46750Y60790D02*
G01X46750Y62310D01*
G01X46249Y60790D02*
G01X46249Y62310D01*
G01X45750Y60790D02*
G01X45750Y62310D01*
G01X45249Y60790D02*
G01X45249Y62310D01*
G01X44750Y60790D02*
G01X44750Y62310D01*
G01X44250Y60790D02*
G01X44250Y62310D01*
G01X43210Y59750D02*
G01X41690Y59750D01*
G01X43210Y59250D02*
G01X41690Y59250D01*
G01X43210Y58750D02*
G01X41690Y58750D01*
G01X43210Y58250D02*
G01X41690Y58250D01*
G01X43210Y57750D02*
G01X41690Y57750D01*
G01X43210Y57250D02*
G01X41690Y57250D01*
G01X43210Y56750D02*
G01X41690Y56750D01*
G01X43210Y56250D02*
G01X41690Y56250D01*
G01X43210Y55750D02*
G01X41690Y55750D01*
G01X43210Y55250D02*
G01X41690Y55250D01*
G01X43210Y54750D02*
G01X41690Y54750D01*
G01X43210Y54250D02*
G01X41690Y54250D01*
G01X43210Y53750D02*
G01X41690Y53750D01*
G01X43210Y53250D02*
G01X41690Y53250D01*
G01X43210Y52750D02*
G01X41690Y52750D01*
G01X43210Y52250D02*
G01X41690Y52250D01*
G01X44250Y49690D02*
G01X44250Y51210D01*
G01X44750Y49690D02*
G01X44750Y51210D01*
G01X45249Y49690D02*
G01X45249Y51210D01*
G01X45750Y49690D02*
G01X45750Y51210D01*
G01X46249Y49690D02*
G01X46249Y51210D01*
G01X46750Y49690D02*
G01X46750Y51210D01*
G01X47249Y49690D02*
G01X47249Y51210D01*
G01X47750Y49690D02*
G01X47750Y51210D01*
G01X48249Y49690D02*
G01X48249Y51210D01*
G01X48750Y49690D02*
G01X48750Y51210D01*
G01X49249Y49690D02*
G01X49249Y51210D01*
G01X49750Y49690D02*
G01X49750Y51210D01*
G01X50249Y49690D02*
G01X50249Y51210D01*
G01X50750Y49690D02*
G01X50750Y51210D01*
G01X51249Y49690D02*
G01X51249Y51210D01*
G01X51750Y49690D02*
G01X51750Y51210D01*
G54D67*
G01X34000Y75000D03*
G01X50000Y74900D03*
G36*
G01X109321Y62373D02*
G01X109321Y63227D01*
G01X110126Y63227D01*
G01X110126Y62373D01*
G01X109321Y62373D01*
G37*
G36*
G01X108473Y62373D02*
G01X108473Y63227D01*
G01X109278Y63227D01*
G01X109278Y62373D01*
G01X108473Y62373D01*
G37*
G36*
G01X107172Y76023D02*
G01X107172Y76826D01*
G01X108026Y76826D01*
G01X108026Y76023D01*
G01X107172Y76023D01*
G37*
G36*
G01X107172Y75175D02*
G01X107172Y75978D01*
G01X108026Y75978D01*
G01X108026Y75175D01*
G01X107172Y75175D01*
G37*
G36*
G01X108622Y63473D02*
G01X108622Y64327D01*
G01X109425Y64327D01*
G01X109425Y63473D01*
G01X108622Y63473D01*
G37*
G36*
G01X107774Y63473D02*
G01X107774Y64327D01*
G01X108577Y64327D01*
G01X108577Y63473D01*
G01X107774Y63473D01*
G37*
G36*
G01X53398Y75249D02*
G01X53398Y75952D01*
G01X54401Y75952D01*
G01X54401Y75249D01*
G01X53398Y75249D01*
G37*
G36*
G01X53398Y76247D02*
G01X53398Y76950D01*
G01X54401Y76950D01*
G01X54401Y76247D01*
G01X53398Y76247D01*
G37*
G36*
G01X101848Y76597D02*
G01X101848Y77601D01*
G01X102552Y77601D01*
G01X102552Y76597D01*
G01X101848Y76597D01*
G37*
G36*
G01X100848Y76597D02*
G01X100848Y77601D01*
G01X101551Y77601D01*
G01X101551Y76597D01*
G01X100848Y76597D01*
G37*
G36*
G01X29847Y75797D02*
G01X29847Y76800D01*
G01X30551Y76800D01*
G01X30551Y75797D01*
G01X29847Y75797D01*
G37*
G36*
G01X30848Y75797D02*
G01X30848Y76800D01*
G01X31551Y76800D01*
G01X31551Y75797D01*
G01X30848Y75797D01*
G37*
G36*
G01X125900Y64624D02*
G01X125900Y66376D01*
G01X127101Y66376D01*
G01X127101Y64624D01*
G01X125900Y64624D01*
G37*
G36*
G01X127899Y64624D02*
G01X127899Y66376D01*
G01X129103Y66376D01*
G01X129103Y64624D01*
G01X127899Y64624D01*
G37*
G54D81*
G01X50950Y46500D03*
G36*
G01X53997Y45198D02*
G01X53997Y47801D01*
G01X56100Y47801D01*
G01X56100Y45198D01*
G01X53997Y45198D01*
G37*
G54D66*
G01X131000Y68000D03*
G01X133000Y68000D03*
G01X132000Y74999D03*
G01X132000Y72999D03*
G36*
G01X62621Y66242D02*
G01X62621Y68020D01*
G01X64399Y68020D01*
G01X64399Y66242D01*
G01X62621Y66242D01*
G37*
G54D71*
G01X63510Y69669D03*
G01X60970Y67129D03*
G01X60970Y69669D03*
G01X58430Y67129D03*
G01X58430Y69669D03*
G01X55890Y67129D03*
G01X55890Y69669D03*
G36*
G01X60982Y71926D02*
G01X60982Y74131D01*
G01X61635Y74131D01*
G01X61635Y71926D01*
G01X60982Y71926D01*
G37*
G36*
G01X60332Y71926D02*
G01X60332Y74131D01*
G01X60987Y74131D01*
G01X60987Y71926D01*
G01X60332Y71926D01*
G37*
G36*
G01X59682Y71926D02*
G01X59682Y74131D01*
G01X60337Y74131D01*
G01X60337Y71926D01*
G01X59682Y71926D01*
G37*
G36*
G01X59034Y71926D02*
G01X59034Y74131D01*
G01X59687Y74131D01*
G01X59687Y71926D01*
G01X59034Y71926D01*
G37*
G36*
G01X58384Y71926D02*
G01X58384Y74131D01*
G01X59037Y74131D01*
G01X59037Y71926D01*
G01X58384Y71926D01*
G37*
G36*
G01X60713Y76638D02*
G01X60713Y78043D01*
G01X62516Y78043D01*
G01X62516Y76638D01*
G01X60713Y76638D01*
G37*
G36*
G01X57436Y76623D02*
G01X57436Y78025D01*
G01X59240Y78025D01*
G01X59240Y76623D01*
G01X57436Y76623D01*
G37*
G54D72*
G01X57579Y73859D03*
G01X62430Y73839D03*
G36*
G01X91582Y72051D02*
G01X91582Y73054D01*
G01X92295Y73054D01*
G01X92295Y72051D01*
G01X91582Y72051D01*
G37*
G36*
G01X90642Y72051D02*
G01X90642Y73054D01*
G01X91356Y73054D01*
G01X91356Y72051D01*
G01X90642Y72051D01*
G37*
G36*
G01X89702Y72051D02*
G01X89702Y73054D01*
G01X90416Y73054D01*
G01X90416Y72051D01*
G01X89702Y72051D01*
G37*
G36*
G01X89702Y74946D02*
G01X89702Y75950D01*
G01X90416Y75950D01*
G01X90416Y74946D01*
G01X89702Y74946D01*
G37*
G36*
G01X90642Y74946D02*
G01X90642Y75950D01*
G01X91356Y75950D01*
G01X91356Y74946D01*
G01X90642Y74946D01*
G37*
G36*
G01X91582Y74946D02*
G01X91582Y75950D01*
G01X92295Y75950D01*
G01X92295Y74946D01*
G01X91582Y74946D01*
G37*
G36*
G01X87175Y72574D02*
G01X87175Y73425D01*
G01X87977Y73425D01*
G01X87977Y72574D01*
G01X87175Y72574D01*
G37*
G36*
G01X88023Y72574D02*
G01X88023Y73425D01*
G01X88826Y73425D01*
G01X88826Y72574D01*
G01X88023Y72574D01*
G37*
G36*
G01X90675Y76074D02*
G01X90675Y76925D01*
G01X91477Y76925D01*
G01X91477Y76074D01*
G01X90675Y76074D01*
G37*
G36*
G01X91523Y76074D02*
G01X91523Y76925D01*
G01X92326Y76925D01*
G01X92326Y76074D01*
G01X91523Y76074D01*
G37*
G36*
G01X87175Y73572D02*
G01X87175Y74426D01*
G01X87977Y74426D01*
G01X87977Y73572D01*
G01X87175Y73572D01*
G37*
G36*
G01X88023Y73572D02*
G01X88023Y74426D01*
G01X88826Y74426D01*
G01X88826Y73572D01*
G01X88023Y73572D01*
G37*
G36*
G01X127523Y70273D02*
G01X127523Y71126D01*
G01X128325Y71126D01*
G01X128325Y70273D01*
G01X127523Y70273D01*
G37*
G36*
G01X126674Y70273D02*
G01X126674Y71126D01*
G01X127477Y71126D01*
G01X127477Y70273D01*
G01X126674Y70273D01*
G37*
G36*
G01X127523Y69173D02*
G01X127523Y70026D01*
G01X128325Y70026D01*
G01X128325Y69173D01*
G01X127523Y69173D01*
G37*
G36*
G01X126674Y69173D02*
G01X126674Y70026D01*
G01X127477Y70026D01*
G01X127477Y69173D01*
G01X126674Y69173D01*
G37*
G36*
G01X127523Y66973D02*
G01X127523Y67827D01*
G01X128325Y67827D01*
G01X128325Y66973D01*
G01X127523Y66973D01*
G37*
G36*
G01X126674Y66973D02*
G01X126674Y67827D01*
G01X127477Y67827D01*
G01X127477Y66973D01*
G01X126674Y66973D01*
G37*
G36*
G01X127523Y68073D02*
G01X127523Y68926D01*
G01X128325Y68926D01*
G01X128325Y68073D01*
G01X127523Y68073D01*
G37*
G36*
G01X126674Y68073D02*
G01X126674Y68926D01*
G01X127477Y68926D01*
G01X127477Y68073D01*
G01X126674Y68073D01*
G37*
G36*
G01X105674Y67872D02*
G01X105674Y68726D01*
G01X106476Y68726D01*
G01X106476Y67872D01*
G01X105674Y67872D01*
G37*
G36*
G01X106522Y67872D02*
G01X106522Y68726D01*
G01X107325Y68726D01*
G01X107325Y67872D01*
G01X106522Y67872D01*
G37*
G36*
G01X105874Y66773D02*
G01X105874Y67626D01*
G01X106677Y67626D01*
G01X106677Y66773D01*
G01X105874Y66773D01*
G37*
G36*
G01X106723Y66773D02*
G01X106723Y67626D01*
G01X107525Y67626D01*
G01X107525Y66773D01*
G01X106723Y66773D01*
G37*
G36*
G01X107921Y64573D02*
G01X107921Y65426D01*
G01X108724Y65426D01*
G01X108724Y64573D01*
G01X107921Y64573D01*
G37*
G36*
G01X107073Y64573D02*
G01X107073Y65426D01*
G01X107876Y65426D01*
G01X107876Y64573D01*
G01X107073Y64573D01*
G37*
G36*
G01X107322Y65673D02*
G01X107322Y66526D01*
G01X108125Y66526D01*
G01X108125Y65673D01*
G01X107322Y65673D01*
G37*
G36*
G01X106474Y65673D02*
G01X106474Y66526D01*
G01X107276Y66526D01*
G01X107276Y65673D01*
G01X106474Y65673D01*
G37*
G36*
G01X106072Y76023D02*
G01X106072Y76826D01*
G01X106926Y76826D01*
G01X106926Y76023D01*
G01X106072Y76023D01*
G37*
G36*
G01X106072Y75175D02*
G01X106072Y75978D01*
G01X106926Y75978D01*
G01X106926Y75175D01*
G01X106072Y75175D01*
G37*
G36*
G01X144073Y71675D02*
G01X144073Y72477D01*
G01X144927Y72477D01*
G01X144927Y71675D01*
G01X144073Y71675D01*
G37*
G36*
G01X144073Y72523D02*
G01X144073Y73326D01*
G01X144927Y73326D01*
G01X144927Y72523D01*
G01X144073Y72523D01*
G37*
G36*
G01X134716Y70613D02*
G01X134114Y71218D01*
G01X134683Y71784D01*
G01X135285Y71182D01*
G01X134716Y70613D01*
G37*
G36*
G01X135318Y71215D02*
G01X134713Y71817D01*
G01X135282Y72386D01*
G01X135884Y71781D01*
G01X135318Y71215D01*
G37*
G36*
G01X138673Y58573D02*
G01X138673Y59427D01*
G01X139476Y59427D01*
G01X139476Y58573D01*
G01X138673Y58573D01*
G37*
G36*
G01X139522Y58573D02*
G01X139522Y59427D01*
G01X140324Y59427D01*
G01X140324Y58573D01*
G01X139522Y58573D01*
G37*
G36*
G01X134223Y46973D02*
G01X134223Y47827D01*
G01X135026Y47827D01*
G01X135026Y46973D01*
G01X134223Y46973D01*
G37*
G36*
G01X133375Y46973D02*
G01X133375Y47827D01*
G01X134177Y47827D01*
G01X134177Y46973D01*
G01X133375Y46973D01*
G37*
G36*
G01X134223Y49374D02*
G01X134223Y50227D01*
G01X135026Y50227D01*
G01X135026Y49374D01*
G01X134223Y49374D01*
G37*
G36*
G01X133375Y49374D02*
G01X133375Y50227D01*
G01X134177Y50227D01*
G01X134177Y49374D01*
G01X133375Y49374D01*
G37*
G36*
G01X134223Y51972D02*
G01X134223Y52825D01*
G01X135026Y52825D01*
G01X135026Y51972D01*
G01X134223Y51972D01*
G37*
G36*
G01X133375Y51972D02*
G01X133375Y52825D01*
G01X134177Y52825D01*
G01X134177Y51972D01*
G01X133375Y51972D01*
G37*
G36*
G01X121074Y12023D02*
G01X121074Y12825D01*
G01X121927Y12825D01*
G01X121927Y12023D01*
G01X121074Y12023D01*
G37*
G36*
G01X121074Y11174D02*
G01X121074Y11977D01*
G01X121927Y11977D01*
G01X121927Y11174D01*
G01X121074Y11174D01*
G37*
G36*
G01X134223Y54573D02*
G01X134223Y55426D01*
G01X135026Y55426D01*
G01X135026Y54573D01*
G01X134223Y54573D01*
G37*
G36*
G01X133375Y54573D02*
G01X133375Y55426D01*
G01X134177Y55426D01*
G01X134177Y54573D01*
G01X133375Y54573D01*
G37*
G36*
G01X109146Y17972D02*
G01X109146Y18777D01*
G01X109999Y18777D01*
G01X109999Y17972D01*
G01X109146Y17972D01*
G37*
G36*
G01X109146Y18820D02*
G01X109146Y19625D01*
G01X109999Y19625D01*
G01X109999Y18820D01*
G01X109146Y18820D01*
G37*
G36*
G01X111747Y17972D02*
G01X111747Y18777D01*
G01X112600Y18777D01*
G01X112600Y17972D01*
G01X111747Y17972D01*
G37*
G36*
G01X111747Y18820D02*
G01X111747Y19625D01*
G01X112600Y19625D01*
G01X112600Y18820D01*
G01X111747Y18820D01*
G37*
G36*
G01X114345Y17972D02*
G01X114345Y18777D01*
G01X115199Y18777D01*
G01X115199Y17972D01*
G01X114345Y17972D01*
G37*
G36*
G01X114345Y18820D02*
G01X114345Y19625D01*
G01X115199Y19625D01*
G01X115199Y18820D01*
G01X114345Y18820D01*
G37*
G36*
G01X88023Y74573D02*
G01X88023Y75426D01*
G01X88826Y75426D01*
G01X88826Y74573D01*
G01X88023Y74573D01*
G37*
G36*
G01X87175Y74573D02*
G01X87175Y75426D01*
G01X87977Y75426D01*
G01X87977Y74573D01*
G01X87175Y74573D01*
G37*
G36*
G01X88023Y75574D02*
G01X88023Y76427D01*
G01X88826Y76427D01*
G01X88826Y75574D01*
G01X88023Y75574D01*
G37*
G36*
G01X87175Y75574D02*
G01X87175Y76427D01*
G01X87977Y76427D01*
G01X87977Y75574D01*
G01X87175Y75574D01*
G37*
G36*
G01X134223Y55772D02*
G01X134223Y56625D01*
G01X135026Y56625D01*
G01X135026Y55772D01*
G01X134223Y55772D01*
G37*
G36*
G01X133375Y55772D02*
G01X133375Y56625D01*
G01X134177Y56625D01*
G01X134177Y55772D01*
G01X133375Y55772D01*
G37*
G36*
G01X110446Y17972D02*
G01X110446Y18777D01*
G01X111300Y18777D01*
G01X111300Y17972D01*
G01X110446Y17972D01*
G37*
G36*
G01X110446Y18820D02*
G01X110446Y19625D01*
G01X111300Y19625D01*
G01X111300Y18820D01*
G01X110446Y18820D01*
G37*
G36*
G01X113047Y17972D02*
G01X113047Y18777D01*
G01X113898Y18777D01*
G01X113898Y17972D01*
G01X113047Y17972D01*
G37*
G36*
G01X113047Y18820D02*
G01X113047Y19625D01*
G01X113898Y19625D01*
G01X113898Y18820D01*
G01X113047Y18820D01*
G37*
G36*
G01X115547Y17972D02*
G01X115547Y18777D01*
G01X116400Y18777D01*
G01X116400Y17972D01*
G01X115547Y17972D01*
G37*
G36*
G01X115547Y18820D02*
G01X115547Y19625D01*
G01X116400Y19625D01*
G01X116400Y18820D01*
G01X115547Y18820D01*
G37*
G36*
G01X134223Y48172D02*
G01X134223Y49026D01*
G01X135026Y49026D01*
G01X135026Y48172D01*
G01X134223Y48172D01*
G37*
G36*
G01X133375Y48172D02*
G01X133375Y49026D01*
G01X134177Y49026D01*
G01X134177Y48172D01*
G01X133375Y48172D01*
G37*
G36*
G01X134223Y50674D02*
G01X134223Y51525D01*
G01X135026Y51525D01*
G01X135026Y50674D01*
G01X134223Y50674D01*
G37*
G36*
G01X133375Y50674D02*
G01X133375Y51525D01*
G01X134177Y51525D01*
G01X134177Y50674D01*
G01X133375Y50674D01*
G37*
G36*
G01X134223Y53272D02*
G01X134223Y54126D01*
G01X135026Y54126D01*
G01X135026Y53272D01*
G01X134223Y53272D01*
G37*
G36*
G01X133375Y53272D02*
G01X133375Y54126D01*
G01X134177Y54126D01*
G01X134177Y53272D01*
G01X133375Y53272D01*
G37*
G36*
G01X116847Y17972D02*
G01X116847Y18777D01*
G01X117698Y18777D01*
G01X117698Y17972D01*
G01X116847Y17972D01*
G37*
G36*
G01X116847Y18820D02*
G01X116847Y19625D01*
G01X117698Y19625D01*
G01X117698Y18820D01*
G01X116847Y18820D01*
G37*
G36*
G01X118145Y17972D02*
G01X118145Y18777D01*
G01X118998Y18777D01*
G01X118998Y17972D01*
G01X118145Y17972D01*
G37*
G36*
G01X118145Y18820D02*
G01X118145Y19625D01*
G01X118998Y19625D01*
G01X118998Y18820D01*
G01X118145Y18820D01*
G37*
G36*
G01X88023Y71573D02*
G01X88023Y72427D01*
G01X88826Y72427D01*
G01X88826Y71573D01*
G01X88023Y71573D01*
G37*
G36*
G01X87175Y71573D02*
G01X87175Y72427D01*
G01X87977Y72427D01*
G01X87977Y71573D01*
G01X87175Y71573D01*
G37*
G36*
G01X31348Y65099D02*
G01X31348Y66300D01*
G01X32651Y66300D01*
G01X32651Y65099D01*
G01X31348Y65099D01*
G37*
G36*
G01X31348Y63699D02*
G01X31348Y64901D01*
G01X32651Y64901D01*
G01X32651Y63699D01*
G01X31348Y63699D01*
G37*
G36*
G01X51074Y65073D02*
G01X51074Y65927D01*
G01X51876Y65927D01*
G01X51876Y65073D01*
G01X51074Y65073D01*
G37*
G36*
G01X51922Y65073D02*
G01X51922Y65927D01*
G01X52725Y65927D01*
G01X52725Y65073D01*
G01X51922Y65073D01*
G37*
G36*
G01X49174Y65073D02*
G01X49174Y65927D01*
G01X49976Y65927D01*
G01X49976Y65073D01*
G01X49174Y65073D01*
G37*
G36*
G01X50022Y65073D02*
G01X50022Y65927D01*
G01X50825Y65927D01*
G01X50825Y65073D01*
G01X50022Y65073D01*
G37*
G36*
G01X47175Y65073D02*
G01X47175Y65927D01*
G01X47977Y65927D01*
G01X47977Y65073D01*
G01X47175Y65073D01*
G37*
G36*
G01X48023Y65073D02*
G01X48023Y65927D01*
G01X48826Y65927D01*
G01X48826Y65073D01*
G01X48023Y65073D01*
G37*
G36*
G01X45173Y65073D02*
G01X45173Y65927D01*
G01X45976Y65927D01*
G01X45976Y65073D01*
G01X45173Y65073D01*
G37*
G36*
G01X46022Y65073D02*
G01X46022Y65927D01*
G01X46824Y65927D01*
G01X46824Y65073D01*
G01X46022Y65073D01*
G37*
G36*
G01X33347Y63697D02*
G01X33347Y64901D01*
G01X34650Y64901D01*
G01X34650Y63697D01*
G01X33347Y63697D01*
G37*
G36*
G01X33347Y65099D02*
G01X33347Y66300D01*
G01X34650Y66300D01*
G01X34650Y65099D01*
G01X33347Y65099D01*
G37*
G36*
G01X99522Y74174D02*
G01X99522Y75025D01*
G01X100324Y75025D01*
G01X100324Y74174D01*
G01X99522Y74174D01*
G37*
G36*
G01X98673Y74174D02*
G01X98673Y75025D01*
G01X99476Y75025D01*
G01X99476Y74174D01*
G01X98673Y74174D01*
G37*
G36*
G01X93522Y76074D02*
G01X93522Y76925D01*
G01X94325Y76925D01*
G01X94325Y76074D01*
G01X93522Y76074D01*
G37*
G36*
G01X92674Y76074D02*
G01X92674Y76925D01*
G01X93476Y76925D01*
G01X93476Y76074D01*
G01X92674Y76074D01*
G37*
G36*
G01X98673Y73074D02*
G01X98673Y73925D01*
G01X99476Y73925D01*
G01X99476Y73074D01*
G01X98673Y73074D01*
G37*
G36*
G01X99522Y73074D02*
G01X99522Y73925D01*
G01X100324Y73925D01*
G01X100324Y73074D01*
G01X99522Y73074D01*
G37*
G36*
G01X21574Y70522D02*
G01X21574Y71324D01*
G01X22425Y71324D01*
G01X22425Y70522D01*
G01X21574Y70522D01*
G37*
G36*
G01X21574Y69673D02*
G01X21574Y70476D01*
G01X22425Y70476D01*
G01X22425Y69673D01*
G01X21574Y69673D01*
G37*
G36*
G01X28572Y75022D02*
G01X28572Y75825D01*
G01X29425Y75825D01*
G01X29425Y75022D01*
G01X28572Y75022D01*
G37*
G36*
G01X28572Y74174D02*
G01X28572Y74977D01*
G01X29425Y74977D01*
G01X29425Y74174D01*
G01X28572Y74174D01*
G37*
G36*
G01X21074Y30174D02*
G01X21074Y30976D01*
G01X21927Y30976D01*
G01X21927Y30174D01*
G01X21074Y30174D01*
G37*
G36*
G01X21074Y31022D02*
G01X21074Y31825D01*
G01X21927Y31825D01*
G01X21927Y31022D01*
G01X21074Y31022D01*
G37*
G36*
G01X47873Y47522D02*
G01X47873Y48325D01*
G01X48727Y48325D01*
G01X48727Y47522D01*
G01X47873Y47522D01*
G37*
G36*
G01X47873Y46674D02*
G01X47873Y47476D01*
G01X48727Y47476D01*
G01X48727Y46674D01*
G01X47873Y46674D01*
G37*
G36*
G01X41221Y50572D02*
G01X41221Y51426D01*
G01X42026Y51426D01*
G01X42026Y50572D01*
G01X41221Y50572D01*
G37*
G36*
G01X40373Y50572D02*
G01X40373Y51426D01*
G01X41178Y51426D01*
G01X41178Y50572D01*
G01X40373Y50572D01*
G37*
G36*
G01X53675Y50872D02*
G01X53675Y51726D01*
G01X54477Y51726D01*
G01X54477Y50872D01*
G01X53675Y50872D01*
G37*
G36*
G01X54523Y50872D02*
G01X54523Y51726D01*
G01X55326Y51726D01*
G01X55326Y50872D01*
G01X54523Y50872D01*
G37*
G36*
G01X38623Y52673D02*
G01X38623Y53526D01*
G01X39425Y53526D01*
G01X39425Y52673D01*
G01X38623Y52673D01*
G37*
G36*
G01X37774Y52673D02*
G01X37774Y53526D01*
G01X38577Y53526D01*
G01X38577Y52673D01*
G01X37774Y52673D01*
G37*
G36*
G01X40073Y59673D02*
G01X40073Y60476D01*
G01X40926Y60476D01*
G01X40926Y59673D01*
G01X40073Y59673D01*
G37*
G36*
G01X40073Y60522D02*
G01X40073Y61324D01*
G01X40926Y61324D01*
G01X40926Y60522D01*
G01X40073Y60522D01*
G37*
G36*
G01X56649Y64497D02*
G01X56649Y65500D01*
G01X57350Y65500D01*
G01X57350Y64497D01*
G01X56649Y64497D01*
G37*
G36*
G01X55648Y64497D02*
G01X55648Y65500D01*
G01X56352Y65500D01*
G01X56352Y64497D01*
G01X55648Y64497D01*
G37*
G36*
G01X56649Y62998D02*
G01X56649Y64001D01*
G01X57350Y64001D01*
G01X57350Y62998D01*
G01X56649Y62998D01*
G37*
G36*
G01X55648Y62998D02*
G01X55648Y64001D01*
G01X56352Y64001D01*
G01X56352Y62998D01*
G01X55648Y62998D01*
G37*
G36*
G01X96997Y73072D02*
G01X96997Y73826D01*
G01X98201Y73826D01*
G01X98201Y73072D01*
G01X96997Y73072D01*
G37*
G36*
G01X96997Y74972D02*
G01X96997Y75726D01*
G01X98201Y75726D01*
G01X98201Y74972D01*
G01X96997Y74972D01*
G37*
G36*
G01X93997Y74972D02*
G01X93997Y75726D01*
G01X95201Y75726D01*
G01X95201Y74972D01*
G01X93997Y74972D01*
G37*
G36*
G01X93997Y74022D02*
G01X93997Y74776D01*
G01X95201Y74776D01*
G01X95201Y74022D01*
G01X93997Y74022D01*
G37*
G36*
G01X93997Y73072D02*
G01X93997Y73826D01*
G01X95201Y73826D01*
G01X95201Y73072D01*
G01X93997Y73072D01*
G37*
G36*
G01X70398Y49097D02*
G01X70398Y50301D01*
G01X71602Y50301D01*
G01X71602Y49097D01*
G01X70398Y49097D01*
G37*
G36*
G01X70398Y46699D02*
G01X70398Y47900D01*
G01X71602Y47900D01*
G01X71602Y46699D01*
G01X70398Y46699D01*
G37*
G36*
G01X36898Y45599D02*
G01X36898Y46801D01*
G01X38102Y46801D01*
G01X38102Y45599D01*
G01X36898Y45599D01*
G37*
G36*
G01X36898Y43199D02*
G01X36898Y44400D01*
G01X38102Y44400D01*
G01X38102Y43199D01*
G01X36898Y43199D01*
G37*
G36*
G01X40898Y45599D02*
G01X40898Y46801D01*
G01X42100Y46801D01*
G01X42100Y45599D01*
G01X40898Y45599D01*
G37*
G36*
G01X40898Y43199D02*
G01X40898Y44400D01*
G01X42100Y44400D01*
G01X42100Y43199D01*
G01X40898Y43199D01*
G37*
G36*
G01X38897Y45599D02*
G01X38897Y46801D01*
G01X40101Y46801D01*
G01X40101Y45599D01*
G01X38897Y45599D01*
G37*
G36*
G01X38897Y43199D02*
G01X38897Y44400D01*
G01X40101Y44400D01*
G01X40101Y43199D01*
G01X38897Y43199D01*
G37*
G36*
G01X64198Y57898D02*
G01X64198Y59102D01*
G01X65402Y59102D01*
G01X65402Y57898D01*
G01X64198Y57898D01*
G37*
G36*
G01X66598Y57898D02*
G01X66598Y59102D01*
G01X67802Y59102D01*
G01X67802Y57898D01*
G01X66598Y57898D01*
G37*
G36*
G01X64198Y61898D02*
G01X64198Y63102D01*
G01X65402Y63102D01*
G01X65402Y61898D01*
G01X64198Y61898D01*
G37*
G36*
G01X66598Y61898D02*
G01X66598Y63102D01*
G01X67802Y63102D01*
G01X67802Y61898D01*
G01X66598Y61898D01*
G37*
G36*
G01X24597Y44898D02*
G01X24597Y46102D01*
G01X25801Y46102D01*
G01X25801Y44898D01*
G01X24597Y44898D01*
G37*
G36*
G01X22199Y44898D02*
G01X22199Y46102D01*
G01X23400Y46102D01*
G01X23400Y44898D01*
G01X22199Y44898D01*
G37*
G36*
G01X34899Y45599D02*
G01X34899Y46801D01*
G01X36100Y46801D01*
G01X36100Y45599D01*
G01X34899Y45599D01*
G37*
G36*
G01X34899Y43199D02*
G01X34899Y44400D01*
G01X36100Y44400D01*
G01X36100Y43199D01*
G01X34899Y43199D01*
G37*
G36*
G01X68399Y49097D02*
G01X68399Y50301D01*
G01X69600Y50301D01*
G01X69600Y49097D01*
G01X68399Y49097D01*
G37*
G36*
G01X68399Y46699D02*
G01X68399Y47900D01*
G01X69600Y47900D01*
G01X69600Y46699D01*
G01X68399Y46699D01*
G37*
G36*
G01X66398Y49097D02*
G01X66398Y50301D01*
G01X67601Y50301D01*
G01X67601Y49097D01*
G01X66398Y49097D01*
G37*
G36*
G01X66398Y46699D02*
G01X66398Y47900D01*
G01X67601Y47900D01*
G01X67601Y46699D01*
G01X66398Y46699D01*
G37*
G36*
G01X64198Y55899D02*
G01X64198Y57100D01*
G01X65402Y57100D01*
G01X65402Y55899D01*
G01X64198Y55899D01*
G37*
G36*
G01X66598Y55899D02*
G01X66598Y57100D01*
G01X67802Y57100D01*
G01X67802Y55899D01*
G01X66598Y55899D01*
G37*
G36*
G01X64198Y59897D02*
G01X64198Y61101D01*
G01X65402Y61101D01*
G01X65402Y59897D01*
G01X64198Y59897D01*
G37*
G36*
G01X66598Y59897D02*
G01X66598Y61101D01*
G01X67802Y61101D01*
G01X67802Y59897D01*
G01X66598Y59897D01*
G37*
G36*
G01X64399Y49097D02*
G01X64399Y50301D01*
G01X65600Y50301D01*
G01X65600Y49097D01*
G01X64399Y49097D01*
G37*
G36*
G01X64399Y46699D02*
G01X64399Y47900D01*
G01X65600Y47900D01*
G01X65600Y46699D01*
G01X64399Y46699D01*
G37*
G36*
G01X62397Y49097D02*
G01X62397Y50301D01*
G01X63601Y50301D01*
G01X63601Y49097D01*
G01X62397Y49097D01*
G37*
G36*
G01X62397Y46699D02*
G01X62397Y47900D01*
G01X63601Y47900D01*
G01X63601Y46699D01*
G01X62397Y46699D01*
G37*
G36*
G01X24597Y50898D02*
G01X24597Y52102D01*
G01X25801Y52102D01*
G01X25801Y50898D01*
G01X24597Y50898D01*
G37*
G36*
G01X22199Y50898D02*
G01X22199Y52102D01*
G01X23400Y52102D01*
G01X23400Y50898D01*
G01X22199Y50898D01*
G37*
G36*
G01X24597Y48899D02*
G01X24597Y50100D01*
G01X25801Y50100D01*
G01X25801Y48899D01*
G01X24597Y48899D01*
G37*
G36*
G01X22199Y48899D02*
G01X22199Y50100D01*
G01X23400Y50100D01*
G01X23400Y48899D01*
G01X22199Y48899D01*
G37*
G36*
G01X24597Y46897D02*
G01X24597Y48101D01*
G01X25801Y48101D01*
G01X25801Y46897D01*
G01X24597Y46897D01*
G37*
G36*
G01X22199Y46897D02*
G01X22199Y48101D01*
G01X23400Y48101D01*
G01X23400Y46897D01*
G01X22199Y46897D01*
G37*
G36*
G01X61897Y19597D02*
G01X61897Y20801D01*
G01X63101Y20801D01*
G01X63101Y19597D01*
G01X61897Y19597D01*
G37*
G36*
G01X61897Y17197D02*
G01X61897Y18401D01*
G01X63101Y18401D01*
G01X63101Y17197D01*
G01X61897Y17197D01*
G37*
G54D87*
G01X60499Y20200D03*
G36*
G01X59898Y17197D02*
G01X59898Y18401D01*
G01X61102Y18401D01*
G01X61102Y17197D01*
G01X59898Y17197D01*
G37*
G36*
G01X57899Y19597D02*
G01X57899Y20801D01*
G01X59100Y20801D01*
G01X59100Y19597D01*
G01X57899Y19597D01*
G37*
G36*
G01X57899Y17197D02*
G01X57899Y18401D01*
G01X59100Y18401D01*
G01X59100Y17197D01*
G01X57899Y17197D01*
G37*
G36*
G01X67899Y19597D02*
G01X67899Y20801D01*
G01X69100Y20801D01*
G01X69100Y19597D01*
G01X67899Y19597D01*
G37*
G36*
G01X67899Y17197D02*
G01X67899Y18401D01*
G01X69100Y18401D01*
G01X69100Y17197D01*
G01X67899Y17197D01*
G37*
G36*
G01X65897Y19597D02*
G01X65897Y20801D01*
G01X67101Y20801D01*
G01X67101Y19597D01*
G01X65897Y19597D01*
G37*
G36*
G01X65897Y17197D02*
G01X65897Y18401D01*
G01X67101Y18401D01*
G01X67101Y17197D01*
G01X65897Y17197D01*
G37*
G01X64500Y20200D03*
G36*
G01X63898Y17197D02*
G01X63898Y18401D01*
G01X65102Y18401D01*
G01X65102Y17197D01*
G01X63898Y17197D01*
G37*
G36*
G01X103598Y75947D02*
G01X103598Y76651D01*
G01X104602Y76651D01*
G01X104602Y75947D01*
G01X103598Y75947D01*
G37*
G36*
G01X103598Y74949D02*
G01X103598Y75650D01*
G01X104602Y75650D01*
G01X104602Y74949D01*
G01X103598Y74949D01*
G37*
G36*
G01X106649Y68998D02*
G01X106649Y70001D01*
G01X107350Y70001D01*
G01X107350Y68998D01*
G01X106649Y68998D01*
G37*
G36*
G01X105648Y68998D02*
G01X105648Y70001D01*
G01X106352Y70001D01*
G01X106352Y68998D01*
G01X105648Y68998D01*
G37*
G36*
G01X50048Y43598D02*
G01X50048Y44601D01*
G01X50751Y44601D01*
G01X50751Y43598D01*
G01X50048Y43598D01*
G37*
G36*
G01X51048Y43598D02*
G01X51048Y44601D01*
G01X51752Y44601D01*
G01X51752Y43598D01*
G01X51048Y43598D01*
G37*
G36*
G01X56697Y46447D02*
G01X56697Y47151D01*
G01X57701Y47151D01*
G01X57701Y46447D01*
G01X56697Y46447D01*
G37*
G36*
G01X56697Y45447D02*
G01X56697Y46150D01*
G01X57701Y46150D01*
G01X57701Y45447D01*
G01X56697Y45447D01*
G37*
G36*
G01X66997Y74255D02*
G01X66997Y76458D01*
G01X69202Y76458D01*
G01X69202Y74255D01*
G01X66997Y74255D01*
G37*
G36*
G01X66997Y70141D02*
G01X66997Y72343D01*
G01X69202Y72343D01*
G01X69202Y70141D01*
G01X66997Y70141D01*
G37*
G36*
G01X70497Y50649D02*
G01X70497Y51352D01*
G01X71500Y51352D01*
G01X71500Y50649D01*
G01X70497Y50649D01*
G37*
G36*
G01X70497Y51647D02*
G01X70497Y52350D01*
G01X71500Y52350D01*
G01X71500Y51647D01*
G01X70497Y51647D01*
G37*
G36*
G01X36997Y47149D02*
G01X36997Y47852D01*
G01X38000Y47852D01*
G01X38000Y47149D01*
G01X36997Y47149D01*
G37*
G36*
G01X36997Y48147D02*
G01X36997Y48850D01*
G01X38000Y48850D01*
G01X38000Y48147D01*
G01X36997Y48147D01*
G37*
G36*
G01X40998Y47149D02*
G01X40998Y47852D01*
G01X42001Y47852D01*
G01X42001Y47149D01*
G01X40998Y47149D01*
G37*
G36*
G01X40998Y48147D02*
G01X40998Y48850D01*
G01X42001Y48850D01*
G01X42001Y48147D01*
G01X40998Y48147D01*
G37*
G36*
G01X38999Y47047D02*
G01X38999Y47750D01*
G01X40002Y47750D01*
G01X40002Y47047D01*
G01X38999Y47047D01*
G37*
G36*
G01X38999Y48048D02*
G01X38999Y48751D01*
G01X40002Y48751D01*
G01X40002Y48048D01*
G01X38999Y48048D01*
G37*
G36*
G01X34998Y47149D02*
G01X34998Y47852D01*
G01X36001Y47852D01*
G01X36001Y47149D01*
G01X34998Y47149D01*
G37*
G36*
G01X34998Y48147D02*
G01X34998Y48850D01*
G01X36001Y48850D01*
G01X36001Y48147D01*
G01X34998Y48147D01*
G37*
G36*
G01X26149Y44997D02*
G01X26149Y46000D01*
G01X26852Y46000D01*
G01X26852Y44997D01*
G01X26149Y44997D01*
G37*
G36*
G01X27147Y44997D02*
G01X27147Y46000D01*
G01X27850Y46000D01*
G01X27850Y44997D01*
G01X27147Y44997D01*
G37*
G36*
G01X63149Y57997D02*
G01X63149Y59000D01*
G01X63850Y59000D01*
G01X63850Y57997D01*
G01X63149Y57997D01*
G37*
G36*
G01X62148Y57997D02*
G01X62148Y59000D01*
G01X62852Y59000D01*
G01X62852Y57997D01*
G01X62148Y57997D01*
G37*
G36*
G01X63149Y61997D02*
G01X63149Y63001D01*
G01X63850Y63001D01*
G01X63850Y61997D01*
G01X63149Y61997D01*
G37*
G36*
G01X62148Y61997D02*
G01X62148Y63001D01*
G01X62852Y63001D01*
G01X62852Y61997D01*
G01X62148Y61997D01*
G37*
G36*
G01X63149Y59998D02*
G01X63149Y61002D01*
G01X63850Y61002D01*
G01X63850Y59998D01*
G01X63149Y59998D01*
G37*
G36*
G01X62148Y59998D02*
G01X62148Y61002D01*
G01X62852Y61002D01*
G01X62852Y59998D01*
G01X62148Y59998D01*
G37*
G36*
G01X63149Y55998D02*
G01X63149Y57001D01*
G01X63850Y57001D01*
G01X63850Y55998D01*
G01X63149Y55998D01*
G37*
G36*
G01X62148Y55998D02*
G01X62148Y57001D01*
G01X62852Y57001D01*
G01X62852Y55998D01*
G01X62148Y55998D01*
G37*
G36*
G01X68498Y50649D02*
G01X68498Y51352D01*
G01X69501Y51352D01*
G01X69501Y50649D01*
G01X68498Y50649D01*
G37*
G36*
G01X68498Y51647D02*
G01X68498Y52350D01*
G01X69501Y52350D01*
G01X69501Y51647D01*
G01X68498Y51647D01*
G37*
G36*
G01X66497Y50649D02*
G01X66497Y51352D01*
G01X67500Y51352D01*
G01X67500Y50649D01*
G01X66497Y50649D01*
G37*
G36*
G01X66497Y51647D02*
G01X66497Y52350D01*
G01X67500Y52350D01*
G01X67500Y51647D01*
G01X66497Y51647D01*
G37*
G36*
G01X62499Y50649D02*
G01X62499Y51352D01*
G01X63502Y51352D01*
G01X63502Y50649D01*
G01X62499Y50649D01*
G37*
G36*
G01X62499Y51647D02*
G01X62499Y52350D01*
G01X63502Y52350D01*
G01X63502Y51647D01*
G01X62499Y51647D01*
G37*
G36*
G01X64498Y50649D02*
G01X64498Y51352D01*
G01X65501Y51352D01*
G01X65501Y50649D01*
G01X64498Y50649D01*
G37*
G36*
G01X64498Y51647D02*
G01X64498Y52350D01*
G01X65501Y52350D01*
G01X65501Y51647D01*
G01X64498Y51647D01*
G37*
G36*
G01X26149Y50999D02*
G01X26149Y52000D01*
G01X26852Y52000D01*
G01X26852Y50999D01*
G01X26149Y50999D01*
G37*
G36*
G01X27147Y50999D02*
G01X27147Y52000D01*
G01X27850Y52000D01*
G01X27850Y50999D01*
G01X27147Y50999D01*
G37*
G36*
G01X26149Y48998D02*
G01X26149Y50001D01*
G01X26852Y50001D01*
G01X26852Y48998D01*
G01X26149Y48998D01*
G37*
G36*
G01X27147Y48998D02*
G01X27147Y50001D01*
G01X27850Y50001D01*
G01X27850Y48998D01*
G01X27147Y48998D01*
G37*
G36*
G01X26149Y46999D02*
G01X26149Y48002D01*
G01X26852Y48002D01*
G01X26852Y46999D01*
G01X26149Y46999D01*
G37*
G36*
G01X27147Y46999D02*
G01X27147Y48002D01*
G01X27850Y48002D01*
G01X27850Y46999D01*
G01X27147Y46999D01*
G37*
G36*
G01X61998Y21149D02*
G01X61998Y21850D01*
G01X63002Y21850D01*
G01X63002Y21149D01*
G01X61998Y21149D01*
G37*
G36*
G01X61998Y22147D02*
G01X61998Y22851D01*
G01X63002Y22851D01*
G01X63002Y22147D01*
G01X61998Y22147D01*
G37*
G36*
G01X59997Y21149D02*
G01X59997Y21850D01*
G01X61000Y21850D01*
G01X61000Y21149D01*
G01X59997Y21149D01*
G37*
G36*
G01X59997Y22147D02*
G01X59997Y22851D01*
G01X61000Y22851D01*
G01X61000Y22147D01*
G01X59997Y22147D01*
G37*
G36*
G01X57998Y21149D02*
G01X57998Y21850D01*
G01X59001Y21850D01*
G01X59001Y21149D01*
G01X57998Y21149D01*
G37*
G36*
G01X57998Y22147D02*
G01X57998Y22851D01*
G01X59001Y22851D01*
G01X59001Y22147D01*
G01X57998Y22147D01*
G37*
G36*
G01X67998Y21149D02*
G01X67998Y21850D01*
G01X69001Y21850D01*
G01X69001Y21149D01*
G01X67998Y21149D01*
G37*
G36*
G01X67998Y22147D02*
G01X67998Y22851D01*
G01X69001Y22851D01*
G01X69001Y22147D01*
G01X67998Y22147D01*
G37*
G36*
G01X65999Y21149D02*
G01X65999Y21850D01*
G01X67002Y21850D01*
G01X67002Y21149D01*
G01X65999Y21149D01*
G37*
G36*
G01X65999Y22147D02*
G01X65999Y22851D01*
G01X67002Y22851D01*
G01X67002Y22147D01*
G01X65999Y22147D01*
G37*
G36*
G01X63997Y21149D02*
G01X63997Y21850D01*
G01X65001Y21850D01*
G01X65001Y21149D01*
G01X63997Y21149D01*
G37*
G36*
G01X63997Y22147D02*
G01X63997Y22851D01*
G01X65001Y22851D01*
G01X65001Y22147D01*
G01X63997Y22147D01*
G37*
G36*
G01X65097Y69147D02*
G01X65097Y69851D01*
G01X66100Y69851D01*
G01X66100Y69147D01*
G01X65097Y69147D01*
G37*
G36*
G01X65097Y70148D02*
G01X65097Y70852D01*
G01X66100Y70852D01*
G01X66100Y70148D01*
G01X65097Y70148D01*
G37*
G36*
G01X14899Y67021D02*
G01X14899Y70725D01*
G01X16100Y70725D01*
G01X16100Y67021D01*
G01X14899Y67021D01*
G37*
G36*
G01X12898Y67021D02*
G01X12898Y70725D01*
G01X14101Y70725D01*
G01X14101Y67021D01*
G01X12898Y67021D01*
G37*
G36*
G01X16997Y61322D02*
G01X16997Y64926D01*
G01X18701Y64926D01*
G01X18701Y61322D01*
G01X16997Y61322D01*
G37*
G36*
G01X10299Y61322D02*
G01X10299Y64926D01*
G01X12003Y64926D01*
G01X12003Y61322D01*
G01X10299Y61322D01*
G37*
G36*
G01X53248Y43499D02*
G01X53248Y44502D01*
G01X53952Y44502D01*
G01X53952Y43499D01*
G01X53248Y43499D01*
G37*
G36*
G01X52247Y43499D02*
G01X52247Y44502D01*
G01X52951Y44502D01*
G01X52951Y43499D01*
G01X52247Y43499D01*
G37*
G36*
G01X99649Y75398D02*
G01X99649Y76402D01*
G01X100352Y76402D01*
G01X100352Y75398D01*
G01X99649Y75398D01*
G37*
G36*
G01X98648Y75398D02*
G01X98648Y76402D01*
G01X99351Y76402D01*
G01X99351Y75398D01*
G01X98648Y75398D01*
G37*
G36*
G01X132097Y47748D02*
G01X132097Y48452D01*
G01X133100Y48452D01*
G01X133100Y47748D01*
G01X132097Y47748D01*
G37*
G36*
G01X132097Y46747D02*
G01X132097Y47451D01*
G01X133100Y47451D01*
G01X133100Y46747D01*
G01X132097Y46747D01*
G37*
G36*
G01X130497Y47149D02*
G01X130497Y47852D01*
G01X131500Y47852D01*
G01X131500Y47149D01*
G01X130497Y47149D01*
G37*
G36*
G01X130497Y48147D02*
G01X130497Y48850D01*
G01X131500Y48850D01*
G01X131500Y48147D01*
G01X130497Y48147D01*
G37*
G36*
G01X132097Y50148D02*
G01X132097Y50852D01*
G01X133100Y50852D01*
G01X133100Y50148D01*
G01X132097Y50148D01*
G37*
G36*
G01X132097Y49147D02*
G01X132097Y49851D01*
G01X133100Y49851D01*
G01X133100Y49147D01*
G01X132097Y49147D01*
G37*
G36*
G01X130497Y49948D02*
G01X130497Y50651D01*
G01X131500Y50651D01*
G01X131500Y49948D01*
G01X130497Y49948D01*
G37*
G36*
G01X130497Y50948D02*
G01X130497Y51652D01*
G01X131500Y51652D01*
G01X131500Y50948D01*
G01X130497Y50948D01*
G37*
G36*
G01X132097Y52947D02*
G01X132097Y53651D01*
G01X133100Y53651D01*
G01X133100Y52947D01*
G01X132097Y52947D01*
G37*
G36*
G01X132097Y51947D02*
G01X132097Y52650D01*
G01X133100Y52650D01*
G01X133100Y51947D01*
G01X132097Y51947D01*
G37*
G36*
G01X130497Y52749D02*
G01X130497Y53450D01*
G01X131500Y53450D01*
G01X131500Y52749D01*
G01X130497Y52749D01*
G37*
G36*
G01X130497Y53747D02*
G01X130497Y54451D01*
G01X131500Y54451D01*
G01X131500Y53747D01*
G01X130497Y53747D01*
G37*
G36*
G01X132097Y55348D02*
G01X132097Y56051D01*
G01X133100Y56051D01*
G01X133100Y55348D01*
G01X132097Y55348D01*
G37*
G36*
G01X132097Y54347D02*
G01X132097Y55050D01*
G01X133100Y55050D01*
G01X133100Y54347D01*
G01X132097Y54347D01*
G37*
G36*
G01X130497Y55147D02*
G01X130497Y55851D01*
G01X131500Y55851D01*
G01X131500Y55147D01*
G01X130497Y55147D01*
G37*
G36*
G01X130497Y56148D02*
G01X130497Y56851D01*
G01X131500Y56851D01*
G01X131500Y56148D01*
G01X130497Y56148D01*
G37*
G36*
G01X109920Y19897D02*
G01X109920Y20900D01*
G01X110624Y20900D01*
G01X110624Y19897D01*
G01X109920Y19897D01*
G37*
G36*
G01X108920Y19897D02*
G01X108920Y20900D01*
G01X109623Y20900D01*
G01X109623Y19897D01*
G01X108920Y19897D01*
G37*
G36*
G01X109720Y21497D02*
G01X109720Y22500D01*
G01X110423Y22500D01*
G01X110423Y21497D01*
G01X109720Y21497D01*
G37*
G36*
G01X110721Y21497D02*
G01X110721Y22500D01*
G01X111424Y22500D01*
G01X111424Y21497D01*
G01X110721Y21497D01*
G37*
G36*
G01X112720Y19897D02*
G01X112720Y20900D01*
G01X113423Y20900D01*
G01X113423Y19897D01*
G01X112720Y19897D01*
G37*
G36*
G01X111721Y19897D02*
G01X111721Y20900D01*
G01X112425Y20900D01*
G01X112425Y19897D01*
G01X111721Y19897D01*
G37*
G36*
G01X112120Y21497D02*
G01X112120Y22500D01*
G01X112824Y22500D01*
G01X112824Y21497D01*
G01X112120Y21497D01*
G37*
G36*
G01X113121Y21497D02*
G01X113121Y22500D01*
G01X113824Y22500D01*
G01X113824Y21497D01*
G01X113121Y21497D01*
G37*
G36*
G01X115120Y19897D02*
G01X115120Y20900D01*
G01X115823Y20900D01*
G01X115823Y19897D01*
G01X115120Y19897D01*
G37*
G36*
G01X114122Y19897D02*
G01X114122Y20900D01*
G01X114825Y20900D01*
G01X114825Y19897D01*
G01X114122Y19897D01*
G37*
G36*
G01X114922Y21497D02*
G01X114922Y22500D01*
G01X115625Y22500D01*
G01X115625Y21497D01*
G01X114922Y21497D01*
G37*
G36*
G01X115920Y21497D02*
G01X115920Y22500D01*
G01X116623Y22500D01*
G01X116623Y21497D01*
G01X115920Y21497D01*
G37*
G36*
G01X117520Y19897D02*
G01X117520Y20900D01*
G01X118224Y20900D01*
G01X118224Y19897D01*
G01X117520Y19897D01*
G37*
G36*
G01X116522Y19897D02*
G01X116522Y20900D01*
G01X117223Y20900D01*
G01X117223Y19897D01*
G01X116522Y19897D01*
G37*
G36*
G01X117449Y21497D02*
G01X117449Y22500D01*
G01X118150Y22500D01*
G01X118150Y21497D01*
G01X117449Y21497D01*
G37*
G36*
G01X118447Y21497D02*
G01X118447Y22500D01*
G01X119151Y22500D01*
G01X119151Y21497D01*
G01X118447Y21497D01*
G37*
G36*
G01X70497Y45647D02*
G01X70497Y46351D01*
G01X71500Y46351D01*
G01X71500Y45647D01*
G01X70497Y45647D01*
G37*
G36*
G01X70497Y44649D02*
G01X70497Y45350D01*
G01X71500Y45350D01*
G01X71500Y44649D01*
G01X70497Y44649D01*
G37*
G36*
G01X36997Y42147D02*
G01X36997Y42851D01*
G01X38000Y42851D01*
G01X38000Y42147D01*
G01X36997Y42147D01*
G37*
G36*
G01X36997Y41149D02*
G01X36997Y41850D01*
G01X38000Y41850D01*
G01X38000Y41149D01*
G01X36997Y41149D01*
G37*
G36*
G01X40998Y42147D02*
G01X40998Y42851D01*
G01X42001Y42851D01*
G01X42001Y42147D01*
G01X40998Y42147D01*
G37*
G36*
G01X40998Y41149D02*
G01X40998Y41850D01*
G01X42001Y41850D01*
G01X42001Y41149D01*
G01X40998Y41149D01*
G37*
G36*
G01X38999Y42147D02*
G01X38999Y42851D01*
G01X40002Y42851D01*
G01X40002Y42147D01*
G01X38999Y42147D01*
G37*
G36*
G01X38999Y41149D02*
G01X38999Y41850D01*
G01X40002Y41850D01*
G01X40002Y41149D01*
G01X38999Y41149D01*
G37*
G36*
G01X34998Y42147D02*
G01X34998Y42851D01*
G01X36001Y42851D01*
G01X36001Y42147D01*
G01X34998Y42147D01*
G37*
G36*
G01X34998Y41149D02*
G01X34998Y41850D01*
G01X36001Y41850D01*
G01X36001Y41149D01*
G01X34998Y41149D01*
G37*
G36*
G01X21147Y44997D02*
G01X21147Y46000D01*
G01X21851Y46000D01*
G01X21851Y44997D01*
G01X21147Y44997D01*
G37*
G36*
G01X20147Y44997D02*
G01X20147Y46000D01*
G01X20850Y46000D01*
G01X20850Y44997D01*
G01X20147Y44997D01*
G37*
G36*
G01X68148Y57997D02*
G01X68148Y59000D01*
G01X68851Y59000D01*
G01X68851Y57997D01*
G01X68148Y57997D01*
G37*
G36*
G01X69148Y57997D02*
G01X69148Y59000D01*
G01X69852Y59000D01*
G01X69852Y57997D01*
G01X69148Y57997D01*
G37*
G36*
G01X68148Y55998D02*
G01X68148Y57001D01*
G01X68851Y57001D01*
G01X68851Y55998D01*
G01X68148Y55998D01*
G37*
G36*
G01X69148Y55998D02*
G01X69148Y57001D01*
G01X69852Y57001D01*
G01X69852Y55998D01*
G01X69148Y55998D01*
G37*
G36*
G01X68148Y59998D02*
G01X68148Y61002D01*
G01X68851Y61002D01*
G01X68851Y59998D01*
G01X68148Y59998D01*
G37*
G36*
G01X69148Y59998D02*
G01X69148Y61002D01*
G01X69852Y61002D01*
G01X69852Y59998D01*
G01X69148Y59998D01*
G37*
G36*
G01X68148Y61997D02*
G01X68148Y63001D01*
G01X68851Y63001D01*
G01X68851Y61997D01*
G01X68148Y61997D01*
G37*
G36*
G01X69148Y61997D02*
G01X69148Y63001D01*
G01X69852Y63001D01*
G01X69852Y61997D01*
G01X69148Y61997D01*
G37*
G36*
G01X62499Y45647D02*
G01X62499Y46351D01*
G01X63502Y46351D01*
G01X63502Y45647D01*
G01X62499Y45647D01*
G37*
G36*
G01X62499Y44649D02*
G01X62499Y45350D01*
G01X63502Y45350D01*
G01X63502Y44649D01*
G01X62499Y44649D01*
G37*
G36*
G01X66499Y45647D02*
G01X66499Y46351D01*
G01X67500Y46351D01*
G01X67500Y45647D01*
G01X66499Y45647D01*
G37*
G36*
G01X66499Y44649D02*
G01X66499Y45350D01*
G01X67500Y45350D01*
G01X67500Y44649D01*
G01X66499Y44649D01*
G37*
G36*
G01X68498Y45647D02*
G01X68498Y46351D01*
G01X69501Y46351D01*
G01X69501Y45647D01*
G01X68498Y45647D01*
G37*
G36*
G01X68498Y44649D02*
G01X68498Y45350D01*
G01X69501Y45350D01*
G01X69501Y44649D01*
G01X68498Y44649D01*
G37*
G36*
G01X64498Y45647D02*
G01X64498Y46351D01*
G01X65501Y46351D01*
G01X65501Y45647D01*
G01X64498Y45647D01*
G37*
G36*
G01X64498Y44649D02*
G01X64498Y45350D01*
G01X65501Y45350D01*
G01X65501Y44649D01*
G01X64498Y44649D01*
G37*
G36*
G01X20147Y50999D02*
G01X20147Y52000D01*
G01X20850Y52000D01*
G01X20850Y50999D01*
G01X20147Y50999D01*
G37*
G36*
G01X21147Y50999D02*
G01X21147Y52000D01*
G01X21851Y52000D01*
G01X21851Y50999D01*
G01X21147Y50999D01*
G37*
G36*
G01X20147Y48998D02*
G01X20147Y50001D01*
G01X20850Y50001D01*
G01X20850Y48998D01*
G01X20147Y48998D01*
G37*
G36*
G01X21147Y48998D02*
G01X21147Y50001D01*
G01X21851Y50001D01*
G01X21851Y48998D01*
G01X21147Y48998D01*
G37*
G36*
G01X20147Y46999D02*
G01X20147Y48002D01*
G01X20850Y48002D01*
G01X20850Y46999D01*
G01X20147Y46999D01*
G37*
G36*
G01X21147Y46999D02*
G01X21147Y48002D01*
G01X21851Y48002D01*
G01X21851Y46999D01*
G01X21147Y46999D01*
G37*
G36*
G01X61998Y15147D02*
G01X61998Y15851D01*
G01X63002Y15851D01*
G01X63002Y15147D01*
G01X61998Y15147D01*
G37*
G36*
G01X61998Y16148D02*
G01X61998Y16851D01*
G01X63002Y16851D01*
G01X63002Y16148D01*
G01X61998Y16148D01*
G37*
G36*
G01X59997Y15147D02*
G01X59997Y15851D01*
G01X61000Y15851D01*
G01X61000Y15147D01*
G01X59997Y15147D01*
G37*
G36*
G01X59997Y16148D02*
G01X59997Y16851D01*
G01X61000Y16851D01*
G01X61000Y16148D01*
G01X59997Y16148D01*
G37*
G36*
G01X57998Y15147D02*
G01X57998Y15851D01*
G01X59001Y15851D01*
G01X59001Y15147D01*
G01X57998Y15147D01*
G37*
G54D78*
G01X58499Y16500D03*
G36*
G01X67998Y15147D02*
G01X67998Y15851D01*
G01X69001Y15851D01*
G01X69001Y15147D01*
G01X67998Y15147D01*
G37*
G36*
G01X67998Y16148D02*
G01X67998Y16851D01*
G01X69001Y16851D01*
G01X69001Y16148D01*
G01X67998Y16148D01*
G37*
G36*
G01X65999Y15147D02*
G01X65999Y15851D01*
G01X67002Y15851D01*
G01X67002Y15147D01*
G01X65999Y15147D01*
G37*
G36*
G01X65999Y16148D02*
G01X65999Y16851D01*
G01X67002Y16851D01*
G01X67002Y16148D01*
G01X65999Y16148D01*
G37*
G36*
G01X63997Y15147D02*
G01X63997Y15851D01*
G01X65001Y15851D01*
G01X65001Y15147D01*
G01X63997Y15147D01*
G37*
G36*
G01X63997Y16148D02*
G01X63997Y16851D01*
G01X65001Y16851D01*
G01X65001Y16148D01*
G01X63997Y16148D01*
G37*
G36*
G01X31549Y68398D02*
G01X31549Y71601D01*
G01X32151Y71601D01*
G01X32151Y68398D01*
G01X31549Y68398D01*
G37*
G36*
G01X32247Y68398D02*
G01X32247Y71601D01*
G01X32852Y71601D01*
G01X32852Y68398D01*
G01X32247Y68398D01*
G37*
G36*
G01X32948Y68398D02*
G01X32948Y71601D01*
G01X33550Y71601D01*
G01X33550Y68398D01*
G01X32948Y68398D01*
G37*
G36*
G01X33647Y68398D02*
G01X33647Y71601D01*
G01X34251Y71601D01*
G01X34251Y68398D01*
G01X33647Y68398D01*
G37*
G54D91*
G01X34649Y69999D03*
G36*
G01X35049Y68398D02*
G01X35049Y71601D01*
G01X35651Y71601D01*
G01X35651Y68398D01*
G01X35049Y68398D01*
G37*
G36*
G01X35747Y68398D02*
G01X35747Y71601D01*
G01X36352Y71601D01*
G01X36352Y68398D01*
G01X35747Y68398D01*
G37*
G36*
G01X36448Y68398D02*
G01X36448Y71601D01*
G01X37050Y71601D01*
G01X37050Y68398D01*
G01X36448Y68398D01*
G37*
G36*
G01X37147Y68398D02*
G01X37147Y71601D01*
G01X37751Y71601D01*
G01X37751Y68398D01*
G01X37147Y68398D01*
G37*
G01X38149Y69999D03*
G36*
G01X38549Y68398D02*
G01X38549Y71601D01*
G01X39151Y71601D01*
G01X39151Y68398D01*
G01X38549Y68398D01*
G37*
G01X39549Y69999D03*
G36*
G01X39949Y68398D02*
G01X39949Y71601D01*
G01X40550Y71601D01*
G01X40550Y68398D01*
G01X39949Y68398D01*
G37*
G36*
G01X40647Y68398D02*
G01X40647Y71601D01*
G01X41252Y71601D01*
G01X41252Y68398D01*
G01X40647Y68398D01*
G37*
G36*
G01X41348Y68398D02*
G01X41348Y71601D01*
G01X41950Y71601D01*
G01X41950Y68398D01*
G01X41348Y68398D01*
G37*
G36*
G01X42047Y68398D02*
G01X42047Y71601D01*
G01X42651Y71601D01*
G01X42651Y68398D01*
G01X42047Y68398D01*
G37*
G01X43049Y69999D03*
G36*
G01X43449Y68398D02*
G01X43449Y71601D01*
G01X44051Y71601D01*
G01X44051Y68398D01*
G01X43449Y68398D01*
G37*
G36*
G01X44147Y68398D02*
G01X44147Y71601D01*
G01X44752Y71601D01*
G01X44752Y68398D01*
G01X44147Y68398D01*
G37*
G36*
G01X44848Y68398D02*
G01X44848Y71601D01*
G01X45450Y71601D01*
G01X45450Y68398D01*
G01X44848Y68398D01*
G37*
G36*
G01X45547Y68398D02*
G01X45547Y71601D01*
G01X46151Y71601D01*
G01X46151Y68398D01*
G01X45547Y68398D01*
G37*
G01X46549Y69999D03*
G36*
G01X46949Y68398D02*
G01X46949Y71601D01*
G01X47551Y71601D01*
G01X47551Y68398D01*
G01X46949Y68398D01*
G37*
G36*
G01X47647Y68398D02*
G01X47647Y71601D01*
G01X48252Y71601D01*
G01X48252Y68398D01*
G01X47647Y68398D01*
G37*
G36*
G01X48348Y68398D02*
G01X48348Y71601D01*
G01X48950Y71601D01*
G01X48950Y68398D01*
G01X48348Y68398D01*
G37*
G36*
G01X49047Y68398D02*
G01X49047Y71601D01*
G01X49651Y71601D01*
G01X49651Y68398D01*
G01X49047Y68398D01*
G37*
G01X50049Y69999D03*
G36*
G01X50449Y68398D02*
G01X50449Y71601D01*
G01X51051Y71601D01*
G01X51051Y68398D01*
G01X50449Y68398D01*
G37*
G36*
G01X51147Y68398D02*
G01X51147Y71601D01*
G01X51752Y71601D01*
G01X51752Y68398D01*
G01X51147Y68398D01*
G37*
G36*
G01X51848Y68398D02*
G01X51848Y71601D01*
G01X52450Y71601D01*
G01X52450Y68398D01*
G01X51848Y68398D01*
G37*
G36*
G01X22499Y30148D02*
G01X22499Y30852D01*
G01X23502Y30852D01*
G01X23502Y30148D01*
G01X22499Y30148D01*
G37*
G36*
G01X22499Y29148D02*
G01X22499Y29851D01*
G01X23502Y29851D01*
G01X23502Y29148D01*
G01X22499Y29148D01*
G37*
G36*
G01X35148Y64997D02*
G01X35148Y66000D01*
G01X35851Y66000D01*
G01X35851Y64997D01*
G01X35148Y64997D01*
G37*
G36*
G01X36149Y64997D02*
G01X36149Y66000D01*
G01X36852Y66000D01*
G01X36852Y64997D01*
G01X36149Y64997D01*
G37*
G36*
G01X37248Y64997D02*
G01X37248Y66000D01*
G01X37952Y66000D01*
G01X37952Y64997D01*
G01X37248Y64997D01*
G37*
G36*
G01X38247Y64997D02*
G01X38247Y66000D01*
G01X38950Y66000D01*
G01X38950Y64997D01*
G01X38247Y64997D01*
G37*
G36*
G01X20998Y29148D02*
G01X20998Y29851D01*
G01X22001Y29851D01*
G01X22001Y29148D01*
G01X20998Y29148D01*
G37*
G36*
G01X20998Y28147D02*
G01X20998Y28850D01*
G01X22001Y28850D01*
G01X22001Y28147D01*
G01X20998Y28147D01*
G37*
G36*
G01X115897Y68098D02*
G01X115897Y72302D01*
G01X120101Y72302D01*
G01X120101Y68098D01*
G01X115897Y68098D01*
G37*
G36*
G01X120494Y72180D02*
G01X120494Y72637D01*
G01X123499Y72637D01*
G01X123499Y72180D01*
G01X120494Y72180D01*
G37*
G36*
G01X120494Y71774D02*
G01X120494Y72231D01*
G01X123499Y72231D01*
G01X123499Y71774D01*
G01X120494Y71774D01*
G37*
G36*
G01X120891Y71489D02*
G01X120891Y71703D01*
G01X121104Y71703D01*
G01X121104Y71489D01*
G01X120891Y71489D01*
G37*
G36*
G01X120494Y70969D02*
G01X120494Y71411D01*
G01X123499Y71411D01*
G01X123499Y70969D01*
G01X120494Y70969D01*
G37*
G36*
G01X120494Y70588D02*
G01X120494Y71030D01*
G01X123499Y71030D01*
G01X123499Y70588D01*
G01X120494Y70588D01*
G37*
G36*
G01X120494Y70174D02*
G01X120494Y70631D01*
G01X123499Y70631D01*
G01X123499Y70174D01*
G01X120494Y70174D01*
G37*
G36*
G01X120891Y69889D02*
G01X120891Y70102D01*
G01X121104Y70102D01*
G01X121104Y69889D01*
G01X120891Y69889D01*
G37*
G36*
G01X120494Y69368D02*
G01X120494Y69810D01*
G01X123499Y69810D01*
G01X123499Y69368D01*
G01X120494Y69368D01*
G37*
G36*
G01X120494Y68987D02*
G01X120494Y69429D01*
G01X123499Y69429D01*
G01X123499Y68987D01*
G01X120494Y68987D01*
G37*
G36*
G01X120494Y68573D02*
G01X120494Y69031D01*
G01X123499Y69031D01*
G01X123499Y68573D01*
G01X120494Y68573D01*
G37*
G36*
G01X120494Y68167D02*
G01X120494Y68624D01*
G01X123499Y68624D01*
G01X123499Y68167D01*
G01X120494Y68167D01*
G37*
G36*
G01X120494Y67761D02*
G01X120494Y68218D01*
G01X123499Y68218D01*
G01X123499Y67761D01*
G01X120494Y67761D01*
G37*
G36*
G01X119981Y64700D02*
G01X119981Y67705D01*
G01X120439Y67705D01*
G01X120439Y64700D01*
G01X119981Y64700D01*
G37*
G36*
G01X119575Y64700D02*
G01X119575Y67705D01*
G01X120032Y67705D01*
G01X120032Y64700D01*
G01X119575Y64700D01*
G37*
G36*
G01X119169Y64700D02*
G01X119169Y67705D01*
G01X119626Y67705D01*
G01X119626Y64700D01*
G01X119169Y64700D01*
G37*
G36*
G01X118762Y64700D02*
G01X118762Y67705D01*
G01X119219Y67705D01*
G01X119219Y64700D01*
G01X118762Y64700D01*
G37*
G36*
G01X118503Y67095D02*
G01X118503Y67308D01*
G01X118716Y67308D01*
G01X118716Y67095D01*
G01X118503Y67095D01*
G37*
G36*
G01X117975Y64700D02*
G01X117975Y67705D01*
G01X118432Y67705D01*
G01X118432Y64700D01*
G01X117975Y64700D01*
G37*
G36*
G01X117690Y67095D02*
G01X117690Y67308D01*
G01X117904Y67308D01*
G01X117904Y67095D01*
G01X117690Y67095D01*
G37*
G36*
G01X117162Y64700D02*
G01X117162Y67705D01*
G01X117619Y67705D01*
G01X117619Y64700D01*
G01X117162Y64700D01*
G37*
G36*
G01X116903Y67095D02*
G01X116903Y67308D01*
G01X117116Y67308D01*
G01X117116Y67095D01*
G01X116903Y67095D01*
G37*
G36*
G01X116496Y67095D02*
G01X116496Y67308D01*
G01X116710Y67308D01*
G01X116710Y67095D01*
G01X116496Y67095D01*
G37*
G36*
G01X116090Y67095D02*
G01X116090Y67308D01*
G01X116303Y67308D01*
G01X116303Y67095D01*
G01X116090Y67095D01*
G37*
G36*
G01X115684Y67095D02*
G01X115684Y67308D01*
G01X115897Y67308D01*
G01X115897Y67095D01*
G01X115684Y67095D01*
G37*
G36*
G01X112501Y67761D02*
G01X112501Y68218D01*
G01X115503Y68218D01*
G01X115503Y67761D01*
G01X112501Y67761D01*
G37*
G36*
G01X114896Y68289D02*
G01X114896Y68502D01*
G01X115110Y68502D01*
G01X115110Y68289D01*
G01X114896Y68289D01*
G37*
G36*
G01X114896Y68695D02*
G01X114896Y68909D01*
G01X115110Y68909D01*
G01X115110Y68695D01*
G01X114896Y68695D01*
G37*
G36*
G01X114896Y69102D02*
G01X114896Y69315D01*
G01X115110Y69315D01*
G01X115110Y69102D01*
G01X114896Y69102D01*
G37*
G36*
G01X114896Y69483D02*
G01X114896Y69696D01*
G01X115110Y69696D01*
G01X115110Y69483D01*
G01X114896Y69483D01*
G37*
G36*
G01X114896Y69889D02*
G01X114896Y70102D01*
G01X115110Y70102D01*
G01X115110Y69889D01*
G01X114896Y69889D01*
G37*
G36*
G01X112501Y70174D02*
G01X112501Y70631D01*
G01X115503Y70631D01*
G01X115503Y70174D01*
G01X112501Y70174D01*
G37*
G36*
G01X114896Y70702D02*
G01X114896Y70915D01*
G01X115110Y70915D01*
G01X115110Y70702D01*
G01X114896Y70702D01*
G37*
G36*
G01X114896Y71083D02*
G01X114896Y71296D01*
G01X115110Y71296D01*
G01X115110Y71083D01*
G01X114896Y71083D01*
G37*
G36*
G01X112501Y71367D02*
G01X112501Y71825D01*
G01X115503Y71825D01*
G01X115503Y71367D01*
G01X112501Y71367D01*
G37*
G36*
G01X112501Y71774D02*
G01X112501Y72231D01*
G01X115503Y72231D01*
G01X115503Y71774D01*
G01X112501Y71774D01*
G37*
G36*
G01X112501Y72180D02*
G01X112501Y72637D01*
G01X115503Y72637D01*
G01X115503Y72180D01*
G01X112501Y72180D01*
G37*
G36*
G01X115562Y72696D02*
G01X115562Y75698D01*
G01X116019Y75698D01*
G01X116019Y72696D01*
G01X115562Y72696D01*
G37*
G36*
G01X115968Y72696D02*
G01X115968Y75698D01*
G01X116425Y75698D01*
G01X116425Y72696D01*
G01X115968Y72696D01*
G37*
G36*
G01X116375Y72696D02*
G01X116375Y75698D01*
G01X116832Y75698D01*
G01X116832Y72696D01*
G01X116375Y72696D01*
G37*
G36*
G01X116789Y72696D02*
G01X116789Y75698D01*
G01X117231Y75698D01*
G01X117231Y72696D01*
G01X116789Y72696D01*
G37*
G36*
G01X117170Y72696D02*
G01X117170Y75698D01*
G01X117612Y75698D01*
G01X117612Y72696D01*
G01X117170Y72696D01*
G37*
G36*
G01X117690Y74090D02*
G01X117690Y74304D01*
G01X117904Y74304D01*
G01X117904Y74090D01*
G01X117690Y74090D01*
G37*
G36*
G01X118097Y73090D02*
G01X118097Y73303D01*
G01X118310Y73303D01*
G01X118310Y73090D01*
G01X118097Y73090D01*
G37*
G36*
G01X118503Y73090D02*
G01X118503Y73303D01*
G01X118716Y73303D01*
G01X118716Y73090D01*
G01X118503Y73090D01*
G37*
G36*
G01X118762Y72696D02*
G01X118762Y75698D01*
G01X119219Y75698D01*
G01X119219Y72696D01*
G01X118762Y72696D01*
G37*
G36*
G01X119169Y72696D02*
G01X119169Y75698D01*
G01X119626Y75698D01*
G01X119626Y72696D01*
G01X119169Y72696D01*
G37*
G36*
G01X119575Y72696D02*
G01X119575Y75698D01*
G01X120032Y75698D01*
G01X120032Y72696D01*
G01X119575Y72696D01*
G37*
G36*
G01X119981Y72696D02*
G01X119981Y75698D01*
G01X120439Y75698D01*
G01X120439Y72696D01*
G01X119981Y72696D01*
G37*
G36*
G01X104523Y70598D02*
G01X104523Y72201D01*
G01X105877Y72201D01*
G01X105877Y70598D01*
G01X104523Y70598D01*
G37*
G36*
G01X106563Y72797D02*
G01X106123Y73219D01*
G01X106123Y74400D01*
G01X107477Y74400D01*
G01X107477Y72797D01*
G01X106563Y72797D01*
G37*
G36*
G01X104523Y72797D02*
G01X104523Y74400D01*
G01X105877Y74400D01*
G01X105877Y72797D01*
G01X104523Y72797D01*
G37*
G36*
G01X106123Y70598D02*
G01X106123Y72201D01*
G01X107477Y72201D01*
G01X107477Y70598D01*
G01X106123Y70598D01*
G37*
G36*
G01X120007Y33105D02*
G01X120007Y33910D01*
G01X121041Y33910D01*
G01X121041Y33105D01*
G01X120007Y33105D01*
G37*
G36*
G01X116959Y33105D02*
G01X116959Y33910D01*
G01X117993Y33910D01*
G01X117993Y33105D01*
G01X116959Y33105D01*
G37*
G36*
G01X120007Y32089D02*
G01X120007Y32894D01*
G01X121041Y32894D01*
G01X121041Y32089D01*
G01X120007Y32089D01*
G37*
G36*
G01X116959Y32089D02*
G01X116959Y32894D01*
G01X117993Y32894D01*
G01X117993Y32089D01*
G01X116959Y32089D01*
G37*
G36*
G01X80007Y21106D02*
G01X80007Y21909D01*
G01X81041Y21909D01*
G01X81041Y21106D01*
G01X80007Y21106D01*
G37*
G36*
G01X76959Y21106D02*
G01X76959Y21909D01*
G01X77993Y21909D01*
G01X77993Y21106D01*
G01X76959Y21106D01*
G37*
G36*
G01X80007Y20090D02*
G01X80007Y20893D01*
G01X81041Y20893D01*
G01X81041Y20090D01*
G01X80007Y20090D01*
G37*
G36*
G01X76959Y20090D02*
G01X76959Y20893D01*
G01X77993Y20893D01*
G01X77993Y20090D01*
G01X76959Y20090D01*
G37*
G36*
G01X100007Y23105D02*
G01X100007Y23910D01*
G01X101041Y23910D01*
G01X101041Y23105D01*
G01X100007Y23105D01*
G37*
G36*
G01X96959Y23105D02*
G01X96959Y23910D01*
G01X97993Y23910D01*
G01X97993Y23105D01*
G01X96959Y23105D01*
G37*
G36*
G01X100007Y22089D02*
G01X100007Y22894D01*
G01X101041Y22894D01*
G01X101041Y22089D01*
G01X100007Y22089D01*
G37*
G36*
G01X96959Y22089D02*
G01X96959Y22894D01*
G01X97993Y22894D01*
G01X97993Y22089D01*
G01X96959Y22089D01*
G37*
G36*
G01X80007Y41106D02*
G01X80007Y41908D01*
G01X81041Y41908D01*
G01X81041Y41106D01*
G01X80007Y41106D01*
G37*
G36*
G01X76959Y41106D02*
G01X76959Y41908D01*
G01X77993Y41908D01*
G01X77993Y41106D01*
G01X76959Y41106D01*
G37*
G36*
G01X80007Y40090D02*
G01X80007Y40892D01*
G01X81041Y40892D01*
G01X81041Y40090D01*
G01X80007Y40090D01*
G37*
G36*
G01X76959Y40090D02*
G01X76959Y40892D01*
G01X77993Y40892D01*
G01X77993Y40090D01*
G01X76959Y40090D01*
G37*
G36*
G01X80007Y61106D02*
G01X80007Y61908D01*
G01X81041Y61908D01*
G01X81041Y61106D01*
G01X80007Y61106D01*
G37*
G36*
G01X76959Y61106D02*
G01X76959Y61908D01*
G01X77993Y61908D01*
G01X77993Y61106D01*
G01X76959Y61106D01*
G37*
G36*
G01X80007Y60090D02*
G01X80007Y60892D01*
G01X81041Y60892D01*
G01X81041Y60090D01*
G01X80007Y60090D01*
G37*
G36*
G01X76959Y60090D02*
G01X76959Y60892D01*
G01X77993Y60892D01*
G01X77993Y60090D01*
G01X76959Y60090D01*
G37*
G36*
G01X120007Y53105D02*
G01X120007Y53910D01*
G01X121041Y53910D01*
G01X121041Y53105D01*
G01X120007Y53105D01*
G37*
G36*
G01X116959Y53105D02*
G01X116959Y53910D01*
G01X117993Y53910D01*
G01X117993Y53105D01*
G01X116959Y53105D01*
G37*
G36*
G01X120007Y52089D02*
G01X120007Y52894D01*
G01X121041Y52894D01*
G01X121041Y52089D01*
G01X120007Y52089D01*
G37*
G36*
G01X116959Y52089D02*
G01X116959Y52894D01*
G01X117993Y52894D01*
G01X117993Y52089D01*
G01X116959Y52089D01*
G37*
G36*
G01X100007Y63105D02*
G01X100007Y63910D01*
G01X101041Y63910D01*
G01X101041Y63105D01*
G01X100007Y63105D01*
G37*
G36*
G01X96959Y63105D02*
G01X96959Y63910D01*
G01X97993Y63910D01*
G01X97993Y63105D01*
G01X96959Y63105D01*
G37*
G36*
G01X100007Y62089D02*
G01X100007Y62894D01*
G01X101041Y62894D01*
G01X101041Y62089D01*
G01X100007Y62089D01*
G37*
G36*
G01X96959Y62089D02*
G01X96959Y62894D01*
G01X97993Y62894D01*
G01X97993Y62089D01*
G01X96959Y62089D01*
G37*
G36*
G01X100007Y43105D02*
G01X100007Y43910D01*
G01X101041Y43910D01*
G01X101041Y43105D01*
G01X100007Y43105D01*
G37*
G36*
G01X96959Y43105D02*
G01X96959Y43910D01*
G01X97993Y43910D01*
G01X97993Y43105D01*
G01X96959Y43105D01*
G37*
G36*
G01X100007Y42089D02*
G01X100007Y42894D01*
G01X101041Y42894D01*
G01X101041Y42089D01*
G01X100007Y42089D01*
G37*
G36*
G01X96959Y42089D02*
G01X96959Y42894D01*
G01X97993Y42894D01*
G01X97993Y42089D01*
G01X96959Y42089D01*
G37*
G36*
G01X83090Y75007D02*
G01X83090Y76041D01*
G01X83893Y76041D01*
G01X83893Y75007D01*
G01X83090Y75007D01*
G37*
G36*
G01X83090Y71959D02*
G01X83090Y72993D01*
G01X83893Y72993D01*
G01X83893Y71959D01*
G01X83090Y71959D01*
G37*
G36*
G01X84106Y75007D02*
G01X84106Y76041D01*
G01X84909Y76041D01*
G01X84909Y75007D01*
G01X84106Y75007D01*
G37*
G36*
G01X84106Y71959D02*
G01X84106Y72993D01*
G01X84909Y72993D01*
G01X84909Y71959D01*
G01X84106Y71959D01*
G37*
G36*
G01X21008Y20105D02*
G01X21008Y20910D01*
G01X22042Y20910D01*
G01X22042Y20105D01*
G01X21008Y20105D01*
G37*
G36*
G01X17960Y20105D02*
G01X17960Y20910D01*
G01X18991Y20910D01*
G01X18991Y20105D01*
G01X17960Y20105D01*
G37*
G36*
G01X21008Y19089D02*
G01X21008Y19894D01*
G01X22039Y19894D01*
G01X22039Y19089D01*
G01X21008Y19089D01*
G37*
G36*
G01X17960Y19089D02*
G01X17960Y19894D01*
G01X18991Y19894D01*
G01X18991Y19089D01*
G01X17960Y19089D01*
G37*
M00*
M02*
