G04 Layer: BoardOutline*
G04 EasyEDA v6.3.30, 2020-03-21T18:53:40+08:00*
G04 c5f63f6c624d440bb2292f988f7b391a,d4aa0ff59f9544bb86dfcbd96f28fb4a,05*
G04 Gerber Generator version 0.2*
G04 Scale: 100 percent, Rotated: No, Reflected: No *
G04 Dimensions in millimeters *
G04 leading zeros omitted , absolute positions ,3 integer and 3 decimal *
%FSLAX33Y33*%
%MOMM*%
G90*
G71D02*

%ADD10C,0.200000*%
%ADD11C,0.254000*%
G54D10*
G01X146000Y15499D02*
G01X146000Y47000D01*
G01X25699Y4799D02*
G01X122000Y0D01*
G01X0Y67499D02*
G01X29999Y77999D01*
G01X0Y16499D02*
G01X0Y67499D01*
G01X146000Y47000D02*
G01X146000Y74000D01*
G01X49000Y77999D02*
G01X141999Y77999D01*
G01X146000Y74000D01*
G01X36000Y76999D02*
G01X49000Y76999D01*
G01X49000Y77999D01*
G01X36041Y76999D02*
G01X35000Y76999D01*
G01X29914Y77972D02*
G01X35000Y77999D01*
G01X35000Y76999D01*
G01X0Y16499D02*
G01X25699Y4799D01*
G01X122000Y0D02*
G01X139000Y8499D01*
G01X146000Y15499D01*
G54D11*
G01X120000Y34000D02*
G01X120000Y32000D01*
G01X120000Y32000D02*
G01X118000Y32000D01*
G01X118000Y32000D02*
G01X118000Y34000D01*
G01X118000Y34000D02*
G01X120000Y34000D01*
G01X79999Y22000D02*
G01X79999Y20000D01*
G01X79999Y20000D02*
G01X77999Y20000D01*
G01X77999Y20000D02*
G01X77999Y22000D01*
G01X77999Y22000D02*
G01X79999Y22000D01*
G01X100000Y24000D02*
G01X100000Y22000D01*
G01X100000Y22000D02*
G01X98000Y22000D01*
G01X98000Y22000D02*
G01X98000Y24000D01*
G01X98000Y24000D02*
G01X100000Y24000D01*
G01X79999Y41999D02*
G01X79999Y39999D01*
G01X79999Y39999D02*
G01X77999Y39999D01*
G01X77999Y39999D02*
G01X77999Y41999D01*
G01X77999Y41999D02*
G01X79999Y41999D01*
G01X79999Y62000D02*
G01X79999Y60000D01*
G01X79999Y60000D02*
G01X77999Y60000D01*
G01X77999Y60000D02*
G01X77999Y62000D01*
G01X77999Y62000D02*
G01X79999Y62000D01*
G01X120000Y53999D02*
G01X120000Y51999D01*
G01X120000Y51999D02*
G01X118000Y51999D01*
G01X118000Y51999D02*
G01X118000Y53999D01*
G01X118000Y53999D02*
G01X120000Y53999D01*
G01X100000Y63999D02*
G01X100000Y62000D01*
G01X100000Y62000D02*
G01X98000Y62000D01*
G01X98000Y62000D02*
G01X98000Y63999D01*
G01X98000Y63999D02*
G01X100000Y63999D01*
G01X100000Y43999D02*
G01X100000Y41999D01*
G01X100000Y41999D02*
G01X98000Y41999D01*
G01X98000Y41999D02*
G01X98000Y43999D01*
G01X98000Y43999D02*
G01X100000Y43999D01*
G01X83000Y75000D02*
G01X85000Y75000D01*
G01X85000Y75000D02*
G01X85000Y73000D01*
G01X85000Y73000D02*
G01X83000Y73000D01*
G01X83000Y73000D02*
G01X83000Y75000D01*
G01X21000Y21000D02*
G01X21000Y19000D01*
G01X21000Y19000D02*
G01X19000Y19000D01*
G01X19000Y19000D02*
G01X19000Y21000D01*
G01X19000Y21000D02*
G01X21000Y21000D01*
G75*
G01X26500Y22000D02*
G02X32500Y22000I3000J0D01*
G01*
G75*
G01X87500Y55000D02*
G02X81500Y55000I-3000J0D01*
G01*
G75*
G01X81500Y55000D02*
G02X87500Y55000I3000J0D01*
G01*
G75*
G01X127500Y58500D02*
G02X121500Y58500I-3000J0D01*
G01*
G75*
G01X121500Y58500D02*
G02X127500Y58500I3000J0D01*
G01*
G75*
G01X132000Y16500D02*
G02X126000Y16500I-3000J0D01*
G01*
G75*
G01X126000Y16500D02*
G02X132000Y16500I3000J0D01*
G01*
G75*
G01X32500Y22000D02*
G02X26500Y22000I-3000J0D01*
G01*
G75*
G01X26000Y59000D02*
G02X20000Y59000I-3000J0D01*
G01*
G75*
G01X20000Y59000D02*
G02X26000Y59000I3000J0D01*
G01*

%LPD*%
M00*
M02*
