G04 Layer: TopSilkLayer*
G04 EasyEDA v6.3.30, 2020-03-21T18:53:40+08:00*
G04 c5f63f6c624d440bb2292f988f7b391a,d4aa0ff59f9544bb86dfcbd96f28fb4a,05*
G04 Gerber Generator version 0.2*
G04 Scale: 100 percent, Rotated: No, Reflected: No *
G04 Dimensions in millimeters *
G04 leading zeros omitted , absolute positions ,3 integer and 3 decimal *
%FSLAX33Y33*%
%MOMM*%
G90*
G71D02*

%ADD10C,0.200000*%
%ADD11C,0.254000*%
%ADD13C,0.100000*%
%ADD57C,0.202997*%
%ADD58C,0.203200*%
%ADD59C,0.152400*%

%LPD*%
G54D10*
G01X26199Y4799D02*
G01X26599Y12699D01*
G01X66899Y10599D01*
G01X66499Y2799D01*
G01X81800Y1999D02*
G01X82200Y9599D01*
G01X122300Y7499D01*
G01X121900Y-0D01*
G01X10000Y70499D02*
G01X10000Y58499D01*
G01X19000Y58499D01*
G01X19000Y70499D01*
G01X10000Y70499D01*
G01X71500Y77999D02*
G01X80400Y77999D01*
G01X80400Y73299D01*
G01X71500Y73299D01*
G01X71500Y77999D01*
G01X56000Y78499D02*
G01X56000Y73500D01*
G01X57000Y72500D01*
G01X63000Y72500D01*
G01X63999Y73500D01*
G01X63999Y78499D01*
G54D57*
G01X35999Y74250D02*
G01X35999Y76550D01*
G01X48099Y76550D02*
G01X48099Y74250D01*
G01X31099Y67850D02*
G01X31099Y57050D01*
G01X52899Y57050D01*
G01X52899Y67850D01*
G01X31199Y67850D01*
G01X55399Y54850D02*
G01X55399Y74250D01*
G01X28499Y74250D01*
G01X28499Y54850D01*
G01X55399Y54850D01*
G54D10*
G01X129499Y77999D02*
G01X129499Y67499D01*
G01X132001Y65000D01*
G01X145999Y65000D01*
G54D11*
G01X80299Y73400D02*
G01X71700Y73400D01*
G01X71700Y73400D02*
G01X71700Y77799D01*
G01X80299Y73400D02*
G01X80299Y77799D01*
G01X80299Y77799D02*
G01X71700Y77799D01*
G01X118649Y77661D02*
G01X118649Y76137D01*
G01X121951Y77661D02*
G01X121951Y76137D01*
G01X121697Y75883D02*
G01X121316Y75883D01*
G01X121697Y77915D02*
G01X121316Y77915D01*
G01X118903Y75883D02*
G01X120554Y75883D01*
G01X118903Y77915D02*
G01X120554Y77915D01*
G54D58*
G01X57787Y56698D02*
G01X59123Y56698D01*
G01X57787Y56698D02*
G01X57787Y57273D01*
G01X57850Y57463D01*
G01X57914Y57527D01*
G01X58041Y57590D01*
G01X58231Y57590D01*
G01X58361Y57527D01*
G01X58424Y57463D01*
G01X58488Y57273D01*
G01X58488Y56698D01*
G01X57787Y58520D02*
G01X59123Y58009D01*
G01X57787Y58520D02*
G01X59123Y59028D01*
G01X58678Y58202D02*
G01X58678Y58837D01*
G01X58041Y59449D02*
G01X57977Y59576D01*
G01X57787Y59767D01*
G01X59123Y59767D01*
G01X57787Y60569D02*
G01X57850Y60376D01*
G01X58041Y60249D01*
G01X58361Y60186D01*
G01X58551Y60186D01*
G01X58869Y60249D01*
G01X59059Y60376D01*
G01X59123Y60569D01*
G01X59123Y60696D01*
G01X59059Y60887D01*
G01X58869Y61014D01*
G01X58551Y61077D01*
G01X58361Y61077D01*
G01X58041Y61014D01*
G01X57850Y60887D01*
G01X57787Y60696D01*
G01X57787Y60569D01*
G01X57533Y62642D02*
G01X59570Y61497D01*
G01X57787Y63064D02*
G01X59123Y63064D01*
G01X57787Y63064D02*
G01X57787Y63635D01*
G01X57850Y63826D01*
G01X57914Y63889D01*
G01X58041Y63955D01*
G01X58168Y63955D01*
G01X58297Y63889D01*
G01X58361Y63826D01*
G01X58424Y63635D01*
G01X58424Y63064D01*
G01X58424Y63508D02*
G01X59123Y63955D01*
G01X57787Y64374D02*
G01X59123Y65266D01*
G01X57787Y65266D02*
G01X59123Y64374D01*
G01X58041Y65685D02*
G01X57977Y65812D01*
G01X57787Y66003D01*
G01X59123Y66003D01*
G01X55686Y57500D02*
G01X57023Y57500D01*
G01X55686Y57500D02*
G01X55686Y58071D01*
G01X55750Y58264D01*
G01X55813Y58328D01*
G01X55940Y58391D01*
G01X56131Y58391D01*
G01X56261Y58328D01*
G01X56324Y58264D01*
G01X56388Y58071D01*
G01X56388Y57500D01*
G01X55686Y59321D02*
G01X57023Y58810D01*
G01X55686Y59321D02*
G01X57023Y59829D01*
G01X56578Y59001D02*
G01X56578Y59638D01*
G01X56131Y61076D02*
G01X56324Y61012D01*
G01X56451Y60885D01*
G01X56515Y60695D01*
G01X56515Y60631D01*
G01X56451Y60438D01*
G01X56324Y60311D01*
G01X56131Y60248D01*
G01X56067Y60248D01*
G01X55877Y60311D01*
G01X55750Y60438D01*
G01X55686Y60631D01*
G01X55686Y60695D01*
G01X55750Y60885D01*
G01X55877Y61012D01*
G01X56131Y61076D01*
G01X56451Y61076D01*
G01X56769Y61012D01*
G01X56959Y60885D01*
G01X57023Y60695D01*
G01X57023Y60568D01*
G01X56959Y60375D01*
G01X56832Y60311D01*
G01X55432Y62640D02*
G01X57470Y61495D01*
G01X55686Y63507D02*
G01X57023Y63507D01*
G01X55686Y63062D02*
G01X55686Y63951D01*
G01X55686Y64373D02*
G01X57023Y65264D01*
G01X55686Y65264D02*
G01X57023Y64373D01*
G01X55940Y65683D02*
G01X55877Y65810D01*
G01X55686Y66001D01*
G01X57023Y66001D01*
G01X55686Y70927D02*
G01X55686Y71628D01*
G01X56196Y71244D01*
G01X56196Y71435D01*
G01X56260Y71564D01*
G01X56323Y71628D01*
G01X56514Y71691D01*
G01X56641Y71691D01*
G01X56831Y71628D01*
G01X56958Y71498D01*
G01X57024Y71308D01*
G01X57024Y71117D01*
G01X56958Y70927D01*
G01X56895Y70863D01*
G01X56768Y70800D01*
G01X55686Y72110D02*
G01X57024Y72618D01*
G01X55686Y73129D02*
G01X57024Y72618D01*
G01X55686Y73675D02*
G01X55686Y74376D01*
G01X56196Y73995D01*
G01X56196Y74186D01*
G01X56260Y74313D01*
G01X56323Y74376D01*
G01X56514Y74440D01*
G01X56641Y74440D01*
G01X56831Y74376D01*
G01X56958Y74249D01*
G01X57024Y74059D01*
G01X57024Y73866D01*
G01X56958Y73675D01*
G01X56895Y73612D01*
G01X56768Y73548D01*
G01X57587Y71025D02*
G01X57587Y71727D01*
G01X58095Y71346D01*
G01X58095Y71536D01*
G01X58161Y71663D01*
G01X58224Y71727D01*
G01X58415Y71790D01*
G01X58542Y71790D01*
G01X58732Y71727D01*
G01X58859Y71600D01*
G01X58923Y71409D01*
G01X58923Y71219D01*
G01X58859Y71025D01*
G01X58796Y70962D01*
G01X58669Y70898D01*
G01X57587Y72209D02*
G01X58923Y72720D01*
G01X57587Y73228D02*
G01X58923Y72720D01*
G01X57587Y73776D02*
G01X57587Y74475D01*
G01X58095Y74094D01*
G01X58095Y74284D01*
G01X58161Y74411D01*
G01X58224Y74475D01*
G01X58415Y74538D01*
G01X58542Y74538D01*
G01X58732Y74475D01*
G01X58859Y74348D01*
G01X58923Y74157D01*
G01X58923Y73967D01*
G01X58859Y73776D01*
G01X58796Y73713D01*
G01X58669Y73649D01*
G01X60478Y60891D02*
G01X60351Y60764D01*
G01X60288Y60571D01*
G01X60288Y60317D01*
G01X60351Y60126D01*
G01X60478Y59999D01*
G01X60605Y59999D01*
G01X60732Y60063D01*
G01X60796Y60126D01*
G01X60859Y60253D01*
G01X60986Y60637D01*
G01X61050Y60764D01*
G01X61113Y60827D01*
G01X61243Y60891D01*
G01X61433Y60891D01*
G01X61560Y60764D01*
G01X61624Y60571D01*
G01X61624Y60317D01*
G01X61560Y60126D01*
G01X61433Y59999D01*
G01X60288Y61310D02*
G01X61624Y61628D01*
G01X60288Y61948D02*
G01X61624Y61628D01*
G01X60288Y61948D02*
G01X61624Y62265D01*
G01X60288Y62583D02*
G01X61624Y62265D01*
G01X60288Y63004D02*
G01X61624Y63004D01*
G01X60288Y63004D02*
G01X60288Y63449D01*
G01X60351Y63639D01*
G01X60478Y63766D01*
G01X60605Y63830D01*
G01X60796Y63893D01*
G01X61113Y63893D01*
G01X61306Y63830D01*
G01X61433Y63766D01*
G01X61560Y63639D01*
G01X61624Y63449D01*
G01X61624Y63004D01*
G01X60288Y64315D02*
G01X61624Y64315D01*
G01X60288Y65115D02*
G01X60351Y64988D01*
G01X60478Y64861D01*
G01X60605Y64798D01*
G01X60796Y64734D01*
G01X61113Y64734D01*
G01X61306Y64798D01*
G01X61433Y64861D01*
G01X61560Y64988D01*
G01X61624Y65115D01*
G01X61624Y65372D01*
G01X61560Y65499D01*
G01X61433Y65626D01*
G01X61306Y65689D01*
G01X61113Y65753D01*
G01X60796Y65753D01*
G01X60605Y65689D01*
G01X60478Y65626D01*
G01X60351Y65499D01*
G01X60288Y65372D01*
G01X60288Y65115D01*
G01X63205Y71955D02*
G01X63078Y71891D01*
G01X62951Y71764D01*
G01X62888Y71635D01*
G01X62888Y71381D01*
G01X62951Y71254D01*
G01X63078Y71127D01*
G01X63205Y71063D01*
G01X63396Y71000D01*
G01X63713Y71000D01*
G01X63906Y71063D01*
G01X64033Y71127D01*
G01X64160Y71254D01*
G01X64224Y71381D01*
G01X64224Y71635D01*
G01X64160Y71764D01*
G01X64033Y71891D01*
G01X63906Y71955D01*
G01X63713Y71955D01*
G01X63713Y71635D02*
G01X63713Y71955D01*
G01X62888Y72374D02*
G01X64224Y72374D01*
G01X62888Y72374D02*
G01X64224Y73265D01*
G01X62888Y73265D02*
G01X64224Y73265D01*
G01X62888Y73685D02*
G01X64224Y73685D01*
G01X62888Y73685D02*
G01X62888Y74132D01*
G01X62951Y74322D01*
G01X63078Y74449D01*
G01X63205Y74513D01*
G01X63396Y74576D01*
G01X63713Y74576D01*
G01X63906Y74513D01*
G01X64033Y74449D01*
G01X64160Y74322D01*
G01X64224Y74132D01*
G01X64224Y73685D01*
G01X63077Y60091D02*
G01X62950Y59964D01*
G01X62887Y59771D01*
G01X62887Y59517D01*
G01X62950Y59327D01*
G01X63077Y59200D01*
G01X63204Y59200D01*
G01X63331Y59263D01*
G01X63395Y59327D01*
G01X63458Y59454D01*
G01X63588Y59835D01*
G01X63651Y59964D01*
G01X63715Y60028D01*
G01X63842Y60091D01*
G01X64032Y60091D01*
G01X64159Y59964D01*
G01X64223Y59771D01*
G01X64223Y59517D01*
G01X64159Y59327D01*
G01X64032Y59200D01*
G01X62887Y60510D02*
G01X64223Y60828D01*
G01X62887Y61148D02*
G01X64223Y60828D01*
G01X62887Y61148D02*
G01X64223Y61465D01*
G01X62887Y61783D02*
G01X64223Y61465D01*
G01X63204Y63157D02*
G01X63077Y63094D01*
G01X62950Y62967D01*
G01X62887Y62840D01*
G01X62887Y62586D01*
G01X62950Y62459D01*
G01X63077Y62332D01*
G01X63204Y62266D01*
G01X63395Y62202D01*
G01X63715Y62202D01*
G01X63905Y62266D01*
G01X64032Y62332D01*
G01X64159Y62459D01*
G01X64223Y62586D01*
G01X64223Y62840D01*
G01X64159Y62967D01*
G01X64032Y63094D01*
G01X63905Y63157D01*
G01X62887Y63579D02*
G01X64223Y63579D01*
G01X64223Y63579D02*
G01X64223Y64341D01*
G01X62887Y64762D02*
G01X64223Y64762D01*
G01X62887Y65651D02*
G01X63778Y64762D01*
G01X63458Y65080D02*
G01X64223Y65651D01*
G01X60086Y70800D02*
G01X61424Y70800D01*
G01X60086Y70800D02*
G01X60086Y71372D01*
G01X60149Y71562D01*
G01X60215Y71626D01*
G01X60342Y71689D01*
G01X60469Y71689D01*
G01X60596Y71626D01*
G01X60660Y71562D01*
G01X60723Y71372D01*
G01X60723Y70800D02*
G01X60723Y71372D01*
G01X60787Y71562D01*
G01X60850Y71626D01*
G01X60977Y71689D01*
G01X61168Y71689D01*
G01X61295Y71626D01*
G01X61358Y71562D01*
G01X61424Y71372D01*
G01X61424Y70800D01*
G01X60086Y72492D02*
G01X60149Y72365D01*
G01X60279Y72238D01*
G01X60406Y72175D01*
G01X60596Y72111D01*
G01X60914Y72111D01*
G01X61104Y72175D01*
G01X61231Y72238D01*
G01X61358Y72365D01*
G01X61424Y72492D01*
G01X61424Y72746D01*
G01X61358Y72873D01*
G01X61231Y73000D01*
G01X61104Y73066D01*
G01X60914Y73130D01*
G01X60596Y73130D01*
G01X60406Y73066D01*
G01X60279Y73000D01*
G01X60149Y72873D01*
G01X60086Y72746D01*
G01X60086Y72492D01*
G01X60086Y73930D02*
G01X60149Y73803D01*
G01X60279Y73676D01*
G01X60406Y73612D01*
G01X60596Y73549D01*
G01X60914Y73549D01*
G01X61104Y73612D01*
G01X61231Y73676D01*
G01X61358Y73803D01*
G01X61424Y73930D01*
G01X61424Y74184D01*
G01X61358Y74313D01*
G01X61231Y74440D01*
G01X61104Y74504D01*
G01X60914Y74567D01*
G01X60596Y74567D01*
G01X60406Y74504D01*
G01X60279Y74440D01*
G01X60149Y74313D01*
G01X60086Y74184D01*
G01X60086Y73930D01*
G01X60086Y75433D02*
G01X61424Y75433D01*
G01X60086Y74986D02*
G01X60086Y75878D01*
G01X60086Y76680D02*
G01X60149Y76487D01*
G01X60342Y76360D01*
G01X60660Y76297D01*
G01X60850Y76297D01*
G01X61168Y76360D01*
G01X61358Y76487D01*
G01X61424Y76680D01*
G01X61424Y76807D01*
G01X61358Y76998D01*
G01X61168Y77125D01*
G01X60850Y77188D01*
G01X60660Y77188D01*
G01X60342Y77125D01*
G01X60149Y76998D01*
G01X60086Y76807D01*
G01X60086Y76680D01*
G01X30500Y52051D02*
G01X30500Y50110D01*
G01X30500Y52051D02*
G01X31330Y52051D01*
G01X31607Y51957D01*
G01X31701Y51865D01*
G01X31793Y51680D01*
G01X31793Y51403D01*
G01X31701Y51218D01*
G01X31607Y51126D01*
G01X31330Y51035D01*
G01X30500Y51035D01*
G01X32864Y51403D02*
G01X32679Y51312D01*
G01X32494Y51126D01*
G01X32402Y50849D01*
G01X32402Y50664D01*
G01X32494Y50387D01*
G01X32679Y50202D01*
G01X32864Y50110D01*
G01X33141Y50110D01*
G01X33327Y50202D01*
G01X33510Y50387D01*
G01X33604Y50664D01*
G01X33604Y50849D01*
G01X33510Y51126D01*
G01X33327Y51312D01*
G01X33141Y51403D01*
G01X32864Y51403D01*
G01X35321Y51126D02*
G01X35135Y51312D01*
G01X34952Y51403D01*
G01X34675Y51403D01*
G01X34490Y51312D01*
G01X34305Y51126D01*
G01X34213Y50849D01*
G01X34213Y50664D01*
G01X34305Y50387D01*
G01X34490Y50202D01*
G01X34675Y50110D01*
G01X34952Y50110D01*
G01X35135Y50202D01*
G01X35321Y50387D01*
G01X35930Y52051D02*
G01X35930Y50110D01*
G01X36855Y51403D02*
G01X35930Y50478D01*
G01X36301Y50849D02*
G01X36946Y50110D01*
G01X37556Y50849D02*
G01X38663Y50849D01*
G01X38663Y51035D01*
G01X38572Y51218D01*
G01X38480Y51312D01*
G01X38295Y51403D01*
G01X38018Y51403D01*
G01X37833Y51312D01*
G01X37647Y51126D01*
G01X37556Y50849D01*
G01X37556Y50664D01*
G01X37647Y50387D01*
G01X37833Y50202D01*
G01X38018Y50110D01*
G01X38295Y50110D01*
G01X38480Y50202D01*
G01X38663Y50387D01*
G01X39552Y52051D02*
G01X39552Y50478D01*
G01X39644Y50202D01*
G01X39829Y50110D01*
G01X40012Y50110D01*
G01X39273Y51403D02*
G01X39921Y51403D01*
G01X42506Y51403D02*
G01X42321Y51312D01*
G01X42138Y51126D01*
G01X42044Y50849D01*
G01X42044Y50664D01*
G01X42138Y50387D01*
G01X42321Y50202D01*
G01X42506Y50110D01*
G01X42783Y50110D01*
G01X42969Y50202D01*
G01X43154Y50387D01*
G01X43245Y50664D01*
G01X43245Y50849D01*
G01X43154Y51126D01*
G01X42969Y51312D01*
G01X42783Y51403D01*
G01X42506Y51403D01*
G01X43855Y51403D02*
G01X43855Y50110D01*
G01X43855Y50849D02*
G01X43946Y51126D01*
G01X44132Y51312D01*
G01X44317Y51403D01*
G01X44594Y51403D01*
G01X46311Y51403D02*
G01X46311Y49925D01*
G01X46220Y49648D01*
G01X46128Y49556D01*
G01X45943Y49462D01*
G01X45666Y49462D01*
G01X45481Y49556D01*
G01X46311Y51126D02*
G01X46128Y51312D01*
G01X45943Y51403D01*
G01X45666Y51403D01*
G01X45481Y51312D01*
G01X45295Y51126D01*
G01X45204Y50849D01*
G01X45204Y50664D01*
G01X45295Y50387D01*
G01X45481Y50202D01*
G01X45666Y50110D01*
G01X45943Y50110D01*
G01X46128Y50202D01*
G01X46311Y50387D01*
G01X48031Y51403D02*
G01X48031Y50110D01*
G01X48031Y51126D02*
G01X47845Y51312D01*
G01X47660Y51403D01*
G01X47383Y51403D01*
G01X47198Y51312D01*
G01X47015Y51126D01*
G01X46921Y50849D01*
G01X46921Y50664D01*
G01X47015Y50387D01*
G01X47198Y50202D01*
G01X47383Y50110D01*
G01X47660Y50110D01*
G01X47845Y50202D01*
G01X48031Y50387D01*
G01X48640Y51403D02*
G01X48640Y50110D01*
G01X48640Y51035D02*
G01X48917Y51312D01*
G01X49103Y51403D01*
G01X49380Y51403D01*
G01X49562Y51312D01*
G01X49656Y51035D01*
G01X49656Y50110D01*
G01X51688Y52051D02*
G01X52428Y50110D01*
G01X53167Y52051D02*
G01X52428Y50110D01*
G01X53776Y51680D02*
G01X53959Y51774D01*
G01X54236Y52051D01*
G01X54236Y50110D01*
G01X54846Y51680D02*
G01X55031Y51774D01*
G01X55308Y52051D01*
G01X55308Y50110D01*
G01X31145Y49003D02*
G01X31145Y47062D01*
G01X30500Y49003D02*
G01X31793Y49003D01*
G01X32402Y49003D02*
G01X32402Y47062D01*
G01X32402Y47987D02*
G01X32679Y48264D01*
G01X32864Y48355D01*
G01X33141Y48355D01*
G01X33327Y48264D01*
G01X33418Y47987D01*
G01X33418Y47062D01*
G01X34490Y48355D02*
G01X34305Y48264D01*
G01X34119Y48078D01*
G01X34028Y47801D01*
G01X34028Y47616D01*
G01X34119Y47339D01*
G01X34305Y47154D01*
G01X34490Y47062D01*
G01X34767Y47062D01*
G01X34952Y47154D01*
G01X35135Y47339D01*
G01X35229Y47616D01*
G01X35229Y47801D01*
G01X35135Y48078D01*
G01X34952Y48264D01*
G01X34767Y48355D01*
G01X34490Y48355D01*
G01X35839Y48355D02*
G01X35839Y47062D01*
G01X35839Y47987D02*
G01X36116Y48264D01*
G01X36301Y48355D01*
G01X36578Y48355D01*
G01X36761Y48264D01*
G01X36855Y47987D01*
G01X36855Y47062D01*
G01X36855Y47987D02*
G01X37132Y48264D01*
G01X37317Y48355D01*
G01X37594Y48355D01*
G01X37777Y48264D01*
G01X37871Y47987D01*
G01X37871Y47062D01*
G01X39588Y48355D02*
G01X39588Y47062D01*
G01X39588Y48078D02*
G01X39402Y48264D01*
G01X39220Y48355D01*
G01X38943Y48355D01*
G01X38757Y48264D01*
G01X38572Y48078D01*
G01X38480Y47801D01*
G01X38480Y47616D01*
G01X38572Y47339D01*
G01X38757Y47154D01*
G01X38943Y47062D01*
G01X39220Y47062D01*
G01X39402Y47154D01*
G01X39588Y47339D01*
G01X41213Y48078D02*
G01X41122Y48264D01*
G01X40845Y48355D01*
G01X40568Y48355D01*
G01X40289Y48264D01*
G01X40197Y48078D01*
G01X40289Y47893D01*
G01X40474Y47801D01*
G01X40937Y47710D01*
G01X41122Y47616D01*
G01X41213Y47430D01*
G01X41213Y47339D01*
G01X41122Y47154D01*
G01X40845Y47062D01*
G01X40568Y47062D01*
G01X40289Y47154D01*
G01X40197Y47339D01*
G01X43893Y49003D02*
G01X43893Y47062D01*
G01X43245Y49003D02*
G01X44538Y49003D01*
G01X45148Y49003D02*
G01X45148Y47062D01*
G01X45148Y49003D02*
G01X46349Y49003D01*
G01X45148Y48078D02*
G01X45887Y48078D01*
G01X45148Y47062D02*
G01X46349Y47062D01*
G01X46959Y49003D02*
G01X46959Y47062D01*
G01X46959Y49003D02*
G01X47698Y47062D01*
G01X48437Y49003D02*
G01X47698Y47062D01*
G01X48437Y49003D02*
G01X48437Y47062D01*
G01X49047Y49003D02*
G01X49047Y47062D01*
G01X49047Y49003D02*
G01X49877Y49003D01*
G01X50154Y48909D01*
G01X50246Y48817D01*
G01X50340Y48632D01*
G01X50340Y48355D01*
G01X50246Y48170D01*
G01X50154Y48078D01*
G01X49877Y47987D01*
G01X49047Y47987D01*
G01X50949Y49003D02*
G01X50949Y47062D01*
G01X50949Y49003D02*
G01X52151Y49003D01*
G01X50949Y48078D02*
G01X51688Y48078D01*
G01X50949Y47062D02*
G01X52151Y47062D01*
G01X30591Y45492D02*
G01X30591Y45584D01*
G01X30685Y45769D01*
G01X30777Y45861D01*
G01X30962Y45955D01*
G01X31330Y45955D01*
G01X31516Y45861D01*
G01X31607Y45769D01*
G01X31701Y45584D01*
G01X31701Y45398D01*
G01X31607Y45216D01*
G01X31424Y44939D01*
G01X30500Y44014D01*
G01X31793Y44014D01*
G01X32956Y45955D02*
G01X32679Y45861D01*
G01X32494Y45584D01*
G01X32402Y45122D01*
G01X32402Y44845D01*
G01X32494Y44382D01*
G01X32679Y44106D01*
G01X32956Y44014D01*
G01X33141Y44014D01*
G01X33418Y44106D01*
G01X33604Y44382D01*
G01X33695Y44845D01*
G01X33695Y45122D01*
G01X33604Y45584D01*
G01X33418Y45861D01*
G01X33141Y45955D01*
G01X32956Y45955D01*
G01X34396Y45492D02*
G01X34396Y45584D01*
G01X34490Y45769D01*
G01X34581Y45861D01*
G01X34767Y45955D01*
G01X35135Y45955D01*
G01X35321Y45861D01*
G01X35412Y45769D01*
G01X35506Y45584D01*
G01X35506Y45398D01*
G01X35412Y45216D01*
G01X35229Y44939D01*
G01X34305Y44014D01*
G01X35597Y44014D01*
G01X36761Y45955D02*
G01X36484Y45861D01*
G01X36301Y45584D01*
G01X36207Y45122D01*
G01X36207Y44845D01*
G01X36301Y44382D01*
G01X36484Y44106D01*
G01X36761Y44014D01*
G01X36946Y44014D01*
G01X37223Y44106D01*
G01X37409Y44382D01*
G01X37500Y44845D01*
G01X37500Y45122D01*
G01X37409Y45584D01*
G01X37223Y45861D01*
G01X36946Y45955D01*
G01X36761Y45955D01*
G01X38110Y44845D02*
G01X39773Y44845D01*
G01X40937Y45955D02*
G01X40660Y45861D01*
G01X40474Y45584D01*
G01X40383Y45122D01*
G01X40383Y44845D01*
G01X40474Y44382D01*
G01X40660Y44106D01*
G01X40937Y44014D01*
G01X41122Y44014D01*
G01X41399Y44106D01*
G01X41584Y44382D01*
G01X41676Y44845D01*
G01X41676Y45122D01*
G01X41584Y45584D01*
G01X41399Y45861D01*
G01X41122Y45955D01*
G01X40937Y45955D01*
G01X42471Y45955D02*
G01X43487Y45955D01*
G01X42930Y45216D01*
G01X43210Y45216D01*
G01X43393Y45122D01*
G01X43487Y45030D01*
G01X43578Y44753D01*
G01X43578Y44568D01*
G01X43487Y44291D01*
G01X43301Y44106D01*
G01X43024Y44014D01*
G01X42748Y44014D01*
G01X42471Y44106D01*
G01X42377Y44200D01*
G01X42285Y44382D01*
G01X44188Y44845D02*
G01X45851Y44845D01*
G01X46553Y45492D02*
G01X46553Y45584D01*
G01X46644Y45769D01*
G01X46738Y45861D01*
G01X46921Y45955D01*
G01X47292Y45955D01*
G01X47477Y45861D01*
G01X47569Y45769D01*
G01X47660Y45584D01*
G01X47660Y45398D01*
G01X47569Y45216D01*
G01X47383Y44939D01*
G01X46461Y44014D01*
G01X47754Y44014D01*
G01X48364Y45584D02*
G01X48546Y45678D01*
G01X48823Y45955D01*
G01X48823Y44014D01*
G01X77499Y66550D02*
G01X77499Y64609D01*
G01X77499Y66550D02*
G01X78147Y66550D01*
G01X78424Y66458D01*
G01X78607Y66273D01*
G01X78701Y66087D01*
G01X78792Y65811D01*
G01X78792Y65348D01*
G01X78701Y65071D01*
G01X78607Y64889D01*
G01X78424Y64703D01*
G01X78147Y64609D01*
G01X77499Y64609D01*
G01X79864Y65905D02*
G01X79679Y65811D01*
G01X79493Y65625D01*
G01X79402Y65348D01*
G01X79402Y65165D01*
G01X79493Y64889D01*
G01X79679Y64703D01*
G01X79864Y64609D01*
G01X80141Y64609D01*
G01X80327Y64703D01*
G01X80509Y64889D01*
G01X80603Y65165D01*
G01X80603Y65348D01*
G01X80509Y65625D01*
G01X80327Y65811D01*
G01X80141Y65905D01*
G01X79864Y65905D01*
G01X96999Y68551D02*
G01X96999Y66610D01*
G01X96999Y68551D02*
G01X97830Y68551D01*
G01X98107Y68457D01*
G01X98201Y68365D01*
G01X98292Y68180D01*
G01X98292Y67997D01*
G01X98201Y67811D01*
G01X98107Y67717D01*
G01X97830Y67626D01*
G01X96999Y67626D01*
G01X97647Y67626D02*
G01X98292Y66610D01*
G01X98902Y67349D02*
G01X100009Y67349D01*
G01X100009Y67535D01*
G01X99918Y67717D01*
G01X99826Y67811D01*
G01X99641Y67903D01*
G01X99364Y67903D01*
G01X99179Y67811D01*
G01X98993Y67626D01*
G01X98902Y67349D01*
G01X98902Y67164D01*
G01X98993Y66887D01*
G01X99179Y66701D01*
G01X99364Y66610D01*
G01X99641Y66610D01*
G01X99826Y66701D01*
G01X100009Y66887D01*
G01X118000Y58551D02*
G01X118000Y56610D01*
G01X118000Y58551D02*
G01X118739Y56610D01*
G01X119478Y58551D02*
G01X118739Y56610D01*
G01X119478Y58551D02*
G01X119478Y56610D01*
G01X120088Y58551D02*
G01X120179Y58457D01*
G01X120271Y58551D01*
G01X120179Y58642D01*
G01X120088Y58551D01*
G01X120179Y57903D02*
G01X120179Y56610D01*
G01X78000Y46550D02*
G01X78000Y44609D01*
G01X78000Y46550D02*
G01X79199Y46550D01*
G01X78000Y45625D02*
G01X78739Y45625D01*
G01X80919Y45905D02*
G01X80919Y44609D01*
G01X80919Y45625D02*
G01X80733Y45811D01*
G01X80548Y45905D01*
G01X80271Y45905D01*
G01X80088Y45811D01*
G01X79903Y45625D01*
G01X79809Y45348D01*
G01X79809Y45166D01*
G01X79903Y44889D01*
G01X80088Y44703D01*
G01X80271Y44609D01*
G01X80548Y44609D01*
G01X80733Y44703D01*
G01X80919Y44889D01*
G01X98193Y48174D02*
G01X98008Y48357D01*
G01X97731Y48451D01*
G01X97363Y48451D01*
G01X97083Y48357D01*
G01X96900Y48174D01*
G01X96900Y47988D01*
G01X96992Y47803D01*
G01X97083Y47711D01*
G01X97269Y47617D01*
G01X97822Y47435D01*
G01X98008Y47341D01*
G01X98099Y47249D01*
G01X98193Y47064D01*
G01X98193Y46787D01*
G01X98008Y46601D01*
G01X97731Y46510D01*
G01X97363Y46510D01*
G01X97083Y46601D01*
G01X96900Y46787D01*
G01X99265Y47803D02*
G01X99080Y47711D01*
G01X98894Y47526D01*
G01X98803Y47249D01*
G01X98803Y47064D01*
G01X98894Y46787D01*
G01X99080Y46601D01*
G01X99265Y46510D01*
G01X99542Y46510D01*
G01X99725Y46601D01*
G01X99910Y46787D01*
G01X100004Y47064D01*
G01X100004Y47249D01*
G01X99910Y47526D01*
G01X99725Y47711D01*
G01X99542Y47803D01*
G01X99265Y47803D01*
G01X100614Y48451D02*
G01X100614Y46510D01*
G01X118000Y38551D02*
G01X118000Y36610D01*
G01X118000Y36610D02*
G01X119108Y36610D01*
G01X120825Y37903D02*
G01X120825Y36610D01*
G01X120825Y37626D02*
G01X120642Y37811D01*
G01X120456Y37903D01*
G01X120179Y37903D01*
G01X119994Y37811D01*
G01X119809Y37626D01*
G01X119717Y37349D01*
G01X119717Y37164D01*
G01X119809Y36887D01*
G01X119994Y36701D01*
G01X120179Y36610D01*
G01X120456Y36610D01*
G01X120642Y36701D01*
G01X120825Y36887D01*
G01X79293Y26272D02*
G01X79108Y26458D01*
G01X78831Y26549D01*
G01X78463Y26549D01*
G01X78183Y26458D01*
G01X78000Y26272D01*
G01X78000Y26089D01*
G01X78092Y25904D01*
G01X78183Y25810D01*
G01X78369Y25719D01*
G01X78922Y25533D01*
G01X79108Y25442D01*
G01X79199Y25350D01*
G01X79293Y25165D01*
G01X79293Y24888D01*
G01X79108Y24703D01*
G01X78831Y24611D01*
G01X78463Y24611D01*
G01X78183Y24703D01*
G01X78000Y24888D01*
G01X79903Y26549D02*
G01X79994Y26458D01*
G01X80088Y26549D01*
G01X79994Y26643D01*
G01X79903Y26549D01*
G01X79994Y25904D02*
G01X79994Y24611D01*
G01X96999Y28551D02*
G01X96999Y27164D01*
G01X97091Y26887D01*
G01X97276Y26702D01*
G01X97553Y26610D01*
G01X97739Y26610D01*
G01X98015Y26702D01*
G01X98201Y26887D01*
G01X98292Y27164D01*
G01X98292Y28551D01*
G01X99179Y28551D02*
G01X99179Y26981D01*
G01X99273Y26702D01*
G01X99456Y26610D01*
G01X99641Y26610D01*
G01X98902Y27903D02*
G01X99550Y27903D01*
G54D59*
G01X47532Y12533D02*
G01X47435Y12643D01*
G01X47281Y12701D01*
G01X47073Y12712D01*
G01X46915Y12669D01*
G01X46806Y12570D01*
G01X46801Y12466D01*
G01X46849Y12359D01*
G01X46897Y12306D01*
G01X46998Y12248D01*
G01X47305Y12128D01*
G01X47407Y12072D01*
G01X47455Y12019D01*
G01X47500Y11912D01*
G01X47492Y11755D01*
G01X47385Y11656D01*
G01X47226Y11613D01*
G01X47018Y11624D01*
G01X46865Y11682D01*
G01X46767Y11791D01*
G01X47882Y12671D02*
G01X47827Y11583D01*
G01X47827Y11583D02*
G01X48451Y11551D01*
G01X48886Y12361D02*
G01X48889Y12414D01*
G01X48947Y12515D01*
G01X49001Y12563D01*
G01X49107Y12609D01*
G01X49315Y12598D01*
G01X49417Y12542D01*
G01X49465Y12489D01*
G01X49513Y12382D01*
G01X49508Y12278D01*
G01X49449Y12177D01*
G01X49337Y12025D01*
G01X48793Y11534D01*
G01X49519Y11497D01*
G01X103033Y9534D02*
G01X102934Y9640D01*
G01X102782Y9702D01*
G01X102574Y9712D01*
G01X102417Y9667D01*
G01X102308Y9570D01*
G01X102303Y9466D01*
G01X102348Y9360D01*
G01X102399Y9304D01*
G01X102500Y9248D01*
G01X102804Y9128D01*
G01X102906Y9070D01*
G01X102956Y9016D01*
G01X103002Y8910D01*
G01X102994Y8755D01*
G01X102885Y8656D01*
G01X102727Y8611D01*
G01X102519Y8621D01*
G01X102367Y8682D01*
G01X102268Y8792D01*
G01X103384Y9671D02*
G01X103328Y8580D01*
G01X103328Y8580D02*
G01X103952Y8549D01*
G01X104452Y9617D02*
G01X105022Y9588D01*
G01X104692Y9188D01*
G01X104847Y9180D01*
G01X104948Y9124D01*
G01X104996Y9068D01*
G01X105041Y8911D01*
G01X105036Y8807D01*
G01X104975Y8655D01*
G01X104868Y8556D01*
G01X104708Y8510D01*
G01X104554Y8518D01*
G01X104399Y8579D01*
G01X104351Y8633D01*
G01X104305Y8739D01*
G01X8321Y38527D02*
G01X8425Y38629D01*
G01X8479Y38786D01*
G01X8479Y38995D01*
G01X8425Y39150D01*
G01X8321Y39254D01*
G01X8220Y39254D01*
G01X8115Y39200D01*
G01X8062Y39150D01*
G01X8011Y39045D01*
G01X7907Y38733D01*
G01X7854Y38629D01*
G01X7803Y38578D01*
G01X7699Y38527D01*
G01X7544Y38527D01*
G01X7440Y38629D01*
G01X7386Y38786D01*
G01X7386Y38995D01*
G01X7440Y39150D01*
G01X7544Y39254D01*
G01X8479Y38184D02*
G01X7386Y38184D01*
G01X7386Y38184D02*
G01X7386Y37560D01*
G01X8270Y37217D02*
G01X8321Y37112D01*
G01X8479Y36958D01*
G01X7386Y36958D01*
G01X33186Y24500D02*
G01X33966Y24500D01*
G01X34121Y24550D01*
G01X34225Y24654D01*
G01X34276Y24812D01*
G01X34276Y24916D01*
G01X34225Y25071D01*
G01X34121Y25175D01*
G01X33966Y25226D01*
G01X33186Y25226D01*
G01X33186Y26194D02*
G01X33186Y25673D01*
G01X33654Y25622D01*
G01X33603Y25673D01*
G01X33550Y25830D01*
G01X33550Y25985D01*
G01X33603Y26140D01*
G01X33705Y26244D01*
G01X33862Y26298D01*
G01X33966Y26298D01*
G01X34121Y26244D01*
G01X34225Y26140D01*
G01X34276Y25985D01*
G01X34276Y25830D01*
G01X34225Y25673D01*
G01X34174Y25622D01*
G01X34070Y25569D01*
G01X56500Y39701D02*
G01X56500Y38921D01*
G01X56550Y38766D01*
G01X56654Y38662D01*
G01X56812Y38611D01*
G01X56916Y38611D01*
G01X57071Y38662D01*
G01X57175Y38766D01*
G01X57226Y38921D01*
G01X57226Y39701D01*
G01X58194Y39546D02*
G01X58140Y39650D01*
G01X57985Y39701D01*
G01X57881Y39701D01*
G01X57726Y39650D01*
G01X57622Y39492D01*
G01X57569Y39233D01*
G01X57569Y38974D01*
G01X57622Y38766D01*
G01X57726Y38662D01*
G01X57881Y38611D01*
G01X57935Y38611D01*
G01X58090Y38662D01*
G01X58194Y38766D01*
G01X58244Y38921D01*
G01X58244Y38974D01*
G01X58194Y39129D01*
G01X58090Y39233D01*
G01X57935Y39284D01*
G01X57881Y39284D01*
G01X57726Y39233D01*
G01X57622Y39129D01*
G01X57569Y38974D01*
G01X44500Y39701D02*
G01X44500Y38921D01*
G01X44550Y38766D01*
G01X44654Y38662D01*
G01X44812Y38611D01*
G01X44916Y38611D01*
G01X45071Y38662D01*
G01X45175Y38766D01*
G01X45226Y38921D01*
G01X45226Y39701D01*
G01X46298Y39701D02*
G01X45777Y38611D01*
G01X45569Y39701D02*
G01X46298Y39701D01*
G01X32500Y39701D02*
G01X32500Y38921D01*
G01X32550Y38766D01*
G01X32654Y38662D01*
G01X32812Y38611D01*
G01X32916Y38611D01*
G01X33071Y38662D01*
G01X33175Y38766D01*
G01X33226Y38921D01*
G01X33226Y39701D01*
G01X33569Y39492D02*
G01X33673Y39546D01*
G01X33830Y39701D01*
G01X33830Y38611D01*
G01X34483Y39701D02*
G01X34328Y39650D01*
G01X34224Y39492D01*
G01X34173Y39233D01*
G01X34173Y39078D01*
G01X34224Y38817D01*
G01X34328Y38662D01*
G01X34483Y38611D01*
G01X34587Y38611D01*
G01X34745Y38662D01*
G01X34849Y38817D01*
G01X34900Y39078D01*
G01X34900Y39233D01*
G01X34849Y39492D01*
G01X34745Y39650D01*
G01X34587Y39701D01*
G01X34483Y39701D01*
G54D11*
G75*
G01X118903Y75884D02*
G02X118649Y76138I0J254D01*
G01*
G75*
G01X121951Y76138D02*
G02X121697Y75884I-254J0D01*
G01*
G75*
G01X121951Y77662D02*
G03X121697Y77916I-254J0D01*
G01*
G75*
G01X118903Y77916D02*
G03X118649Y77662I0J-254D01*
G01*
G54D13*
G75*
G01X17721Y45600D02*
G03X17721Y45600I-3500J0D01*
G01*
G75*
G01X17500Y34000D02*
G03X17500Y34000I-3500J0D01*
G01*
G75*
G01X17721Y65600D02*
G03X17721Y65600I-3500J0D01*
G01*
G75*
G01X17721Y55600D02*
G03X17721Y55600I-3500J0D01*
G01*
G54D10*
G75*
G01X141600Y16800D02*
G03X141600Y16800I-6000J0D01*
G01*
G75*
G01X144000Y41600D02*
G03X144000Y41600I-6000J0D01*
G01*
G75*
G01X127001Y33000D02*
G03X127001Y33000I-8000J0D01*
G01*
G75*
G01X127000Y53000D02*
G03X127000Y53000I-8000J0D01*
G01*
G75*
G01X107001Y63000D02*
G03X107001Y63000I-8000J0D01*
G01*
G75*
G01X107001Y43000D02*
G03X107001Y43000I-8000J0D01*
G01*
G75*
G01X87000Y61000D02*
G03X87000Y61000I-8000J0D01*
G01*
G75*
G01X87000Y41000D02*
G03X87000Y41000I-8000J0D01*
G01*
G75*
G01X107001Y23000D02*
G03X107001Y23000I-8000J0D01*
G01*
G75*
G01X87000Y21000D02*
G03X87000Y21000I-8000J0D01*
G01*
G75*
G01X57500Y24500D02*
G03X57500Y24500I-6000J0D01*
G01*
G75*
G01X43500Y24500D02*
G03X43500Y24500I-6000J0D01*
G01*
G75*
G01X62500Y35500D02*
G03X62500Y35500I-6000J0D01*
G01*
G75*
G01X50500Y35500D02*
G03X50500Y35500I-6000J0D01*
G01*
G75*
G01X38500Y35500D02*
G03X38500Y35500I-6000J0D01*
G01*
G75*
G01X28000Y20000D02*
G03X28000Y20000I-8000J0D01*
G01*
M00*
M02*
