G04 Layer: TopLayer*
G04 EasyEDA v6.3.30, 2020-03-21T18:53:40+08:00*
G04 c5f63f6c624d440bb2292f988f7b391a,d4aa0ff59f9544bb86dfcbd96f28fb4a,05*
G04 Gerber Generator version 0.2*
G04 Scale: 100 percent, Rotated: No, Reflected: No *
G04 Dimensions in millimeters *
G04 leading zeros omitted , absolute positions ,3 integer and 3 decimal *
%FSLAX33Y33*%
%MOMM*%
G90*
G71D02*

%ADD10C,0.200000*%
%ADD11C,0.254000*%
%ADD12C,0.101600*%
%ADD13C,0.100000*%
%ADD14C,0.399999*%
%ADD15C,0.177800*%
%ADD16C,0.609600*%
%ADD17C,0.999998*%
%ADD18R,1.168400X1.600200*%
%ADD19R,0.635000X0.254000*%
%ADD20C,1.524000*%
%ADD21C,1.299997*%
%ADD23C,1.574800*%
%ADD24C,1.092200*%

%LPD*%
G36*
G01X141851Y77743D02*
G01X120601Y77743D01*
G01X120587Y77742D01*
G01X120572Y77739D01*
G01X120559Y77734D01*
G01X120546Y77727D01*
G01X120535Y77718D01*
G01X120524Y77708D01*
G01X120516Y77696D01*
G01X120509Y77684D01*
G01X120504Y77670D01*
G01X120501Y77656D01*
G01X120500Y77641D01*
G01X120500Y77385D01*
G01X120501Y77370D01*
G01X120504Y77356D01*
G01X120509Y77342D01*
G01X120516Y77330D01*
G01X120524Y77318D01*
G01X120535Y77308D01*
G01X120546Y77299D01*
G01X120559Y77292D01*
G01X120572Y77287D01*
G01X120587Y77284D01*
G01X120601Y77283D01*
G01X120617Y77283D01*
G01X120641Y77282D01*
G01X120664Y77279D01*
G01X120687Y77273D01*
G01X120710Y77266D01*
G01X120731Y77256D01*
G01X120752Y77245D01*
G01X120772Y77231D01*
G01X120790Y77216D01*
G01X120807Y77199D01*
G01X120822Y77181D01*
G01X120835Y77162D01*
G01X120847Y77141D01*
G01X120856Y77119D01*
G01X120864Y77097D01*
G01X120869Y77074D01*
G01X120872Y77050D01*
G01X120874Y77026D01*
G01X120874Y76772D01*
G01X120872Y76749D01*
G01X120869Y76725D01*
G01X120864Y76702D01*
G01X120856Y76680D01*
G01X120847Y76658D01*
G01X120835Y76637D01*
G01X120822Y76618D01*
G01X120807Y76600D01*
G01X120790Y76583D01*
G01X120772Y76568D01*
G01X120752Y76554D01*
G01X120731Y76543D01*
G01X120710Y76533D01*
G01X120687Y76526D01*
G01X120664Y76520D01*
G01X120641Y76517D01*
G01X120617Y76516D01*
G01X120601Y76516D01*
G01X120587Y76515D01*
G01X120572Y76512D01*
G01X120559Y76507D01*
G01X120546Y76500D01*
G01X120535Y76491D01*
G01X120524Y76481D01*
G01X120516Y76469D01*
G01X120509Y76457D01*
G01X120504Y76443D01*
G01X120501Y76429D01*
G01X120500Y76414D01*
G01X120500Y70101D01*
G01X120501Y70087D01*
G01X120504Y70072D01*
G01X120509Y70059D01*
G01X120516Y70046D01*
G01X120524Y70035D01*
G01X120535Y70024D01*
G01X120546Y70016D01*
G01X120559Y70009D01*
G01X120572Y70004D01*
G01X120587Y70001D01*
G01X120601Y69999D01*
G01X121500Y69999D01*
G01X122999Y68499D01*
G01X122999Y64542D01*
G01X123001Y64526D01*
G01X123004Y64510D01*
G01X123010Y64495D01*
G01X123019Y64482D01*
G01X123029Y64470D01*
G01X123970Y63529D01*
G01X123982Y63519D01*
G01X123995Y63511D01*
G01X124010Y63504D01*
G01X124026Y63501D01*
G01X124041Y63500D01*
G01X145641Y63500D01*
G01X145656Y63501D01*
G01X145670Y63504D01*
G01X145684Y63509D01*
G01X145696Y63516D01*
G01X145708Y63524D01*
G01X145718Y63535D01*
G01X145727Y63546D01*
G01X145734Y63559D01*
G01X145739Y63572D01*
G01X145742Y63587D01*
G01X145743Y63601D01*
G01X145743Y73851D01*
G01X145742Y73867D01*
G01X145738Y73883D01*
G01X145732Y73897D01*
G01X145724Y73911D01*
G01X145713Y73923D01*
G01X141923Y77713D01*
G01X141911Y77724D01*
G01X141897Y77732D01*
G01X141883Y77738D01*
G01X141867Y77742D01*
G01X141851Y77743D01*
G37*

%LPC*%
G36*
G01X131043Y68905D02*
G01X131000Y68906D01*
G01X130956Y68905D01*
G01X130913Y68902D01*
G01X130871Y68897D01*
G01X130828Y68890D01*
G01X130786Y68880D01*
G01X130744Y68869D01*
G01X130703Y68856D01*
G01X130663Y68841D01*
G01X130623Y68824D01*
G01X130584Y68805D01*
G01X130546Y68785D01*
G01X130509Y68762D01*
G01X130474Y68738D01*
G01X130439Y68712D01*
G01X130406Y68685D01*
G01X130374Y68656D01*
G01X130343Y68625D01*
G01X130314Y68593D01*
G01X130287Y68560D01*
G01X130261Y68525D01*
G01X130237Y68490D01*
G01X130214Y68453D01*
G01X130194Y68415D01*
G01X130175Y68376D01*
G01X130158Y68336D01*
G01X130143Y68296D01*
G01X130130Y68255D01*
G01X130119Y68213D01*
G01X130109Y68171D01*
G01X130102Y68129D01*
G01X130097Y68086D01*
G01X130094Y68043D01*
G01X130093Y67999D01*
G01X130094Y67956D01*
G01X130097Y67913D01*
G01X130102Y67870D01*
G01X130109Y67828D01*
G01X130119Y67786D01*
G01X130130Y67744D01*
G01X130143Y67703D01*
G01X130158Y67663D01*
G01X130175Y67623D01*
G01X130194Y67584D01*
G01X130214Y67546D01*
G01X130237Y67509D01*
G01X130261Y67474D01*
G01X130287Y67439D01*
G01X130314Y67406D01*
G01X130343Y67374D01*
G01X130374Y67343D01*
G01X130406Y67314D01*
G01X130439Y67287D01*
G01X130474Y67261D01*
G01X130509Y67237D01*
G01X130546Y67214D01*
G01X130584Y67194D01*
G01X130623Y67175D01*
G01X130663Y67158D01*
G01X130703Y67143D01*
G01X130744Y67130D01*
G01X130786Y67119D01*
G01X130828Y67109D01*
G01X130871Y67102D01*
G01X130913Y67097D01*
G01X130956Y67094D01*
G01X131000Y67093D01*
G01X131043Y67094D01*
G01X131087Y67097D01*
G01X131130Y67102D01*
G01X131173Y67110D01*
G01X131216Y67119D01*
G01X131258Y67130D01*
G01X131299Y67144D01*
G01X131340Y67159D01*
G01X131380Y67177D01*
G01X131419Y67196D01*
G01X131457Y67217D01*
G01X131494Y67240D01*
G01X131530Y67265D01*
G01X131565Y67291D01*
G01X131599Y67319D01*
G01X131631Y67349D01*
G01X131661Y67380D01*
G01X131690Y67412D01*
G01X131718Y67446D01*
G01X131743Y67481D01*
G01X131767Y67518D01*
G01X131790Y67555D01*
G01X131810Y67594D01*
G01X131829Y67633D01*
G01X131845Y67674D01*
G01X131860Y67715D01*
G01X131873Y67756D01*
G01X131884Y67799D01*
G01X131892Y67841D01*
G01X131899Y67885D01*
G01X131902Y67899D01*
G01X131907Y67913D01*
G01X131913Y67926D01*
G01X131922Y67937D01*
G01X131932Y67948D01*
G01X131944Y67957D01*
G01X131957Y67964D01*
G01X131971Y67969D01*
G01X131985Y67972D01*
G01X132000Y67973D01*
G01X132014Y67972D01*
G01X132028Y67969D01*
G01X132042Y67964D01*
G01X132055Y67957D01*
G01X132067Y67948D01*
G01X132077Y67937D01*
G01X132086Y67926D01*
G01X132092Y67913D01*
G01X132097Y67899D01*
G01X132100Y67885D01*
G01X132107Y67841D01*
G01X132116Y67799D01*
G01X132126Y67756D01*
G01X132139Y67715D01*
G01X132154Y67674D01*
G01X132170Y67633D01*
G01X132189Y67594D01*
G01X132209Y67555D01*
G01X132232Y67518D01*
G01X132256Y67481D01*
G01X132281Y67446D01*
G01X132309Y67412D01*
G01X132338Y67380D01*
G01X132368Y67349D01*
G01X132401Y67319D01*
G01X132434Y67291D01*
G01X132469Y67265D01*
G01X132505Y67240D01*
G01X132542Y67217D01*
G01X132580Y67196D01*
G01X132619Y67177D01*
G01X132659Y67159D01*
G01X132700Y67144D01*
G01X132741Y67130D01*
G01X132783Y67119D01*
G01X132826Y67110D01*
G01X132869Y67102D01*
G01X132912Y67097D01*
G01X132956Y67094D01*
G01X133000Y67093D01*
G01X133043Y67094D01*
G01X133086Y67097D01*
G01X133129Y67102D01*
G01X133171Y67109D01*
G01X133213Y67119D01*
G01X133255Y67130D01*
G01X133296Y67143D01*
G01X133336Y67158D01*
G01X133376Y67175D01*
G01X133415Y67194D01*
G01X133453Y67214D01*
G01X133490Y67237D01*
G01X133525Y67261D01*
G01X133560Y67287D01*
G01X133593Y67314D01*
G01X133625Y67343D01*
G01X133656Y67374D01*
G01X133685Y67406D01*
G01X133712Y67439D01*
G01X133738Y67474D01*
G01X133762Y67509D01*
G01X133785Y67546D01*
G01X133805Y67584D01*
G01X133824Y67623D01*
G01X133841Y67663D01*
G01X133856Y67703D01*
G01X133869Y67744D01*
G01X133880Y67786D01*
G01X133890Y67828D01*
G01X133897Y67870D01*
G01X133902Y67913D01*
G01X133905Y67956D01*
G01X133906Y67999D01*
G01X133905Y68043D01*
G01X133902Y68086D01*
G01X133897Y68129D01*
G01X133890Y68171D01*
G01X133880Y68213D01*
G01X133869Y68255D01*
G01X133856Y68296D01*
G01X133841Y68336D01*
G01X133824Y68376D01*
G01X133805Y68415D01*
G01X133785Y68453D01*
G01X133762Y68490D01*
G01X133738Y68525D01*
G01X133712Y68560D01*
G01X133685Y68593D01*
G01X133656Y68625D01*
G01X133625Y68656D01*
G01X133593Y68685D01*
G01X133560Y68712D01*
G01X133525Y68738D01*
G01X133490Y68762D01*
G01X133453Y68785D01*
G01X133415Y68805D01*
G01X133376Y68824D01*
G01X133336Y68841D01*
G01X133296Y68856D01*
G01X133255Y68869D01*
G01X133213Y68880D01*
G01X133171Y68890D01*
G01X133129Y68897D01*
G01X133086Y68902D01*
G01X133043Y68905D01*
G01X133000Y68906D01*
G01X132956Y68905D01*
G01X132912Y68902D01*
G01X132869Y68897D01*
G01X132826Y68889D01*
G01X132783Y68880D01*
G01X132741Y68869D01*
G01X132700Y68855D01*
G01X132659Y68840D01*
G01X132619Y68822D01*
G01X132580Y68803D01*
G01X132542Y68782D01*
G01X132505Y68759D01*
G01X132469Y68734D01*
G01X132434Y68708D01*
G01X132401Y68680D01*
G01X132368Y68650D01*
G01X132338Y68619D01*
G01X132309Y68587D01*
G01X132281Y68553D01*
G01X132256Y68518D01*
G01X132232Y68481D01*
G01X132209Y68444D01*
G01X132189Y68405D01*
G01X132170Y68366D01*
G01X132154Y68325D01*
G01X132139Y68284D01*
G01X132126Y68243D01*
G01X132116Y68200D01*
G01X132107Y68158D01*
G01X132100Y68114D01*
G01X132097Y68100D01*
G01X132092Y68086D01*
G01X132086Y68073D01*
G01X132077Y68062D01*
G01X132067Y68051D01*
G01X132055Y68042D01*
G01X132042Y68035D01*
G01X132028Y68030D01*
G01X132014Y68027D01*
G01X132000Y68026D01*
G01X131985Y68027D01*
G01X131971Y68030D01*
G01X131957Y68035D01*
G01X131944Y68042D01*
G01X131932Y68051D01*
G01X131922Y68062D01*
G01X131913Y68073D01*
G01X131907Y68086D01*
G01X131902Y68100D01*
G01X131899Y68114D01*
G01X131892Y68158D01*
G01X131884Y68200D01*
G01X131873Y68243D01*
G01X131860Y68284D01*
G01X131845Y68325D01*
G01X131829Y68366D01*
G01X131810Y68405D01*
G01X131790Y68444D01*
G01X131767Y68481D01*
G01X131743Y68518D01*
G01X131718Y68553D01*
G01X131690Y68587D01*
G01X131661Y68619D01*
G01X131631Y68650D01*
G01X131599Y68680D01*
G01X131565Y68708D01*
G01X131530Y68734D01*
G01X131494Y68759D01*
G01X131457Y68782D01*
G01X131419Y68803D01*
G01X131380Y68822D01*
G01X131340Y68840D01*
G01X131299Y68855D01*
G01X131258Y68869D01*
G01X131216Y68880D01*
G01X131173Y68889D01*
G01X131130Y68897D01*
G01X131087Y68902D01*
G01X131043Y68905D01*
G37*
G36*
G01X132043Y75905D02*
G01X132000Y75906D01*
G01X131956Y75905D01*
G01X131913Y75902D01*
G01X131871Y75897D01*
G01X131828Y75890D01*
G01X131786Y75880D01*
G01X131744Y75869D01*
G01X131703Y75856D01*
G01X131663Y75841D01*
G01X131623Y75824D01*
G01X131584Y75805D01*
G01X131546Y75785D01*
G01X131509Y75762D01*
G01X131474Y75738D01*
G01X131439Y75712D01*
G01X131406Y75685D01*
G01X131374Y75656D01*
G01X131343Y75625D01*
G01X131314Y75593D01*
G01X131287Y75560D01*
G01X131261Y75525D01*
G01X131237Y75490D01*
G01X131214Y75453D01*
G01X131194Y75415D01*
G01X131175Y75376D01*
G01X131158Y75336D01*
G01X131143Y75296D01*
G01X131130Y75255D01*
G01X131119Y75213D01*
G01X131109Y75171D01*
G01X131102Y75129D01*
G01X131097Y75086D01*
G01X131094Y75043D01*
G01X131093Y75000D01*
G01X131094Y74956D01*
G01X131097Y74912D01*
G01X131102Y74869D01*
G01X131110Y74826D01*
G01X131119Y74783D01*
G01X131131Y74741D01*
G01X131144Y74700D01*
G01X131159Y74659D01*
G01X131177Y74619D01*
G01X131196Y74580D01*
G01X131217Y74542D01*
G01X131240Y74505D01*
G01X131265Y74469D01*
G01X131291Y74434D01*
G01X131319Y74401D01*
G01X131349Y74368D01*
G01X131380Y74338D01*
G01X131412Y74309D01*
G01X131446Y74281D01*
G01X131481Y74256D01*
G01X131518Y74232D01*
G01X131555Y74209D01*
G01X131594Y74189D01*
G01X131633Y74170D01*
G01X131674Y74154D01*
G01X131715Y74139D01*
G01X131756Y74126D01*
G01X131799Y74115D01*
G01X131841Y74107D01*
G01X131885Y74100D01*
G01X131899Y74097D01*
G01X131913Y74092D01*
G01X131926Y74086D01*
G01X131937Y74077D01*
G01X131948Y74067D01*
G01X131957Y74055D01*
G01X131964Y74042D01*
G01X131969Y74028D01*
G01X131972Y74014D01*
G01X131973Y74000D01*
G01X131972Y73985D01*
G01X131969Y73971D01*
G01X131964Y73957D01*
G01X131957Y73944D01*
G01X131948Y73932D01*
G01X131937Y73922D01*
G01X131926Y73913D01*
G01X131913Y73907D01*
G01X131899Y73902D01*
G01X131885Y73899D01*
G01X131841Y73892D01*
G01X131799Y73884D01*
G01X131756Y73873D01*
G01X131715Y73860D01*
G01X131674Y73845D01*
G01X131633Y73829D01*
G01X131594Y73810D01*
G01X131555Y73790D01*
G01X131518Y73767D01*
G01X131481Y73743D01*
G01X131446Y73718D01*
G01X131412Y73690D01*
G01X131380Y73661D01*
G01X131349Y73631D01*
G01X131319Y73598D01*
G01X131291Y73565D01*
G01X131265Y73530D01*
G01X131240Y73494D01*
G01X131217Y73457D01*
G01X131196Y73419D01*
G01X131177Y73380D01*
G01X131159Y73340D01*
G01X131144Y73299D01*
G01X131131Y73258D01*
G01X131119Y73216D01*
G01X131110Y73173D01*
G01X131102Y73130D01*
G01X131097Y73087D01*
G01X131094Y73043D01*
G01X131093Y73000D01*
G01X131094Y72956D01*
G01X131097Y72913D01*
G01X131102Y72870D01*
G01X131109Y72828D01*
G01X131119Y72786D01*
G01X131130Y72744D01*
G01X131143Y72703D01*
G01X131158Y72663D01*
G01X131175Y72623D01*
G01X131194Y72584D01*
G01X131214Y72546D01*
G01X131237Y72509D01*
G01X131261Y72474D01*
G01X131287Y72439D01*
G01X131314Y72406D01*
G01X131343Y72374D01*
G01X131374Y72343D01*
G01X131406Y72314D01*
G01X131439Y72287D01*
G01X131474Y72261D01*
G01X131509Y72237D01*
G01X131546Y72214D01*
G01X131584Y72194D01*
G01X131623Y72175D01*
G01X131663Y72158D01*
G01X131703Y72143D01*
G01X131744Y72130D01*
G01X131786Y72119D01*
G01X131828Y72109D01*
G01X131871Y72102D01*
G01X131913Y72097D01*
G01X131956Y72094D01*
G01X132000Y72093D01*
G01X132043Y72094D01*
G01X132086Y72097D01*
G01X132129Y72102D01*
G01X132171Y72109D01*
G01X132213Y72119D01*
G01X132255Y72130D01*
G01X132296Y72143D01*
G01X132336Y72158D01*
G01X132376Y72175D01*
G01X132415Y72194D01*
G01X132453Y72214D01*
G01X132490Y72237D01*
G01X132525Y72261D01*
G01X132560Y72287D01*
G01X132593Y72314D01*
G01X132625Y72343D01*
G01X132656Y72374D01*
G01X132685Y72406D01*
G01X132712Y72439D01*
G01X132738Y72474D01*
G01X132762Y72509D01*
G01X132785Y72546D01*
G01X132805Y72584D01*
G01X132824Y72623D01*
G01X132841Y72663D01*
G01X132856Y72703D01*
G01X132869Y72744D01*
G01X132881Y72786D01*
G01X132890Y72828D01*
G01X132897Y72870D01*
G01X132902Y72913D01*
G01X132905Y72956D01*
G01X132906Y73000D01*
G01X132905Y73043D01*
G01X132902Y73087D01*
G01X132897Y73130D01*
G01X132889Y73173D01*
G01X132880Y73216D01*
G01X132869Y73258D01*
G01X132855Y73299D01*
G01X132840Y73340D01*
G01X132822Y73380D01*
G01X132803Y73419D01*
G01X132782Y73457D01*
G01X132759Y73494D01*
G01X132734Y73530D01*
G01X132708Y73565D01*
G01X132680Y73598D01*
G01X132650Y73631D01*
G01X132619Y73661D01*
G01X132587Y73690D01*
G01X132553Y73718D01*
G01X132518Y73743D01*
G01X132481Y73767D01*
G01X132444Y73790D01*
G01X132405Y73810D01*
G01X132366Y73829D01*
G01X132325Y73845D01*
G01X132284Y73860D01*
G01X132243Y73873D01*
G01X132200Y73884D01*
G01X132158Y73892D01*
G01X132114Y73899D01*
G01X132100Y73902D01*
G01X132086Y73907D01*
G01X132073Y73913D01*
G01X132062Y73922D01*
G01X132051Y73932D01*
G01X132042Y73944D01*
G01X132035Y73957D01*
G01X132030Y73971D01*
G01X132027Y73985D01*
G01X132026Y74000D01*
G01X132027Y74014D01*
G01X132030Y74028D01*
G01X132035Y74042D01*
G01X132042Y74055D01*
G01X132051Y74067D01*
G01X132062Y74077D01*
G01X132073Y74086D01*
G01X132086Y74092D01*
G01X132100Y74097D01*
G01X132114Y74100D01*
G01X132158Y74107D01*
G01X132200Y74115D01*
G01X132243Y74126D01*
G01X132284Y74139D01*
G01X132325Y74154D01*
G01X132366Y74170D01*
G01X132405Y74189D01*
G01X132444Y74209D01*
G01X132481Y74232D01*
G01X132518Y74256D01*
G01X132553Y74281D01*
G01X132587Y74309D01*
G01X132619Y74338D01*
G01X132650Y74368D01*
G01X132680Y74401D01*
G01X132708Y74434D01*
G01X132734Y74469D01*
G01X132759Y74505D01*
G01X132782Y74542D01*
G01X132803Y74580D01*
G01X132822Y74619D01*
G01X132840Y74659D01*
G01X132855Y74700D01*
G01X132869Y74741D01*
G01X132880Y74783D01*
G01X132889Y74826D01*
G01X132897Y74869D01*
G01X132902Y74912D01*
G01X132905Y74956D01*
G01X132906Y75000D01*
G01X132905Y75043D01*
G01X132902Y75086D01*
G01X132897Y75129D01*
G01X132890Y75171D01*
G01X132881Y75213D01*
G01X132869Y75255D01*
G01X132856Y75296D01*
G01X132841Y75336D01*
G01X132824Y75376D01*
G01X132805Y75415D01*
G01X132785Y75453D01*
G01X132762Y75490D01*
G01X132738Y75525D01*
G01X132712Y75560D01*
G01X132685Y75593D01*
G01X132656Y75625D01*
G01X132625Y75656D01*
G01X132593Y75685D01*
G01X132560Y75712D01*
G01X132525Y75738D01*
G01X132490Y75762D01*
G01X132453Y75785D01*
G01X132415Y75805D01*
G01X132376Y75824D01*
G01X132336Y75841D01*
G01X132296Y75856D01*
G01X132255Y75869D01*
G01X132213Y75880D01*
G01X132171Y75890D01*
G01X132129Y75897D01*
G01X132086Y75902D01*
G01X132043Y75905D01*
G37*
G36*
G01X137193Y68905D02*
G01X137149Y68906D01*
G01X137106Y68905D01*
G01X137063Y68901D01*
G01X137020Y68896D01*
G01X136978Y68889D01*
G01X136936Y68880D01*
G01X136894Y68869D01*
G01X136853Y68856D01*
G01X136812Y68841D01*
G01X136773Y68824D01*
G01X136734Y68805D01*
G01X136696Y68784D01*
G01X136659Y68762D01*
G01X136589Y68712D01*
G01X136556Y68684D01*
G01X136524Y68655D01*
G01X136493Y68625D01*
G01X136464Y68593D01*
G01X136437Y68559D01*
G01X136411Y68525D01*
G01X136387Y68489D01*
G01X136364Y68452D01*
G01X136344Y68414D01*
G01X136325Y68376D01*
G01X136308Y68336D01*
G01X136293Y68296D01*
G01X136280Y68254D01*
G01X136268Y68213D01*
G01X136259Y68171D01*
G01X136252Y68128D01*
G01X136247Y68085D01*
G01X136244Y68042D01*
G01X136243Y67999D01*
G01X136243Y67300D01*
G01X136244Y67257D01*
G01X136247Y67214D01*
G01X136252Y67171D01*
G01X136259Y67128D01*
G01X136268Y67086D01*
G01X136280Y67045D01*
G01X136293Y67003D01*
G01X136308Y66963D01*
G01X136325Y66923D01*
G01X136344Y66885D01*
G01X136364Y66847D01*
G01X136387Y66810D01*
G01X136411Y66774D01*
G01X136437Y66740D01*
G01X136464Y66706D01*
G01X136493Y66674D01*
G01X136524Y66644D01*
G01X136556Y66615D01*
G01X136589Y66587D01*
G01X136659Y66537D01*
G01X136696Y66515D01*
G01X136734Y66494D01*
G01X136773Y66475D01*
G01X136812Y66458D01*
G01X136853Y66443D01*
G01X136894Y66430D01*
G01X136936Y66419D01*
G01X136978Y66410D01*
G01X137020Y66403D01*
G01X137063Y66398D01*
G01X137106Y66394D01*
G01X137149Y66393D01*
G01X137193Y66394D01*
G01X137236Y66398D01*
G01X137278Y66403D01*
G01X137321Y66410D01*
G01X137363Y66419D01*
G01X137405Y66430D01*
G01X137446Y66443D01*
G01X137486Y66458D01*
G01X137526Y66475D01*
G01X137565Y66494D01*
G01X137603Y66515D01*
G01X137640Y66537D01*
G01X137710Y66587D01*
G01X137743Y66615D01*
G01X137775Y66644D01*
G01X137806Y66674D01*
G01X137835Y66706D01*
G01X137862Y66740D01*
G01X137888Y66774D01*
G01X137912Y66810D01*
G01X137935Y66847D01*
G01X137955Y66885D01*
G01X137974Y66923D01*
G01X137991Y66963D01*
G01X138006Y67003D01*
G01X138019Y67045D01*
G01X138030Y67086D01*
G01X138040Y67128D01*
G01X138047Y67171D01*
G01X138052Y67214D01*
G01X138055Y67257D01*
G01X138056Y67300D01*
G01X138056Y67999D01*
G01X138055Y68042D01*
G01X138052Y68085D01*
G01X138047Y68128D01*
G01X138040Y68171D01*
G01X138030Y68213D01*
G01X138019Y68254D01*
G01X138006Y68296D01*
G01X137991Y68336D01*
G01X137974Y68376D01*
G01X137955Y68414D01*
G01X137935Y68452D01*
G01X137912Y68489D01*
G01X137888Y68525D01*
G01X137862Y68559D01*
G01X137835Y68593D01*
G01X137806Y68625D01*
G01X137775Y68655D01*
G01X137743Y68684D01*
G01X137710Y68712D01*
G01X137640Y68762D01*
G01X137603Y68784D01*
G01X137565Y68805D01*
G01X137526Y68824D01*
G01X137486Y68841D01*
G01X137446Y68856D01*
G01X137405Y68869D01*
G01X137363Y68880D01*
G01X137321Y68889D01*
G01X137278Y68896D01*
G01X137236Y68901D01*
G01X137193Y68905D01*
G37*
G36*
G01X137193Y72405D02*
G01X137149Y72406D01*
G01X137106Y72405D01*
G01X137063Y72402D01*
G01X137020Y72397D01*
G01X136978Y72389D01*
G01X136936Y72380D01*
G01X136894Y72369D01*
G01X136853Y72356D01*
G01X136813Y72341D01*
G01X136773Y72324D01*
G01X136734Y72305D01*
G01X136696Y72284D01*
G01X136659Y72262D01*
G01X136624Y72238D01*
G01X136589Y72212D01*
G01X136556Y72184D01*
G01X136524Y72155D01*
G01X136493Y72125D01*
G01X136464Y72093D01*
G01X136437Y72060D01*
G01X136411Y72025D01*
G01X136387Y71989D01*
G01X136364Y71953D01*
G01X136344Y71915D01*
G01X136325Y71876D01*
G01X136308Y71836D01*
G01X136293Y71796D01*
G01X136280Y71755D01*
G01X136269Y71713D01*
G01X136259Y71671D01*
G01X136252Y71628D01*
G01X136247Y71585D01*
G01X136244Y71542D01*
G01X136243Y71499D01*
G01X136243Y70800D01*
G01X136244Y70757D01*
G01X136247Y70714D01*
G01X136252Y70671D01*
G01X136259Y70629D01*
G01X136269Y70586D01*
G01X136280Y70545D01*
G01X136293Y70504D01*
G01X136308Y70463D01*
G01X136325Y70424D01*
G01X136344Y70385D01*
G01X136364Y70347D01*
G01X136387Y70310D01*
G01X136411Y70274D01*
G01X136437Y70240D01*
G01X136464Y70207D01*
G01X136493Y70175D01*
G01X136524Y70144D01*
G01X136556Y70115D01*
G01X136589Y70088D01*
G01X136624Y70062D01*
G01X136659Y70038D01*
G01X136696Y70015D01*
G01X136734Y69994D01*
G01X136773Y69976D01*
G01X136813Y69959D01*
G01X136853Y69944D01*
G01X136894Y69930D01*
G01X136936Y69919D01*
G01X136978Y69910D01*
G01X137020Y69903D01*
G01X137063Y69898D01*
G01X137106Y69895D01*
G01X137149Y69894D01*
G01X137193Y69895D01*
G01X137236Y69898D01*
G01X137279Y69903D01*
G01X137321Y69910D01*
G01X137363Y69919D01*
G01X137405Y69930D01*
G01X137446Y69944D01*
G01X137486Y69959D01*
G01X137526Y69976D01*
G01X137565Y69994D01*
G01X137603Y70015D01*
G01X137640Y70038D01*
G01X137675Y70062D01*
G01X137710Y70088D01*
G01X137743Y70115D01*
G01X137775Y70144D01*
G01X137806Y70175D01*
G01X137835Y70207D01*
G01X137862Y70240D01*
G01X137888Y70274D01*
G01X137912Y70310D01*
G01X137935Y70347D01*
G01X137955Y70385D01*
G01X137974Y70424D01*
G01X137991Y70463D01*
G01X138006Y70504D01*
G01X138019Y70545D01*
G01X138030Y70586D01*
G01X138040Y70629D01*
G01X138047Y70671D01*
G01X138052Y70714D01*
G01X138055Y70757D01*
G01X138056Y70800D01*
G01X138056Y71499D01*
G01X138055Y71542D01*
G01X138052Y71585D01*
G01X138047Y71628D01*
G01X138040Y71671D01*
G01X138030Y71713D01*
G01X138019Y71755D01*
G01X138006Y71796D01*
G01X137991Y71836D01*
G01X137974Y71876D01*
G01X137955Y71915D01*
G01X137935Y71953D01*
G01X137912Y71989D01*
G01X137888Y72025D01*
G01X137862Y72060D01*
G01X137835Y72093D01*
G01X137806Y72125D01*
G01X137775Y72155D01*
G01X137743Y72184D01*
G01X137710Y72212D01*
G01X137675Y72238D01*
G01X137640Y72262D01*
G01X137603Y72284D01*
G01X137565Y72305D01*
G01X137526Y72324D01*
G01X137486Y72341D01*
G01X137446Y72356D01*
G01X137405Y72369D01*
G01X137363Y72380D01*
G01X137321Y72389D01*
G01X137279Y72397D01*
G01X137236Y72402D01*
G01X137193Y72405D01*
G37*
G36*
G01X142893Y68905D02*
G01X142849Y68906D01*
G01X142806Y68905D01*
G01X142763Y68901D01*
G01X142720Y68896D01*
G01X142678Y68889D01*
G01X142636Y68880D01*
G01X142594Y68869D01*
G01X142553Y68856D01*
G01X142512Y68841D01*
G01X142473Y68824D01*
G01X142434Y68805D01*
G01X142396Y68784D01*
G01X142359Y68762D01*
G01X142324Y68738D01*
G01X142289Y68712D01*
G01X142256Y68684D01*
G01X142224Y68655D01*
G01X142193Y68625D01*
G01X142164Y68593D01*
G01X142137Y68559D01*
G01X142111Y68525D01*
G01X142087Y68489D01*
G01X142064Y68452D01*
G01X142044Y68414D01*
G01X142025Y68376D01*
G01X142008Y68336D01*
G01X141993Y68296D01*
G01X141980Y68254D01*
G01X141968Y68213D01*
G01X141959Y68171D01*
G01X141952Y68128D01*
G01X141947Y68085D01*
G01X141944Y68042D01*
G01X141943Y67999D01*
G01X141943Y67300D01*
G01X141944Y67257D01*
G01X141947Y67214D01*
G01X141952Y67171D01*
G01X141959Y67128D01*
G01X141968Y67086D01*
G01X141980Y67045D01*
G01X141993Y67004D01*
G01X142008Y66963D01*
G01X142025Y66923D01*
G01X142044Y66885D01*
G01X142064Y66847D01*
G01X142087Y66810D01*
G01X142111Y66774D01*
G01X142137Y66740D01*
G01X142164Y66706D01*
G01X142193Y66674D01*
G01X142224Y66644D01*
G01X142256Y66615D01*
G01X142289Y66587D01*
G01X142359Y66537D01*
G01X142396Y66515D01*
G01X142434Y66494D01*
G01X142473Y66475D01*
G01X142512Y66458D01*
G01X142553Y66443D01*
G01X142594Y66430D01*
G01X142636Y66419D01*
G01X142678Y66410D01*
G01X142720Y66403D01*
G01X142763Y66398D01*
G01X142806Y66395D01*
G01X142849Y66393D01*
G01X142893Y66395D01*
G01X142936Y66398D01*
G01X142978Y66403D01*
G01X143021Y66410D01*
G01X143063Y66419D01*
G01X143105Y66430D01*
G01X143146Y66443D01*
G01X143186Y66458D01*
G01X143226Y66475D01*
G01X143265Y66494D01*
G01X143303Y66515D01*
G01X143340Y66537D01*
G01X143410Y66587D01*
G01X143443Y66615D01*
G01X143475Y66644D01*
G01X143505Y66674D01*
G01X143535Y66706D01*
G01X143562Y66740D01*
G01X143588Y66774D01*
G01X143612Y66810D01*
G01X143634Y66847D01*
G01X143655Y66885D01*
G01X143674Y66923D01*
G01X143691Y66963D01*
G01X143706Y67004D01*
G01X143719Y67045D01*
G01X143730Y67086D01*
G01X143740Y67128D01*
G01X143747Y67171D01*
G01X143752Y67214D01*
G01X143755Y67257D01*
G01X143756Y67300D01*
G01X143756Y67999D01*
G01X143755Y68042D01*
G01X143752Y68085D01*
G01X143747Y68128D01*
G01X143740Y68171D01*
G01X143730Y68213D01*
G01X143719Y68254D01*
G01X143706Y68296D01*
G01X143691Y68336D01*
G01X143674Y68376D01*
G01X143655Y68414D01*
G01X143634Y68452D01*
G01X143612Y68489D01*
G01X143588Y68525D01*
G01X143562Y68559D01*
G01X143535Y68593D01*
G01X143505Y68625D01*
G01X143475Y68655D01*
G01X143443Y68684D01*
G01X143410Y68712D01*
G01X143375Y68738D01*
G01X143340Y68762D01*
G01X143303Y68784D01*
G01X143265Y68805D01*
G01X143226Y68824D01*
G01X143186Y68841D01*
G01X143146Y68856D01*
G01X143105Y68869D01*
G01X143063Y68880D01*
G01X143021Y68889D01*
G01X142978Y68896D01*
G01X142936Y68901D01*
G01X142893Y68905D01*
G37*
G36*
G01X140046Y74655D02*
G01X139999Y74656D01*
G01X139953Y74655D01*
G01X139906Y74652D01*
G01X139860Y74646D01*
G01X139814Y74639D01*
G01X139769Y74629D01*
G01X139724Y74618D01*
G01X139679Y74604D01*
G01X139636Y74588D01*
G01X139593Y74570D01*
G01X139551Y74551D01*
G01X139510Y74529D01*
G01X139469Y74505D01*
G01X139431Y74480D01*
G01X139393Y74453D01*
G01X139356Y74424D01*
G01X139321Y74393D01*
G01X139288Y74361D01*
G01X139256Y74328D01*
G01X139225Y74293D01*
G01X139196Y74256D01*
G01X139169Y74218D01*
G01X139144Y74179D01*
G01X139120Y74139D01*
G01X139098Y74098D01*
G01X139079Y74056D01*
G01X139061Y74013D01*
G01X139045Y73969D01*
G01X139031Y73925D01*
G01X139020Y73880D01*
G01X139010Y73835D01*
G01X139002Y73789D01*
G01X138997Y73742D01*
G01X138994Y73696D01*
G01X138993Y73650D01*
G01X138994Y73603D01*
G01X138997Y73557D01*
G01X139002Y73511D01*
G01X139010Y73465D01*
G01X139020Y73419D01*
G01X139031Y73374D01*
G01X139045Y73330D01*
G01X139061Y73286D01*
G01X139079Y73243D01*
G01X139098Y73201D01*
G01X139120Y73160D01*
G01X139144Y73120D01*
G01X139169Y73081D01*
G01X139196Y73043D01*
G01X139225Y73007D01*
G01X139256Y72971D01*
G01X139288Y72938D01*
G01X139321Y72906D01*
G01X139356Y72875D01*
G01X139393Y72846D01*
G01X139431Y72819D01*
G01X139469Y72794D01*
G01X139510Y72770D01*
G01X139551Y72749D01*
G01X139593Y72729D01*
G01X139636Y72711D01*
G01X139679Y72695D01*
G01X139724Y72681D01*
G01X139769Y72670D01*
G01X139814Y72660D01*
G01X139860Y72653D01*
G01X139906Y72647D01*
G01X139953Y72644D01*
G01X139999Y72643D01*
G01X140046Y72644D01*
G01X140092Y72647D01*
G01X140138Y72653D01*
G01X140184Y72660D01*
G01X140230Y72670D01*
G01X140275Y72681D01*
G01X140319Y72695D01*
G01X140363Y72711D01*
G01X140406Y72729D01*
G01X140448Y72749D01*
G01X140489Y72770D01*
G01X140529Y72794D01*
G01X140568Y72819D01*
G01X140606Y72846D01*
G01X140642Y72875D01*
G01X140677Y72906D01*
G01X140711Y72938D01*
G01X140743Y72971D01*
G01X140774Y73007D01*
G01X140803Y73043D01*
G01X140830Y73081D01*
G01X140855Y73120D01*
G01X140879Y73160D01*
G01X140900Y73201D01*
G01X140920Y73243D01*
G01X140938Y73286D01*
G01X140954Y73330D01*
G01X140967Y73374D01*
G01X140979Y73419D01*
G01X140989Y73465D01*
G01X140996Y73511D01*
G01X141002Y73557D01*
G01X141005Y73603D01*
G01X141006Y73650D01*
G01X141005Y73696D01*
G01X141002Y73742D01*
G01X140996Y73789D01*
G01X140989Y73835D01*
G01X140979Y73880D01*
G01X140967Y73925D01*
G01X140954Y73969D01*
G01X140938Y74013D01*
G01X140920Y74056D01*
G01X140900Y74098D01*
G01X140879Y74139D01*
G01X140855Y74179D01*
G01X140830Y74218D01*
G01X140803Y74256D01*
G01X140774Y74293D01*
G01X140743Y74328D01*
G01X140711Y74361D01*
G01X140677Y74393D01*
G01X140642Y74424D01*
G01X140606Y74453D01*
G01X140568Y74480D01*
G01X140529Y74505D01*
G01X140489Y74529D01*
G01X140448Y74551D01*
G01X140406Y74570D01*
G01X140363Y74588D01*
G01X140319Y74604D01*
G01X140275Y74618D01*
G01X140230Y74629D01*
G01X140184Y74639D01*
G01X140138Y74646D01*
G01X140092Y74652D01*
G01X140046Y74655D01*
G37*
G36*
G01X140046Y68655D02*
G01X139999Y68656D01*
G01X139953Y68655D01*
G01X139906Y68652D01*
G01X139860Y68647D01*
G01X139814Y68639D01*
G01X139769Y68629D01*
G01X139724Y68618D01*
G01X139679Y68604D01*
G01X139636Y68588D01*
G01X139593Y68570D01*
G01X139551Y68551D01*
G01X139510Y68529D01*
G01X139469Y68505D01*
G01X139431Y68480D01*
G01X139393Y68453D01*
G01X139356Y68424D01*
G01X139321Y68393D01*
G01X139288Y68361D01*
G01X139256Y68328D01*
G01X139225Y68293D01*
G01X139196Y68256D01*
G01X139169Y68218D01*
G01X139144Y68179D01*
G01X139120Y68139D01*
G01X139098Y68098D01*
G01X139079Y68056D01*
G01X139061Y68013D01*
G01X139045Y67969D01*
G01X139031Y67925D01*
G01X139020Y67880D01*
G01X139010Y67835D01*
G01X139002Y67789D01*
G01X138997Y67742D01*
G01X138994Y67696D01*
G01X138993Y67650D01*
G01X138994Y67603D01*
G01X138997Y67557D01*
G01X139002Y67511D01*
G01X139010Y67465D01*
G01X139020Y67419D01*
G01X139031Y67374D01*
G01X139045Y67330D01*
G01X139061Y67286D01*
G01X139079Y67243D01*
G01X139098Y67201D01*
G01X139120Y67160D01*
G01X139144Y67120D01*
G01X139169Y67081D01*
G01X139196Y67043D01*
G01X139225Y67007D01*
G01X139256Y66971D01*
G01X139288Y66938D01*
G01X139321Y66906D01*
G01X139356Y66875D01*
G01X139393Y66846D01*
G01X139431Y66819D01*
G01X139469Y66794D01*
G01X139510Y66770D01*
G01X139551Y66749D01*
G01X139593Y66729D01*
G01X139636Y66711D01*
G01X139679Y66695D01*
G01X139724Y66681D01*
G01X139769Y66670D01*
G01X139814Y66660D01*
G01X139860Y66653D01*
G01X139906Y66647D01*
G01X139953Y66644D01*
G01X139999Y66643D01*
G01X140046Y66644D01*
G01X140092Y66647D01*
G01X140138Y66653D01*
G01X140184Y66660D01*
G01X140230Y66670D01*
G01X140275Y66681D01*
G01X140319Y66695D01*
G01X140363Y66711D01*
G01X140406Y66729D01*
G01X140448Y66749D01*
G01X140489Y66770D01*
G01X140529Y66794D01*
G01X140568Y66819D01*
G01X140606Y66846D01*
G01X140642Y66875D01*
G01X140677Y66906D01*
G01X140711Y66938D01*
G01X140743Y66971D01*
G01X140774Y67007D01*
G01X140803Y67043D01*
G01X140830Y67081D01*
G01X140855Y67120D01*
G01X140879Y67160D01*
G01X140900Y67201D01*
G01X140920Y67243D01*
G01X140938Y67286D01*
G01X140954Y67330D01*
G01X140967Y67374D01*
G01X140979Y67419D01*
G01X140989Y67465D01*
G01X140996Y67511D01*
G01X141002Y67557D01*
G01X141005Y67603D01*
G01X141006Y67650D01*
G01X141005Y67696D01*
G01X141002Y67742D01*
G01X140996Y67789D01*
G01X140989Y67835D01*
G01X140979Y67880D01*
G01X140967Y67925D01*
G01X140954Y67969D01*
G01X140938Y68013D01*
G01X140920Y68056D01*
G01X140900Y68098D01*
G01X140879Y68139D01*
G01X140855Y68179D01*
G01X140830Y68218D01*
G01X140803Y68256D01*
G01X140774Y68293D01*
G01X140743Y68328D01*
G01X140711Y68361D01*
G01X140677Y68393D01*
G01X140642Y68424D01*
G01X140606Y68453D01*
G01X140568Y68480D01*
G01X140529Y68505D01*
G01X140489Y68529D01*
G01X140448Y68551D01*
G01X140406Y68570D01*
G01X140363Y68588D01*
G01X140319Y68604D01*
G01X140275Y68618D01*
G01X140230Y68629D01*
G01X140184Y68639D01*
G01X140138Y68647D01*
G01X140092Y68652D01*
G01X140046Y68655D01*
G37*

%LPD*%
G36*
G01X55817Y77743D02*
G01X49358Y77743D01*
G01X49343Y77742D01*
G01X49329Y77739D01*
G01X49315Y77734D01*
G01X49303Y77727D01*
G01X49291Y77718D01*
G01X49281Y77708D01*
G01X49272Y77696D01*
G01X49265Y77684D01*
G01X49260Y77670D01*
G01X49257Y77656D01*
G01X49256Y77641D01*
G01X49256Y76999D01*
G01X49255Y76976D01*
G01X49252Y76952D01*
G01X49246Y76929D01*
G01X49239Y76907D01*
G01X49229Y76885D01*
G01X49218Y76864D01*
G01X49204Y76845D01*
G01X49189Y76827D01*
G01X49172Y76810D01*
G01X49154Y76795D01*
G01X49135Y76781D01*
G01X49114Y76770D01*
G01X49092Y76760D01*
G01X49070Y76753D01*
G01X49047Y76747D01*
G01X49023Y76744D01*
G01X49000Y76743D01*
G01X35000Y76743D01*
G01X34976Y76744D01*
G01X34952Y76747D01*
G01X34929Y76753D01*
G01X34907Y76760D01*
G01X34885Y76770D01*
G01X34864Y76781D01*
G01X34845Y76795D01*
G01X34827Y76810D01*
G01X34810Y76827D01*
G01X34795Y76845D01*
G01X34781Y76864D01*
G01X34770Y76885D01*
G01X34760Y76907D01*
G01X34753Y76929D01*
G01X34747Y76952D01*
G01X34744Y76976D01*
G01X34743Y76999D01*
G01X34743Y77639D01*
G01X34742Y77654D01*
G01X34739Y77668D01*
G01X34734Y77682D01*
G01X34727Y77694D01*
G01X34718Y77706D01*
G01X34708Y77716D01*
G01X34696Y77725D01*
G01X34684Y77732D01*
G01X34670Y77737D01*
G01X34656Y77740D01*
G01X34641Y77741D01*
G01X29982Y77716D01*
G01X29965Y77714D01*
G01X29949Y77710D01*
G01X10068Y70752D01*
G01X10053Y70745D01*
G01X10040Y70737D01*
G01X10028Y70726D01*
G01X10018Y70714D01*
G01X10010Y70701D01*
G01X10004Y70686D01*
G01X10001Y70671D01*
G01X10000Y70656D01*
G01X10000Y56601D01*
G01X10001Y56587D01*
G01X10004Y56572D01*
G01X10009Y56559D01*
G01X10016Y56546D01*
G01X10024Y56535D01*
G01X10035Y56524D01*
G01X10046Y56516D01*
G01X10059Y56509D01*
G01X10072Y56504D01*
G01X10087Y56501D01*
G01X10101Y56499D01*
G01X12544Y56499D01*
G01X12559Y56501D01*
G01X12573Y56504D01*
G01X12587Y56509D01*
G01X12600Y56516D01*
G01X12612Y56525D01*
G01X12622Y56536D01*
G01X12630Y56548D01*
G01X12637Y56561D01*
G01X12642Y56575D01*
G01X12651Y56605D01*
G01X12663Y56633D01*
G01X12677Y56660D01*
G01X12693Y56686D01*
G01X12711Y56710D01*
G01X12732Y56732D01*
G01X13443Y57444D01*
G01X13463Y57462D01*
G01X13484Y57479D01*
G01X13507Y57494D01*
G01X13531Y57507D01*
G01X13555Y57518D01*
G01X13581Y57528D01*
G01X13607Y57535D01*
G01X13633Y57540D01*
G01X13660Y57544D01*
G01X13687Y57545D01*
G01X14754Y57545D01*
G01X14781Y57544D01*
G01X14808Y57540D01*
G01X14835Y57535D01*
G01X14861Y57528D01*
G01X14886Y57518D01*
G01X14911Y57507D01*
G01X14935Y57494D01*
G01X14957Y57479D01*
G01X14979Y57462D01*
G01X14999Y57444D01*
G01X15418Y57024D01*
G01X15913Y56529D01*
G01X15925Y56519D01*
G01X15939Y56511D01*
G01X15953Y56504D01*
G01X15969Y56501D01*
G01X15985Y56499D01*
G01X20649Y56499D01*
G01X20664Y56501D01*
G01X20678Y56504D01*
G01X20691Y56509D01*
G01X20704Y56516D01*
G01X20716Y56524D01*
G01X20726Y56535D01*
G01X20735Y56546D01*
G01X20742Y56559D01*
G01X20747Y56572D01*
G01X20750Y56587D01*
G01X20751Y56601D01*
G01X20750Y56617D01*
G01X20746Y56633D01*
G01X20739Y56648D01*
G01X20731Y56661D01*
G01X20720Y56674D01*
G01X20661Y56733D01*
G01X20604Y56794D01*
G01X20548Y56856D01*
G01X20494Y56919D01*
G01X20441Y56984D01*
G01X20341Y57118D01*
G01X20294Y57187D01*
G01X20248Y57257D01*
G01X20205Y57328D01*
G01X20163Y57401D01*
G01X20123Y57474D01*
G01X20084Y57548D01*
G01X20048Y57624D01*
G01X20014Y57700D01*
G01X19981Y57777D01*
G01X19951Y57855D01*
G01X19923Y57933D01*
G01X19896Y58012D01*
G01X19872Y58092D01*
G01X19850Y58173D01*
G01X19830Y58254D01*
G01X19812Y58336D01*
G01X19796Y58418D01*
G01X19782Y58500D01*
G01X19770Y58583D01*
G01X19760Y58666D01*
G01X19753Y58749D01*
G01X19747Y58832D01*
G01X19744Y58916D01*
G01X19743Y58999D01*
G01X19744Y59082D01*
G01X19747Y59164D01*
G01X19753Y59247D01*
G01X19760Y59329D01*
G01X19769Y59411D01*
G01X19781Y59493D01*
G01X19794Y59574D01*
G01X19810Y59655D01*
G01X19827Y59736D01*
G01X19847Y59816D01*
G01X19869Y59895D01*
G01X19892Y59974D01*
G01X19918Y60053D01*
G01X19946Y60130D01*
G01X19975Y60207D01*
G01X20007Y60284D01*
G01X20041Y60359D01*
G01X20076Y60434D01*
G01X20113Y60507D01*
G01X20152Y60580D01*
G01X20193Y60652D01*
G01X20236Y60722D01*
G01X20281Y60792D01*
G01X20327Y60860D01*
G01X20375Y60927D01*
G01X20424Y60993D01*
G01X20476Y61057D01*
G01X20529Y61121D01*
G01X20583Y61183D01*
G01X20639Y61243D01*
G01X20697Y61302D01*
G01X20756Y61360D01*
G01X20817Y61416D01*
G01X20878Y61470D01*
G01X20942Y61523D01*
G01X21006Y61575D01*
G01X21072Y61624D01*
G01X21139Y61672D01*
G01X21208Y61719D01*
G01X21277Y61763D01*
G01X21348Y61806D01*
G01X21419Y61847D01*
G01X21492Y61886D01*
G01X21566Y61923D01*
G01X21640Y61959D01*
G01X21715Y61992D01*
G01X21792Y62024D01*
G01X21869Y62053D01*
G01X21946Y62081D01*
G01X22025Y62107D01*
G01X22104Y62130D01*
G01X22183Y62152D01*
G01X22264Y62172D01*
G01X22344Y62189D01*
G01X22425Y62205D01*
G01X22507Y62218D01*
G01X22588Y62230D01*
G01X22670Y62239D01*
G01X22752Y62247D01*
G01X22835Y62252D01*
G01X22917Y62255D01*
G01X23000Y62256D01*
G01X23082Y62255D01*
G01X23165Y62252D01*
G01X23247Y62247D01*
G01X23329Y62239D01*
G01X23411Y62230D01*
G01X23493Y62218D01*
G01X23574Y62205D01*
G01X23655Y62189D01*
G01X23736Y62172D01*
G01X23816Y62152D01*
G01X23896Y62130D01*
G01X23975Y62107D01*
G01X24053Y62081D01*
G01X24131Y62053D01*
G01X24208Y62024D01*
G01X24284Y61992D01*
G01X24359Y61959D01*
G01X24434Y61923D01*
G01X24507Y61886D01*
G01X24580Y61847D01*
G01X24652Y61806D01*
G01X24722Y61763D01*
G01X24792Y61719D01*
G01X24860Y61672D01*
G01X24927Y61624D01*
G01X24993Y61575D01*
G01X25058Y61523D01*
G01X25121Y61470D01*
G01X25183Y61416D01*
G01X25243Y61360D01*
G01X25302Y61302D01*
G01X25360Y61243D01*
G01X25416Y61183D01*
G01X25471Y61121D01*
G01X25524Y61057D01*
G01X25575Y60993D01*
G01X25625Y60927D01*
G01X25673Y60860D01*
G01X25719Y60792D01*
G01X25763Y60722D01*
G01X25806Y60652D01*
G01X25847Y60580D01*
G01X25886Y60507D01*
G01X25923Y60434D01*
G01X25959Y60359D01*
G01X25992Y60284D01*
G01X26024Y60207D01*
G01X26054Y60130D01*
G01X26081Y60053D01*
G01X26107Y59974D01*
G01X26131Y59895D01*
G01X26152Y59816D01*
G01X26172Y59736D01*
G01X26190Y59655D01*
G01X26205Y59574D01*
G01X26219Y59493D01*
G01X26230Y59411D01*
G01X26240Y59329D01*
G01X26247Y59247D01*
G01X26252Y59164D01*
G01X26255Y59082D01*
G01X26256Y58999D01*
G01X26255Y58916D01*
G01X26252Y58832D01*
G01X26247Y58749D01*
G01X26239Y58666D01*
G01X26229Y58583D01*
G01X26218Y58500D01*
G01X26204Y58418D01*
G01X26188Y58336D01*
G01X26170Y58254D01*
G01X26150Y58173D01*
G01X26127Y58092D01*
G01X26103Y58012D01*
G01X26077Y57933D01*
G01X26048Y57855D01*
G01X26018Y57777D01*
G01X25986Y57700D01*
G01X25951Y57624D01*
G01X25915Y57548D01*
G01X25877Y57474D01*
G01X25837Y57401D01*
G01X25795Y57328D01*
G01X25751Y57257D01*
G01X25705Y57187D01*
G01X25658Y57118D01*
G01X25609Y57051D01*
G01X25558Y56984D01*
G01X25505Y56919D01*
G01X25451Y56856D01*
G01X25395Y56794D01*
G01X25338Y56733D01*
G01X25279Y56674D01*
G01X25268Y56661D01*
G01X25260Y56648D01*
G01X25254Y56633D01*
G01X25250Y56617D01*
G01X25249Y56601D01*
G01X25250Y56587D01*
G01X25253Y56572D01*
G01X25258Y56559D01*
G01X25265Y56546D01*
G01X25273Y56535D01*
G01X25284Y56524D01*
G01X25295Y56516D01*
G01X25308Y56509D01*
G01X25322Y56504D01*
G01X25336Y56501D01*
G01X25350Y56500D01*
G01X38898Y56500D01*
G01X38912Y56501D01*
G01X38927Y56504D01*
G01X38940Y56509D01*
G01X38953Y56516D01*
G01X38964Y56524D01*
G01X38975Y56535D01*
G01X38983Y56546D01*
G01X38990Y56559D01*
G01X38995Y56572D01*
G01X38998Y56587D01*
G01X38999Y56601D01*
G01X38999Y59499D01*
G01X42000Y62500D01*
G01X52041Y62500D01*
G01X52056Y62501D01*
G01X52070Y62504D01*
G01X52083Y62509D01*
G01X52096Y62516D01*
G01X52108Y62524D01*
G01X52118Y62535D01*
G01X52127Y62546D01*
G01X52134Y62559D01*
G01X52139Y62572D01*
G01X52142Y62587D01*
G01X52143Y62601D01*
G01X52143Y64999D01*
G01X52144Y65027D01*
G01X52147Y65055D01*
G01X52153Y65083D01*
G01X52160Y65109D01*
G01X52170Y65136D01*
G01X52182Y65161D01*
G01X52195Y65186D01*
G01X52211Y65209D01*
G01X52228Y65231D01*
G01X52247Y65251D01*
G01X52908Y65913D01*
G01X52919Y65925D01*
G01X52927Y65938D01*
G01X52933Y65953D01*
G01X52937Y65969D01*
G01X52938Y65984D01*
G01X52938Y65999D01*
G01X52939Y66033D01*
G01X52942Y66067D01*
G01X52947Y66101D01*
G01X52954Y66134D01*
G01X52963Y66166D01*
G01X52975Y66198D01*
G01X52988Y66230D01*
G01X53002Y66260D01*
G01X53019Y66290D01*
G01X53037Y66318D01*
G01X53058Y66346D01*
G01X53079Y66372D01*
G01X53102Y66396D01*
G01X53127Y66420D01*
G01X53153Y66441D01*
G01X53181Y66461D01*
G01X53209Y66480D01*
G01X53239Y66496D01*
G01X53269Y66511D01*
G01X53300Y66524D01*
G01X53332Y66535D01*
G01X53365Y66544D01*
G01X53398Y66552D01*
G01X53432Y66557D01*
G01X53466Y66560D01*
G01X53499Y66561D01*
G01X53533Y66560D01*
G01X53567Y66557D01*
G01X53601Y66552D01*
G01X53634Y66544D01*
G01X53666Y66535D01*
G01X53698Y66524D01*
G01X53730Y66511D01*
G01X53760Y66496D01*
G01X53790Y66480D01*
G01X53818Y66461D01*
G01X53846Y66441D01*
G01X53872Y66420D01*
G01X53920Y66372D01*
G01X53941Y66346D01*
G01X53961Y66318D01*
G01X53980Y66290D01*
G01X53996Y66260D01*
G01X54011Y66230D01*
G01X54024Y66198D01*
G01X54035Y66166D01*
G01X54044Y66134D01*
G01X54052Y66101D01*
G01X54057Y66067D01*
G01X54060Y66033D01*
G01X54061Y65999D01*
G01X54060Y65965D01*
G01X54057Y65932D01*
G01X54052Y65898D01*
G01X54044Y65865D01*
G01X54035Y65832D01*
G01X54024Y65800D01*
G01X54011Y65769D01*
G01X53996Y65739D01*
G01X53980Y65709D01*
G01X53961Y65680D01*
G01X53941Y65653D01*
G01X53920Y65627D01*
G01X53896Y65602D01*
G01X53872Y65579D01*
G01X53846Y65557D01*
G01X53818Y65537D01*
G01X53790Y65519D01*
G01X53760Y65502D01*
G01X53730Y65487D01*
G01X53666Y65463D01*
G01X53634Y65454D01*
G01X53601Y65447D01*
G01X53567Y65442D01*
G01X53533Y65439D01*
G01X53499Y65438D01*
G01X53484Y65438D01*
G01X53469Y65437D01*
G01X53453Y65433D01*
G01X53438Y65427D01*
G01X53425Y65419D01*
G01X53413Y65408D01*
G01X52886Y64881D01*
G01X52875Y64869D01*
G01X52867Y64856D01*
G01X52861Y64841D01*
G01X52857Y64825D01*
G01X52856Y64810D01*
G01X52856Y62601D01*
G01X52857Y62587D01*
G01X52860Y62572D01*
G01X52865Y62559D01*
G01X52872Y62546D01*
G01X52881Y62535D01*
G01X52891Y62524D01*
G01X52903Y62516D01*
G01X52915Y62509D01*
G01X52929Y62504D01*
G01X52943Y62501D01*
G01X52958Y62500D01*
G01X60957Y62500D01*
G01X60973Y62501D01*
G01X60989Y62504D01*
G01X61004Y62511D01*
G01X61017Y62519D01*
G01X61029Y62529D01*
G01X63000Y64499D01*
G01X68957Y64499D01*
G01X68973Y64501D01*
G01X68989Y64504D01*
G01X69004Y64511D01*
G01X69017Y64519D01*
G01X69029Y64529D01*
G01X75000Y70499D01*
G01X83214Y70499D01*
G01X83229Y70501D01*
G01X83243Y70504D01*
G01X83257Y70509D01*
G01X83269Y70516D01*
G01X83281Y70524D01*
G01X83291Y70535D01*
G01X83300Y70546D01*
G01X83307Y70559D01*
G01X83312Y70572D01*
G01X83315Y70587D01*
G01X83316Y70601D01*
G01X83315Y70617D01*
G01X83311Y70633D01*
G01X83304Y70648D01*
G01X83296Y70662D01*
G01X83285Y70674D01*
G01X83272Y70685D01*
G01X83258Y70693D01*
G01X83227Y70709D01*
G01X83197Y70727D01*
G01X83168Y70747D01*
G01X83140Y70768D01*
G01X83114Y70792D01*
G01X83089Y70817D01*
G01X83066Y70843D01*
G01X83045Y70871D01*
G01X83025Y70900D01*
G01X83007Y70930D01*
G01X82991Y70961D01*
G01X82977Y70994D01*
G01X82966Y71027D01*
G01X82956Y71061D01*
G01X82948Y71095D01*
G01X82943Y71129D01*
G01X82939Y71164D01*
G01X82938Y71200D01*
G01X82940Y71240D01*
G01X82944Y71280D01*
G01X82951Y71320D01*
G01X82954Y71341D01*
G01X82953Y71356D01*
G01X82950Y71370D01*
G01X82944Y71384D01*
G01X82937Y71396D01*
G01X82929Y71408D01*
G01X82919Y71418D01*
G01X82907Y71427D01*
G01X82894Y71434D01*
G01X82881Y71439D01*
G01X82866Y71442D01*
G01X82852Y71443D01*
G01X81357Y71443D01*
G01X81343Y71442D01*
G01X81329Y71439D01*
G01X81315Y71434D01*
G01X81302Y71427D01*
G01X81272Y71409D01*
G01X81240Y71392D01*
G01X81208Y71378D01*
G01X81174Y71366D01*
G01X81140Y71356D01*
G01X81106Y71348D01*
G01X81070Y71343D01*
G01X81035Y71339D01*
G01X81000Y71338D01*
G01X80966Y71339D01*
G01X80932Y71342D01*
G01X80898Y71347D01*
G01X80865Y71354D01*
G01X80833Y71364D01*
G01X80800Y71375D01*
G01X80769Y71388D01*
G01X80739Y71402D01*
G01X80709Y71419D01*
G01X80681Y71438D01*
G01X80653Y71458D01*
G01X80627Y71479D01*
G01X80579Y71527D01*
G01X80558Y71553D01*
G01X80538Y71581D01*
G01X80519Y71609D01*
G01X80502Y71639D01*
G01X80488Y71669D01*
G01X80475Y71700D01*
G01X80464Y71732D01*
G01X80454Y71765D01*
G01X80447Y71798D01*
G01X80442Y71832D01*
G01X80439Y71866D01*
G01X80438Y71899D01*
G01X80439Y71933D01*
G01X80442Y71967D01*
G01X80447Y72001D01*
G01X80454Y72034D01*
G01X80464Y72066D01*
G01X80475Y72099D01*
G01X80488Y72130D01*
G01X80502Y72160D01*
G01X80519Y72190D01*
G01X80538Y72218D01*
G01X80558Y72246D01*
G01X80579Y72272D01*
G01X80627Y72320D01*
G01X80653Y72341D01*
G01X80681Y72361D01*
G01X80709Y72380D01*
G01X80739Y72397D01*
G01X80769Y72411D01*
G01X80800Y72424D01*
G01X80833Y72435D01*
G01X80865Y72445D01*
G01X80898Y72452D01*
G01X80932Y72457D01*
G01X80966Y72460D01*
G01X81000Y72461D01*
G01X81035Y72460D01*
G01X81070Y72456D01*
G01X81104Y72451D01*
G01X81138Y72443D01*
G01X81172Y72434D01*
G01X81205Y72422D01*
G01X81237Y72408D01*
G01X81269Y72392D01*
G01X81299Y72374D01*
G01X81328Y72355D01*
G01X81356Y72333D01*
G01X81382Y72310D01*
G01X81407Y72285D01*
G01X81430Y72259D01*
G01X81452Y72232D01*
G01X81472Y72203D01*
G01X81481Y72191D01*
G01X81491Y72181D01*
G01X81502Y72172D01*
G01X81515Y72165D01*
G01X81529Y72160D01*
G01X81543Y72157D01*
G01X81557Y72156D01*
G01X87710Y72156D01*
G01X87726Y72157D01*
G01X87741Y72161D01*
G01X87756Y72167D01*
G01X87770Y72175D01*
G01X87782Y72186D01*
G01X89079Y73483D01*
G01X89090Y73496D01*
G01X89098Y73509D01*
G01X89104Y73524D01*
G01X89108Y73539D01*
G01X89109Y73555D01*
G01X89108Y73570D01*
G01X89105Y73585D01*
G01X89099Y73599D01*
G01X89092Y73612D01*
G01X89083Y73623D01*
G01X89061Y73650D01*
G01X89040Y73677D01*
G01X89021Y73706D01*
G01X89004Y73735D01*
G01X88989Y73766D01*
G01X88976Y73798D01*
G01X88964Y73830D01*
G01X88955Y73863D01*
G01X88948Y73897D01*
G01X88942Y73931D01*
G01X88939Y73965D01*
G01X88938Y73999D01*
G01X88939Y74033D01*
G01X88942Y74067D01*
G01X88947Y74101D01*
G01X88955Y74134D01*
G01X88964Y74166D01*
G01X88975Y74198D01*
G01X88988Y74230D01*
G01X89003Y74260D01*
G01X89019Y74290D01*
G01X89038Y74318D01*
G01X89058Y74346D01*
G01X89079Y74372D01*
G01X89127Y74420D01*
G01X89153Y74441D01*
G01X89181Y74461D01*
G01X89209Y74480D01*
G01X89239Y74496D01*
G01X89269Y74511D01*
G01X89301Y74524D01*
G01X89333Y74535D01*
G01X89365Y74544D01*
G01X89398Y74551D01*
G01X89432Y74557D01*
G01X89466Y74560D01*
G01X89500Y74561D01*
G01X89533Y74560D01*
G01X89567Y74557D01*
G01X89601Y74551D01*
G01X89634Y74544D01*
G01X89667Y74535D01*
G01X89699Y74524D01*
G01X89730Y74511D01*
G01X89760Y74496D01*
G01X89790Y74480D01*
G01X89818Y74461D01*
G01X89846Y74441D01*
G01X89872Y74420D01*
G01X89897Y74396D01*
G01X89920Y74372D01*
G01X89941Y74346D01*
G01X89962Y74318D01*
G01X89980Y74290D01*
G01X89997Y74260D01*
G01X90011Y74230D01*
G01X90024Y74198D01*
G01X90036Y74166D01*
G01X90045Y74134D01*
G01X90052Y74101D01*
G01X90057Y74067D01*
G01X90060Y74033D01*
G01X90061Y73999D01*
G01X90060Y73964D01*
G01X90057Y73930D01*
G01X90051Y73895D01*
G01X90044Y73861D01*
G01X90034Y73828D01*
G01X90022Y73795D01*
G01X90009Y73763D01*
G01X89993Y73732D01*
G01X89975Y73701D01*
G01X89956Y73672D01*
G01X89935Y73645D01*
G01X89912Y73618D01*
G01X89887Y73594D01*
G01X89877Y73581D01*
G01X89868Y73567D01*
G01X89861Y73552D01*
G01X89857Y73536D01*
G01X89856Y73520D01*
G01X89856Y73399D01*
G01X89855Y73371D01*
G01X89852Y73344D01*
G01X89846Y73316D01*
G01X89839Y73289D01*
G01X89829Y73263D01*
G01X89817Y73238D01*
G01X89803Y73213D01*
G01X89788Y73190D01*
G01X89771Y73168D01*
G01X89752Y73147D01*
G01X88334Y71730D01*
G01X88324Y71718D01*
G01X88315Y71704D01*
G01X88309Y71689D01*
G01X88306Y71674D01*
G01X88304Y71658D01*
G01X88305Y71643D01*
G01X88308Y71629D01*
G01X88313Y71616D01*
G01X88320Y71603D01*
G01X88329Y71591D01*
G01X88339Y71581D01*
G01X88351Y71572D01*
G01X88364Y71565D01*
G01X88377Y71560D01*
G01X88391Y71557D01*
G01X88406Y71556D01*
G01X88611Y71556D01*
G01X88626Y71558D01*
G01X88642Y71561D01*
G01X88657Y71567D01*
G01X88670Y71576D01*
G01X88682Y71586D01*
G01X92036Y74939D01*
G01X92046Y74951D01*
G01X92054Y74965D01*
G01X92061Y74980D01*
G01X92064Y74995D01*
G01X92065Y75011D01*
G01X92064Y75026D01*
G01X92061Y75040D01*
G01X92051Y75079D01*
G01X92044Y75119D01*
G01X92040Y75159D01*
G01X92038Y75199D01*
G01X92039Y75233D01*
G01X92042Y75267D01*
G01X92047Y75301D01*
G01X92054Y75334D01*
G01X92064Y75366D01*
G01X92075Y75399D01*
G01X92088Y75430D01*
G01X92102Y75460D01*
G01X92119Y75490D01*
G01X92138Y75518D01*
G01X92158Y75546D01*
G01X92179Y75572D01*
G01X92227Y75620D01*
G01X92253Y75641D01*
G01X92281Y75661D01*
G01X92309Y75680D01*
G01X92339Y75697D01*
G01X92369Y75711D01*
G01X92400Y75724D01*
G01X92433Y75735D01*
G01X92465Y75745D01*
G01X92498Y75752D01*
G01X92532Y75757D01*
G01X92566Y75760D01*
G01X92600Y75761D01*
G01X92633Y75760D01*
G01X92667Y75757D01*
G01X92701Y75752D01*
G01X92734Y75745D01*
G01X92767Y75735D01*
G01X92799Y75724D01*
G01X92830Y75711D01*
G01X92860Y75697D01*
G01X92890Y75680D01*
G01X92918Y75661D01*
G01X92946Y75641D01*
G01X92972Y75620D01*
G01X93020Y75572D01*
G01X93041Y75546D01*
G01X93061Y75518D01*
G01X93080Y75490D01*
G01X93097Y75460D01*
G01X93111Y75430D01*
G01X93124Y75399D01*
G01X93135Y75366D01*
G01X93145Y75334D01*
G01X93152Y75301D01*
G01X93157Y75267D01*
G01X93160Y75233D01*
G01X93161Y75199D01*
G01X93160Y75165D01*
G01X93157Y75131D01*
G01X93151Y75097D01*
G01X93144Y75063D01*
G01X93135Y75030D01*
G01X93123Y74998D01*
G01X93110Y74966D01*
G01X93095Y74935D01*
G01X93078Y74905D01*
G01X93059Y74877D01*
G01X93038Y74849D01*
G01X93016Y74823D01*
G01X92992Y74798D01*
G01X92967Y74775D01*
G01X92940Y74753D01*
G01X92912Y74733D01*
G01X92883Y74715D01*
G01X92853Y74699D01*
G01X92822Y74684D01*
G01X92790Y74671D01*
G01X92776Y74665D01*
G01X92764Y74657D01*
G01X92752Y74648D01*
G01X89052Y70948D01*
G01X89032Y70929D01*
G01X89010Y70911D01*
G01X88987Y70896D01*
G01X88962Y70882D01*
G01X88937Y70870D01*
G01X88911Y70861D01*
G01X88884Y70853D01*
G01X88856Y70848D01*
G01X88828Y70844D01*
G01X88800Y70843D01*
G01X83979Y70843D01*
G01X83963Y70842D01*
G01X83947Y70838D01*
G01X83932Y70832D01*
G01X83918Y70823D01*
G01X83906Y70812D01*
G01X83881Y70788D01*
G01X83856Y70766D01*
G01X83829Y70745D01*
G01X83801Y70726D01*
G01X83771Y70708D01*
G01X83741Y70693D01*
G01X83727Y70685D01*
G01X83714Y70674D01*
G01X83704Y70662D01*
G01X83695Y70648D01*
G01X83688Y70633D01*
G01X83685Y70617D01*
G01X83683Y70601D01*
G01X83684Y70587D01*
G01X83687Y70572D01*
G01X83692Y70559D01*
G01X83699Y70546D01*
G01X83708Y70535D01*
G01X83718Y70524D01*
G01X83730Y70516D01*
G01X83743Y70509D01*
G01X83756Y70504D01*
G01X83770Y70501D01*
G01X83785Y70499D01*
G01X95357Y70499D01*
G01X95373Y70501D01*
G01X95389Y70504D01*
G01X95404Y70511D01*
G01X95417Y70519D01*
G01X95429Y70529D01*
G01X95900Y71000D01*
G01X96041Y71000D01*
G01X96056Y71001D01*
G01X96070Y71004D01*
G01X96084Y71009D01*
G01X96096Y71016D01*
G01X96108Y71024D01*
G01X96118Y71035D01*
G01X96127Y71046D01*
G01X96134Y71059D01*
G01X96139Y71073D01*
G01X96142Y71087D01*
G01X96143Y71101D01*
G01X96143Y73020D01*
G01X96142Y73037D01*
G01X96138Y73053D01*
G01X96131Y73068D01*
G01X96123Y73081D01*
G01X96112Y73094D01*
G01X96087Y73119D01*
G01X96064Y73145D01*
G01X96043Y73173D01*
G01X96024Y73202D01*
G01X96006Y73232D01*
G01X95991Y73263D01*
G01X95977Y73295D01*
G01X95965Y73328D01*
G01X95955Y73361D01*
G01X95948Y73395D01*
G01X95943Y73430D01*
G01X95939Y73465D01*
G01X95938Y73499D01*
G01X95939Y73533D01*
G01X95942Y73567D01*
G01X95947Y73601D01*
G01X95955Y73634D01*
G01X95964Y73666D01*
G01X95975Y73699D01*
G01X95988Y73730D01*
G01X96003Y73760D01*
G01X96019Y73790D01*
G01X96038Y73818D01*
G01X96058Y73846D01*
G01X96079Y73872D01*
G01X96127Y73920D01*
G01X96153Y73941D01*
G01X96181Y73961D01*
G01X96209Y73980D01*
G01X96239Y73997D01*
G01X96269Y74011D01*
G01X96301Y74024D01*
G01X96333Y74035D01*
G01X96365Y74045D01*
G01X96398Y74052D01*
G01X96432Y74057D01*
G01X96466Y74060D01*
G01X96500Y74061D01*
G01X96533Y74060D01*
G01X96567Y74057D01*
G01X96601Y74052D01*
G01X96634Y74045D01*
G01X96667Y74035D01*
G01X96699Y74024D01*
G01X96730Y74011D01*
G01X96760Y73997D01*
G01X96790Y73980D01*
G01X96818Y73961D01*
G01X96846Y73941D01*
G01X96872Y73920D01*
G01X96897Y73896D01*
G01X96920Y73872D01*
G01X96941Y73846D01*
G01X96962Y73818D01*
G01X96980Y73790D01*
G01X96997Y73760D01*
G01X97011Y73730D01*
G01X97024Y73699D01*
G01X97036Y73666D01*
G01X97045Y73634D01*
G01X97052Y73601D01*
G01X97057Y73567D01*
G01X97060Y73533D01*
G01X97061Y73499D01*
G01X97060Y73465D01*
G01X97057Y73430D01*
G01X97051Y73395D01*
G01X97044Y73361D01*
G01X97034Y73328D01*
G01X97022Y73295D01*
G01X97009Y73263D01*
G01X96993Y73232D01*
G01X96975Y73202D01*
G01X96956Y73173D01*
G01X96935Y73145D01*
G01X96912Y73119D01*
G01X96888Y73094D01*
G01X96877Y73081D01*
G01X96868Y73068D01*
G01X96861Y73053D01*
G01X96857Y73037D01*
G01X96856Y73020D01*
G01X96856Y71101D01*
G01X96857Y71087D01*
G01X96860Y71073D01*
G01X96865Y71059D01*
G01X96872Y71046D01*
G01X96881Y71035D01*
G01X96891Y71024D01*
G01X96903Y71016D01*
G01X96916Y71009D01*
G01X96929Y71004D01*
G01X96943Y71001D01*
G01X96958Y71000D01*
G01X100457Y71000D01*
G01X100473Y71001D01*
G01X100489Y71005D01*
G01X100504Y71011D01*
G01X100517Y71019D01*
G01X100529Y71029D01*
G01X101000Y71499D01*
G01X101373Y71126D01*
G01X101385Y71116D01*
G01X101398Y71108D01*
G01X101413Y71102D01*
G01X101428Y71098D01*
G01X101444Y71097D01*
G01X101459Y71098D01*
G01X101473Y71101D01*
G01X101487Y71106D01*
G01X101499Y71113D01*
G01X101511Y71122D01*
G01X101521Y71132D01*
G01X101530Y71143D01*
G01X101537Y71156D01*
G01X101542Y71170D01*
G01X101545Y71184D01*
G01X101546Y71198D01*
G01X101545Y71214D01*
G01X101540Y71257D01*
G01X101538Y71299D01*
G01X101539Y71335D01*
G01X101543Y71371D01*
G01X101548Y71406D01*
G01X101556Y71441D01*
G01X101566Y71475D01*
G01X101579Y71509D01*
G01X101584Y71527D01*
G01X101586Y71547D01*
G01X101585Y71562D01*
G01X101581Y71578D01*
G01X101575Y71592D01*
G01X101567Y71606D01*
G01X101557Y71618D01*
G01X101545Y71628D01*
G01X101532Y71637D01*
G01X101517Y71643D01*
G01X101502Y71647D01*
G01X101469Y71654D01*
G01X101436Y71663D01*
G01X101404Y71673D01*
G01X101372Y71686D01*
G01X101341Y71701D01*
G01X101311Y71718D01*
G01X101283Y71736D01*
G01X101255Y71756D01*
G01X101229Y71778D01*
G01X101204Y71801D01*
G01X101181Y71826D01*
G01X101159Y71852D01*
G01X101138Y71879D01*
G01X101120Y71908D01*
G01X101103Y71937D01*
G01X101088Y71968D01*
G01X101075Y72000D01*
G01X101064Y72032D01*
G01X101055Y72065D01*
G01X101047Y72098D01*
G01X101042Y72131D01*
G01X101039Y72165D01*
G01X101038Y72199D01*
G01X101039Y72233D01*
G01X101042Y72267D01*
G01X101047Y72301D01*
G01X101054Y72334D01*
G01X101064Y72366D01*
G01X101075Y72399D01*
G01X101088Y72430D01*
G01X101102Y72460D01*
G01X101119Y72490D01*
G01X101138Y72518D01*
G01X101158Y72546D01*
G01X101179Y72572D01*
G01X101227Y72620D01*
G01X101253Y72641D01*
G01X101281Y72661D01*
G01X101309Y72680D01*
G01X101339Y72697D01*
G01X101369Y72711D01*
G01X101400Y72724D01*
G01X101433Y72735D01*
G01X101465Y72745D01*
G01X101498Y72752D01*
G01X101532Y72757D01*
G01X101566Y72760D01*
G01X101600Y72761D01*
G01X101634Y72760D01*
G01X101669Y72756D01*
G01X101704Y72751D01*
G01X101738Y72744D01*
G01X101771Y72734D01*
G01X101804Y72722D01*
G01X101836Y72709D01*
G01X101867Y72693D01*
G01X101897Y72675D01*
G01X101926Y72656D01*
G01X101954Y72635D01*
G01X101980Y72612D01*
G01X102005Y72587D01*
G01X102017Y72577D01*
G01X102031Y72568D01*
G01X102046Y72561D01*
G01X102062Y72557D01*
G01X102079Y72556D01*
G01X102300Y72556D01*
G01X102327Y72555D01*
G01X102355Y72552D01*
G01X102383Y72546D01*
G01X102410Y72539D01*
G01X102436Y72529D01*
G01X102461Y72517D01*
G01X102486Y72504D01*
G01X102509Y72488D01*
G01X102531Y72471D01*
G01X102552Y72452D01*
G01X104117Y70886D01*
G01X104130Y70875D01*
G01X104143Y70867D01*
G01X104158Y70861D01*
G01X104173Y70857D01*
G01X104189Y70856D01*
G01X108020Y70856D01*
G01X108037Y70857D01*
G01X108053Y70861D01*
G01X108068Y70868D01*
G01X108082Y70877D01*
G01X108094Y70887D01*
G01X108119Y70912D01*
G01X108145Y70935D01*
G01X108173Y70956D01*
G01X108202Y70975D01*
G01X108232Y70993D01*
G01X108263Y71009D01*
G01X108295Y71022D01*
G01X108328Y71034D01*
G01X108361Y71044D01*
G01X108396Y71051D01*
G01X108430Y71056D01*
G01X108465Y71060D01*
G01X108500Y71061D01*
G01X108533Y71060D01*
G01X108567Y71057D01*
G01X108601Y71052D01*
G01X108634Y71045D01*
G01X108667Y71035D01*
G01X108699Y71024D01*
G01X108730Y71011D01*
G01X108760Y70997D01*
G01X108790Y70980D01*
G01X108818Y70961D01*
G01X108846Y70941D01*
G01X108872Y70920D01*
G01X108920Y70872D01*
G01X108941Y70846D01*
G01X108962Y70818D01*
G01X108980Y70790D01*
G01X108997Y70760D01*
G01X109011Y70730D01*
G01X109024Y70699D01*
G01X109035Y70666D01*
G01X109045Y70634D01*
G01X109052Y70601D01*
G01X109057Y70567D01*
G01X109060Y70533D01*
G01X109061Y70499D01*
G01X109060Y70466D01*
G01X109057Y70432D01*
G01X109052Y70398D01*
G01X109045Y70365D01*
G01X109035Y70332D01*
G01X109024Y70300D01*
G01X109011Y70269D01*
G01X108997Y70239D01*
G01X108980Y70209D01*
G01X108962Y70181D01*
G01X108941Y70153D01*
G01X108920Y70127D01*
G01X108872Y70079D01*
G01X108846Y70058D01*
G01X108818Y70038D01*
G01X108790Y70019D01*
G01X108760Y70002D01*
G01X108730Y69988D01*
G01X108699Y69975D01*
G01X108667Y69964D01*
G01X108634Y69954D01*
G01X108601Y69947D01*
G01X108567Y69942D01*
G01X108533Y69939D01*
G01X108500Y69938D01*
G01X108465Y69939D01*
G01X108430Y69942D01*
G01X108396Y69948D01*
G01X108361Y69955D01*
G01X108328Y69965D01*
G01X108295Y69977D01*
G01X108263Y69990D01*
G01X108232Y70006D01*
G01X108202Y70024D01*
G01X108173Y70043D01*
G01X108145Y70064D01*
G01X108119Y70087D01*
G01X108094Y70112D01*
G01X108082Y70122D01*
G01X108068Y70131D01*
G01X108053Y70138D01*
G01X108037Y70142D01*
G01X108020Y70143D01*
G01X104006Y70143D01*
G01X103991Y70142D01*
G01X103977Y70139D01*
G01X103963Y70134D01*
G01X103951Y70127D01*
G01X103939Y70118D01*
G01X103929Y70108D01*
G01X103920Y70096D01*
G01X103913Y70084D01*
G01X103908Y70070D01*
G01X103905Y70056D01*
G01X103904Y70041D01*
G01X103905Y70025D01*
G01X103909Y70010D01*
G01X103915Y69995D01*
G01X103923Y69982D01*
G01X103934Y69970D01*
G01X108818Y65086D01*
G01X108830Y65075D01*
G01X108843Y65067D01*
G01X108858Y65061D01*
G01X108874Y65057D01*
G01X108889Y65056D01*
G01X111620Y65056D01*
G01X111637Y65057D01*
G01X111653Y65061D01*
G01X111668Y65068D01*
G01X111682Y65076D01*
G01X111694Y65087D01*
G01X111719Y65112D01*
G01X111745Y65135D01*
G01X111773Y65156D01*
G01X111802Y65175D01*
G01X111832Y65193D01*
G01X111863Y65208D01*
G01X111895Y65222D01*
G01X111928Y65234D01*
G01X111961Y65243D01*
G01X111995Y65251D01*
G01X112030Y65256D01*
G01X112065Y65260D01*
G01X112100Y65261D01*
G01X112133Y65260D01*
G01X112167Y65257D01*
G01X112201Y65252D01*
G01X112234Y65244D01*
G01X112267Y65235D01*
G01X112299Y65224D01*
G01X112330Y65211D01*
G01X112360Y65196D01*
G01X112390Y65180D01*
G01X112418Y65161D01*
G01X112446Y65141D01*
G01X112472Y65120D01*
G01X112520Y65072D01*
G01X112541Y65046D01*
G01X112561Y65018D01*
G01X112580Y64990D01*
G01X112597Y64960D01*
G01X112611Y64930D01*
G01X112624Y64898D01*
G01X112635Y64866D01*
G01X112645Y64834D01*
G01X112652Y64801D01*
G01X112657Y64767D01*
G01X112660Y64733D01*
G01X112661Y64699D01*
G01X112660Y64666D01*
G01X112657Y64632D01*
G01X112652Y64598D01*
G01X112645Y64565D01*
G01X112635Y64532D01*
G01X112624Y64500D01*
G01X112611Y64469D01*
G01X112597Y64439D01*
G01X112580Y64409D01*
G01X112561Y64381D01*
G01X112541Y64353D01*
G01X112520Y64327D01*
G01X112496Y64302D01*
G01X112472Y64279D01*
G01X112446Y64258D01*
G01X112418Y64237D01*
G01X112390Y64219D01*
G01X112360Y64202D01*
G01X112330Y64188D01*
G01X112299Y64175D01*
G01X112267Y64163D01*
G01X112234Y64154D01*
G01X112201Y64147D01*
G01X112167Y64142D01*
G01X112133Y64139D01*
G01X112100Y64138D01*
G01X112065Y64139D01*
G01X112030Y64142D01*
G01X111995Y64148D01*
G01X111961Y64155D01*
G01X111928Y64165D01*
G01X111895Y64177D01*
G01X111863Y64190D01*
G01X111832Y64206D01*
G01X111802Y64224D01*
G01X111773Y64243D01*
G01X111745Y64264D01*
G01X111719Y64287D01*
G01X111694Y64311D01*
G01X111682Y64322D01*
G01X111668Y64331D01*
G01X111653Y64338D01*
G01X111637Y64342D01*
G01X111620Y64343D01*
G01X108700Y64343D01*
G01X108672Y64344D01*
G01X108644Y64347D01*
G01X108616Y64353D01*
G01X108590Y64360D01*
G01X108563Y64370D01*
G01X108538Y64382D01*
G01X108513Y64395D01*
G01X108490Y64411D01*
G01X108468Y64428D01*
G01X108448Y64447D01*
G01X107073Y65822D01*
G01X107061Y65832D01*
G01X107047Y65841D01*
G01X107033Y65847D01*
G01X107017Y65850D01*
G01X107001Y65852D01*
G01X106987Y65851D01*
G01X106973Y65848D01*
G01X106959Y65842D01*
G01X106946Y65836D01*
G01X106935Y65827D01*
G01X106924Y65817D01*
G01X106916Y65805D01*
G01X106909Y65792D01*
G01X106904Y65779D01*
G01X106901Y65765D01*
G01X106900Y65750D01*
G01X106900Y65642D01*
G01X106901Y65626D01*
G01X106905Y65610D01*
G01X106911Y65595D01*
G01X106919Y65582D01*
G01X106929Y65570D01*
G01X109000Y63499D01*
G01X109000Y61601D01*
G01X109001Y61587D01*
G01X109004Y61572D01*
G01X109009Y61559D01*
G01X109016Y61546D01*
G01X109024Y61535D01*
G01X109035Y61524D01*
G01X109046Y61516D01*
G01X109059Y61509D01*
G01X109072Y61504D01*
G01X109087Y61501D01*
G01X109101Y61500D01*
G01X114957Y61500D01*
G01X114973Y61501D01*
G01X114989Y61504D01*
G01X115004Y61511D01*
G01X115017Y61519D01*
G01X115029Y61529D01*
G01X115999Y62500D01*
G01X122898Y62500D01*
G01X122912Y62501D01*
G01X122927Y62504D01*
G01X122940Y62509D01*
G01X122953Y62516D01*
G01X122964Y62524D01*
G01X122975Y62535D01*
G01X122983Y62546D01*
G01X122990Y62559D01*
G01X122995Y62572D01*
G01X122998Y62587D01*
G01X123000Y62601D01*
G01X122999Y64095D01*
G01X122998Y64110D01*
G01X122994Y64126D01*
G01X122988Y64141D01*
G01X122980Y64154D01*
G01X122970Y64166D01*
G01X122818Y64318D01*
G01X122801Y64337D01*
G01X122786Y64357D01*
G01X122773Y64379D01*
G01X122762Y64401D01*
G01X122754Y64425D01*
G01X122748Y64449D01*
G01X122744Y64474D01*
G01X122743Y64499D01*
G01X122743Y68351D01*
G01X122742Y68367D01*
G01X122738Y68383D01*
G01X122732Y68397D01*
G01X122723Y68411D01*
G01X122713Y68423D01*
G01X121423Y69713D01*
G01X121411Y69724D01*
G01X121397Y69732D01*
G01X121383Y69738D01*
G01X121367Y69742D01*
G01X121351Y69743D01*
G01X120500Y69743D01*
G01X120476Y69744D01*
G01X120452Y69747D01*
G01X120429Y69753D01*
G01X120407Y69760D01*
G01X120385Y69770D01*
G01X120364Y69781D01*
G01X120345Y69795D01*
G01X120327Y69810D01*
G01X120310Y69827D01*
G01X120295Y69845D01*
G01X120281Y69864D01*
G01X120270Y69885D01*
G01X120260Y69907D01*
G01X120253Y69929D01*
G01X120247Y69952D01*
G01X120244Y69976D01*
G01X120243Y69999D01*
G01X120243Y75742D01*
G01X120242Y75756D01*
G01X120239Y75770D01*
G01X120234Y75784D01*
G01X120227Y75797D01*
G01X120218Y75808D01*
G01X120208Y75819D01*
G01X120196Y75827D01*
G01X120184Y75834D01*
G01X120170Y75839D01*
G01X120156Y75842D01*
G01X120141Y75843D01*
G01X119893Y75843D01*
G01X119893Y76469D01*
G01X119892Y76484D01*
G01X119889Y76498D01*
G01X119884Y76512D01*
G01X119877Y76525D01*
G01X119868Y76536D01*
G01X119857Y76547D01*
G01X119846Y76555D01*
G01X119826Y76569D01*
G01X119808Y76584D01*
G01X119792Y76601D01*
G01X119777Y76619D01*
G01X119763Y76638D01*
G01X119752Y76659D01*
G01X119743Y76680D01*
G01X119735Y76703D01*
G01X119730Y76726D01*
G01X119727Y76749D01*
G01X119725Y76772D01*
G01X119725Y77026D01*
G01X119727Y77050D01*
G01X119730Y77073D01*
G01X119735Y77096D01*
G01X119743Y77119D01*
G01X119752Y77140D01*
G01X119763Y77161D01*
G01X119777Y77180D01*
G01X119792Y77198D01*
G01X119808Y77215D01*
G01X119826Y77230D01*
G01X119846Y77244D01*
G01X119857Y77252D01*
G01X119868Y77263D01*
G01X119877Y77274D01*
G01X119884Y77287D01*
G01X119889Y77301D01*
G01X119892Y77315D01*
G01X119893Y77330D01*
G01X119893Y77641D01*
G01X119892Y77656D01*
G01X119889Y77670D01*
G01X119884Y77684D01*
G01X119877Y77696D01*
G01X119868Y77708D01*
G01X119858Y77718D01*
G01X119846Y77727D01*
G01X119834Y77734D01*
G01X119820Y77739D01*
G01X119806Y77742D01*
G01X119792Y77743D01*
G01X119284Y77743D01*
G01X119269Y77742D01*
G01X119255Y77739D01*
G01X119241Y77734D01*
G01X119229Y77727D01*
G01X119217Y77718D01*
G01X119207Y77708D01*
G01X119198Y77696D01*
G01X119191Y77684D01*
G01X119186Y77670D01*
G01X119183Y77656D01*
G01X119182Y77641D01*
G01X119182Y77363D01*
G01X118697Y77363D01*
G01X118697Y77641D01*
G01X118696Y77656D01*
G01X118693Y77670D01*
G01X118688Y77684D01*
G01X118681Y77696D01*
G01X118672Y77708D01*
G01X118662Y77718D01*
G01X118650Y77727D01*
G01X118637Y77734D01*
G01X118624Y77739D01*
G01X118610Y77742D01*
G01X118595Y77743D01*
G01X64225Y77743D01*
G01X64211Y77742D01*
G01X64196Y77739D01*
G01X64183Y77734D01*
G01X64170Y77727D01*
G01X64158Y77718D01*
G01X64148Y77708D01*
G01X64140Y77696D01*
G01X64133Y77684D01*
G01X64128Y77670D01*
G01X64124Y77656D01*
G01X64123Y77641D01*
G01X64125Y77625D01*
G01X64129Y77609D01*
G01X64136Y77593D01*
G01X64145Y77579D01*
G01X64156Y77567D01*
G01X64184Y77539D01*
G01X64211Y77510D01*
G01X64236Y77479D01*
G01X64260Y77447D01*
G01X64282Y77414D01*
G01X64302Y77380D01*
G01X64321Y77344D01*
G01X64337Y77308D01*
G01X64352Y77271D01*
G01X64364Y77233D01*
G01X64375Y77195D01*
G01X64383Y77156D01*
G01X64390Y77117D01*
G01X64394Y77077D01*
G01X63954Y77077D01*
G01X63954Y77641D01*
G01X63953Y77656D01*
G01X63950Y77670D01*
G01X63945Y77684D01*
G01X63938Y77696D01*
G01X63929Y77708D01*
G01X63919Y77718D01*
G01X63907Y77727D01*
G01X63895Y77734D01*
G01X63881Y77739D01*
G01X63867Y77742D01*
G01X63852Y77743D01*
G01X63429Y77743D01*
G01X63414Y77742D01*
G01X63400Y77739D01*
G01X63386Y77734D01*
G01X63374Y77727D01*
G01X63362Y77718D01*
G01X63352Y77708D01*
G01X63343Y77696D01*
G01X63336Y77684D01*
G01X63331Y77670D01*
G01X63328Y77656D01*
G01X63327Y77641D01*
G01X63327Y77077D01*
G01X62887Y77077D01*
G01X62891Y77117D01*
G01X62897Y77156D01*
G01X62906Y77195D01*
G01X62917Y77233D01*
G01X62929Y77271D01*
G01X62944Y77308D01*
G01X62960Y77344D01*
G01X62978Y77380D01*
G01X62999Y77414D01*
G01X63021Y77447D01*
G01X63044Y77479D01*
G01X63070Y77510D01*
G01X63097Y77539D01*
G01X63125Y77567D01*
G01X63136Y77579D01*
G01X63145Y77593D01*
G01X63152Y77609D01*
G01X63156Y77625D01*
G01X63157Y77641D01*
G01X63156Y77656D01*
G01X63153Y77670D01*
G01X63148Y77684D01*
G01X63141Y77696D01*
G01X63133Y77708D01*
G01X63122Y77718D01*
G01X63111Y77727D01*
G01X63098Y77734D01*
G01X63084Y77739D01*
G01X63070Y77742D01*
G01X63056Y77743D01*
G01X56986Y77743D01*
G01X56972Y77742D01*
G01X56957Y77739D01*
G01X56944Y77734D01*
G01X56931Y77727D01*
G01X56919Y77718D01*
G01X56909Y77708D01*
G01X56901Y77696D01*
G01X56894Y77684D01*
G01X56889Y77670D01*
G01X56885Y77656D01*
G01X56884Y77641D01*
G01X56886Y77625D01*
G01X56890Y77609D01*
G01X56897Y77593D01*
G01X56906Y77579D01*
G01X56917Y77567D01*
G01X56945Y77539D01*
G01X56972Y77510D01*
G01X56997Y77479D01*
G01X57021Y77447D01*
G01X57043Y77414D01*
G01X57063Y77380D01*
G01X57082Y77344D01*
G01X57098Y77308D01*
G01X57113Y77271D01*
G01X57125Y77233D01*
G01X57136Y77195D01*
G01X57144Y77156D01*
G01X57151Y77117D01*
G01X57155Y77077D01*
G01X56715Y77077D01*
G01X56715Y77641D01*
G01X56714Y77656D01*
G01X56711Y77670D01*
G01X56706Y77684D01*
G01X56699Y77696D01*
G01X56690Y77708D01*
G01X56680Y77718D01*
G01X56668Y77727D01*
G01X56656Y77734D01*
G01X56642Y77739D01*
G01X56628Y77742D01*
G01X56613Y77743D01*
G01X56190Y77743D01*
G01X56175Y77742D01*
G01X56161Y77739D01*
G01X56147Y77734D01*
G01X56135Y77727D01*
G01X56123Y77718D01*
G01X56113Y77708D01*
G01X56104Y77696D01*
G01X56097Y77684D01*
G01X56092Y77670D01*
G01X56089Y77656D01*
G01X56088Y77641D01*
G01X56088Y77077D01*
G01X55648Y77077D01*
G01X55652Y77117D01*
G01X55658Y77156D01*
G01X55667Y77195D01*
G01X55678Y77233D01*
G01X55690Y77271D01*
G01X55705Y77308D01*
G01X55721Y77344D01*
G01X55739Y77380D01*
G01X55760Y77414D01*
G01X55782Y77447D01*
G01X55805Y77479D01*
G01X55831Y77510D01*
G01X55858Y77539D01*
G01X55886Y77567D01*
G01X55897Y77579D01*
G01X55906Y77593D01*
G01X55913Y77609D01*
G01X55917Y77625D01*
G01X55918Y77641D01*
G01X55917Y77656D01*
G01X55914Y77670D01*
G01X55909Y77684D01*
G01X55902Y77696D01*
G01X55894Y77708D01*
G01X55883Y77718D01*
G01X55872Y77727D01*
G01X55859Y77734D01*
G01X55845Y77739D01*
G01X55831Y77742D01*
G01X55817Y77743D01*
G37*

%LPC*%
G36*
G01X85000Y77356D02*
G01X79398Y77356D01*
G01X79370Y77355D01*
G01X79343Y77352D01*
G01X79315Y77346D01*
G01X79288Y77339D01*
G01X79262Y77329D01*
G01X79237Y77317D01*
G01X79212Y77303D01*
G01X79189Y77288D01*
G01X79167Y77271D01*
G01X79146Y77252D01*
G01X78275Y76380D01*
G01X78263Y76370D01*
G01X78249Y76362D01*
G01X78235Y76356D01*
G01X78219Y76352D01*
G01X78203Y76351D01*
G01X78191Y76351D01*
G01X78145Y76356D01*
G01X78099Y76357D01*
G01X77900Y76357D01*
G01X77861Y76356D01*
G01X77821Y76353D01*
G01X77782Y76348D01*
G01X77743Y76341D01*
G01X77704Y76331D01*
G01X77666Y76320D01*
G01X77629Y76307D01*
G01X77592Y76292D01*
G01X77557Y76275D01*
G01X77522Y76256D01*
G01X77488Y76235D01*
G01X77456Y76213D01*
G01X77424Y76188D01*
G01X77394Y76163D01*
G01X77365Y76135D01*
G01X77338Y76107D01*
G01X77312Y76077D01*
G01X77288Y76045D01*
G01X77266Y76013D01*
G01X77245Y75979D01*
G01X77226Y75944D01*
G01X77209Y75908D01*
G01X77194Y75872D01*
G01X77181Y75834D01*
G01X77169Y75796D01*
G01X77160Y75758D01*
G01X77153Y75719D01*
G01X77148Y75680D01*
G01X77145Y75640D01*
G01X77144Y75601D01*
G01X77145Y75561D01*
G01X77148Y75521D01*
G01X77153Y75482D01*
G01X77160Y75443D01*
G01X77169Y75405D01*
G01X77181Y75367D01*
G01X77194Y75329D01*
G01X77209Y75293D01*
G01X77226Y75257D01*
G01X77245Y75222D01*
G01X77266Y75188D01*
G01X77288Y75156D01*
G01X77312Y75124D01*
G01X77338Y75094D01*
G01X77365Y75066D01*
G01X77394Y75038D01*
G01X77424Y75013D01*
G01X77456Y74988D01*
G01X77488Y74966D01*
G01X77522Y74945D01*
G01X77557Y74926D01*
G01X77592Y74909D01*
G01X77629Y74894D01*
G01X77666Y74881D01*
G01X77704Y74870D01*
G01X77743Y74861D01*
G01X77782Y74853D01*
G01X77821Y74848D01*
G01X77861Y74845D01*
G01X77900Y74844D01*
G01X78099Y74844D01*
G01X78138Y74845D01*
G01X78178Y74848D01*
G01X78217Y74853D01*
G01X78256Y74861D01*
G01X78295Y74870D01*
G01X78333Y74881D01*
G01X78370Y74894D01*
G01X78407Y74909D01*
G01X78442Y74926D01*
G01X78477Y74945D01*
G01X78511Y74966D01*
G01X78543Y74988D01*
G01X78575Y75013D01*
G01X78605Y75038D01*
G01X78634Y75066D01*
G01X78661Y75094D01*
G01X78687Y75124D01*
G01X78711Y75156D01*
G01X78733Y75188D01*
G01X78754Y75222D01*
G01X78773Y75257D01*
G01X78790Y75293D01*
G01X78805Y75329D01*
G01X78818Y75367D01*
G01X78830Y75405D01*
G01X78839Y75443D01*
G01X78846Y75482D01*
G01X78851Y75521D01*
G01X78854Y75561D01*
G01X78855Y75601D01*
G01X78854Y75640D01*
G01X78851Y75680D01*
G01X78846Y75720D01*
G01X78839Y75759D01*
G01X78829Y75798D01*
G01X78818Y75836D01*
G01X78814Y75852D01*
G01X78813Y75868D01*
G01X78814Y75883D01*
G01X78818Y75899D01*
G01X78824Y75914D01*
G01X78832Y75927D01*
G01X78843Y75939D01*
G01X79200Y76297D01*
G01X79212Y76307D01*
G01X79226Y76316D01*
G01X79241Y76322D01*
G01X79256Y76325D01*
G01X79272Y76327D01*
G01X79286Y76326D01*
G01X79301Y76323D01*
G01X79314Y76318D01*
G01X79327Y76311D01*
G01X79338Y76302D01*
G01X79349Y76292D01*
G01X79357Y76280D01*
G01X79364Y76267D01*
G01X79369Y76254D01*
G01X79372Y76240D01*
G01X79374Y76225D01*
G01X79370Y76198D01*
G01X79360Y76155D01*
G01X79352Y76112D01*
G01X79786Y76112D01*
G01X79786Y76541D01*
G01X79787Y76556D01*
G01X79790Y76570D01*
G01X79795Y76584D01*
G01X79802Y76596D01*
G01X79811Y76608D01*
G01X79821Y76618D01*
G01X79833Y76627D01*
G01X79845Y76634D01*
G01X79859Y76639D01*
G01X79873Y76642D01*
G01X79888Y76643D01*
G01X80311Y76643D01*
G01X80326Y76642D01*
G01X80340Y76639D01*
G01X80354Y76634D01*
G01X80366Y76627D01*
G01X80378Y76618D01*
G01X80388Y76608D01*
G01X80397Y76596D01*
G01X80404Y76584D01*
G01X80409Y76570D01*
G01X80412Y76556D01*
G01X80413Y76541D01*
G01X80413Y76112D01*
G01X80847Y76112D01*
G01X80840Y76152D01*
G01X80831Y76191D01*
G01X80820Y76230D01*
G01X80806Y76268D01*
G01X80791Y76305D01*
G01X80774Y76342D01*
G01X80754Y76377D01*
G01X80733Y76412D01*
G01X80710Y76445D01*
G01X80685Y76477D01*
G01X80676Y76491D01*
G01X80668Y76507D01*
G01X80664Y76524D01*
G01X80662Y76541D01*
G01X80664Y76556D01*
G01X80667Y76570D01*
G01X80672Y76584D01*
G01X80679Y76596D01*
G01X80687Y76608D01*
G01X80698Y76618D01*
G01X80709Y76627D01*
G01X80722Y76634D01*
G01X80735Y76639D01*
G01X80750Y76642D01*
G01X80764Y76643D01*
G01X84810Y76643D01*
G01X84826Y76642D01*
G01X84841Y76638D01*
G01X84856Y76632D01*
G01X84869Y76624D01*
G01X84882Y76613D01*
G01X85613Y75882D01*
G01X85624Y75869D01*
G01X85632Y75856D01*
G01X85638Y75841D01*
G01X85642Y75826D01*
G01X85643Y75810D01*
G01X85643Y73979D01*
G01X85642Y73962D01*
G01X85638Y73946D01*
G01X85631Y73931D01*
G01X85622Y73918D01*
G01X85612Y73905D01*
G01X85587Y73881D01*
G01X85565Y73854D01*
G01X85544Y73827D01*
G01X85524Y73798D01*
G01X85507Y73768D01*
G01X85491Y73738D01*
G01X85477Y73706D01*
G01X85466Y73673D01*
G01X85456Y73640D01*
G01X85451Y73626D01*
G01X85444Y73613D01*
G01X85436Y73601D01*
G01X85426Y73590D01*
G01X85414Y73581D01*
G01X85401Y73573D01*
G01X85387Y73568D01*
G01X85372Y73565D01*
G01X85358Y73564D01*
G01X85343Y73565D01*
G01X85329Y73568D01*
G01X85315Y73573D01*
G01X85303Y73580D01*
G01X85291Y73589D01*
G01X85281Y73599D01*
G01X85272Y73611D01*
G01X85265Y73623D01*
G01X85260Y73637D01*
G01X85257Y73651D01*
G01X85256Y73665D01*
G01X85256Y75000D01*
G01X85255Y75023D01*
G01X85252Y75047D01*
G01X85246Y75070D01*
G01X85239Y75092D01*
G01X85229Y75114D01*
G01X85218Y75135D01*
G01X85204Y75154D01*
G01X85189Y75172D01*
G01X85172Y75189D01*
G01X85154Y75204D01*
G01X85135Y75218D01*
G01X85114Y75229D01*
G01X85092Y75239D01*
G01X85070Y75246D01*
G01X85047Y75252D01*
G01X85023Y75255D01*
G01X85000Y75256D01*
G01X83000Y75256D01*
G01X82976Y75255D01*
G01X82952Y75252D01*
G01X82929Y75246D01*
G01X82907Y75239D01*
G01X82885Y75229D01*
G01X82864Y75218D01*
G01X82845Y75204D01*
G01X82827Y75189D01*
G01X82810Y75172D01*
G01X82795Y75154D01*
G01X82781Y75135D01*
G01X82770Y75114D01*
G01X82760Y75092D01*
G01X82753Y75070D01*
G01X82747Y75047D01*
G01X82744Y75023D01*
G01X82743Y75000D01*
G01X82743Y73000D01*
G01X82744Y72976D01*
G01X82747Y72952D01*
G01X82753Y72929D01*
G01X82760Y72907D01*
G01X82770Y72885D01*
G01X82781Y72864D01*
G01X82795Y72845D01*
G01X82810Y72827D01*
G01X82827Y72810D01*
G01X82845Y72795D01*
G01X82864Y72781D01*
G01X82885Y72770D01*
G01X82907Y72760D01*
G01X82929Y72753D01*
G01X82952Y72747D01*
G01X82976Y72744D01*
G01X83000Y72743D01*
G01X85000Y72743D01*
G01X85023Y72744D01*
G01X85047Y72747D01*
G01X85070Y72753D01*
G01X85092Y72760D01*
G01X85114Y72770D01*
G01X85135Y72781D01*
G01X85154Y72795D01*
G01X85172Y72810D01*
G01X85189Y72827D01*
G01X85204Y72845D01*
G01X85218Y72864D01*
G01X85229Y72885D01*
G01X85239Y72907D01*
G01X85246Y72929D01*
G01X85252Y72952D01*
G01X85255Y72976D01*
G01X85256Y73000D01*
G01X85256Y73334D01*
G01X85257Y73348D01*
G01X85260Y73362D01*
G01X85265Y73376D01*
G01X85272Y73388D01*
G01X85281Y73400D01*
G01X85291Y73410D01*
G01X85303Y73419D01*
G01X85315Y73426D01*
G01X85329Y73431D01*
G01X85343Y73434D01*
G01X85358Y73435D01*
G01X85372Y73434D01*
G01X85387Y73431D01*
G01X85401Y73425D01*
G01X85414Y73418D01*
G01X85426Y73409D01*
G01X85436Y73398D01*
G01X85444Y73386D01*
G01X85451Y73373D01*
G01X85456Y73359D01*
G01X85466Y73325D01*
G01X85478Y73292D01*
G01X85492Y73260D01*
G01X85508Y73228D01*
G01X85526Y73198D01*
G01X85546Y73169D01*
G01X85567Y73141D01*
G01X85591Y73115D01*
G01X85616Y73090D01*
G01X85642Y73067D01*
G01X85670Y73045D01*
G01X85699Y73025D01*
G01X85729Y73007D01*
G01X85761Y72991D01*
G01X85793Y72977D01*
G01X85826Y72966D01*
G01X85860Y72956D01*
G01X85894Y72948D01*
G01X85929Y72943D01*
G01X85964Y72939D01*
G01X85999Y72938D01*
G01X86033Y72939D01*
G01X86067Y72942D01*
G01X86101Y72947D01*
G01X86134Y72954D01*
G01X86166Y72964D01*
G01X86199Y72975D01*
G01X86230Y72988D01*
G01X86260Y73002D01*
G01X86290Y73019D01*
G01X86318Y73038D01*
G01X86346Y73058D01*
G01X86372Y73079D01*
G01X86420Y73127D01*
G01X86441Y73153D01*
G01X86461Y73181D01*
G01X86480Y73209D01*
G01X86497Y73239D01*
G01X86511Y73269D01*
G01X86524Y73300D01*
G01X86535Y73332D01*
G01X86545Y73365D01*
G01X86552Y73398D01*
G01X86557Y73432D01*
G01X86560Y73466D01*
G01X86561Y73499D01*
G01X86560Y73534D01*
G01X86556Y73569D01*
G01X86551Y73604D01*
G01X86544Y73638D01*
G01X86534Y73671D01*
G01X86522Y73704D01*
G01X86509Y73736D01*
G01X86493Y73767D01*
G01X86475Y73797D01*
G01X86456Y73826D01*
G01X86435Y73854D01*
G01X86412Y73880D01*
G01X86387Y73905D01*
G01X86377Y73917D01*
G01X86368Y73931D01*
G01X86361Y73946D01*
G01X86357Y73962D01*
G01X86356Y73979D01*
G01X86356Y75999D01*
G01X86355Y76027D01*
G01X86352Y76055D01*
G01X86346Y76083D01*
G01X86339Y76110D01*
G01X86329Y76136D01*
G01X86317Y76161D01*
G01X86304Y76186D01*
G01X86288Y76209D01*
G01X86271Y76231D01*
G01X86252Y76252D01*
G01X85252Y77252D01*
G01X85231Y77271D01*
G01X85209Y77288D01*
G01X85186Y77303D01*
G01X85161Y77317D01*
G01X85136Y77329D01*
G01X85110Y77339D01*
G01X85083Y77346D01*
G01X85055Y77352D01*
G01X85028Y77355D01*
G01X85000Y77356D01*
G37*
G36*
G01X14754Y67545D02*
G01X13687Y67545D01*
G01X13660Y67544D01*
G01X13633Y67540D01*
G01X13607Y67535D01*
G01X13581Y67528D01*
G01X13555Y67518D01*
G01X13531Y67507D01*
G01X13507Y67494D01*
G01X13484Y67479D01*
G01X13463Y67462D01*
G01X13443Y67444D01*
G01X12732Y66732D01*
G01X12712Y66711D01*
G01X12694Y66687D01*
G01X12678Y66663D01*
G01X12664Y66636D01*
G01X12653Y66609D01*
G01X12644Y66581D01*
G01X12637Y66553D01*
G01X12633Y66538D01*
G01X12627Y66524D01*
G01X12619Y66511D01*
G01X12609Y66500D01*
G01X12597Y66490D01*
G01X12585Y66482D01*
G01X12571Y66476D01*
G01X12556Y66472D01*
G01X12530Y66466D01*
G01X12505Y66458D01*
G01X12480Y66448D01*
G01X12456Y66436D01*
G01X12434Y66423D01*
G01X12412Y66408D01*
G01X12391Y66391D01*
G01X12372Y66372D01*
G01X12355Y66353D01*
G01X12338Y66332D01*
G01X12324Y66309D01*
G01X12311Y66286D01*
G01X12300Y66262D01*
G01X12291Y66237D01*
G01X12284Y66211D01*
G01X12279Y66185D01*
G01X12276Y66159D01*
G01X12275Y66132D01*
G01X12275Y65066D01*
G01X12276Y65039D01*
G01X12279Y65012D01*
G01X12285Y64985D01*
G01X12292Y64959D01*
G01X12302Y64933D01*
G01X12313Y64909D01*
G01X12326Y64885D01*
G01X12341Y64863D01*
G01X12358Y64841D01*
G01X12376Y64821D01*
G01X13088Y64110D01*
G01X13443Y63755D01*
G01X13463Y63736D01*
G01X13484Y63719D01*
G01X13507Y63704D01*
G01X13531Y63691D01*
G01X13555Y63680D01*
G01X13581Y63670D01*
G01X13607Y63663D01*
G01X13633Y63658D01*
G01X13660Y63654D01*
G01X13687Y63653D01*
G01X14754Y63653D01*
G01X14790Y63655D01*
G01X14825Y63661D01*
G01X14853Y63668D01*
G01X14880Y63677D01*
G01X14906Y63688D01*
G01X14931Y63702D01*
G01X14955Y63718D01*
G01X14977Y63735D01*
G01X14999Y63755D01*
G01X15710Y64466D01*
G01X15730Y64488D01*
G01X15748Y64511D01*
G01X15764Y64536D01*
G01X15777Y64562D01*
G01X15789Y64589D01*
G01X15798Y64617D01*
G01X15805Y64645D01*
G01X15809Y64660D01*
G01X15815Y64674D01*
G01X15823Y64687D01*
G01X15833Y64698D01*
G01X15844Y64708D01*
G01X15857Y64716D01*
G01X15871Y64722D01*
G01X15886Y64726D01*
G01X15911Y64732D01*
G01X15937Y64740D01*
G01X15961Y64750D01*
G01X15985Y64762D01*
G01X16008Y64775D01*
G01X16030Y64790D01*
G01X16050Y64807D01*
G01X16069Y64826D01*
G01X16087Y64845D01*
G01X16103Y64866D01*
G01X16118Y64889D01*
G01X16130Y64912D01*
G01X16141Y64936D01*
G01X16150Y64961D01*
G01X16157Y64987D01*
G01X16162Y65013D01*
G01X16165Y65039D01*
G01X16166Y65066D01*
G01X16166Y65141D01*
G01X16168Y65155D01*
G01X16171Y65170D01*
G01X16176Y65183D01*
G01X16183Y65196D01*
G01X16191Y65207D01*
G01X16202Y65218D01*
G01X16213Y65226D01*
G01X16226Y65233D01*
G01X16239Y65238D01*
G01X16254Y65241D01*
G01X16268Y65243D01*
G01X16520Y65243D01*
G01X16537Y65241D01*
G01X16553Y65237D01*
G01X16568Y65231D01*
G01X16582Y65222D01*
G01X16594Y65211D01*
G01X16619Y65187D01*
G01X16645Y65164D01*
G01X16673Y65143D01*
G01X16702Y65123D01*
G01X16732Y65106D01*
G01X16763Y65090D01*
G01X16795Y65076D01*
G01X16828Y65065D01*
G01X16862Y65055D01*
G01X16896Y65047D01*
G01X16930Y65042D01*
G01X16965Y65039D01*
G01X17000Y65038D01*
G01X17034Y65039D01*
G01X17067Y65042D01*
G01X17101Y65047D01*
G01X17134Y65054D01*
G01X17167Y65063D01*
G01X17199Y65074D01*
G01X17230Y65087D01*
G01X17260Y65102D01*
G01X17290Y65119D01*
G01X17318Y65137D01*
G01X17346Y65157D01*
G01X17372Y65179D01*
G01X17397Y65202D01*
G01X17420Y65227D01*
G01X17441Y65253D01*
G01X17462Y65280D01*
G01X17480Y65309D01*
G01X17497Y65338D01*
G01X17512Y65369D01*
G01X17524Y65400D01*
G01X17536Y65432D01*
G01X17545Y65465D01*
G01X17552Y65498D01*
G01X17557Y65531D01*
G01X17560Y65565D01*
G01X17561Y65599D01*
G01X17560Y65633D01*
G01X17557Y65667D01*
G01X17552Y65700D01*
G01X17545Y65733D01*
G01X17536Y65766D01*
G01X17524Y65798D01*
G01X17512Y65829D01*
G01X17497Y65860D01*
G01X17480Y65889D01*
G01X17462Y65918D01*
G01X17441Y65945D01*
G01X17420Y65971D01*
G01X17397Y65996D01*
G01X17372Y66019D01*
G01X17346Y66041D01*
G01X17318Y66061D01*
G01X17290Y66079D01*
G01X17260Y66096D01*
G01X17230Y66111D01*
G01X17199Y66124D01*
G01X17167Y66135D01*
G01X17134Y66144D01*
G01X17101Y66151D01*
G01X17067Y66156D01*
G01X17034Y66159D01*
G01X17000Y66160D01*
G01X16965Y66159D01*
G01X16930Y66156D01*
G01X16896Y66151D01*
G01X16862Y66143D01*
G01X16828Y66134D01*
G01X16795Y66122D01*
G01X16763Y66108D01*
G01X16732Y66092D01*
G01X16702Y66075D01*
G01X16673Y66055D01*
G01X16645Y66034D01*
G01X16619Y66011D01*
G01X16594Y65987D01*
G01X16582Y65976D01*
G01X16568Y65967D01*
G01X16553Y65961D01*
G01X16537Y65957D01*
G01X16520Y65956D01*
G01X16268Y65956D01*
G01X16254Y65957D01*
G01X16239Y65960D01*
G01X16226Y65965D01*
G01X16213Y65972D01*
G01X16202Y65980D01*
G01X16191Y65991D01*
G01X16183Y66002D01*
G01X16176Y66015D01*
G01X16171Y66029D01*
G01X16168Y66043D01*
G01X16166Y66057D01*
G01X16166Y66132D01*
G01X16165Y66160D01*
G01X16162Y66187D01*
G01X16157Y66213D01*
G01X16150Y66239D01*
G01X16140Y66265D01*
G01X16129Y66289D01*
G01X16116Y66313D01*
G01X16101Y66336D01*
G01X16084Y66357D01*
G01X16065Y66377D01*
G01X15418Y67024D01*
G01X14999Y67444D01*
G01X14979Y67462D01*
G01X14957Y67479D01*
G01X14935Y67494D01*
G01X14911Y67507D01*
G01X14886Y67518D01*
G01X14861Y67528D01*
G01X14835Y67535D01*
G01X14808Y67540D01*
G01X14781Y67544D01*
G01X14754Y67545D01*
G37*
G36*
G01X29033Y64560D02*
G01X29000Y64561D01*
G01X28966Y64560D01*
G01X28932Y64557D01*
G01X28898Y64552D01*
G01X28865Y64544D01*
G01X28833Y64535D01*
G01X28801Y64524D01*
G01X28769Y64511D01*
G01X28739Y64496D01*
G01X28709Y64480D01*
G01X28681Y64461D01*
G01X28653Y64441D01*
G01X28627Y64420D01*
G01X28579Y64372D01*
G01X28558Y64346D01*
G01X28538Y64318D01*
G01X28519Y64290D01*
G01X28503Y64260D01*
G01X28488Y64230D01*
G01X28475Y64198D01*
G01X28464Y64166D01*
G01X28455Y64134D01*
G01X28447Y64101D01*
G01X28442Y64067D01*
G01X28439Y64033D01*
G01X28438Y63999D01*
G01X28439Y63964D01*
G01X28443Y63929D01*
G01X28448Y63894D01*
G01X28456Y63860D01*
G01X28466Y63826D01*
G01X28477Y63793D01*
G01X28491Y63761D01*
G01X28507Y63730D01*
G01X28525Y63699D01*
G01X28545Y63670D01*
G01X28553Y63657D01*
G01X28559Y63642D01*
G01X28563Y63626D01*
G01X28564Y63611D01*
G01X28563Y63595D01*
G01X28559Y63579D01*
G01X28553Y63565D01*
G01X28545Y63551D01*
G01X28534Y63539D01*
G01X28186Y63191D01*
G01X28174Y63180D01*
G01X28160Y63172D01*
G01X28146Y63166D01*
G01X28130Y63162D01*
G01X28115Y63161D01*
G01X28099Y63161D01*
G01X28066Y63160D01*
G01X28032Y63157D01*
G01X27998Y63152D01*
G01X27965Y63145D01*
G01X27932Y63136D01*
G01X27900Y63124D01*
G01X27869Y63111D01*
G01X27839Y63097D01*
G01X27809Y63080D01*
G01X27781Y63062D01*
G01X27753Y63041D01*
G01X27727Y63020D01*
G01X27702Y62997D01*
G01X27679Y62972D01*
G01X27658Y62946D01*
G01X27637Y62918D01*
G01X27619Y62890D01*
G01X27602Y62860D01*
G01X27588Y62830D01*
G01X27575Y62799D01*
G01X27563Y62767D01*
G01X27554Y62734D01*
G01X27547Y62701D01*
G01X27542Y62667D01*
G01X27539Y62633D01*
G01X27538Y62600D01*
G01X27539Y62565D01*
G01X27542Y62530D01*
G01X27548Y62496D01*
G01X27555Y62461D01*
G01X27565Y62428D01*
G01X27577Y62395D01*
G01X27590Y62363D01*
G01X27606Y62332D01*
G01X27624Y62302D01*
G01X27643Y62273D01*
G01X27664Y62245D01*
G01X27687Y62219D01*
G01X27711Y62194D01*
G01X27722Y62182D01*
G01X27731Y62168D01*
G01X27738Y62153D01*
G01X27742Y62137D01*
G01X27743Y62120D01*
G01X27743Y59557D01*
G01X27742Y59543D01*
G01X27739Y59529D01*
G01X27734Y59515D01*
G01X27727Y59502D01*
G01X27718Y59491D01*
G01X27708Y59480D01*
G01X27696Y59472D01*
G01X27667Y59452D01*
G01X27640Y59430D01*
G01X27613Y59407D01*
G01X27589Y59382D01*
G01X27566Y59356D01*
G01X27544Y59328D01*
G01X27525Y59299D01*
G01X27507Y59268D01*
G01X27491Y59237D01*
G01X27477Y59205D01*
G01X27465Y59172D01*
G01X27456Y59138D01*
G01X27448Y59104D01*
G01X27443Y59069D01*
G01X27439Y59034D01*
G01X27438Y58999D01*
G01X27439Y58965D01*
G01X27442Y58932D01*
G01X27447Y58898D01*
G01X27455Y58865D01*
G01X27464Y58832D01*
G01X27475Y58800D01*
G01X27488Y58769D01*
G01X27503Y58739D01*
G01X27519Y58709D01*
G01X27538Y58681D01*
G01X27558Y58653D01*
G01X27579Y58627D01*
G01X27603Y58602D01*
G01X27627Y58579D01*
G01X27653Y58558D01*
G01X27681Y58537D01*
G01X27709Y58519D01*
G01X27739Y58502D01*
G01X27769Y58487D01*
G01X27833Y58463D01*
G01X27865Y58454D01*
G01X27898Y58447D01*
G01X27932Y58442D01*
G01X27966Y58439D01*
G01X28000Y58438D01*
G01X28033Y58439D01*
G01X28067Y58442D01*
G01X28101Y58447D01*
G01X28134Y58454D01*
G01X28167Y58463D01*
G01X28199Y58475D01*
G01X28230Y58487D01*
G01X28260Y58502D01*
G01X28290Y58519D01*
G01X28318Y58537D01*
G01X28346Y58558D01*
G01X28372Y58579D01*
G01X28397Y58602D01*
G01X28420Y58627D01*
G01X28441Y58653D01*
G01X28462Y58681D01*
G01X28480Y58709D01*
G01X28497Y58739D01*
G01X28511Y58769D01*
G01X28524Y58800D01*
G01X28536Y58832D01*
G01X28545Y58865D01*
G01X28552Y58898D01*
G01X28557Y58932D01*
G01X28560Y58965D01*
G01X28561Y58999D01*
G01X28560Y59035D01*
G01X28556Y59070D01*
G01X28551Y59105D01*
G01X28543Y59140D01*
G01X28533Y59174D01*
G01X28521Y59208D01*
G01X28507Y59240D01*
G01X28490Y59272D01*
G01X28472Y59303D01*
G01X28465Y59315D01*
G01X28460Y59329D01*
G01X28457Y59343D01*
G01X28456Y59357D01*
G01X28456Y62120D01*
G01X28457Y62137D01*
G01X28461Y62153D01*
G01X28468Y62168D01*
G01X28476Y62182D01*
G01X28487Y62194D01*
G01X28512Y62219D01*
G01X28535Y62245D01*
G01X28556Y62273D01*
G01X28575Y62302D01*
G01X28593Y62332D01*
G01X28608Y62363D01*
G01X28622Y62395D01*
G01X28634Y62428D01*
G01X28644Y62461D01*
G01X28651Y62496D01*
G01X28656Y62530D01*
G01X28660Y62565D01*
G01X28661Y62600D01*
G01X28661Y62614D01*
G01X28662Y62630D01*
G01X28666Y62646D01*
G01X28672Y62661D01*
G01X28680Y62674D01*
G01X28690Y62686D01*
G01X29252Y63248D01*
G01X29271Y63268D01*
G01X29288Y63290D01*
G01X29303Y63313D01*
G01X29317Y63338D01*
G01X29329Y63363D01*
G01X29339Y63389D01*
G01X29346Y63416D01*
G01X29352Y63444D01*
G01X29355Y63472D01*
G01X29356Y63500D01*
G01X29356Y63520D01*
G01X29357Y63536D01*
G01X29361Y63552D01*
G01X29368Y63567D01*
G01X29377Y63581D01*
G01X29387Y63594D01*
G01X29412Y63618D01*
G01X29435Y63645D01*
G01X29456Y63672D01*
G01X29475Y63701D01*
G01X29493Y63732D01*
G01X29509Y63763D01*
G01X29522Y63795D01*
G01X29534Y63828D01*
G01X29544Y63861D01*
G01X29551Y63895D01*
G01X29557Y63930D01*
G01X29560Y63965D01*
G01X29561Y63999D01*
G01X29560Y64033D01*
G01X29557Y64067D01*
G01X29552Y64101D01*
G01X29545Y64134D01*
G01X29536Y64166D01*
G01X29524Y64198D01*
G01X29511Y64230D01*
G01X29497Y64260D01*
G01X29480Y64290D01*
G01X29462Y64318D01*
G01X29441Y64346D01*
G01X29420Y64372D01*
G01X29397Y64396D01*
G01X29372Y64420D01*
G01X29346Y64441D01*
G01X29318Y64461D01*
G01X29290Y64480D01*
G01X29260Y64496D01*
G01X29230Y64511D01*
G01X29199Y64524D01*
G01X29167Y64535D01*
G01X29134Y64544D01*
G01X29101Y64552D01*
G01X29067Y64557D01*
G01X29033Y64560D01*
G37*
G36*
G01X111033Y72760D02*
G01X110999Y72761D01*
G01X110966Y72760D01*
G01X110932Y72757D01*
G01X110898Y72752D01*
G01X110865Y72745D01*
G01X110832Y72735D01*
G01X110800Y72724D01*
G01X110769Y72711D01*
G01X110739Y72697D01*
G01X110709Y72680D01*
G01X110681Y72661D01*
G01X110653Y72641D01*
G01X110627Y72620D01*
G01X110579Y72572D01*
G01X110558Y72546D01*
G01X110537Y72518D01*
G01X110519Y72490D01*
G01X110502Y72460D01*
G01X110488Y72430D01*
G01X110475Y72399D01*
G01X110464Y72367D01*
G01X110454Y72334D01*
G01X110447Y72301D01*
G01X110442Y72267D01*
G01X110439Y72233D01*
G01X110438Y72200D01*
G01X110439Y72165D01*
G01X110442Y72130D01*
G01X110448Y72095D01*
G01X110455Y72061D01*
G01X110465Y72028D01*
G01X110477Y71995D01*
G01X110490Y71963D01*
G01X110506Y71932D01*
G01X110524Y71902D01*
G01X110543Y71873D01*
G01X110564Y71845D01*
G01X110587Y71819D01*
G01X110612Y71794D01*
G01X110622Y71782D01*
G01X110631Y71768D01*
G01X110638Y71753D01*
G01X110642Y71737D01*
G01X110643Y71720D01*
G01X110643Y69289D01*
G01X110642Y69273D01*
G01X110638Y69258D01*
G01X110632Y69243D01*
G01X110623Y69229D01*
G01X110613Y69217D01*
G01X110386Y68990D01*
G01X110374Y68980D01*
G01X110361Y68972D01*
G01X110346Y68966D01*
G01X110330Y68962D01*
G01X110315Y68961D01*
G01X110300Y68961D01*
G01X110266Y68960D01*
G01X110232Y68957D01*
G01X110198Y68952D01*
G01X110165Y68944D01*
G01X110133Y68935D01*
G01X110101Y68924D01*
G01X110069Y68911D01*
G01X110039Y68896D01*
G01X110009Y68880D01*
G01X109981Y68861D01*
G01X109953Y68841D01*
G01X109927Y68820D01*
G01X109879Y68772D01*
G01X109858Y68746D01*
G01X109838Y68718D01*
G01X109819Y68690D01*
G01X109803Y68660D01*
G01X109788Y68630D01*
G01X109775Y68598D01*
G01X109764Y68566D01*
G01X109755Y68534D01*
G01X109748Y68501D01*
G01X109742Y68467D01*
G01X109739Y68433D01*
G01X109738Y68399D01*
G01X109739Y68366D01*
G01X109742Y68332D01*
G01X109748Y68298D01*
G01X109755Y68265D01*
G01X109764Y68232D01*
G01X109775Y68200D01*
G01X109788Y68169D01*
G01X109803Y68139D01*
G01X109819Y68109D01*
G01X109838Y68081D01*
G01X109858Y68053D01*
G01X109879Y68027D01*
G01X109903Y68002D01*
G01X109927Y67979D01*
G01X109953Y67958D01*
G01X109981Y67937D01*
G01X110009Y67919D01*
G01X110039Y67902D01*
G01X110069Y67888D01*
G01X110101Y67875D01*
G01X110133Y67863D01*
G01X110165Y67854D01*
G01X110198Y67847D01*
G01X110232Y67842D01*
G01X110266Y67839D01*
G01X110300Y67838D01*
G01X110334Y67839D01*
G01X110367Y67842D01*
G01X110401Y67847D01*
G01X110434Y67854D01*
G01X110467Y67863D01*
G01X110499Y67875D01*
G01X110530Y67888D01*
G01X110561Y67902D01*
G01X110590Y67919D01*
G01X110619Y67937D01*
G01X110646Y67958D01*
G01X110672Y67979D01*
G01X110697Y68002D01*
G01X110720Y68027D01*
G01X110742Y68053D01*
G01X110762Y68081D01*
G01X110780Y68109D01*
G01X110797Y68139D01*
G01X110812Y68169D01*
G01X110825Y68200D01*
G01X110836Y68232D01*
G01X110845Y68265D01*
G01X110852Y68298D01*
G01X110857Y68332D01*
G01X110860Y68366D01*
G01X110861Y68399D01*
G01X110861Y68414D01*
G01X110862Y68430D01*
G01X110866Y68446D01*
G01X110872Y68460D01*
G01X110880Y68474D01*
G01X110891Y68486D01*
G01X111252Y68847D01*
G01X111271Y68868D01*
G01X111288Y68890D01*
G01X111303Y68913D01*
G01X111317Y68937D01*
G01X111329Y68963D01*
G01X111339Y68989D01*
G01X111346Y69016D01*
G01X111352Y69043D01*
G01X111355Y69071D01*
G01X111356Y69099D01*
G01X111356Y71720D01*
G01X111357Y71737D01*
G01X111361Y71753D01*
G01X111368Y71768D01*
G01X111376Y71782D01*
G01X111387Y71794D01*
G01X111412Y71819D01*
G01X111435Y71845D01*
G01X111456Y71873D01*
G01X111475Y71902D01*
G01X111493Y71932D01*
G01X111508Y71963D01*
G01X111522Y71995D01*
G01X111534Y72028D01*
G01X111544Y72061D01*
G01X111551Y72095D01*
G01X111556Y72130D01*
G01X111560Y72165D01*
G01X111561Y72200D01*
G01X111560Y72233D01*
G01X111557Y72267D01*
G01X111552Y72301D01*
G01X111544Y72334D01*
G01X111535Y72367D01*
G01X111524Y72399D01*
G01X111511Y72430D01*
G01X111496Y72460D01*
G01X111480Y72490D01*
G01X111461Y72518D01*
G01X111441Y72546D01*
G01X111420Y72572D01*
G01X111372Y72620D01*
G01X111346Y72641D01*
G01X111318Y72661D01*
G01X111290Y72680D01*
G01X111260Y72697D01*
G01X111230Y72711D01*
G01X111198Y72724D01*
G01X111166Y72735D01*
G01X111134Y72745D01*
G01X111101Y72752D01*
G01X111067Y72757D01*
G01X111033Y72760D01*
G37*
G36*
G01X20034Y69060D02*
G01X20000Y69061D01*
G01X19966Y69060D01*
G01X19932Y69057D01*
G01X19898Y69052D01*
G01X19865Y69045D01*
G01X19833Y69035D01*
G01X19801Y69024D01*
G01X19769Y69011D01*
G01X19739Y68997D01*
G01X19709Y68980D01*
G01X19681Y68961D01*
G01X19653Y68941D01*
G01X19627Y68920D01*
G01X19579Y68872D01*
G01X19558Y68846D01*
G01X19538Y68818D01*
G01X19519Y68790D01*
G01X19503Y68760D01*
G01X19488Y68730D01*
G01X19475Y68699D01*
G01X19464Y68666D01*
G01X19455Y68634D01*
G01X19447Y68601D01*
G01X19442Y68567D01*
G01X19439Y68533D01*
G01X19438Y68499D01*
G01X19439Y68466D01*
G01X19442Y68432D01*
G01X19447Y68398D01*
G01X19455Y68365D01*
G01X19464Y68332D01*
G01X19475Y68300D01*
G01X19488Y68269D01*
G01X19503Y68239D01*
G01X19519Y68209D01*
G01X19538Y68181D01*
G01X19558Y68153D01*
G01X19579Y68127D01*
G01X19627Y68079D01*
G01X19653Y68058D01*
G01X19681Y68038D01*
G01X19709Y68019D01*
G01X19739Y68002D01*
G01X19769Y67988D01*
G01X19801Y67975D01*
G01X19833Y67964D01*
G01X19865Y67954D01*
G01X19898Y67947D01*
G01X19932Y67942D01*
G01X19966Y67939D01*
G01X20000Y67938D01*
G01X20034Y67939D01*
G01X20069Y67942D01*
G01X20104Y67948D01*
G01X20138Y67955D01*
G01X20171Y67965D01*
G01X20204Y67977D01*
G01X20236Y67990D01*
G01X20267Y68006D01*
G01X20297Y68024D01*
G01X20326Y68043D01*
G01X20354Y68064D01*
G01X20380Y68087D01*
G01X20405Y68112D01*
G01X20418Y68122D01*
G01X20431Y68131D01*
G01X20447Y68138D01*
G01X20462Y68142D01*
G01X20479Y68143D01*
G01X25020Y68143D01*
G01X25037Y68142D01*
G01X25053Y68138D01*
G01X25068Y68131D01*
G01X25081Y68122D01*
G01X25094Y68112D01*
G01X25119Y68087D01*
G01X25145Y68064D01*
G01X25173Y68043D01*
G01X25202Y68024D01*
G01X25232Y68006D01*
G01X25263Y67990D01*
G01X25295Y67977D01*
G01X25328Y67965D01*
G01X25361Y67955D01*
G01X25395Y67948D01*
G01X25430Y67942D01*
G01X25465Y67939D01*
G01X25499Y67938D01*
G01X25533Y67939D01*
G01X25567Y67942D01*
G01X25601Y67947D01*
G01X25634Y67954D01*
G01X25666Y67964D01*
G01X25699Y67975D01*
G01X25730Y67988D01*
G01X25760Y68002D01*
G01X25790Y68019D01*
G01X25818Y68038D01*
G01X25846Y68058D01*
G01X25872Y68079D01*
G01X25920Y68127D01*
G01X25941Y68153D01*
G01X25961Y68181D01*
G01X25980Y68209D01*
G01X25997Y68239D01*
G01X26011Y68269D01*
G01X26024Y68300D01*
G01X26035Y68332D01*
G01X26045Y68365D01*
G01X26052Y68398D01*
G01X26057Y68432D01*
G01X26060Y68466D01*
G01X26061Y68499D01*
G01X26060Y68533D01*
G01X26057Y68567D01*
G01X26052Y68601D01*
G01X26045Y68634D01*
G01X26035Y68666D01*
G01X26024Y68699D01*
G01X26011Y68730D01*
G01X25997Y68760D01*
G01X25980Y68790D01*
G01X25961Y68818D01*
G01X25941Y68846D01*
G01X25920Y68872D01*
G01X25872Y68920D01*
G01X25846Y68941D01*
G01X25818Y68961D01*
G01X25790Y68980D01*
G01X25760Y68997D01*
G01X25730Y69011D01*
G01X25699Y69024D01*
G01X25666Y69035D01*
G01X25634Y69045D01*
G01X25601Y69052D01*
G01X25567Y69057D01*
G01X25533Y69060D01*
G01X25499Y69061D01*
G01X25465Y69060D01*
G01X25430Y69057D01*
G01X25395Y69051D01*
G01X25361Y69044D01*
G01X25328Y69034D01*
G01X25295Y69022D01*
G01X25263Y69009D01*
G01X25232Y68993D01*
G01X25202Y68975D01*
G01X25173Y68956D01*
G01X25145Y68935D01*
G01X25119Y68912D01*
G01X25094Y68887D01*
G01X25081Y68877D01*
G01X25068Y68868D01*
G01X25053Y68861D01*
G01X25037Y68857D01*
G01X25020Y68856D01*
G01X20479Y68856D01*
G01X20462Y68857D01*
G01X20447Y68861D01*
G01X20431Y68868D01*
G01X20418Y68877D01*
G01X20405Y68887D01*
G01X20380Y68912D01*
G01X20354Y68935D01*
G01X20326Y68956D01*
G01X20297Y68975D01*
G01X20267Y68993D01*
G01X20236Y69009D01*
G01X20204Y69022D01*
G01X20171Y69034D01*
G01X20138Y69044D01*
G01X20104Y69051D01*
G01X20069Y69057D01*
G01X20034Y69060D01*
G37*
G36*
G01X55936Y68172D02*
G01X55890Y68173D01*
G01X55843Y68172D01*
G01X55796Y68169D01*
G01X55749Y68164D01*
G01X55703Y68157D01*
G01X55657Y68147D01*
G01X55612Y68136D01*
G01X55567Y68122D01*
G01X55523Y68107D01*
G01X55479Y68089D01*
G01X55437Y68070D01*
G01X55395Y68049D01*
G01X55354Y68026D01*
G01X55314Y68001D01*
G01X55276Y67974D01*
G01X55239Y67946D01*
G01X55203Y67916D01*
G01X55168Y67884D01*
G01X55135Y67851D01*
G01X55103Y67816D01*
G01X55073Y67780D01*
G01X55045Y67743D01*
G01X55018Y67705D01*
G01X54993Y67665D01*
G01X54970Y67624D01*
G01X54949Y67582D01*
G01X54930Y67540D01*
G01X54912Y67496D01*
G01X54897Y67452D01*
G01X54883Y67407D01*
G01X54872Y67362D01*
G01X54862Y67316D01*
G01X54855Y67270D01*
G01X54850Y67223D01*
G01X54847Y67176D01*
G01X54846Y67130D01*
G01X54847Y67083D01*
G01X54850Y67036D01*
G01X54855Y66989D01*
G01X54862Y66943D01*
G01X54872Y66897D01*
G01X54883Y66852D01*
G01X54897Y66807D01*
G01X54912Y66763D01*
G01X54930Y66719D01*
G01X54949Y66677D01*
G01X54970Y66635D01*
G01X54993Y66594D01*
G01X55018Y66554D01*
G01X55045Y66516D01*
G01X55073Y66479D01*
G01X55103Y66443D01*
G01X55135Y66408D01*
G01X55168Y66375D01*
G01X55203Y66343D01*
G01X55239Y66313D01*
G01X55276Y66285D01*
G01X55314Y66258D01*
G01X55354Y66233D01*
G01X55395Y66210D01*
G01X55437Y66189D01*
G01X55479Y66170D01*
G01X55523Y66152D01*
G01X55567Y66137D01*
G01X55612Y66123D01*
G01X55657Y66112D01*
G01X55703Y66102D01*
G01X55749Y66095D01*
G01X55796Y66090D01*
G01X55843Y66087D01*
G01X55890Y66086D01*
G01X55936Y66087D01*
G01X55983Y66090D01*
G01X56030Y66095D01*
G01X56076Y66102D01*
G01X56122Y66112D01*
G01X56167Y66123D01*
G01X56212Y66137D01*
G01X56256Y66152D01*
G01X56300Y66170D01*
G01X56342Y66189D01*
G01X56384Y66210D01*
G01X56425Y66233D01*
G01X56465Y66258D01*
G01X56503Y66285D01*
G01X56540Y66313D01*
G01X56576Y66343D01*
G01X56611Y66375D01*
G01X56644Y66408D01*
G01X56676Y66443D01*
G01X56706Y66479D01*
G01X56734Y66516D01*
G01X56761Y66554D01*
G01X56786Y66594D01*
G01X56809Y66635D01*
G01X56830Y66677D01*
G01X56849Y66719D01*
G01X56867Y66763D01*
G01X56882Y66807D01*
G01X56896Y66852D01*
G01X56907Y66897D01*
G01X56917Y66943D01*
G01X56924Y66989D01*
G01X56929Y67036D01*
G01X56932Y67083D01*
G01X56933Y67130D01*
G01X56932Y67176D01*
G01X56929Y67223D01*
G01X56924Y67270D01*
G01X56917Y67316D01*
G01X56907Y67362D01*
G01X56896Y67407D01*
G01X56882Y67452D01*
G01X56867Y67496D01*
G01X56849Y67540D01*
G01X56830Y67582D01*
G01X56809Y67624D01*
G01X56786Y67665D01*
G01X56761Y67705D01*
G01X56734Y67743D01*
G01X56706Y67780D01*
G01X56676Y67816D01*
G01X56644Y67851D01*
G01X56611Y67884D01*
G01X56576Y67916D01*
G01X56540Y67946D01*
G01X56503Y67974D01*
G01X56465Y68001D01*
G01X56425Y68026D01*
G01X56384Y68049D01*
G01X56342Y68070D01*
G01X56300Y68089D01*
G01X56256Y68107D01*
G01X56212Y68122D01*
G01X56167Y68136D01*
G01X56122Y68147D01*
G01X56076Y68157D01*
G01X56030Y68164D01*
G01X55983Y68169D01*
G01X55936Y68172D01*
G37*
G36*
G01X64297Y68173D02*
G01X62722Y68173D01*
G01X62698Y68172D01*
G01X62675Y68169D01*
G01X62652Y68164D01*
G01X62629Y68156D01*
G01X62608Y68147D01*
G01X62587Y68135D01*
G01X62568Y68122D01*
G01X62549Y68107D01*
G01X62533Y68090D01*
G01X62517Y68072D01*
G01X62504Y68052D01*
G01X62492Y68031D01*
G01X62483Y68010D01*
G01X62475Y67987D01*
G01X62470Y67964D01*
G01X62467Y67941D01*
G01X62466Y67917D01*
G01X62466Y66342D01*
G01X62467Y66318D01*
G01X62470Y66295D01*
G01X62475Y66272D01*
G01X62483Y66249D01*
G01X62492Y66228D01*
G01X62504Y66207D01*
G01X62517Y66188D01*
G01X62533Y66169D01*
G01X62549Y66153D01*
G01X62568Y66137D01*
G01X62587Y66124D01*
G01X62608Y66112D01*
G01X62629Y66103D01*
G01X62652Y66095D01*
G01X62675Y66090D01*
G01X62698Y66087D01*
G01X62722Y66086D01*
G01X64297Y66086D01*
G01X64321Y66087D01*
G01X64344Y66090D01*
G01X64367Y66095D01*
G01X64390Y66103D01*
G01X64411Y66112D01*
G01X64432Y66124D01*
G01X64452Y66137D01*
G01X64470Y66153D01*
G01X64486Y66169D01*
G01X64502Y66188D01*
G01X64515Y66207D01*
G01X64527Y66228D01*
G01X64536Y66249D01*
G01X64544Y66272D01*
G01X64549Y66295D01*
G01X64552Y66318D01*
G01X64553Y66342D01*
G01X64553Y67917D01*
G01X64552Y67941D01*
G01X64549Y67964D01*
G01X64544Y67987D01*
G01X64536Y68010D01*
G01X64527Y68031D01*
G01X64515Y68052D01*
G01X64502Y68072D01*
G01X64486Y68090D01*
G01X64470Y68107D01*
G01X64452Y68122D01*
G01X64432Y68135D01*
G01X64411Y68147D01*
G01X64390Y68156D01*
G01X64367Y68164D01*
G01X64344Y68169D01*
G01X64321Y68172D01*
G01X64297Y68173D01*
G37*
G36*
G01X55936Y70712D02*
G01X55890Y70713D01*
G01X55843Y70712D01*
G01X55796Y70709D01*
G01X55749Y70704D01*
G01X55703Y70697D01*
G01X55657Y70687D01*
G01X55612Y70676D01*
G01X55567Y70662D01*
G01X55523Y70647D01*
G01X55479Y70629D01*
G01X55437Y70610D01*
G01X55395Y70589D01*
G01X55354Y70566D01*
G01X55314Y70541D01*
G01X55276Y70514D01*
G01X55239Y70486D01*
G01X55203Y70456D01*
G01X55168Y70424D01*
G01X55135Y70391D01*
G01X55103Y70356D01*
G01X55073Y70320D01*
G01X55045Y70283D01*
G01X55018Y70245D01*
G01X54993Y70205D01*
G01X54970Y70164D01*
G01X54949Y70122D01*
G01X54930Y70080D01*
G01X54912Y70036D01*
G01X54897Y69992D01*
G01X54883Y69947D01*
G01X54872Y69902D01*
G01X54862Y69856D01*
G01X54855Y69810D01*
G01X54850Y69763D01*
G01X54847Y69716D01*
G01X54846Y69670D01*
G01X54847Y69623D01*
G01X54850Y69576D01*
G01X54855Y69529D01*
G01X54862Y69483D01*
G01X54872Y69437D01*
G01X54883Y69392D01*
G01X54897Y69347D01*
G01X54912Y69303D01*
G01X54930Y69259D01*
G01X54949Y69217D01*
G01X54970Y69175D01*
G01X54993Y69134D01*
G01X55018Y69094D01*
G01X55045Y69056D01*
G01X55073Y69019D01*
G01X55103Y68983D01*
G01X55135Y68948D01*
G01X55168Y68915D01*
G01X55203Y68883D01*
G01X55239Y68853D01*
G01X55276Y68825D01*
G01X55314Y68798D01*
G01X55354Y68773D01*
G01X55395Y68750D01*
G01X55437Y68729D01*
G01X55479Y68710D01*
G01X55523Y68692D01*
G01X55567Y68677D01*
G01X55612Y68663D01*
G01X55657Y68652D01*
G01X55703Y68642D01*
G01X55749Y68635D01*
G01X55796Y68630D01*
G01X55843Y68627D01*
G01X55890Y68626D01*
G01X55936Y68627D01*
G01X55983Y68630D01*
G01X56030Y68635D01*
G01X56076Y68642D01*
G01X56122Y68652D01*
G01X56167Y68663D01*
G01X56212Y68677D01*
G01X56256Y68692D01*
G01X56300Y68710D01*
G01X56342Y68729D01*
G01X56384Y68750D01*
G01X56425Y68773D01*
G01X56465Y68798D01*
G01X56503Y68825D01*
G01X56540Y68853D01*
G01X56576Y68883D01*
G01X56611Y68915D01*
G01X56644Y68948D01*
G01X56676Y68983D01*
G01X56706Y69019D01*
G01X56734Y69056D01*
G01X56761Y69094D01*
G01X56786Y69134D01*
G01X56809Y69175D01*
G01X56830Y69217D01*
G01X56849Y69259D01*
G01X56867Y69303D01*
G01X56882Y69347D01*
G01X56896Y69392D01*
G01X56907Y69437D01*
G01X56917Y69483D01*
G01X56924Y69529D01*
G01X56929Y69576D01*
G01X56932Y69623D01*
G01X56933Y69670D01*
G01X56932Y69716D01*
G01X56929Y69763D01*
G01X56924Y69810D01*
G01X56917Y69856D01*
G01X56907Y69902D01*
G01X56896Y69947D01*
G01X56882Y69992D01*
G01X56867Y70036D01*
G01X56849Y70080D01*
G01X56830Y70122D01*
G01X56809Y70164D01*
G01X56786Y70205D01*
G01X56761Y70245D01*
G01X56734Y70283D01*
G01X56706Y70320D01*
G01X56676Y70356D01*
G01X56644Y70391D01*
G01X56611Y70424D01*
G01X56576Y70456D01*
G01X56540Y70486D01*
G01X56503Y70514D01*
G01X56465Y70541D01*
G01X56425Y70566D01*
G01X56384Y70589D01*
G01X56342Y70610D01*
G01X56300Y70629D01*
G01X56256Y70647D01*
G01X56212Y70662D01*
G01X56167Y70676D01*
G01X56122Y70687D01*
G01X56076Y70697D01*
G01X56030Y70704D01*
G01X55983Y70709D01*
G01X55936Y70712D01*
G37*
G36*
G01X61016Y70712D02*
G01X60970Y70713D01*
G01X60923Y70712D01*
G01X60876Y70709D01*
G01X60829Y70704D01*
G01X60783Y70697D01*
G01X60737Y70687D01*
G01X60692Y70676D01*
G01X60647Y70662D01*
G01X60603Y70647D01*
G01X60559Y70629D01*
G01X60517Y70610D01*
G01X60475Y70589D01*
G01X60434Y70566D01*
G01X60394Y70541D01*
G01X60356Y70514D01*
G01X60319Y70486D01*
G01X60283Y70456D01*
G01X60248Y70424D01*
G01X60215Y70391D01*
G01X60183Y70356D01*
G01X60153Y70320D01*
G01X60125Y70283D01*
G01X60098Y70245D01*
G01X60073Y70205D01*
G01X60050Y70164D01*
G01X60029Y70122D01*
G01X60010Y70080D01*
G01X59992Y70036D01*
G01X59977Y69992D01*
G01X59963Y69947D01*
G01X59952Y69902D01*
G01X59942Y69856D01*
G01X59935Y69810D01*
G01X59930Y69763D01*
G01X59927Y69716D01*
G01X59926Y69670D01*
G01X59927Y69623D01*
G01X59930Y69576D01*
G01X59935Y69529D01*
G01X59942Y69483D01*
G01X59952Y69437D01*
G01X59963Y69392D01*
G01X59977Y69347D01*
G01X59992Y69303D01*
G01X60010Y69259D01*
G01X60029Y69217D01*
G01X60050Y69175D01*
G01X60073Y69134D01*
G01X60098Y69094D01*
G01X60125Y69056D01*
G01X60153Y69019D01*
G01X60183Y68983D01*
G01X60215Y68948D01*
G01X60248Y68915D01*
G01X60283Y68883D01*
G01X60319Y68853D01*
G01X60356Y68825D01*
G01X60394Y68798D01*
G01X60434Y68773D01*
G01X60475Y68750D01*
G01X60517Y68729D01*
G01X60559Y68710D01*
G01X60603Y68692D01*
G01X60647Y68677D01*
G01X60692Y68663D01*
G01X60737Y68652D01*
G01X60783Y68642D01*
G01X60829Y68635D01*
G01X60876Y68630D01*
G01X60923Y68627D01*
G01X60970Y68626D01*
G01X61016Y68627D01*
G01X61063Y68630D01*
G01X61110Y68635D01*
G01X61156Y68642D01*
G01X61202Y68652D01*
G01X61247Y68663D01*
G01X61292Y68677D01*
G01X61336Y68692D01*
G01X61380Y68710D01*
G01X61422Y68729D01*
G01X61464Y68750D01*
G01X61505Y68773D01*
G01X61545Y68798D01*
G01X61583Y68825D01*
G01X61620Y68853D01*
G01X61656Y68883D01*
G01X61691Y68915D01*
G01X61724Y68948D01*
G01X61756Y68983D01*
G01X61786Y69019D01*
G01X61814Y69056D01*
G01X61841Y69094D01*
G01X61866Y69134D01*
G01X61889Y69175D01*
G01X61910Y69217D01*
G01X61929Y69259D01*
G01X61947Y69303D01*
G01X61962Y69347D01*
G01X61976Y69392D01*
G01X61987Y69437D01*
G01X61997Y69483D01*
G01X62004Y69529D01*
G01X62009Y69576D01*
G01X62012Y69623D01*
G01X62013Y69670D01*
G01X62012Y69716D01*
G01X62009Y69763D01*
G01X62004Y69810D01*
G01X61997Y69856D01*
G01X61987Y69902D01*
G01X61976Y69947D01*
G01X61962Y69992D01*
G01X61947Y70036D01*
G01X61929Y70080D01*
G01X61910Y70122D01*
G01X61889Y70164D01*
G01X61866Y70205D01*
G01X61841Y70245D01*
G01X61814Y70283D01*
G01X61786Y70320D01*
G01X61756Y70356D01*
G01X61724Y70391D01*
G01X61691Y70424D01*
G01X61656Y70456D01*
G01X61620Y70486D01*
G01X61583Y70514D01*
G01X61545Y70541D01*
G01X61505Y70566D01*
G01X61464Y70589D01*
G01X61422Y70610D01*
G01X61380Y70629D01*
G01X61336Y70647D01*
G01X61292Y70662D01*
G01X61247Y70676D01*
G01X61202Y70687D01*
G01X61156Y70697D01*
G01X61110Y70704D01*
G01X61063Y70709D01*
G01X61016Y70712D01*
G37*
G36*
G01X61016Y68172D02*
G01X60970Y68173D01*
G01X60923Y68172D01*
G01X60876Y68169D01*
G01X60829Y68164D01*
G01X60783Y68157D01*
G01X60737Y68147D01*
G01X60692Y68136D01*
G01X60647Y68122D01*
G01X60603Y68107D01*
G01X60559Y68089D01*
G01X60517Y68070D01*
G01X60475Y68049D01*
G01X60434Y68026D01*
G01X60394Y68001D01*
G01X60356Y67974D01*
G01X60319Y67946D01*
G01X60283Y67916D01*
G01X60248Y67884D01*
G01X60215Y67851D01*
G01X60183Y67816D01*
G01X60153Y67780D01*
G01X60125Y67743D01*
G01X60098Y67705D01*
G01X60073Y67665D01*
G01X60050Y67624D01*
G01X60029Y67582D01*
G01X60010Y67540D01*
G01X59992Y67496D01*
G01X59977Y67452D01*
G01X59963Y67407D01*
G01X59952Y67362D01*
G01X59942Y67316D01*
G01X59935Y67270D01*
G01X59930Y67223D01*
G01X59927Y67176D01*
G01X59926Y67130D01*
G01X59927Y67083D01*
G01X59930Y67036D01*
G01X59935Y66989D01*
G01X59942Y66943D01*
G01X59952Y66897D01*
G01X59963Y66852D01*
G01X59977Y66807D01*
G01X59992Y66763D01*
G01X60010Y66719D01*
G01X60029Y66677D01*
G01X60050Y66635D01*
G01X60073Y66594D01*
G01X60098Y66554D01*
G01X60125Y66516D01*
G01X60153Y66479D01*
G01X60183Y66443D01*
G01X60215Y66408D01*
G01X60248Y66375D01*
G01X60283Y66343D01*
G01X60319Y66313D01*
G01X60356Y66285D01*
G01X60394Y66258D01*
G01X60434Y66233D01*
G01X60475Y66210D01*
G01X60517Y66189D01*
G01X60559Y66170D01*
G01X60603Y66152D01*
G01X60647Y66137D01*
G01X60692Y66123D01*
G01X60737Y66112D01*
G01X60783Y66102D01*
G01X60829Y66095D01*
G01X60876Y66090D01*
G01X60923Y66087D01*
G01X60970Y66086D01*
G01X61016Y66087D01*
G01X61063Y66090D01*
G01X61110Y66095D01*
G01X61156Y66102D01*
G01X61202Y66112D01*
G01X61247Y66123D01*
G01X61292Y66137D01*
G01X61336Y66152D01*
G01X61380Y66170D01*
G01X61422Y66189D01*
G01X61464Y66210D01*
G01X61505Y66233D01*
G01X61545Y66258D01*
G01X61583Y66285D01*
G01X61620Y66313D01*
G01X61656Y66343D01*
G01X61691Y66375D01*
G01X61724Y66408D01*
G01X61756Y66443D01*
G01X61786Y66479D01*
G01X61814Y66516D01*
G01X61841Y66554D01*
G01X61866Y66594D01*
G01X61889Y66635D01*
G01X61910Y66677D01*
G01X61929Y66719D01*
G01X61947Y66763D01*
G01X61962Y66807D01*
G01X61976Y66852D01*
G01X61987Y66897D01*
G01X61997Y66943D01*
G01X62004Y66989D01*
G01X62009Y67036D01*
G01X62012Y67083D01*
G01X62013Y67130D01*
G01X62012Y67176D01*
G01X62009Y67223D01*
G01X62004Y67270D01*
G01X61997Y67316D01*
G01X61987Y67362D01*
G01X61976Y67407D01*
G01X61962Y67452D01*
G01X61947Y67496D01*
G01X61929Y67540D01*
G01X61910Y67582D01*
G01X61889Y67624D01*
G01X61866Y67665D01*
G01X61841Y67705D01*
G01X61814Y67743D01*
G01X61786Y67780D01*
G01X61756Y67816D01*
G01X61724Y67851D01*
G01X61691Y67884D01*
G01X61656Y67916D01*
G01X61620Y67946D01*
G01X61583Y67974D01*
G01X61545Y68001D01*
G01X61505Y68026D01*
G01X61464Y68049D01*
G01X61422Y68070D01*
G01X61380Y68089D01*
G01X61336Y68107D01*
G01X61292Y68122D01*
G01X61247Y68136D01*
G01X61202Y68147D01*
G01X61156Y68157D01*
G01X61110Y68164D01*
G01X61063Y68169D01*
G01X61016Y68172D01*
G37*
G36*
G01X58476Y70712D02*
G01X58430Y70713D01*
G01X58383Y70712D01*
G01X58336Y70709D01*
G01X58289Y70704D01*
G01X58243Y70697D01*
G01X58197Y70687D01*
G01X58152Y70676D01*
G01X58107Y70662D01*
G01X58063Y70647D01*
G01X58019Y70629D01*
G01X57977Y70610D01*
G01X57935Y70589D01*
G01X57894Y70566D01*
G01X57854Y70541D01*
G01X57816Y70514D01*
G01X57779Y70486D01*
G01X57743Y70456D01*
G01X57708Y70424D01*
G01X57675Y70391D01*
G01X57643Y70356D01*
G01X57613Y70320D01*
G01X57585Y70283D01*
G01X57558Y70245D01*
G01X57533Y70205D01*
G01X57510Y70164D01*
G01X57489Y70122D01*
G01X57470Y70080D01*
G01X57452Y70036D01*
G01X57437Y69992D01*
G01X57423Y69947D01*
G01X57412Y69902D01*
G01X57402Y69856D01*
G01X57395Y69810D01*
G01X57390Y69763D01*
G01X57387Y69716D01*
G01X57386Y69670D01*
G01X57387Y69623D01*
G01X57390Y69576D01*
G01X57395Y69529D01*
G01X57402Y69483D01*
G01X57412Y69437D01*
G01X57423Y69392D01*
G01X57437Y69347D01*
G01X57452Y69303D01*
G01X57470Y69259D01*
G01X57489Y69217D01*
G01X57510Y69175D01*
G01X57533Y69134D01*
G01X57558Y69094D01*
G01X57585Y69056D01*
G01X57613Y69019D01*
G01X57643Y68983D01*
G01X57675Y68948D01*
G01X57708Y68915D01*
G01X57743Y68883D01*
G01X57779Y68853D01*
G01X57816Y68825D01*
G01X57854Y68798D01*
G01X57894Y68773D01*
G01X57935Y68750D01*
G01X57977Y68729D01*
G01X58019Y68710D01*
G01X58063Y68692D01*
G01X58107Y68677D01*
G01X58152Y68663D01*
G01X58197Y68652D01*
G01X58243Y68642D01*
G01X58289Y68635D01*
G01X58336Y68630D01*
G01X58383Y68627D01*
G01X58430Y68626D01*
G01X58476Y68627D01*
G01X58523Y68630D01*
G01X58570Y68635D01*
G01X58616Y68642D01*
G01X58662Y68652D01*
G01X58707Y68663D01*
G01X58752Y68677D01*
G01X58796Y68692D01*
G01X58840Y68710D01*
G01X58882Y68729D01*
G01X58924Y68750D01*
G01X58965Y68773D01*
G01X59005Y68798D01*
G01X59043Y68825D01*
G01X59080Y68853D01*
G01X59116Y68883D01*
G01X59151Y68915D01*
G01X59184Y68948D01*
G01X59216Y68983D01*
G01X59246Y69019D01*
G01X59274Y69056D01*
G01X59301Y69094D01*
G01X59326Y69134D01*
G01X59349Y69175D01*
G01X59370Y69217D01*
G01X59389Y69259D01*
G01X59407Y69303D01*
G01X59422Y69347D01*
G01X59436Y69392D01*
G01X59447Y69437D01*
G01X59457Y69483D01*
G01X59464Y69529D01*
G01X59469Y69576D01*
G01X59472Y69623D01*
G01X59473Y69670D01*
G01X59472Y69716D01*
G01X59469Y69763D01*
G01X59464Y69810D01*
G01X59457Y69856D01*
G01X59447Y69902D01*
G01X59436Y69947D01*
G01X59422Y69992D01*
G01X59407Y70036D01*
G01X59389Y70080D01*
G01X59370Y70122D01*
G01X59349Y70164D01*
G01X59326Y70205D01*
G01X59301Y70245D01*
G01X59274Y70283D01*
G01X59246Y70320D01*
G01X59216Y70356D01*
G01X59184Y70391D01*
G01X59151Y70424D01*
G01X59116Y70456D01*
G01X59080Y70486D01*
G01X59043Y70514D01*
G01X59005Y70541D01*
G01X58965Y70566D01*
G01X58924Y70589D01*
G01X58882Y70610D01*
G01X58840Y70629D01*
G01X58796Y70647D01*
G01X58752Y70662D01*
G01X58707Y70676D01*
G01X58662Y70687D01*
G01X58616Y70697D01*
G01X58570Y70704D01*
G01X58523Y70709D01*
G01X58476Y70712D01*
G37*
G36*
G01X58476Y68172D02*
G01X58430Y68173D01*
G01X58383Y68172D01*
G01X58336Y68169D01*
G01X58289Y68164D01*
G01X58243Y68157D01*
G01X58197Y68147D01*
G01X58152Y68136D01*
G01X58107Y68122D01*
G01X58063Y68107D01*
G01X58019Y68089D01*
G01X57977Y68070D01*
G01X57935Y68049D01*
G01X57894Y68026D01*
G01X57854Y68001D01*
G01X57816Y67974D01*
G01X57779Y67946D01*
G01X57743Y67916D01*
G01X57708Y67884D01*
G01X57675Y67851D01*
G01X57643Y67816D01*
G01X57613Y67780D01*
G01X57585Y67743D01*
G01X57558Y67705D01*
G01X57533Y67665D01*
G01X57510Y67624D01*
G01X57489Y67582D01*
G01X57470Y67540D01*
G01X57452Y67496D01*
G01X57437Y67452D01*
G01X57423Y67407D01*
G01X57412Y67362D01*
G01X57402Y67316D01*
G01X57395Y67270D01*
G01X57390Y67223D01*
G01X57387Y67176D01*
G01X57386Y67130D01*
G01X57387Y67083D01*
G01X57390Y67036D01*
G01X57395Y66989D01*
G01X57402Y66943D01*
G01X57412Y66897D01*
G01X57423Y66852D01*
G01X57437Y66807D01*
G01X57452Y66763D01*
G01X57470Y66719D01*
G01X57489Y66677D01*
G01X57510Y66635D01*
G01X57533Y66594D01*
G01X57558Y66554D01*
G01X57585Y66516D01*
G01X57613Y66479D01*
G01X57643Y66443D01*
G01X57675Y66408D01*
G01X57708Y66375D01*
G01X57743Y66343D01*
G01X57779Y66313D01*
G01X57816Y66285D01*
G01X57854Y66258D01*
G01X57894Y66233D01*
G01X57935Y66210D01*
G01X57977Y66189D01*
G01X58019Y66170D01*
G01X58063Y66152D01*
G01X58107Y66137D01*
G01X58152Y66123D01*
G01X58197Y66112D01*
G01X58243Y66102D01*
G01X58289Y66095D01*
G01X58336Y66090D01*
G01X58383Y66087D01*
G01X58430Y66086D01*
G01X58476Y66087D01*
G01X58523Y66090D01*
G01X58570Y66095D01*
G01X58616Y66102D01*
G01X58662Y66112D01*
G01X58707Y66123D01*
G01X58752Y66137D01*
G01X58796Y66152D01*
G01X58840Y66170D01*
G01X58882Y66189D01*
G01X58924Y66210D01*
G01X58965Y66233D01*
G01X59005Y66258D01*
G01X59043Y66285D01*
G01X59080Y66313D01*
G01X59116Y66343D01*
G01X59151Y66375D01*
G01X59184Y66408D01*
G01X59216Y66443D01*
G01X59246Y66479D01*
G01X59274Y66516D01*
G01X59301Y66554D01*
G01X59326Y66594D01*
G01X59349Y66635D01*
G01X59370Y66677D01*
G01X59389Y66719D01*
G01X59407Y66763D01*
G01X59422Y66807D01*
G01X59436Y66852D01*
G01X59447Y66897D01*
G01X59457Y66943D01*
G01X59464Y66989D01*
G01X59469Y67036D01*
G01X59472Y67083D01*
G01X59473Y67130D01*
G01X59472Y67176D01*
G01X59469Y67223D01*
G01X59464Y67270D01*
G01X59457Y67316D01*
G01X59447Y67362D01*
G01X59436Y67407D01*
G01X59422Y67452D01*
G01X59407Y67496D01*
G01X59389Y67540D01*
G01X59370Y67582D01*
G01X59349Y67624D01*
G01X59326Y67665D01*
G01X59301Y67705D01*
G01X59274Y67743D01*
G01X59246Y67780D01*
G01X59216Y67816D01*
G01X59184Y67851D01*
G01X59151Y67884D01*
G01X59116Y67916D01*
G01X59080Y67946D01*
G01X59043Y67974D01*
G01X59005Y68001D01*
G01X58965Y68026D01*
G01X58924Y68049D01*
G01X58882Y68070D01*
G01X58840Y68089D01*
G01X58796Y68107D01*
G01X58752Y68122D01*
G01X58707Y68136D01*
G01X58662Y68147D01*
G01X58616Y68157D01*
G01X58570Y68164D01*
G01X58523Y68169D01*
G01X58476Y68172D01*
G37*
G36*
G01X34045Y76017D02*
G01X33999Y76018D01*
G01X33954Y76017D01*
G01X33908Y76014D01*
G01X33863Y76009D01*
G01X33818Y76002D01*
G01X33773Y75993D01*
G01X33728Y75981D01*
G01X33685Y75968D01*
G01X33641Y75953D01*
G01X33599Y75936D01*
G01X33557Y75917D01*
G01X33517Y75897D01*
G01X33477Y75874D01*
G01X33438Y75850D01*
G01X33401Y75824D01*
G01X33364Y75796D01*
G01X33329Y75767D01*
G01X33296Y75736D01*
G01X33263Y75704D01*
G01X33232Y75670D01*
G01X33203Y75635D01*
G01X33175Y75598D01*
G01X33149Y75561D01*
G01X33125Y75522D01*
G01X33102Y75482D01*
G01X33082Y75442D01*
G01X33063Y75400D01*
G01X33046Y75358D01*
G01X33031Y75314D01*
G01X33018Y75271D01*
G01X33006Y75226D01*
G01X32997Y75181D01*
G01X32990Y75136D01*
G01X32985Y75091D01*
G01X32982Y75045D01*
G01X32981Y75000D01*
G01X32982Y74954D01*
G01X32985Y74908D01*
G01X32990Y74863D01*
G01X32997Y74818D01*
G01X33006Y74773D01*
G01X33018Y74729D01*
G01X33031Y74685D01*
G01X33046Y74642D01*
G01X33063Y74599D01*
G01X33082Y74558D01*
G01X33102Y74517D01*
G01X33125Y74477D01*
G01X33149Y74439D01*
G01X33175Y74401D01*
G01X33203Y74365D01*
G01X33232Y74329D01*
G01X33263Y74296D01*
G01X33296Y74263D01*
G01X33329Y74233D01*
G01X33364Y74203D01*
G01X33401Y74176D01*
G01X33438Y74150D01*
G01X33477Y74125D01*
G01X33517Y74103D01*
G01X33557Y74082D01*
G01X33599Y74063D01*
G01X33641Y74046D01*
G01X33685Y74031D01*
G01X33728Y74018D01*
G01X33773Y74007D01*
G01X33818Y73997D01*
G01X33863Y73990D01*
G01X33908Y73985D01*
G01X33954Y73982D01*
G01X33999Y73981D01*
G01X34045Y73982D01*
G01X34091Y73985D01*
G01X34136Y73990D01*
G01X34181Y73997D01*
G01X34226Y74007D01*
G01X34270Y74018D01*
G01X34314Y74031D01*
G01X34357Y74046D01*
G01X34400Y74063D01*
G01X34441Y74082D01*
G01X34482Y74103D01*
G01X34522Y74125D01*
G01X34560Y74150D01*
G01X34598Y74176D01*
G01X34634Y74203D01*
G01X34670Y74233D01*
G01X34703Y74263D01*
G01X34736Y74296D01*
G01X34766Y74329D01*
G01X34796Y74365D01*
G01X34823Y74401D01*
G01X34849Y74439D01*
G01X34874Y74477D01*
G01X34896Y74517D01*
G01X34917Y74558D01*
G01X34936Y74599D01*
G01X34953Y74642D01*
G01X34968Y74685D01*
G01X34981Y74729D01*
G01X34992Y74773D01*
G01X35002Y74818D01*
G01X35009Y74863D01*
G01X35014Y74908D01*
G01X35017Y74954D01*
G01X35018Y75000D01*
G01X35017Y75045D01*
G01X35014Y75091D01*
G01X35009Y75136D01*
G01X35002Y75181D01*
G01X34992Y75226D01*
G01X34981Y75271D01*
G01X34968Y75314D01*
G01X34953Y75358D01*
G01X34936Y75400D01*
G01X34917Y75442D01*
G01X34896Y75482D01*
G01X34874Y75522D01*
G01X34849Y75561D01*
G01X34823Y75598D01*
G01X34796Y75635D01*
G01X34766Y75670D01*
G01X34736Y75704D01*
G01X34703Y75736D01*
G01X34670Y75767D01*
G01X34634Y75796D01*
G01X34598Y75824D01*
G01X34560Y75850D01*
G01X34522Y75874D01*
G01X34482Y75897D01*
G01X34441Y75917D01*
G01X34400Y75936D01*
G01X34357Y75953D01*
G01X34314Y75968D01*
G01X34270Y75981D01*
G01X34226Y75993D01*
G01X34181Y76002D01*
G01X34136Y76009D01*
G01X34091Y76014D01*
G01X34045Y76017D01*
G37*
G36*
G01X50045Y75917D02*
G01X49999Y75918D01*
G01X49954Y75917D01*
G01X49908Y75914D01*
G01X49863Y75909D01*
G01X49818Y75901D01*
G01X49773Y75892D01*
G01X49728Y75881D01*
G01X49685Y75868D01*
G01X49642Y75853D01*
G01X49599Y75836D01*
G01X49558Y75817D01*
G01X49517Y75796D01*
G01X49477Y75774D01*
G01X49438Y75749D01*
G01X49401Y75723D01*
G01X49364Y75696D01*
G01X49329Y75666D01*
G01X49296Y75635D01*
G01X49263Y75603D01*
G01X49232Y75569D01*
G01X49203Y75534D01*
G01X49175Y75498D01*
G01X49149Y75460D01*
G01X49125Y75422D01*
G01X49103Y75382D01*
G01X49082Y75341D01*
G01X49063Y75300D01*
G01X49046Y75257D01*
G01X49031Y75214D01*
G01X49018Y75170D01*
G01X49006Y75126D01*
G01X48997Y75081D01*
G01X48990Y75036D01*
G01X48985Y74991D01*
G01X48982Y74945D01*
G01X48981Y74899D01*
G01X48982Y74854D01*
G01X48985Y74808D01*
G01X48990Y74763D01*
G01X48997Y74717D01*
G01X49006Y74673D01*
G01X49018Y74628D01*
G01X49031Y74585D01*
G01X49046Y74541D01*
G01X49063Y74499D01*
G01X49082Y74457D01*
G01X49103Y74417D01*
G01X49125Y74377D01*
G01X49149Y74338D01*
G01X49175Y74301D01*
G01X49203Y74264D01*
G01X49232Y74229D01*
G01X49263Y74195D01*
G01X49296Y74163D01*
G01X49329Y74132D01*
G01X49364Y74103D01*
G01X49401Y74075D01*
G01X49438Y74049D01*
G01X49477Y74025D01*
G01X49517Y74002D01*
G01X49558Y73982D01*
G01X49599Y73963D01*
G01X49642Y73946D01*
G01X49685Y73931D01*
G01X49728Y73917D01*
G01X49773Y73906D01*
G01X49818Y73897D01*
G01X49863Y73890D01*
G01X49908Y73885D01*
G01X49954Y73882D01*
G01X49999Y73881D01*
G01X50045Y73882D01*
G01X50091Y73885D01*
G01X50136Y73890D01*
G01X50181Y73897D01*
G01X50226Y73906D01*
G01X50270Y73917D01*
G01X50314Y73931D01*
G01X50357Y73946D01*
G01X50400Y73963D01*
G01X50441Y73982D01*
G01X50482Y74002D01*
G01X50522Y74025D01*
G01X50561Y74049D01*
G01X50598Y74075D01*
G01X50635Y74103D01*
G01X50670Y74132D01*
G01X50703Y74163D01*
G01X50736Y74195D01*
G01X50766Y74229D01*
G01X50796Y74264D01*
G01X50823Y74301D01*
G01X50849Y74338D01*
G01X50874Y74377D01*
G01X50896Y74417D01*
G01X50917Y74457D01*
G01X50936Y74499D01*
G01X50953Y74541D01*
G01X50968Y74585D01*
G01X50981Y74628D01*
G01X50992Y74673D01*
G01X51002Y74717D01*
G01X51009Y74763D01*
G01X51014Y74808D01*
G01X51017Y74854D01*
G01X51018Y74899D01*
G01X51017Y74945D01*
G01X51014Y74991D01*
G01X51009Y75036D01*
G01X51002Y75081D01*
G01X50992Y75126D01*
G01X50981Y75170D01*
G01X50968Y75214D01*
G01X50953Y75257D01*
G01X50936Y75300D01*
G01X50917Y75341D01*
G01X50896Y75382D01*
G01X50874Y75422D01*
G01X50849Y75460D01*
G01X50823Y75498D01*
G01X50796Y75534D01*
G01X50766Y75569D01*
G01X50736Y75603D01*
G01X50703Y75635D01*
G01X50670Y75666D01*
G01X50635Y75696D01*
G01X50598Y75723D01*
G01X50561Y75749D01*
G01X50522Y75774D01*
G01X50482Y75796D01*
G01X50441Y75817D01*
G01X50400Y75836D01*
G01X50357Y75853D01*
G01X50314Y75868D01*
G01X50270Y75881D01*
G01X50226Y75892D01*
G01X50181Y75901D01*
G01X50136Y75909D01*
G01X50091Y75914D01*
G01X50045Y75917D01*
G37*
G36*
G01X74099Y76355D02*
G01X73900Y76355D01*
G01X73861Y76354D01*
G01X73821Y76351D01*
G01X73782Y76346D01*
G01X73743Y76338D01*
G01X73704Y76329D01*
G01X73666Y76318D01*
G01X73629Y76305D01*
G01X73592Y76290D01*
G01X73557Y76273D01*
G01X73522Y76254D01*
G01X73488Y76233D01*
G01X73456Y76211D01*
G01X73424Y76186D01*
G01X73394Y76161D01*
G01X73365Y76133D01*
G01X73338Y76105D01*
G01X73312Y76075D01*
G01X73288Y76043D01*
G01X73266Y76011D01*
G01X73245Y75977D01*
G01X73226Y75942D01*
G01X73209Y75906D01*
G01X73194Y75870D01*
G01X73181Y75832D01*
G01X73169Y75794D01*
G01X73160Y75756D01*
G01X73153Y75717D01*
G01X73148Y75678D01*
G01X73145Y75638D01*
G01X73144Y75598D01*
G01X73145Y75559D01*
G01X73148Y75519D01*
G01X73153Y75480D01*
G01X73160Y75441D01*
G01X73169Y75403D01*
G01X73181Y75365D01*
G01X73194Y75327D01*
G01X73209Y75291D01*
G01X73226Y75255D01*
G01X73245Y75220D01*
G01X73266Y75186D01*
G01X73288Y75154D01*
G01X73312Y75122D01*
G01X73338Y75092D01*
G01X73365Y75064D01*
G01X73394Y75036D01*
G01X73424Y75011D01*
G01X73456Y74986D01*
G01X73488Y74964D01*
G01X73522Y74943D01*
G01X73557Y74924D01*
G01X73592Y74907D01*
G01X73629Y74892D01*
G01X73666Y74879D01*
G01X73704Y74868D01*
G01X73743Y74858D01*
G01X73782Y74851D01*
G01X73821Y74846D01*
G01X73861Y74843D01*
G01X73900Y74842D01*
G01X74099Y74842D01*
G01X74138Y74843D01*
G01X74178Y74846D01*
G01X74217Y74851D01*
G01X74256Y74858D01*
G01X74295Y74868D01*
G01X74333Y74879D01*
G01X74370Y74892D01*
G01X74407Y74907D01*
G01X74442Y74924D01*
G01X74477Y74943D01*
G01X74511Y74964D01*
G01X74543Y74986D01*
G01X74575Y75011D01*
G01X74605Y75036D01*
G01X74634Y75064D01*
G01X74661Y75092D01*
G01X74687Y75122D01*
G01X74711Y75154D01*
G01X74733Y75186D01*
G01X74754Y75220D01*
G01X74773Y75255D01*
G01X74790Y75291D01*
G01X74805Y75327D01*
G01X74818Y75365D01*
G01X74830Y75403D01*
G01X74839Y75441D01*
G01X74846Y75480D01*
G01X74851Y75519D01*
G01X74854Y75559D01*
G01X74855Y75598D01*
G01X74854Y75638D01*
G01X74851Y75678D01*
G01X74846Y75717D01*
G01X74839Y75756D01*
G01X74830Y75794D01*
G01X74818Y75832D01*
G01X74805Y75870D01*
G01X74790Y75906D01*
G01X74773Y75942D01*
G01X74754Y75977D01*
G01X74733Y76011D01*
G01X74711Y76043D01*
G01X74687Y76075D01*
G01X74661Y76105D01*
G01X74634Y76133D01*
G01X74605Y76161D01*
G01X74575Y76186D01*
G01X74543Y76211D01*
G01X74511Y76233D01*
G01X74477Y76254D01*
G01X74442Y76273D01*
G01X74407Y76290D01*
G01X74370Y76305D01*
G01X74333Y76318D01*
G01X74295Y76329D01*
G01X74256Y76338D01*
G01X74217Y76346D01*
G01X74178Y76351D01*
G01X74138Y76354D01*
G01X74099Y76355D01*
G37*
G36*
G01X76099Y76356D02*
G01X75900Y76356D01*
G01X75861Y76355D01*
G01X75821Y76352D01*
G01X75782Y76347D01*
G01X75743Y76340D01*
G01X75704Y76330D01*
G01X75666Y76319D01*
G01X75629Y76306D01*
G01X75592Y76291D01*
G01X75557Y76274D01*
G01X75522Y76255D01*
G01X75488Y76234D01*
G01X75456Y76212D01*
G01X75424Y76187D01*
G01X75394Y76162D01*
G01X75365Y76134D01*
G01X75338Y76106D01*
G01X75312Y76076D01*
G01X75288Y76044D01*
G01X75266Y76012D01*
G01X75245Y75978D01*
G01X75226Y75943D01*
G01X75209Y75907D01*
G01X75194Y75871D01*
G01X75181Y75833D01*
G01X75169Y75795D01*
G01X75160Y75757D01*
G01X75153Y75718D01*
G01X75148Y75679D01*
G01X75145Y75639D01*
G01X75144Y75600D01*
G01X75145Y75560D01*
G01X75148Y75520D01*
G01X75153Y75481D01*
G01X75160Y75442D01*
G01X75169Y75404D01*
G01X75181Y75366D01*
G01X75194Y75328D01*
G01X75209Y75292D01*
G01X75226Y75256D01*
G01X75245Y75221D01*
G01X75266Y75187D01*
G01X75288Y75155D01*
G01X75312Y75123D01*
G01X75338Y75093D01*
G01X75365Y75065D01*
G01X75394Y75037D01*
G01X75424Y75012D01*
G01X75456Y74987D01*
G01X75488Y74965D01*
G01X75522Y74944D01*
G01X75557Y74925D01*
G01X75592Y74908D01*
G01X75629Y74893D01*
G01X75666Y74880D01*
G01X75704Y74869D01*
G01X75743Y74859D01*
G01X75782Y74852D01*
G01X75821Y74847D01*
G01X75861Y74844D01*
G01X75900Y74843D01*
G01X76099Y74843D01*
G01X76138Y74844D01*
G01X76178Y74847D01*
G01X76217Y74852D01*
G01X76256Y74859D01*
G01X76295Y74869D01*
G01X76333Y74880D01*
G01X76370Y74893D01*
G01X76407Y74908D01*
G01X76442Y74925D01*
G01X76477Y74944D01*
G01X76511Y74965D01*
G01X76543Y74987D01*
G01X76575Y75012D01*
G01X76605Y75037D01*
G01X76634Y75065D01*
G01X76661Y75093D01*
G01X76687Y75123D01*
G01X76711Y75155D01*
G01X76733Y75187D01*
G01X76754Y75221D01*
G01X76773Y75256D01*
G01X76790Y75292D01*
G01X76805Y75328D01*
G01X76818Y75366D01*
G01X76830Y75404D01*
G01X76839Y75442D01*
G01X76846Y75481D01*
G01X76851Y75520D01*
G01X76854Y75560D01*
G01X76855Y75600D01*
G01X76854Y75639D01*
G01X76851Y75679D01*
G01X76846Y75718D01*
G01X76839Y75757D01*
G01X76830Y75795D01*
G01X76818Y75833D01*
G01X76805Y75871D01*
G01X76790Y75907D01*
G01X76773Y75943D01*
G01X76754Y75978D01*
G01X76733Y76012D01*
G01X76711Y76044D01*
G01X76687Y76076D01*
G01X76661Y76106D01*
G01X76634Y76134D01*
G01X76605Y76162D01*
G01X76575Y76187D01*
G01X76543Y76212D01*
G01X76511Y76234D01*
G01X76477Y76255D01*
G01X76442Y76274D01*
G01X76407Y76291D01*
G01X76370Y76306D01*
G01X76333Y76319D01*
G01X76295Y76330D01*
G01X76256Y76340D01*
G01X76217Y76347D01*
G01X76178Y76352D01*
G01X76138Y76355D01*
G01X76099Y76356D01*
G37*
G36*
G01X119182Y76436D02*
G01X118697Y76436D01*
G01X118697Y76099D01*
G01X118698Y76076D01*
G01X118701Y76052D01*
G01X118707Y76029D01*
G01X118714Y76007D01*
G01X118724Y75985D01*
G01X118735Y75964D01*
G01X118749Y75945D01*
G01X118764Y75927D01*
G01X118781Y75910D01*
G01X118799Y75895D01*
G01X118818Y75881D01*
G01X118839Y75870D01*
G01X118861Y75860D01*
G01X118883Y75853D01*
G01X118906Y75847D01*
G01X118930Y75844D01*
G01X118953Y75843D01*
G01X119182Y75843D01*
G01X119182Y76436D01*
G37*
G36*
G01X64394Y75951D02*
G01X63954Y75951D01*
G01X63954Y75326D01*
G01X63990Y75343D01*
G01X64025Y75363D01*
G01X64059Y75384D01*
G01X64092Y75407D01*
G01X64123Y75432D01*
G01X64153Y75458D01*
G01X64182Y75486D01*
G01X64209Y75516D01*
G01X64235Y75546D01*
G01X64259Y75579D01*
G01X64281Y75612D01*
G01X64301Y75646D01*
G01X64320Y75682D01*
G01X64337Y75718D01*
G01X64351Y75756D01*
G01X64364Y75794D01*
G01X64375Y75832D01*
G01X64383Y75871D01*
G01X64390Y75911D01*
G01X64394Y75951D01*
G37*
G36*
G01X57155Y75951D02*
G01X56715Y75951D01*
G01X56715Y75326D01*
G01X56751Y75343D01*
G01X56786Y75363D01*
G01X56820Y75384D01*
G01X56853Y75407D01*
G01X56884Y75432D01*
G01X56914Y75458D01*
G01X56943Y75486D01*
G01X56970Y75516D01*
G01X56996Y75546D01*
G01X57020Y75579D01*
G01X57042Y75612D01*
G01X57062Y75646D01*
G01X57081Y75682D01*
G01X57098Y75718D01*
G01X57112Y75756D01*
G01X57125Y75794D01*
G01X57136Y75832D01*
G01X57144Y75871D01*
G01X57151Y75911D01*
G01X57155Y75951D01*
G37*
G36*
G01X56088Y75951D02*
G01X55648Y75951D01*
G01X55652Y75911D01*
G01X55659Y75871D01*
G01X55667Y75832D01*
G01X55678Y75794D01*
G01X55691Y75756D01*
G01X55705Y75718D01*
G01X55722Y75682D01*
G01X55740Y75646D01*
G01X55761Y75612D01*
G01X55783Y75579D01*
G01X55807Y75546D01*
G01X55833Y75516D01*
G01X55860Y75486D01*
G01X55889Y75458D01*
G01X55919Y75432D01*
G01X55950Y75407D01*
G01X55983Y75384D01*
G01X56017Y75363D01*
G01X56052Y75343D01*
G01X56088Y75326D01*
G01X56088Y75951D01*
G37*
G36*
G01X63327Y75951D02*
G01X62887Y75951D01*
G01X62891Y75911D01*
G01X62898Y75871D01*
G01X62906Y75832D01*
G01X62917Y75794D01*
G01X62930Y75756D01*
G01X62944Y75718D01*
G01X62961Y75682D01*
G01X62979Y75646D01*
G01X63000Y75612D01*
G01X63022Y75579D01*
G01X63046Y75546D01*
G01X63072Y75516D01*
G01X63099Y75486D01*
G01X63128Y75458D01*
G01X63158Y75432D01*
G01X63189Y75407D01*
G01X63222Y75384D01*
G01X63256Y75363D01*
G01X63291Y75343D01*
G01X63327Y75326D01*
G01X63327Y75951D01*
G37*
G36*
G01X72647Y75087D02*
G01X72213Y75087D01*
G01X72213Y74512D01*
G01X72248Y74529D01*
G01X72283Y74549D01*
G01X72317Y74569D01*
G01X72349Y74592D01*
G01X72380Y74616D01*
G01X72410Y74642D01*
G01X72438Y74670D01*
G01X72465Y74699D01*
G01X72491Y74729D01*
G01X72515Y74760D01*
G01X72537Y74793D01*
G01X72557Y74827D01*
G01X72576Y74862D01*
G01X72593Y74898D01*
G01X72607Y74934D01*
G01X72620Y74971D01*
G01X72631Y75009D01*
G01X72640Y75048D01*
G01X72647Y75087D01*
G37*
G36*
G01X71586Y76113D02*
G01X71586Y76688D01*
G01X71550Y76671D01*
G01X71482Y76631D01*
G01X71450Y76608D01*
G01X71419Y76584D01*
G01X71389Y76558D01*
G01X71360Y76530D01*
G01X71333Y76501D01*
G01X71308Y76471D01*
G01X71284Y76440D01*
G01X71262Y76407D01*
G01X71242Y76373D01*
G01X71223Y76338D01*
G01X71206Y76302D01*
G01X71191Y76266D01*
G01X71178Y76229D01*
G01X71167Y76191D01*
G01X71158Y76152D01*
G01X71152Y76113D01*
G01X71586Y76113D01*
G37*
G36*
G01X80847Y75086D02*
G01X80413Y75086D01*
G01X80413Y74511D01*
G01X80449Y74528D01*
G01X80517Y74568D01*
G01X80549Y74591D01*
G01X80580Y74615D01*
G01X80610Y74641D01*
G01X80639Y74669D01*
G01X80666Y74698D01*
G01X80691Y74728D01*
G01X80715Y74759D01*
G01X80737Y74792D01*
G01X80757Y74826D01*
G01X80776Y74861D01*
G01X80793Y74897D01*
G01X80808Y74933D01*
G01X80821Y74970D01*
G01X80832Y75008D01*
G01X80841Y75047D01*
G01X80847Y75086D01*
G37*
G36*
G01X79786Y75086D02*
G01X79352Y75086D01*
G01X79359Y75047D01*
G01X79368Y75008D01*
G01X79379Y74970D01*
G01X79392Y74933D01*
G01X79406Y74897D01*
G01X79423Y74861D01*
G01X79442Y74826D01*
G01X79462Y74792D01*
G01X79484Y74759D01*
G01X79508Y74728D01*
G01X79534Y74698D01*
G01X79561Y74669D01*
G01X79589Y74641D01*
G01X79619Y74615D01*
G01X79650Y74591D01*
G01X79682Y74568D01*
G01X79716Y74548D01*
G01X79751Y74528D01*
G01X79786Y74511D01*
G01X79786Y75086D01*
G37*
G36*
G01X71586Y75087D02*
G01X71152Y75087D01*
G01X71158Y75048D01*
G01X71167Y75009D01*
G01X71178Y74971D01*
G01X71191Y74934D01*
G01X71206Y74898D01*
G01X71223Y74862D01*
G01X71242Y74827D01*
G01X71262Y74793D01*
G01X71284Y74760D01*
G01X71308Y74729D01*
G01X71333Y74699D01*
G01X71360Y74670D01*
G01X71389Y74642D01*
G01X71419Y74616D01*
G01X71450Y74592D01*
G01X71482Y74569D01*
G01X71550Y74529D01*
G01X71586Y74512D01*
G01X71586Y75087D01*
G37*
G36*
G01X72248Y76671D02*
G01X72213Y76688D01*
G01X72213Y76113D01*
G01X72647Y76113D01*
G01X72640Y76152D01*
G01X72631Y76191D01*
G01X72620Y76229D01*
G01X72607Y76266D01*
G01X72593Y76302D01*
G01X72576Y76338D01*
G01X72557Y76373D01*
G01X72537Y76407D01*
G01X72515Y76440D01*
G01X72491Y76471D01*
G01X72465Y76501D01*
G01X72438Y76530D01*
G01X72410Y76558D01*
G01X72380Y76584D01*
G01X72349Y76608D01*
G01X72317Y76631D01*
G01X72283Y76651D01*
G01X72248Y76671D01*
G37*
G36*
G01X64008Y70587D02*
G01X63967Y70608D01*
G01X63967Y70127D01*
G01X64448Y70127D01*
G01X64427Y70168D01*
G01X64404Y70208D01*
G01X64379Y70247D01*
G01X64353Y70285D01*
G01X64325Y70322D01*
G01X64295Y70357D01*
G01X64264Y70391D01*
G01X64231Y70424D01*
G01X64197Y70455D01*
G01X64162Y70485D01*
G01X64125Y70513D01*
G01X64087Y70539D01*
G01X64048Y70564D01*
G01X64008Y70587D01*
G37*
G36*
G01X63052Y70127D02*
G01X63052Y70608D01*
G01X63011Y70587D01*
G01X62971Y70564D01*
G01X62932Y70539D01*
G01X62894Y70513D01*
G01X62857Y70485D01*
G01X62822Y70455D01*
G01X62788Y70424D01*
G01X62755Y70391D01*
G01X62724Y70357D01*
G01X62694Y70322D01*
G01X62666Y70285D01*
G01X62640Y70247D01*
G01X62615Y70208D01*
G01X62592Y70168D01*
G01X62571Y70127D01*
G01X63052Y70127D01*
G37*
G36*
G01X63052Y69212D02*
G01X62571Y69212D01*
G01X62592Y69171D01*
G01X62615Y69131D01*
G01X62640Y69092D01*
G01X62666Y69054D01*
G01X62694Y69017D01*
G01X62724Y68982D01*
G01X62755Y68948D01*
G01X62788Y68915D01*
G01X62822Y68884D01*
G01X62857Y68854D01*
G01X62894Y68826D01*
G01X62932Y68800D01*
G01X62971Y68775D01*
G01X63011Y68752D01*
G01X63052Y68731D01*
G01X63052Y69212D01*
G37*
G36*
G01X64448Y69212D02*
G01X63967Y69212D01*
G01X63967Y68731D01*
G01X64008Y68752D01*
G01X64048Y68775D01*
G01X64087Y68800D01*
G01X64125Y68826D01*
G01X64162Y68854D01*
G01X64197Y68884D01*
G01X64231Y68915D01*
G01X64264Y68948D01*
G01X64295Y68982D01*
G01X64325Y69017D01*
G01X64353Y69054D01*
G01X64379Y69092D01*
G01X64404Y69131D01*
G01X64427Y69171D01*
G01X64448Y69212D01*
G37*
G36*
G01X57243Y73523D02*
G01X56851Y73523D01*
G01X56869Y73487D01*
G01X56888Y73451D01*
G01X56910Y73417D01*
G01X56933Y73384D01*
G01X56958Y73352D01*
G01X56984Y73321D01*
G01X57012Y73292D01*
G01X57041Y73264D01*
G01X57072Y73238D01*
G01X57104Y73213D01*
G01X57137Y73190D01*
G01X57171Y73168D01*
G01X57207Y73149D01*
G01X57243Y73131D01*
G01X57243Y73523D01*
G37*
G36*
G01X57243Y74196D02*
G01X57243Y74588D01*
G01X57207Y74570D01*
G01X57171Y74551D01*
G01X57137Y74529D01*
G01X57104Y74506D01*
G01X57072Y74481D01*
G01X57041Y74455D01*
G01X57012Y74427D01*
G01X56984Y74398D01*
G01X56958Y74367D01*
G01X56933Y74335D01*
G01X56910Y74302D01*
G01X56888Y74268D01*
G01X56869Y74232D01*
G01X56851Y74196D01*
G01X57243Y74196D01*
G37*
G36*
G01X62093Y74176D02*
G01X62093Y74568D01*
G01X62057Y74550D01*
G01X62021Y74530D01*
G01X61987Y74509D01*
G01X61954Y74486D01*
G01X61922Y74461D01*
G01X61891Y74435D01*
G01X61862Y74407D01*
G01X61834Y74378D01*
G01X61808Y74347D01*
G01X61783Y74315D01*
G01X61760Y74282D01*
G01X61738Y74248D01*
G01X61719Y74212D01*
G01X61701Y74176D01*
G01X62093Y74176D01*
G37*
G36*
G01X58308Y73523D02*
G01X57916Y73523D01*
G01X57916Y73131D01*
G01X57952Y73149D01*
G01X57988Y73168D01*
G01X58022Y73190D01*
G01X58055Y73213D01*
G01X58087Y73238D01*
G01X58118Y73264D01*
G01X58147Y73292D01*
G01X58175Y73321D01*
G01X58201Y73352D01*
G01X58226Y73384D01*
G01X58249Y73417D01*
G01X58271Y73451D01*
G01X58290Y73487D01*
G01X58308Y73523D01*
G37*
G36*
G01X62802Y74550D02*
G01X62766Y74568D01*
G01X62766Y74176D01*
G01X63158Y74176D01*
G01X63140Y74212D01*
G01X63121Y74248D01*
G01X63099Y74282D01*
G01X63076Y74315D01*
G01X63051Y74347D01*
G01X63025Y74378D01*
G01X62997Y74407D01*
G01X62968Y74435D01*
G01X62937Y74461D01*
G01X62905Y74486D01*
G01X62872Y74509D01*
G01X62838Y74530D01*
G01X62802Y74550D01*
G37*
G36*
G01X62093Y73503D02*
G01X61701Y73503D01*
G01X61719Y73467D01*
G01X61738Y73431D01*
G01X61760Y73397D01*
G01X61783Y73364D01*
G01X61808Y73332D01*
G01X61834Y73301D01*
G01X61862Y73272D01*
G01X61891Y73244D01*
G01X61922Y73218D01*
G01X61954Y73193D01*
G01X61987Y73170D01*
G01X62021Y73148D01*
G01X62057Y73129D01*
G01X62093Y73111D01*
G01X62093Y73503D01*
G37*
G36*
G01X63158Y73503D02*
G01X62766Y73503D01*
G01X62766Y73111D01*
G01X62802Y73129D01*
G01X62838Y73148D01*
G01X62872Y73170D01*
G01X62905Y73193D01*
G01X62937Y73218D01*
G01X62968Y73244D01*
G01X62997Y73272D01*
G01X63025Y73301D01*
G01X63051Y73332D01*
G01X63076Y73364D01*
G01X63099Y73397D01*
G01X63121Y73431D01*
G01X63140Y73467D01*
G01X63158Y73503D01*
G37*
G36*
G01X57952Y74570D02*
G01X57916Y74588D01*
G01X57916Y74196D01*
G01X58308Y74196D01*
G01X58290Y74232D01*
G01X58271Y74268D01*
G01X58249Y74302D01*
G01X58226Y74335D01*
G01X58201Y74367D01*
G01X58175Y74398D01*
G01X58147Y74427D01*
G01X58118Y74455D01*
G01X58087Y74481D01*
G01X58055Y74506D01*
G01X58022Y74529D01*
G01X57988Y74551D01*
G01X57952Y74570D01*
G37*
G36*
G01X14744Y63389D02*
G01X14507Y63389D01*
G01X14507Y63023D01*
G01X14532Y63032D01*
G01X14556Y63044D01*
G01X14580Y63057D01*
G01X14602Y63072D01*
G01X14624Y63089D01*
G01X14643Y63107D01*
G01X14662Y63127D01*
G01X14678Y63149D01*
G01X14693Y63171D01*
G01X14707Y63195D01*
G01X14718Y63219D01*
G01X14727Y63245D01*
G01X14735Y63271D01*
G01X14740Y63297D01*
G01X14743Y63324D01*
G01X14744Y63351D01*
G01X14744Y63389D01*
G37*
G36*
G01X14291Y63389D02*
G01X14053Y63389D01*
G01X14053Y63351D01*
G01X14054Y63324D01*
G01X14057Y63297D01*
G01X14063Y63271D01*
G01X14070Y63245D01*
G01X14079Y63219D01*
G01X14091Y63195D01*
G01X14104Y63171D01*
G01X14119Y63149D01*
G01X14136Y63127D01*
G01X14154Y63107D01*
G01X14174Y63089D01*
G01X14195Y63072D01*
G01X14217Y63057D01*
G01X14241Y63044D01*
G01X14265Y63032D01*
G01X14291Y63023D01*
G01X14291Y63389D01*
G37*

%LPD*%
G54D11*
G01X54830Y62230D02*
G01X53916Y62230D01*
G01X53886Y62371D02*
G01X54883Y62371D01*
G01X54277Y62230D02*
G01X54277Y62371D01*
G01X11809Y17009D02*
G01X11934Y16883D01*
G01X11934Y16883D02*
G01X10128Y16883D01*
G01X10128Y16883D02*
G01X10128Y32151D01*
G01X10180Y32499D02*
G01X10180Y43371D01*
G01X10180Y43371D02*
G01X12590Y43371D01*
G01X12590Y43371D02*
G01X12825Y43136D01*
G01X13687Y42779D02*
G01X14043Y42779D01*
G01X14043Y42779D02*
G01X14754Y42779D01*
G01X15617Y43136D02*
G01X15852Y43371D01*
G01X15852Y43371D02*
G01X19029Y43371D01*
G01X21770Y43371D02*
G01X24000Y43371D01*
G01X24128Y43499D02*
G01X24128Y52499D01*
G01X24090Y52590D02*
G01X23090Y53590D01*
G01X23000Y53628D02*
G01X18053Y53628D01*
G01X18053Y53628D02*
G01X17446Y54235D01*
G01X18210Y56371D02*
G01X20867Y56371D01*
G01X25133Y56371D02*
G01X38268Y56371D01*
G01X38268Y56371D02*
G01X38268Y53001D01*
G01X38628Y52131D02*
G01X41328Y49428D01*
G01X42199Y49067D02*
G01X42463Y49067D01*
G01X44632Y50391D02*
G01X45108Y50867D01*
G01X45774Y50984D02*
G01X53333Y43425D01*
G01X52980Y40661D02*
G01X52946Y40628D01*
G01X52946Y40628D02*
G01X47053Y40628D01*
G01X47053Y40628D02*
G01X44796Y42884D01*
G01X42612Y44628D02*
G01X35000Y44628D01*
G01X34878Y44540D02*
G01X34333Y42906D01*
G01X34333Y42906D02*
G01X31870Y45370D01*
G01X30683Y43076D02*
G01X32131Y41628D01*
G01X32131Y41628D02*
G01X29999Y41628D01*
G01X29909Y41590D02*
G01X26909Y38590D01*
G01X26871Y38499D02*
G01X26871Y32499D01*
G01X26910Y32407D02*
G01X29909Y29409D01*
G01X30000Y29371D02*
G01X32871Y29371D01*
G01X32871Y29371D02*
G01X32871Y28553D01*
G01X32871Y28553D02*
G01X31909Y27590D01*
G01X31871Y27499D02*
G01X31871Y24414D01*
G01X26952Y24228D02*
G01X22990Y28190D01*
G01X22900Y28228D02*
G01X19900Y28228D01*
G01X19900Y28228D02*
G01X16900Y28228D01*
G01X16809Y28190D02*
G01X11809Y23190D01*
G01X11771Y23099D02*
G01X11771Y17099D01*
G01X13466Y31180D02*
G01X13822Y31180D01*
G01X13822Y31180D02*
G01X14533Y31180D01*
G01X15395Y31537D02*
G01X16107Y32248D01*
G01X16600Y32769D02*
G01X21561Y32769D01*
G01X21561Y35230D02*
G01X16600Y35230D01*
G01X16462Y35395D02*
G01X15814Y36043D01*
G01X15814Y36043D02*
G01X15395Y36462D01*
G01X14533Y36819D02*
G01X14165Y36819D01*
G01X14165Y36819D02*
G01X13466Y36819D01*
G01X12604Y36462D02*
G01X11892Y35751D01*
G01X11180Y34533D02*
G01X11180Y33466D01*
G01X11537Y32604D02*
G01X12248Y31892D01*
G01X12248Y31892D02*
G01X12604Y31537D01*
G01X10128Y17049D02*
G01X11782Y17049D01*
G01X10128Y18803D02*
G01X11771Y18803D01*
G01X10128Y20557D02*
G01X11771Y20557D01*
G01X10128Y22312D02*
G01X11771Y22312D01*
G01X10128Y24066D02*
G01X12684Y24066D01*
G01X10128Y25820D02*
G01X14438Y25820D01*
G01X25361Y25820D02*
G01X31871Y25820D01*
G01X10128Y27574D02*
G01X16193Y27574D01*
G01X23606Y27574D02*
G01X31895Y27574D01*
G01X10128Y29328D02*
G01X32871Y29328D01*
G01X10128Y31082D02*
G01X28235Y31082D01*
G01X10180Y32836D02*
G01X11355Y32836D01*
G01X23141Y32836D02*
G01X26871Y32836D01*
G01X10180Y34590D02*
G01X11181Y34590D01*
G01X23608Y34590D02*
G01X26871Y34590D01*
G01X10180Y36345D02*
G01X12486Y36345D01*
G01X15513Y36345D02*
G01X26871Y36345D01*
G01X10180Y38099D02*
G01X26871Y38099D01*
G01X10180Y39853D02*
G01X28171Y39853D01*
G01X10180Y41607D02*
G01X29929Y41607D01*
G01X46074Y41607D02*
G01X52119Y41607D01*
G01X10180Y43361D02*
G01X12600Y43361D01*
G01X15841Y43361D02*
G01X19032Y43361D01*
G01X21766Y43361D02*
G01X29625Y43361D01*
G01X33879Y43361D02*
G01X34485Y43361D01*
G01X44928Y43361D02*
G01X53044Y43361D01*
G01X24128Y45115D02*
G01X29203Y45115D01*
G01X32124Y45115D02*
G01X51643Y45115D01*
G01X24128Y46869D02*
G01X49889Y46869D01*
G01X24128Y48623D02*
G01X48135Y48623D01*
G01X24128Y50378D02*
G01X40380Y50378D01*
G01X44633Y50378D02*
G01X46381Y50378D01*
G01X24128Y52132D02*
G01X38627Y52132D01*
G01X17795Y53886D02*
G01X38268Y53886D01*
G01X18435Y55640D02*
G01X22587Y55640D01*
G01X23412Y55640D02*
G01X38268Y55640D01*
G01X52523Y40628D02*
G01X52523Y40947D01*
G01X52523Y43052D02*
G01X52523Y44236D01*
G01X50769Y40628D02*
G01X50769Y45990D01*
G01X49014Y40628D02*
G01X49014Y47744D01*
G01X47260Y40628D02*
G01X47260Y49498D01*
G01X45506Y42174D02*
G01X45506Y50897D01*
G01X43752Y44913D02*
G01X43752Y48974D01*
G01X41998Y44628D02*
G01X41998Y49084D01*
G01X40244Y44628D02*
G01X40244Y50514D01*
G01X38490Y44628D02*
G01X38490Y52296D01*
G01X36736Y44628D02*
G01X36736Y56371D01*
G01X34981Y44627D02*
G01X34981Y56371D01*
G01X33227Y44012D02*
G01X33227Y56371D01*
G01X31473Y24749D02*
G01X31473Y29371D01*
G01X31473Y41628D02*
G01X31473Y42285D01*
G01X31473Y45636D02*
G01X31473Y56371D01*
G01X29719Y25377D02*
G01X29719Y29599D01*
G01X29719Y41400D02*
G01X29719Y43295D01*
G01X29719Y45705D02*
G01X29719Y56371D01*
G01X27965Y25016D02*
G01X27965Y31353D01*
G01X27965Y39646D02*
G01X27965Y56371D01*
G01X26211Y24970D02*
G01X26211Y56371D01*
G01X24457Y26724D02*
G01X24457Y55944D01*
G01X22703Y28228D02*
G01X22703Y32622D01*
G01X22703Y35377D02*
G01X22703Y43371D01*
G01X22703Y53628D02*
G01X22703Y55628D01*
G01X20948Y28228D02*
G01X20948Y32769D01*
G01X20948Y35230D02*
G01X20948Y42473D01*
G01X20948Y53628D02*
G01X20948Y56307D01*
G01X19194Y28228D02*
G01X19194Y32769D01*
G01X19194Y35230D02*
G01X19194Y43019D01*
G01X19194Y53628D02*
G01X19194Y56371D01*
G01X17440Y28228D02*
G01X17440Y32769D01*
G01X17440Y35230D02*
G01X17440Y43371D01*
G01X15686Y27067D02*
G01X15686Y31828D01*
G01X15686Y36171D02*
G01X15686Y43206D01*
G01X13932Y25313D02*
G01X13932Y31180D01*
G01X13932Y36819D02*
G01X13932Y42779D01*
G01X12178Y23559D02*
G01X12178Y31963D01*
G01X12178Y36036D02*
G01X12178Y43371D01*
G01X10424Y16883D02*
G01X10424Y43371D01*
G01X124014Y10663D02*
G01X80593Y12887D01*
G01X80593Y12887D02*
G01X80509Y12971D01*
G01X80509Y12971D02*
G01X82099Y12971D01*
G01X82190Y13009D02*
G01X87190Y18009D01*
G01X87228Y18099D02*
G01X87228Y24099D01*
G01X87190Y24190D02*
G01X82190Y29190D01*
G01X82099Y29228D02*
G01X79099Y29228D01*
G01X79099Y29228D02*
G01X76100Y29228D01*
G01X76009Y29190D02*
G01X71009Y24190D01*
G01X70971Y24099D02*
G01X70971Y18212D01*
G01X70971Y18212D02*
G01X69828Y17068D01*
G01X69828Y17068D02*
G01X69828Y18299D01*
G01X69700Y18428D02*
G01X55515Y18528D01*
G01X55515Y18528D02*
G01X53662Y18981D01*
G01X53662Y18981D02*
G01X57090Y22409D01*
G01X57128Y22499D02*
G01X57128Y26499D01*
G01X57128Y26499D02*
G01X57128Y27499D01*
G01X57090Y27590D02*
G01X55309Y29371D01*
G01X55309Y29371D02*
G01X58000Y29371D01*
G01X58090Y29409D02*
G01X62090Y33409D01*
G01X62128Y33499D02*
G01X62128Y37500D01*
G01X62128Y37500D02*
G01X62128Y38499D01*
G01X62090Y38590D02*
G01X59912Y40769D01*
G01X59912Y40769D02*
G01X61499Y40769D01*
G01X62370Y41129D02*
G01X63612Y42371D01*
G01X63612Y42371D02*
G01X66000Y42371D01*
G01X66000Y42371D02*
G01X66946Y42371D01*
G01X66946Y42371D02*
G01X70871Y38446D01*
G01X70871Y38446D02*
G01X70871Y37999D01*
G01X70909Y37909D02*
G01X75909Y32909D01*
G01X75999Y32871D02*
G01X81999Y32871D01*
G01X82090Y32909D02*
G01X87090Y37909D01*
G01X87128Y37999D02*
G01X87128Y43999D01*
G01X87090Y44090D02*
G01X82090Y49090D01*
G01X81999Y49128D02*
G01X78999Y49128D01*
G01X78999Y49128D02*
G01X75999Y49128D01*
G01X75909Y49090D02*
G01X74749Y47931D01*
G01X74749Y47931D02*
G01X74090Y48590D01*
G01X74000Y48628D02*
G01X61000Y48628D01*
G01X60871Y48500D02*
G01X60871Y43230D01*
G01X60871Y43230D02*
G01X59670Y43230D01*
G01X59347Y46892D02*
G01X56815Y49425D01*
G01X55847Y51392D02*
G01X52730Y54509D01*
G01X52730Y54509D02*
G01X52730Y55000D01*
G01X52370Y55870D02*
G01X51230Y57009D01*
G01X51230Y57009D02*
G01X51230Y59000D01*
G01X50961Y59768D02*
G01X56370Y59768D01*
G01X57269Y58566D02*
G01X57269Y53239D01*
G01X59730Y53238D02*
G01X59730Y59199D01*
G01X61163Y62481D02*
G01X63053Y64371D01*
G01X63053Y64371D02*
G01X65871Y64371D01*
G01X65871Y64371D02*
G01X65871Y54499D01*
G01X66000Y54371D02*
G01X69113Y54371D01*
G01X71886Y54371D02*
G01X74346Y54371D01*
G01X74346Y54371D02*
G01X75909Y52809D01*
G01X76000Y52771D02*
G01X81952Y52771D01*
G01X86781Y57500D02*
G01X87090Y57809D01*
G01X87128Y57899D02*
G01X87128Y63899D01*
G01X87090Y63990D02*
G01X82090Y68990D01*
G01X81999Y69028D02*
G01X78999Y69028D01*
G01X78999Y69028D02*
G01X76000Y69028D01*
G01X75909Y68990D02*
G01X71546Y64628D01*
G01X71546Y64628D02*
G01X70108Y64628D01*
G01X69579Y64898D02*
G01X75053Y70371D01*
G01X75053Y70371D02*
G01X82327Y70371D01*
G01X84239Y69969D02*
G01X88800Y69969D01*
G01X89671Y70329D02*
G01X89712Y70371D01*
G01X89712Y70371D02*
G01X95070Y70371D01*
G01X95071Y70353D02*
G01X90809Y66090D01*
G01X90771Y66000D02*
G01X90771Y60000D01*
G01X90809Y59909D02*
G01X95809Y54909D01*
G01X95900Y54871D02*
G01X101900Y54871D01*
G01X101990Y54909D02*
G01X106990Y59909D01*
G01X107028Y60000D02*
G01X107028Y64631D01*
G01X107028Y64631D02*
G01X107829Y63829D01*
G01X108700Y63469D02*
G01X108849Y63469D01*
G01X108849Y63469D02*
G01X108871Y63446D01*
G01X108871Y63446D02*
G01X108871Y61500D01*
G01X109000Y61371D02*
G01X114999Y61371D01*
G01X115090Y61409D02*
G01X116053Y62371D01*
G01X116053Y62371D02*
G01X123000Y62371D01*
G01X123128Y62500D02*
G01X123128Y62772D01*
G01X123128Y62772D02*
G01X123200Y62700D01*
G01X123999Y62369D02*
G01X139000Y62369D01*
G01X139000Y62369D02*
G01X145615Y62369D01*
G01X145615Y62369D02*
G01X145615Y47628D01*
G01X145615Y47628D02*
G01X135000Y47628D01*
G01X134909Y47590D02*
G01X129909Y42590D01*
G01X129871Y42500D02*
G01X129871Y19770D01*
G01X127944Y13284D02*
G01X124014Y10663D01*
G01X96100Y14971D02*
G01X102099Y14971D01*
G01X102190Y15009D02*
G01X107190Y20009D01*
G01X107738Y20269D02*
G01X108499Y20269D01*
G01X110392Y21652D02*
G01X111009Y22269D01*
G01X111009Y22269D02*
G01X111761Y22269D01*
G01X113238Y22269D02*
G01X113999Y22269D01*
G01X113999Y22269D02*
G01X114761Y22269D01*
G01X116238Y22269D02*
G01X118261Y22269D01*
G01X118652Y22107D02*
G01X118769Y21990D01*
G01X118769Y21990D02*
G01X118769Y21239D01*
G01X121230Y21238D02*
G01X121230Y22500D01*
G01X120870Y23370D02*
G01X120392Y23847D01*
G01X119423Y24871D02*
G01X122099Y24871D01*
G01X122190Y24909D02*
G01X127190Y29909D01*
G01X127228Y29999D02*
G01X127228Y35999D01*
G01X127190Y36090D02*
G01X122190Y41090D01*
G01X122099Y41128D02*
G01X119099Y41128D01*
G01X119099Y41128D02*
G01X116099Y41128D01*
G01X116009Y41090D02*
G01X111009Y36090D01*
G01X110971Y35999D02*
G01X110971Y29999D01*
G01X111009Y29909D02*
G01X116009Y24909D01*
G01X116099Y24871D02*
G01X118576Y24871D01*
G01X118260Y24730D02*
G01X116239Y24730D01*
G01X111760Y24730D02*
G01X110500Y24730D01*
G01X109629Y24370D02*
G01X108652Y23392D01*
G01X107764Y22730D02*
G01X107739Y22730D01*
G01X107228Y22917D02*
G01X107228Y26099D01*
G01X107190Y26190D02*
G01X102190Y31190D01*
G01X102099Y31228D02*
G01X99100Y31228D01*
G01X99100Y31228D02*
G01X96100Y31228D01*
G01X96009Y31190D02*
G01X91009Y26190D01*
G01X90971Y26099D02*
G01X90971Y20099D01*
G01X91009Y20009D02*
G01X96009Y15009D01*
G01X116000Y44771D02*
G01X122000Y44771D01*
G01X122090Y44809D02*
G01X127090Y49809D01*
G01X127128Y49899D02*
G01X127128Y55899D01*
G01X127090Y55990D02*
G01X126933Y56147D01*
G01X122147Y60933D02*
G01X122090Y60990D01*
G01X122000Y61028D02*
G01X119000Y61028D01*
G01X119000Y61028D02*
G01X116000Y61028D01*
G01X115909Y60990D02*
G01X110909Y55990D01*
G01X110871Y55899D02*
G01X110871Y49899D01*
G01X110909Y49809D02*
G01X115909Y44809D01*
G01X96000Y34771D02*
G01X101999Y34771D01*
G01X102090Y34809D02*
G01X107090Y39809D01*
G01X107128Y39900D02*
G01X107128Y45900D01*
G01X107090Y45990D02*
G01X102090Y50990D01*
G01X101999Y51028D02*
G01X99000Y51028D01*
G01X99000Y51028D02*
G01X96000Y51028D01*
G01X95909Y50990D02*
G01X90909Y45990D01*
G01X90871Y45900D02*
G01X90871Y39900D01*
G01X90909Y39809D02*
G01X95909Y34809D01*
G01X130730Y46639D02*
G01X130730Y46761D01*
G01X130730Y48239D02*
G01X130730Y49561D01*
G01X130730Y51039D02*
G01X130730Y52260D01*
G01X130730Y53738D02*
G01X130730Y53960D01*
G01X130730Y55438D02*
G01X130730Y55560D01*
G01X128269Y55560D02*
G01X128269Y55438D01*
G01X128269Y53960D02*
G01X128269Y53738D01*
G01X128269Y52260D02*
G01X128269Y51039D01*
G01X128269Y49561D02*
G01X128269Y48239D01*
G01X128269Y46761D02*
G01X128269Y46639D01*
G01X102077Y11787D02*
G01X125699Y11787D01*
G01X82722Y13541D02*
G01X127356Y13541D01*
G01X84476Y15295D02*
G01X95723Y15295D01*
G01X102476Y15295D02*
G01X125837Y15295D01*
G01X86231Y17049D02*
G01X93968Y17049D01*
G01X104231Y17049D02*
G01X125660Y17049D01*
G01X54388Y18803D02*
G01X70971Y18803D01*
G01X87228Y18803D02*
G01X92214Y18803D01*
G01X105985Y18803D02*
G01X126520Y18803D01*
G01X55239Y20557D02*
G01X70971Y20557D01*
G01X87228Y20557D02*
G01X90971Y20557D01*
G01X109292Y20557D02*
G01X118565Y20557D01*
G01X121434Y20557D02*
G01X129871Y20557D01*
G01X56993Y22312D02*
G01X70971Y22312D01*
G01X87228Y22312D02*
G01X90971Y22312D01*
G01X121230Y22312D02*
G01X129871Y22312D01*
G01X57128Y24066D02*
G01X70971Y24066D01*
G01X87228Y24066D02*
G01X90971Y24066D01*
G01X107228Y24066D02*
G01X109325Y24066D01*
G01X120319Y24066D02*
G01X129871Y24066D01*
G01X57128Y25820D02*
G01X72638Y25820D01*
G01X85561Y25820D02*
G01X90971Y25820D01*
G01X107228Y25820D02*
G01X115098Y25820D01*
G01X123101Y25820D02*
G01X129871Y25820D01*
G01X57104Y27574D02*
G01X74392Y27574D01*
G01X83806Y27574D02*
G01X92393Y27574D01*
G01X105806Y27574D02*
G01X113344Y27574D01*
G01X124855Y27574D02*
G01X129871Y27574D01*
G01X55352Y29328D02*
G01X94147Y29328D01*
G01X104052Y29328D02*
G01X111590Y29328D01*
G01X126609Y29328D02*
G01X129871Y29328D01*
G01X59764Y31082D02*
G01X95901Y31082D01*
G01X102298Y31082D02*
G01X110971Y31082D01*
G01X127228Y31082D02*
G01X129871Y31082D01*
G01X61518Y32836D02*
G01X110971Y32836D01*
G01X127228Y32836D02*
G01X129871Y32836D01*
G01X62128Y34590D02*
G01X74227Y34590D01*
G01X83772Y34590D02*
G01X110971Y34590D01*
G01X127228Y34590D02*
G01X129871Y34590D01*
G01X62128Y36345D02*
G01X72473Y36345D01*
G01X85526Y36345D02*
G01X94373Y36345D01*
G01X103626Y36345D02*
G01X111263Y36345D01*
G01X126936Y36345D02*
G01X129871Y36345D01*
G01X62128Y38099D02*
G01X70871Y38099D01*
G01X87128Y38099D02*
G01X92619Y38099D01*
G01X105380Y38099D02*
G01X113017Y38099D01*
G01X125182Y38099D02*
G01X129871Y38099D01*
G01X60828Y39853D02*
G01X69465Y39853D01*
G01X87128Y39853D02*
G01X90880Y39853D01*
G01X107119Y39853D02*
G01X114771Y39853D01*
G01X123428Y39853D02*
G01X129871Y39853D01*
G01X62847Y41607D02*
G01X67711Y41607D01*
G01X87128Y41607D02*
G01X90871Y41607D01*
G01X107128Y41607D02*
G01X129871Y41607D01*
G01X59874Y43361D02*
G01X60871Y43361D01*
G01X87128Y43361D02*
G01X90871Y43361D01*
G01X107128Y43361D02*
G01X130680Y43361D01*
G01X60383Y45115D02*
G01X60871Y45115D01*
G01X86065Y45115D02*
G01X90871Y45115D01*
G01X107128Y45115D02*
G01X115602Y45115D01*
G01X122397Y45115D02*
G01X128297Y45115D01*
G01X130702Y45115D02*
G01X132434Y45115D01*
G01X59429Y46869D02*
G01X60871Y46869D01*
G01X84311Y46869D02*
G01X91788Y46869D01*
G01X106211Y46869D02*
G01X113848Y46869D01*
G01X124151Y46869D02*
G01X128210Y46869D01*
G01X130789Y46869D02*
G01X134188Y46869D01*
G01X57616Y48623D02*
G01X60966Y48623D01*
G01X74033Y48623D02*
G01X75442Y48623D01*
G01X82557Y48623D02*
G01X93542Y48623D01*
G01X104457Y48623D02*
G01X112094Y48623D01*
G01X125905Y48623D02*
G01X128269Y48623D01*
G01X130730Y48623D02*
G01X145615Y48623D01*
G01X56884Y50378D02*
G01X95296Y50378D01*
G01X102703Y50378D02*
G01X110871Y50378D01*
G01X127128Y50378D02*
G01X128066Y50378D01*
G01X130933Y50378D02*
G01X145615Y50378D01*
G01X55108Y52132D02*
G01X57112Y52132D01*
G01X59887Y52132D02*
G01X82702Y52132D01*
G01X86297Y52132D02*
G01X110871Y52132D01*
G01X127128Y52132D02*
G01X128269Y52132D01*
G01X130730Y52132D02*
G01X145615Y52132D01*
G01X53354Y53886D02*
G01X57269Y53886D01*
G01X59730Y53886D02*
G01X69069Y53886D01*
G01X71931Y53886D02*
G01X74832Y53886D01*
G01X87696Y53886D02*
G01X110871Y53886D01*
G01X127128Y53886D02*
G01X128269Y53886D01*
G01X130730Y53886D02*
G01X145615Y53886D01*
G01X52551Y55640D02*
G01X57269Y55640D01*
G01X59730Y55640D02*
G01X65871Y55640D01*
G01X87823Y55640D02*
G01X95078Y55640D01*
G01X102721Y55640D02*
G01X110871Y55640D01*
G01X127128Y55640D02*
G01X128224Y55640D01*
G01X130775Y55640D02*
G01X145615Y55640D01*
G01X51230Y57394D02*
G01X57269Y57394D01*
G01X59730Y57394D02*
G01X65871Y57394D01*
G01X86892Y57394D02*
G01X93324Y57394D01*
G01X104475Y57394D02*
G01X112313Y57394D01*
G01X127699Y57394D02*
G01X128571Y57394D01*
G01X130428Y57394D02*
G01X145615Y57394D01*
G01X51221Y59148D02*
G01X56576Y59148D01*
G01X59730Y59148D02*
G01X65871Y59148D01*
G01X87128Y59148D02*
G01X91570Y59148D01*
G01X106230Y59148D02*
G01X114067Y59148D01*
G01X127822Y59148D02*
G01X145615Y59148D01*
G01X61020Y60902D02*
G01X65871Y60902D01*
G01X87128Y60902D02*
G01X90771Y60902D01*
G01X107028Y60902D02*
G01X115821Y60902D01*
G01X126884Y60902D02*
G01X145615Y60902D01*
G01X61338Y62656D02*
G01X65871Y62656D01*
G01X87128Y62656D02*
G01X90771Y62656D01*
G01X107028Y62656D02*
G01X108871Y62656D01*
G01X123128Y62656D02*
G01X123246Y62656D01*
G01X86670Y64410D02*
G01X90771Y64410D01*
G01X107028Y64410D02*
G01X107248Y64410D01*
G01X70846Y66165D02*
G01X73083Y66165D01*
G01X84916Y66165D02*
G01X90883Y66165D01*
G01X72600Y67919D02*
G01X74837Y67919D01*
G01X83162Y67919D02*
G01X92637Y67919D01*
G01X74354Y69673D02*
G01X94391Y69673D01*
G01X145491Y47628D02*
G01X145491Y62369D01*
G01X143737Y47628D02*
G01X143737Y62369D01*
G01X141983Y47628D02*
G01X141983Y62369D01*
G01X140229Y47628D02*
G01X140229Y62369D01*
G01X138475Y47628D02*
G01X138475Y62369D01*
G01X136721Y47628D02*
G01X136721Y62369D01*
G01X134967Y47623D02*
G01X134967Y62369D01*
G01X133212Y45894D02*
G01X133212Y62369D01*
G01X131458Y44140D02*
G01X131458Y62369D01*
G01X129704Y19810D02*
G01X129704Y44479D01*
G01X129704Y57720D02*
G01X129704Y62369D01*
G01X127950Y19717D02*
G01X127950Y62369D01*
G01X126196Y12118D02*
G01X126196Y14603D01*
G01X126196Y18396D02*
G01X126196Y28914D01*
G01X126196Y37084D02*
G01X126196Y48914D01*
G01X126196Y61429D02*
G01X126196Y62369D01*
G01X124442Y10949D02*
G01X124442Y27160D01*
G01X124442Y38839D02*
G01X124442Y47160D01*
G01X124442Y61884D02*
G01X124442Y62369D01*
G01X122688Y10731D02*
G01X122688Y25406D01*
G01X122688Y40593D02*
G01X122688Y45406D01*
G01X122688Y61358D02*
G01X122688Y62371D01*
G01X120934Y10821D02*
G01X120934Y19409D01*
G01X120934Y23301D02*
G01X120934Y24871D01*
G01X120934Y41128D02*
G01X120934Y44771D01*
G01X120934Y61028D02*
G01X120934Y62371D01*
G01X119179Y10911D02*
G01X119179Y19321D01*
G01X119179Y41128D02*
G01X119179Y44771D01*
G01X119179Y61028D02*
G01X119179Y62371D01*
G01X117425Y11001D02*
G01X117425Y22269D01*
G01X117425Y24730D02*
G01X117425Y24871D01*
G01X117425Y41128D02*
G01X117425Y44771D01*
G01X117425Y61028D02*
G01X117425Y62371D01*
G01X115671Y11091D02*
G01X115671Y22074D01*
G01X115671Y24925D02*
G01X115671Y25246D01*
G01X115671Y40753D02*
G01X115671Y45046D01*
G01X115671Y60753D02*
G01X115671Y61990D01*
G01X113917Y11180D02*
G01X113917Y22269D01*
G01X113917Y25335D02*
G01X113917Y27001D01*
G01X113917Y38998D02*
G01X113917Y46801D01*
G01X113917Y58998D02*
G01X113917Y61371D01*
G01X112163Y11270D02*
G01X112163Y22104D01*
G01X112163Y24895D02*
G01X112163Y28755D01*
G01X112163Y37244D02*
G01X112163Y48555D01*
G01X112163Y57244D02*
G01X112163Y61371D01*
G01X110409Y11360D02*
G01X110409Y21668D01*
G01X110409Y24727D02*
G01X110409Y61371D01*
G01X108655Y11450D02*
G01X108655Y20278D01*
G01X108655Y23395D02*
G01X108655Y63469D01*
G01X106901Y11540D02*
G01X106901Y19719D01*
G01X106901Y26480D02*
G01X106901Y39619D01*
G01X106901Y46180D02*
G01X106901Y59819D01*
G01X105146Y11630D02*
G01X105146Y17965D01*
G01X105146Y28234D02*
G01X105146Y37865D01*
G01X105146Y47934D02*
G01X105146Y58065D01*
G01X103392Y11719D02*
G01X103392Y16211D01*
G01X103392Y29988D02*
G01X103392Y36111D01*
G01X103392Y49688D02*
G01X103392Y56311D01*
G01X101638Y11809D02*
G01X101638Y14971D01*
G01X101638Y31228D02*
G01X101638Y34771D01*
G01X101638Y51028D02*
G01X101638Y54871D01*
G01X99884Y11899D02*
G01X99884Y14971D01*
G01X99884Y31228D02*
G01X99884Y34771D01*
G01X99884Y51028D02*
G01X99884Y54871D01*
G01X98130Y11989D02*
G01X98130Y14971D01*
G01X98130Y31228D02*
G01X98130Y34771D01*
G01X98130Y51028D02*
G01X98130Y54871D01*
G01X96376Y12079D02*
G01X96376Y14971D01*
G01X96376Y31228D02*
G01X96376Y34771D01*
G01X96376Y51028D02*
G01X96376Y54871D01*
G01X94622Y12169D02*
G01X94622Y16396D01*
G01X94622Y29803D02*
G01X94622Y36096D01*
G01X94622Y49703D02*
G01X94622Y56096D01*
G01X94622Y69903D02*
G01X94622Y70371D01*
G01X92868Y12258D02*
G01X92868Y18150D01*
G01X92868Y28049D02*
G01X92868Y37850D01*
G01X92868Y47949D02*
G01X92868Y57850D01*
G01X92868Y68149D02*
G01X92868Y70371D01*
G01X91113Y12348D02*
G01X91113Y19904D01*
G01X91113Y26295D02*
G01X91113Y39604D01*
G01X91113Y46195D02*
G01X91113Y59604D01*
G01X91113Y66395D02*
G01X91113Y70371D01*
G01X89359Y12438D02*
G01X89359Y70103D01*
G01X87605Y12528D02*
G01X87605Y53653D01*
G01X87605Y56346D02*
G01X87605Y69969D01*
G01X85851Y12618D02*
G01X85851Y16670D01*
G01X85851Y25529D02*
G01X85851Y36670D01*
G01X85851Y45329D02*
G01X85851Y51896D01*
G01X85851Y65229D02*
G01X85851Y69969D01*
G01X84097Y12708D02*
G01X84097Y14916D01*
G01X84097Y27283D02*
G01X84097Y34916D01*
G01X84097Y47083D02*
G01X84097Y51639D01*
G01X84097Y66983D02*
G01X84097Y69894D01*
G01X82343Y12798D02*
G01X82343Y13161D01*
G01X82343Y29038D02*
G01X82343Y33161D01*
G01X82343Y48838D02*
G01X82343Y52391D01*
G01X82343Y68738D02*
G01X82343Y70349D01*
G01X80589Y12892D02*
G01X80589Y12971D01*
G01X80589Y29228D02*
G01X80589Y32871D01*
G01X80589Y49128D02*
G01X80589Y52771D01*
G01X80589Y69028D02*
G01X80589Y70371D01*
G01X78835Y29228D02*
G01X78835Y32871D01*
G01X78835Y49128D02*
G01X78835Y52771D01*
G01X78835Y69028D02*
G01X78835Y70371D01*
G01X77080Y29228D02*
G01X77080Y32871D01*
G01X77080Y49128D02*
G01X77080Y52771D01*
G01X77080Y69028D02*
G01X77080Y70371D01*
G01X75326Y28508D02*
G01X75326Y33491D01*
G01X75326Y48508D02*
G01X75326Y53391D01*
G01X75326Y68408D02*
G01X75326Y70371D01*
G01X73572Y26754D02*
G01X73572Y35245D01*
G01X73572Y48628D02*
G01X73572Y54371D01*
G01X73572Y66654D02*
G01X73572Y68891D01*
G01X71818Y24999D02*
G01X71818Y36999D01*
G01X71818Y48628D02*
G01X71818Y53431D01*
G01X71818Y64899D02*
G01X71818Y67137D01*
G01X70064Y17305D02*
G01X70064Y39254D01*
G01X70064Y48628D02*
G01X70064Y52632D01*
G01X70064Y64664D02*
G01X70064Y65383D01*
G01X68310Y18438D02*
G01X68310Y41008D01*
G01X68310Y48628D02*
G01X68310Y54371D01*
G01X66556Y18450D02*
G01X66556Y42371D01*
G01X66556Y48628D02*
G01X66556Y54371D01*
G01X64802Y18462D02*
G01X64802Y42371D01*
G01X64802Y48628D02*
G01X64802Y64371D01*
G01X63047Y18475D02*
G01X63047Y41807D01*
G01X63047Y48628D02*
G01X63047Y64366D01*
G01X61293Y18487D02*
G01X61293Y32612D01*
G01X61293Y39387D02*
G01X61293Y40769D01*
G01X61293Y48628D02*
G01X61293Y61456D01*
G01X61293Y62143D02*
G01X61293Y62612D01*
G01X59539Y18499D02*
G01X59539Y30858D01*
G01X59539Y46830D02*
G01X59539Y51510D01*
G01X57785Y18512D02*
G01X57785Y29371D01*
G01X57785Y48455D02*
G01X57785Y51254D01*
G01X56031Y18524D02*
G01X56031Y21350D01*
G01X56031Y28649D02*
G01X56031Y29371D01*
G01X56031Y51333D02*
G01X56031Y59768D01*
G01X54277Y18830D02*
G01X54277Y19595D01*
G01X54277Y52963D02*
G01X54277Y59768D01*
G01X52523Y55684D02*
G01X52523Y59768D01*
G54D12*
G01X65000Y9499D02*
G01X65848Y8651D01*
G01X65848Y3016D01*
G01X52999Y10499D02*
G01X52999Y10972D01*
G01X53194Y11167D01*
G01X40760Y11797D02*
G01X40760Y5158D01*
G01X39931Y4329D01*
G54D13*
G01X27999Y11499D02*
G01X27999Y11757D01*
G01X27277Y12480D01*
G54D10*
G01X25499Y68499D02*
G01X20000Y68499D01*
G01X55500Y50000D02*
G01X55499Y50000D01*
G01X51499Y53999D01*
G01X51499Y55000D01*
G01X50000Y56500D01*
G01X50000Y59000D01*
G01X48500Y60500D01*
G01X48000Y61000D01*
G01X43500Y61000D01*
G01X45200Y52300D02*
G01X44800Y52300D01*
G01X43499Y50999D01*
G01X42700Y50999D01*
G01X43500Y43499D02*
G01X43500Y42500D01*
G01X41499Y40499D01*
G01X63500Y44000D02*
G01X61499Y41999D01*
G01X53499Y41999D01*
G01X45200Y52300D02*
G01X44400Y53099D01*
G01X40300Y53099D01*
G01X48500Y58000D02*
G01X48500Y56999D01*
G01X50499Y54999D01*
G01X55499Y42999D02*
G01X40499Y57999D01*
G01X40499Y58099D01*
G01X55499Y44500D02*
G01X55499Y44500D01*
G01X44500Y55499D01*
G01X43999Y55999D01*
G01X43999Y60000D01*
G01X58000Y43500D02*
G01X45199Y56300D01*
G01X45199Y59799D01*
G01X58000Y44500D02*
G01X46199Y56300D01*
G01X46199Y59600D01*
G01X59000Y44500D02*
G01X47000Y56499D01*
G01X47000Y59999D01*
G01X59000Y45500D02*
G01X47799Y56700D01*
G01X47799Y59600D01*
G01X33000Y36000D02*
G01X32500Y35500D01*
G01X44500Y25499D02*
G01X44500Y24499D01*
G01X55500Y35500D02*
G01X56500Y35499D01*
G01X136000Y33000D02*
G01X137000Y31999D01*
G01X137000Y28999D01*
G01X15955Y33999D02*
G01X22299Y33999D01*
G01X22299Y34000D01*
G01X16177Y45599D02*
G01X16776Y45000D01*
G01X16999Y45000D01*
G01X28099Y62600D02*
G01X28099Y59099D01*
G01X28000Y58999D01*
G01X16177Y55599D02*
G01X16999Y55599D01*
G01X16177Y65599D02*
G01X16999Y65599D01*
G01X28099Y62600D02*
G01X28999Y63500D01*
G01X28999Y63999D01*
G01X52499Y61999D02*
G01X52499Y64999D01*
G01X53499Y65999D01*
G01X68599Y63699D02*
G01X69300Y63699D01*
G01X70499Y62500D01*
G01X70500Y62500D01*
G01X70499Y62500D02*
G01X70499Y60500D01*
G01X70499Y60500D02*
G01X70499Y58500D01*
G01X70499Y58500D02*
G01X70499Y56500D01*
G01X70499Y56500D02*
G01X70500Y56499D01*
G01X70500Y53999D01*
G01X73000Y44500D02*
G01X72500Y44000D01*
G01X71000Y44000D01*
G01X71000Y44000D02*
G01X69000Y44000D01*
G01X69083Y44000D02*
G01X66999Y44000D01*
G01X66999Y44000D02*
G01X64999Y44000D01*
G01X65000Y44000D02*
G01X64999Y43999D01*
G01X63499Y43999D01*
G01X73000Y18499D02*
G01X72999Y18499D01*
G01X69000Y14500D01*
G01X19500Y51499D02*
G01X19500Y49500D01*
G01X19500Y49500D02*
G01X19500Y47500D01*
G01X19500Y47500D02*
G01X19500Y45500D01*
G01X19500Y45500D02*
G01X20399Y44600D01*
G01X20399Y43800D01*
G01X30500Y44500D02*
G01X30999Y44500D01*
G01X35000Y40499D01*
G01X35500Y40499D01*
G01X35500Y40499D02*
G01X37500Y40499D01*
G01X37500Y40499D02*
G01X39499Y40499D01*
G01X39499Y40499D02*
G01X41499Y40499D01*
G01X58499Y52500D02*
G01X58499Y59199D01*
G01X57799Y59900D01*
G01X56199Y61799D02*
G01X59899Y61799D01*
G01X59899Y61799D01*
G01X104000Y73600D02*
G01X104000Y75000D01*
G01X103101Y76300D01*
G01X108000Y71400D02*
G01X106200Y71400D01*
G01X104000Y73600D01*
G01X108000Y69499D02*
G01X105000Y69499D01*
G01X104999Y69499D01*
G01X77998Y75600D02*
G01X79398Y76999D01*
G01X85000Y76999D01*
G01X86000Y75999D01*
G01X86000Y73499D01*
G01X129500Y54699D02*
G01X129500Y54699D01*
G01X129500Y56299D01*
G01X129500Y54699D02*
G01X129500Y52999D01*
G01X129500Y52999D01*
G01X129500Y52999D02*
G01X129500Y50500D01*
G01X129500Y50500D01*
G01X129500Y50300D02*
G01X129500Y52999D01*
G01X129500Y50300D02*
G01X129500Y47500D01*
G01X129500Y47500D02*
G01X129500Y47500D01*
G01X129500Y45900D01*
G01X120000Y20499D02*
G01X120000Y22500D01*
G01X119000Y23500D01*
G01X119000Y23500D02*
G01X115500Y23500D01*
G01X115500Y23500D02*
G01X112500Y23500D01*
G01X112613Y23500D02*
G01X110500Y23500D01*
G01X109000Y22000D01*
G01X109000Y22000D02*
G01X108499Y21499D01*
G01X107000Y21499D01*
G01X113900Y23899D02*
G01X113900Y23599D01*
G01X113999Y23500D01*
G01X121000Y16770D02*
G01X121000Y20499D01*
G01X128000Y27499D01*
G01X128000Y41500D01*
G01X131000Y44499D01*
G01X131000Y53999D01*
G01X134500Y57499D01*
G01X96500Y70499D02*
G01X96500Y73499D01*
G01X96500Y73499D01*
G01X102100Y71300D02*
G01X108700Y64699D01*
G01X112100Y64699D01*
G01X134500Y57499D02*
G01X130999Y57499D01*
G01X125499Y63000D01*
G01X117999Y63000D01*
G01X117999Y70200D01*
G01X123100Y71399D02*
G01X121062Y73437D01*
G01X121062Y76900D01*
G01X117999Y70200D02*
G01X119538Y71738D01*
G01X119538Y76900D01*
G01X103100Y76299D02*
G01X103799Y75600D01*
G01X105500Y75600D01*
G01X105500Y75600D02*
G01X106800Y76900D01*
G01X119538Y76900D01*
G01X108499Y70499D02*
G01X104000Y70499D01*
G01X102300Y72200D01*
G01X101600Y72200D01*
G01X45300Y48599D02*
G01X44099Y48599D01*
G01X42699Y47200D01*
G01X45299Y48599D02*
G01X45299Y48200D01*
G01X47500Y45999D01*
G01X50400Y42999D02*
G01X50400Y43099D01*
G01X47500Y45999D01*
G01X58500Y47000D02*
G01X60000Y45500D01*
G01X60000Y43999D01*
G01X58500Y42499D01*
G01X56000Y42499D01*
G01X55853Y42353D01*
G01X54646Y42353D01*
G01X54000Y42999D01*
G01X50400Y42999D01*
G01X56000Y51499D02*
G01X58500Y49000D01*
G01X58500Y47000D01*
G01X39500Y51000D02*
G01X39600Y50900D01*
G01X39600Y48999D01*
G01X39600Y48999D02*
G01X41399Y47200D01*
G01X42699Y47200D01*
G01X39600Y48999D02*
G01X39199Y49400D01*
G01X37799Y49400D01*
G01X35799Y49299D02*
G01X35899Y49399D01*
G01X37799Y49399D01*
G01X35799Y49299D02*
G01X32300Y49299D01*
G01X28500Y45499D01*
G01X28499Y47999D02*
G01X28623Y47999D01*
G01X29811Y46811D01*
G01X28499Y47999D02*
G01X28499Y49900D01*
G01X28399Y50000D01*
G01X28500Y51999D02*
G01X28500Y50100D01*
G01X28399Y50000D01*
G01X18000Y43499D02*
G01X18000Y57786D01*
G01X12143Y63643D01*
G01X14399Y63599D01*
G01X13822Y32043D02*
G01X14455Y32043D01*
G01X18000Y28500D01*
G01X20200Y28500D01*
G01X63000Y52699D02*
G01X63300Y52999D01*
G01X64999Y52999D01*
G01X67000Y52999D02*
G01X64999Y52999D01*
G01X67000Y52999D02*
G01X69000Y52999D01*
G01X70800Y52899D02*
G01X70699Y52999D01*
G01X69000Y52999D01*
G01X70799Y52899D02*
G01X73700Y50000D01*
G01X82000Y50000D01*
G01X88499Y43500D01*
G01X88499Y30499D01*
G01X88000Y29999D01*
G01X73499Y29999D01*
G01X68500Y25000D01*
G01X68500Y23500D01*
G01X45799Y67899D02*
G01X45899Y67999D01*
G01X47500Y67999D01*
G01X52199Y67899D02*
G01X52099Y67999D01*
G01X47500Y67999D01*
G01X45799Y67899D02*
G01X45699Y67999D01*
G01X44500Y67999D01*
G01X44500Y67999D02*
G01X42500Y67999D01*
G01X41000Y67999D01*
G01X42299Y68099D02*
G01X42199Y67999D01*
G01X38499Y67999D01*
G01X35999Y67999D02*
G01X38499Y67999D01*
G01X35999Y67999D02*
G01X32500Y67999D01*
G01X32549Y68049D02*
G01X28099Y72500D01*
G01X27499Y72500D01*
G01X13499Y70999D02*
G01X15000Y72499D01*
G01X27500Y72499D01*
G01X39499Y61000D02*
G01X38499Y62000D01*
G01X38499Y67999D01*
G01X39500Y61000D02*
G01X39000Y60500D01*
G01X39000Y59399D01*
G01X39000Y59399D02*
G01X37000Y57399D01*
G01X37000Y52999D01*
G01X38498Y57499D02*
G01X37790Y58190D01*
G01X37000Y52999D02*
G01X38999Y50999D01*
G01X39499Y50999D01*
G01X63000Y52699D02*
G01X58500Y48199D01*
G01X58500Y47000D01*
G01X63000Y52699D02*
G01X61700Y53999D01*
G01X61700Y56599D01*
G01X61500Y58499D02*
G01X61700Y58299D01*
G01X61700Y56599D01*
G01X61499Y58499D02*
G01X61599Y58599D01*
G01X61599Y60200D01*
G01X61700Y61999D02*
G01X61600Y61899D01*
G01X61600Y60199D01*
G01X98400Y72699D02*
G01X99300Y73600D01*
G01X104000Y73600D01*
G01X98400Y72699D02*
G01X97000Y74099D01*
G01X97000Y75500D01*
G01X96500Y76000D01*
G01X96000Y76000D01*
G01X90100Y76699D02*
G01X90799Y75999D01*
G01X96000Y75999D01*
G01X90100Y76699D02*
G01X87199Y76699D01*
G01X86599Y76099D01*
G01X86599Y74200D01*
G01X71900Y75600D02*
G01X65970Y69669D01*
G01X63510Y69669D01*
G01X63510Y69669D02*
G01X62430Y70749D01*
G01X62430Y73839D01*
G01X62430Y73839D02*
G01X63640Y75050D01*
G01X63640Y76514D01*
G01X63640Y76514D02*
G01X56401Y76514D01*
G01X57579Y73859D02*
G01X56401Y75037D01*
G01X56401Y76514D01*
G01X57579Y73859D02*
G01X52199Y68479D01*
G01X52199Y67899D01*
G01X80999Y71900D02*
G01X80999Y71799D01*
G01X87900Y71799D01*
G01X89499Y73399D01*
G01X89499Y73699D01*
G01X89500Y73699D02*
G01X89500Y73999D01*
G01X108000Y69501D02*
G01X108998Y69501D01*
G01X109499Y69998D01*
G01X109499Y70999D01*
G01X109100Y71400D01*
G01X108000Y71400D01*
G01X110999Y72200D02*
G01X110999Y69099D01*
G01X110300Y68399D01*
G54D14*
G01X129000Y68499D02*
G01X129000Y69499D01*
G01X129000Y67499D02*
G01X129000Y68499D01*
G01X129000Y69499D02*
G01X127100Y71399D01*
G01X123099Y71399D01*
G54D10*
G01X54000Y62000D02*
G01X54500Y62500D01*
G01X61199Y62500D01*
G01X61700Y61999D01*
G01X71899Y75000D02*
G01X71899Y74098D01*
G01X72999Y73001D01*
G01X78999Y73001D01*
G01X80099Y74101D01*
G01X80099Y75600D01*
G01X14399Y53499D02*
G01X17999Y53499D01*
G01X14399Y43499D02*
G01X18000Y43499D01*
G01X14399Y43643D02*
G01X14399Y37900D01*
G01X11998Y35500D01*
G01X11998Y32500D01*
G01X12456Y32043D01*
G01X13822Y32043D01*
G01X28500Y51999D02*
G01X27000Y53499D01*
G01X18000Y53499D01*
G01X12143Y63643D02*
G01X12143Y69643D01*
G01X13499Y70999D01*
G01X69000Y14499D02*
G01X68999Y14499D01*
G01X66499Y14499D01*
G01X66499Y14499D02*
G01X64499Y14499D01*
G01X64499Y14499D01*
G01X64499Y14499D02*
G01X62500Y14499D01*
G01X62499Y14499D01*
G01X62499Y14499D02*
G01X62499Y14499D01*
G01X60400Y14499D01*
G01X60400Y14499D02*
G01X58500Y14499D01*
G01X57499Y15499D01*
G01X58499Y23500D02*
G01X60499Y23500D01*
G01X62499Y23500D02*
G01X60499Y23500D01*
G01X62499Y23500D02*
G01X64499Y23500D01*
G01X66500Y23500D02*
G01X64499Y23500D01*
G01X66500Y23500D02*
G01X68499Y23500D01*
G01X58699Y60999D02*
G01X49499Y60999D01*
G01X48501Y62000D01*
G01X42499Y62000D01*
G01X39499Y59000D01*
G01X39499Y53001D01*
G01X42199Y50298D01*
G01X43200Y50298D01*
G01X92600Y75200D02*
G01X92600Y75000D01*
G01X88800Y71200D01*
G01X83499Y71200D01*
G01X86601Y74200D02*
G01X86601Y72201D01*
G01X82299Y72201D01*
G01X80099Y74400D01*
G01X80099Y75600D01*
G54D15*
G01X13687Y47199D02*
G01X14754Y47199D01*
G01X15821Y46133D01*
G01X15821Y45066D01*
G01X15465Y45955D02*
G01X15465Y44710D01*
G01X14754Y43999D01*
G01X13687Y43999D01*
G01X15110Y44888D02*
G01X15110Y46666D01*
G01X15173Y46729D01*
G01X15173Y46780D01*
G01X14754Y46666D02*
G01X14754Y43999D01*
G01X14399Y44532D02*
G01X14386Y47199D01*
G01X14043Y46666D02*
G01X14043Y43999D01*
G01X13687Y44532D02*
G01X13687Y47199D01*
G01X13332Y46310D02*
G01X13332Y44355D01*
G01X13687Y43999D01*
G01X12976Y45244D02*
G01X12976Y46488D01*
G01X13687Y47199D01*
G01X13332Y44355D02*
G01X12621Y45066D01*
G01X12621Y46133D01*
G01X15885Y45599D02*
G01X16469Y45599D01*
G01X14399Y43935D02*
G01X14399Y43351D01*
G01X13466Y35600D02*
G01X14533Y35600D01*
G01X15600Y34533D01*
G01X15600Y33466D01*
G01X15244Y34355D02*
G01X15244Y33111D01*
G01X14533Y32399D01*
G01X13466Y32399D01*
G01X14888Y33288D02*
G01X14888Y35066D01*
G01X14952Y35130D01*
G01X14952Y35181D01*
G01X14533Y35066D02*
G01X14533Y32399D01*
G01X14177Y32933D02*
G01X14165Y35600D01*
G01X13822Y35066D02*
G01X13822Y32399D01*
G01X13466Y32933D02*
G01X13466Y35600D01*
G01X13110Y34711D02*
G01X13110Y32755D01*
G01X13466Y32399D01*
G01X12755Y33644D02*
G01X12755Y34889D01*
G01X13466Y35600D01*
G01X13110Y32755D02*
G01X12399Y33466D01*
G01X12399Y34533D01*
G01X15663Y33999D02*
G01X16248Y33999D01*
G01X14177Y32336D02*
G01X14177Y31752D01*
G01X13687Y67199D02*
G01X14754Y67199D01*
G01X15821Y66132D01*
G01X15821Y65066D01*
G01X15465Y65955D02*
G01X15465Y64710D01*
G01X14754Y63999D01*
G01X13687Y63999D01*
G01X15110Y64888D02*
G01X15110Y66666D01*
G01X15173Y66729D01*
G01X15173Y66780D01*
G01X14754Y66666D02*
G01X14754Y63999D01*
G01X14399Y64532D02*
G01X14386Y67199D01*
G01X14043Y66666D02*
G01X14043Y63999D01*
G01X13687Y64532D02*
G01X13687Y67199D01*
G01X13332Y66310D02*
G01X13332Y64354D01*
G01X13687Y63999D01*
G01X12976Y65243D02*
G01X12976Y66488D01*
G01X13687Y67199D01*
G01X13332Y64354D02*
G01X12621Y65066D01*
G01X12621Y66132D01*
G01X15885Y65599D02*
G01X16469Y65599D01*
G01X14399Y63935D02*
G01X14399Y63351D01*
G01X13687Y57199D02*
G01X14754Y57199D01*
G01X15821Y56132D01*
G01X15821Y55066D01*
G01X15465Y55955D02*
G01X15465Y54710D01*
G01X14754Y53999D01*
G01X13687Y53999D01*
G01X15110Y54888D02*
G01X15110Y56666D01*
G01X15173Y56729D01*
G01X15173Y56780D01*
G01X14754Y56666D02*
G01X14754Y53999D01*
G01X14399Y54532D02*
G01X14386Y57199D01*
G01X14043Y56666D02*
G01X14043Y53999D01*
G01X13687Y54532D02*
G01X13687Y57199D01*
G01X13332Y56310D02*
G01X13332Y54354D01*
G01X13687Y53999D01*
G01X12976Y55243D02*
G01X12976Y56488D01*
G01X13687Y57199D01*
G01X13332Y54354D02*
G01X12621Y55066D01*
G01X12621Y56132D01*
G01X15885Y55599D02*
G01X16469Y55599D01*
G01X14399Y53935D02*
G01X14399Y53351D01*
G36*
G01X26778Y12514D02*
G01X37764Y11947D01*
G01X37759Y11847D01*
G01X28400Y10920D01*
G01X37617Y9051D01*
G01X37607Y8851D01*
G01X28248Y7924D01*
G01X37465Y6055D01*
G01X37455Y5855D01*
G01X28096Y4927D01*
G01X26398Y5013D01*
G01X26778Y12514D01*
G37*
G36*
G01X40430Y4293D02*
G01X29444Y4859D01*
G01X29449Y4959D01*
G01X38808Y5887D01*
G01X29591Y7755D01*
G01X29601Y7955D01*
G01X38960Y8883D01*
G01X29743Y10752D01*
G01X29753Y10951D01*
G01X39112Y11879D01*
G01X40810Y11793D01*
G01X40430Y4293D01*
G37*
G36*
G01X40261Y11831D02*
G01X51246Y11264D01*
G01X51241Y11164D01*
G01X41882Y10237D01*
G01X51100Y8368D01*
G01X51090Y8168D01*
G01X41731Y7241D01*
G01X50948Y5372D01*
G01X50938Y5172D01*
G01X41579Y4244D01*
G01X39881Y4330D01*
G01X40261Y11831D01*
G37*
G36*
G01X52695Y11201D02*
G01X63680Y10634D01*
G01X63675Y10535D01*
G01X54316Y9607D01*
G01X63534Y7738D01*
G01X63524Y7538D01*
G01X54165Y6611D01*
G01X63382Y4742D01*
G01X63372Y4542D01*
G01X54013Y3614D01*
G01X52315Y3701D01*
G01X52695Y11201D01*
G37*
G36*
G01X53813Y3615D02*
G01X42827Y4181D01*
G01X42832Y4281D01*
G01X52191Y5209D01*
G01X42974Y7077D01*
G01X42984Y7277D01*
G01X52343Y8205D01*
G01X43126Y10074D01*
G01X43136Y10273D01*
G01X52495Y11201D01*
G01X54193Y11115D01*
G01X53813Y3615D01*
G37*
G36*
G01X66347Y2980D02*
G01X55361Y3546D01*
G01X55366Y3646D01*
G01X64725Y4574D01*
G01X55508Y6442D01*
G01X55518Y6642D01*
G01X64877Y7570D01*
G01X55660Y9439D01*
G01X55670Y9638D01*
G01X65029Y10566D01*
G01X66726Y10480D01*
G01X66347Y2980D01*
G37*
G36*
G01X82280Y9514D02*
G01X93265Y8948D01*
G01X93260Y8848D01*
G01X83901Y7920D01*
G01X93118Y6051D01*
G01X93108Y5852D01*
G01X83749Y4924D01*
G01X92967Y3055D01*
G01X92957Y2855D01*
G01X83598Y1928D01*
G01X81900Y2014D01*
G01X82280Y9514D01*
G37*
G36*
G01X95931Y1293D02*
G01X84946Y1859D01*
G01X84951Y1959D01*
G01X94310Y2887D01*
G01X85093Y4756D01*
G01X85103Y4955D01*
G01X94462Y5883D01*
G01X85244Y7752D01*
G01X85255Y7952D01*
G01X94614Y8879D01*
G01X96311Y8793D01*
G01X95931Y1293D01*
G37*
G36*
G01X95763Y8831D02*
G01X106748Y8265D01*
G01X106743Y8165D01*
G01X97384Y7237D01*
G01X106601Y5368D01*
G01X106591Y5169D01*
G01X97232Y4241D01*
G01X106449Y2372D01*
G01X106439Y2172D01*
G01X97080Y1245D01*
G01X95383Y1331D01*
G01X95763Y8831D01*
G37*
G36*
G01X108197Y8201D02*
G01X119182Y7635D01*
G01X119177Y7535D01*
G01X109818Y6607D01*
G01X119035Y4738D01*
G01X119025Y4539D01*
G01X109666Y3611D01*
G01X118883Y1742D01*
G01X118873Y1542D01*
G01X109514Y615D01*
G01X107817Y701D01*
G01X108197Y8201D01*
G37*
G36*
G01X109314Y615D02*
G01X98329Y1181D01*
G01X98334Y1281D01*
G01X107693Y2209D01*
G01X98476Y4078D01*
G01X98486Y4277D01*
G01X107845Y5205D01*
G01X98627Y7074D01*
G01X98637Y7274D01*
G01X107996Y8201D01*
G01X109694Y8115D01*
G01X109314Y615D01*
G37*
G36*
G01X121848Y-19D02*
G01X110863Y546D01*
G01X110868Y646D01*
G01X120227Y1574D01*
G01X111009Y3443D01*
G01X111019Y3642D01*
G01X120378Y4570D01*
G01X111161Y6439D01*
G01X111171Y6639D01*
G01X120530Y7566D01*
G01X122228Y7480D01*
G01X121848Y-19D01*
G37*
G36*
G01X7610Y66900D02*
G01X7610Y52900D01*
G01X7500Y52900D01*
G01X6100Y65400D01*
G01X4700Y52900D01*
G01X4500Y52900D01*
G01X3100Y65400D01*
G01X1700Y52900D01*
G01X1500Y52900D01*
G01X100Y65400D01*
G01X100Y66900D01*
G01X7610Y66900D01*
G37*
G36*
G01X90Y49650D02*
G01X90Y63650D01*
G01X200Y63650D01*
G01X1600Y51150D01*
G01X3000Y63650D01*
G01X3200Y63650D01*
G01X4600Y51150D01*
G01X6000Y63650D01*
G01X6200Y63650D01*
G01X7600Y51150D01*
G01X7600Y49650D01*
G01X90Y49650D01*
G37*
G36*
G01X7610Y51200D02*
G01X7610Y37200D01*
G01X7500Y37200D01*
G01X6100Y49700D01*
G01X4700Y37200D01*
G01X4500Y37200D01*
G01X3100Y49700D01*
G01X1700Y37200D01*
G01X1500Y37200D01*
G01X100Y49700D01*
G01X100Y51200D01*
G01X7610Y51200D01*
G37*
G36*
G01X7610Y34150D02*
G01X7610Y20150D01*
G01X7500Y20150D01*
G01X6100Y32649D01*
G01X4700Y20150D01*
G01X4500Y20150D01*
G01X3100Y32649D01*
G01X1700Y20150D01*
G01X1500Y20150D01*
G01X100Y32649D01*
G01X100Y34150D01*
G01X7610Y34150D01*
G37*
G36*
G01X90Y33900D02*
G01X90Y47900D01*
G01X200Y47900D01*
G01X1600Y35400D01*
G01X3000Y47900D01*
G01X3200Y47900D01*
G01X4600Y35400D01*
G01X6000Y47900D01*
G01X6200Y47900D01*
G01X7600Y35400D01*
G01X7600Y33900D01*
G01X90Y33900D01*
G37*
G36*
G01X90Y16900D02*
G01X90Y30899D01*
G01X200Y30899D01*
G01X1600Y18400D01*
G01X3000Y30899D01*
G01X3200Y30899D01*
G01X4600Y18400D01*
G01X6000Y30899D01*
G01X6200Y30899D01*
G01X7600Y18400D01*
G01X7600Y16900D01*
G01X90Y16900D01*
G37*
G54D17*
G01X44500Y24499D03*
G01X137000Y28999D03*
G54D18*
G01X121062Y76900D03*
G01X119538Y76900D03*
G54D19*
G01X120300Y76900D03*
G36*
G01X77470Y24030D02*
G01X75970Y22530D01*
G01X75970Y19530D01*
G01X77470Y18030D01*
G01X80470Y18030D01*
G01X81970Y19530D01*
G01X81970Y22530D01*
G01X80470Y24030D01*
G01X77470Y24030D01*
G37*
G36*
G01X97469Y26029D02*
G01X95969Y24529D01*
G01X95969Y21529D01*
G01X97469Y20029D01*
G01X100469Y20029D01*
G01X101969Y21529D01*
G01X101969Y24529D01*
G01X100469Y26029D01*
G01X97469Y26029D01*
G37*
G36*
G01X117745Y36000D02*
G01X116245Y34500D01*
G01X116245Y31500D01*
G01X117745Y30000D01*
G01X120745Y30000D01*
G01X122245Y31500D01*
G01X122245Y34500D01*
G01X120745Y36000D01*
G01X117745Y36000D01*
G37*
G36*
G01X97420Y45920D02*
G01X95920Y44420D01*
G01X95920Y41420D01*
G01X97420Y39920D01*
G01X100420Y39920D01*
G01X101920Y41420D01*
G01X101920Y44420D01*
G01X100420Y45920D01*
G01X97420Y45920D01*
G37*
G36*
G01X77499Y44254D02*
G01X75999Y42754D01*
G01X75999Y39754D01*
G01X77499Y38254D01*
G01X80499Y38254D01*
G01X81999Y39754D01*
G01X81999Y42754D01*
G01X80499Y44254D01*
G01X77499Y44254D01*
G37*
G36*
G01X77745Y63999D02*
G01X76245Y62500D01*
G01X76245Y59500D01*
G01X77745Y58000D01*
G01X80745Y58000D01*
G01X82245Y59500D01*
G01X82245Y62500D01*
G01X80745Y63999D01*
G01X77745Y63999D01*
G37*
G36*
G01X97500Y65999D02*
G01X96000Y64499D01*
G01X96000Y61500D01*
G01X97500Y60000D01*
G01X100500Y60000D01*
G01X101999Y61500D01*
G01X101999Y64499D01*
G01X100500Y65999D01*
G01X97500Y65999D01*
G37*
G36*
G01X117745Y55999D02*
G01X116245Y54499D01*
G01X116245Y51499D01*
G01X117745Y49999D01*
G01X120745Y49999D01*
G01X122245Y51499D01*
G01X122245Y54499D01*
G01X120745Y55999D01*
G01X117745Y55999D01*
G37*
G36*
G01X55000Y38499D02*
G01X53500Y36999D01*
G01X53500Y33999D01*
G01X55000Y32499D01*
G01X58000Y32499D01*
G01X59500Y33999D01*
G01X59500Y36999D01*
G01X58000Y38499D01*
G01X55000Y38499D01*
G37*
G36*
G01X43000Y38499D02*
G01X41500Y36999D01*
G01X41500Y33999D01*
G01X43000Y32499D01*
G01X46000Y32499D01*
G01X47500Y33999D01*
G01X47500Y36999D01*
G01X46000Y38499D01*
G01X43000Y38499D01*
G37*
G36*
G01X31000Y38499D02*
G01X29500Y36999D01*
G01X29500Y33999D01*
G01X31000Y32499D01*
G01X34000Y32499D01*
G01X35500Y33999D01*
G01X35500Y36999D01*
G01X34000Y38499D01*
G01X31000Y38499D01*
G37*
G36*
G01X18500Y23000D02*
G01X17000Y21500D01*
G01X17000Y18500D01*
G01X18500Y17000D01*
G01X21500Y17000D01*
G01X23000Y18500D01*
G01X23000Y21500D01*
G01X21500Y23000D01*
G01X18500Y23000D01*
G37*
G54D11*
G75*
G01X54883Y62372D02*
G03X54830Y62230I1317J-572D01*
G01*
G75*
G01X53917Y62230D02*
G03X53887Y62372I-1417J-230D01*
G01*
G75*
G01X10128Y32152D02*
G03X10181Y32500I-1128J348D01*
G01*
G75*
G01X12825Y43137D02*
G03X13688Y42780I863J862D01*
G01*
G75*
G01X14755Y42780D02*
G03X15617Y43137I0J1219D01*
G01*
G75*
G01X19030Y43372D02*
G03X20400Y42364I1370J428D01*
G01*
G75*
G01X20400Y42364D02*
G03X21770Y43372I0J1436D01*
G01*
G75*
G01X24000Y43372D02*
G03X24128Y43500I0J128D01*
G01*
G75*
G01X24128Y52500D02*
G03X24091Y52591I-128J0D01*
G01*
G75*
G01X23091Y53591D02*
G03X23000Y53628I-91J-91D01*
G01*
G75*
G01X17446Y54235D02*
G03X18436Y55600I-446J1365D01*
G01*
G75*
G01X18436Y55600D02*
G03X18210Y56372I-1436J0D01*
G01*
G75*
G01X20867Y56372D02*
G03X23000Y55615I2133J2628D01*
G01*
G75*
G01X23000Y55615D02*
G03X25133Y56372I0J3385D01*
G01*
G75*
G01X38269Y53001D02*
G03X38629Y52131I1230J0D01*
G01*
G75*
G01X41329Y49429D02*
G03X42199Y49068I870J870D01*
G01*
G75*
G01X42463Y49068D02*
G03X43200Y48864I737J1232D01*
G01*
G75*
G01X43200Y48864D02*
G03X44636Y50300I0J1436D01*
G01*
G75*
G01X44636Y50300D02*
G03X44633Y50392I-1436J0D01*
G01*
G75*
G01X45108Y50867D02*
G03X45200Y50865I92J1433D01*
G01*
G75*
G01X45200Y50865D02*
G03X45775Y50985I0J1435D01*
G01*
G75*
G01X53333Y43426D02*
G03X52064Y42000I167J-1426D01*
G01*
G75*
G01X52064Y42000D02*
G03X52980Y40662I1436J0D01*
G01*
G75*
G01X44797Y42885D02*
G03X44936Y43500I-1297J615D01*
G01*
G75*
G01X44936Y43500D02*
G03X43500Y44936I-1436J0D01*
G01*
G75*
G01X43500Y44936D02*
G03X42612Y44628I0J-1436D01*
G01*
G75*
G01X35000Y44628D02*
G03X34878Y44541I0J-128D01*
G01*
G75*
G01X31870Y45370D02*
G03X31296Y45695I-870J-870D01*
G01*
G75*
G01X31296Y45695D02*
G03X30500Y45936I-796J-1195D01*
G01*
G75*
G01X30500Y45936D02*
G03X29064Y44500I0J-1436D01*
G01*
G75*
G01X29064Y44500D02*
G03X30500Y43064I1436J0D01*
G01*
G75*
G01X30500Y43064D02*
G03X30683Y43076I0J1436D01*
G01*
G75*
G01X30000Y41628D02*
G03X29909Y41591I0J-128D01*
G01*
G75*
G01X26909Y38591D02*
G03X26872Y38500I91J-91D01*
G01*
G75*
G01X26872Y32500D02*
G03X26911Y32408I128J0D01*
G01*
G75*
G01X29909Y29409D02*
G03X30000Y29372I91J91D01*
G01*
G75*
G01X31909Y27591D02*
G03X31872Y27500I91J-91D01*
G01*
G75*
G01X31872Y24415D02*
G03X29500Y25385I-2372J-2415D01*
G01*
G75*
G01X29500Y25385D02*
G03X26953Y24229I0J-3385D01*
G01*
G75*
G01X22991Y28191D02*
G03X22900Y28228I-91J-91D01*
G01*
G75*
G01X16900Y28228D02*
G03X16809Y28191I0J-128D01*
G01*
G75*
G01X11809Y23191D02*
G03X11772Y23100I91J-91D01*
G01*
G75*
G01X11772Y17100D02*
G03X11809Y17009I128J0D01*
G01*
G75*
G01X12604Y31537D02*
G03X13467Y31180I863J863D01*
G01*
G75*
G01X14533Y31180D02*
G03X15396Y31537I0J1220D01*
G01*
G75*
G01X16107Y32249D02*
G03X16266Y32445I-862J862D01*
G01*
G75*
G01X16266Y32445D02*
G03X16601Y32769I-666J1022D01*
G01*
G75*
G01X21561Y32769D02*
G03X22300Y32564I739J1231D01*
G01*
G75*
G01X22300Y32564D02*
G03X23736Y34000I0J1436D01*
G01*
G75*
G01X23736Y34000D02*
G03X22300Y35436I-1436J0D01*
G01*
G75*
G01X22300Y35436D02*
G03X21561Y35231I0J-1436D01*
G01*
G75*
G01X16601Y35231D02*
G03X16463Y35396I-1001J-698D01*
G01*
G75*
G01X15396Y36463D02*
G03X14533Y36820I-863J-863D01*
G01*
G75*
G01X13467Y36820D02*
G03X12604Y36463I0J-1220D01*
G01*
G75*
G01X11893Y35751D02*
G03X11734Y35555I862J-862D01*
G01*
G75*
G01X11734Y35555D02*
G03X11180Y34533I666J-1022D01*
G01*
G75*
G01X11180Y33467D02*
G03X11537Y32604I1220J0D01*
G01*
G75*
G01X82100Y12972D02*
G03X82191Y13009I0J128D01*
G01*
G75*
G01X87191Y18009D02*
G03X87228Y18100I-91J91D01*
G01*
G75*
G01X87228Y24100D02*
G03X87191Y24191I-128J0D01*
G01*
G75*
G01X82191Y29191D02*
G03X82100Y29228I-91J-91D01*
G01*
G75*
G01X76100Y29228D02*
G03X76009Y29191I0J-128D01*
G01*
G75*
G01X71009Y24191D02*
G03X70972Y24100I91J-91D01*
G01*
G75*
G01X69828Y18300D02*
G03X69701Y18428I-128J0D01*
G01*
G75*
G01X57091Y22409D02*
G03X57128Y22500I-91J91D01*
G01*
G75*
G01X57128Y27500D02*
G03X57091Y27591I-128J0D01*
G01*
G75*
G01X58000Y29372D02*
G03X58091Y29409I0J128D01*
G01*
G75*
G01X62091Y33409D02*
G03X62128Y33500I-91J91D01*
G01*
G75*
G01X62128Y38500D02*
G03X62091Y38591I-128J0D01*
G01*
G75*
G01X61500Y40769D02*
G03X62370Y41130I0J1231D01*
G01*
G75*
G01X70872Y38000D02*
G03X70909Y37909I128J0D01*
G01*
G75*
G01X75909Y32909D02*
G03X76000Y32872I91J91D01*
G01*
G75*
G01X82000Y32872D02*
G03X82091Y32909I0J128D01*
G01*
G75*
G01X87091Y37909D02*
G03X87128Y38000I-91J91D01*
G01*
G75*
G01X87128Y44000D02*
G03X87091Y44091I-128J0D01*
G01*
G75*
G01X82091Y49091D02*
G03X82000Y49128I-91J-91D01*
G01*
G75*
G01X76000Y49128D02*
G03X75909Y49091I0J-128D01*
G01*
G75*
G01X74091Y48591D02*
G03X74000Y48628I-91J-91D01*
G01*
G75*
G01X61000Y48628D02*
G03X60872Y48500I0J-128D01*
G01*
G75*
G01X59671Y43231D02*
G03X60436Y44500I-671J1269D01*
G01*
G75*
G01X60436Y44500D02*
G03X60346Y45000I-1436J0D01*
G01*
G75*
G01X60346Y45000D02*
G03X60436Y45500I-1346J500D01*
G01*
G75*
G01X60436Y45500D02*
G03X59348Y46893I-1436J0D01*
G01*
G75*
G01X56815Y49425D02*
G03X56936Y50000I-1315J575D01*
G01*
G75*
G01X56936Y50000D02*
G03X55848Y51393I-1436J0D01*
G01*
G75*
G01X52731Y55000D02*
G03X52370Y55870I-1231J0D01*
G01*
G75*
G01X51231Y59000D02*
G03X50961Y59769I-1231J0D01*
G01*
G75*
G01X56370Y59769D02*
G03X57269Y58566I1430J131D01*
G01*
G75*
G01X57269Y53239D02*
G03X57064Y52500I1231J-739D01*
G01*
G75*
G01X57064Y52500D02*
G03X58500Y51064I1436J0D01*
G01*
G75*
G01X58500Y51064D02*
G03X59936Y52500I0J1436D01*
G01*
G75*
G01X59936Y52500D02*
G03X59731Y53239I-1436J0D01*
G01*
G75*
G01X59731Y59200D02*
G03X59550Y59843I-1231J0D01*
G01*
G75*
G01X59550Y59843D02*
G03X59989Y60367I-850J1157D01*
G01*
G75*
G01X59989Y60367D02*
G03X61336Y61800I-89J1433D01*
G01*
G75*
G01X61336Y61800D02*
G03X61163Y62482I-1436J0D01*
G01*
G75*
G01X65872Y54500D02*
G03X66000Y54372I128J0D01*
G01*
G75*
G01X69114Y54372D02*
G03X69065Y54000I1386J-372D01*
G01*
G75*
G01X69065Y54000D02*
G03X70500Y52564I1435J0D01*
G01*
G75*
G01X70500Y52564D02*
G03X71936Y54000I0J1436D01*
G01*
G75*
G01X71936Y54000D02*
G03X71887Y54372I-1436J0D01*
G01*
G75*
G01X75909Y52809D02*
G03X76000Y52772I91J91D01*
G01*
G75*
G01X81952Y52772D02*
G03X84500Y51615I2548J2228D01*
G01*
G75*
G01X84500Y51615D02*
G03X87885Y55000I0J3385D01*
G01*
G75*
G01X87885Y55000D02*
G03X86782Y57500I-3385J0D01*
G01*
G75*
G01X87091Y57809D02*
G03X87128Y57900I-91J91D01*
G01*
G75*
G01X87128Y63900D02*
G03X87091Y63991I-128J0D01*
G01*
G75*
G01X82091Y68991D02*
G03X82000Y69028I-91J-91D01*
G01*
G75*
G01X76000Y69028D02*
G03X75909Y68991I0J-128D01*
G01*
G75*
G01X70108Y64628D02*
G03X69580Y64898I-808J-928D01*
G01*
G75*
G01X82328Y70372D02*
G03X83500Y69764I1172J828D01*
G01*
G75*
G01X83500Y69764D02*
G03X84240Y69969I0J1436D01*
G01*
G75*
G01X88801Y69969D02*
G03X89671Y70330I0J1231D01*
G01*
G75*
G01X95070Y70372D02*
G03X95072Y70353I1430J128D01*
G01*
G75*
G01X90809Y66091D02*
G03X90772Y66000I91J-91D01*
G01*
G75*
G01X90772Y60000D02*
G03X90809Y59909I128J0D01*
G01*
G75*
G01X95809Y54909D02*
G03X95900Y54872I91J91D01*
G01*
G75*
G01X101900Y54872D02*
G03X101991Y54909I0J128D01*
G01*
G75*
G01X106991Y59909D02*
G03X107028Y60000I-91J91D01*
G01*
G75*
G01X107830Y63830D02*
G03X108700Y63469I870J870D01*
G01*
G75*
G01X108872Y61500D02*
G03X109000Y61372I128J0D01*
G01*
G75*
G01X115000Y61372D02*
G03X115091Y61409I0J128D01*
G01*
G75*
G01X123000Y62372D02*
G03X123128Y62500I0J128D01*
G01*
G75*
G01X123200Y62700D02*
G03X124000Y62369I800J800D01*
G01*
G75*
G01X135000Y47628D02*
G03X134909Y47591I0J-128D01*
G01*
G75*
G01X129909Y42591D02*
G03X129872Y42500I91J-91D01*
G01*
G75*
G01X129872Y19771D02*
G03X129000Y19885I-872J-3271D01*
G01*
G75*
G01X129000Y19885D02*
G03X125615Y16500I0J-3385D01*
G01*
G75*
G01X125615Y16500D02*
G03X127945Y13284I3385J0D01*
G01*
G75*
G01X96009Y15009D02*
G03X96100Y14972I91J91D01*
G01*
G75*
G01X102100Y14972D02*
G03X102191Y15009I0J128D01*
G01*
G75*
G01X107191Y20009D02*
G03X107227Y20083I-91J91D01*
G01*
G75*
G01X107227Y20083D02*
G03X107739Y20269I-227J1417D01*
G01*
G75*
G01X108500Y20269D02*
G03X109347Y20607I0J1231D01*
G01*
G75*
G01X109347Y20607D02*
G03X110393Y21652I-347J1393D01*
G01*
G75*
G01X111761Y22269D02*
G03X112500Y22064I739J1231D01*
G01*
G75*
G01X112500Y22064D02*
G03X113239Y22269I0J1436D01*
G01*
G75*
G01X114761Y22269D02*
G03X115500Y22064I739J1231D01*
G01*
G75*
G01X115500Y22064D02*
G03X116239Y22269I0J1436D01*
G01*
G75*
G01X118261Y22269D02*
G03X118652Y22107I739J1231D01*
G01*
G75*
G01X118769Y21239D02*
G03X118564Y20500I1231J-739D01*
G01*
G75*
G01X118564Y20500D02*
G03X120000Y19064I1436J0D01*
G01*
G75*
G01X120000Y19064D02*
G03X121436Y20500I0J1436D01*
G01*
G75*
G01X121436Y20500D02*
G03X121231Y21239I-1436J0D01*
G01*
G75*
G01X121231Y22500D02*
G03X120870Y23370I-1231J0D01*
G01*
G75*
G01X120393Y23848D02*
G03X119424Y24872I-1393J-348D01*
G01*
G75*
G01X122100Y24872D02*
G03X122191Y24909I0J128D01*
G01*
G75*
G01X127191Y29909D02*
G03X127228Y30000I-91J91D01*
G01*
G75*
G01X127228Y36000D02*
G03X127191Y36091I-128J0D01*
G01*
G75*
G01X122191Y41091D02*
G03X122100Y41128I-91J-91D01*
G01*
G75*
G01X116100Y41128D02*
G03X116009Y41091I0J-128D01*
G01*
G75*
G01X111009Y36091D02*
G03X110972Y36000I91J-91D01*
G01*
G75*
G01X110972Y30000D02*
G03X111009Y29909I128J0D01*
G01*
G75*
G01X116009Y24909D02*
G03X116100Y24872I91J91D01*
G01*
G75*
G01X118576Y24872D02*
G03X118261Y24731I424J-1372D01*
G01*
G75*
G01X116239Y24731D02*
G03X115500Y24936I-739J-1231D01*
G01*
G75*
G01X115500Y24936D02*
G03X114985Y24840I0J-1436D01*
G01*
G75*
G01X114985Y24840D02*
G03X113900Y25335I-1085J-940D01*
G01*
G75*
G01X113900Y25335D02*
G03X112860Y24890I0J-1435D01*
G01*
G75*
G01X112860Y24890D02*
G03X112500Y24936I-360J-1390D01*
G01*
G75*
G01X112500Y24936D02*
G03X111761Y24731I0J-1436D01*
G01*
G75*
G01X110500Y24731D02*
G03X109630Y24370I0J-1231D01*
G01*
G75*
G01X108652Y23393D02*
G03X107764Y22731I348J-1393D01*
G01*
G75*
G01X107739Y22731D02*
G03X107228Y22917I-739J-1231D01*
G01*
G75*
G01X107228Y26100D02*
G03X107191Y26191I-128J0D01*
G01*
G75*
G01X102191Y31191D02*
G03X102100Y31228I-91J-91D01*
G01*
G75*
G01X96100Y31228D02*
G03X96009Y31191I0J-128D01*
G01*
G75*
G01X91009Y26191D02*
G03X90972Y26100I91J-91D01*
G01*
G75*
G01X90972Y20100D02*
G03X91009Y20009I128J0D01*
G01*
G75*
G01X115909Y44809D02*
G03X116000Y44772I91J91D01*
G01*
G75*
G01X122000Y44772D02*
G03X122091Y44809I0J128D01*
G01*
G75*
G01X127091Y49809D02*
G03X127128Y49900I-91J91D01*
G01*
G75*
G01X127128Y55900D02*
G03X127091Y55991I-128J0D01*
G01*
G75*
G01X126934Y56148D02*
G03X127885Y58500I-2434J2352D01*
G01*
G75*
G01X127885Y58500D02*
G03X124500Y61885I-3385J0D01*
G01*
G75*
G01X124500Y61885D02*
G03X122148Y60934I0J-3385D01*
G01*
G75*
G01X122091Y60991D02*
G03X122000Y61028I-91J-91D01*
G01*
G75*
G01X116000Y61028D02*
G03X115909Y60991I0J-128D01*
G01*
G75*
G01X110909Y55991D02*
G03X110872Y55900I91J-91D01*
G01*
G75*
G01X110872Y49900D02*
G03X110909Y49809I128J0D01*
G01*
G75*
G01X95909Y34809D02*
G03X96000Y34772I91J91D01*
G01*
G75*
G01X102000Y34772D02*
G03X102091Y34809I0J128D01*
G01*
G75*
G01X107091Y39809D02*
G03X107128Y39900I-91J91D01*
G01*
G75*
G01X107128Y45900D02*
G03X107091Y45991I-128J0D01*
G01*
G75*
G01X102091Y50991D02*
G03X102000Y51028I-91J-91D01*
G01*
G75*
G01X96000Y51028D02*
G03X95909Y50991I0J-128D01*
G01*
G75*
G01X90909Y45991D02*
G03X90872Y45900I91J-91D01*
G01*
G75*
G01X90872Y39900D02*
G03X90909Y39809I128J0D01*
G01*
G75*
G01X129500Y44464D02*
G03X130936Y45900I0J1436D01*
G01*
G75*
G01X130936Y45900D02*
G03X130731Y46639I-1436J0D01*
G01*
G75*
G01X130731Y46761D02*
G03X130936Y47500I-1231J739D01*
G01*
G75*
G01X130936Y47500D02*
G03X130731Y48239I-1436J0D01*
G01*
G75*
G01X130731Y49561D02*
G03X130936Y50300I-1231J739D01*
G01*
G75*
G01X130936Y50300D02*
G03X130731Y51039I-1436J0D01*
G01*
G75*
G01X130731Y52261D02*
G03X130936Y53000I-1231J739D01*
G01*
G75*
G01X130936Y53000D02*
G03X130731Y53739I-1436J0D01*
G01*
G75*
G01X130731Y53961D02*
G03X130936Y54700I-1231J739D01*
G01*
G75*
G01X130936Y54700D02*
G03X130731Y55439I-1436J0D01*
G01*
G75*
G01X130731Y55561D02*
G03X130936Y56300I-1231J739D01*
G01*
G75*
G01X130936Y56300D02*
G03X129500Y57735I-1436J0D01*
G01*
G75*
G01X129500Y57735D02*
G03X128064Y56300I0J-1435D01*
G01*
G75*
G01X128064Y56300D02*
G03X128269Y55561I1436J0D01*
G01*
G75*
G01X128269Y55439D02*
G03X128064Y54700I1231J-739D01*
G01*
G75*
G01X128064Y54700D02*
G03X128269Y53961I1436J0D01*
G01*
G75*
G01X128269Y53739D02*
G03X128064Y53000I1231J-739D01*
G01*
G75*
G01X128064Y53000D02*
G03X128269Y52261I1436J0D01*
G01*
G75*
G01X128269Y51039D02*
G03X128064Y50300I1231J-739D01*
G01*
G75*
G01X128064Y50300D02*
G03X128269Y49561I1436J0D01*
G01*
G75*
G01X128269Y48239D02*
G03X128064Y47500I1231J-739D01*
G01*
G75*
G01X128064Y47500D02*
G03X128269Y46761I1436J0D01*
G01*
G75*
G01X128269Y46639D02*
G03X128064Y45900I1231J-739D01*
G01*
G75*
G01X128064Y45900D02*
G03X129500Y44464I1436J0D01*
G01*

%LPD*%
G36*
G01X53000Y27499D02*
G01X36500Y27499D01*
G01X34500Y25499D01*
G01X34500Y23500D01*
G01X36500Y21500D01*
G01X53000Y21500D01*
G01X54499Y23500D01*
G01X54499Y25499D01*
G01X53000Y27499D01*
G37*

%LPD*%
G36*
G01X139303Y43855D02*
G01X137311Y44030D01*
G01X135686Y42666D01*
G01X134509Y29217D01*
G01X133768Y20750D01*
G01X133420Y16765D01*
G01X133332Y15769D01*
G01X134696Y14144D01*
G01X136688Y13969D01*
G01X138313Y15333D01*
G01X139446Y28284D01*
G01X140667Y42230D01*
G01X139303Y43855D01*
G37*
G54D20*
G01X34000Y75000D03*
G01X50000Y74900D03*
G54D21*
G01X131000Y68000D03*
G01X133000Y68000D03*
G01X132000Y74999D03*
G01X132000Y72999D03*
G36*
G01X64297Y67917D02*
G01X62722Y67917D01*
G01X62722Y66342D01*
G01X64297Y66342D01*
G01X64297Y67917D01*
G37*
G54D23*
G01X63510Y69669D03*
G01X60970Y67129D03*
G01X60970Y69669D03*
G01X58430Y67129D03*
G01X58430Y69669D03*
G01X55890Y67129D03*
G01X55890Y69669D03*
G54D24*
G01X57579Y73859D03*
G01X62430Y73839D03*
G54D16*
G01X5999Y26099D03*
G01X64999Y9500D03*
G01X53000Y10500D03*
G01X41000Y11500D03*
G01X28000Y11500D03*
G01X17300Y21400D03*
G01X20000Y68499D03*
G01X25499Y68499D03*
G01X43499Y60999D03*
G01X55499Y49999D03*
G01X59899Y61799D03*
G01X56199Y61799D03*
G01X57799Y59900D03*
G01X58499Y52500D03*
G01X41499Y40500D03*
G01X39499Y40500D03*
G01X37499Y40500D03*
G01X35499Y40500D03*
G01X30499Y44500D03*
G01X20399Y43800D03*
G01X19499Y45500D03*
G01X19499Y47500D03*
G01X19499Y49500D03*
G01X19499Y51500D03*
G01X57499Y15500D03*
G01X60400Y14499D03*
G01X62499Y14500D03*
G01X64499Y14499D03*
G01X66499Y14499D03*
G01X69000Y14500D03*
G01X73000Y18500D03*
G01X63499Y43999D03*
G01X65000Y43999D03*
G01X67000Y43999D03*
G01X69000Y43999D03*
G01X71000Y43999D03*
G01X73000Y44500D03*
G01X70500Y53999D03*
G01X70499Y56500D03*
G01X70499Y58500D03*
G01X70499Y60500D03*
G01X70500Y62500D03*
G01X68599Y63699D03*
G01X53499Y65999D03*
G01X52499Y61999D03*
G01X29000Y63999D03*
G01X17000Y65599D03*
G01X17000Y55599D03*
G01X28000Y58999D03*
G01X28099Y62600D03*
G01X17000Y44999D03*
G01X7099Y35099D03*
G01X7299Y58899D03*
G01X7199Y49499D03*
G01X109000Y7499D03*
G01X96000Y8499D03*
G01X83000Y8499D03*
G01X33000Y35999D03*
G01X44499Y25500D03*
G01X44499Y35500D03*
G01X55499Y35500D03*
G01X136000Y32999D03*
G01X77500Y23699D03*
G01X96699Y24899D03*
G01X116500Y31599D03*
G01X96200Y41500D03*
G01X77599Y43999D03*
G01X116500Y54399D03*
G01X76500Y59600D03*
G01X96599Y64799D03*
G01X22300Y33999D03*
G01X47799Y59600D03*
G01X59000Y44500D03*
G01X47000Y59999D03*
G01X59000Y45500D03*
G01X58000Y44500D03*
G01X46199Y59600D03*
G01X58000Y43500D03*
G01X45199Y59799D03*
G01X55499Y44500D03*
G01X44000Y59999D03*
G01X55499Y42999D03*
G01X40499Y58099D03*
G01X48499Y57999D03*
G01X50499Y54999D03*
G01X45199Y52300D03*
G01X40300Y53099D03*
G01X53499Y41999D03*
G01X43499Y43500D03*
G01X42700Y50999D03*
G01X103999Y73600D03*
G01X103100Y76300D03*
G01X107999Y71400D03*
G01X107999Y69499D03*
G01X104999Y69499D03*
G01X85999Y73499D03*
G01X129500Y54699D03*
G01X129500Y56299D03*
G01X129500Y52999D03*
G01X129500Y50300D03*
G01X129500Y47500D03*
G01X129500Y45900D03*
G01X119999Y20500D03*
G01X118999Y23500D03*
G01X115500Y23500D03*
G01X112500Y23500D03*
G01X108999Y21999D03*
G01X106999Y21500D03*
G01X113900Y23899D03*
G01X120999Y16770D03*
G01X134500Y57500D03*
G01X96500Y70499D03*
G01X96500Y73499D03*
G01X102100Y71300D03*
G01X112100Y64699D03*
G01X117999Y70200D03*
G01X123099Y71399D03*
G01X105500Y75600D03*
G01X108500Y70499D03*
G01X101600Y72200D03*
G01X58700Y60999D03*
G01X43199Y50299D03*
G01X45300Y48599D03*
G01X42700Y47200D03*
G01X47499Y45999D03*
G01X50400Y42999D03*
G01X58499Y46999D03*
G01X56000Y51500D03*
G01X39499Y50999D03*
G01X39600Y48999D03*
G01X37799Y49399D03*
G01X35799Y49299D03*
G01X28499Y45500D03*
G01X28499Y47999D03*
G01X28399Y49999D03*
G01X28499Y51999D03*
G01X20200Y28500D03*
G01X58499Y23500D03*
G01X60499Y23500D03*
G01X62499Y23500D03*
G01X64499Y23500D03*
G01X66500Y23500D03*
G01X68500Y23500D03*
G01X63000Y52699D03*
G01X65000Y52999D03*
G01X67000Y52999D03*
G01X69000Y52999D03*
G01X70800Y52900D03*
G01X45799Y67900D03*
G01X47499Y67999D03*
G01X52199Y67900D03*
G01X44499Y67999D03*
G01X41000Y67999D03*
G01X42300Y68099D03*
G01X38499Y67999D03*
G01X36000Y67999D03*
G01X32499Y67999D03*
G01X27499Y72499D03*
G01X13499Y70999D03*
G01X39499Y60999D03*
G01X39000Y59399D03*
G01X37000Y52999D03*
G01X38499Y57500D03*
G01X61700Y56600D03*
G01X61499Y58500D03*
G01X61599Y60200D03*
G01X61700Y61999D03*
G01X98400Y72699D03*
G01X95999Y76000D03*
G01X90100Y76699D03*
G01X86599Y74200D03*
G01X92599Y75200D03*
G01X83500Y71200D03*
G01X80999Y71900D03*
G01X89500Y73999D03*
G01X110999Y72200D03*
G01X110300Y68399D03*
G01X129000Y68499D03*
G01X129000Y69499D03*
G01X129000Y67499D03*
G01X54000Y61999D03*
G01X118990Y71463D03*
G01X116999Y71499D03*
G01X116999Y68999D03*
G01X118999Y68999D03*
G01X121700Y7099D03*
G54D17*
G01X78098Y75600D02*
G01X77899Y75600D01*
G01X76099Y75600D02*
G01X75900Y75600D01*
G01X74100Y75600D02*
G01X73901Y75600D01*
G01X71900Y75200D02*
G01X71900Y76000D01*
G01X80099Y75200D02*
G01X80099Y76000D01*
G01X63640Y76014D02*
G01X63640Y77014D01*
G01X56401Y76014D02*
G01X56401Y77014D01*
G54D21*
G01X137149Y74000D02*
G01X137149Y74700D01*
G01X142850Y74000D02*
G01X142850Y74700D01*
G01X137149Y70800D02*
G01X137149Y71500D01*
G01X137149Y67300D02*
G01X137149Y68000D01*
G01X142850Y67300D02*
G01X142850Y68000D01*
M00*
M02*
