;Layer: Drill PTH
;EasyEDA v6.3.30, 2020-03-21T18:53:40+08:00
;c5f63f6c624d440bb2292f988f7b391a,d4aa0ff59f9544bb86dfcbd96f28fb4a,05
;Gerber Generator version 0.2
M48
METRIC,LZ,000.000
;Holesize 1 = 0.305 METRIC
T01C0.305
;Holesize 2 = 0.600 METRIC
T02C0.600
;Holesize 3 = 0.701 METRIC
T03C0.701
;Holesize 4 = 0.800 METRIC
T04C0.800
;Holesize 5 = 0.889 METRIC
T05C0.889
;Holesize 6 = 0.901 METRIC
T06C0.901
;Holesize 7 = 0.915 METRIC
T07C0.915
%
G05
G90
T01
X+005999Y+026099
X+064999Y+009500
X+053000Y+010500
X+041000Y+011500
X+028000Y+011500
X+017300Y+021400
X+020000Y+068499
X+025499Y+068499
X+043499Y+060999
X+055499Y+049999
X+059899Y+061799
X+056199Y+061799
X+057799Y+059900
X+058499Y+052500
X+041499Y+040500
X+039499Y+040500
X+037499Y+040500
X+035499Y+040500
X+030499Y+044500
X+020399Y+043800
X+019499Y+045500
X+019499Y+047500
X+019499Y+049500
X+019499Y+051500
X+057499Y+015500
X+060400Y+014499
X+062499Y+014500
X+064499Y+014499
X+066499Y+014499
X+069000Y+014500
X+073000Y+018500
X+063499Y+043999
X+065000Y+043999
X+067000Y+043999
X+069000Y+043999
X+071000Y+043999
X+073000Y+044500
X+070500Y+053999
X+070499Y+056500
X+070499Y+058500
X+070499Y+060500
X+070500Y+062500
X+068599Y+063699
X+053499Y+065999
X+052499Y+061999
X+029000Y+063999
X+017000Y+065599
X+017000Y+055599
X+028000Y+058999
X+028099Y+062600
X+017000Y+044999
X+007099Y+035099
X+007299Y+058899
X+007199Y+049499
X+109000Y+007499
X+096000Y+008499
X+083000Y+008499
X+033000Y+035999
X+044499Y+025500
X+044499Y+035500
X+055499Y+035500
X+136000Y+032999
X+077500Y+023699
X+096699Y+024899
X+116500Y+031599
X+096200Y+041500
X+077599Y+043999
X+116500Y+054399
X+076500Y+059600
X+096599Y+064799
X+022300Y+033999
X+047799Y+059600
X+059000Y+044500
X+047000Y+059999
X+059000Y+045500
X+058000Y+044500
X+046199Y+059600
X+058000Y+043500
X+045199Y+059799
X+055499Y+044500
X+044000Y+059999
X+055499Y+042999
X+040499Y+058099
X+048499Y+057999
X+050499Y+054999
X+045199Y+052300
X+040300Y+053099
X+053499Y+041999
X+043499Y+043500
X+042700Y+050999
X+103999Y+073600
X+103100Y+076300
X+107999Y+071400
X+107999Y+069499
X+104999Y+069499
X+085999Y+073499
X+129500Y+054699
X+129500Y+056299
X+129500Y+052999
X+129500Y+050300
X+129500Y+047500
X+129500Y+045900
X+119999Y+020500
X+118999Y+023500
X+115500Y+023500
X+112500Y+023500
X+108999Y+021999
X+106999Y+021500
X+113900Y+023899
X+120999Y+016770
X+134500Y+057500
X+096500Y+070499
X+096500Y+073499
X+102100Y+071300
X+112100Y+064699
X+117999Y+070200
X+123099Y+071399
X+105500Y+075600
X+108500Y+070499
X+101600Y+072200
X+058700Y+060999
X+043199Y+050299
X+045300Y+048599
X+042700Y+047200
X+047499Y+045999
X+050400Y+042999
X+058499Y+046999
X+056000Y+051500
X+039499Y+050999
X+039600Y+048999
X+037799Y+049399
X+035799Y+049299
X+028499Y+045500
X+028499Y+047999
X+028399Y+049999
X+028499Y+051999
X+020200Y+028500
X+058499Y+023500
X+060499Y+023500
X+062499Y+023500
X+064499Y+023500
X+066500Y+023500
X+068500Y+023500
X+063000Y+052699
X+065000Y+052999
X+067000Y+052999
X+069000Y+052999
X+070800Y+052900
X+045799Y+067900
X+047499Y+067999
X+052199Y+067900
X+044499Y+067999
X+041000Y+067999
X+042300Y+068099
X+038499Y+067999
X+036000Y+067999
X+032499Y+067999
X+027499Y+072499
X+013499Y+070999
X+039499Y+060999
X+039000Y+059399
X+037000Y+052999
X+038499Y+057500
X+061700Y+056600
X+061499Y+058500
X+061599Y+060200
X+061700Y+061999
X+098400Y+072699
X+095999Y+076000
X+090100Y+076699
X+086599Y+074200
X+092599Y+075200
X+083500Y+071200
X+080999Y+071900
X+089500Y+073999
X+110999Y+072200
X+110300Y+068399
X+129000Y+068499
X+129000Y+069499
X+129000Y+067499
X+054000Y+061999
X+118990Y+071463
X+116999Y+071499
X+116999Y+068999
X+118999Y+068999
X+121700Y+007099
T02
X+063640Y+076964G85X+063640Y+076064
X+056401Y+076964G85X+056401Y+076064
X+057579Y+073859
X+062430Y+073839
T03
X+077899Y+075600G85X+078100Y+075600
X+075899Y+075600G85X+076100Y+075600
X+073899Y+075600G85X+074100Y+075600
X+071899Y+076000G85X+071899Y+075199
X+080100Y+076000G85X+080100Y+075199
T04
X+033999Y+075000
X+049999Y+074899
T05
X+063510Y+067130
X+063510Y+069670
X+060970Y+067130
X+060970Y+069670
X+058430Y+067130
X+058430Y+069670
X+055890Y+067130
X+055890Y+069670
T06
X+137149Y+074649G85X+137149Y+074050
X+142849Y+074649G85X+142849Y+074050
X+137149Y+071449G85X+137149Y+070850
X+137149Y+067950G85X+137149Y+067350
X+142849Y+067950G85X+142849Y+067350
T07
X+131000Y+067999
X+133000Y+067999
X+132000Y+075000
X+132000Y+073000
M30
