0
SECTION
2
HEADER
9
$INSUNITS
70
4
9
$ACADVER
1
AC1014
9
$HANDSEED
5
FFFF
0
ENDSEC
0
SECTION
2
TABLES
0
TABLE
2
VPORT
5
8
100
AcDbSymbolTable
0
ENDTAB
0
TABLE
2
LTYPE
5
5
100
AcDbSymbolTable
0
LTYPE
5
14
100
AcDbSymbolTableRecord
100
AcDbLinetypeTableRecord
2
BYBLOCK
70
0
0
LTYPE
5
15
100
AcDbSymbolTableRecord
100
AcDbLinetypeTableRecord
2
BYLAYER
70
0
0
ENDTAB
0
TABLE
2
LAYER
5
2
100
AcDbSymbolTable
70
2
0
LAYER
5
50
100
AcDbSymbolTableRecord
100
AcDbLayerTableRecord
2
0
70
0
6
CONTINUOUS
0
ENDTAB
0
TABLE
2
STYLE
5
3
100
AcDbSymbolTable
70
1
0
STYLE
5
11
100
AcDbSymbolTableRecord
100
AcDbTextStyleTableRecord
2
STANDARD
70
0
0
ENDTAB
0
TABLE
2
VIEW
5
6
100
AcDbSymbolTable
70
0
0
ENDTAB
0
TABLE
2
UCS
5
7
100
AcDbSymbolTable
70
0
0
ENDTAB
0
TABLE
2
APPID
5
9
100
AcDbSymbolTable
70
2
0
APPID
5
12
100
AcDbSymbolTableRecord
100
AcDbRegAppTableRecord
2
ACAD
70
0
0
ENDTAB
0
TABLE
2
DIMSTYLE
5
A
100
AcDbSymbolTable
70
1
0
ENDTAB
0
TABLE
2
BLOCK_RECORD
5
1
100
AcDbSymbolTable
70
1
0
BLOCK_RECORD
5
1F
100
AcDbSymbolTableRecord
100
AcDbBlockTableRecord
2
*MODEL_SPACE
0
BLOCK_RECORD
5
1B
100
AcDbSymbolTableRecord
100
AcDbBlockTableRecord
2
*PAPER_SPACE
0
ENDTAB
0
ENDSEC
0
SECTION
2
BLOCKS
0
BLOCK
5
20
100
AcDbEntity
100
AcDbBlockBegin
2
*MODEL_SPACE
0
ENDBLK
5
21
100
AcDbEntity
100
AcDbBlockEnd
0
BLOCK
5
1C
100
AcDbEntity
100
AcDbBlockBegin
2
*PAPER_SPACE
0
ENDBLK
5
1D
100
AcDbEntity
100
AcDbBlockEnd
0
ENDSEC
0
SECTION
2
ENTITIES
0
LWPOLYLINE
5
100
100
AcDbEntity
8
0
100
AcDbPolyline
90
8
70
1
43
0.0
10
-128.49999999999997
20
55
42
-0.4142135623730952
10
-115
20
68.5
10
-5.0000000000000009
20
68.5
42
-0.41421356237309792
10
-1.5000000000000002
20
65
10
-1.5000000000000002
20
5.0000000000000018
42
-0.41421356237309515
10
-5
20
1.5000000000000002
10
-125
20
1.4999999999999947
42
-0.41421356237309281
10
-128.5
20
5
0
LWPOLYLINE
5
101
100
AcDbEntity
8
0
100
AcDbPolyline
90
8
70
1
43
0.0
10
-48.500000000000014
20
5
10
-25.5
20
5
42
0.4142135623730957
10
-25
20
5.5
10
-25
20
17.5
42
0.41421356237309631
10
-25.5
20
18
10
-48.500000000000007
20
18
42
0.41421356237309503
10
-49
20
17.5
10
-49
20
5.5
42
0.41421356237308266
0
LINE
5
102
100
AcDbEntity
8
0
100
AcDbLine
10
9.9895691871198982e-05
20
10.000000149011612
30
0
11
-1.043081288010228e-07
21
10.000000149011612
31
0
0
LINE
5
103
100
AcDbEntity
8
0
100
AcDbLine
10
-7.0000001043081248
20
17.000000149011612
30
0
11
-7.0000001043081284
21
53.000000894069672
31
0
0
LINE
5
104
100
AcDbEntity
8
0
100
AcDbLine
10
-1.0430812873004883e-07
20
60.000000894069672
30
0
11
9.989569187126997e-05
21
60.000000894069672
31
0
0
ARC
5
105
100
AcDbEntity
8
0
100
AcDbCircle
10
-1.0430812519279797e-07
20
53.000000894069672
30
0
40
7.0000000000000018
210
0
220
0
230
1
100
AcDbArc
50
102.37362424211102
51
180
0
ARC
5
106
100
AcDbEntity
8
0
100
AcDbCircle
10
-1.043081332419149e-07
20
17.000000149011605
30
0
40
6.999999999999992
210
0
220
0
230
1
100
AcDbArc
50
257.62637575788904
51
270.00000000000006
0
LINE
5
107
100
AcDbEntity
8
0
100
AcDbLine
10
0
20
0
30
0
11
-130
21
0
31
0
0
LINE
5
108
100
AcDbEntity
8
0
100
AcDbLine
10
-130
20
0
30
0
11
-130
21
70
31
0
0
LINE
5
109
100
AcDbEntity
8
0
100
AcDbLine
10
-130
20
70
30
0
11
0
21
70
31
0
0
LINE
5
110
100
AcDbEntity
8
0
100
AcDbLine
10
0
20
70
30
0
11
0
21
0
31
0
0
LINE
5
111
100
AcDbEntity
8
0
100
AcDbLine
10
-10.000000149011612
20
69.900000938773147
30
0
11
-10.000000149011612
21
70
31
0
0
LINE
5
112
100
AcDbEntity
8
0
100
AcDbLine
10
-16.900000149011611
20
63.000000938773155
30
0
11
-43.10000014901162
21
63.000000938773155
31
0
0
LINE
5
113
100
AcDbEntity
8
0
100
AcDbLine
10
-50.000000149011612
20
69.900000938773147
30
0
11
-50.000000149011612
21
70
31
0
0
LINE
5
114
100
AcDbEntity
8
0
100
AcDbLine
10
-70.000001043081284
20
69.900000938773147
30
0
11
-70.000001043081284
21
70
31
0
0
LINE
5
115
100
AcDbEntity
8
0
100
AcDbLine
10
-76.900001043081275
20
63.000000938773155
30
0
11
-103.10000104308129
21
63.000000938773155
31
0
0
LINE
5
116
100
AcDbEntity
8
0
100
AcDbLine
10
-110.00000104308128
20
69.900000938773147
30
0
11
-110.00000104308128
21
70
31
0
0
ARC
5
117
100
AcDbEntity
8
0
100
AcDbCircle
10
-103.10000104308131
20
69.900000938773132
30
0
40
6.8999999999999773
210
0
220
0
230
1
100
AcDbArc
50
180
51
191.70651775416951
0
ARC
5
118
100
AcDbEntity
8
0
100
AcDbCircle
10
-76.900001043081261
20
69.900000938773132
30
0
40
6.8999999999999773
210
0
220
0
230
1
100
AcDbArc
50
269.99999999999989
51
348.29348224583055
0
ARC
5
119
100
AcDbEntity
8
0
100
AcDbCircle
10
-43.100000149011635
20
69.900000938773132
30
0
40
6.8999999999999773
210
0
220
0
230
1
100
AcDbArc
50
180
51
191.70651775416951
0
ARC
5
120
100
AcDbEntity
8
0
100
AcDbCircle
10
-16.9000001490116
20
69.900000938773147
30
0
40
6.8999999999999853
210
0
220
0
230
1
100
AcDbArc
50
-11.706517754169594
51
0
0
LINE
5
121
100
AcDbEntity
8
0
100
AcDbLine
10
-7.0000001043081284
20
0
30
0
11
-13.000000104308128
21
0
31
0
0
LINE
5
122
100
AcDbEntity
8
0
100
AcDbLine
10
-13.000000104308128
20
0
30
0
11
-13.000000104308128
21
12.5
31
0
0
LINE
5
123
100
AcDbEntity
8
0
100
AcDbLine
10
-13.000000104308128
20
12.5
30
0
11
-13.000000104308128
21
22.5
31
0
0
LINE
5
124
100
AcDbEntity
8
0
100
AcDbLine
10
-13.000000104308128
20
22.5
30
0
11
-13.000000104308128
21
32.5
31
0
0
CIRCLE
5
125
100
AcDbEntity
8
0
100
AcDbCircle
10
-13.000000104308128
20
12.5
30
0
40
2.5
210
0
220
0
230
1
0
CIRCLE
5
126
100
AcDbEntity
8
0
100
AcDbCircle
10
-13.000000104308128
20
22.5
30
0
40
2.5
210
0
220
0
230
1
0
CIRCLE
5
127
100
AcDbEntity
8
0
100
AcDbCircle
10
-13.000000104308128
20
32.5
30
0
40
2.5
210
0
220
0
230
1
0
LINE
5
128
100
AcDbEntity
8
0
100
AcDbLine
10
-13.000000104308128
20
32.5
30
0
11
-13.000000104308128
21
42.5
31
0
0
CIRCLE
5
129
100
AcDbEntity
8
0
100
AcDbCircle
10
-13.000000104308128
20
42.5
30
0
40
2.5
210
0
220
0
230
1
0
CIRCLE
5
130
100
AcDbEntity
8
0
100
AcDbCircle
10
-13.000000104308128
20
12.5
30
0
40
1.5000000000000002
210
0
220
0
230
1
0
CIRCLE
5
131
100
AcDbEntity
8
0
100
AcDbCircle
10
-13.000000104308128
20
22.5
30
0
40
1.5000000000000002
210
0
220
0
230
1
0
CIRCLE
5
132
100
AcDbEntity
8
0
100
AcDbCircle
10
-13.000000104308128
20
32.5
30
0
40
1.5000000000000002
210
0
220
0
230
1
0
CIRCLE
5
133
100
AcDbEntity
8
0
100
AcDbCircle
10
-13.000000104308128
20
42.5
30
0
40
1.5000000000000002
210
0
220
0
230
1
0
LINE
5
134
100
AcDbEntity
8
0
100
AcDbLine
10
-130
20
0
30
0
11
-102.5
21
0
31
0
0
LINE
5
135
100
AcDbEntity
8
0
100
AcDbLine
10
-102.5
20
0
30
0
11
-82.5
21
0
31
0
0
LINE
5
136
100
AcDbEntity
8
0
100
AcDbLine
10
-82.5
20
0
30
0
11
-62.5
21
0
31
0
0
LINE
5
137
100
AcDbEntity
8
0
100
AcDbLine
10
-130
20
0
30
0
11
-119
21
6.7355573953104312e-16
31
0
0
LINE
5
138
100
AcDbEntity
8
0
100
AcDbLine
10
-102.5
20
0
30
0
11
-102.5
21
25
31
0
0
LINE
5
139
100
AcDbEntity
8
0
100
AcDbLine
10
-102.5
20
25
30
0
11
-102.5
21
45
31
0
0
CIRCLE
5
140
100
AcDbEntity
8
0
100
AcDbCircle
10
-102.5
20
25
30
0
40
7.4999999999999947
210
0
220
0
230
1
0
CIRCLE
5
141
100
AcDbEntity
8
0
100
AcDbCircle
10
-102.5
20
45
30
0
40
7.5
210
0
220
0
230
1
0
LINE
5
142
100
AcDbEntity
8
0
100
AcDbLine
10
-82.5
20
0
30
0
11
-82.5
21
15
31
0
0
LINE
5
143
100
AcDbEntity
8
0
100
AcDbLine
10
-82.5
20
15
30
0
11
-82.5
21
35
31
0
0
LINE
5
144
100
AcDbEntity
8
0
100
AcDbLine
10
-62.5
20
0
30
0
11
-62.5
21
17.5
31
0
0
LINE
5
145
100
AcDbEntity
8
0
100
AcDbLine
10
-62.5
20
17.5
30
0
11
-62.5
21
37.500000000000007
31
0
0
LINE
5
146
100
AcDbEntity
8
0
100
AcDbLine
10
-62.5
20
37.500000000000007
30
0
11
-62.5
21
57.500000000000007
31
0
0
CIRCLE
5
147
100
AcDbEntity
8
0
100
AcDbCircle
10
-82.5
20
15
30
0
40
7.5
210
0
220
0
230
1
0
CIRCLE
5
148
100
AcDbEntity
8
0
100
AcDbCircle
10
-82.5
20
35
30
0
40
7.5
210
0
220
0
230
1
0
CIRCLE
5
149
100
AcDbEntity
8
0
100
AcDbCircle
10
-62.5
20
17.5
30
0
40
7.4999999999999964
210
0
220
0
230
1
0
CIRCLE
5
150
100
AcDbEntity
8
0
100
AcDbCircle
10
-62.5
20
37.500000000000007
30
0
40
7.5
210
0
220
0
230
1
0
CIRCLE
5
151
100
AcDbEntity
8
0
100
AcDbCircle
10
-62.5
20
57.500000000000007
30
0
40
7.5
210
0
220
0
230
1
0
LINE
5
152
100
AcDbEntity
8
0
100
AcDbLine
10
-119
20
30
30
0
11
-119
21
55
31
0
0
LINE
5
153
100
AcDbEntity
8
0
100
AcDbLine
10
0
20
0
30
0
11
-27
21
-1.6532731788489267e-15
31
0
0
LINE
5
154
100
AcDbEntity
8
0
100
AcDbLine
10
-27.000000000000011
20
52
30
0
11
-45
21
52
31
0
0
LWPOLYLINE
5
155
100
AcDbEntity
8
0
100
AcDbPolyline
90
12
70
1
43
0.0
10
-45
20
57
10
-27.000000000000011
20
57
42
-0.99999999999999989
10
-27.000000000000011
20
47
10
-32.500000000000007
20
47
10
-32.500000000000007
20
52
42
0.99999999999999989
10
-39.500000000000007
20
52
10
-39.500000000000007
20
47
10
-39.500000000000007
20
40.000000596046448
42
0.99999999999999989
10
-32.500000000000007
20
40.000000596046448
10
-32.500000000000007
20
47
10
-39.500000000000007
20
47
10
-45
20
47
42
-0.99999999999999989
0
LINE
5
156
100
AcDbEntity
8
0
100
AcDbLine
10
-27.000000000000011
20
52
30
0
11
-45
21
52
31
0
0
LINE
5
157
100
AcDbEntity
8
0
100
AcDbLine
10
-36.000000000000007
20
52
30
0
11
-36.000000000000007
21
40.000000596046448
31
0
0
LINE
5
158
100
AcDbEntity
8
0
100
AcDbLine
10
-45
20
37
30
0
11
-45
21
42
31
0
0
LINE
5
159
100
AcDbEntity
8
0
100
AcDbLine
10
-27.000000000000011
20
37
30
0
11
-27.000000000000011
21
42
31
0
0
LINE
5
160
100
AcDbEntity
8
0
100
AcDbLine
10
-36.000000000000007
20
40.000000596046448
30
0
11
-36.000000000000007
21
52
31
0
0
LWPOLYLINE
5
161
100
AcDbEntity
8
0
100
AcDbPolyline
90
4
70
1
43
0.0
10
-41.5
20
42
10
-41.5
20
37
42
-0.99999999999999989
10
-48.5
20
37
10
-48.5
20
42
42
-0.99999999999999989
0
LINE
5
162
100
AcDbEntity
8
0
100
AcDbLine
10
-45
20
37
30
0
11
-45
21
42
31
0
0
LWPOLYLINE
5
163
100
AcDbEntity
8
0
100
AcDbPolyline
90
4
70
1
43
0.0
10
-23.500000000000011
20
42
10
-23.500000000000011
20
37
42
-0.99999999999999989
10
-30.500000000000011
20
37
10
-30.500000000000011
20
42
42
-0.99999999999999989
0
LINE
5
164
100
AcDbEntity
8
0
100
AcDbLine
10
-27.000000000000011
20
37
30
0
11
-27.000000000000011
21
42
31
0
0
LWPOLYLINE
5
165
100
AcDbEntity
8
0
100
AcDbPolyline
90
4
70
1
43
0.0
10
-114
20
55
10
-114
20
30
42
-0.99999999999999989
10
-124
20
30
10
-124
20
55
42
-0.99999999999999989
0
LINE
5
166
100
AcDbEntity
8
0
100
AcDbLine
10
-119
20
30
30
0
11
-119
21
55
31
0
0
LINE
5
167
100
AcDbEntity
8
0
100
AcDbLine
10
-27.000000000000011
20
52
30
0
11
-15.000000223517418
21
52
31
0
0
LINE
5
168
100
AcDbEntity
8
0
100
AcDbLine
10
-15.000000223517418
20
52
30
0
11
-15.000000223517418
21
55.000000819563866
31
0
0
CIRCLE
5
169
100
AcDbEntity
8
0
100
AcDbCircle
10
-15.000000223517418
20
55.000000819563866
30
0
40
3.5000000000000009
210
0
220
0
230
1
0
LINE
5
170
100
AcDbEntity
8
0
100
AcDbLine
10
-119
20
55
30
0
11
-119
21
30
31
0
0
LINE
5
171
100
AcDbEntity
8
0
100
AcDbLine
10
-45
20
37
30
0
11
-45
21
42
31
0
0
LINE
5
172
100
AcDbEntity
8
0
100
AcDbLine
10
-27.000000000000011
20
37
30
0
11
-27.000000000000011
21
42
31
0
0
LINE
5
173
100
AcDbEntity
8
0
100
AcDbLine
10
-49.856478327133274
20
68.5
30
0
11
-70.143522864959607
21
68.5
31
0
0
LINE
5
174
100
AcDbEntity
8
0
100
AcDbLine
10
-109.85647922120295
20
68.5
30
0
11
-115
21
68.5
31
0
0
LINE
5
175
100
AcDbEntity
8
0
100
AcDbLine
10
-128.49999999999997
20
55
30
0
11
-128.5
21
5
31
0
0
LINE
5
176
100
AcDbEntity
8
0
100
AcDbLine
10
-125
20
1.4999999999999947
30
0
11
-5
21
1.5000000000000002
31
0
0
LINE
5
177
100
AcDbEntity
8
0
100
AcDbLine
10
-1.5000000000000002
20
10.162602960539644
30
0
11
-1.5000000000000002
21
5.0000000000000009
31
0
0
LINE
5
178
100
AcDbEntity
8
0
100
AcDbLine
10
-1.5
20
59.83739808254164
30
0
11
-1.5000000000000002
21
65
31
0
0
LINE
5
179
100
AcDbEntity
8
0
100
AcDbLine
10
-10.143521970889944
20
68.5
30
0
11
-5.0000000000000009
21
68.5
31
0
0
ARC
5
180
100
AcDbEntity
8
0
100
AcDbCircle
10
-4.9999999999999787
20
65.000000000000028
30
0
40
3.4999999999999796
210
0
220
0
230
1
100
AcDbArc
50
0
51
90.000000000000369
0
ARC
5
181
100
AcDbEntity
8
0
100
AcDbCircle
10
-5
20
4.9999999999999991
30
0
40
3.4999999999999987
210
0
220
0
230
1
100
AcDbArc
50
-90
51
0
0
ARC
5
182
100
AcDbEntity
8
0
100
AcDbCircle
10
-124.99999999999999
20
4.9999999999999982
30
0
40
3.5000000000000142
210
0
220
0
230
1
100
AcDbArc
50
180
51
269.99999999999972
0
ARC
5
183
100
AcDbEntity
8
0
100
AcDbCircle
10
-115
20
55.000000000000014
30
0
40
13.499999999999979
210
0
220
-0
230
1
100
AcDbArc
50
90
51
180
0
ARC
5
184
100
AcDbEntity
8
0
100
AcDbCircle
10
-103.10000104308131
20
69.900000938773132
30
0
40
6.8999999999999728
210
0
220
0
230
1
100
AcDbArc
50
191.70651775416951
51
270.00000000000011
0
ARC
5
185
100
AcDbEntity
8
0
100
AcDbCircle
10
-76.900001043081261
20
69.900000938773132
30
0
40
6.8999999999999817
210
0
220
0
230
1
100
AcDbArc
50
-11.706517754169489
51
0
0
ARC
5
186
100
AcDbEntity
8
0
100
AcDbCircle
10
-43.100000149011635
20
69.900000938773132
30
0
40
6.8999999999999702
210
0
220
0
230
1
100
AcDbArc
50
191.70651775416951
51
270.00000000000011
0
ARC
5
187
100
AcDbEntity
8
0
100
AcDbCircle
10
-16.9000001490116
20
69.900000938773147
30
0
40
6.8999999999999861
210
0
220
0
230
1
100
AcDbArc
50
269.99999999999989
51
348.29348224583038
0
ARC
5
188
100
AcDbEntity
8
0
100
AcDbCircle
10
-1.0430812519279797e-07
20
53.000000894069672
30
0
40
7.0000000000000018
210
0
220
0
230
1
100
AcDbArc
50
90.000000000000043
51
102.37362424211102
0
ARC
5
189
100
AcDbEntity
8
0
100
AcDbCircle
10
-1.043081332419149e-07
20
17.000000149011605
30
0
40
6.999999999999992
210
0
220
0
230
1
100
AcDbArc
50
180
51
257.62637575788904
0
ARC
5
190
100
AcDbEntity
8
0
100
AcDbCircle
10
-103.10000104308131
20
69.900000938773132
30
0
40
7.900000014901134
210
0
220
0
230
1
100
AcDbArc
50
197.68583857486846
51
270.00000000000011
0
LINE
5
191
100
AcDbEntity
8
0
100
AcDbLine
10
-76.900001043081275
20
62.000000923871994
30
0
11
-103.10000104308129
21
62.000000923871994
31
0
0
ARC
5
192
100
AcDbEntity
8
0
100
AcDbCircle
10
-76.900001043081261
20
69.900000938773132
30
0
40
7.9000000149011385
210
0
220
0
230
1
100
AcDbArc
50
269.99999999999989
51
342.31416142513154
0
LINE
5
193
100
AcDbEntity
8
0
100
AcDbLine
10
-68.32970376571906
20
67.499999985098839
30
0
11
-69.373381904463955
21
67.499999985098839
31
0
0
ARC
5
194
100
AcDbEntity
8
0
100
AcDbCircle
10
-43.100000149011635
20
69.900000938773132
30
0
40
7.9000000149011305
210
0
220
0
230
1
100
AcDbArc
50
197.68583857486846
51
270.00000000000011
0
LINE
5
195
100
AcDbEntity
8
0
100
AcDbLine
10
-16.900000149011611
20
62.000000923871994
30
0
11
-43.10000014901162
21
62.000000923872001
31
0
0
ARC
5
196
100
AcDbEntity
8
0
100
AcDbCircle
10
-16.9000001490116
20
69.900000938773147
30
0
40
7.9000000149011473
210
0
220
0
230
1
100
AcDbArc
50
269.99999999999989
51
342.31416142513143
0
LINE
5
197
100
AcDbEntity
8
0
100
AcDbLine
10
-8.3297028716493813
20
67.499999985098839
30
0
11
-5.0000000000000009
21
67.499999985098839
31
0
0
ARC
5
198
100
AcDbEntity
8
0
100
AcDbCircle
10
-4.9999999999999805
20
65.000000000000028
30
0
40
2.4999999850988184
210
0
220
0
230
1
100
AcDbArc
50
0
51
90.000000000000469
0
LINE
5
199
100
AcDbEntity
8
0
100
AcDbLine
10
-2.5000000149011612
20
61.645809152817662
30
0
11
-2.5000000149011612
21
65.000000000000014
31
0
0
ARC
5
200
100
AcDbEntity
8
0
100
AcDbCircle
10
-1.0430812519279797e-07
20
53.000000894069672
30
0
40
8.0000000149011647
210
0
220
0
230
1
100
AcDbArc
50
108.20995615508399
51
180
0
LINE
5
201
100
AcDbEntity
8
0
100
AcDbLine
10
-8.000000119209286
20
17.000000149011612
30
0
11
-8.0000001192092878
21
53.000000894069672
31
0
0
ARC
5
202
100
AcDbEntity
8
0
100
AcDbCircle
10
-1.043081332419149e-07
20
17.000000149011605
30
0
40
8.0000000149011523
210
0
220
0
230
1
100
AcDbArc
50
180
51
251.79004384491603
0
LINE
5
203
100
AcDbEntity
8
0
100
AcDbLine
10
-2.5000000149011612
20
9.4006580271267559
30
0
11
-2.5000000149011612
21
8.3541918902636283
31
0
0
ARC
5
204
100
AcDbEntity
8
0
100
AcDbCircle
10
-4.9999999999999991
20
4.9999999999999991
30
0
40
2.4999999850988375
210
0
220
0
230
1
100
AcDbArc
50
-90
51
0
0
LINE
5
205
100
AcDbEntity
8
0
100
AcDbLine
10
-125
20
2.5000000149011559
30
0
11
-4.9999999999999991
21
2.5000000149011612
31
0
0
ARC
5
206
100
AcDbEntity
8
0
100
AcDbCircle
10
-124.99999999999999
20
4.9999999999999982
30
0
40
2.499999985098853
210
0
220
0
230
1
100
AcDbArc
50
180
51
269.99999999999972
0
LINE
5
207
100
AcDbEntity
8
0
100
AcDbLine
10
-127.49999998509881
20
55
30
0
11
-127.49999998509884
21
4.9999999999999991
31
0
0
ARC
5
208
100
AcDbEntity
8
0
100
AcDbCircle
10
-115
20
55.000000000000014
30
0
40
12.499999985098817
210
0
220
-0
230
1
100
AcDbArc
50
90
51
180
0
LINE
5
209
100
AcDbEntity
8
0
100
AcDbLine
10
-111.67029832044352
20
67.499999985098839
30
0
11
-115
21
67.499999985098839
31
0
0
LWPOLYLINE
5
210
100
AcDbEntity
8
0
100
AcDbPolyline
90
4
70
1
43
0.0
10
-125.00000001490116
20
30
10
-125.00000001490116
20
55
42
-0.99999999999999989
10
-112.99999998509884
20
55
10
-112.99999998509884
20
30
42
-0.99999999999999989
0
CIRCLE
5
211
100
AcDbEntity
8
0
100
AcDbCircle
10
-102.5
20
25
30
0
40
8.5000000149011612
210
0
220
0
230
1
0
CIRCLE
5
212
100
AcDbEntity
8
0
100
AcDbCircle
10
-102.5
20
45
30
0
40
8.5000000149011612
210
0
220
0
230
1
0
CIRCLE
5
213
100
AcDbEntity
8
0
100
AcDbCircle
10
-82.5
20
35
30
0
40
8.5000000149011612
210
0
220
0
230
1
0
CIRCLE
5
214
100
AcDbEntity
8
0
100
AcDbCircle
10
-82.5
20
15
30
0
40
8.5000000149011612
210
0
220
0
230
1
0
CIRCLE
5
215
100
AcDbEntity
8
0
100
AcDbCircle
10
-62.5
20
17.5
30
0
40
8.5000000149011612
210
0
220
0
230
1
0
CIRCLE
5
216
100
AcDbEntity
8
0
100
AcDbCircle
10
-62.5
20
37.500000000000007
30
0
40
8.5000000149011612
210
0
220
0
230
1
0
CIRCLE
5
217
100
AcDbEntity
8
0
100
AcDbCircle
10
-62.5
20
57.500000000000007
30
0
40
8.5000000149011612
210
0
220
0
230
1
0
LINE
5
218
100
AcDbEntity
8
0
100
AcDbLine
10
-40.500000014901175
20
40.000000596046448
30
0
11
-40.499999985098839
21
42
31
0
0
ARC
5
219
100
AcDbEntity
8
0
100
AcDbCircle
10
-45
20
42
30
0
40
4.5000000149011576
210
0
220
0
230
1
100
AcDbArc
50
0
51
110.59160013753161
0
LINE
5
220
100
AcDbEntity
8
0
100
AcDbLine
10
-49.500000014901161
20
42
30
0
11
-49.500000014901161
21
37
31
0
0
ARC
5
221
100
AcDbEntity
8
0
100
AcDbCircle
10
-45
20
37
30
0
40
4.5000000149011576
210
0
220
0
230
1
100
AcDbArc
50
-180
51
0
0
ARC
5
222
100
AcDbEntity
8
0
100
AcDbCircle
10
-27.000000000000011
20
42
30
0
40
4.500000014901139
210
0
220
-0
230
1
100
AcDbArc
50
69.40839986246975
51
180
0
LINE
5
223
100
AcDbEntity
8
0
100
AcDbLine
10
-31.500000014901172
20
42
30
0
11
-31.499999985098842
21
40.000000596046448
31
0
0
ARC
5
224
100
AcDbEntity
8
0
100
AcDbCircle
10
-27.000000000000011
20
37
30
0
40
4.5000000149011621
210
0
220
0
230
1
100
AcDbArc
50
-180
51
0
0
LINE
5
225
100
AcDbEntity
8
0
100
AcDbLine
10
-22.499999985098849
20
37
30
0
11
-22.499999985098849
21
42
31
0
0
CIRCLE
5
226
100
AcDbEntity
8
0
100
AcDbCircle
10
-15.000000223517418
20
55.000000819563866
30
0
40
4.5000000149011612
210
0
220
0
230
1
0
LINE
5
227
100
AcDbEntity
8
0
100
AcDbLine
10
-40.500000014901175
20
45.999999985098839
30
0
11
-40.500000014901175
21
40.000000596046448
31
0
0
LINE
5
228
100
AcDbEntity
8
0
100
AcDbLine
10
-31.499999985098842
20
40.000000596046448
30
0
11
-31.499999985098842
21
45.999999985098839
31
0
0
LINE
5
229
100
AcDbEntity
8
0
100
AcDbLine
10
-31.499999985098842
20
45.999999985098839
30
0
11
-27.000000000000011
21
45.999999985098839
31
0
0
LINE
5
230
100
AcDbEntity
8
0
100
AcDbLine
10
-27.000000000000011
20
58.000000014901161
30
0
11
-45
21
58.000000014901161
31
0
0
ARC
5
231
100
AcDbEntity
8
0
100
AcDbCircle
10
-45
20
52
30
0
40
6.0000000149011612
210
0
220
0
230
1
100
AcDbArc
50
254.70562756848045
51
270
0
LINE
5
232
100
AcDbEntity
8
0
100
AcDbLine
10
-45
20
45.999999985098839
30
0
11
-40.500000014901175
21
45.999999985098839
31
0
0
ARC
5
233
100
AcDbEntity
8
0
100
AcDbCircle
10
-45
20
52
30
0
40
6.0000000149011612
210
0
220
-0
230
1
100
AcDbArc
50
90
51
229.54691556455401
0
ARC
5
234
100
AcDbEntity
8
0
100
AcDbCircle
10
-45
20
42
30
0
40
4.5000000149012163
210
0
220
0
230
1
100
AcDbArc
50
142.99224772522663
51
180
0
LINE
5
235
100
AcDbEntity
8
0
100
AcDbLine
10
-40.499999985098839
20
37
30
0
11
-40.500000014901175
21
40.000000596046448
31
0
0
LINE
5
236
100
AcDbEntity
8
0
100
AcDbLine
10
-31.499999985098842
20
40.000000596046448
30
0
11
-31.500000014901172
21
37
31
0
0
ARC
5
237
100
AcDbEntity
8
0
100
AcDbCircle
10
-27.000000000000011
20
52
30
0
40
6.0000000149011612
210
0
220
0
230
1
100
AcDbArc
50
270
51
285.29437243151824
0
ARC
5
238
100
AcDbEntity
8
0
100
AcDbCircle
10
-27.000000000000011
20
52
30
0
40
6.0000000149011612
210
0
220
0
230
1
100
AcDbArc
50
0
51
90
0
ARC
5
239
100
AcDbEntity
8
0
100
AcDbCircle
10
-27.000000000000011
20
52
30
0
40
6.0000000149011568
210
0
220
0
230
1
100
AcDbArc
50
-49.546915564554318
51
0
0
ARC
5
240
100
AcDbEntity
8
0
100
AcDbCircle
10
-27.000000000000011
20
42
30
0
40
4.5000000149011621
210
0
220
0
230
1
100
AcDbArc
50
0
51
37.007752274772905
0
ARC
5
241
100
AcDbEntity
8
0
100
AcDbCircle
10
-21.809398497167621
20
45.912499997764826
30
0
40
2.0000000000000386
210
0
220
0
230
1
100
AcDbArc
50
130.45308443544673
51
217.00775227477254
0
ARC
5
242
100
AcDbEntity
8
0
100
AcDbCircle
10
-50.190601502832294
20
45.912499997764868
30
0
40
1.9999999999999312
210
-0
220
0
230
1
100
AcDbArc
50
-37.007752274774127
51
49.546915564555604
0
LINE
5
243
100
AcDbEntity
8
0
100
AcDbLine
10
-31.500000014901172
20
37
30
0
11
-32.645898536696848
21
37.000000011383484
31
0
0
LINE
5
244
100
AcDbEntity
8
0
100
AcDbLine
10
-40.499999985098839
20
37
30
0
11
-39.354101463303159
21
37.000000011383484
31
0
0
ARC
5
245
100
AcDbEntity
8
0
100
AcDbCircle
10
-36.000000000000007
20
40.000000596046448
30
0
40
4.5000000149011665
210
0
220
0
230
1
100
AcDbArc
50
180
51
221.81032471347064
0
ARC
5
246
100
AcDbEntity
8
0
100
AcDbCircle
10
-36.000000000000007
20
40.000000596046448
30
0
40
4.5000000149011656
210
0
220
0
230
1
100
AcDbArc
50
-41.810324713470578
51
0
0
ARC
5
247
100
AcDbEntity
8
0
100
AcDbCircle
10
-36.000000000000007
20
40.000000596046448
30
0
40
4.5000000149011656
210
0
220
0
230
1
100
AcDbArc
50
221.81032471347064
51
318.18967528652939
0
ARC
5
248
100
AcDbEntity
8
0
100
AcDbCircle
10
-103.10000104308131
20
69.900000938773132
30
0
40
8.8999999999999915
210
0
220
0
230
1
100
AcDbArc
50
195.64421607423594
51
270.00000000000023
0
LINE
5
249
100
AcDbEntity
8
0
100
AcDbLine
10
-76.900001043081275
20
61.000000938773155
30
0
11
-103.10000104308128
21
61.000000938773162
31
0
0
ARC
5
250
100
AcDbEntity
8
0
100
AcDbCircle
10
-76.900001043081261
20
69.900000938773132
30
0
40
8.899999999999979
210
0
220
0
230
1
100
AcDbArc
50
269.99999999999989
51
344.35578392576406
0
ARC
5
251
100
AcDbEntity
8
0
100
AcDbCircle
10
-43.100000149011635
20
69.900000938773132
30
0
40
8.8999999999999631
210
0
220
0
230
1
100
AcDbArc
50
195.64421607423603
51
270.00000000000011
0
LINE
5
252
100
AcDbEntity
8
0
100
AcDbLine
10
-16.900000149011611
20
61.000000938773155
30
0
11
-43.10000014901162
21
61.000000938773162
31
0
0
ARC
5
253
100
AcDbEntity
8
0
100
AcDbCircle
10
-16.9000001490116
20
69.900000938773147
30
0
40
8.8999999999999879
210
0
220
0
230
1
100
AcDbArc
50
269.99999999999989
51
344.35578392576394
0
ARC
5
254
100
AcDbEntity
8
0
100
AcDbCircle
10
-1.0430812519279797e-07
20
53.000000894069672
30
0
40
9.0000000000000071
210
0
220
0
230
1
100
AcDbArc
50
106.1276196206607
51
180
0
LINE
5
255
100
AcDbEntity
8
0
100
AcDbLine
10
-9.0000001043081248
20
17.000000149011612
30
0
11
-9.0000001043081284
21
53.000000894069672
31
0
0
ARC
5
256
100
AcDbEntity
8
0
100
AcDbCircle
10
-1.043081332419149e-07
20
17.000000149011605
30
0
40
8.9999999999999929
210
0
220
0
230
1
100
AcDbArc
50
180
51
253.87238037933932
0
LWPOLYLINE
5
257
100
AcDbEntity
8
0
100
AcDbPolyline
90
4
70
1
43
0.0
10
-44.806480691522964
20
53.548685895687036
10
-28.43245653876723
20
53.548685895687036
10
-28.43245653876723
20
47.548685895687029
10
-44.806480691522964
20
47.548685895687044
0
LWPOLYLINE
5
258
100
AcDbEntity
8
0
100
AcDbPolyline
90
4
70
1
43
0.0
10
-65.707733301534489
20
21.12978567283082
10
-59.472381739034489
20
21.12978567283082
10
-59.472381739034489
20
11.129785672830819
10
-65.707733301534489
20
11.129785672830819
0
LWPOLYLINE
5
259
100
AcDbEntity
8
0
100
AcDbPolyline
90
4
70
1
43
0.0
10
-85.717822712148887
20
18.594930582079961
10
-79.716846149648887
20
18.594930582079961
10
-79.716846149648887
20
8.5949305820799626
10
-85.717822712148887
20
8.5949305820799626
0
LWPOLYLINE
5
260
100
AcDbEntity
8
0
100
AcDbPolyline
90
4
70
1
43
0.0
10
-105.26862043688196
20
28.687332678113293
10
-99.82428449938196
20
28.687332678113293
10
-99.82428449938196
20
18.687332678113293
10
-105.26862043688196
20
18.687332678113293
0
LWPOLYLINE
5
261
100
AcDbEntity
8
0
100
AcDbPolyline
90
4
70
1
43
0.0
10
-65.189345480671903
20
41.238258954743102
10
-60.282118918171896
20
41.238258954743102
10
-60.282118918171896
20
31.238258954743099
10
-65.189345480671903
20
31.238258954743099
0
LWPOLYLINE
5
262
100
AcDbEntity
8
0
100
AcDbPolyline
90
4
70
1
43
0.0
10
-85.735366172355157
20
38.539135024285088
10
-79.041030234855157
20
38.539135024285088
10
-79.041030234855157
20
28.539135024285088
10
-85.735366172355157
20
28.539135024285088
0
LWPOLYLINE
5
263
100
AcDbEntity
8
0
100
AcDbPolyline
90
4
70
1
43
0.0
10
-106.0566225147482
20
48.42025001364113
10
-98.874005327248199
20
48.42025001364113
10
-98.874005327248199
20
38.42025001364113
10
-106.0566225147482
20
38.42025001364113
0
LWPOLYLINE
5
264
100
AcDbEntity
8
0
100
AcDbPolyline
90
4
70
1
43
0.0
10
-65.60343168555741
20
61.346732236655384
10
-59.60733793555741
20
61.346732236655384
10
-59.60733793555741
20
51.346732236655384
10
-65.60343168555741
20
51.346732236655384
0
LWPOLYLINE
5
265
100
AcDbEntity
8
0
100
AcDbPolyline
90
4
70
1
43
0.0
10
-121.97591967077483
20
46.402527794450265
10
-116.61947435827483
20
46.402527794450265
10
-116.61947435827483
20
36.402527794450265
10
-121.97591967077483
20
36.402527794450265
0
LWPOLYLINE
5
266
100
AcDbEntity
8
0
100
AcDbPolyline
90
4
70
1
43
0.0
10
-16.382039443361109
20
56.746818784208699
10
-14.062703505861107
20
56.746818784208699
10
-14.062703505861107
20
51.746818784208699
10
-16.382039443361109
20
51.746818784208699
0
LWPOLYLINE
5
267
100
AcDbEntity
8
0
100
AcDbPolyline
90
4
70
1
43
0.0
10
-25.640833116582176
20
42.41151148396537
10
-25.640833116582176
20
36.59119898396537
10
-29.640833116582176
20
36.59119898396537
10
-29.640833116582179
20
42.41151148396537
0
LWPOLYLINE
5
268
100
AcDbEntity
8
0
100
AcDbPolyline
90
4
70
1
43
0.0
10
-34.333697654580796
20
44.551643884850385
10
-34.333697654580796
20
38.998909152222517
10
-38.333697654580796
20
38.998909152222517
10
-38.333697654580796
20
44.551643884850385
0
LWPOLYLINE
5
269
100
AcDbEntity
8
0
100
AcDbPolyline
90
4
70
1
43
0.0
10
-43.869447237520198
20
42.153714490679313
10
-43.869447237520198
20
36.593167377260734
10
-47.869447237520205
20
36.593167377260734
10
-47.869447237520205
20
42.153714490679313
0
LINE
5
270
100
AcDbEntity
8
0
100
AcDbLine
10
-9.3733810103942776
20
67.499999985098839
30
0
11
-8.3297028716493813
21
67.499999985098839
31
0
0
LINE
5
271
100
AcDbEntity
8
0
100
AcDbLine
10
-2.5000000149011612
20
60.599343015954531
30
0
11
-2.5000000149011612
21
61.645809152817662
31
0
0
LINE
5
272
100
AcDbEntity
8
0
100
AcDbLine
10
-2.5000000149011612
20
8.3541918902636283
30
0
11
-2.5000000149011612
21
5.0000000000000009
31
0
0
LINE
5
273
100
AcDbEntity
8
0
100
AcDbLine
10
-50.626619287628941
20
67.499999985098839
30
0
11
-51.670297426373828
21
67.499999985098839
31
0
0
LINE
5
274
100
AcDbEntity
8
0
100
AcDbLine
10
-51.670297426373828
20
67.499999985098839
30
0
11
-68.32970376571906
21
67.499999985098839
31
0
0
LINE
5
275
100
AcDbEntity
8
0
100
AcDbLine
10
-110.62662018169861
20
67.499999985098839
30
0
11
-111.67029832044352
21
67.499999985098839
31
0
0
ENDSEC
0
SECTION
2
OBJECTS
0
DICTIONARY
5
C
100
AcDbDictionary
3
ACAD_GROUP
350
D
3
ACAD_MLINESTYLE
350
17
0
DICTIONARY
5
D
100
AcDbDictionary
0
DICTIONARY
5
1A
330
C
100
AcDbDictionary
0
DICTIONARY
5
17
100
AcDbDictionary
0
ENDSEC
0
EOF
