0
SECTION
2
HEADER
9
$INSUNITS
70
4
9
$ACADVER
1
AC1014
9
$HANDSEED
5
FFFF
0
ENDSEC
0
SECTION
2
TABLES
0
TABLE
2
VPORT
5
8
100
AcDbSymbolTable
0
ENDTAB
0
TABLE
2
LTYPE
5
5
100
AcDbSymbolTable
0
LTYPE
5
14
100
AcDbSymbolTableRecord
100
AcDbLinetypeTableRecord
2
BYBLOCK
70
0
0
LTYPE
5
15
100
AcDbSymbolTableRecord
100
AcDbLinetypeTableRecord
2
BYLAYER
70
0
0
ENDTAB
0
TABLE
2
LAYER
5
2
100
AcDbSymbolTable
70
2
0
LAYER
5
50
100
AcDbSymbolTableRecord
100
AcDbLayerTableRecord
2
0
70
0
6
CONTINUOUS
0
ENDTAB
0
TABLE
2
STYLE
5
3
100
AcDbSymbolTable
70
1
0
STYLE
5
11
100
AcDbSymbolTableRecord
100
AcDbTextStyleTableRecord
2
STANDARD
70
0
0
ENDTAB
0
TABLE
2
VIEW
5
6
100
AcDbSymbolTable
70
0
0
ENDTAB
0
TABLE
2
UCS
5
7
100
AcDbSymbolTable
70
0
0
ENDTAB
0
TABLE
2
APPID
5
9
100
AcDbSymbolTable
70
2
0
APPID
5
12
100
AcDbSymbolTableRecord
100
AcDbRegAppTableRecord
2
ACAD
70
0
0
ENDTAB
0
TABLE
2
DIMSTYLE
5
A
100
AcDbSymbolTable
70
1
0
ENDTAB
0
TABLE
2
BLOCK_RECORD
5
1
100
AcDbSymbolTable
70
1
0
BLOCK_RECORD
5
1F
100
AcDbSymbolTableRecord
100
AcDbBlockTableRecord
2
*MODEL_SPACE
0
BLOCK_RECORD
5
1B
100
AcDbSymbolTableRecord
100
AcDbBlockTableRecord
2
*PAPER_SPACE
0
ENDTAB
0
ENDSEC
0
SECTION
2
BLOCKS
0
BLOCK
5
20
100
AcDbEntity
100
AcDbBlockBegin
2
*MODEL_SPACE
0
ENDBLK
5
21
100
AcDbEntity
100
AcDbBlockEnd
0
BLOCK
5
1C
100
AcDbEntity
100
AcDbBlockBegin
2
*PAPER_SPACE
0
ENDBLK
5
1D
100
AcDbEntity
100
AcDbBlockEnd
0
ENDSEC
0
SECTION
2
ENTITIES
0
LWPOLYLINE
5
100
100
AcDbEntity
8
0
100
AcDbPolyline
90
4
70
1
43
0.0
10
-50.272537071107152
20
14.594469052273871
10
-50.26955187483361
20
12.564432927942271
10
-37.369537043268139
20
12.564432927942271
10
-37.372522239541667
20
14.594469052273826
0
LWPOLYLINE
5
101
100
AcDbEntity
8
0
100
AcDbPolyline
90
6
70
1
43
0.0
10
-57.272544639541678
20
33.994481052273933
10
-57.272544639541678
20
14.594469052273871
10
-57.254637639541805
20
14.594495384765725
10
-57.254637639541805
20
14.599930052273786
10
-30.372522239541663
20
14.599930052273791
10
-30.372522239541663
20
33.994481052273933
0
LWPOLYLINE
5
102
100
AcDbEntity
8
0
100
AcDbPolyline
90
4
70
1
43
0.0
10
-95.354637639541806
20
12.961858652273895
10
-95.354637639541863
20
14.993858652273957
10
-97.38663763954186
20
14.993858652273895
10
-97.386637639541789
20
12.961858652273895
0
LINE
5
103
100
AcDbEntity
8
0
100
AcDbLine
10
-37.226692991087802
20
75.081851252273964
30
0
11
-83.967890119119076
21
75.081852734354015
31
0
0
ARC
5
104
100
AcDbEntity
8
0
100
AcDbCircle
10
-83.967890119119062
20
81.581865636648956
30
0
40
6.5000121612549098
210
0
220
-0
230
1
100
AcDbArc
50
89.834365696841402
51
270.00000000000011
0
LINE
5
105
100
AcDbEntity
8
0
100
AcDbLine
10
-83.949099494496693
20
88.081850637315341
30
0
11
-37.226636039433629
21
88.081825252273916
31
0
0
ARC
5
106
100
AcDbEntity
8
0
100
AcDbCircle
10
-37.226639571088896
20
81.581842268245538
30
0
40
6.4999829840293266
210
0
220
-0
230
1
100
AcDbArc
50
89.694356824741149
51
89.999968869312113
0
ARC
5
107
100
AcDbEntity
8
0
100
AcDbCircle
10
-37.235386488089404
20
81.581865636648956
30
0
40
6.5000121612548964
210
0
220
0
230
1
100
AcDbArc
50
-89.923091127900122
51
89.617255185792757
0
LWPOLYLINE
5
108
100
AcDbEntity
8
0
100
AcDbPolyline
90
11
70
1
43
0.0
10
-6.6034565695290226
20
8.572606652273997
10
-31.807079498200579
20
8.572606652273997
10
-50.893604698200576
20
8.544539652273988
10
-145.42238103954173
20
8.5445396522739987
42
-0.45655587340494608
10
-150.39540123954174
20
14.281239201478009
10
-150.39540123954174
20
86.840366652273971
42
-0.41421356237309503
10
-145.31940123954175
20
91.916366652273979
10
-89.766688124304608
20
91.91636665227395
10
-26.876338608846911
20
91.918906650235058
42
-0.41596922652886853
10
0.61736236045820014
20
64.262243767323469
10
0.61736236045807247
20
15.441975187198587
42
-0.40350749627643678
0
CIRCLE
5
109
100
AcDbEntity
8
0
100
AcDbCircle
10
-80.895433639541764
20
28.044632652273911
30
0
40
7.9999840000000013
210
0
220
-0
230
1
0
CIRCLE
5
110
100
AcDbEntity
8
0
100
AcDbCircle
10
-100.89640963954183
20
26.044128652273866
30
0
40
7.9999840000000013
210
0
220
-0
230
1
0
CIRCLE
5
111
100
AcDbEntity
8
0
100
AcDbCircle
10
-100.89640963954183
20
46.044342652273961
30
0
40
7.9999840000000013
210
0
220
-0
230
1
0
CIRCLE
5
112
100
AcDbEntity
8
0
100
AcDbCircle
10
-80.895433639541764
20
48.04459265227397
30
0
40
7.9999840000000013
210
0
220
-0
230
1
0
CIRCLE
5
113
100
AcDbEntity
8
0
100
AcDbCircle
10
-100.89640963954183
20
66.044302652274013
30
0
40
7.9999840000000013
210
0
220
-0
230
1
0
CIRCLE
5
114
100
AcDbEntity
8
0
100
AcDbCircle
10
-120.89662363954179
20
56.044068652274021
30
0
40
7.9999840000000013
210
0
220
-0
230
1
0
CIRCLE
5
115
100
AcDbEntity
8
0
100
AcDbCircle
10
-120.89535363954187
20
36.044616652273909
30
0
40
7.9999840000000013
210
0
220
-0
230
1
0
CIRCLE
5
116
100
AcDbEntity
8
0
100
AcDbCircle
10
-138.04947223954173
20
64.769883052273912
30
0
40
7.9999840000000013
210
0
220
-0
230
1
0
CIRCLE
5
117
100
AcDbEntity
8
0
100
AcDbCircle
10
-34.395653639541749
20
53.544708652273854
30
0
40
5.9999880000000001
210
0
220
-0
230
1
0
CIRCLE
5
118
100
AcDbEntity
8
0
100
AcDbCircle
10
-46.395629639541681
20
53.544708652273854
30
0
40
5.9999880000000001
210
0
220
-0
230
1
0
CIRCLE
5
119
100
AcDbEntity
8
0
100
AcDbCircle
10
-58.39560563954187
20
53.544708652273854
30
0
40
5.9999880000000001
210
0
220
-0
230
1
0
CIRCLE
5
120
100
AcDbEntity
8
0
100
AcDbCircle
10
-53.395615639541759
20
64.544686652273995
30
0
40
5.9999880000000001
210
0
220
-0
230
1
0
CIRCLE
5
121
100
AcDbEntity
8
0
100
AcDbCircle
10
-39.395643639541866
20
64.544686652273995
30
0
40
5.9999880000000001
210
0
220
-0
230
1
0
CIRCLE
5
122
100
AcDbEntity
8
0
100
AcDbCircle
10
-20.443459039541768
20
71.889884052273914
30
0
40
7.9999840000000013
210
0
220
-0
230
1
0
LINE
5
123
100
AcDbEntity
8
0
100
AcDbLine
10
-10.010637639541827
20
15.501858652273903
30
0
11
-10.010637639541802
21
64.269858652273911
31
0
0
LINE
5
124
100
AcDbEntity
8
0
100
AcDbLine
10
-39.395643639541866
20
70.544674652273997
30
0
11
-53.395615639541759
21
70.544674652273997
31
0
0
LINE
5
125
100
AcDbEntity
8
0
100
AcDbLine
10
-39.395643639541866
20
58.544698652274008
30
0
11
-53.39561563954171
21
58.544698652274008
31
0
0
LINE
5
126
100
AcDbEntity
8
0
100
AcDbLine
10
-58.39560563954187
20
53.544708652273854
30
0
11
-55.912792939370078
21
59.006896592651749
31
0
0
LINE
5
127
100
AcDbEntity
8
0
100
AcDbLine
10
-34.395653639541749
20
53.544708652273854
30
0
11
-39.395643639541866
21
64.544686652273995
31
0
0
ARC
5
128
100
AcDbEntity
8
0
100
AcDbCircle
10
-37.226639575000718
20
81.580971450320888
30
0
40
6.4991121615477079
210
0
220
0
230
1
100
AcDbArc
50
269.99952908729995
51
269.99980724460511
0
CIRCLE
5
129
100
AcDbEntity
8
0
100
AcDbCircle
10
-100.89640963954183
20
26.044128652273866
30
0
40
7.5199839999999938
210
0
220
0
230
1
0
CIRCLE
5
130
100
AcDbEntity
8
0
100
AcDbCircle
10
-120.89535363954187
20
36.044616652273909
30
0
40
7.5199839999999938
210
0
220
0
230
1
0
CIRCLE
5
131
100
AcDbEntity
8
0
100
AcDbCircle
10
-80.895433639541764
20
28.044632652273911
30
0
40
7.5199840000000027
210
0
220
0
230
1
0
CIRCLE
5
132
100
AcDbEntity
8
0
100
AcDbCircle
10
-80.895433639541764
20
48.04459265227397
30
0
40
7.5199840000000027
210
0
220
0
230
1
0
CIRCLE
5
133
100
AcDbEntity
8
0
100
AcDbCircle
10
-100.89640963954183
20
66.044302652274013
30
0
40
7.5199839999999938
210
0
220
0
230
1
0
CIRCLE
5
134
100
AcDbEntity
8
0
100
AcDbCircle
10
-100.89640963954183
20
46.044342652273961
30
0
40
7.5199839999999938
210
0
220
0
230
1
0
CIRCLE
5
135
100
AcDbEntity
8
0
100
AcDbCircle
10
-120.89662363954179
20
56.044068652274021
30
0
40
7.5199839999999938
210
0
220
0
230
1
0
CIRCLE
5
136
100
AcDbEntity
8
0
100
AcDbCircle
10
-138.04947223954173
20
64.769883052273912
30
0
40
7.5199839999999938
210
0
220
0
230
1
0
CIRCLE
5
137
100
AcDbEntity
8
0
100
AcDbCircle
10
-20.443459039541768
20
71.889884052273914
30
0
40
7.5199839999999982
210
0
220
0
230
1
0
LINE
5
138
100
AcDbEntity
8
0
100
AcDbLine
10
-10.010637639541827
20
15.501858652273903
30
0
11
-10.010615313233233
21
8.572606652273997
31
0
0
LINE
5
139
100
AcDbEntity
8
0
100
AcDbLine
10
-10.010615313233233
20
8.572606652273997
30
0
11
-6.6034565695290226
21
8.572606652273997
31
0
0
LINE
5
140
100
AcDbEntity
8
0
100
AcDbLine
10
-2.3253691852373484
20
64.264286894052731
30
0
11
0.61736236045820014
21
64.262243767323469
31
0
0
LINE
5
141
100
AcDbEntity
8
0
100
AcDbLine
10
0.61736236045820014
20
64.262243767323469
30
0
11
0.61736236045807191
21
15.441975187198585
31
0
0
ARC
5
142
100
AcDbEntity
8
0
100
AcDbCircle
10
-6.556121944622987
20
15.752659671384885
30
0
40
7.1802090445862641
210
0
220
0
230
1
100
AcDbArc
50
269.62228204503805
51
357.52006258893539
0
LINE
5
143
100
AcDbEntity
8
0
100
AcDbLine
10
-10.010535688715391
20
56.584473376893541
30
0
11
-10.010637639541827
21
15.501858652273903
31
0
0
ARC
5
144
100
AcDbEntity
8
0
100
AcDbCircle
10
-2.3307012622438981
20
56.584454318577222
30
0
40
7.6798344264951393
210
0
220
-0
230
1
100
AcDbArc
50
89.960219776092472
51
179.99985781400213
0
LWPOLYLINE
5
145
100
AcDbEntity
8
0
100
AcDbPolyline
90
3
70
1
43
0.0
10
-4.6384521218713033
20
45.27433953646576
10
-4.6384521218713184
20
24.02542296252043
10
-7.1883221107445809
20
24.025422962520434
0
LINE
5
146
100
AcDbEntity
8
0
100
AcDbLine
10
-55.878428339713551
20
59.082498711896115
30
0
11
-53.395615639541759
21
64.544686652273995
31
0
0
LINE
5
147
100
AcDbEntity
8
0
100
AcDbLine
10
-55.912792939370078
20
59.006896592651749
30
0
11
-55.878428339713551
21
59.082498711896115
31
0
0
LINE
5
148
100
AcDbEntity
8
0
100
AcDbLine
10
-46.395629639541681
20
53.544708652273854
30
0
11
-58.39560563954187
21
53.544708652273854
31
0
0
LINE
5
149
100
AcDbEntity
8
0
100
AcDbLine
10
-46.395629639541681
20
53.544708652273854
30
0
11
-34.395653639541749
21
53.544708652273854
31
0
0
ARC
5
150
100
AcDbEntity
8
0
100
AcDbCircle
10
-58.395608017386643
20
53.544707121147951
30
0
40
5.9999903778450658
210
0
220
-0
230
1
100
AcDbArc
50
-294.4439694016142
51
1.4614250772341616e-05
0
ARC
5
151
100
AcDbEntity
8
0
100
AcDbCircle
10
-46.395629639541738
20
53.544708652273883
30
0
40
5.9999880000000303
210
0
220
0
230
1
100
AcDbArc
50
180
51
360
0
ARC
5
152
100
AcDbEntity
8
0
100
AcDbCircle
10
-34.324225210970198
20
53.544708652273918
30
0
40
6.07141642857151
210
0
220
0
230
1
100
AcDbArc
50
-180
51
115.05761541830455
0
ARC
5
153
100
AcDbEntity
8
0
100
AcDbCircle
10
-39.395643639541866
20
64.522947565317423
30
0
40
6.021727086956564
210
-0
220
0
230
1
100
AcDbArc
50
-65.470452544214794
51
90
0
ARC
5
154
100
AcDbEntity
8
0
100
AcDbCircle
10
-53.395615639541759
20
64.501201489970981
30
0
40
6.0434731623030267
210
0
220
0
230
1
100
AcDbArc
50
90
51
245.38544823593529
0
LWPOLYLINE
5
155
100
AcDbEntity
8
0
100
AcDbPolyline
90
6
70
1
43
0.0
10
-52.395617232137766
20
51.097180640414138
42
-1.923145947006343
10
-58.135864685237941
20
60.019489642466262
42
-0.65809048215539057
10
-53.395615639541759
20
71.024674652274001
10
-39.395643639541859
20
71.024674652274001
42
-0.65565218037359185
10
-34.640872377790416
20
60.088468411945826
42
-1.9367956811411293
10
-40.398481876228097
20
51.09023046228593
42
-0.6716576402904002
0
LWPOLYLINE
5
156
100
AcDbEntity
8
0
100
AcDbPolyline
90
4
70
1
43
0.0
10
-50.272537071107152
20
14.594469052273871
10
-50.26955187483361
20
12.564432927942271
10
-37.369537043268139
20
12.564432927942271
10
-37.372522239541667
20
14.594469052273826
0
LWPOLYLINE
5
157
100
AcDbEntity
8
0
100
AcDbPolyline
90
4
70
1
43
0.0
10
-97.38663763954186
20
14.993858652273895
10
-97.386637639541789
20
12.961858652273895
10
-95.354637639541806
20
12.961858652273895
10
-95.354637639541863
20
14.993858652273957
0
ARC
5
158
100
AcDbEntity
8
0
100
AcDbCircle
10
37.226639571083638
20
81.581842270524021
30
0
40
6.499982981750847
210
0
220
0
230
-1
100
AcDbArc
50
90.000031130641545
51
90.305643175319716
0
ARC
5
159
100
AcDbEntity
8
0
100
AcDbCircle
10
37.235386488089404
20
81.581865636648956
30
0
40
6.5000121612542223
210
0
220
0
230
-1
100
AcDbArc
50
90.382744814207314
51
269.92309112790014
0
ARC
5
160
100
AcDbEntity
8
0
100
AcDbCircle
10
37.226639571083638
20
81.581842270524021
30
0
40
6.4999829817508461
210
-0
220
0
230
-1
100
AcDbArc
50
270.00019276545436
51
270.00047088413868
0
LINE
5
161
100
AcDbEntity
8
0
100
AcDbLine
10
-37.226692991087802
20
75.081855270633326
30
0
11
-83.967890119119076
21
75.081852734354015
31
0
0
ARC
5
162
100
AcDbEntity
8
0
100
AcDbCircle
10
83.967890119119076
20
81.581865636648956
30
0
40
6.5000121612549044
210
0
220
-0
230
-1
100
AcDbArc
50
-90
51
90.165634303158726
0
LINE
5
163
100
AcDbEntity
8
0
100
AcDbLine
10
-83.949099494496693
20
88.081850637315341
30
0
11
-37.226636039433629
21
88.081825252273916
31
0
0
LWPOLYLINE
5
164
100
AcDbEntity
8
0
100
AcDbPolyline
90
6
70
1
43
0.0
10
-30.372522239541663
20
14.599930052273791
10
-30.372522239541663
20
33.994481052273933
10
-57.272544639541678
20
33.994481052273933
10
-57.272544639541678
20
14.594469052273871
10
-57.254637639541805
20
14.594495384765725
10
-57.254637639541805
20
14.599930052273786
0
LWPOLYLINE
5
165
100
AcDbEntity
8
0
100
AcDbPolyline
90
11
70
1
43
0.0
10
-31.807079498200579
20
8.572606652273997
10
-50.893604698200576
20
8.544539652273988
10
-145.42238103954173
20
8.5445396522739987
42
-0.45655587340494608
10
-150.39540123954174
20
14.281239201478009
10
-150.39540123954174
20
86.840366652273971
42
-0.41421356237309503
10
-145.31940123954175
20
91.916366652273979
10
-89.766688124304608
20
91.91636665227395
10
-26.876338608846911
20
91.918906650235058
42
-0.41596922652886853
10
0.61736236045820014
20
64.262243767323469
10
0.61736236045807247
20
15.441975187198587
42
-0.40350749627643684
10
-6.6034565695290226
20
8.572606652273997
0
LINE
5
166
100
AcDbEntity
8
0
100
AcDbLine
10
-37.226692991054506
20
75.081859288992689
30
0
11
-83.96789011911909
21
75.08185273435403
31
0
0
LWPOLYLINE
5
167
100
AcDbEntity
8
0
100
AcDbPolyline
90
5
70
1
43
0.0
10
-37.177548224745038
20
90.481689859956859
42
-0.99608714959343458
10
-37.223439889277749
20
72.681861493432962
10
-83.967890119119261
20
72.681853475394064
42
-1.0012360660211421
10
-83.945901728610409
20
90.481850635578297
10
-37.226634735568339
20
90.481825252271506
42
-0.0013788450771167822
0
LWPOLYLINE
5
168
100
AcDbEntity
8
0
100
AcDbPolyline
90
11
70
1
43
0.0
10
-147.89540123954185
20
13.51755985227415
10
-147.89540123954174
20
86.943406652273978
42
-0.41421356237309503
10
-145.42244123954174
20
89.41636665227395
10
-89.76663763954177
20
89.41636665227395
10
-26.87623763954166
20
89.418906652274018
42
-0.41605441958569156
10
-1.882637639541801
20
64.269858652273783
10
-1.8826376395418269
20
15.501858652273885
42
-0.39623259556445378
10
-6.5943376395417319
20
11.072606652273997
10
-31.80891763954174
20
11.072606652273997
10
-50.895442839541758
20
11.044539652273988
10
-145.42238103954173
20
11.044539652273988
42
-0.41421356237310009
0
LINE
5
169
100
AcDbEntity
8
0
100
AcDbLine
10
-54.772549639541822
20
20.994456252273913
30
0
11
-33.072542239541775
21
20.994456252273949
31
0
0
LINE
5
170
100
AcDbEntity
8
0
100
AcDbLine
10
-54.772549639541843
20
31.79446005227387
30
0
11
-54.772549639541822
21
20.994456252273913
31
0
0
LINE
5
171
100
AcDbEntity
8
0
100
AcDbLine
10
-32.972542439541897
20
31.794460052273905
30
0
11
-54.772549639541843
21
31.79446005227387
31
0
0
LINE
5
172
100
AcDbEntity
8
0
100
AcDbLine
10
-32.972542439541897
20
20.994456252273949
30
0
11
-32.972542439541897
21
31.794460052273905
31
0
0
LINE
5
173
100
AcDbEntity
8
0
100
AcDbLine
10
-11.450719025938657
20
7.2326066522739971
30
0
11
-6.5943376395417346
21
7.2326066522739989
31
0
0
LINE
5
174
100
AcDbEntity
8
0
100
AcDbLine
10
-11.450745669777264
20
15.501858652273903
30
0
11
-11.450719025938657
21
7.2326066522739971
31
0
0
LINE
5
175
100
AcDbEntity
8
0
100
AcDbLine
10
-11.450643718941961
20
56.584476950672993
30
0
11
-11.450745669777264
21
15.501858652273903
31
0
0
ARC
5
176
100
AcDbEntity
8
0
100
AcDbCircle
10
-2.3307012622438981
20
56.584454318577222
30
0
40
9.1199424567261342
210
0
220
-0
230
1
100
AcDbArc
50
89.960219776092472
51
179.99985781400213
0
LINE
5
177
100
AcDbEntity
8
0
100
AcDbLine
10
-2.3243693242392456
20
65.704394577184019
30
0
11
1.9573622949824288
21
65.701421788065161
31
0
0
LINE
5
178
100
AcDbEntity
8
0
100
AcDbLine
10
1.9573622949824288
20
65.701421788065161
30
0
11
2.0389190815234621
21
16.078437947606318
31
0
0
CIRCLE
5
179
100
AcDbEntity
8
0
100
AcDbCircle
10
-21.172413639541766
20
15.494492652273948
30
0
40
1.7999460000000012
210
0
220
-0
230
1
0
CIRCLE
5
180
100
AcDbEntity
8
0
100
AcDbCircle
10
-21.172413639541766
20
25.494472652274041
30
0
40
1.7999460000000012
210
0
220
-0
230
1
0
CIRCLE
5
181
100
AcDbEntity
8
0
100
AcDbCircle
10
-21.172413639541766
20
35.494706652273905
30
0
40
1.7999460000000012
210
0
220
-0
230
1
0
CIRCLE
5
182
100
AcDbEntity
8
0
100
AcDbCircle
10
-21.172667639541668
20
45.494686652274005
30
0
40
1.7999460000000012
210
0
220
-0
230
1
0
CIRCLE
5
183
100
AcDbEntity
8
0
100
AcDbCircle
10
-21.172413639541766
20
25.494472652274041
30
0
40
1.7999460000000009
210
0
220
-0
230
1
0
CIRCLE
5
184
100
AcDbEntity
8
0
100
AcDbCircle
10
-21.172413639541766
20
35.494706652273905
30
0
40
1.7999460000000009
210
0
220
-0
230
1
0
CIRCLE
5
185
100
AcDbEntity
8
0
100
AcDbCircle
10
-21.172413639541766
20
15.494492652273948
30
0
40
1.7999460000000009
210
0
220
-0
230
1
0
CIRCLE
5
186
100
AcDbEntity
8
0
100
AcDbCircle
10
-21.172667639541668
20
45.494686652274005
30
0
40
1.7999460000000009
210
0
220
-0
230
1
0
CIRCLE
5
187
100
AcDbEntity
8
0
100
AcDbCircle
10
21.172413639541766
20
25.494472652274041
30
0
40
1.7999460000000012
210
0
220
0
230
-1
0
CIRCLE
5
188
100
AcDbEntity
8
0
100
AcDbCircle
10
21.172413639541766
20
35.494706652273905
30
0
40
1.7999460000000012
210
0
220
0
230
-1
0
CIRCLE
5
189
100
AcDbEntity
8
0
100
AcDbCircle
10
21.172413639541766
20
15.494492652273948
30
0
40
1.7999460000000012
210
0
220
0
230
-1
0
CIRCLE
5
190
100
AcDbEntity
8
0
100
AcDbCircle
10
21.172667639541668
20
45.494686652274005
30
0
40
1.7999460000000012
210
0
220
0
230
-1
0
LINE
5
191
100
AcDbEntity
8
0
100
AcDbLine
10
-43.822533439541672
20
11.054940463634342
30
0
11
-63.822530735119557
21
11.044539652273988
31
0
0
LWPOLYLINE
5
192
100
AcDbEntity
8
0
100
AcDbPolyline
90
4
70
1
43
0.0
10
-23.822530735119564
20
11.044539652273988
10
-63.822530735119557
20
11.044539652273988
10
-63.822530735119557
20
37.04453965227399
10
-23.822530735119564
20
37.04453965227399
0
ENDSEC
0
SECTION
2
OBJECTS
0
DICTIONARY
5
C
100
AcDbDictionary
3
ACAD_GROUP
350
D
3
ACAD_MLINESTYLE
350
17
0
DICTIONARY
5
D
100
AcDbDictionary
0
DICTIONARY
5
1A
330
C
100
AcDbDictionary
0
DICTIONARY
5
17
100
AcDbDictionary
0
ENDSEC
0
EOF
