0
SECTION
2
HEADER
9
$INSUNITS
70
4
9
$ACADVER
1
AC1014
9
$HANDSEED
5
FFFF
0
ENDSEC
0
SECTION
2
TABLES
0
TABLE
2
VPORT
5
8
100
AcDbSymbolTable
0
ENDTAB
0
TABLE
2
LTYPE
5
5
100
AcDbSymbolTable
0
LTYPE
5
14
100
AcDbSymbolTableRecord
100
AcDbLinetypeTableRecord
2
BYBLOCK
70
0
0
LTYPE
5
15
100
AcDbSymbolTableRecord
100
AcDbLinetypeTableRecord
2
BYLAYER
70
0
0
ENDTAB
0
TABLE
2
LAYER
5
2
100
AcDbSymbolTable
70
2
0
LAYER
5
50
100
AcDbSymbolTableRecord
100
AcDbLayerTableRecord
2
0
70
0
6
CONTINUOUS
0
ENDTAB
0
TABLE
2
STYLE
5
3
100
AcDbSymbolTable
70
1
0
STYLE
5
11
100
AcDbSymbolTableRecord
100
AcDbTextStyleTableRecord
2
STANDARD
70
0
0
ENDTAB
0
TABLE
2
VIEW
5
6
100
AcDbSymbolTable
70
0
0
ENDTAB
0
TABLE
2
UCS
5
7
100
AcDbSymbolTable
70
0
0
ENDTAB
0
TABLE
2
APPID
5
9
100
AcDbSymbolTable
70
2
0
APPID
5
12
100
AcDbSymbolTableRecord
100
AcDbRegAppTableRecord
2
ACAD
70
0
0
ENDTAB
0
TABLE
2
DIMSTYLE
5
A
100
AcDbSymbolTable
70
1
0
ENDTAB
0
TABLE
2
BLOCK_RECORD
5
1
100
AcDbSymbolTable
70
1
0
BLOCK_RECORD
5
1F
100
AcDbSymbolTableRecord
100
AcDbBlockTableRecord
2
*MODEL_SPACE
0
BLOCK_RECORD
5
1B
100
AcDbSymbolTableRecord
100
AcDbBlockTableRecord
2
*PAPER_SPACE
0
ENDTAB
0
ENDSEC
0
SECTION
2
BLOCKS
0
BLOCK
5
20
100
AcDbEntity
100
AcDbBlockBegin
2
*MODEL_SPACE
0
ENDBLK
5
21
100
AcDbEntity
100
AcDbBlockEnd
0
BLOCK
5
1C
100
AcDbEntity
100
AcDbBlockBegin
2
*PAPER_SPACE
0
ENDBLK
5
1D
100
AcDbEntity
100
AcDbBlockEnd
0
ENDSEC
0
SECTION
2
ENTITIES
0
LWPOLYLINE
5
100
100
AcDbEntity
8
0
100
AcDbPolyline
90
4
70
1
43
0.0
10
40.009073847706276
20
37.255438726501708
10
-40.123366392094994
20
37.255438726501708
10
-40.123366392094994
20
-13.573481915297734
10
40.009073847706276
20
-13.573481915297734
0
LINE
5
101
100
AcDbEntity
8
0
100
AcDbLine
10
13.495367196093673
20
27.649690500411552
30
0
11
13.495367196093673
21
8.3896905004115485
31
0
0
LINE
5
102
100
AcDbEntity
8
0
100
AcDbLine
10
-13.504632803906329
20
27.649690500411559
30
0
11
13.495367196093673
21
27.649690500411552
31
0
0
LINE
5
103
100
AcDbEntity
8
0
100
AcDbLine
10
-13.504632803906329
20
27.649690500411559
30
0
11
-13.504632803906524
21
8.1765275819112926
31
0
0
LINE
5
104
100
AcDbEntity
8
0
100
AcDbLine
10
-13.504632803906524
20
8.1765275819112926
30
0
11
-6.5046328039065227
21
8.1765275819112926
31
0
0
LINE
5
105
100
AcDbEntity
8
0
100
AcDbLine
10
13.495367196093673
20
8.3896905004115485
30
0
11
6.495367196093671
21
8.3896905004115485
31
0
0
CIRCLE
5
106
100
AcDbEntity
8
0
100
AcDbCircle
10
36.500001415610306
20
-4.9999994784593582
30
0
40
7.5
210
0
220
-0
230
1
0
CIRCLE
5
107
100
AcDbEntity
8
0
100
AcDbCircle
10
-38.499999701976783
20
-4.9999994784593582
30
0
40
7.4999999999999982
210
0
220
-0
230
1
0
CIRCLE
5
108
100
AcDbEntity
8
0
100
AcDbCircle
10
-33.499999627470977
20
-24.999999776482582
30
0
40
7.5
210
0
220
-0
230
1
0
CIRCLE
5
109
100
AcDbEntity
8
0
100
AcDbCircle
10
31.5000013411045
20
-24.999999776482582
30
0
40
7.5
210
0
220
-0
230
1
0
LINE
5
110
100
AcDbEntity
8
0
100
AcDbLine
10
38.045129122515753
20
37.255438726501701
30
0
11
29.345129122515754
21
37.255438726501708
31
0
0
LINE
5
111
100
AcDbEntity
8
0
100
AcDbLine
10
29.345129122515754
20
37.255438726501708
30
0
11
29.34512912251574
21
32.955438726501704
31
0
0
LINE
5
112
100
AcDbEntity
8
0
100
AcDbLine
10
29.34512912251574
20
32.955438726501704
30
0
11
38.045129122515739
21
32.955438726501704
31
0
0
LINE
5
113
100
AcDbEntity
8
0
100
AcDbLine
10
38.045129122515739
20
32.955438726501704
30
0
11
38.045129122515753
21
37.255438726501701
31
0
0
LINE
5
114
100
AcDbEntity
8
0
100
AcDbLine
10
38.045129122515753
20
37.255438726501701
30
0
11
32.045129122515753
21
37.255438726501716
31
0
0
LINE
5
115
100
AcDbEntity
8
0
100
AcDbLine
10
29.345129122515754
20
37.255438726501708
30
0
11
35.345129122515743
21
37.255438726501708
31
0
0
LINE
5
116
100
AcDbEntity
8
0
100
AcDbLine
10
35.345129122515743
20
37.255438726501708
30
0
11
32.045129122515739
21
37.255438726501708
31
0
0
LINE
5
117
100
AcDbEntity
8
0
100
AcDbLine
10
32.045129122515739
20
37.255438726501708
30
0
11
32.045129122515739
21
39.955438726501711
31
0
0
LINE
5
118
100
AcDbEntity
8
0
100
AcDbLine
10
32.045129122515739
20
39.955438726501711
30
0
11
35.345129122515743
21
39.955438726501711
31
0
0
LINE
5
119
100
AcDbEntity
8
0
100
AcDbLine
10
35.345129122515743
20
39.955438726501711
30
0
11
35.345129122515743
21
37.255438726501708
31
0
0
LINE
5
120
100
AcDbEntity
8
0
100
AcDbLine
10
25.384544538026482
20
37.255438726501708
30
0
11
25.384544538026496
21
30.655438726501707
31
0
0
LWPOLYLINE
5
121
100
AcDbEntity
8
0
100
AcDbPolyline
90
4
70
1
43
0.0
10
16.384544538026496
20
30.655438726501707
10
25.384544538026496
20
30.655438726501707
10
25.384544538026496
20
37.955438726501704
10
16.384544538026496
20
37.955438726501704
0
LWPOLYLINE
5
122
100
AcDbEntity
8
0
100
AcDbPolyline
90
4
70
1
43
0.0
10
-35.977639923068246
20
37.255438726501708
10
-30.977639923068242
20
37.255438726501708
10
-30.977639923068242
20
38.455438726501711
10
-35.977639923068246
20
38.455438726501711
0
LINE
5
123
100
AcDbEntity
8
0
100
AcDbLine
10
-0.057146272194357195
20
37.255438726501708
30
0
11
-2.0571462721943572
21
37.255438726501708
31
0
0
LINE
5
124
100
AcDbEntity
8
0
100
AcDbLine
10
-0.057146272194357195
20
37.255438726501708
30
0
11
1.9428537278056426
21
37.255438726501708
31
0
0
CIRCLE
5
125
100
AcDbEntity
8
0
100
AcDbCircle
10
0
20
20.000000298023224
30
0
40
2.0000000298023224
210
0
220
0
230
1
0
LINE
5
126
100
AcDbEntity
8
0
100
AcDbLine
10
1.9428537278056426
20
37.255438726501708
30
0
11
-2.0571462721943576
21
37.255438726501708
31
0
0
LINE
5
127
100
AcDbEntity
8
0
100
AcDbLine
10
-2.0571462721943576
20
37.255438726501708
30
0
11
-2.0571462721943576
21
33.255438726501708
31
0
0
LINE
5
128
100
AcDbEntity
8
0
100
AcDbLine
10
-2.0571462721943576
20
33.255438726501708
30
0
11
1.9428537278056426
21
33.255438726501708
31
0
0
LINE
5
129
100
AcDbEntity
8
0
100
AcDbLine
10
1.9428537278056426
20
33.255438726501708
30
0
11
1.9428537278056426
21
37.255438726501708
31
0
0
LINE
5
130
100
AcDbEntity
8
0
100
AcDbLine
10
1.9428537278056426
20
33.255438726501708
30
0
11
1.8428537278056425
21
33.255438726501708
31
0
0
LINE
5
131
100
AcDbEntity
8
0
100
AcDbLine
10
-2.0571462721943576
20
33.255438726501708
30
0
11
-1.9571462721943576
21
33.255438726501708
31
0
0
LINE
5
132
100
AcDbEntity
8
0
100
AcDbLine
10
1.8428537278056425
20
33.255438726501708
30
0
11
1.8428537278056425
21
33.35543872650171
31
0
0
LINE
5
133
100
AcDbEntity
8
0
100
AcDbLine
10
1.8428537278056425
20
33.35543872650171
30
0
11
-1.9571462721943576
21
33.35543872650171
31
0
0
LINE
5
134
100
AcDbEntity
8
0
100
AcDbLine
10
-1.9571462721943576
20
33.35543872650171
30
0
11
-1.9571462721943576
21
34.35543872650171
31
0
0
LINE
5
135
100
AcDbEntity
8
0
100
AcDbLine
10
-1.9571462721943576
20
34.35543872650171
30
0
11
1.8428537278056425
21
34.35543872650171
31
0
0
LINE
5
136
100
AcDbEntity
8
0
100
AcDbLine
10
1.8428537278056425
20
34.35543872650171
30
0
11
1.8428537278056425
21
33.35543872650171
31
0
0
LINE
5
137
100
AcDbEntity
8
0
100
AcDbLine
10
1.8428537278056425
20
34.35543872650171
30
0
11
-1.9571462721943576
21
34.35543872650171
31
0
0
LINE
5
138
100
AcDbEntity
8
0
100
AcDbLine
10
-1.9571462721943576
20
34.35543872650171
30
0
11
-1.9571462721943576
21
32.655438726501707
31
0
0
LINE
5
139
100
AcDbEntity
8
0
100
AcDbLine
10
-1.9571462721943576
20
32.655438726501707
30
0
11
1.8428537278056425
21
32.655438726501707
31
0
0
LINE
5
140
100
AcDbEntity
8
0
100
AcDbLine
10
1.8428537278056425
20
32.655438726501707
30
0
11
1.8428537278056425
21
34.35543872650171
31
0
0
LWPOLYLINE
5
141
100
AcDbEntity
8
0
100
AcDbPolyline
90
13
70
1
43
0.0
10
-0.4999999888241291
20
21.2999995239079
10
0
20
21.2999995239079
10
0.4999999888241291
20
21.2999995239079
10
0.4999999888241291
20
20.499999541789293
10
1.4999999664723873
20
20.499999541789293
10
1.4999999664723873
20
19.499999564141035
10
0.4999999888241291
20
19.499999564141035
10
0.4999999888241291
20
18.499999586492777
10
-0.4999999888241291
20
18.499999586492777
10
-0.4999999888241291
20
19.499999564141035
10
-1.4999999664723873
20
19.499999564141035
10
-1.4999999664723873
20
20.499999541789293
10
-0.4999999888241291
20
20.499999541789293
0
LWPOLYLINE
5
142
100
AcDbEntity
8
0
100
AcDbPolyline
90
13
70
1
43
0.0
10
30.551610668837554
20
21.331564805511931
10
30.551610668837554
20
20.531564823393325
10
31.551610646485813
20
20.531564823393325
10
31.551610646485813
20
19.531564845745066
10
30.551610668837554
20
19.531564845745066
10
30.551610668837554
20
18.531564868096808
10
29.551610691189296
20
18.531564868096808
10
29.551610691189296
20
19.531564845745066
10
28.551610713541038
20
19.531564845745066
10
28.551610713541038
20
20.531564823393325
10
29.551610691189296
20
20.531564823393325
10
29.551610691189296
20
21.331564805511931
10
30.051610680013425
20
21.331564805511931
0
LWPOLYLINE
5
143
100
AcDbEntity
8
0
100
AcDbPolyline
90
13
70
1
43
0.0
10
29.551610691189296
20
20.531564823393325
10
29.551610691189296
20
21.331564805511931
10
30.051610680013425
20
21.331564805511931
10
30.551610668837554
20
21.331564805511931
10
30.551610668837554
20
20.531564823393325
10
31.551610646485813
20
20.531564823393325
10
31.551610646485813
20
19.531564845745066
10
30.551610668837554
20
19.531564845745066
10
30.551610668837554
20
18.531564868096808
10
29.551610691189296
20
18.531564868096808
10
29.551610691189296
20
19.531564845745066
10
28.551610713541038
20
19.531564845745066
10
28.551610713541038
20
20.531564823393325
0
LWPOLYLINE
5
144
100
AcDbEntity
8
0
100
AcDbPolyline
90
13
70
1
43
0.0
10
29.551610691189296
20
20.531564823393325
10
29.551610691189296
20
21.331564805511931
10
30.051610680013425
20
21.331564805511931
10
30.551610668837554
20
21.331564805511931
10
30.551610668837554
20
20.531564823393325
10
31.551610646485813
20
20.531564823393325
10
31.551610646485813
20
19.531564845745066
10
30.551610668837554
20
19.531564845745066
10
30.551610668837554
20
18.531564868096808
10
29.551610691189296
20
18.531564868096808
10
29.551610691189296
20
19.531564845745066
10
28.551610713541038
20
19.531564845745066
10
28.551610713541038
20
20.531564823393325
0
LWPOLYLINE
5
145
100
AcDbEntity
8
0
100
AcDbPolyline
90
13
70
1
43
0.0
10
-28.000000417232513
20
25.000000335276127
10
-28.000000417232513
20
25.800000317394733
10
-27.500000428408384
20
25.800000317394733
10
-27.000000439584255
20
25.800000317394733
10
-27.000000439584255
20
25.000000335276127
10
-26.000000461935997
20
25.000000335276127
10
-26.000000461935997
20
24.000000357627869
10
-27.000000439584255
20
24.000000357627869
10
-27.000000439584255
20
23.00000037997961
10
-28.000000417232513
20
23.00000037997961
10
-28.000000417232513
20
24.000000357627869
10
-29.000000394880772
20
24.000000357627869
10
-29.000000394880772
20
25.000000335276127
0
LWPOLYLINE
5
146
100
AcDbEntity
8
0
100
AcDbPolyline
90
13
70
1
43
0.0
10
-26.366090552367663
20
-0.025026864794561732
10
-26.366090552367663
20
0.77497311732404484
10
-25.866090563543533
20
0.77497311732404484
10
-25.366090574719404
20
0.77497311732404484
10
-25.366090574719404
20
-0.025026864794561732
10
-24.366090597071146
20
-0.025026864794561732
10
-24.366090597071146
20
-1.0250268424428199
10
-25.366090574719404
20
-1.0250268424428199
10
-25.366090574719404
20
-2.0250268200910782
10
-26.366090552367663
20
-2.0250268200910782
10
-26.366090552367663
20
-1.0250268424428199
10
-27.366090530015921
20
-1.0250268424428199
10
-27.366090530015921
20
-0.025026864794561732
0
LWPOLYLINE
5
147
100
AcDbEntity
8
0
100
AcDbPolyline
90
13
70
1
43
0.0
10
10.000000149011612
20
0.99999997764825821
10
10.000000149011612
20
1.7999999597668648
10
10.500000137835741
20
1.7999999597668648
10
11.00000012665987
20
1.7999999597668648
10
11.00000012665987
20
0.99999997764825821
10
12.000000104308128
20
0.99999997764825821
10
12.000000104308128
20
0
10
11.00000012665987
20
0
10
11.00000012665987
20
-0.99999997764825821
10
10.000000149011612
20
-0.99999997764825821
10
10.000000149011612
20
0
10
9.0000001713633537
20
0
10
9.0000001713633537
20
0.99999997764825821
0
LWPOLYLINE
5
148
100
AcDbEntity
8
0
100
AcDbPolyline
90
13
70
1
43
0.0
10
-0.5778888625238654
20
30.426308498528361
10
-0.5778888625238654
20
31.226308480646967
10
-0.077888873699736294
20
31.226308480646967
10
0.42211111512439281
20
31.226308480646967
10
0.42211111512439281
20
30.426308498528361
10
1.422111092772651
20
30.426308498528361
10
1.422111092772651
20
29.426308520880102
10
0.42211111512439281
20
29.426308520880102
10
0.42211111512439281
20
28.426308543231844
10
-0.5778888625238654
20
28.426308543231844
10
-0.5778888625238654
20
29.426308520880102
10
-1.5778888401721236
20
29.426308520880102
10
-1.5778888401721236
20
30.426308498528361
0
LWPOLYLINE
5
149
100
AcDbEntity
8
0
100
AcDbPolyline
90
13
70
1
43
0.0
10
-5.8837253359211417
20
-8.8714400553710107
10
-5.8837253359211417
20
-8.0714400732524041
10
-5.3837253470970126
20
-8.0714400732524041
10
-4.8837253582728835
20
-8.0714400732524041
10
-4.8837253582728835
20
-8.8714400553710107
10
-3.8837253806246252
20
-8.8714400553710107
10
-3.8837253806246252
20
-9.8714400330192689
10
-4.8837253582728835
20
-9.8714400330192689
10
-4.8837253582728835
20
-10.871440010667527
10
-5.8837253359211417
20
-10.871440010667527
10
-5.8837253359211417
20
-9.8714400330192689
10
-6.8837253135693999
20
-9.8714400330192689
10
-6.8837253135693999
20
-8.8714400553710107
0
LINE
5
150
100
AcDbEntity
8
0
100
AcDbLine
10
5.0751844766895164
20
-13.573481915297734
30
0
11
5.0751844766895164
21
-12.573481915297734
31
0
0
LWPOLYLINE
5
151
100
AcDbEntity
8
0
100
AcDbPolyline
90
4
70
1
43
0.0
10
1.0751844766895158
20
-12.573481915297734
10
5.0751844766895164
20
-12.573481915297734
10
5.0751844766895164
20
-14.573481915297732
10
1.0751844766895158
20
-14.573481915297732
0
LWPOLYLINE
5
152
100
AcDbEntity
8
0
100
AcDbPolyline
90
4
70
1
43
0.0
10
-14.924815523310484
20
-14.573481915297732
10
-18.924815523310485
20
-14.573481915297732
10
-18.924815523310485
20
-12.573481915297734
10
-14.924815523310484
20
-12.573481915297734
0
LINE
5
153
100
AcDbEntity
8
0
100
AcDbLine
10
-3.8837253806246252
20
-9.8714400330192689
30
0
11
-3.8837253806246252
21
-12.809335066137386
31
0
0
LINE
5
154
100
AcDbEntity
8
0
100
AcDbLine
10
-6.8837253135693999
20
-9.8714400330192689
30
0
11
-6.8837253135693999
21
-12.701536407769618
31
0
0
CIRCLE
5
155
100
AcDbEntity
8
0
100
AcDbCircle
10
-17.00000025331974
20
-5.000000074505806
30
0
40
0.50000000000000089
210
0
220
0
230
1
0
CIRCLE
5
156
100
AcDbEntity
8
0
100
AcDbCircle
10
-27.000000402331352
20
-5.000000074505806
30
0
40
0.50000000000000044
210
0
220
0
230
1
0
CIRCLE
5
157
100
AcDbEntity
8
0
100
AcDbCircle
10
13.000000193715096
20
-5.000000074505806
30
0
40
0.50000000000000067
210
0
220
0
230
1
0
CIRCLE
5
158
100
AcDbEntity
8
0
100
AcDbCircle
10
23.000000342726707
20
-5.000000074505806
30
0
40
0.50000000000000044
210
0
220
0
230
1
0
ENDSEC
0
SECTION
2
OBJECTS
0
DICTIONARY
5
C
100
AcDbDictionary
3
ACAD_GROUP
350
D
3
ACAD_MLINESTYLE
350
17
0
DICTIONARY
5
D
100
AcDbDictionary
0
DICTIONARY
5
1A
330
C
100
AcDbDictionary
0
DICTIONARY
5
17
100
AcDbDictionary
0
ENDSEC
0
EOF
