0
SECTION
2
HEADER
9
$INSUNITS
70
4
9
$ACADVER
1
AC1014
9
$HANDSEED
5
FFFF
0
ENDSEC
0
SECTION
2
TABLES
0
TABLE
2
VPORT
5
8
100
AcDbSymbolTable
0
ENDTAB
0
TABLE
2
LTYPE
5
5
100
AcDbSymbolTable
0
LTYPE
5
14
100
AcDbSymbolTableRecord
100
AcDbLinetypeTableRecord
2
BYBLOCK
70
0
0
LTYPE
5
15
100
AcDbSymbolTableRecord
100
AcDbLinetypeTableRecord
2
BYLAYER
70
0
0
ENDTAB
0
TABLE
2
LAYER
5
2
100
AcDbSymbolTable
70
2
0
LAYER
5
50
100
AcDbSymbolTableRecord
100
AcDbLayerTableRecord
2
0
70
0
6
CONTINUOUS
0
ENDTAB
0
TABLE
2
STYLE
5
3
100
AcDbSymbolTable
70
1
0
STYLE
5
11
100
AcDbSymbolTableRecord
100
AcDbTextStyleTableRecord
2
STANDARD
70
0
0
ENDTAB
0
TABLE
2
VIEW
5
6
100
AcDbSymbolTable
70
0
0
ENDTAB
0
TABLE
2
UCS
5
7
100
AcDbSymbolTable
70
0
0
ENDTAB
0
TABLE
2
APPID
5
9
100
AcDbSymbolTable
70
2
0
APPID
5
12
100
AcDbSymbolTableRecord
100
AcDbRegAppTableRecord
2
ACAD
70
0
0
ENDTAB
0
TABLE
2
DIMSTYLE
5
A
100
AcDbSymbolTable
70
1
0
ENDTAB
0
TABLE
2
BLOCK_RECORD
5
1
100
AcDbSymbolTable
70
1
0
BLOCK_RECORD
5
1F
100
AcDbSymbolTableRecord
100
AcDbBlockTableRecord
2
*MODEL_SPACE
0
BLOCK_RECORD
5
1B
100
AcDbSymbolTableRecord
100
AcDbBlockTableRecord
2
*PAPER_SPACE
0
ENDTAB
0
ENDSEC
0
SECTION
2
BLOCKS
0
BLOCK
5
20
100
AcDbEntity
100
AcDbBlockBegin
2
*MODEL_SPACE
0
ENDBLK
5
21
100
AcDbEntity
100
AcDbBlockEnd
0
BLOCK
5
1C
100
AcDbEntity
100
AcDbBlockBegin
2
*PAPER_SPACE
0
ENDBLK
5
1D
100
AcDbEntity
100
AcDbBlockEnd
0
ENDSEC
0
SECTION
2
ENTITIES
0
LWPOLYLINE
5
100
100
AcDbEntity
8
0
100
AcDbPolyline
90
27
70
1
43
0.0
10
-57.254637639541805
20
14.594469052273871
10
-57.254637639541805
20
14.499930052273786
10
-50.272398050196578
20
14.499930052273786
10
-50.267318208957377
20
11.045463318254143
10
-50.895442839541758
20
11.044539652273988
10
-145.42238103954173
20
11.044539652273988
42
-0.41421356237310031
10
-147.89540123954185
20
13.51755985227415
10
-147.89540123954174
20
86.943406652273978
42
-0.41421356237308665
10
-145.42244123954174
20
89.416366652273979
10
-89.76663763954177
20
89.41636665227395
10
-88.190426420976493
20
89.416430311854654
42
0.77901848133949458
10
-83.967890119118977
20
72.681853475394064
10
-37.223439889277749
20
72.681861493432962
42
0.77869140207400933
10
-33.016987280875384
20
89.4186586413838
10
-26.87623763954166
20
89.418906652274018
42
-0.39931677159488183
10
-1.9148614584258716
20
65.704110257512497
10
-2.3243693242392442
20
65.704394577184019
42
0.41441620460342082
10
-11.450643718941951
20
56.584476950672993
10
-11.450745669777262
20
15.501858652273901
10
-11.450731398561992
20
11.072606652273995
10
-31.80891763954174
20
11.072606652273995
10
-37.367331272466018
20
11.064432927942271
10
-37.372383218631093
20
14.49993005227379
10
-30.372522239541663
20
14.49993005227379
10
-30.372522239541663
20
33.994481052273933
10
-57.272544639541678
20
33.994481052273933
10
-57.272544639541678
20
14.594469052273871
0
CIRCLE
5
101
100
AcDbEntity
8
0
100
AcDbCircle
10
-21.172667639541668
20
45.494686652274005
30
0
40
1.599946000000001
210
0
220
-0
230
1
0
LWPOLYLINE
5
102
100
AcDbEntity
8
0
100
AcDbPolyline
90
4
70
1
43
0.0
10
-97.38663763954186
20
14.993858652273895
10
-97.386637639541789
20
12.961858652273895
10
-95.354637639541806
20
12.961858652273895
10
-95.354637639541863
20
14.993858652273957
0
CIRCLE
5
103
100
AcDbEntity
8
0
100
AcDbCircle
10
-21.172413639541766
20
25.494472652274041
30
0
40
1.599946000000001
210
0
220
-0
230
1
0
CIRCLE
5
104
100
AcDbEntity
8
0
100
AcDbCircle
10
-21.172413639541766
20
35.494706652273905
30
0
40
1.599946000000001
210
0
220
-0
230
1
0
CIRCLE
5
105
100
AcDbEntity
8
0
100
AcDbCircle
10
-21.172413639541766
20
15.494492652273948
30
0
40
1.599946000000001
210
0
220
-0
230
1
0
LWPOLYLINE
5
106
100
AcDbEntity
8
0
100
AcDbPolyline
90
6
70
1
43
0.0
10
-36.845058530994685
20
59.068067849518144
42
-3.4049322229214671
10
-40.395641639541715
20
53.544708652273926
42
-0.99999999999999989
10
-52.395617639541783
20
53.544708652273869
42
-3.4001175765750054
10
-55.912792939370078
20
59.006896592651763
42
-0.80535376845065743
10
-53.395615639541759
20
70.544674652274011
10
-39.395643639541873
20
70.544674652273557
42
-0.80215604688327069
0
CIRCLE
5
107
100
AcDbEntity
8
0
100
AcDbCircle
10
-100.89640963954183
20
46.044342652273961
30
0
40
7.9999839999999978
210
0
220
-0
230
1
0
CIRCLE
5
108
100
AcDbEntity
8
0
100
AcDbCircle
10
-138.04947223954173
20
64.769883052273912
30
0
40
7.9999839999999978
210
0
220
-0
230
1
0
CIRCLE
5
109
100
AcDbEntity
8
0
100
AcDbCircle
10
-120.89535363954187
20
36.044616652273909
30
0
40
7.9999839999999978
210
0
220
-0
230
1
0
CIRCLE
5
110
100
AcDbEntity
8
0
100
AcDbCircle
10
-120.89662363954179
20
56.044068652274021
30
0
40
7.9999839999999978
210
0
220
-0
230
1
0
CIRCLE
5
111
100
AcDbEntity
8
0
100
AcDbCircle
10
-80.895433639541764
20
48.04459265227397
30
0
40
7.9999839999999978
210
0
220
-0
230
1
0
CIRCLE
5
112
100
AcDbEntity
8
0
100
AcDbCircle
10
-100.89640963954183
20
66.044302652274013
30
0
40
7.9999839999999978
210
0
220
-0
230
1
0
CIRCLE
5
113
100
AcDbEntity
8
0
100
AcDbCircle
10
-80.895433639541764
20
28.044632652273911
30
0
40
7.9999839999999978
210
0
220
-0
230
1
0
CIRCLE
5
114
100
AcDbEntity
8
0
100
AcDbCircle
10
-20.443459039541768
20
71.889884052273914
30
0
40
7.9999840000000022
210
0
220
-0
230
1
0
CIRCLE
5
115
100
AcDbEntity
8
0
100
AcDbCircle
10
-100.89640963954183
20
26.044128652273866
30
0
40
7.9999839999999978
210
0
220
-0
230
1
0
CIRCLE
5
116
100
AcDbEntity
8
0
100
AcDbCircle
10
-120.89535363954187
20
36.044616652273909
30
0
40
8.1999839999999971
210
0
220
-0
230
1
0
CIRCLE
5
117
100
AcDbEntity
8
0
100
AcDbCircle
10
-100.89640963954183
20
26.044128652273866
30
0
40
8.1999839999999971
210
0
220
-0
230
1
0
CIRCLE
5
118
100
AcDbEntity
8
0
100
AcDbCircle
10
-100.89640963954183
20
46.044342652273961
30
0
40
8.1999839999999971
210
0
220
-0
230
1
0
CIRCLE
5
119
100
AcDbEntity
8
0
100
AcDbCircle
10
-120.89662363954179
20
56.044068652274021
30
0
40
8.1999839999999971
210
0
220
-0
230
1
0
CIRCLE
5
120
100
AcDbEntity
8
0
100
AcDbCircle
10
-138.04947223954173
20
64.769883052273912
30
0
40
8.1999839999999971
210
0
220
-0
230
1
0
CIRCLE
5
121
100
AcDbEntity
8
0
100
AcDbCircle
10
-100.89640963954183
20
66.044302652274013
30
0
40
8.1999839999999971
210
0
220
-0
230
1
0
CIRCLE
5
122
100
AcDbEntity
8
0
100
AcDbCircle
10
-80.895433639541764
20
48.04459265227397
30
0
40
8.1999839999999971
210
0
220
-0
230
1
0
CIRCLE
5
123
100
AcDbEntity
8
0
100
AcDbCircle
10
-80.895433639541764
20
28.044632652273911
30
0
40
8.1999839999999971
210
0
220
-0
230
1
0
LWPOLYLINE
5
124
100
AcDbEntity
8
0
100
AcDbPolyline
90
6
70
1
43
0.0
10
-40.396825071494376
20
51.978121612075235
42
-0.77268932591255846
10
-52.395617400602745
20
51.982659335746874
42
-2.281247267566211
10
-57.328551474595805
20
59.652183770293533
42
-0.70643719706071506
10
-53.395615639541759
20
70.744674652274
10
-39.395643639541888
20
70.744674652273559
42
-0.70415550121966364
10
-35.44702783228341
20
59.714796033675313
42
-2.2956775713226882
0
CIRCLE
5
125
100
AcDbEntity
8
0
100
AcDbCircle
10
-20.443459039541768
20
71.889884052273914
30
0
40
8.1999840000000024
210
0
220
-0
230
1
0
CIRCLE
5
126
100
AcDbEntity
8
0
100
AcDbCircle
10
-21.172667639541668
20
45.494686652274005
30
0
40
1.7999460000000012
210
0
220
-0
230
1
0
CIRCLE
5
127
100
AcDbEntity
8
0
100
AcDbCircle
10
-21.172413639541766
20
35.494706652273905
30
0
40
1.7999460000000012
210
0
220
-0
230
1
0
CIRCLE
5
128
100
AcDbEntity
8
0
100
AcDbCircle
10
-21.172413639541766
20
25.494472652274041
30
0
40
1.7999460000000012
210
0
220
-0
230
1
0
CIRCLE
5
129
100
AcDbEntity
8
0
100
AcDbCircle
10
-21.172413639541766
20
15.494492652273948
30
0
40
1.7999460000000012
210
0
220
-0
230
1
0
LINE
5
130
100
AcDbEntity
8
0
100
AcDbLine
10
-50.267318208957377
20
11.045463318254143
30
0
11
-37.367331272466018
21
11.064432927942271
31
0
0
LINE
5
131
100
AcDbEntity
8
0
100
AcDbLine
10
-50.467612095172257
20
11.245168999557759
30
0
11
-50.472104163663943
21
14.299930052273787
31
0
0
LINE
5
132
100
AcDbEntity
8
0
100
AcDbLine
10
-50.472104163663943
20
14.299930052273787
30
0
11
-57.454637639541801
21
14.299930052273787
31
0
0
LINE
5
133
100
AcDbEntity
8
0
100
AcDbLine
10
-57.454637639541801
20
14.299930052273787
30
0
11
-57.454637639541801
21
14.39446905227387
31
0
0
LINE
5
134
100
AcDbEntity
8
0
100
AcDbLine
10
-57.454637639541801
20
14.39446905227387
30
0
11
-57.472544639541674
21
14.39446905227387
31
0
0
LINE
5
135
100
AcDbEntity
8
0
100
AcDbLine
10
-57.472544639541674
20
14.39446905227387
30
0
11
-57.472544639541674
21
34.194481052273929
31
0
0
LINE
5
136
100
AcDbEntity
8
0
100
AcDbLine
10
-57.472544639541674
20
34.194481052273929
30
0
11
-30.172522239541664
21
34.194481052273929
31
0
0
LINE
5
137
100
AcDbEntity
8
0
100
AcDbLine
10
-30.172522239541664
20
34.194481052273929
30
0
11
-30.172522239541664
21
14.29993005227379
31
0
0
LINE
5
138
100
AcDbEntity
8
0
100
AcDbLine
10
-30.172522239541664
20
14.29993005227379
30
0
11
-37.172088899616483
21
14.29993005227379
31
0
0
LINE
5
139
100
AcDbEntity
8
0
100
AcDbLine
10
-37.172088899616483
20
14.29993005227379
30
0
11
-37.167625591162398
21
11.26472681415715
31
0
0
LINE
5
140
100
AcDbEntity
8
0
100
AcDbLine
10
-37.167625591162398
20
11.26472681415715
30
0
11
-31.809064690849695
21
11.272606652273996
31
0
0
LINE
5
141
100
AcDbEntity
8
0
100
AcDbLine
10
-31.809064690849695
20
11.272606652273996
30
0
11
-11.650732042970496
21
11.272606652273996
31
0
0
LINE
5
142
100
AcDbEntity
8
0
100
AcDbLine
10
-11.650732042970496
20
11.272606652273996
30
0
11
-11.650745669776224
21
15.501858007866435
31
0
0
LINE
5
143
100
AcDbEntity
8
0
100
AcDbLine
10
-11.650745669776224
20
15.501858007866435
30
0
11
-11.650643718941335
21
56.584477446994015
31
0
0
ARC
5
144
100
AcDbEntity
8
0
100
AcDbCircle
10
-2.3307012622438981
20
56.584454318577222
30
0
40
9.3199424567261389
210
0
220
-0
230
1
100
AcDbArc
50
89.960219776092472
51
179.99985781400213
0
LINE
5
145
100
AcDbEntity
8
0
100
AcDbLine
10
-2.3242304650735268
20
65.904394528979353
30
0
11
-2.1262700297754034
21
65.904257085841778
31
0
0
ARC
5
146
100
AcDbEntity
8
0
100
AcDbCircle
10
-26.875228226082694
20
64.425829409074964
30
0
40
24.793077263582994
210
0
220
-0
230
1
100
AcDbArc
50
3.4186134542909463
51
90.002314046021169
0
LINE
5
147
100
AcDbEntity
8
0
100
AcDbLine
10
-26.876229561997246
20
89.218906652437113
30
0
11
-32.286733795550617
21
89.218688134495522
31
0
0
ARC
5
148
100
AcDbEntity
8
0
100
AcDbCircle
10
-37.235386488089389
20
81.581865636648956
30
0
40
9.1000121612548934
210
0
220
0
230
1
100
AcDbArc
50
-89.956083089135646
51
57.056806316230805
0
LINE
5
149
100
AcDbEntity
8
0
100
AcDbLine
10
-37.228411377754668
20
72.481856148586715
30
0
11
-83.967890084813135
21
72.481853475394061
31
0
0
ARC
5
150
100
AcDbEntity
8
0
100
AcDbCircle
10
-83.96789011911909
20
81.581865636648956
30
0
40
9.1000121612548739
210
0
220
0
230
1
100
AcDbArc
50
122.96966663628369
51
270.00000021599823
0
LINE
5
151
100
AcDbEntity
8
0
100
AcDbLine
10
-88.92007080218319
20
89.216400843017013
30
0
11
-89.766629561997348
21
89.216366652437074
31
0
0
LINE
5
152
100
AcDbEntity
8
0
100
AcDbLine
10
-89.766629561997348
20
89.216366652437074
30
0
11
-145.42244123954174
21
89.216366652273976
31
0
0
ARC
5
153
100
AcDbEntity
8
0
100
AcDbCircle
10
-145.42244123954171
20
86.943406652273936
30
0
40
2.2729600000000438
210
0
220
0
230
1
100
AcDbArc
50
90.000000000000725
51
180
0
LINE
5
154
100
AcDbEntity
8
0
100
AcDbLine
10
-147.69540123954175
20
86.943406652273978
30
0
11
-147.69540123954184
21
13.51755985227415
31
0
0
ARC
5
155
100
AcDbEntity
8
0
100
AcDbCircle
10
-145.42238103954173
20
13.517559852274106
30
0
40
2.2730202000001221
210
0
220
0
230
1
100
AcDbArc
50
180
51
270
0
LINE
5
156
100
AcDbEntity
8
0
100
AcDbLine
10
-145.42238103954173
20
11.244539652273989
30
0
11
-50.895589890849706
21
11.244539652273989
31
0
0
LINE
5
157
100
AcDbEntity
8
0
100
AcDbLine
10
-50.895589890849706
20
11.244539652273989
30
0
11
-50.467612095172257
21
11.245168999557759
31
0
0
LINE
5
158
100
AcDbEntity
8
0
100
AcDbLine
10
-37.167625591162398
20
11.26472681415715
30
0
11
-50.467612095172257
21
11.245168999557759
31
0
0
LWPOLYLINE
5
159
100
AcDbEntity
8
0
100
AcDbPolyline
90
4
70
1
43
0.0
10
-97.38663763954186
20
14.993858652273895
10
-95.354637639541863
20
14.993858652273957
10
-95.354637639541806
20
12.961858652273895
10
-97.386637639541789
20
12.961858652273895
0
LINE
5
160
100
AcDbEntity
8
0
100
AcDbLine
10
-32.972542439541897
20
31.794460052273905
30
0
11
-54.772549639541843
21
31.79446005227387
31
0
0
LINE
5
161
100
AcDbEntity
8
0
100
AcDbLine
10
-54.772549639541843
20
31.79446005227387
30
0
11
-54.772549639541822
21
20.994456252273913
31
0
0
LINE
5
162
100
AcDbEntity
8
0
100
AcDbLine
10
-54.772549639541822
20
20.994456252273913
30
0
11
-33.072542239541775
21
20.994456252273949
31
0
0
LINE
5
163
100
AcDbEntity
8
0
100
AcDbLine
10
-32.972542439541897
20
20.994456252273949
30
0
11
-32.972542439541897
21
31.794460052273905
31
0
0
LWPOLYLINE
5
164
100
AcDbEntity
8
0
100
AcDbPolyline
90
5
70
1
43
0.0
10
-31.972542424640732
20
32.794460067175066
10
-31.972542424640732
20
19.994456237372791
10
-33.072542239541775
20
19.994456237372788
10
-55.772549654442983
20
19.994456237372752
10
-55.772549654443004
20
32.794460067175031
0
ENDSEC
0
SECTION
2
OBJECTS
0
DICTIONARY
5
C
100
AcDbDictionary
3
ACAD_GROUP
350
D
3
ACAD_MLINESTYLE
350
17
0
DICTIONARY
5
D
100
AcDbDictionary
0
DICTIONARY
5
1A
330
C
100
AcDbDictionary
0
DICTIONARY
5
17
100
AcDbDictionary
0
ENDSEC
0
EOF
