P1
# CREATOR: GIMP PNM Filter Version 1.1
20 8
0011111111111111111100100000000000000001111000001111111111011110000011
1111111101111000001111111111011110000011111111110100100000000000000001
00111111111111111111