P1
# CREATOR: GIMP PNM Filter Version 1.1
20 8
0011111111111111111100100000000000000001111011111111111111011110111111
1111111101111011111111111111011110111111111111110100100000000000000001
00111111111111111111