P1
# CREATOR: GIMP PNM Filter Version 1.1
20 8
0011111111111111111100100000000000000001111000000000001111011110000000
0000111101111000000000001111011110000000000011110100100000000000000001
00111111111111111111