P1
# CREATOR: GIMP PNM Filter Version 1.1
9 8
0001110000010001000010101000100100100100000101000100011000000011111111
11